<?xml version="1.0" standalone="no"?>
<!DOCTYPE svg PUBLIC "-//W3C//DTD SVG 1.1//EN" "http://www.w3.org/Graphics/SVG/1.1/DTD/svg11.dtd" >
<svg xmlns="http://www.w3.org/2000/svg" xmlns:xlink="http://www.w3.org/1999/xlink" version="1.1">
<metadata>
Created by FontForge 20170731 at Wed Oct 23 13:47:34 2019
 By Aleksey,,,
Copyright (c) 2019 by Rune Bjrneras. All rights reserved.
</metadata>
<defs>
<font id="VictorMono-ThinItalic" horiz-adv-x="600" >
  <font-face 
    font-family="Victor Mono Thin"
    font-weight="100"
    font-style="italic"
    font-stretch="normal"
    units-per-em="1100"
    panose-1="0 0 2 9 0 0 0 0 0 0"
    ascent="880"
    descent="-220"
    x-height="618"
    cap-height="800"
    bbox="-1773 -340 821 1110"
    underline-thickness="50"
    underline-position="-200"
    slope="-12"
    unicode-range="U+0020-E0B3"
  />
<missing-glyph 
d="M2 0l173 814h354l-173 -814h-354zM38 28h294l162 758h-294z" />
    <glyph glyph-name=".notdef" 
d="M2 0l173 814h354l-173 -814h-354zM38 28h294l162 758h-294z" />
    <glyph glyph-name=".null" horiz-adv-x="0" 
 />
    <glyph glyph-name="nonmarkingreturn" horiz-adv-x="366" 
 />
    <glyph glyph-name="space" unicode=" " 
 />
    <glyph glyph-name="exclam" unicode="!" 
d="M261 198l118 602h50l-138 -602h-30zM234 -14q-36 0 -45.5 11.5t-1.5 44.5q6 32 18.5 42t46.5 10q35 0 44.5 -12t2.5 -45q-7 -31 -20 -41t-45 -10z" />
    <glyph glyph-name="quotedbl" unicode="&#x22;" 
d="M207 510l51 290h49l-70 -290h-30zM449 510l51 290h49l-70 -290h-30z" />
    <glyph glyph-name="numbersign" unicode="#" 
d="M605 524h-102l-83 -248h112l-6 -28h-115l-82 -248h-31l82 248h-223l-82 -248h-30l82 248h-99l6 28h102l83 248h-112l6 28h115l82 248h31l-82 -248h223l82 248h30l-82 -248h99zM390 276l82 248h-223l-82 -248h223z" />
    <glyph glyph-name="dollar" unicode="$" 
d="M421 814q74 -1 111 -20.5t57 -64.5l-22 -18q-15 42 -48 58t-104 17l-75 -353q105 -38 138 -87.5t14 -137.5q-25 -123 -79 -171.5t-167 -50.5l-12 -55h-30l12 55q-83 2 -122 24t-59 75l25 18q14 -49 49 -68.5t113 -20.5l84 400q-96 38 -127 81.5t-15 119.5q24 111 73 154
t154 45l13 60h30zM195 610q-15 -66 10.5 -103t106.5 -65l73 344q-87 -3 -128.5 -42t-61.5 -134zM464 213q16 75 -12 116.5t-118 74.5l-82 -390q96 3 142.5 46.5t69.5 152.5z" />
    <glyph glyph-name="percent" unicode="%" 
d="M204 514q-78 0 -102.5 30.5t-7.5 108.5q16 76 50.5 104.5t111.5 28.5q80 0 104 -30t7 -108q-17 -77 -51 -105.5t-112 -28.5zM204 542q63 0 92 24.5t42 86.5q13 60 -4.5 82.5t-77.5 22.5q-62 0 -91 -24t-43 -86q-12 -61 5.5 -83.5t76.5 -22.5zM-21 105l639 590h43
l-640 -590h-42zM381 14q-78 0 -102.5 30t-7.5 108q17 77 51.5 105.5t111.5 28.5q79 0 103.5 -30.5t8.5 -108.5q-17 -76 -52 -104.5t-113 -28.5zM381 42q63 0 92 24t43 86q14 61 -4 83.5t-79 22.5t-90 -24.5t-42 -86.5q-14 -60 3.5 -82.5t76.5 -22.5z" />
    <glyph glyph-name="ampersand" unicode="&#x26;" 
d="M592 375h-83q-38 -161 -130 -264q45 -57 97 -112l-39 1q-42 45 -78 90q-106 -104 -241 -104q-71 0 -105 47t-18 123q22 103 176 236q-61 150 -40 252q17 77 64.5 123.5t109.5 46.5q65 0 95.5 -45.5t14.5 -119.5q-14 -64 -60 -129.5t-108 -108.5l-39 -28q56 -124 153 -250
q85 98 118 242h-81l6 28h194zM161 642q-19 -93 35 -230q14 13 29 23q61 43 105 103t54 116q13 59 -10 95.5t-74 36.5q-48 0 -87 -40t-52 -104zM118 14q125 0 223 98q-99 126 -157 251q-64 -54 -106.5 -110t-51.5 -101q-13 -62 12 -100t80 -38z" />
    <glyph glyph-name="quotesingle" unicode="'" 
d="M328 510l51 290h49l-70 -290h-30z" />
    <glyph glyph-name="parenleft" unicode="(" 
d="M335 -145q-114 0 -152 150.5t14 396.5q52 245 152.5 394t214.5 149l-3 -28q-101 0 -193.5 -143t-141.5 -376q-50 -232 -19 -373.5t131 -141.5z" />
    <glyph glyph-name="parenright" unicode=")" 
d="M75 -145l3 28q101 0 193.5 143t141.5 376q49 232 18.5 373.5t-130.5 141.5l3 28q114 0 152 -150.5t-14 -396.5q-53 -245 -153 -394t-214 -149z" />
    <glyph glyph-name="asterisk" unicode="*" 
d="M566 516l-219 -116l171 -115l-20 -23l-169 114l-49 -231h-30l49 230l-216 -114l-10 24l219 116l-171 115l20 23l169 -114l49 231h30l-49 -230l216 114z" />
    <glyph glyph-name="plus" unicode="+" 
d="M586 414l-6 -28h-249l-54 -250h-28l54 250h-251l6 28h250l54 250h28l-54 -250h250z" />
    <glyph glyph-name="comma" unicode="," 
d="M106 -202l113 186q-24 1 -31.5 14.5t-0.5 43.5q6 32 18.5 42t46.5 10q35 0 44.5 -12t2.5 -45q-16 -73 -159 -241z" />
    <glyph glyph-name="hyphen" unicode="-" 
d="M146 386l6 28h340l-6 -28h-340z" />
    <glyph glyph-name="period" unicode="." 
d="M234 -14q-36 0 -45.5 11.5t-1.5 44.5q6 32 18.5 42t46.5 10q35 0 44.5 -12t2.5 -45q-7 -31 -20 -41t-45 -10z" />
    <glyph glyph-name="slash" unicode="/" 
d="M-20 -182l639 1130h32l-640 -1130h-31z" />
    <glyph glyph-name="zero" unicode="0" 
d="M234 -14q-96 0 -136.5 115.5t-0.5 300.5q38 184 125.5 298t182.5 114t136 -115.5t1 -300.5q-40 -184 -127.5 -298t-180.5 -114zM235 14q83 0 162 107t116 281q36 176 4 280t-113 104q-83 0 -162 -107t-116 -281q-36 -176 -4 -280t113 -104zM314 362q-20 0 -29 11t-5 29
q5 34 45 34q19 0 28.5 -10.5t5.5 -27.5q-4 -16 -16 -26t-29 -10z" />
    <glyph glyph-name="one" unicode="1" 
d="M419 799q-1 -1 -1 -4.5t-1 -5.5l-161 -761h141l-6 -28h-314l6 28h143l140 665q-69 -79 -177 -79l4 27q65 0 119 40.5t74 102.5l3 16h1v1l15 -1h14v-1z" />
    <glyph glyph-name="two" unicode="2" 
d="M14 0l9 38q8 39 38.5 77t74 71.5t94.5 68.5t103 74.5t97.5 82.5t80 99.5t47.5 118.5q19 89 -14.5 122.5t-140.5 33.5q-104 0 -154 -33.5t-70 -117.5l-29 3q24 102 77.5 139t176.5 37q128 0 167 -40.5t16 -148.5q-14 -66 -50 -125.5t-83 -104t-100.5 -85t-105 -75
t-94.5 -67t-71.5 -69t-33.5 -73.5l409 2l-6 -28h-438z" />
    <glyph glyph-name="three" unicode="3" 
d="M234 -14q-120 0 -157.5 39t-15.5 144l30 -2q-19 -86 13.5 -119.5t130.5 -33.5q101 0 149.5 41.5t71.5 150.5q23 107 -1.5 152t-112.5 51h-61l6 28h59q90 6 134 46t64 132q21 97 -9.5 134t-130.5 37q-99 0 -147 -30.5t-64 -105.5l-29 3q20 93 71.5 127t169.5 34
q121 0 157 -43t12 -161q-18 -81 -49 -121t-98 -67q55 -25 67.5 -72.5t-7.5 -148.5q-28 -125 -81 -170t-172 -45z" />
    <glyph glyph-name="four" unicode="4" 
d="M353 0l47 220h-345l7 35l462 545h29l-117 -552h74l-6 -28h-74l-47 -220h-30zM94 248h312l108 504z" />
    <glyph glyph-name="five" unicode="5" 
d="M234 -14q-124 0 -163.5 35.5t-20.5 129.5l30 -3q-16 -75 18.5 -104.5t136.5 -29.5q113 0 167 48.5t80 172.5q26 121 -6.5 168.5t-143.5 47.5q-43 0 -81 -13.5t-93 -48.5h-37l87 411h399l-5 -27h-369l-78 -366q47 42 84.5 57t94.5 15q132 0 170 -54t7 -195
q-30 -141 -88.5 -192.5t-188.5 -51.5z" />
    <glyph glyph-name="six" unicode="6" 
d="M234 -14q-126 0 -161 52.5t-5 196.5l67 314q33 154 89.5 209.5t180.5 55.5t163 -38.5t17 -140.5l-29 2q17 84 -16.5 116.5t-135.5 32.5q-106 0 -158.5 -52.5t-81.5 -186.5l-34 -160q42 57 84.5 76.5t120.5 19.5q125 0 160 -54.5t4 -196.5q-30 -142 -86 -194t-179 -52z
M235 14q106 0 157.5 48.5t78.5 174.5q26 122 -4 170t-134 48q-105 0 -157.5 -50t-78.5 -174t3.5 -170.5t134.5 -46.5z" />
    <glyph glyph-name="seven" unicode="7" 
d="M107 1q207 431 477 773l-404 -2l5 28h433l-5 -29q-272 -345 -474 -772z" />
    <glyph glyph-name="eight" unicode="8" 
d="M234 -14q-131 0 -168.5 48t-9.5 180q20 95 55 140t109 71q-49 25 -61.5 66t4.5 123q26 116 76.5 158t165.5 42q116 0 150.5 -43.5t10.5 -161.5q-18 -82 -47 -121t-91 -65q63 -26 79 -71.5t-5 -142.5q-26 -129 -83 -176t-185 -47zM325 437q96 0 143 40t67 137
q22 98 -6.5 135t-124.5 37q-97 0 -143.5 -39t-66.5 -138q-21 -95 7.5 -133.5t123.5 -38.5zM235 14q110 0 162.5 43.5t76.5 156.5q23 108 -10 151.5t-140 43.5q-110 0 -163 -44.5t-77 -155.5q-23 -111 9.5 -153t141.5 -42z" />
    <glyph glyph-name="nine" unicode="9" 
d="M234 -14q-124 0 -163 38.5t-18 140.5l30 -3q-18 -83 16 -115.5t136 -32.5q106 0 158.5 52.5t80.5 187.5l35 159q-42 -57 -84.5 -76.5t-120.5 -19.5q-125 0 -160 54.5t-6 196.5q32 143 87.5 194.5t179.5 51.5q125 0 160.5 -52.5t4.5 -196.5l-65 -313q-33 -154 -90.5 -210
t-180.5 -56zM305 345q105 0 158 50t79 174t-3.5 170.5t-134.5 46.5q-106 0 -157.5 -48.5t-78.5 -174.5q-26 -122 3.5 -170t133.5 -48z" />
    <glyph glyph-name="colon" unicode=":" 
d="M345 510q-35 0 -44.5 12t-2.5 45q7 31 20 41t45 10q36 0 45.5 -11.5t1.5 -44.5q-6 -32 -18.5 -42t-46.5 -10zM234 -14q-36 0 -45.5 11.5t-1.5 44.5q6 32 18.5 42t46.5 10q35 0 44.5 -12t2.5 -45q-7 -31 -20 -41t-45 -10z" />
    <glyph glyph-name="semicolon" unicode=";" 
d="M345 510q-35 0 -44.5 12t-2.5 45q7 31 20 41t45 10q36 0 45.5 -11.5t1.5 -44.5q-6 -32 -18.5 -42t-46.5 -10zM106 -202l113 186q-24 1 -31.5 14.5t-0.5 43.5q6 32 18.5 42t46.5 10q35 0 44.5 -12t2.5 -45q-16 -73 -159 -241z" />
    <glyph glyph-name="less" unicode="&#x3c;" 
d="M430 63l-314 337l455 337l16 -21l-426 -316l292 -316z" />
    <glyph glyph-name="equal" unicode="=" 
d="M78 506l6 28h528l-6 -28h-528zM27 266l6 28h528l-6 -28h-528z" />
    <glyph glyph-name="greater" unicode="&#x3e;" 
d="M66 63l-15 21l426 316l-292 316l23 21l314 -337z" />
    <glyph glyph-name="question" unicode="?" 
d="M268 237q9 42 30.5 71.5t48 44.5t57.5 36.5t59.5 45.5t54 74.5t40.5 120.5q19 89 -14.5 122.5t-140.5 33.5q-104 0 -154 -33.5t-70 -117.5l-29 3q24 102 77.5 139t176.5 37q128 0 167 -40.5t16 -148.5q-14 -65 -35 -112.5t-45 -74t-50 -45t-51 -31t-46.5 -27t-38 -39.5
t-24.5 -61zM234 -14q-36 0 -45.5 11.5t-1.5 44.5q6 32 18.5 42t46.5 10q35 0 44.5 -12t2.5 -45q-7 -31 -20 -41t-45 -10z" />
    <glyph glyph-name="at" unicode="@" 
d="M239 13q-116 0 -169.5 36.5t-64 127t25.5 244.5q45 210 122.5 287t245.5 77q170 0 216 -78.5t1 -290.5q-30 -142 -60.5 -193.5t-85.5 -51.5q-33 0 -43.5 16t-7.5 59q-32 -50 -62 -67t-88 -17q-87 0 -111.5 31.5t-5.5 117.5l33 157q21 98 58 133t122 35q90 0 114 -36
t3 -135l-37 -174q-12 -52 -6.5 -72.5t32.5 -20.5q39 0 64 48t52 175q41 191 0.5 264t-189.5 73q-151 0 -224 -74.5t-114 -267.5q-33 -140 -24.5 -223.5t56.5 -118t149 -34.5q68 0 116 34l10 -25q-35 -21 -61.5 -28.5t-66.5 -7.5zM270 189q70 0 104 34t53 121l26 124
q16 80 -2.5 110.5t-86.5 30.5t-100.5 -32t-49.5 -112l-33 -157q-14 -66 5 -92.5t84 -26.5z" />
    <glyph glyph-name="A" unicode="A" 
d="M443 0l-14 225h-293l-109 -225h-32l391 800h36l52 -800h-31zM150 253h278l-31 510z" />
    <glyph glyph-name="B" unicode="B" 
d="M38 0l170 800h179q118 0 153.5 -41.5t10.5 -154.5q-17 -81 -49 -119t-104 -58q77 -19 97.5 -64t-1.5 -146q-27 -126 -79.5 -171.5t-170.5 -45.5h-206zM161 437h149q97 0 144.5 38.5t67.5 133.5q20 93 -10 128t-128 35h-151zM74 28h174q99 0 147 42.5t71 151.5
q22 104 -7.5 145.5t-127.5 41.5h-176z" />
    <glyph glyph-name="C" unicode="C" 
d="M249 -14q-91 0 -132 37t-45.5 129.5t32.5 250.5q51 238 117.5 324.5t198.5 86.5q86 0 122 -31.5t47 -116.5l-31 -9q-9 73 -39 101t-100 28q-115 0 -177.5 -84t-108.5 -303q-46 -220 -21.5 -302.5t138.5 -82.5q70 0 113.5 28.5t83.5 99.5l29 -12q-46 -83 -94 -113.5
t-133 -30.5z" />
    <glyph glyph-name="D" unicode="D" 
d="M416 800q85 0 123 -35.5t42.5 -124.5t-31.5 -242q-49 -230 -113 -314t-189 -84h-219l170 800h217zM521 402q45 212 22 291t-130 79h-190l-157 -744h186q107 0 165.5 81t103.5 293z" />
    <glyph glyph-name="E" unicode="E" 
d="M615 772h-376l-70 -335h240l-6 -28h-240l-81 -381h374l-6 -28h-404l170 800h404z" />
    <glyph glyph-name="F" unicode="F" 
d="M616 772h-376l-78 -381h238l-5 -28h-242l-76 -363h-30l170 800h404z" />
    <glyph glyph-name="G" unicode="G" 
d="M253 -14q-139 0 -171.5 89.5t17.5 326.5q50 236 119.5 324t205.5 88q92 0 130 -35.5t46 -127.5l-28 -5q-7 80 -38.5 110t-110.5 30q-120 0 -184.5 -84t-110.5 -304q-34 -144 -31 -229.5t39.5 -120t117.5 -34.5q73 0 117.5 28.5t86.5 101.5l47 219h-174l5 28h204l-53 -254
q-46 -86 -97 -118.5t-137 -32.5z" />
    <glyph glyph-name="H" unicode="H" 
d="M580 800h30l-170 -800h-30l87 409h-352l-87 -409h-30l170 800h30l-77 -363h352z" />
    <glyph glyph-name="I" unicode="I" 
d="M576 772h-163l-158 -744h162l-6 -28h-354l6 28h162l158 744h-161l5 28h354z" />
    <glyph glyph-name="J" unicode="J" 
d="M198 -14q-87 0 -123 31t-46 114l29 5q7 -69 38.5 -95.5t102.5 -26.5q114 0 173.5 71.5t98.5 254.5l92 432h-131l5 28h161l-98 -462q-43 -203 -107.5 -277.5t-194.5 -74.5z" />
    <glyph glyph-name="K" unicode="K" 
d="M639 800l-382 -377l219 -423h-37l-208 409h-80l-87 -409h-30l170 800h30l-77 -363h75l369 363h38z" />
    <glyph glyph-name="L" unicode="L" 
d="M65 0l170 800h30l-164 -772h335l-6 -28h-365z" />
    <glyph glyph-name="M" unicode="M" 
d="M4 0l184 800h34l76 -494l289 494h33l-156 -800h-30l142 727l-265 -456h-36l-73 456l-168 -727h-30z" />
    <glyph glyph-name="N" unicode="N" 
d="M578 800h30l-170 -800h-32l-189 738l-157 -738h-30l170 800h33l189 -736z" />
    <glyph glyph-name="O" unicode="O" 
d="M234 -14q-88 0 -128 33t-45.5 116.5t27.5 225.5l17 80q46 216 109.5 294.5t190.5 78.5q129 0 160 -79t-15 -296l-17 -80q-46 -216 -109 -294.5t-190 -78.5zM235 14q110 0 168.5 75.5t100.5 271.5l17 80q42 197 17 271t-134 74q-111 0 -170.5 -75.5t-99.5 -271.5l-17 -80
q-41 -197 -15.5 -271t133.5 -74z" />
    <glyph glyph-name="P" unicode="P" 
d="M423 800q118 0 152 -46.5t7 -173.5q-26 -123 -78.5 -169.5t-169.5 -46.5h-177l-77 -364h-30l170 800h203zM554 585q22 107 -6.5 147t-127.5 40h-176l-81 -380h173q98 0 146.5 43t71.5 150z" />
    <glyph glyph-name="Q" unicode="Q" 
d="M466 -155q45 0 80 10t60.5 25t52 30t66.5 28t91 17l-3 -28q-48 -5 -87 -18t-64.5 -28.5t-51.5 -30t-61 -24t-79 -9.5q-41 0 -74 14.5t-52 33.5t-50.5 47.5t-62.5 47.5q-21 -11 -41 -24.5t-30 -20t-23.5 -11.5t-27.5 -5q-45 0 -61.5 23.5t2.5 62.5q16 34 46 44
q-35 38 -37 118.5t28 214.5l18 80q47 216 109.5 294t188.5 78q130 0 162.5 -80t-14.5 -296l-17 -80q-42 -192 -94.5 -273t-146.5 -95v-1q-24 -10 -34 -15q35 -23 74 -59t66.5 -53t66.5 -17zM118 358q-30 -130 -27 -206.5t36 -107t106 -30.5q111 0 169 75t101 273l18 80
q43 197 18 270.5t-133 73.5q-112 0 -170.5 -75.5t-100.5 -272.5zM105 -73q13 0 25 6t33.5 21t36.5 23q-6 3 -43 18l-12 3q-52 13 -70 -29q-9 -20 -1 -31t31 -11z" />
    <glyph glyph-name="R" unicode="R" 
d="M415 800q118 0 152 -46.5t7 -173.5q-26 -123 -78.5 -169.5t-169.5 -46.5h-16l153 -364h-35l-154 364h-124l-78 -364h-30l170 800h203zM546 585q22 107 -6.5 147t-127.5 40h-175l-81 -380h172q98 0 146.5 43t71.5 150z" />
    <glyph glyph-name="S" unicode="S" 
d="M234 -14q-93 0 -135.5 21t-63.5 78l25 18q14 -50 53 -69.5t122 -19.5q105 0 155 43.5t74 155.5q16 75 -14 118t-124 76q-109 39 -143.5 84t-18.5 124q25 116 75 157.5t166 41.5q84 0 124 -18.5t60 -66.5l-22 -18q-16 42 -52.5 58.5t-110.5 16.5q-97 0 -143 -38.5
t-66 -137.5q-15 -66 13 -104.5t114 -66.5q116 -40 153 -90t17 -141q-26 -128 -81 -175t-177 -47z" />
    <glyph glyph-name="T" unicode="T" 
d="M662 800l-5 -28h-244l-164 -772h-30l164 772h-242l5 28h516z" />
    <glyph glyph-name="U" unicode="U" 
d="M234 -14q-118 0 -147.5 64t7.5 239l108 511h30l-109 -513q-33 -155 -9 -214t121 -59q98 0 149 60t84 215l108 511h30l-109 -513q-37 -174 -92.5 -237.5t-170.5 -63.5z" />
    <glyph glyph-name="V" unicode="V" 
d="M215 0l-43 800h32l40 -748l360 748h34l-383 -800h-40z" />
    <glyph glyph-name="W" unicode="W" 
d="M86 0l65 800h30l-62 -740l210 467h34l11 -467l253 740h32l-275 -800h-34l-11 487l-221 -487h-32z" />
    <glyph glyph-name="X" unicode="X" 
d="M627 800l-291 -400l122 -400h-33l-112 369l-269 -369h-32l291 400l-122 400h33l112 -369l269 369h32z" />
    <glyph glyph-name="Y" unicode="Y" 
d="M219 0l68 314l-125 486h33l114 -449l305 449h33l-330 -486l-68 -314h-30z" />
    <glyph glyph-name="Z" unicode="Z" 
d="M449 -63q-43 0 -131.5 37.5t-148.5 37.5q-7 0 -59 -5.5t-107 -6.5l5 29l589 743h-427l5 28h460l-5 -30l-590 -746q28 0 68.5 8t67.5 8q62 0 148 -37.5t131 -37.5q51 0 119.5 30.5t103.5 32.5l-3 -28q-20 -2 -94 -32.5t-132 -30.5z" />
    <glyph glyph-name="bracketleft" unicode="[" 
d="M93 -145l232 1090h260l-6 -28h-226l-5 -3l-217 -1028l2 -3h226l-6 -28h-260z" />
    <glyph glyph-name="backslash" unicode="\" 
d="M380 -182l-160 1130h31l160 -1130h-31z" />
    <glyph glyph-name="bracketright" unicode="]" 
d="M37 -145l6 28h227l5 3l217 1028l-2 3h-227l6 28h260l-232 -1090h-260z" />
    <glyph glyph-name="asciicircum" unicode="^" 
d="M551 587l-154 174l-229 -172l-20 18l256 192l174 -194z" />
    <glyph glyph-name="underscore" unicode="_" 
d="M-64 -182l5 28h520l-5 -28h-520z" />
    <glyph glyph-name="grave" unicode="`" 
d="M447 648l-138 154l26 24l138 -154z" />
    <glyph glyph-name="a" unicode="a" 
d="M489 26l17 -20q-32 -20 -75 -20q-28 0 -45 14.5t-16 39.5q1 56 14 98q-28 -68 -79 -110t-105 -42q-72 0 -116 45.5t-46 120.5q0 96 50.5 209t127.5 192t147 79q64 0 101 -16.5t37 -63.5q-1 -14 -95 -467q-3 -21 -2.5 -36.5t10.5 -25t31 -9.5q25 0 44 12zM196 14
q64 0 122.5 65.5t91.5 176.5q59 262 59 295q1 30 -23 41.5t-79 11.5q-62 0 -132.5 -76t-116.5 -183.5t-46 -196.5q-1 -60 33 -97t91 -37z" />
    <glyph glyph-name="b" unicode="b" 
d="M574 429l-2 -28q-25 0 -57 2q-42 -189 -120.5 -303t-163.5 -114q-47 0 -78.5 14t-48.5 37t-22.5 59t-3 74t11.5 88l117 542h30l-115 -542q-9 -47 -12.5 -78.5t-1.5 -65.5t14.5 -54t38.5 -33t67 -13q74 0 143.5 105.5t112.5 284.5q-48 -2 -77 19.5t-29 62.5
q1 31 19.5 50.5t54.5 19.5q49 0 63 -29t6 -97q17 -1 53 -1zM411 486q0 -50 74 -50q15 93 -33 93q-20 0 -30.5 -12.5t-10.5 -30.5z" />
    <glyph glyph-name="c" unicode="c" 
d="M426 94l26 -19q-47 -51 -93 -70t-129 -19q-118 0 -150 69.5t8 257.5q32 141 118.5 230t175.5 89q69 0 104.5 -19.5t62.5 -73.5l-28 -10q-21 42 -51 58.5t-85 16.5q-81 0 -159.5 -83t-105.5 -216q-34 -165 -10.5 -228t117.5 -63q71 0 113 17t86 63z" />
    <glyph glyph-name="d" unicode="d" 
d="M474 14q24 0 44 12l17 -20q-32 -20 -75 -20q-63 0 -62 71q-52 -71 -207 -71q-107 0 -134 68t12 258q32 147 108.5 233.5t181.5 86.5q57 0 95 -31t42 -81l59 280h30l-151 -715q-6 -36 1.5 -53.5t38.5 -17.5zM188 14q77 0 137.5 26.5t81.5 70.5l68 311q13 82 -18 132
t-95 50q-95 0 -164 -81t-98 -219q-34 -167 -14.5 -228.5t102.5 -61.5z" />
    <glyph glyph-name="e" unicode="e" 
d="M256 17q49 0 104.5 22t99.5 59l18 -25q-47 -40 -107.5 -63.5t-116.5 -23.5q-66 0 -111.5 48t-45.5 123q0 24 1 36q-45 -15 -55 -27l-18 27q19 14 75 31q14 178 98 293t203 115q125 0 125 -121q0 -55 -27 -101.5t-57 -74t-92.5 -56t-92 -38t-95.5 -28.5q-21 -6 -30 -9
q-2 -36 -2 -55q0 -58 36.5 -95t89.5 -37zM404 604q-104 0 -178.5 -103.5t-91.5 -265.5q159 46 227 85q133 76 133 196q0 44 -26.5 66t-63.5 22z" />
    <glyph glyph-name="f" unicode="f" horiz-adv-x="603" 
d="M187 -206q-39 0 -63 26.5t-25 69.5q1 69 23 188t56 237q-57 32 -80.5 51.5t-24.5 40.5q0 26 64 26l78 -1q19 64 32 103.5t31.5 89t35.5 79t39 57.5t47 40.5t54 12.5q67 0 100 -32.5t44 -90.5l-27 -5q-8 48 -30.5 74t-74.5 26q-39 0 -69 -22.5t-57 -78.5t-42 -97.5
t-44 -132.5q-5 -15 -7 -22h251l-6 -28h-255q-14 -37 -25 -76q74 -55 113 -116.5t39 -140.5q0 -126 -49 -202t-128 -76zM188 350l16 48q-10 -1 -35.5 2t-40 4.5t-21.5 -2.5q-2 -3 2 -7.5t14 -10.5t20 -11l24 -12t21 -11zM182 -178q68 0 108.5 69t40.5 185q0 71 -33 125
t-96 103q-31 -115 -51 -231t-20 -187q-1 -28 13.5 -46t37.5 -18z" />
    <glyph glyph-name="g" unicode="g" 
d="M115 -206q-44 0 -71.5 17.5t-28.5 45.5q0 49 96.5 77t264.5 28q35 52 49 156q-4 -29 -66.5 -50.5t-123.5 -21.5q-72 0 -116 48t-44 126q1 97 55 194.5t131.5 157.5t147.5 60q64 0 100.5 -16.5t37.5 -63.5q0 -40 -60 -307.5t-74 -281.5q61 -2 82 3l-1 -24q-35 -9 -95 -6
q-35 -64 -113 -103t-171 -39zM231 74q97 0 146.5 28t69.5 116q69 313 68 333q0 16 -5 26.5t-10.5 15.5t-22 7.5t-27 3t-37.5 0.5q-46 0 -99.5 -35t-98.5 -89t-75.5 -125.5t-31.5 -139.5q-1 -63 33 -102t90 -39zM123 -178q71 0 140 31.5t108 82.5q-152 -3 -238.5 -25
t-85.5 -58q0 -31 76 -31z" />
    <glyph glyph-name="h" unicode="h" 
d="M490 26l17 -20q-32 -20 -75 -20q-29 0 -46.5 14t-17.5 37q1 43 24.5 149.5t59.5 222.5q61 195 -78 195q-56 0 -116.5 -56t-100 -126.5t-51.5 -128.5l-63 -293h-31l170 800h30l-82 -387q45 98 108 158.5t133 60.5q190 0 115 -224q-38 -114 -61 -212.5t-23 -141.5
q0 -18 12 -29t32 -11q24 0 44 12z" />
    <glyph glyph-name="i" unicode="i" 
d="M334 748q-35 0 -45 11.5t-3 44.5q8 32 20 42t45 10q35 0 45 -12t3 -45q-6 -31 -19 -41t-46 -10zM342 -14q-110 0 -141 60.5t9 215.5l66 241q2 21 1.5 38t-13 30t-37.5 19l7 28q84 -20 76 -102l-68 -254q-35 -137 -12 -192.5t108 -55.5q39 0 66.5 16t58.5 56l26 -19
q-38 -46 -69.5 -63.5t-77.5 -17.5z" />
    <glyph glyph-name="j" unicode="j" 
d="M492 748q-35 0 -45 11.5t-3 44.5q8 32 20 42t45 10q35 0 45 -12t3 -45q-6 -31 -19 -41t-46 -10zM55 -206q-44 0 -71.5 17.5t-28.5 45.5q0 50 96.5 77t266.5 26q17 17 122 536q10 29 0.5 54t-46.5 36l9 26q86 -25 71 -105q-89 -447 -111 -516q-7 -21 -12 -29q65 0 84 3
l-1 -23q-35 -9 -95 -6q-35 -64 -113 -103t-171 -39zM63 -178q71 0 140 31.5t108 82.5q-152 -3 -238.5 -25t-85.5 -58q0 -31 76 -31z" />
    <glyph glyph-name="k" unicode="k" 
d="M564 511q0 -90 -64 -149.5t-169 -69.5q19 -23 30.5 -58.5t10.5 -69.5q-1 -103 6 -125q8 -25 30 -25q14 0 39.5 15.5t37.5 33.5l20 -19q-19 -23 -27.5 -31.5t-25.5 -17.5t-39 -9q-47 0 -63.5 45.5t-13.5 134.5q1 34 -12 69t-35 58l13 28q103 1 165.5 53t64.5 136
q1 40 -29.5 65t-72.5 25q-81 0 -162.5 -85.5t-111.5 -216.5h-1l-63 -298h-30l65 308h-1q5 19 7 25l99 467h30l-72 -340q48 77 113 122.5t125 45.5q56 0 96.5 -33t39.5 -84z" />
    <glyph glyph-name="l" unicode="l" 
d="M332 14q30 0 64 19t61 52l26 -17q-31 -37 -71.5 -59.5t-75.5 -22.5q-55 0 -89.5 40t-33.5 106v10q-105 -93 -212 -141l-16 25q122 57 228 157q2 146 13.5 257t35 197.5t63 131.5t95.5 45q38 0 61 -30.5t23 -79.5q0 -139 -71 -278.5t-188 -253.5v-15q-1 -64 22.5 -103.5
t64.5 -39.5zM412 785q-73 0 -116 -147.5t-50 -422.5q104 106 165.5 234t61.5 257q0 35 -16.5 57t-44.5 22z" />
    <glyph glyph-name="m" unicode="m" 
d="M500 -14q-29 0 -47 14t-17 37q1 43 25.5 150t59.5 222q32 106 29 150.5t-44 44.5q-45 0 -73.5 -19t-58 -87.5t-57.5 -200.5l-63 -297h-30l85 410q26 119 25 146q-8 45 -49 48q-44 0 -70.5 -21.5t-52.5 -88t-55 -199.5l-64 -295h-30l115 543q1 5 1.5 12t0.5 9q2 40 -38 40
q-12 0 -29 -5t-21 -10l-17 23q32 20 75 20q30 0 45 -14.5t14.5 -38.5t-6.5 -54q8 34 45.5 70.5t83.5 36.5q23 0 39 -6.5t23.5 -13t10.5 -23.5t3 -25t-2.5 -30.5t-2.5 -28.5q26 62 65 94.5t85 32.5q62 0 74.5 -51t-23.5 -173q-81 -259 -84 -354q0 -18 12 -29t32 -11
q24 0 44 12l17 -20q-32 -20 -75 -20z" />
    <glyph glyph-name="n" unicode="n" 
d="M509 26l17 -20q-32 -20 -75 -20q-29 0 -47 14t-17 37q1 78 85 372q57 195 -69 195q-52 0 -110 -57t-97 -130t-52 -132l-61 -285h-32l115 543q2 8 2 21q1 18 -11.5 29t-32.5 11q-11 0 -25 -5t-18 -10l-18 23q32 20 75 20q28 0 47.5 -21.5t12.5 -64.5l-27 -130
q45 96 106 156t123 60q177 0 105 -225q-80 -249 -84 -353q0 -18 12 -29t32 -11q26 0 44 12z" />
    <glyph glyph-name="o" unicode="o" 
d="M236 -14q-121 0 -151.5 69.5t9.5 257.5q31 146 105 232.5t165 86.5q120 0 150.5 -69.5t-8.5 -257.5q-30 -145 -104.5 -232t-165.5 -87zM233 14q81 0 146 80.5t95 218.5q37 167 14 229t-121 62q-82 0 -147.5 -81t-93.5 -218q-35 -167 -12.5 -229t119.5 -62z" />
    <glyph glyph-name="p" unicode="p" 
d="M390 632q81 0 117.5 -29.5t40 -102t-25.5 -195.5q-32 -147 -101 -233t-159 -86q-70 0 -114.5 18t-39.5 55l-51 -241h-30l100 469q1 5 2.5 13.5t1.5 12.5q1 4 3 11.5t2 9.5l44 209q4 16 2 21q1 18 -11.5 29t-32.5 11q-25 0 -44 -12l-17 20q32 20 75 20q32 0 50.5 -26.5
t8.5 -82.5q15 49 68.5 79t110.5 30zM490 313q37 165 18 228t-115 63q-40 0 -70 -10.5t-60 -38t-54 -82.5t-41 -138l-17 -83q-14 -69 -17 -113t1.5 -69.5t24 -37.5t39.5 -15t60 -3q81 0 142 80.5t89 218.5z" />
    <glyph glyph-name="q" unicode="q" 
d="M521 618h30l-170 -800h-30l59 275q-11 -41 -67 -74t-117 -33q-81 0 -117.5 29.5t-40 102t25.5 195.5q32 147 101 233t159 86q80 0 117 -27t32 -68zM223 14q41 0 70 9.5t59.5 37.5t55 86t43.5 147l16 72q17 78 19 124.5t-13.5 72t-41.5 33.5t-74 8q-81 0 -142 -80.5
t-89 -218.5q-37 -165 -18 -228t115 -63z" />
    <glyph glyph-name="r" unicode="r" 
d="M385 14q28 0 54.5 17.5t43.5 46.5l28 -13q-18 -36 -51 -57.5t-71 -21.5q-41 0 -66 27t-25 72q1 91 45.5 220.5t111.5 232.5q-52 -29 -110.5 -47.5t-100.5 -18.5q-18 0 -26 1q-29 -74 -97 -158l-22 26q59 65 84 137q-44 10 -69.5 32.5t-26.5 53.5q2 31 22.5 49.5
t55.5 18.5q31 0 50 -23.5t20 -62.5q0 -16 -7 -46h12q45 0 114.5 26t138.5 70l25 -17q-83 -126 -135 -266.5t-52 -231.5q-1 -30 13.5 -48.5t40.5 -18.5zM129 558q0 -17 17 -31.5t46 -21.5q5 25 5 42q0 45 -36 45q-13 0 -22.5 -9.5t-9.5 -24.5z" />
    <glyph glyph-name="s" unicode="s" 
d="M217 -14q-123 0 -190 100l26 10q25 -38 65.5 -60t84.5 -22q93 0 146 81.5t53 194.5q1 42 -11 87t-32 70q-33 -53 -97 -92t-134 -50l-9 28q66 9 126 47t93 92q-58 55 -60 101q1 27 16.5 43t43.5 16q33 0 51.5 -18t18.5 -48q-2 -51 -35 -95q27 -32 43.5 -87t17.5 -104
q0 -75 -27.5 -142t-75.5 -113q42 11 90 35t68 46l21 -19q-45 -45 -124.5 -73t-168.5 -28zM353 503q19 34 17 60q-1 18 -8 27.5t-20 8.5q-26 0 -26 -29q0 -28 37 -67z" />
    <glyph glyph-name="t" unicode="t" 
d="M301 -14q-94 0 -120 48.5t-1 162.5l85 393h-124l6 28h124l38 182h30l-38 -182h208l-6 -28h-208l-84 -397q-22 -92 -3 -135.5t90 -43.5q101 0 137 57l29 -12q-28 -43 -62.5 -58t-100.5 -15z" />
    <glyph glyph-name="u" unicode="u" 
d="M82 592l-17 20q32 20 75 20q29 0 47 -14t17 -37q-2 -84 -85 -372q-28 -108 -8 -151.5t87 -43.5q52 0 108 57t92.5 129.5t49.5 132.5l61 285h31l-115 -543q-1 -5 -1.5 -12t-0.5 -9q-1 -18 11.5 -29t32.5 -11q11 0 25 5t19 10l17 -23q-32 -20 -75 -20q-28 0 -47 21.5
t-13 64.5l27 130q-46 -98 -102 -157t-117 -59q-187 0 -115 225q80 249 84 353q0 18 -12 29t-32 11q-24 0 -44 -12z" />
    <glyph glyph-name="v" unicode="v" 
d="M214 0l-67 618h30l68 -573q33 63 108 178.5t128 213.5t72 181h35q-25 -91 -80 -193.5t-137 -232t-117 -192.5h-40z" />
    <glyph glyph-name="w" unicode="w" 
d="M584 618h34q-21 -89 -61.5 -193t-98 -234t-81.5 -191h-28l-32 352q-27 -68 -109 -201.5t-90 -148.5v-2h-30l29 618h30l-26 -562q7 12 50.5 82.5t59.5 98.5t40.5 80t34.5 92h33l33 -352q17 41 57 136t63 150t50 133.5t42 141.5z" />
    <glyph glyph-name="x" unicode="x" 
d="M570 618q-23 -48 -67.5 -107.5t-80 -99t-102.5 -111.5l112 -300h-33l-103 275q-58 -62 -88.5 -96t-71.5 -85.5t-66 -93.5h-38q27 45 76 104t77 89.5t101 107.5l-118 317h33l109 -292q172 185 221 292h39z" />
    <glyph glyph-name="y" unicode="y" 
d="M115 -206q-44 0 -71.5 17.5t-28.5 45.5q0 49 96.5 76.5t265.5 26.5q18 29 33.5 79t18.5 81q-5 -39 -56.5 -56.5t-107.5 -17.5q-73 0 -112 51.5t-20 110.5q37 112 60 212t23 144q0 18 -12 29t-32 11q-24 0 -44 -12l-17 20q32 20 75 20q28 0 45 -14t17 -37
q-2 -107 -81 -370q-20 -62 8.5 -99.5t85.5 -37.5q26 0 44.5 1.5t43.5 9.5t41.5 22t32 40t23.5 63l87 408h31q-71 -339 -104 -484t-49 -172q65 0 84 3l-1 -23q-35 -9 -95 -6q-35 -64 -113 -103t-171 -39zM123 -178q71 0 140 31.5t108 82.5q-152 -3 -238.5 -25t-85.5 -58
q0 -31 76 -31z" />
    <glyph glyph-name="z" unicode="z" 
d="M399 -15q59 0 129.5 21.5t101.5 21.5l-3 -28q-20 0 -88 -21.5t-146 -21.5q-40 0 -109.5 25.5t-105.5 25.5q-9 0 -46.5 -3.5t-85.5 -4.5l2 19l458 571h-334l6 28h375l-3 -19l-460 -575q7 1 19.5 4t31 5t44.5 2q36 0 103.5 -25t110.5 -25z" />
    <glyph glyph-name="braceleft" unicode="{" 
d="M373 -145q-98 0 -139 43t-18 153q5 29 28 93.5t28 86.5q14 67 -131 170q94 51 145.5 96.5t58.5 79.5q5 22 8 82t10 94q24 108 82.5 150t156.5 42l-3 -27q-170 0 -207 -174q-8 -37 -10 -89t-6 -72q-11 -54 -55 -97.5t-119 -86.5q57 -44 82.5 -85.5t13.5 -96.5
q-4 -18 -24.5 -72.5t-28.5 -95.5q-19 -91 16.5 -129t114.5 -38z" />
    <glyph glyph-name="bar" unicode="|" 
d="M181 -182l240 1130h30l-240 -1130h-30z" />
    <glyph glyph-name="braceright" unicode="}" 
d="M37 -145l3 27q169 0 205 172q9 39 12 93.5t7 73.5q10 54 53.5 95t120.5 85q-57 43 -83 87t-14 99q4 18 25 70.5t29 91.5q35 169 -132 169l3 27q98 0 139.5 -43.5t18.5 -153.5q-7 -32 -29 -92t-27 -83q-14 -73 131 -174q-189 -102 -205 -172q-4 -21 -9 -85.5t-11 -95.5
q-23 -108 -81 -149.5t-156 -41.5z" />
    <glyph glyph-name="asciitilde" unicode="~" 
d="M424 326q-65 0 -115 66q-54 54 -96 54q-46 0 -77.5 -23.5t-42.5 -59.5l-30 2q15 49 55 79t97 30q66 0 114 -66q56 -54 96 -54q46 0 78 23.5t42 59.5l30 -2q-14 -49 -53.5 -79t-97.5 -30z" />
    <glyph glyph-name="uni00A0" unicode="&#xa0;" 
 />
    <glyph glyph-name="exclamdown" unicode="&#xa1;" 
d="M345 510q-35 0 -44.5 12t-2.5 45q7 31 20 41t45 10q36 0 45.5 -11.5t1.5 -44.5q-6 -32 -18.5 -42t-46.5 -10zM171 -182l139 608h30l-119 -608h-50z" />
    <glyph glyph-name="cent" unicode="&#xa2;" 
d="M393 632q66 -1 99.5 -20.5t59.5 -71.5l-27 -11q-21 43 -51.5 59t-86.5 16l-125 -590q53 1 90.5 19.5t77.5 60.5l25 -19q-47 -50 -90.5 -69t-108.5 -20l-10 -47h-30l10 48q-114 5 -142.5 75.5t10.5 248.5q37 178 95 246.5t174 73.5l10 46h30zM122 307q-34 -160 -10 -224
t120 -68l125 588q-98 -7 -149.5 -72.5t-85.5 -223.5z" />
    <glyph glyph-name="sterling" unicode="&#xa3;" 
d="M506 811q42 0 64 -5.5t40 -21.5l-18 -21q-25 21 -88 21q-125 0 -187 -60t-94 -210q-12 -56 -12 -99h200l-5 -28h-195q1 -31 9 -67q18 -82 6 -136q-12 -60 -37.5 -92.5t-84.5 -64.5l356 1l-6 -28h-424v31q80 26 117 60.5t51 97.5q8 45 -6 126q-8 38 -9 72h-77l5 28h71
q2 53 13 103q35 168 101.5 230.5t209.5 62.5z" />
    <glyph glyph-name="currency" unicode="&#xa4;" 
d="M569 536l-105 -90q45 -52 27 -140q-18 -87 -85 -138l66 -88l-23 -19l-69 90q-54 -30 -118 -30q-65 0 -107 31l-107 -91l-18 19l105 90q-45 52 -26 140q18 87 85 139l-68 87l26 19l68 -89q52 29 117 29q66 0 108 -31l107 91zM463 310q14 71 -20.5 114t-106.5 43
q-73 0 -127.5 -44.5t-71.5 -116.5q-15 -70 20 -113.5t107 -43.5q73 0 128 44.5t71 116.5z" />
    <glyph glyph-name="yen" unicode="&#xa5;" 
d="M647 800l-310 -456h140l-6 -28h-153l-1 -2l-23 -108h155l-7 -28h-154l-39 -178h-30l39 178h-156l7 28h155l23 108l-1 2h-155l6 28h142l-117 456h33l114 -449l305 449h33z" />
    <glyph glyph-name="brokenbar" unicode="&#xa6;" 
d="M322 483l99 465h30l-99 -465h-30zM181 -182l99 465h30l-99 -465h-30z" />
    <glyph glyph-name="section" unicode="&#xa7;" 
d="M405 814q71 0 105 -19.5t54 -70.5l-25 -16q-15 43 -45 60.5t-90 17.5q-95 0 -140.5 -34t-61.5 -116q-15 -71 14 -108t120 -37q102 0 133 -47t13 -127q-16 -76 -42 -117t-72 -58q48 -19 61 -62.5t-2 -102.5q-21 -99 -70 -136t-162 -37q-71 0 -105 19.5t-54 70.5l25 16
q15 -43 45 -60.5t90 -17.5q95 0 140.5 34t61.5 116q15 71 -14 108t-120 37q-102 0 -133 47t-13 127q16 76 42 117t72 58q-48 19 -61 62.5t2 102.5q21 99 70 136t162 37zM454 321q29 140 -120 140q-16 0 -23 1q-72 -4 -109.5 -42.5t-55.5 -122.5q-29 -140 120 -140
q16 0 23 -1q72 4 109.5 42.5t55.5 122.5z" />
    <glyph glyph-name="dieresis" unicode="&#xa8;" 
d="M286 742q-28 0 -35.5 9.5t-1.5 36.5q5 23 14 30.5t36 7.5q28 0 36.5 -9t1.5 -34q-4 -25 -14 -33t-37 -8zM502 742q-28 0 -35.5 9.5t-1.5 36.5q5 23 14 30.5t36 7.5q28 0 36.5 -9t1.5 -34q-4 -25 -14 -33t-37 -8z" />
    <glyph glyph-name="copyright" unicode="&#xa9;" 
d="M245 41q-125 0 -182.5 87t-26.5 229q29 141 121.5 226.5t216.5 85.5q125 0 183 -87t27 -229q-30 -141 -122.5 -226.5t-216.5 -85.5zM247 69q111 0 196 79.5t113 208.5q26 128 -24 206t-159 78q-111 0 -196 -79.5t-113 -208.5q-27 -128 23.5 -206t159.5 -78zM270 154
q-84 0 -106 43t3 159q25 115 62.5 156t119.5 41q46 0 67.5 -8.5t32.5 -31.5l-30 -15q-11 27 -70 27q-65 0 -99 -38.5t-54 -134.5q-20 -95 -5 -132.5t79 -37.5q56 0 80 26l25 -24q-20 -18 -41.5 -24t-63.5 -6z" />
    <glyph glyph-name="ordfeminine" unicode="&#xaa;" 
d="M299 389q-83 0 -109 26t-11 95q13 61 47.5 83t117.5 22h114l13 60q14 64 -4.5 87.5t-82.5 23.5q-45 0 -71 -14.5t-46 -52.5l-29 8q28 50 59 68.5t88 18.5q82 0 107 -30.5t8 -110.5l-43 -204q-5 -24 0.5 -32.5t27.5 -8.5l-4 -30q-33 1 -44.5 16.5t-6.5 53.5
q-27 -46 -54.5 -62.5t-76.5 -16.5zM301 417q65 0 96 27.5t47 100.5l10 50h-112q-64 0 -93.5 -19.5t-41.5 -70.5q-10 -51 10 -69.5t84 -18.5zM126 269l6 27h340l-6 -27h-340z" />
    <glyph glyph-name="guillemotleft" unicode="&#xab;" 
d="M219 188l-127 212l217 212h36l-215 -212l125 -212h-36zM458 188l-127 212l217 212h36l-215 -212l125 -212h-36z" />
    <glyph glyph-name="logicalnot" unicode="&#xac;" 
d="M496 295l39 181h-403l5 27h433l-44 -208h-30z" />
    <glyph glyph-name="uni00AD" unicode="&#xad;" 
d="M146 386l6 28h340l-6 -28h-340z" />
    <glyph glyph-name="registered" unicode="&#xae;" 
d="M405 814q89 0 142.5 -69.5t34.5 -160.5q-19 -90 -100 -158t-168 -68q-90 0 -143.5 69.5t-34.5 161.5q19 90 100 157.5t169 67.5zM552 589q17 78 -27.5 137.5t-120.5 59.5q-78 0 -149.5 -61t-88.5 -141q-17 -79 27.5 -138.5t120.5 -59.5q78 0 150 61t88 142zM384 734
q107 0 86 -91q-6 -27 -29 -51t-58 -32l51 -116h-31l-51 112h-4h-55l-24 -112h-30l62 290h83zM442 648q5 23 -10 40.5t-52 17.5h-55l-26 -122h53q37 0 60.5 19.5t29.5 44.5z" />
    <glyph glyph-name="macron" unicode="&#xaf;" 
d="M263 733l6 28h254l-6 -28h-254z" />
    <glyph glyph-name="degree" unicode="&#xb0;" 
d="M341 492q-77 0 -114.5 45.5t-21.5 118.5q14 71 69 114.5t131 43.5q77 0 114.5 -45t21.5 -118q-15 -72 -69.5 -115.5t-130.5 -43.5zM343 520q62 0 109.5 37.5t60.5 98.5q12 59 -18 94.5t-91 35.5q-62 0 -109.5 -37.5t-61.5 -97.5q-12 -59 18.5 -95t91.5 -36z" />
    <glyph glyph-name="plusminus" unicode="&#xb1;" 
d="M344 456h251l-6 -28h-251l-42 -197h-26l42 197h-251l6 28h251l42 197h26zM1 146l6 28h528l-6 -28h-528z" />
    <glyph glyph-name="uni00B2" unicode="&#xb2;" 
d="M206 429l5 28q6 29 33 57t62.5 52.5t71 50.5t64.5 62t38 76q8 40 -6 54.5t-62 14.5q-51 0 -73 -17t-30 -61l-36 4q12 61 42 84t99 23t91.5 -23.5t9.5 -83.5q-9 -45 -38 -84.5t-65 -66.5t-71 -50t-62 -45.5t-33 -42.5l206 1l-6 -33h-240z" />
    <glyph glyph-name="uni00B3" unicode="&#xb3;" 
d="M326 422q-67 0 -87 25t-5 88l37 -4q-13 -43 -1 -59.5t59 -16.5t69 19t32 69t0 69t-48 23h-43l7 33l40 -1q40 3 59 20.5t29 61.5q9 44 -4 59.5t-58 15.5q-49 0 -69 -15.5t-25 -54.5l-36 4q11 57 38.5 78t93.5 21q65 0 86.5 -25.5t8.5 -87.5q-8 -37 -22 -58t-40 -35
q37 -28 19 -112q-13 -65 -44 -91t-96 -26z" />
    <glyph glyph-name="acute" unicode="&#xb4;" 
d="M300 648l-19 24l201 154l20 -24z" />
    <glyph glyph-name="uni00B5" unicode="&#xb5;" 
d="M-3 -182l170 800h30l-97 -454q-13 -84 13.5 -117t102.5 -33q66 0 140.5 44t91.5 125l93 435h30l-132 -618h-30l22 100q-30 -58 -90 -86t-126 -28q-108 0 -142 47l-46 -215h-30z" />
    <glyph glyph-name="paragraph" unicode="&#xb6;" 
d="M277 0l90 424h-103q-83 0 -105.5 41.5t0.5 149.5q23 109 61 147t122 38h135l-170 -800h-30zM361 0l170 800h30l-170 -800h-30z" />
    <glyph glyph-name="periodcentered" unicode="&#xb7;" 
d="M310 346q-34 0 -44 11.5t-3 44.5q7 31 20 41.5t46 10.5q35 0 44.5 -11.5t2.5 -44.5q-7 -32 -19.5 -42t-46.5 -10z" />
    <glyph glyph-name="cedilla" unicode="&#xb8;" 
d="M199 -178q-42 0 -70 20l13 22q30 -14 58 -14q29 0 51 13t27 35q3 13 0.5 21t-13.5 12t-20 5.5t-32 2.5l13 66h30l-9 -39q34 3 50.5 -17.5t8.5 -55.5q-7 -32 -35.5 -51.5t-71.5 -19.5z" />
    <glyph glyph-name="uni00B9" unicode="&#xb9;" 
d="M435 850l-83 -388h71l-6 -33h-179l6 33h72l63 298q-37 -26 -86 -23l6 33q35 -5 65 19.5t33 61.5l9 -1h29z" />
    <glyph glyph-name="ordmasculine" unicode="&#xba;" 
d="M319 389q-89 0 -113 46.5t2 169.5q25 120 67 164.5t130 44.5q89 0 113.5 -46t-1.5 -168q-25 -120 -68 -165.5t-130 -45.5zM321 417q71 0 107.5 40.5t59.5 147.5q22 103 4 142t-88 39q-72 0 -108.5 -40.5t-58.5 -145.5q-23 -105 -5 -144t89 -39zM121 269l6 27h340l-6 -27
h-340z" />
    <glyph glyph-name="guillemotright" unicode="&#xbb;" 
d="M55 188l214 212l-124 212h36l126 -212l-216 -212h-36zM294 188l214 212l-124 212h36l126 -212l-216 -212h-36z" />
    <glyph glyph-name="onequarter" unicode="&#xbc;" 
d="M257 462l-6 -33h-179l6 33h72l63 298q-37 -26 -86 -23l6 33q35 -5 65 19.5t33 61.5l9 -1h29l-83 -388h71zM555 800h40l-511 -800h-40zM481 371h34l-58 -276h37l-8 -34h-37l-23 -111h-37l24 111h-174l6 29zM420 95l44 204l-174 -204h130z" />
    <glyph glyph-name="onehalf" unicode="&#xbd;" 
d="M257 462l-6 -33h-179l6 33h72l63 298q-37 -26 -86 -23l6 33q35 -5 65 19.5t33 61.5l9 -1h29l-83 -388h71zM555 800h40l-511 -800h-40zM479 378q70 0 92.5 -23.5t9.5 -83.5q-10 -45 -39 -84.5t-64.5 -66.5t-70.5 -50t-62.5 -45.5t-33.5 -42.5l207 1l-6 -33h-241l6 28
q6 29 33 57t62.5 52.5t71 50.5t64.5 62t38 76q8 40 -6 54.5t-62 14.5q-51 0 -73 -17t-30 -61l-36 4q12 61 42 84t98 23z" />
    <glyph glyph-name="threequarters" unicode="&#xbe;" 
d="M148 422q-66 0 -86.5 25t-5.5 88l37 -4q-13 -43 -1 -59.5t59 -16.5t69 19t32 69q11 49 1 68.5t-49 23.5h-43l7 33l40 -1q40 3 59 20.5t29 61.5t-3 59.5t-58 15.5q-50 0 -70 -15.5t-25 -54.5l-36 4q11 57 38.5 78t93.5 21t87 -25.5t8 -87.5q-9 -37 -22.5 -58t-39.5 -35
q37 -28 19 -112q-13 -65 -44 -91t-96 -26zM44 0l511 800h40l-511 -800h-40zM389 -50l24 111h-174l6 29l236 281h34l-58 -276h37l-8 -34h-37l-23 -111h-37zM290 95h130l44 204z" />
    <glyph glyph-name="questiondown" unicode="&#xbf;" 
d="M348 524q-35 0 -44.5 12t-2.5 45q7 31 20 41t45 10q36 0 45.5 -11.5t1.5 -44.5q-6 -32 -18.5 -42t-46.5 -10zM196 -196q-128 0 -167 40.5t-16 148.5q14 65 35.5 113.5t45.5 76t50.5 47.5t51.5 34t47 30t38.5 41.5t24.5 61.5l29 -2q-9 -42 -30.5 -72.5t-48 -47t-58.5 -40
t-60.5 -49t-54.5 -77t-41 -121.5q-19 -89 14.5 -122.5t140.5 -33.5q104 0 154 33.5t70 117.5l29 -3q-24 -102 -77.5 -139t-176.5 -37z" />
    <glyph glyph-name="Agrave" unicode="&#xc0;" 
d="M454 899l-23 -21l-99 106l23 21zM443 0l-14 225h-293l-109 -225h-32l391 800h36l52 -800h-31zM150 253h278l-31 510z" />
    <glyph glyph-name="Aacute" unicode="&#xc1;" 
d="M554 984l-141 -106l-17 21l141 106zM386 800h36l52 -800h-31l-14 225h-293l-109 -225h-32zM150 253h278l-31 510z" />
    <glyph glyph-name="Acircumflex" unicode="&#xc2;" 
d="M447 1004l93 -104l-27 -18l-73 84l-109 -82l-20 18zM386 800h36l52 -800h-31l-14 225h-293l-109 -225h-32zM150 253h278l-31 510z" />
    <glyph glyph-name="Atilde" unicode="&#xc3;" 
d="M549 968l29 -2q-11 -35 -33.5 -55t-50.5 -20q-24 0 -43.5 19.5t-37.5 38.5t-37 19q-26 0 -36.5 -12t-20.5 -40l-29 2q11 36 33.5 57t52.5 21q22 0 41.5 -19t38 -38.5t38.5 -19.5q25 0 36 11.5t19 37.5zM386 800h36l52 -800h-31l-14 225h-293l-109 -225h-32zM150 253h278
l-31 510z" />
    <glyph glyph-name="Adieresis" unicode="&#xc4;" 
d="M325 927q-28 0 -35.5 9.5t-1.5 36.5q5 23 14 30.5t36 7.5q28 0 36.5 -9t1.5 -34q-4 -25 -14 -33t-37 -8zM554 1011q28 0 36.5 -9t1.5 -34q-4 -25 -14 -33t-37 -8q-28 0 -35.5 9.5t-1.5 36.5q5 23 14 30.5t36 7.5zM386 800h36l52 -800h-31l-14 225h-293l-109 -225h-32z
M150 253h278l-31 510z" />
    <glyph glyph-name="Aring" unicode="&#xc5;" 
d="M440 984q68 0 88.5 -23t6.5 -85q-11 -55 -35 -77.5t-76 -25.5l50 -773h-31l-14 225h-293l-109 -225h-32l378 773q-50 4 -64.5 27.5t-3.5 79.5q14 61 41.5 82.5t93.5 21.5zM505 880q10 42 -5 59t-61 17q-48 0 -71.5 -18t-32.5 -62q-9 -42 5.5 -59t60.5 -17q48 0 72 18.5
t32 61.5zM150 253h278l-31 510z" />
    <glyph glyph-name="AE" unicode="&#xc6;" 
d="M684 772h-235l-82 -381h151l-5 -28h-151l-72 -335h235l-6 -28h-265l58 271h-204l-132 -271h-33l392 800h354zM318 299l101 473h-66l-231 -473h196z" />
    <glyph glyph-name="Ccedilla" unicode="&#xc7;" 
d="M420 814q86 0 122 -31.5t47 -116.5l-31 -9q-9 73 -39 101t-100 28q-115 0 -177.5 -84t-108.5 -303q-46 -220 -21.5 -302.5t138.5 -82.5q70 0 113.5 28.5t83.5 99.5l29 -12q-46 -83 -94 -113.5t-133 -30.5h-4l-4 -20q34 3 50.5 -17.5t8.5 -55.5q-7 -32 -36 -51.5
t-71 -19.5t-71 20l13 22q31 -14 58 -14q30 0 52 13t26 35q4 18 -4 26.5t-19.5 10.5t-40.5 4l9 48q-112 9 -136 100t24 316q51 238 117.5 324.5t198.5 86.5z" />
    <glyph glyph-name="Egrave" unicode="&#xc8;" 
d="M468 899l-23 -21l-99 106l23 21zM615 772h-376l-70 -335h240l-6 -28h-240l-81 -381h374l-6 -28h-404l170 800h404z" />
    <glyph glyph-name="Eacute" unicode="&#xc9;" 
d="M568 984l-141 -106l-17 21l141 106zM615 772h-376l-70 -335h240l-6 -28h-240l-81 -381h374l-6 -28h-404l170 800h404z" />
    <glyph glyph-name="Ecircumflex" unicode="&#xca;" 
d="M454 966l-109 -82l-20 18l136 102l93 -104l-27 -18zM615 772h-376l-70 -335h240l-6 -28h-240l-81 -381h374l-6 -28h-404l170 800h404z" />
    <glyph glyph-name="Edieresis" unicode="&#xcb;" 
d="M339 927q-28 0 -35.5 9.5t-1.5 36.5q5 23 14 30.5t36 7.5q28 0 36.5 -9t1.5 -34q-4 -25 -14 -33t-37 -8zM555 927q-28 0 -35.5 9.5t-1.5 36.5q5 23 14 30.5t36 7.5q28 0 36.5 -9t1.5 -34q-4 -25 -14 -33t-37 -8zM615 772h-376l-70 -335h240l-6 -28h-240l-81 -381h374
l-6 -28h-404l170 800h404z" />
    <glyph glyph-name="Igrave" unicode="&#xcc;" 
d="M454 899l-23 -21l-99 106l23 21zM576 772h-163l-158 -744h162l-6 -28h-354l6 28h162l158 744h-161l5 28h354z" />
    <glyph glyph-name="Iacute" unicode="&#xcd;" 
d="M554 984l-141 -106l-17 21l141 106zM576 772h-163l-158 -744h162l-6 -28h-354l6 28h162l158 744h-161l5 28h354z" />
    <glyph glyph-name="Icircumflex" unicode="&#xce;" 
d="M440 966l-109 -82l-20 18l136 102l93 -104l-27 -18zM576 772h-163l-158 -744h162l-6 -28h-354l6 28h162l158 744h-161l5 28h354z" />
    <glyph glyph-name="Idieresis" unicode="&#xcf;" 
d="M325 927q-28 0 -35.5 9.5t-1.5 36.5q5 23 14 30.5t36 7.5q28 0 36.5 -9t1.5 -34q-4 -25 -14 -33t-37 -8zM554 1011q28 0 36.5 -9t1.5 -34q-4 -25 -14 -33t-37 -8q-28 0 -35.5 9.5t-1.5 36.5q5 23 14 30.5t36 7.5zM581 800l-5 -28h-163l-158 -744h162l-6 -28h-354l6 28
h162l158 744h-161l5 28h354z" />
    <glyph glyph-name="Eth" unicode="&#xd0;" 
d="M419 800q85 0 123 -35.5t42.5 -124.5t-31.5 -242q-49 -230 -113 -314t-189 -84h-219l87 409h-52l6 28h52l77 363h217zM524 402q45 212 22 291t-130 79h-190l-71 -335h144l-5 -28h-145l-80 -381h186q107 0 165.5 81t103.5 293z" />
    <glyph glyph-name="Ntilde" unicode="&#xd1;" 
d="M376 968q-26 0 -36.5 -12t-20.5 -40l-29 2q11 36 33.5 57t52.5 21q22 0 41.5 -19t38 -38.5t38.5 -19.5q25 0 36 11.5t19 37.5l29 -2q-11 -35 -33.5 -55t-50.5 -20q-24 0 -43.5 19.5t-37.5 38.5t-37 19zM578 800h30l-170 -800h-32l-189 738l-157 -738h-30l170 800h33
l189 -736z" />
    <glyph glyph-name="Ograve" unicode="&#xd2;" 
d="M431 878l-99 106l23 21l99 -106zM234 -14q-88 0 -128 33t-45.5 116.5t27.5 225.5l17 80q46 216 109.5 294.5t190.5 78.5q129 0 160 -79t-15 -296l-17 -80q-46 -216 -109 -294.5t-190 -78.5zM235 14q110 0 168.5 75.5t100.5 271.5l17 80q42 197 17 271t-134 74
q-111 0 -170.5 -75.5t-99.5 -271.5l-17 -80q-41 -197 -15.5 -271t133.5 -74z" />
    <glyph glyph-name="Oacute" unicode="&#xd3;" 
d="M413 878l-17 21l141 106l17 -21zM234 -14q-88 0 -128 33t-45.5 116.5t27.5 225.5l17 80q46 216 109.5 294.5t190.5 78.5q129 0 160 -79t-15 -296l-17 -80q-46 -216 -109 -294.5t-190 -78.5zM235 14q110 0 168.5 75.5t100.5 271.5l17 80q42 197 17 271t-134 74
q-111 0 -170.5 -75.5t-99.5 -271.5l-17 -80q-41 -197 -15.5 -271t133.5 -74z" />
    <glyph glyph-name="Ocircumflex" unicode="&#xd4;" 
d="M513 882l-73 84l-109 -82l-20 18l136 102l93 -104zM234 -14q-88 0 -128 33t-45.5 116.5t27.5 225.5l17 80q46 216 109.5 294.5t190.5 78.5q129 0 160 -79t-15 -296l-17 -80q-46 -216 -109 -294.5t-190 -78.5zM235 14q110 0 168.5 75.5t100.5 271.5l17 80q42 197 17 271
t-134 74q-111 0 -170.5 -75.5t-99.5 -271.5l-17 -80q-41 -197 -15.5 -271t133.5 -74z" />
    <glyph glyph-name="Otilde" unicode="&#xd5;" 
d="M494 891q-24 0 -43.5 19.5t-37.5 38.5t-37 19q-26 0 -36.5 -12t-20.5 -40l-29 2q11 36 33.5 57t52.5 21q22 0 41.5 -19t38 -38.5t38.5 -19.5q25 0 36 11.5t19 37.5l29 -2q-11 -35 -33.5 -55t-50.5 -20zM234 -14q-88 0 -128 33t-45.5 116.5t27.5 225.5l17 80
q46 216 109.5 294.5t190.5 78.5q129 0 160 -79t-15 -296l-17 -80q-46 -216 -109 -294.5t-190 -78.5zM235 14q110 0 168.5 75.5t100.5 271.5l17 80q42 197 17 271t-134 74q-111 0 -170.5 -75.5t-99.5 -271.5l-17 -80q-41 -197 -15.5 -271t133.5 -74z" />
    <glyph glyph-name="Odieresis" unicode="&#xd6;" 
d="M325 927q-28 0 -35.5 9.5t-1.5 36.5q5 23 14 30.5t36 7.5q28 0 36.5 -9t1.5 -34q-4 -25 -14 -33t-37 -8zM541 927q-28 0 -35.5 9.5t-1.5 36.5q5 23 14 30.5t36 7.5q28 0 36.5 -9t1.5 -34q-4 -25 -14 -33t-37 -8zM234 -14q-88 0 -128 33t-45.5 116.5t27.5 225.5l17 80
q46 216 109.5 294.5t190.5 78.5q129 0 160 -79t-15 -296l-17 -80q-46 -216 -109 -294.5t-190 -78.5zM235 14q110 0 168.5 75.5t100.5 271.5l17 80q42 197 17 271t-134 74q-111 0 -170.5 -75.5t-99.5 -271.5l-17 -80q-41 -197 -15.5 -271t133.5 -74z" />
    <glyph glyph-name="multiply" unicode="&#xd7;" 
d="M554 577l-215 -177l139 -176l-24 -20l-138 177l-215 -177l-16 19l216 177l-139 177l23 19l139 -177l216 177z" />
    <glyph glyph-name="Oslash" unicode="&#xd8;" 
d="M636 850l-73 -110q35 -79 -13 -301l-17 -80q-46 -216 -109 -294.5t-190 -78.5q-103 0 -142 47l-55 -83h-33l72 109q-35 80 12 302l17 80q46 216 109.5 294.5t190.5 78.5q102 0 141 -47l55 83h35zM117 359q-39 -190 -18 -265l427 643q-31 49 -122 49q-110 0 -169 -75.5
t-101 -271.5zM521 441q40 188 19 265l-427 -642q31 -50 122 -50q110 0 168.5 75.5t100.5 271.5z" />
    <glyph glyph-name="Ugrave" unicode="&#xd9;" 
d="M431 878l-99 106l23 21l99 -106zM234 -14q-118 0 -147.5 64t7.5 239l108 511h30l-109 -513q-33 -155 -9 -214t121 -59q98 0 149 60t84 215l108 511h30l-109 -513q-37 -174 -92.5 -237.5t-170.5 -63.5z" />
    <glyph glyph-name="Uacute" unicode="&#xda;" 
d="M413 878l-17 21l141 106l17 -21zM234 -14q-118 0 -147.5 64t7.5 239l108 511h30l-109 -513q-33 -155 -9 -214t121 -59q98 0 149 60t84 215l108 511h30l-109 -513q-37 -174 -92.5 -237.5t-170.5 -63.5z" />
    <glyph glyph-name="Ucircumflex" unicode="&#xdb;" 
d="M513 882l-73 84l-109 -82l-20 18l136 102l93 -104zM234 -14q-118 0 -147.5 64t7.5 239l108 511h30l-109 -513q-33 -155 -9 -214t121 -59q98 0 149 60t84 215l108 511h30l-109 -513q-37 -174 -92.5 -237.5t-170.5 -63.5z" />
    <glyph glyph-name="Udieresis" unicode="&#xdc;" 
d="M325 927q-28 0 -35.5 9.5t-1.5 36.5q5 23 14 30.5t36 7.5q28 0 36.5 -9t1.5 -34q-4 -25 -14 -33t-37 -8zM541 927q-28 0 -35.5 9.5t-1.5 36.5q5 23 14 30.5t36 7.5q28 0 36.5 -9t1.5 -34q-4 -25 -14 -33t-37 -8zM234 -14q-118 0 -147.5 64t7.5 239l108 511h30l-109 -513
q-33 -155 -9 -214t121 -59q98 0 149 60t84 215l108 511h30l-109 -513q-37 -174 -92.5 -237.5t-170.5 -63.5z" />
    <glyph glyph-name="Yacute" unicode="&#xdd;" 
d="M413 878l-17 21l141 106l17 -21zM219 0l68 314l-125 486h33l114 -449l305 449h33l-330 -486l-68 -314h-30z" />
    <glyph glyph-name="Thorn" unicode="&#xde;" 
d="M360 595q118 0 153 -42t11 -155q-24 -112 -75.5 -152.5t-169.5 -40.5h-155l-44 -205h-30l170 800h30l-44 -205h154zM495 402q20 93 -10.5 129t-128.5 36h-156l-70 -334h153q98 0 145 37.5t67 131.5z" />
    <glyph glyph-name="germandbls" unicode="&#xdf;" 
d="M419 427q61 -23 76.5 -69t-5.5 -143q-27 -125 -79.5 -170t-170.5 -45h-47l6 28h43q98 0 146.5 43t71.5 152q21 105 -7 146.5t-125 41.5h-27l6 28h-3q97 0 145 39t68 133q21 100 -7 137.5t-125 37.5q-86 0 -128 -40t-64 -141l-130 -605h-30l129 609q25 120 71.5 162.5
t148.5 42.5q120 0 155.5 -45t9.5 -166q-15 -75 -42.5 -113t-85.5 -63z" />
    <glyph glyph-name="agrave" unicode="&#xe0;" 
d="M392 693l-99 106l23 21l99 -106zM489 26l17 -20q-32 -20 -75 -20q-28 0 -45 14.5t-16 39.5q1 56 14 98q-28 -68 -79 -110t-105 -42q-72 0 -116 45.5t-46 120.5q0 96 50.5 209t127.5 192t147 79q64 0 101 -16.5t37 -63.5q-1 -14 -95 -467q-3 -21 -2.5 -36.5t10.5 -25
t31 -9.5q25 0 44 12zM196 14q64 0 122.5 65.5t91.5 176.5q59 262 59 295q1 30 -23 41.5t-79 11.5q-62 0 -132.5 -76t-116.5 -183.5t-46 -196.5q-1 -60 33 -97t91 -37z" />
    <glyph glyph-name="aacute" unicode="&#xe1;" 
d="M374 693l-17 21l141 106l17 -21zM489 26l17 -20q-32 -20 -75 -20q-28 0 -45 14.5t-16 39.5q1 56 14 98q-28 -68 -79 -110t-105 -42q-72 0 -116 45.5t-46 120.5q0 96 50.5 209t127.5 192t147 79q64 0 101 -16.5t37 -63.5q-1 -14 -95 -467q-3 -21 -2.5 -36.5t10.5 -25
t31 -9.5q25 0 44 12zM196 14q64 0 122.5 65.5t91.5 176.5q59 262 59 295q1 30 -23 41.5t-79 11.5q-62 0 -132.5 -76t-116.5 -183.5t-46 -196.5q-1 -60 33 -97t91 -37z" />
    <glyph glyph-name="acircumflex" unicode="&#xe2;" 
d="M474 697l-73 84l-109 -82l-20 18l136 102l93 -104zM489 26l17 -20q-32 -20 -75 -20q-28 0 -45 14.5t-16 39.5q1 56 14 98q-28 -68 -79 -110t-105 -42q-72 0 -116 45.5t-46 120.5q0 96 50.5 209t127.5 192t147 79q64 0 101 -16.5t37 -63.5q-1 -14 -95 -467
q-3 -21 -2.5 -36.5t10.5 -25t31 -9.5q25 0 44 12zM196 14q64 0 122.5 65.5t91.5 176.5q59 262 59 295q1 30 -23 41.5t-79 11.5q-62 0 -132.5 -76t-116.5 -183.5t-46 -196.5q-1 -60 33 -97t91 -37z" />
    <glyph glyph-name="atilde" unicode="&#xe3;" 
d="M455 706q-19 0 -35.5 12t-27 26.5t-25 26.5t-30.5 12q-26 0 -36.5 -12t-20.5 -40l-29 2q11 36 33.5 57t52.5 21q18 0 34 -12t26.5 -26.5t26 -26.5t31.5 -12q25 0 36 11.5t19 37.5l29 -2q-11 -35 -33.5 -55t-50.5 -20zM489 26l17 -20q-32 -20 -75 -20q-28 0 -45 14.5
t-16 39.5q1 56 14 98q-28 -68 -79 -110t-105 -42q-72 0 -116 45.5t-46 120.5q0 96 50.5 209t127.5 192t147 79q64 0 101 -16.5t37 -63.5q-1 -14 -95 -467q-3 -21 -2.5 -36.5t10.5 -25t31 -9.5q25 0 44 12zM196 14q64 0 122.5 65.5t91.5 176.5q59 262 59 295q1 30 -23 41.5
t-79 11.5q-62 0 -132.5 -76t-116.5 -183.5t-46 -196.5q-1 -60 33 -97t91 -37z" />
    <glyph glyph-name="adieresis" unicode="&#xe4;" 
d="M286 742q-28 0 -35.5 9.5t-1.5 36.5q5 23 14 30.5t36 7.5q28 0 36.5 -9t1.5 -34q-4 -25 -14 -33t-37 -8zM502 742q-28 0 -35.5 9.5t-1.5 36.5q5 23 14 30.5t36 7.5q28 0 36.5 -9t1.5 -34q-4 -25 -14 -33t-37 -8zM489 26l17 -20q-32 -20 -75 -20q-28 0 -45 14.5t-16 39.5
q1 56 14 98q-28 -68 -79 -110t-105 -42q-72 0 -116 45.5t-46 120.5q0 96 50.5 209t127.5 192t147 79q64 0 101 -16.5t37 -63.5q-1 -14 -95 -467q-3 -21 -2.5 -36.5t10.5 -25t31 -9.5q25 0 44 12zM196 14q64 0 122.5 65.5t91.5 176.5q59 262 59 295q1 30 -23 41.5t-79 11.5
q-62 0 -132.5 -76t-116.5 -183.5t-46 -196.5q-1 -60 33 -97t91 -37z" />
    <glyph glyph-name="aring" unicode="&#xe5;" 
d="M383 696q-68 0 -87.5 23t-6.5 85q13 61 41 82.5t94 21.5t87 -23.5t8 -84.5t-41 -82.5t-95 -21.5zM385 724q48 0 71.5 18t32.5 62q10 42 -5 59t-62 17t-70.5 -18t-32.5 -62q-9 -42 5.5 -59t60.5 -17zM489 26l17 -20q-32 -20 -75 -20q-28 0 -45 14.5t-16 39.5q1 56 14 98
q-28 -68 -79 -110t-105 -42q-72 0 -116 45.5t-46 120.5q0 96 50.5 209t127.5 192t147 79q64 0 101 -16.5t37 -63.5q-1 -14 -95 -467q-3 -21 -2.5 -36.5t10.5 -25t31 -9.5q25 0 44 12zM196 14q64 0 122.5 65.5t91.5 176.5q59 262 59 295q1 30 -23 41.5t-79 11.5
q-62 0 -132.5 -76t-116.5 -183.5t-46 -196.5q-1 -60 33 -97t91 -37z" />
    <glyph glyph-name="ae" unicode="&#xe6;" 
d="M96 -14q-62 0 -90.5 48.5t-12.5 127.5q17 80 73.5 131t128.5 50h97l15 78q18 85 1.5 134t-61.5 49q-35 0 -71.5 -26.5t-63.5 -72.5l-31 11q30 52 74.5 84t88.5 32q41 0 70 -36.5t31 -95.5q27 58 71.5 95t86.5 37q62 0 82 -86t-9 -231h-261q-27 -138 -15 -219.5t63 -81.5
q58 0 121 77l24 -19q-34 -39 -73 -62.5t-70 -23.5q-40 0 -70 40.5t-29 105.5q-17 -60 -70 -103t-100 -43zM321 343l230 -1q21 122 9 192t-54 70q-60 0 -110 -70.5t-75 -190.5zM93 14q58 0 103.5 54t66.5 146l22 103h-91q-61 0 -108 -46t-61 -117q-13 -64 5.5 -102t62.5 -38z
" />
    <glyph glyph-name="ccedilla" unicode="&#xe7;" 
d="M382 632q69 0 104.5 -19.5t62.5 -73.5l-28 -10q-21 42 -51 58.5t-85 16.5q-81 0 -159.5 -83t-105.5 -216q-34 -165 -10.5 -228t117.5 -63q71 0 113 17t86 63l26 -19q-45 -49 -88.5 -68.5t-117.5 -20.5l-4 -20q34 3 50.5 -17.5t8.5 -55.5q-7 -32 -36 -51.5t-71 -19.5
t-71 20l13 22q31 -14 58 -14q30 0 52 13t26 35q4 18 -4 26.5t-19.5 10.5t-40.5 4l9 47q-109 3 -138.5 73.5t9.5 253.5q32 141 118.5 230t175.5 89z" />
    <glyph glyph-name="egrave" unicode="&#xe8;" 
d="M415 714l-23 -21l-99 106l23 21zM256 17q49 0 104.5 22t99.5 59l18 -25q-47 -40 -107.5 -63.5t-116.5 -23.5q-66 0 -111.5 48t-45.5 123q0 24 1 36q-45 -15 -55 -27l-18 27q19 14 75 31q14 178 98 293t203 115q125 0 125 -121q0 -55 -27 -101.5t-57 -74t-92.5 -56
t-92 -38t-95.5 -28.5q-21 -6 -30 -9q-2 -36 -2 -55q0 -58 36.5 -95t89.5 -37zM404 604q-104 0 -178.5 -103.5t-91.5 -265.5q159 46 227 85q133 76 133 196q0 44 -26.5 66t-63.5 22z" />
    <glyph glyph-name="eacute" unicode="&#xe9;" 
d="M515 799l-141 -106l-17 21l141 106zM256 17q49 0 104.5 22t99.5 59l18 -25q-47 -40 -107.5 -63.5t-116.5 -23.5q-66 0 -111.5 48t-45.5 123q0 24 1 36q-45 -15 -55 -27l-18 27q19 14 75 31q14 178 98 293t203 115q125 0 125 -121q0 -55 -27 -101.5t-57 -74t-92.5 -56
t-92 -38t-95.5 -28.5q-21 -6 -30 -9q-2 -36 -2 -55q0 -58 36.5 -95t89.5 -37zM404 604q-104 0 -178.5 -103.5t-91.5 -265.5q159 46 227 85q133 76 133 196q0 44 -26.5 66t-63.5 22z" />
    <glyph glyph-name="ecircumflex" unicode="&#xea;" 
d="M401 781l-109 -82l-20 18l136 102l93 -104l-27 -18zM256 17q49 0 104.5 22t99.5 59l18 -25q-47 -40 -107.5 -63.5t-116.5 -23.5q-66 0 -111.5 48t-45.5 123q0 24 1 36q-45 -15 -55 -27l-18 27q19 14 75 31q14 178 98 293t203 115q125 0 125 -121q0 -55 -27 -101.5
t-57 -74t-92.5 -56t-92 -38t-95.5 -28.5q-21 -6 -30 -9q-2 -36 -2 -55q0 -58 36.5 -95t89.5 -37zM404 604q-104 0 -178.5 -103.5t-91.5 -265.5q159 46 227 85q133 76 133 196q0 44 -26.5 66t-63.5 22z" />
    <glyph glyph-name="edieresis" unicode="&#xeb;" 
d="M286 742q-28 0 -35.5 9.5t-1.5 36.5q5 23 14 30.5t36 7.5q28 0 36.5 -9t1.5 -34q-4 -25 -14 -33t-37 -8zM515 826q28 0 36.5 -9t1.5 -34q-4 -25 -14 -33t-37 -8q-28 0 -35.5 9.5t-1.5 36.5q5 23 14 30.5t36 7.5zM526 511q0 -55 -27 -101.5t-57 -74t-92.5 -56t-92 -38
t-95.5 -28.5q-21 -6 -30 -9q-2 -36 -2 -55q0 -58 36.5 -95t89.5 -37q49 0 104.5 22t99.5 59l18 -25q-47 -40 -107.5 -63.5t-116.5 -23.5q-66 0 -111.5 48t-45.5 123q0 24 1 36q-45 -15 -55 -27l-18 27q19 14 75 31q14 178 98 293t203 115q125 0 125 -121zM404 604
q-104 0 -178.5 -103.5t-91.5 -265.5q159 46 227 85q133 76 133 196q0 44 -26.5 66t-63.5 22z" />
    <glyph glyph-name="igrave" unicode="&#xec;" 
d="M330 693l-99 106l23 21l99 -106zM342 -14q-110 0 -141 60.5t9 215.5l66 241q2 21 1.5 38t-13 30t-37.5 19l7 28q84 -20 76 -102l-68 -254q-35 -137 -12 -192.5t108 -55.5q39 0 66.5 16t58.5 56l26 -19q-38 -46 -69.5 -63.5t-77.5 -17.5z" />
    <glyph glyph-name="iacute" unicode="&#xed;" 
d="M312 693l-17 21l141 106l17 -21zM342 -14q-110 0 -141 60.5t9 215.5l66 241q2 21 1.5 38t-13 30t-37.5 19l7 28q84 -20 76 -102l-68 -254q-35 -137 -12 -192.5t108 -55.5q39 0 66.5 16t58.5 56l26 -19q-38 -46 -69.5 -63.5t-77.5 -17.5z" />
    <glyph glyph-name="icircumflex" unicode="&#xee;" 
d="M412 697l-73 84l-109 -82l-20 18l136 102l93 -104zM342 -14q-110 0 -141 60.5t9 215.5l66 241q2 21 1.5 38t-13 30t-37.5 19l7 28q84 -20 76 -102l-68 -254q-35 -137 -12 -192.5t108 -55.5q39 0 66.5 16t58.5 56l26 -19q-38 -46 -69.5 -63.5t-77.5 -17.5z" />
    <glyph glyph-name="idieresis" unicode="&#xef;" 
d="M224 742q-28 0 -35.5 9.5t-1.5 36.5q5 23 14 30.5t36 7.5q28 0 36.5 -9t1.5 -34q-4 -25 -14 -33t-37 -8zM440 742q-28 0 -35.5 9.5t-1.5 36.5q5 23 14 30.5t36 7.5q28 0 36.5 -9t1.5 -34q-4 -25 -14 -33t-37 -8zM342 -14q-110 0 -141 60.5t9 215.5l66 241q2 21 1.5 38
t-13 30t-37.5 19l7 28q84 -20 76 -102l-68 -254q-35 -137 -12 -192.5t108 -55.5q39 0 66.5 16t58.5 56l26 -19q-38 -46 -69.5 -63.5t-77.5 -17.5z" />
    <glyph glyph-name="eth" unicode="&#xf0;" 
d="M578 772l-92 -45q52 -57 55.5 -173.5t-37.5 -302.5h-1q0 -3 -2 -9q-31 -129 -102.5 -192.5t-192.5 -63.5q-72 0 -106.5 21.5t-44 80t15.5 161.5q25 115 102 187t185 72q114 0 146 -60q18 189 -52 262l-181 -90l-10 24l171 84q-58 42 -174 44l1 28q143 -2 208 -55l101 50z
M202 10q207 0 269 238q30 128 3.5 180t-113.5 52q-98 0 -168 -66.5t-92 -172.5q-25 -133 -2 -182t103 -49z" />
    <glyph glyph-name="ntilde" unicode="&#xf1;" 
d="M455 706q-19 0 -35.5 12t-27 26.5t-25 26.5t-30.5 12q-26 0 -36.5 -12t-20.5 -40l-29 2q11 36 33.5 57t52.5 21q18 0 34 -12t26.5 -26.5t26 -26.5t31.5 -12q25 0 36 11.5t19 37.5l29 -2q-11 -35 -33.5 -55t-50.5 -20zM509 26l17 -20q-32 -20 -75 -20q-29 0 -47 14t-17 37
q1 78 85 372q57 195 -69 195q-52 0 -110 -57t-97 -130t-52 -132l-61 -285h-32l115 543q2 8 2 21q1 18 -11.5 29t-32.5 11q-11 0 -25 -5t-18 -10l-18 23q32 20 75 20q28 0 47.5 -21.5t12.5 -64.5l-27 -130q45 96 106 156t123 60q177 0 105 -225q-80 -249 -84 -353
q0 -18 12 -29t32 -11q26 0 44 12z" />
    <glyph glyph-name="ograve" unicode="&#xf2;" 
d="M392 693l-99 106l23 21l99 -106zM236 -14q-121 0 -151.5 69.5t9.5 257.5q31 146 105 232.5t165 86.5q120 0 150.5 -69.5t-8.5 -257.5q-30 -145 -104.5 -232t-165.5 -87zM233 14q81 0 146 80.5t95 218.5q37 167 14 229t-121 62q-82 0 -147.5 -81t-93.5 -218
q-35 -167 -12.5 -229t119.5 -62z" />
    <glyph glyph-name="oacute" unicode="&#xf3;" 
d="M374 693l-17 21l141 106l17 -21zM236 -14q-121 0 -151.5 69.5t9.5 257.5q31 146 105 232.5t165 86.5q120 0 150.5 -69.5t-8.5 -257.5q-30 -145 -104.5 -232t-165.5 -87zM233 14q81 0 146 80.5t95 218.5q37 167 14 229t-121 62q-82 0 -147.5 -81t-93.5 -218
q-35 -167 -12.5 -229t119.5 -62z" />
    <glyph glyph-name="ocircumflex" unicode="&#xf4;" 
d="M474 697l-73 84l-109 -82l-20 18l136 102l93 -104zM236 -14q-121 0 -151.5 69.5t9.5 257.5q31 146 105 232.5t165 86.5q120 0 150.5 -69.5t-8.5 -257.5q-30 -145 -104.5 -232t-165.5 -87zM233 14q81 0 146 80.5t95 218.5q37 167 14 229t-121 62q-82 0 -147.5 -81
t-93.5 -218q-35 -167 -12.5 -229t119.5 -62z" />
    <glyph glyph-name="otilde" unicode="&#xf5;" 
d="M455 706q-19 0 -35.5 12t-27 26.5t-25 26.5t-30.5 12q-26 0 -36.5 -12t-20.5 -40l-29 2q11 36 33.5 57t52.5 21q18 0 34 -12t26.5 -26.5t26 -26.5t31.5 -12q25 0 36 11.5t19 37.5l29 -2q-11 -35 -33.5 -55t-50.5 -20zM236 -14q-121 0 -151.5 69.5t9.5 257.5
q31 146 105 232.5t165 86.5q120 0 150.5 -69.5t-8.5 -257.5q-30 -145 -104.5 -232t-165.5 -87zM233 14q81 0 146 80.5t95 218.5q37 167 14 229t-121 62q-82 0 -147.5 -81t-93.5 -218q-35 -167 -12.5 -229t119.5 -62z" />
    <glyph glyph-name="odieresis" unicode="&#xf6;" 
d="M286 742q-28 0 -35.5 9.5t-1.5 36.5q5 23 14 30.5t36 7.5q28 0 36.5 -9t1.5 -34q-4 -25 -14 -33t-37 -8zM502 742q-28 0 -35.5 9.5t-1.5 36.5q5 23 14 30.5t36 7.5q28 0 36.5 -9t1.5 -34q-4 -25 -14 -33t-37 -8zM236 -14q-121 0 -151.5 69.5t9.5 257.5q31 146 105 232.5
t165 86.5q120 0 150.5 -69.5t-8.5 -257.5q-30 -145 -104.5 -232t-165.5 -87zM233 14q81 0 146 80.5t95 218.5q37 167 14 229t-121 62q-82 0 -147.5 -81t-93.5 -218q-35 -167 -12.5 -229t119.5 -62z" />
    <glyph glyph-name="divide" unicode="&#xf7;" 
d="M352 542q-35 0 -44.5 11.5t-2.5 44.5q7 32 19.5 42t45.5 10q35 0 44.5 -11.5t2.5 -44.5q-7 -32 -19.5 -42t-45.5 -10zM52 386l6 28h528l-6 -28h-528zM268 150q-35 0 -44.5 11.5t-1.5 44.5q6 32 18.5 42t46.5 10t44 -11.5t3 -44.5q-7 -31 -20 -41.5t-46 -10.5z" />
    <glyph glyph-name="oslash" unicode="&#xf8;" 
d="M608 641l-86 -99q18 -72 -16 -237q-30 -145 -104.5 -232t-165.5 -87q-115 0 -148 61l-60 -69h-38l87 99q-19 74 17 236q31 146 105 232.5t165 86.5q113 0 146 -60l61 69h37zM126 305q-27 -131 -20 -195l381 435q-25 59 -120 59q-82 0 -147.5 -81t-93.5 -218zM474 313
q30 133 21 199l-381 -436q22 -62 119 -62q81 0 146 80.5t95 218.5z" />
    <glyph glyph-name="ugrave" unicode="&#xf9;" 
d="M378 693l-99 106l23 21l99 -106zM82 592l-17 20q32 20 75 20q29 0 47 -14t17 -37q-2 -84 -85 -372q-28 -108 -8 -151.5t87 -43.5q52 0 108 57t92.5 129.5t49.5 132.5l61 285h31l-115 -543q-1 -5 -1.5 -12t-0.5 -9q-1 -18 11.5 -29t32.5 -11q11 0 25 5t19 10l17 -23
q-32 -20 -75 -20q-28 0 -47 21.5t-13 64.5l27 130q-46 -98 -102 -157t-117 -59q-187 0 -115 225q80 249 84 353q0 18 -12 29t-32 11q-24 0 -44 -12z" />
    <glyph glyph-name="uacute" unicode="&#xfa;" 
d="M360 693l-17 21l141 106l17 -21zM82 592l-17 20q32 20 75 20q29 0 47 -14t17 -37q-2 -84 -85 -372q-28 -108 -8 -151.5t87 -43.5q52 0 108 57t92.5 129.5t49.5 132.5l61 285h31l-115 -543q-1 -5 -1.5 -12t-0.5 -9q-1 -18 11.5 -29t32.5 -11q11 0 25 5t19 10l17 -23
q-32 -20 -75 -20q-28 0 -47 21.5t-13 64.5l27 130q-46 -98 -102 -157t-117 -59q-187 0 -115 225q80 249 84 353q0 18 -12 29t-32 11q-24 0 -44 -12z" />
    <glyph glyph-name="ucircumflex" unicode="&#xfb;" 
d="M460 697l-73 84l-109 -82l-20 18l136 102l93 -104zM82 592l-17 20q32 20 75 20q29 0 47 -14t17 -37q-2 -84 -85 -372q-28 -108 -8 -151.5t87 -43.5q52 0 108 57t92.5 129.5t49.5 132.5l61 285h31l-115 -543q-1 -5 -1.5 -12t-0.5 -9q-1 -18 11.5 -29t32.5 -11q11 0 25 5
t19 10l17 -23q-32 -20 -75 -20q-28 0 -47 21.5t-13 64.5l27 130q-46 -98 -102 -157t-117 -59q-187 0 -115 225q80 249 84 353q0 18 -12 29t-32 11q-24 0 -44 -12z" />
    <glyph glyph-name="udieresis" unicode="&#xfc;" 
d="M272 742q-28 0 -35.5 9.5t-1.5 36.5q5 23 14 30.5t36 7.5q28 0 36.5 -9t1.5 -34q-4 -25 -14 -33t-37 -8zM488 742q-28 0 -35.5 9.5t-1.5 36.5q5 23 14 30.5t36 7.5q28 0 36.5 -9t1.5 -34q-4 -25 -14 -33t-37 -8zM82 592l-17 20q32 20 75 20q29 0 47 -14t17 -37
q-2 -84 -85 -372q-28 -108 -8 -151.5t87 -43.5q52 0 108 57t92.5 129.5t49.5 132.5l61 285h31l-115 -543q-1 -5 -1.5 -12t-0.5 -9q-1 -18 11.5 -29t32.5 -11q11 0 25 5t19 10l17 -23q-32 -20 -75 -20q-28 0 -47 21.5t-13 64.5l27 130q-46 -98 -102 -157t-117 -59
q-187 0 -115 225q80 249 84 353q0 18 -12 29t-32 11q-24 0 -44 -12z" />
    <glyph glyph-name="yacute" unicode="&#xfd;" 
d="M374 693l-17 21l141 106l17 -21zM115 -206q-44 0 -71.5 17.5t-28.5 45.5q0 49 96.5 76.5t265.5 26.5q18 29 33.5 79t18.5 81q-5 -39 -56.5 -56.5t-107.5 -17.5q-73 0 -112 51.5t-20 110.5q37 112 60 212t23 144q0 18 -12 29t-32 11q-24 0 -44 -12l-17 20q32 20 75 20
q28 0 45 -14t17 -37q-2 -107 -81 -370q-20 -62 8.5 -99.5t85.5 -37.5q26 0 44.5 1.5t43.5 9.5t41.5 22t32 40t23.5 63l87 408h31q-71 -339 -104 -484t-49 -172q65 0 84 3l-1 -23q-35 -9 -95 -6q-35 -64 -113 -103t-171 -39zM123 -178q71 0 140 31.5t108 82.5
q-152 -3 -238.5 -25t-85.5 -58q0 -31 76 -31z" />
    <glyph glyph-name="thorn" unicode="&#xfe;" 
d="M370 632q119 0 145.5 -70t-13.5 -257q-30 -146 -99.5 -232.5t-160.5 -86.5q-70 0 -114.5 18t-39.5 55l-51 -241h-30l208 982h30l-61 -284q16 52 71.5 84t114.5 32zM470 313q19 86 24 139t-5.5 88.5t-38 49.5t-77.5 14q-42 0 -73 -11t-61 -42t-54.5 -92t-43.5 -154
q-15 -72 -22.5 -119t-5.5 -80.5t7.5 -51t24.5 -27t38 -11.5t56 -2q81 0 140.5 80t90.5 219z" />
    <glyph glyph-name="ydieresis" unicode="&#xff;" 
d="M286 742q-28 0 -35.5 9.5t-1.5 36.5q5 23 14 30.5t36 7.5q28 0 36.5 -9t1.5 -34q-4 -25 -14 -33t-37 -8zM502 742q-28 0 -35.5 9.5t-1.5 36.5q5 23 14 30.5t36 7.5q28 0 36.5 -9t1.5 -34q-4 -25 -14 -33t-37 -8zM115 -206q-44 0 -71.5 17.5t-28.5 45.5q0 49 96.5 76.5
t265.5 26.5q18 29 33.5 79t18.5 81q-5 -39 -56.5 -56.5t-107.5 -17.5q-73 0 -112 51.5t-20 110.5q37 112 60 212t23 144q0 18 -12 29t-32 11q-24 0 -44 -12l-17 20q32 20 75 20q28 0 45 -14t17 -37q-2 -107 -81 -370q-20 -62 8.5 -99.5t85.5 -37.5q26 0 44.5 1.5t43.5 9.5
t41.5 22t32 40t23.5 63l87 408h31q-71 -339 -104 -484t-49 -172q65 0 84 3l-1 -23q-35 -9 -95 -6q-35 -64 -113 -103t-171 -39zM123 -178q71 0 140 31.5t108 82.5q-152 -3 -238.5 -25t-85.5 -58q0 -31 76 -31z" />
    <glyph glyph-name="Amacron" unicode="&#x100;" 
d="M308 946h254l-6 -28h-254zM386 800h36l52 -800h-31l-14 225h-293l-109 -225h-32zM150 253h278l-31 510z" />
    <glyph glyph-name="amacron" unicode="&#x101;" 
d="M263 733l6 28h254l-6 -28h-254zM489 26l17 -20q-32 -20 -75 -20q-28 0 -45 14.5t-16 39.5q1 56 14 98q-28 -68 -79 -110t-105 -42q-72 0 -116 45.5t-46 120.5q0 96 50.5 209t127.5 192t147 79q64 0 101 -16.5t37 -63.5q-1 -14 -95 -467q-3 -21 -2.5 -36.5t10.5 -25
t31 -9.5q25 0 44 12zM196 14q64 0 122.5 65.5t91.5 176.5q59 262 59 295q1 30 -23 41.5t-79 11.5q-62 0 -132.5 -76t-116.5 -183.5t-46 -196.5q-1 -60 33 -97t91 -37z" />
    <glyph glyph-name="Abreve" unicode="&#x102;" 
d="M527 977l29 -2q-14 -56 -42 -76t-92 -20q-65 0 -85.5 21t-10.5 77l29 -2q-7 -37 9 -52.5t60 -15.5q46 0 70.5 16.5t32.5 53.5zM386 800h36l52 -800h-31l-14 225h-293l-109 -225h-32zM150 253h278l-31 510z" />
    <glyph glyph-name="abreve" unicode="&#x103;" 
d="M383 694q-65 0 -85.5 21t-10.5 77l29 -2q-7 -37 9 -52.5t60 -15.5q46 0 70.5 16.5t32.5 53.5l29 -2q-14 -56 -42 -76t-92 -20zM489 26l17 -20q-32 -20 -75 -20q-28 0 -45 14.5t-16 39.5q1 56 14 98q-28 -68 -79 -110t-105 -42q-72 0 -116 45.5t-46 120.5q0 96 50.5 209
t127.5 192t147 79q64 0 101 -16.5t37 -63.5q-1 -14 -95 -467q-3 -21 -2.5 -36.5t10.5 -25t31 -9.5q25 0 44 12zM196 14q64 0 122.5 65.5t91.5 176.5q59 262 59 295q1 30 -23 41.5t-79 11.5q-62 0 -132.5 -76t-116.5 -183.5t-46 -196.5q-1 -60 33 -97t91 -37z" />
    <glyph glyph-name="Aogonek" unicode="&#x104;" 
d="M497 -134l11 -22q-38 -20 -76 -20q-44 0 -66.5 21t-15.5 55q8 33 31.5 51.5t55.5 15.5l7 33h-1l-14 225h-293l-109 -225h-32l391 800h36l52 -793h2l-13 -67q-28 -1 -42 -3.5t-26.5 -12.5t-16.5 -29t11 -31t43 -12q31 0 65 14zM150 253h278l-31 510z" />
    <glyph glyph-name="aogonek" unicode="&#x105;" 
d="M399 -144q31 0 65 14l11 -22q-38 -20 -76 -20q-44 0 -66.5 21t-15.5 55q8 33 31.5 51.5t55.5 15.5l4 18q-40 12 -38 51q1 56 14 98q-28 -68 -79 -110t-105 -42q-72 0 -116 45.5t-46 120.5q0 96 50.5 209t127.5 192t147 79q64 0 101 -16.5t37 -63.5q-1 -14 -95 -467
q-3 -21 -2.5 -36.5t10.5 -25t31 -9.5q25 0 44 12l17 -20q-29 -18 -68 -20l-8 -42q-28 -1 -42 -3.5t-26.5 -12.5t-16.5 -29t11 -31t43 -12zM196 14q64 0 122.5 65.5t91.5 176.5q59 262 59 295q1 30 -23 41.5t-79 11.5q-62 0 -132.5 -76t-116.5 -183.5t-46 -196.5
q-1 -60 33 -97t91 -37z" />
    <glyph glyph-name="Cacute" unicode="&#x106;" 
d="M412 875l-17 21l141 106l17 -21zM249 -14q-91 0 -132 37t-45.5 129.5t32.5 250.5q51 238 117.5 324.5t198.5 86.5q86 0 122 -31.5t47 -116.5l-31 -9q-9 73 -39 101t-100 28q-115 0 -177.5 -84t-108.5 -303q-46 -220 -21.5 -302.5t138.5 -82.5q70 0 113.5 28.5t83.5 99.5
l29 -12q-46 -83 -94 -113.5t-133 -30.5z" />
    <glyph glyph-name="cacute" unicode="&#x107;" 
d="M374 693l-17 21l141 106l17 -21zM426 94l26 -19q-47 -51 -93 -70t-129 -19q-118 0 -150 69.5t8 257.5q32 141 118.5 230t175.5 89q69 0 104.5 -19.5t62.5 -73.5l-28 -10q-21 42 -51 58.5t-85 16.5q-81 0 -159.5 -83t-105.5 -216q-34 -165 -10.5 -228t117.5 -63
q71 0 113 17t86 63z" />
    <glyph glyph-name="Ccircumflex" unicode="&#x108;" 
d="M512 879l-73 84l-109 -82l-20 18l136 102l93 -104zM249 -14q-91 0 -132 37t-45.5 129.5t32.5 250.5q51 238 117.5 324.5t198.5 86.5q86 0 122 -31.5t47 -116.5l-31 -9q-9 73 -39 101t-100 28q-115 0 -177.5 -84t-108.5 -303q-46 -220 -21.5 -302.5t138.5 -82.5
q70 0 113.5 28.5t83.5 99.5l29 -12q-46 -83 -94 -113.5t-133 -30.5z" />
    <glyph glyph-name="ccircumflex" unicode="&#x109;" 
d="M474 697l-73 84l-109 -82l-20 18l136 102l93 -104zM426 94l26 -19q-47 -51 -93 -70t-129 -19q-118 0 -150 69.5t8 257.5q32 141 118.5 230t175.5 89q69 0 104.5 -19.5t62.5 -73.5l-28 -10q-21 42 -51 58.5t-85 16.5q-81 0 -159.5 -83t-105.5 -216q-34 -165 -10.5 -228
t117.5 -63q71 0 113 17t86 63z" />
    <glyph glyph-name="Cdotaccent" unicode="&#x10a;" 
d="M434 930q-35 0 -45 11.5t-3 44.5q8 32 20 42t45 10q35 0 45 -12t3 -45q-6 -31 -19 -41t-46 -10zM249 -14q-91 0 -132 37t-45.5 129.5t32.5 250.5q51 238 117.5 324.5t198.5 86.5q86 0 122 -31.5t47 -116.5l-31 -9q-9 73 -39 101t-100 28q-115 0 -177.5 -84t-108.5 -303
q-46 -220 -21.5 -302.5t138.5 -82.5q70 0 113.5 28.5t83.5 99.5l29 -12q-46 -83 -94 -113.5t-133 -30.5z" />
    <glyph glyph-name="cdotaccent" unicode="&#x10b;" 
d="M396 748q-35 0 -45 11.5t-3 44.5q8 32 20 42t45 10q35 0 45 -12t3 -45q-6 -31 -19 -41t-46 -10zM426 94l26 -19q-47 -51 -93 -70t-129 -19q-118 0 -150 69.5t8 257.5q32 141 118.5 230t175.5 89q69 0 104.5 -19.5t62.5 -73.5l-28 -10q-21 42 -51 58.5t-85 16.5
q-81 0 -159.5 -83t-105.5 -216q-34 -165 -10.5 -228t117.5 -63q71 0 113 17t86 63z" />
    <glyph glyph-name="Ccaron" unicode="&#x10c;" 
d="M424 892l-95 102l26 18l76 -81l110 83l20 -18zM249 -14q-91 0 -132 37t-45.5 129.5t32.5 250.5q51 238 117.5 324.5t198.5 86.5q86 0 122 -31.5t47 -116.5l-31 -9q-9 73 -39 101t-100 28q-115 0 -177.5 -84t-108.5 -303q-46 -220 -21.5 -302.5t138.5 -82.5
q70 0 113.5 28.5t83.5 99.5l29 -12q-46 -83 -94 -113.5t-133 -30.5z" />
    <glyph glyph-name="ccaron" unicode="&#x10d;" 
d="M386 710l-95 102l26 18l76 -81l110 83l20 -18zM426 94l26 -19q-47 -51 -93 -70t-129 -19q-118 0 -150 69.5t8 257.5q32 141 118.5 230t175.5 89q69 0 104.5 -19.5t62.5 -73.5l-28 -10q-21 42 -51 58.5t-85 16.5q-81 0 -159.5 -83t-105.5 -216q-34 -165 -10.5 -228
t117.5 -63q71 0 113 17t86 63z" />
    <glyph glyph-name="Dcaron" unicode="&#x10e;" 
d="M561 996l-137 -104l-95 102l26 18l76 -81l110 83zM416 800q85 0 123 -35.5t42.5 -124.5t-31.5 -242q-49 -230 -113 -314t-189 -84h-219l170 800h217zM521 402q45 212 22 291t-130 79h-190l-157 -744h186q107 0 165.5 81t103.5 293z" />
    <glyph glyph-name="dcaron" unicode="&#x10f;" 
d="M474 14q24 0 44 12l17 -20q-32 -20 -75 -20q-63 0 -62 71q-52 -71 -207 -71q-107 0 -134 68t12 258q32 147 108.5 233.5t181.5 86.5q57 0 95 -31t42 -81l59 280h30l-151 -715q-6 -36 1.5 -53.5t38.5 -17.5zM602 567l41 232h40l-56 -232h-25zM188 14q77 0 137.5 26.5
t81.5 70.5l68 311q13 82 -18 132t-95 50q-95 0 -164 -81t-98 -219q-34 -167 -14.5 -228.5t102.5 -61.5z" />
    <glyph glyph-name="Dcroat" unicode="&#x110;" 
d="M419 800q85 0 123 -35.5t42.5 -124.5t-31.5 -242q-49 -230 -113 -314t-189 -84h-219l87 409h-52l6 28h52l77 363h217zM524 402q45 212 22 291t-130 79h-190l-71 -335h144l-5 -28h-145l-80 -381h186q107 0 165.5 81t103.5 293z" />
    <glyph glyph-name="dcroat" unicode="&#x111;" 
d="M562 692l-128 -607q-6 -36 1.5 -53.5t38.5 -17.5q24 0 44 12l17 -20q-32 -20 -75 -20q-63 0 -62 71q-52 -71 -207 -71q-107 0 -134 68t12 258q32 147 108.5 233.5t181.5 86.5q57 0 95 -31t42 -81l36 172h-109l6 28h109l17 80h30l-17 -80h79l-6 -28h-79zM407 111l68 311
q13 82 -18 132t-95 50q-95 0 -164 -81t-98 -219q-34 -167 -14.5 -228.5t102.5 -61.5q77 0 137.5 26.5t81.5 70.5z" />
    <glyph glyph-name="Emacron" unicode="&#x112;" 
d="M576 946l-6 -28h-254l6 28h254zM615 772h-376l-70 -335h240l-6 -28h-240l-81 -381h374l-6 -28h-404l170 800h404z" />
    <glyph glyph-name="emacron" unicode="&#x113;" 
d="M523 761l-6 -28h-254l6 28h254zM256 17q49 0 104.5 22t99.5 59l18 -25q-47 -40 -107.5 -63.5t-116.5 -23.5q-66 0 -111.5 48t-45.5 123q0 24 1 36q-45 -15 -55 -27l-18 27q19 14 75 31q14 178 98 293t203 115q125 0 125 -121q0 -55 -27 -101.5t-57 -74t-92.5 -56t-92 -38
t-95.5 -28.5q-21 -6 -30 -9q-2 -36 -2 -55q0 -58 36.5 -95t89.5 -37zM404 604q-104 0 -178.5 -103.5t-91.5 -265.5q159 46 227 85q133 76 133 196q0 44 -26.5 66t-63.5 22z" />
    <glyph glyph-name="Edotaccent" unicode="&#x116;" 
d="M449 933q-35 0 -45 11.5t-3 44.5q8 32 20 42t45 10q35 0 45 -12t3 -45q-6 -31 -19 -41t-46 -10zM615 772h-376l-70 -335h240l-6 -28h-240l-81 -381h374l-6 -28h-404l170 800h404z" />
    <glyph glyph-name="edotaccent" unicode="&#x117;" 
d="M396 748q-35 0 -45 11.5t-3 44.5q8 32 20 42t45 10q35 0 45 -12t3 -45q-6 -31 -19 -41t-46 -10zM256 17q49 0 104.5 22t99.5 59l18 -25q-47 -40 -107.5 -63.5t-116.5 -23.5q-66 0 -111.5 48t-45.5 123q0 24 1 36q-45 -15 -55 -27l-18 27q19 14 75 31q14 178 98 293
t203 115q125 0 125 -121q0 -55 -27 -101.5t-57 -74t-92.5 -56t-92 -38t-95.5 -28.5q-21 -6 -30 -9q-2 -36 -2 -55q0 -58 36.5 -95t89.5 -37zM404 604q-104 0 -178.5 -103.5t-91.5 -265.5q159 46 227 85q133 76 133 196q0 44 -26.5 66t-63.5 22z" />
    <glyph glyph-name="Eogonek" unicode="&#x118;" 
d="M615 772h-376l-70 -335h240l-6 -28h-240l-81 -381h374l-4 -21l-13 -67q-28 -1 -42 -3.5t-26.5 -12.5t-16.5 -29t11 -31t43 -12q31 0 65 14l11 -22q-38 -20 -76 -20q-44 0 -66.5 21t-15.5 55q8 33 31.5 51.5t55.5 15.5l7 33h-374l170 800h404z" />
    <glyph glyph-name="eogonek" unicode="&#x119;" 
d="M266 -57q-28 -1 -42 -3.5t-26.5 -12.5t-16.5 -29t11 -31t43 -12q31 0 65 14l11 -22q-38 -20 -76 -20q-44 0 -66.5 21t-15.5 55q8 33 31.5 51.5t55.5 15.5l4 16q-63 5 -105 52t-42 119q0 24 1 36q-45 -15 -55 -27l-18 27q19 14 75 31q14 178 98 293t203 115
q125 0 125 -121q0 -55 -27 -101.5t-57 -74t-92.5 -56t-92 -38t-95.5 -28.5q-21 -6 -30 -9q-2 -36 -2 -55q0 -58 36.5 -95t89.5 -37q49 0 104.5 22t99.5 59l18 -25q-42 -36 -96.5 -59t-106.5 -27zM404 604q-104 0 -178.5 -103.5t-91.5 -265.5q159 46 227 85q133 76 133 196
q0 44 -26.5 66t-63.5 22z" />
    <glyph glyph-name="Ecaron" unicode="&#x11a;" 
d="M576 999l-137 -104l-95 102l26 18l76 -81l110 83zM615 772h-376l-70 -335h240l-6 -28h-240l-81 -381h374l-6 -28h-404l170 800h404z" />
    <glyph glyph-name="ecaron" unicode="&#x11b;" 
d="M523 814l-137 -104l-95 102l26 18l76 -81l110 83zM256 17q49 0 104.5 22t99.5 59l18 -25q-47 -40 -107.5 -63.5t-116.5 -23.5q-66 0 -111.5 48t-45.5 123q0 24 1 36q-45 -15 -55 -27l-18 27q19 14 75 31q14 178 98 293t203 115q125 0 125 -121q0 -55 -27 -101.5t-57 -74
t-92.5 -56t-92 -38t-95.5 -28.5q-21 -6 -30 -9q-2 -36 -2 -55q0 -58 36.5 -95t89.5 -37zM404 604q-104 0 -178.5 -103.5t-91.5 -265.5q159 46 227 85q133 76 133 196q0 44 -26.5 66t-63.5 22z" />
    <glyph glyph-name="Gcircumflex" unicode="&#x11c;" 
d="M512 879l-73 84l-109 -82l-20 18l136 102l93 -104zM253 -14q-139 0 -171.5 89.5t17.5 326.5q50 236 119.5 324t205.5 88q92 0 130 -35.5t46 -127.5l-28 -5q-7 80 -38.5 110t-110.5 30q-120 0 -184.5 -84t-110.5 -304q-34 -144 -31 -229.5t39.5 -120t117.5 -34.5
q73 0 117.5 28.5t86.5 101.5l47 219h-174l5 28h204l-53 -254q-46 -86 -97 -118.5t-137 -32.5z" />
    <glyph glyph-name="gcircumflex" unicode="&#x11d;" 
d="M484 697l-73 84l-109 -82l-20 18l136 102l93 -104zM115 -206q-44 0 -71.5 17.5t-28.5 45.5q0 49 96.5 77t264.5 28q35 52 49 156q-4 -29 -66.5 -50.5t-123.5 -21.5q-72 0 -116 48t-44 126q1 97 55 194.5t131.5 157.5t147.5 60q64 0 100.5 -16.5t37.5 -63.5
q0 -40 -60 -307.5t-74 -281.5q61 -2 82 3l-1 -24q-35 -9 -95 -6q-35 -64 -113 -103t-171 -39zM231 74q97 0 146.5 28t69.5 116q69 313 68 333q0 16 -5 26.5t-10.5 15.5t-22 7.5t-27 3t-37.5 0.5q-46 0 -99.5 -35t-98.5 -89t-75.5 -125.5t-31.5 -139.5q-1 -63 33 -102t90 -39
zM123 -178q71 0 140 31.5t108 82.5q-152 -3 -238.5 -25t-85.5 -58q0 -31 76 -31z" />
    <glyph glyph-name="Gbreve" unicode="&#x11e;" 
d="M421 876q-65 0 -85.5 21t-10.5 77l29 -2q-7 -37 9 -52.5t60 -15.5q46 0 70.5 16.5t32.5 53.5l29 -2q-14 -56 -42 -76t-92 -20zM253 -14q-139 0 -171.5 89.5t17.5 326.5q50 236 119.5 324t205.5 88q92 0 130 -35.5t46 -127.5l-28 -5q-7 80 -38.5 110t-110.5 30
q-120 0 -184.5 -84t-110.5 -304q-34 -144 -31 -229.5t39.5 -120t117.5 -34.5q73 0 117.5 28.5t86.5 101.5l47 219h-174l5 28h204l-53 -254q-46 -86 -97 -118.5t-137 -32.5z" />
    <glyph glyph-name="gbreve" unicode="&#x11f;" 
d="M393 694q-65 0 -85.5 21t-10.5 77l29 -2q-7 -37 9 -52.5t60 -15.5q46 0 70.5 16.5t32.5 53.5l29 -2q-14 -56 -42 -76t-92 -20zM115 -206q-44 0 -71.5 17.5t-28.5 45.5q0 49 96.5 77t264.5 28q35 52 49 156q-4 -29 -66.5 -50.5t-123.5 -21.5q-72 0 -116 48t-44 126
q1 97 55 194.5t131.5 157.5t147.5 60q64 0 100.5 -16.5t37.5 -63.5q0 -40 -60 -307.5t-74 -281.5q61 -2 82 3l-1 -24q-35 -9 -95 -6q-35 -64 -113 -103t-171 -39zM231 74q97 0 146.5 28t69.5 116q69 313 68 333q0 16 -5 26.5t-10.5 15.5t-22 7.5t-27 3t-37.5 0.5
q-46 0 -99.5 -35t-98.5 -89t-75.5 -125.5t-31.5 -139.5q-1 -63 33 -102t90 -39zM123 -178q71 0 140 31.5t108 82.5q-152 -3 -238.5 -25t-85.5 -58q0 -31 76 -31z" />
    <glyph glyph-name="Gdotaccent" unicode="&#x120;" 
d="M434 930q-35 0 -45 11.5t-3 44.5q8 32 20 42t45 10q35 0 45 -12t3 -45q-6 -31 -19 -41t-46 -10zM253 -14q-139 0 -171.5 89.5t17.5 326.5q50 236 119.5 324t205.5 88q92 0 130 -35.5t46 -127.5l-28 -5q-7 80 -38.5 110t-110.5 30q-120 0 -184.5 -84t-110.5 -304
q-34 -144 -31 -229.5t39.5 -120t117.5 -34.5q73 0 117.5 28.5t86.5 101.5l47 219h-174l5 28h204l-53 -254q-46 -86 -97 -118.5t-137 -32.5z" />
    <glyph glyph-name="gdotaccent" unicode="&#x121;" 
d="M406 748q-35 0 -45 11.5t-3 44.5q8 32 20 42t45 10q35 0 45 -12t3 -45q-6 -31 -19 -41t-46 -10zM115 -206q-44 0 -71.5 17.5t-28.5 45.5q0 49 96.5 77t264.5 28q35 52 49 156q-4 -29 -66.5 -50.5t-123.5 -21.5q-72 0 -116 48t-44 126q1 97 55 194.5t131.5 157.5t147.5 60
q64 0 100.5 -16.5t37.5 -63.5q0 -40 -60 -307.5t-74 -281.5q61 -2 82 3l-1 -24q-35 -9 -95 -6q-35 -64 -113 -103t-171 -39zM231 74q97 0 146.5 28t69.5 116q69 313 68 333q0 16 -5 26.5t-10.5 15.5t-22 7.5t-27 3t-37.5 0.5q-46 0 -99.5 -35t-98.5 -89t-75.5 -125.5
t-31.5 -139.5q-1 -63 33 -102t90 -39zM123 -178q71 0 140 31.5t108 82.5q-152 -3 -238.5 -25t-85.5 -58q0 -31 76 -31z" />
    <glyph glyph-name="uni0122" unicode="&#x122;" 
d="M253 -14q-139 0 -171.5 89.5t17.5 326.5q50 236 119.5 324t205.5 88q92 0 130 -35.5t46 -127.5l-28 -5q-7 80 -38.5 110t-110.5 30q-120 0 -184.5 -84t-110.5 -304q-34 -144 -31 -229.5t39.5 -120t117.5 -34.5q73 0 117.5 28.5t86.5 101.5l47 219h-174l5 28h204l-53 -254
q-46 -86 -97 -118.5t-137 -32.5zM136 -246l74 118q-29 1 -21 38q4 20 11 26t29 6q23 0 29 -7t2 -29q-9 -47 -100 -154z" />
    <glyph glyph-name="uni0123" unicode="&#x123;" 
d="M385 664q-23 0 -29.5 7t-2.5 29q11 50 101 154l23 -2l-73 -118q29 -1 21 -38q-4 -20 -11.5 -26t-28.5 -6zM115 -206q-44 0 -71.5 17.5t-28.5 45.5q0 49 96.5 77t264.5 28q35 52 49 156q-4 -29 -66.5 -50.5t-123.5 -21.5q-72 0 -116 48t-44 126q1 97 55 194.5t131.5 157.5
t147.5 60q64 0 100.5 -16.5t37.5 -63.5q0 -40 -60 -307.5t-74 -281.5q61 -2 82 3l-1 -24q-35 -9 -95 -6q-35 -64 -113 -103t-171 -39zM231 74q97 0 146.5 28t69.5 116q69 313 68 333q0 16 -5 26.5t-10.5 15.5t-22 7.5t-27 3t-37.5 0.5q-46 0 -99.5 -35t-98.5 -89
t-75.5 -125.5t-31.5 -139.5q-1 -63 33 -102t90 -39zM123 -178q71 0 140 31.5t108 82.5q-152 -3 -238.5 -25t-85.5 -58q0 -31 76 -31z" />
    <glyph glyph-name="Hcircumflex" unicode="&#x124;" 
d="M439 963l-109 -82l-20 18l136 102l93 -104l-27 -18zM580 800h30l-170 -800h-30l87 409h-352l-87 -409h-30l170 800h30l-77 -363h352z" />
    <glyph glyph-name="hcircumflex" unicode="&#x125;" 
d="M295 821l-73 84l-109 -82l-20 18l136 102l93 -104zM490 26l17 -20q-32 -20 -75 -20q-29 0 -46.5 14t-17.5 37q1 43 24.5 149.5t59.5 222.5q61 195 -78 195q-56 0 -116.5 -56t-100 -126.5t-51.5 -128.5l-63 -293h-31l170 800h30l-82 -387q45 98 108 158.5t133 60.5
q190 0 115 -224q-38 -114 -61 -212.5t-23 -141.5q0 -18 12 -29t32 -11q24 0 44 12z" />
    <glyph glyph-name="Hbar" unicode="&#x126;" 
d="M621 580l-5 -28h-59l-117 -552h-30l87 409h-352l-87 -409h-30l117 552h-57l5 28h58l47 220h30l-47 -220h352l47 220h30l-47 -220h58zM503 437l24 115h-352l-24 -115h352z" />
    <glyph glyph-name="hbar" unicode="&#x127;" 
d="M446 14q24 0 44 12l17 -20q-32 -20 -75 -20q-29 0 -46.5 14t-17.5 37q1 43 24.5 149.5t59.5 222.5q61 195 -78 195q-56 0 -116.5 -56t-100 -126.5t-51.5 -128.5l-63 -293h-31l147 692h-50l6 28h50l17 80h30l-17 -80h138l-6 -28h-138l-59 -279q45 98 108 158.5t133 60.5
q190 0 115 -224q-38 -114 -61 -212.5t-23 -141.5q0 -18 12 -29t32 -11z" />
    <glyph glyph-name="Itilde" unicode="&#x128;" 
d="M376 968q-26 0 -36.5 -12t-20.5 -40l-29 2q11 36 33.5 57t52.5 21q22 0 41.5 -19t38 -38.5t38.5 -19.5q25 0 36 11.5t19 37.5l29 -2q-11 -35 -33.5 -55t-50.5 -20q-24 0 -43.5 19.5t-37.5 38.5t-37 19zM576 772h-163l-158 -744h162l-6 -28h-354l6 28h162l158 744h-161
l5 28h354z" />
    <glyph glyph-name="itilde" unicode="&#x129;" 
d="M393 706q-19 0 -35.5 12t-27 26.5t-25 26.5t-30.5 12q-26 0 -36.5 -12t-20.5 -40l-29 2q11 36 33.5 57t52.5 21q18 0 34 -12t26.5 -26.5t26 -26.5t31.5 -12q25 0 36 11.5t19 37.5l29 -2q-11 -35 -33.5 -55t-50.5 -20zM342 -14q-110 0 -141 60.5t9 215.5l66 241
q2 21 1.5 38t-13 30t-37.5 19l7 28q84 -20 76 -102l-68 -254q-35 -137 -12 -192.5t108 -55.5q39 0 66.5 16t58.5 56l26 -19q-38 -46 -69.5 -63.5t-77.5 -17.5z" />
    <glyph glyph-name="Imacron" unicode="&#x12a;" 
d="M562 946l-6 -28h-254l6 28h254zM576 772h-163l-158 -744h162l-6 -28h-354l6 28h162l158 744h-161l5 28h354z" />
    <glyph glyph-name="imacron" unicode="&#x12b;" 
d="M201 733l6 28h254l-6 -28h-254zM342 -14q-110 0 -141 60.5t9 215.5l66 241q2 21 1.5 38t-13 30t-37.5 19l7 28q84 -20 76 -102l-68 -254q-35 -137 -12 -192.5t108 -55.5q39 0 66.5 16t58.5 56l26 -19q-38 -46 -69.5 -63.5t-77.5 -17.5z" />
    <glyph glyph-name="Iogonek" unicode="&#x12e;" 
d="M576 772h-163l-158 -744h162l-6 -28h-157l-12 -61q-28 -1 -42 -3.5t-26.5 -12.5t-16.5 -29t11 -31t43 -12q31 0 65 14l11 -22q-38 -20 -76 -20q-44 0 -66.5 21t-15.5 55q8 33 31.5 51.5t55.5 15.5l8 34h-167l6 28h162l158 744h-161l5 28h354z" />
    <glyph glyph-name="iogonek" unicode="&#x12f;" 
d="M334 748q-35 0 -45 11.5t-3 44.5q8 32 20 42t45 10q35 0 45 -12t3 -45q-6 -31 -19 -41t-46 -10zM312 -57q-28 -1 -42 -3.5t-26.5 -12.5t-16.5 -29t11 -31t43 -12q31 0 65 14l11 -22q-38 -20 -76 -20q-44 0 -66.5 21t-15.5 55q8 33 31.5 51.5t55.5 15.5l4 20
q-77 13 -96.5 75t16.5 197l66 241q2 21 1.5 38t-13 30t-37.5 19l7 28q84 -20 76 -102l-68 -254q-35 -137 -12 -192.5t108 -55.5q39 0 66.5 16t58.5 56l26 -19q-38 -46 -69.5 -63.5t-77.5 -17.5q-15 0 -22 1z" />
    <glyph glyph-name="Idotaccent" unicode="&#x130;" 
d="M435 933q-35 0 -45 11.5t-3 44.5q8 32 20 42t45 10q35 0 45 -12t3 -45q-6 -31 -19 -41t-46 -10zM576 772h-163l-158 -744h162l-6 -28h-354l6 28h162l158 744h-161l5 28h354z" />
    <glyph glyph-name="dotlessi" unicode="&#x131;" 
d="M342 -14q-110 0 -141 60.5t9 215.5l66 241q2 21 1.5 38t-13 30t-37.5 19l7 28q84 -20 76 -102l-68 -254q-35 -137 -12 -192.5t108 -55.5q39 0 66.5 16t58.5 56l26 -19q-38 -46 -69.5 -63.5t-77.5 -17.5z" />
    <glyph glyph-name="Jcircumflex" unicode="&#x134;" 
d="M626 879l-73 84l-109 -82l-20 18l136 102l93 -104zM198 -14q-87 0 -123 31t-46 114l29 5q7 -69 38.5 -95.5t102.5 -26.5q114 0 173.5 71.5t98.5 254.5l92 432h-131l5 28h161l-98 -462q-43 -203 -107.5 -277.5t-194.5 -74.5z" />
    <glyph glyph-name="jcircumflex" unicode="&#x135;" 
d="M570 697l-73 84l-109 -82l-20 18l136 102l93 -104zM55 -206q-44 0 -71.5 17.5t-28.5 45.5q0 50 96.5 77t266.5 26q17 17 122 536q10 29 0.5 54t-46.5 36l9 26q86 -25 71 -105q-89 -447 -111 -516q-7 -21 -12 -29q65 0 84 3l-1 -23q-35 -9 -95 -6q-35 -64 -113 -103
t-171 -39zM63 -178q71 0 140 31.5t108 82.5q-152 -3 -238.5 -25t-85.5 -58q0 -31 76 -31z" />
    <glyph glyph-name="uni0136" unicode="&#x136;" 
d="M639 800l-382 -377l219 -423h-37l-208 409h-80l-87 -409h-30l170 800h30l-77 -363h75l369 363h38zM229 -58q23 0 29 -7t2 -29q-9 -47 -100 -154l-24 2l74 118q-29 1 -21 38q4 20 11 26t29 6z" />
    <glyph glyph-name="uni0137" unicode="&#x137;" 
d="M564 511q0 -90 -64 -149.5t-169 -69.5q19 -23 30.5 -58.5t10.5 -69.5q-1 -103 6 -125q8 -25 30 -25q14 0 39.5 15.5t37.5 33.5l20 -19q-19 -23 -27.5 -31.5t-25.5 -17.5t-39 -9q-47 0 -63.5 45.5t-13.5 134.5q1 34 -12 69t-35 58l13 28q103 1 165.5 53t64.5 136
q1 40 -29.5 65t-72.5 25q-81 0 -162.5 -85.5t-111.5 -216.5h-1l-63 -298h-30l65 308h-1q5 19 7 25l99 467h30l-72 -340q48 77 113 122.5t125 45.5q56 0 96.5 -33t39.5 -84zM225 -58q23 0 29 -7t2 -29q-9 -47 -100 -154l-24 2l74 118q-29 1 -21 38q4 20 11 26t29 6z" />
    <glyph glyph-name="Lacute" unicode="&#x139;" 
d="M272 875l-17 21l141 106l17 -21zM65 0l170 800h30l-164 -772h335l-6 -28h-365z" />
    <glyph glyph-name="lacute" unicode="&#x13a;" 
d="M551 981l-141 -106l-17 21l141 106zM245 172v-15q-1 -64 22.5 -103.5t64.5 -39.5q30 0 64 19t61 52l26 -17q-31 -37 -71.5 -59.5t-75.5 -22.5q-55 0 -89.5 40t-33.5 106v10q-105 -93 -212 -141l-16 25q122 57 228 157q2 146 13.5 257t35 197.5t63 131.5t95.5 45
q38 0 61 -30.5t23 -79.5q0 -139 -71 -278.5t-188 -253.5zM412 785q-73 0 -116 -147.5t-50 -422.5q104 106 165.5 234t61.5 257q0 35 -16.5 57t-44.5 22z" />
    <glyph glyph-name="uni013B" unicode="&#x13b;" 
d="M65 0l170 800h30l-164 -772h335l-6 -28h-365zM136 -246l74 118q-29 1 -21 38q4 20 11 26t29 6q23 0 29 -7t2 -29q-9 -47 -100 -154z" />
    <glyph glyph-name="uni013C" unicode="&#x13c;" 
d="M332 14q30 0 64 19t61 52l26 -17q-31 -37 -71.5 -59.5t-75.5 -22.5q-55 0 -89.5 40t-33.5 106v10q-105 -93 -212 -141l-16 25q122 57 228 157q2 146 13.5 257t35 197.5t63 131.5t95.5 45q38 0 61 -30.5t23 -79.5q0 -139 -71 -278.5t-188 -253.5v-15q-1 -64 22.5 -103.5
t64.5 -39.5zM412 785q-73 0 -116 -147.5t-50 -422.5q104 106 165.5 234t61.5 257q0 35 -16.5 57t-44.5 22zM219 -58q23 0 29 -7t2 -29q-9 -47 -100 -154l-24 2l74 118q-29 1 -21 38q4 20 11 26t29 6z" />
    <glyph glyph-name="Lcaron" unicode="&#x13d;" 
d="M65 0l170 800h30l-164 -772h335l-6 -28h-365zM365 568l41 232h40l-56 -232h-25z" />
    <glyph glyph-name="lcaron" unicode="&#x13e;" 
d="M245 172v-15q-1 -64 22.5 -103.5t64.5 -39.5q30 0 64 19t61 52l26 -17q-31 -37 -71.5 -59.5t-75.5 -22.5q-55 0 -89.5 40t-33.5 106v10q-105 -93 -212 -141l-16 25q122 57 228 157q2 146 13.5 257t35 197.5t63 131.5t95.5 45q38 0 61 -30.5t23 -79.5q0 -139 -71 -278.5
t-188 -253.5zM575 799h40l-56 -232h-25zM412 785q-73 0 -116 -147.5t-50 -422.5q104 106 165.5 234t61.5 257q0 35 -16.5 57t-44.5 22z" />
    <glyph glyph-name="Lslash" unicode="&#x141;" 
d="M131 28h335l-6 -28h-365l97 457l-106 -40l6 27l106 40l67 316h30l-65 -304l146 55l-5 -27l-146 -55z" />
    <glyph glyph-name="lslash" unicode="&#x142;" 
d="M245 172v-15q-1 -64 22.5 -103.5t64.5 -39.5q30 0 64 19t61 52l26 -17q-31 -37 -71.5 -59.5t-75.5 -22.5q-55 0 -89.5 40t-33.5 106v10q-105 -93 -212 -141l-16 25q122 57 228 157q3 174 16 277l-55 -21l7 29l51 19q42 327 188 327q38 0 61 -30.5t23 -79.5
q0 -58 -14 -119l44 16l-8 -29l-43 -16q-55 -206 -238 -384zM412 785q-104 0 -145 -284l189 71q17 68 17 134q0 35 -16.5 57t-44.5 22zM448 542l-184 -69q-15 -111 -18 -258q148 153 202 327z" />
    <glyph glyph-name="Nacute" unicode="&#x143;" 
d="M554 984l-141 -106l-17 21l141 106zM578 800h30l-170 -800h-32l-189 738l-157 -738h-30l170 800h33l189 -736z" />
    <glyph glyph-name="nacute" unicode="&#x144;" 
d="M374 693l-17 21l141 106l17 -21zM509 26l17 -20q-32 -20 -75 -20q-29 0 -47 14t-17 37q1 78 85 372q57 195 -69 195q-52 0 -110 -57t-97 -130t-52 -132l-61 -285h-32l115 543q2 8 2 21q1 18 -11.5 29t-32.5 11q-11 0 -25 -5t-18 -10l-18 23q32 20 75 20q28 0 47.5 -21.5
t12.5 -64.5l-27 -130q45 96 106 156t123 60q177 0 105 -225q-80 -249 -84 -353q0 -18 12 -29t32 -11q26 0 44 12z" />
    <glyph glyph-name="uni0145" unicode="&#x145;" 
d="M578 800h30l-170 -800h-32l-189 738l-157 -738h-30l170 800h33l189 -736zM229 -61q23 0 29 -7t2 -29q-9 -47 -100 -154l-24 2l74 118q-29 1 -21 38q4 20 11 26t29 6z" />
    <glyph glyph-name="uni0146" unicode="&#x146;" 
d="M509 26l17 -20q-32 -20 -75 -20q-29 0 -47 14t-17 37q1 78 85 372q57 195 -69 195q-52 0 -110 -57t-97 -130t-52 -132l-61 -285h-32l115 543q2 8 2 21q1 18 -11.5 29t-32.5 11q-11 0 -25 -5t-18 -10l-18 23q32 20 75 20q28 0 47.5 -21.5t12.5 -64.5l-27 -130
q45 96 106 156t123 60q177 0 105 -225q-80 -249 -84 -353q0 -18 12 -29t32 -11q26 0 44 12zM136 -246l74 118q-29 1 -21 38q4 20 11 26t29 6q23 0 29 -7t2 -29q-9 -47 -100 -154z" />
    <glyph glyph-name="Ncaron" unicode="&#x147;" 
d="M562 999l-137 -104l-95 102l26 18l76 -81l110 83zM578 800h30l-170 -800h-32l-189 738l-157 -738h-30l170 800h33l189 -736z" />
    <glyph glyph-name="ncaron" unicode="&#x148;" 
d="M386 710l-95 102l26 18l76 -81l110 83l20 -18zM509 26l17 -20q-32 -20 -75 -20q-29 0 -47 14t-17 37q1 78 85 372q57 195 -69 195q-52 0 -110 -57t-97 -130t-52 -132l-61 -285h-32l115 543q2 8 2 21q1 18 -11.5 29t-32.5 11q-11 0 -25 -5t-18 -10l-18 23q32 20 75 20
q28 0 47.5 -21.5t12.5 -64.5l-27 -130q45 96 106 156t123 60q177 0 105 -225q-80 -249 -84 -353q0 -18 12 -29t32 -11q26 0 44 12z" />
    <glyph glyph-name="Eng" unicode="&#x14a;" 
d="M608 800l-170 -800h-11l11 -1q-16 -78 -50 -111.5t-101 -33.5l3 27q52 0 82 30t33 91l-188 736l-157 -738h-30l170 800h33l189 -736l156 736h30z" />
    <glyph glyph-name="eng" unicode="&#x14b;" 
d="M526 6q-25 -15 -56 -19q-18 -77 -50 -105t-98 -28l3 27q56 0 77.5 18t38.5 87q-25 3 -40 16.5t-14 34.5q1 78 85 372q57 195 -69 195q-52 0 -110 -57t-97 -130t-52 -132l-61 -285h-32l115 543q2 8 2 21q1 18 -11.5 29t-32.5 11q-11 0 -25 -5t-18 -10l-18 23q32 20 75 20
q28 0 47.5 -21.5t12.5 -64.5l-27 -130q45 96 106 156t123 60q177 0 105 -225q-80 -249 -84 -353q0 -18 12 -29t32 -11q26 0 44 12z" />
    <glyph glyph-name="Omacron" unicode="&#x14c;" 
d="M302 918l6 28h254l-6 -28h-254zM234 -14q-88 0 -128 33t-45.5 116.5t27.5 225.5l17 80q46 216 109.5 294.5t190.5 78.5q129 0 160 -79t-15 -296l-17 -80q-46 -216 -109 -294.5t-190 -78.5zM235 14q110 0 168.5 75.5t100.5 271.5l17 80q42 197 17 271t-134 74
q-111 0 -170.5 -75.5t-99.5 -271.5l-17 -80q-41 -197 -15.5 -271t133.5 -74z" />
    <glyph glyph-name="omacron" unicode="&#x14d;" 
d="M263 733l6 28h254l-6 -28h-254zM236 -14q-121 0 -151.5 69.5t9.5 257.5q31 146 105 232.5t165 86.5q120 0 150.5 -69.5t-8.5 -257.5q-30 -145 -104.5 -232t-165.5 -87zM233 14q81 0 146 80.5t95 218.5q37 167 14 229t-121 62q-82 0 -147.5 -81t-93.5 -218
q-35 -167 -12.5 -229t119.5 -62z" />
    <glyph glyph-name="Ohungarumlaut" unicode="&#x150;" 
d="M300 878l-17 21l141 106l17 -21zM444 878l-17 21l141 106l17 -21zM234 -14q-88 0 -128 33t-45.5 116.5t27.5 225.5l17 80q46 216 109.5 294.5t190.5 78.5q129 0 160 -79t-15 -296l-17 -80q-46 -216 -109 -294.5t-190 -78.5zM235 14q110 0 168.5 75.5t100.5 271.5l17 80
q42 197 17 271t-134 74q-111 0 -170.5 -75.5t-99.5 -271.5l-17 -80q-41 -197 -15.5 -271t133.5 -74z" />
    <glyph glyph-name="ohungarumlaut" unicode="&#x151;" 
d="M261 693l-17 21l141 106l17 -21zM405 693l-17 21l141 106l17 -21zM236 -14q-121 0 -151.5 69.5t9.5 257.5q31 146 105 232.5t165 86.5q120 0 150.5 -69.5t-8.5 -257.5q-30 -145 -104.5 -232t-165.5 -87zM233 14q81 0 146 80.5t95 218.5q37 167 14 229t-121 62
q-82 0 -147.5 -81t-93.5 -218q-35 -167 -12.5 -229t119.5 -62z" />
    <glyph glyph-name="OE" unicode="&#x152;" 
d="M697 772h-242l-68 -335h142l-6 -28h-144l-81 -381h240l-6 -28h-270l20 94q-32 -58 -72 -83t-95 -25q-71 0 -101.5 38t-28.5 126t37 251q50 239 106 326t157 87q58 0 88 -27t37 -89l22 102h270zM115 14q78 0 127 72t92 253l27 127q34 182 17 251t-93 69q-87 0 -137 -83.5
t-97 -305.5q-47 -220 -34 -301.5t98 -81.5z" />
    <glyph glyph-name="oe" unicode="&#x153;" 
d="M502 632q62 0 82.5 -86t-8.5 -231h-257q-36 -154 -24.5 -227.5t64.5 -73.5q52 0 124 78l25 -21q-36 -38 -76 -61.5t-70 -23.5q-43 0 -72 34t-31 90q-23 -54 -69 -89t-93 -35q-67 0 -87 89t15 238q36 145 98 232t128 87q95 0 87 -157q24 69 70 113t94 44zM94 14
q64 0 111.5 68.5t78.5 230.5q56 291 -30 291q-59 0 -112 -80.5t-85 -218.5q-31 -135 -20 -213t57 -78zM326 343l224 -3q22 121 10 192.5t-55 71.5q-55 0 -103 -70.5t-76 -190.5z" />
    <glyph glyph-name="Racute" unicode="&#x154;" 
d="M553 981l-141 -106l-17 21l141 106zM415 800q118 0 152 -46.5t7 -173.5q-26 -123 -78.5 -169.5t-169.5 -46.5h-16l153 -364h-35l-154 364h-124l-78 -364h-30l170 800h203zM546 585q22 107 -6.5 147t-127.5 40h-175l-81 -380h172q98 0 146.5 43t71.5 150z" />
    <glyph glyph-name="racute" unicode="&#x155;" 
d="M515 799l-141 -106l-17 21l141 106zM385 14q28 0 54.5 17.5t43.5 46.5l28 -13q-18 -36 -51 -57.5t-71 -21.5q-41 0 -66 27t-25 72q1 91 45.5 220.5t111.5 232.5q-52 -29 -110.5 -47.5t-100.5 -18.5q-18 0 -26 1q-29 -74 -97 -158l-22 26q59 65 84 137q-44 10 -69.5 32.5
t-26.5 53.5q2 31 22.5 49.5t55.5 18.5q31 0 50 -23.5t20 -62.5q0 -16 -7 -46h12q45 0 114.5 26t138.5 70l25 -17q-83 -126 -135 -266.5t-52 -231.5q-1 -30 13.5 -48.5t40.5 -18.5zM129 558q0 -17 17 -31.5t46 -21.5q5 25 5 42q0 45 -36 45q-13 0 -22.5 -9.5t-9.5 -24.5z" />
    <glyph glyph-name="uni0156" unicode="&#x156;" 
d="M415 800q118 0 152 -46.5t7 -173.5q-26 -123 -78.5 -169.5t-169.5 -46.5h-16l153 -364h-35l-154 364h-124l-78 -364h-30l170 800h203zM546 585q22 107 -6.5 147t-127.5 40h-175l-81 -380h172q98 0 146.5 43t71.5 150zM229 -58q23 0 29 -7t2 -29q-9 -47 -100 -154l-24 2
l74 118q-29 1 -21 38q4 20 11 26t29 6z" />
    <glyph glyph-name="uni0157" unicode="&#x157;" 
d="M385 14q28 0 54.5 17.5t43.5 46.5l28 -13q-18 -36 -51 -57.5t-71 -21.5q-41 0 -66 27t-25 72q1 91 45.5 220.5t111.5 232.5q-52 -29 -110.5 -47.5t-100.5 -18.5q-18 0 -26 1q-29 -74 -97 -158l-22 26q59 65 84 137q-44 10 -69.5 32.5t-26.5 53.5q2 31 22.5 49.5
t55.5 18.5q31 0 50 -23.5t20 -62.5q0 -16 -7 -46h12q45 0 114.5 26t138.5 70l25 -17q-83 -126 -135 -266.5t-52 -231.5q-1 -30 13.5 -48.5t40.5 -18.5zM129 558q0 -17 17 -31.5t46 -21.5q5 25 5 42q0 45 -36 45q-13 0 -22.5 -9.5t-9.5 -24.5zM359 -58q23 0 29 -7t2 -29
q-9 -47 -100 -154l-24 2l74 118q-29 1 -21 38q4 20 11 26t29 6z" />
    <glyph glyph-name="Rcaron" unicode="&#x158;" 
d="M561 996l-137 -104l-95 102l26 18l76 -81l110 83zM415 800q118 0 152 -46.5t7 -173.5q-26 -123 -78.5 -169.5t-169.5 -46.5h-16l153 -364h-35l-154 364h-124l-78 -364h-30l170 800h203zM546 585q22 107 -6.5 147t-127.5 40h-175l-81 -380h172q98 0 146.5 43t71.5 150z
" />
    <glyph glyph-name="rcaron" unicode="&#x159;" 
d="M523 814l-137 -104l-95 102l26 18l76 -81l110 83zM518 579q-83 -126 -135 -266.5t-52 -231.5q-1 -30 13.5 -48.5t40.5 -18.5q28 0 54.5 17.5t43.5 46.5l28 -13q-18 -36 -51 -57.5t-71 -21.5q-41 0 -66 27t-25 72q1 91 45.5 220.5t111.5 232.5q-52 -29 -110.5 -47.5
t-100.5 -18.5q-18 0 -26 1q-29 -74 -97 -158l-22 26q59 65 84 137q-44 10 -69.5 32.5t-26.5 53.5q2 31 22.5 49.5t55.5 18.5q31 0 50 -23.5t20 -62.5q0 -16 -7 -46h12q45 0 114.5 26t138.5 70zM129 558q0 -17 17 -31.5t46 -21.5q5 25 5 42q0 45 -36 45q-13 0 -22.5 -9.5
t-9.5 -24.5z" />
    <glyph glyph-name="Sacute" unicode="&#x15a;" 
d="M413 878l-17 21l141 106l17 -21zM234 -14q-93 0 -135.5 21t-63.5 78l25 18q14 -50 53 -69.5t122 -19.5q105 0 155 43.5t74 155.5q16 75 -14 118t-124 76q-109 39 -143.5 84t-18.5 124q25 116 75 157.5t166 41.5q84 0 124 -18.5t60 -66.5l-22 -18q-16 42 -52.5 58.5
t-110.5 16.5q-97 0 -143 -38.5t-66 -137.5q-15 -66 13 -104.5t114 -66.5q116 -40 153 -90t17 -141q-26 -128 -81 -175t-177 -47z" />
    <glyph glyph-name="sacute" unicode="&#x15b;" 
d="M356 693l-17 21l141 106l17 -21zM217 -14q-123 0 -190 100l26 10q25 -38 65.5 -60t84.5 -22q93 0 146 81.5t53 194.5q1 42 -11 87t-32 70q-33 -53 -97 -92t-134 -50l-9 28q66 9 126 47t93 92q-58 55 -60 101q1 27 16.5 43t43.5 16q33 0 51.5 -18t18.5 -48q-2 -51 -35 -95
q27 -32 43.5 -87t17.5 -104q0 -75 -27.5 -142t-75.5 -113q42 11 90 35t68 46l21 -19q-45 -45 -124.5 -73t-168.5 -28zM353 503q19 34 17 60q-1 18 -8 27.5t-20 8.5q-26 0 -26 -29q0 -28 37 -67z" />
    <glyph glyph-name="Scircumflex" unicode="&#x15c;" 
d="M513 882l-73 84l-109 -82l-20 18l136 102l93 -104zM234 -14q-93 0 -135.5 21t-63.5 78l25 18q14 -50 53 -69.5t122 -19.5q105 0 155 43.5t74 155.5q16 75 -14 118t-124 76q-109 39 -143.5 84t-18.5 124q25 116 75 157.5t166 41.5q84 0 124 -18.5t60 -66.5l-22 -18
q-16 42 -52.5 58.5t-110.5 16.5q-97 0 -143 -38.5t-66 -137.5q-15 -66 13 -104.5t114 -66.5q116 -40 153 -90t17 -141q-26 -128 -81 -175t-177 -47z" />
    <glyph glyph-name="scircumflex" unicode="&#x15d;" 
d="M456 697l-73 84l-109 -82l-20 18l136 102l93 -104zM217 -14q-123 0 -190 100l26 10q25 -38 65.5 -60t84.5 -22q93 0 146 81.5t53 194.5q1 42 -11 87t-32 70q-33 -53 -97 -92t-134 -50l-9 28q66 9 126 47t93 92q-58 55 -60 101q1 27 16.5 43t43.5 16q33 0 51.5 -18
t18.5 -48q-2 -51 -35 -95q27 -32 43.5 -87t17.5 -104q0 -75 -27.5 -142t-75.5 -113q42 11 90 35t68 46l21 -19q-45 -45 -124.5 -73t-168.5 -28zM353 503q19 34 17 60q-1 18 -8 27.5t-20 8.5q-26 0 -26 -29q0 -28 37 -67z" />
    <glyph glyph-name="Scedilla" unicode="&#x15e;" 
d="M405 814q84 0 124 -18.5t60 -66.5l-22 -18q-16 42 -52.5 58.5t-110.5 16.5q-97 0 -143 -38.5t-66 -137.5q-15 -66 13 -104.5t114 -66.5q116 -40 153 -90t17 -141q-25 -126 -78 -173t-169 -49l-4 -20q34 3 50.5 -17.5t8.5 -55.5q-7 -32 -36 -51.5t-71 -19.5t-71 20l13 22
q31 -14 58 -14q30 0 52 13t26 35q4 18 -4 26.5t-19.5 10.5t-40.5 4l9 47q-82 1 -121.5 23t-59.5 76l25 18q14 -50 53 -69.5t122 -19.5q105 0 155 43.5t74 155.5q16 75 -14 118t-124 76q-109 39 -143.5 84t-18.5 124q25 116 75 157.5t166 41.5z" />
    <glyph glyph-name="scedilla" unicode="&#x15f;" 
d="M510 87q-43 -44 -120 -72t-163 -29l-4 -20q34 3 50.5 -17.5t8.5 -55.5q-7 -32 -36 -51.5t-71 -19.5t-71 20l13 22q31 -14 58 -14q30 0 52 13t26 35q4 18 -4 26.5t-19.5 10.5t-40.5 4l9 48q-109 7 -171 99l26 10q25 -38 65.5 -60t84.5 -22q93 0 146 81.5t53 194.5
q1 42 -11 87t-32 70q-33 -53 -97 -92t-134 -50l-9 28q66 9 126 47t93 92q-58 55 -60 101q1 27 16.5 43t43.5 16q33 0 51.5 -18t18.5 -48q-2 -51 -35 -95q27 -32 43.5 -87t17.5 -104q0 -75 -27.5 -142t-75.5 -113q42 11 90 35t68 46zM353 503q19 34 17 60q-1 18 -8 27.5
t-20 8.5q-26 0 -26 -29q0 -28 37 -67z" />
    <glyph glyph-name="Scaron" unicode="&#x160;" 
d="M425 895l-95 102l26 18l76 -81l110 83l20 -18zM234 -14q-93 0 -135.5 21t-63.5 78l25 18q14 -50 53 -69.5t122 -19.5q105 0 155 43.5t74 155.5q16 75 -14 118t-124 76q-109 39 -143.5 84t-18.5 124q25 116 75 157.5t166 41.5q84 0 124 -18.5t60 -66.5l-22 -18
q-16 42 -52.5 58.5t-110.5 16.5q-97 0 -143 -38.5t-66 -137.5q-15 -66 13 -104.5t114 -66.5q116 -40 153 -90t17 -141q-26 -128 -81 -175t-177 -47z" />
    <glyph glyph-name="scaron" unicode="&#x161;" 
d="M368 710l-95 102l26 18l76 -81l110 83l20 -18zM217 -14q-123 0 -190 100l26 10q25 -38 65.5 -60t84.5 -22q93 0 146 81.5t53 194.5q1 42 -11 87t-32 70q-33 -53 -97 -92t-134 -50l-9 28q66 9 126 47t93 92q-58 55 -60 101q1 27 16.5 43t43.5 16q33 0 51.5 -18t18.5 -48
q-2 -51 -35 -95q27 -32 43.5 -87t17.5 -104q0 -75 -27.5 -142t-75.5 -113q42 11 90 35t68 46l21 -19q-45 -45 -124.5 -73t-168.5 -28zM353 503q19 34 17 60q-1 18 -8 27.5t-20 8.5q-26 0 -26 -29q0 -28 37 -67z" />
    <glyph glyph-name="uni0162" unicode="&#x162;" 
d="M249 0h-1l-7 -34q34 3 50.5 -17.5t8.5 -55.5q-7 -32 -36 -51.5t-71 -19.5t-71 20l13 22q31 -14 58 -14q30 0 52 13t26 35q4 18 -4 26.5t-19.5 10.5t-40.5 4l12 61v1l1 4l163 767h-242l5 28h516l-5 -28h-244z" />
    <glyph glyph-name="uni0163" unicode="&#x163;" 
d="M295 590l-84 -397q-22 -92 -3 -135.5t90 -43.5q101 0 137 57l29 -12q-28 -43 -62.5 -58t-100.5 -15h-6l-4 -20q34 3 50.5 -17.5t8.5 -55.5q-7 -32 -36 -51.5t-71 -19.5t-71 20l13 22q31 -14 58 -14q30 0 52 13t26 35q4 18 -4 26.5t-19.5 10.5t-40.5 4l10 49
q-72 8 -91 58.5t4 150.5l85 393h-124l6 28h124l38 182h30l-38 -182h208l-6 -28h-208z" />
    <glyph glyph-name="Tcaron" unicode="&#x164;" 
d="M561 996l-137 -104l-95 102l26 18l76 -81l110 83zM662 800l-5 -28h-244l-164 -772h-30l164 772h-242l5 28h516z" />
    <glyph glyph-name="tcaron" unicode="&#x165;" 
d="M392 668l41 232h40l-56 -232h-25zM301 -14q-94 0 -120 48.5t-1 162.5l85 393h-124l6 28h124l38 182h30l-38 -182h208l-6 -28h-208l-84 -397q-22 -92 -3 -135.5t90 -43.5q101 0 137 57l29 -12q-28 -43 -62.5 -58t-100.5 -15z" />
    <glyph glyph-name="Tbar" unicode="&#x166;" 
d="M657 772h-244l-71 -335h177l-6 -28h-177l-87 -409h-30l87 409h-177l6 28h177l71 335h-242l5 28h516z" />
    <glyph glyph-name="tbar" unicode="&#x167;" 
d="M503 590h-208l-40 -190h207l-5 -28h-208l-38 -179q-22 -92 -3 -135.5t90 -43.5q101 0 137 57l29 -12q-28 -43 -62.5 -58t-100.5 -15q-94 0 -120 48.5t-1 162.5l38 175h-123l5 28h124l41 190h-124l6 28h124l38 182h30l-38 -182h208z" />
    <glyph glyph-name="Utilde" unicode="&#x168;" 
d="M494 891q-24 0 -43.5 19.5t-37.5 38.5t-37 19q-26 0 -36.5 -12t-20.5 -40l-29 2q11 36 33.5 57t52.5 21q22 0 41.5 -19t38 -38.5t38.5 -19.5q25 0 36 11.5t19 37.5l29 -2q-11 -35 -33.5 -55t-50.5 -20zM234 -14q-118 0 -147.5 64t7.5 239l108 511h30l-109 -513
q-33 -155 -9 -214t121 -59q98 0 149 60t84 215l108 511h30l-109 -513q-37 -174 -92.5 -237.5t-170.5 -63.5z" />
    <glyph glyph-name="utilde" unicode="&#x169;" 
d="M441 706q-19 0 -35.5 12t-27 26.5t-25 26.5t-30.5 12q-26 0 -36.5 -12t-20.5 -40l-29 2q11 36 33.5 57t52.5 21q18 0 34 -12t26.5 -26.5t26 -26.5t31.5 -12q25 0 36 11.5t19 37.5l29 -2q-11 -35 -33.5 -55t-50.5 -20zM82 592l-17 20q32 20 75 20q29 0 47 -14t17 -37
q-2 -84 -85 -372q-28 -108 -8 -151.5t87 -43.5q52 0 108 57t92.5 129.5t49.5 132.5l61 285h31l-115 -543q-1 -5 -1.5 -12t-0.5 -9q-1 -18 11.5 -29t32.5 -11q11 0 25 5t19 10l17 -23q-32 -20 -75 -20q-28 0 -47 21.5t-13 64.5l27 130q-46 -98 -102 -157t-117 -59
q-187 0 -115 225q80 249 84 353q0 18 -12 29t-32 11q-24 0 -44 -12z" />
    <glyph glyph-name="Umacron" unicode="&#x16a;" 
d="M302 918l6 28h254l-6 -28h-254zM234 -14q-118 0 -147.5 64t7.5 239l108 511h30l-109 -513q-33 -155 -9 -214t121 -59q98 0 149 60t84 215l108 511h30l-109 -513q-37 -174 -92.5 -237.5t-170.5 -63.5z" />
    <glyph glyph-name="umacron" unicode="&#x16b;" 
d="M249 733l6 28h254l-6 -28h-254zM82 592l-17 20q32 20 75 20q29 0 47 -14t17 -37q-2 -84 -85 -372q-28 -108 -8 -151.5t87 -43.5q52 0 108 57t92.5 129.5t49.5 132.5l61 285h31l-115 -543q-1 -5 -1.5 -12t-0.5 -9q-1 -18 11.5 -29t32.5 -11q11 0 25 5t19 10l17 -23
q-32 -20 -75 -20q-28 0 -47 21.5t-13 64.5l27 130q-46 -98 -102 -157t-117 -59q-187 0 -115 225q80 249 84 353q0 18 -12 29t-32 11q-24 0 -44 -12z" />
    <glyph glyph-name="Ubreve" unicode="&#x16c;" 
d="M422 879q-65 0 -85.5 21t-10.5 77l29 -2q-7 -37 9 -52.5t60 -15.5q46 0 70.5 16.5t32.5 53.5l29 -2q-14 -56 -42 -76t-92 -20zM234 -14q-118 0 -147.5 64t7.5 239l108 511h30l-109 -513q-33 -155 -9 -214t121 -59q98 0 149 60t84 215l108 511h30l-109 -513
q-37 -174 -92.5 -237.5t-170.5 -63.5z" />
    <glyph glyph-name="ubreve" unicode="&#x16d;" 
d="M369 694q-65 0 -85.5 21t-10.5 77l29 -2q-7 -37 9 -52.5t60 -15.5q46 0 70.5 16.5t32.5 53.5l29 -2q-14 -56 -42 -76t-92 -20zM82 592l-17 20q32 20 75 20q29 0 47 -14t17 -37q-2 -84 -85 -372q-28 -108 -8 -151.5t87 -43.5q52 0 108 57t92.5 129.5t49.5 132.5l61 285h31
l-115 -543q-1 -5 -1.5 -12t-0.5 -9q-1 -18 11.5 -29t32.5 -11q11 0 25 5t19 10l17 -23q-32 -20 -75 -20q-28 0 -47 21.5t-13 64.5l27 130q-46 -98 -102 -157t-117 -59q-187 0 -115 225q80 249 84 353q0 18 -12 29t-32 11q-24 0 -44 -12z" />
    <glyph glyph-name="Uring" unicode="&#x16e;" 
d="M399 772q-67 0 -86.5 23t-7.5 85q14 61 41.5 82.5t93.5 21.5q68 0 88.5 -23t6.5 -85q-13 -61 -41 -82.5t-95 -21.5zM401 800q48 0 72 18.5t32 61.5q10 42 -5 59t-61 17q-48 0 -71.5 -18t-32.5 -62q-9 -42 5.5 -59t60.5 -17zM234 -14q-118 0 -147.5 64t7.5 239l108 511h30
l-109 -513q-33 -155 -9 -214t121 -59q98 0 149 60t84 215l108 511h30l-109 -513q-37 -174 -92.5 -237.5t-170.5 -63.5z" />
    <glyph glyph-name="uring" unicode="&#x16f;" 
d="M369 696q-68 0 -87.5 23t-6.5 85q13 61 41 82.5t94 21.5t87 -23.5t8 -84.5t-41 -82.5t-95 -21.5zM371 724q48 0 71.5 18t32.5 62q10 42 -5 59t-62 17t-70.5 -18t-32.5 -62q-9 -42 5.5 -59t60.5 -17zM82 592l-17 20q32 20 75 20q29 0 47 -14t17 -37q-2 -84 -85 -372
q-28 -108 -8 -151.5t87 -43.5q52 0 108 57t92.5 129.5t49.5 132.5l61 285h31l-115 -543q-1 -5 -1.5 -12t-0.5 -9q-1 -18 11.5 -29t32.5 -11q11 0 25 5t19 10l17 -23q-32 -20 -75 -20q-28 0 -47 21.5t-13 64.5l27 130q-46 -98 -102 -157t-117 -59q-187 0 -115 225
q80 249 84 353q0 18 -12 29t-32 11q-24 0 -44 -12z" />
    <glyph glyph-name="Uhungarumlaut" unicode="&#x170;" 
d="M300 878l-17 21l141 106l17 -21zM444 878l-17 21l141 106l17 -21zM234 -14q-118 0 -147.5 64t7.5 239l108 511h30l-109 -513q-33 -155 -9 -214t121 -59q98 0 149 60t84 215l108 511h30l-109 -513q-37 -174 -92.5 -237.5t-170.5 -63.5z" />
    <glyph glyph-name="uhungarumlaut" unicode="&#x171;" 
d="M247 693l-17 21l141 106l17 -21zM391 693l-17 21l141 106l17 -21zM82 592l-17 20q32 20 75 20q29 0 47 -14t17 -37q-2 -84 -85 -372q-28 -108 -8 -151.5t87 -43.5q52 0 108 57t92.5 129.5t49.5 132.5l61 285h31l-115 -543q-1 -5 -1.5 -12t-0.5 -9q-1 -18 11.5 -29
t32.5 -11q11 0 25 5t19 10l17 -23q-32 -20 -75 -20q-28 0 -47 21.5t-13 64.5l27 130q-46 -98 -102 -157t-117 -59q-187 0 -115 225q80 249 84 353q0 18 -12 29t-32 11q-24 0 -44 -12z" />
    <glyph glyph-name="Uogonek" unicode="&#x172;" 
d="M576 800h30l-109 -513q-35 -168 -88 -232.5t-158 -68.5l-9 -46q-28 -1 -42 -3.5t-26.5 -12.5t-16.5 -29t11 -31t43 -12q31 0 65 14l11 -22q-38 -20 -76 -20q-44 0 -66.5 21t-15.5 55q8 33 31.5 51.5t55.5 15.5l4 19q-109 3 -136 68.5t10 234.5l108 511h30l-109 -513
q-33 -155 -9 -214t121 -59q98 0 149 60t84 215z" />
    <glyph glyph-name="uogonek" unicode="&#x173;" 
d="M452 -75q-28 -1 -42 -3.5t-26.5 -12.5t-16.5 -29t11 -31t43 -12q31 0 65 14l11 -22q-38 -20 -76 -20q-44 0 -66.5 21t-15.5 55q8 33 31.5 51.5t55.5 15.5l8 37q-50 16 -41 83l27 130q-46 -98 -102 -157t-117 -59q-187 0 -115 225q80 249 84 353q0 18 -12 29t-32 11
q-24 0 -44 -12l-17 20q32 20 75 20q29 0 47 -14t17 -37q-2 -84 -85 -372q-28 -108 -8 -151.5t87 -43.5q52 0 108 57t92.5 129.5t49.5 132.5l61 285h31l-115 -543q-1 -5 -1.5 -12t-0.5 -9q-1 -18 11.5 -29t32.5 -11q11 0 25 5t19 10l17 -23q-29 -17 -64 -20z" />
    <glyph glyph-name="Wcircumflex" unicode="&#x174;" 
d="M513 882l-73 84l-109 -82l-20 18l136 102l93 -104zM86 0l65 800h30l-62 -740l210 467h34l11 -467l253 740h32l-275 -800h-34l-11 487l-221 -487h-32z" />
    <glyph glyph-name="wcircumflex" unicode="&#x175;" 
d="M401 781l-109 -82l-20 18l136 102l93 -104l-27 -18zM584 618h34q-21 -89 -61.5 -193t-98 -234t-81.5 -191h-28l-32 352q-27 -68 -109 -201.5t-90 -148.5v-2h-30l29 618h30l-26 -562q7 12 50.5 82.5t59.5 98.5t40.5 80t34.5 92h33l33 -352q17 41 57 136t63 150t50 133.5
t42 141.5z" />
    <glyph glyph-name="Ycircumflex" unicode="&#x176;" 
d="M513 882l-73 84l-109 -82l-20 18l136 102l93 -104zM219 0l68 314l-125 486h33l114 -449l305 449h33l-330 -486l-68 -314h-30z" />
    <glyph glyph-name="ycircumflex" unicode="&#x177;" 
d="M474 697l-73 84l-109 -82l-20 18l136 102l93 -104zM115 -206q-44 0 -71.5 17.5t-28.5 45.5q0 49 96.5 76.5t265.5 26.5q18 29 33.5 79t18.5 81q-5 -39 -56.5 -56.5t-107.5 -17.5q-73 0 -112 51.5t-20 110.5q37 112 60 212t23 144q0 18 -12 29t-32 11q-24 0 -44 -12
l-17 20q32 20 75 20q28 0 45 -14t17 -37q-2 -107 -81 -370q-20 -62 8.5 -99.5t85.5 -37.5q26 0 44.5 1.5t43.5 9.5t41.5 22t32 40t23.5 63l87 408h31q-71 -339 -104 -484t-49 -172q65 0 84 3l-1 -23q-35 -9 -95 -6q-35 -64 -113 -103t-171 -39zM123 -178q71 0 140 31.5
t108 82.5q-152 -3 -238.5 -25t-85.5 -58q0 -31 76 -31z" />
    <glyph glyph-name="Ydieresis" unicode="&#x178;" 
d="M325 927q-28 0 -35.5 9.5t-1.5 36.5q5 23 14 30.5t36 7.5q28 0 36.5 -9t1.5 -34q-4 -25 -14 -33t-37 -8zM541 927q-28 0 -35.5 9.5t-1.5 36.5q5 23 14 30.5t36 7.5q28 0 36.5 -9t1.5 -34q-4 -25 -14 -33t-37 -8zM219 0l68 314l-125 486h33l114 -449l305 449h33l-330 -486
l-68 -314h-30z" />
    <glyph glyph-name="Zacute" unicode="&#x179;" 
d="M412 875l-17 21l141 106l17 -21zM449 -63q-43 0 -131.5 37.5t-148.5 37.5q-7 0 -59 -5.5t-107 -6.5l5 29l589 743h-427l5 28h460l-5 -30l-590 -746q28 0 68.5 8t67.5 8q62 0 148 -37.5t131 -37.5q51 0 119.5 30.5t103.5 32.5l-3 -28q-20 -2 -94 -32.5t-132 -30.5z" />
    <glyph glyph-name="zacute" unicode="&#x17a;" 
d="M374 693l-17 21l141 106l17 -21zM399 -15q59 0 129.5 21.5t101.5 21.5l-3 -28q-20 0 -88 -21.5t-146 -21.5q-40 0 -109.5 25.5t-105.5 25.5q-9 0 -46.5 -3.5t-85.5 -4.5l2 19l458 571h-334l6 28h375l-3 -19l-460 -575q7 1 19.5 4t31 5t44.5 2q36 0 103.5 -25t110.5 -25z
" />
    <glyph glyph-name="Zdotaccent" unicode="&#x17b;" 
d="M434 930q-35 0 -45 11.5t-3 44.5q8 32 20 42t45 10q35 0 45 -12t3 -45q-6 -31 -19 -41t-46 -10zM449 -63q-43 0 -131.5 37.5t-148.5 37.5q-7 0 -59 -5.5t-107 -6.5l5 29l589 743h-427l5 28h460l-5 -30l-590 -746q28 0 68.5 8t67.5 8q62 0 148 -37.5t131 -37.5
q51 0 119.5 30.5t103.5 32.5l-3 -28q-20 -2 -94 -32.5t-132 -30.5z" />
    <glyph glyph-name="zdotaccent" unicode="&#x17c;" 
d="M396 748q-35 0 -45 11.5t-3 44.5q8 32 20 42t45 10q35 0 45 -12t3 -45q-6 -31 -19 -41t-46 -10zM399 -15q59 0 129.5 21.5t101.5 21.5l-3 -28q-20 0 -88 -21.5t-146 -21.5q-40 0 -109.5 25.5t-105.5 25.5q-9 0 -46.5 -3.5t-85.5 -4.5l2 19l458 571h-334l6 28h375l-3 -19
l-460 -575q7 1 19.5 4t31 5t44.5 2q36 0 103.5 -25t110.5 -25z" />
    <glyph glyph-name="Zcaron" unicode="&#x17d;" 
d="M424 892l-95 102l26 18l76 -81l110 83l20 -18zM449 -63q-43 0 -131.5 37.5t-148.5 37.5q-7 0 -59 -5.5t-107 -6.5l5 29l589 743h-427l5 28h460l-5 -30l-590 -746q28 0 68.5 8t67.5 8q62 0 148 -37.5t131 -37.5q51 0 119.5 30.5t103.5 32.5l-3 -28q-20 -2 -94 -32.5
t-132 -30.5z" />
    <glyph glyph-name="zcaron" unicode="&#x17e;" 
d="M386 710l-95 102l26 18l76 -81l110 83l20 -18zM399 -15q59 0 129.5 21.5t101.5 21.5l-3 -28q-20 0 -88 -21.5t-146 -21.5q-40 0 -109.5 25.5t-105.5 25.5q-9 0 -46.5 -3.5t-85.5 -4.5l2 19l458 571h-334l6 28h375l-3 -19l-460 -575q7 1 19.5 4t31 5t44.5 2
q36 0 103.5 -25t110.5 -25z" />
    <glyph glyph-name="florin" unicode="&#x192;" 
d="M109 -14q-53 0 -75 16t-32 59l30 8q6 -30 24 -42.5t54 -12.5q63 0 96 38t53 135l42 197h-124l6 28h124l45 211q24 111 62 151t116 40q52 0 75 -16t31 -59l-29 -8q-6 30 -24 42.5t-54 12.5q-63 0 -96 -38t-53 -135l-43 -201h178l-6 -28h-178l-43 -207q-24 -111 -63 -151
t-116 -40z" />
    <glyph glyph-name="Ohorn" unicode="&#x1a0;" 
d="M734 901h30l-25 -122q-10 -51 -42.5 -81t-75.5 -30q-25 0 -44 15q8 -79 -27 -244l-17 -80q-46 -216 -109 -294.5t-190 -78.5q-88 0 -128 33t-45.5 116.5t27.5 225.5l17 80q46 216 109.5 294.5t190.5 78.5q74 0 114.5 -23.5t52.5 -79.5l1 5q0 -4 5.5 -8.5t18 -8.5t28.5 -4
q28 0 52 24.5t32 62.5zM521 441q42 197 17 271t-134 74q-111 0 -170.5 -75.5t-99.5 -271.5l-17 -80q-41 -197 -15.5 -271t133.5 -74q110 0 168.5 75.5t100.5 271.5z" />
    <glyph glyph-name="ohorn" unicode="&#x1a1;" 
d="M670 716h30l-25 -122q-10 -51 -42.5 -81t-75.5 -30q-14 0 -29 6q3 -65 -22 -184q-30 -145 -104.5 -232t-165.5 -87q-121 0 -151.5 69.5t9.5 257.5q31 146 105 232.5t165 86.5q78 0 116.5 -26.5t45.5 -89.5q18 -6 35 -6q28 0 52 24.5t32 62.5zM474 313q37 167 14 229
t-121 62q-82 0 -147.5 -81t-93.5 -218q-35 -167 -12.5 -229t119.5 -62q81 0 146 80.5t95 218.5z" />
    <glyph glyph-name="Uhorn" unicode="&#x1af;" 
d="M752 984h30l-26 -122q-10 -51 -42.5 -81.5t-75.5 -30.5q-19 0 -40 13l-101 -476q-37 -174 -92.5 -237.5t-170.5 -63.5q-118 0 -147.5 64t7.5 239l108 511h30l-109 -513q-33 -155 -9 -214t121 -59q98 0 149 60t84 215l108 511h30l-3 -14q14 -8 39 -8q29 0 53 24t32 62z
" />
    <glyph glyph-name="uhorn" unicode="&#x1b0;" 
d="M683 804h30l-25 -122q-10 -51 -42.5 -81.5t-75.5 -30.5q-19 0 -38 11l-107 -506q-1 -5 -1.5 -12t-0.5 -9q-1 -18 11.5 -29t32.5 -11q11 0 25 5t19 10l17 -23q-32 -20 -75 -20q-28 0 -47 21.5t-13 64.5l27 130q-46 -98 -102 -157t-117 -59q-187 0 -115 225q80 249 84 353
q0 18 -12 29t-32 11q-24 0 -44 -12l-17 20q32 20 75 20q29 0 47 -14t17 -37q-2 -84 -85 -372q-28 -108 -8 -151.5t87 -43.5q52 0 108 57t92.5 129.5t49.5 132.5l61 285h31l-3 -13q16 -7 37 -7q28 0 52 24t32 62z" />
    <glyph glyph-name="uni01CD" unicode="&#x1cd;" 
d="M562 999l-137 -104l-95 102l26 18l76 -81l110 83zM386 800h36l52 -800h-31l-14 225h-293l-109 -225h-32zM150 253h278l-31 510z" />
    <glyph glyph-name="uni01CE" unicode="&#x1ce;" 
d="M386 710l-95 102l26 18l76 -81l110 83l20 -18zM489 26l17 -20q-32 -20 -75 -20q-28 0 -45 14.5t-16 39.5q1 56 14 98q-28 -68 -79 -110t-105 -42q-72 0 -116 45.5t-46 120.5q0 96 50.5 209t127.5 192t147 79q64 0 101 -16.5t37 -63.5q-1 -14 -95 -467q-3 -21 -2.5 -36.5
t10.5 -25t31 -9.5q25 0 44 12zM196 14q64 0 122.5 65.5t91.5 176.5q59 262 59 295q1 30 -23 41.5t-79 11.5q-62 0 -132.5 -76t-116.5 -183.5t-46 -196.5q-1 -60 33 -97t91 -37z" />
    <glyph glyph-name="uni01CF" unicode="&#x1cf;" 
d="M562 999l-137 -104l-95 102l26 18l76 -81l110 83zM576 772h-163l-158 -744h162l-6 -28h-354l6 28h162l158 744h-161l5 28h354z" />
    <glyph glyph-name="uni01D0" unicode="&#x1d0;" 
d="M324 710l-95 102l26 18l76 -81l110 83l20 -18zM342 -14q-110 0 -141 60.5t9 215.5l66 241q2 21 1.5 38t-13 30t-37.5 19l7 28q84 -20 76 -102l-68 -254q-35 -137 -12 -192.5t108 -55.5q39 0 66.5 16t58.5 56l26 -19q-38 -46 -69.5 -63.5t-77.5 -17.5z" />
    <glyph glyph-name="uni01D1" unicode="&#x1d1;" 
d="M425 895l-95 102l26 18l76 -81l110 83l20 -18zM234 -14q-88 0 -128 33t-45.5 116.5t27.5 225.5l17 80q46 216 109.5 294.5t190.5 78.5q129 0 160 -79t-15 -296l-17 -80q-46 -216 -109 -294.5t-190 -78.5zM235 14q110 0 168.5 75.5t100.5 271.5l17 80q42 197 17 271
t-134 74q-111 0 -170.5 -75.5t-99.5 -271.5l-17 -80q-41 -197 -15.5 -271t133.5 -74z" />
    <glyph glyph-name="uni01D2" unicode="&#x1d2;" 
d="M386 710l-95 102l26 18l76 -81l110 83l20 -18zM236 -14q-121 0 -151.5 69.5t9.5 257.5q31 146 105 232.5t165 86.5q120 0 150.5 -69.5t-8.5 -257.5q-30 -145 -104.5 -232t-165.5 -87zM233 14q81 0 146 80.5t95 218.5q37 167 14 229t-121 62q-82 0 -147.5 -81t-93.5 -218
q-35 -167 -12.5 -229t119.5 -62z" />
    <glyph glyph-name="uni01D3" unicode="&#x1d3;" 
d="M425 895l-95 102l26 18l76 -81l110 83l20 -18zM234 -14q-118 0 -147.5 64t7.5 239l108 511h30l-109 -513q-33 -155 -9 -214t121 -59q98 0 149 60t84 215l108 511h30l-109 -513q-37 -174 -92.5 -237.5t-170.5 -63.5z" />
    <glyph glyph-name="uni01D4" unicode="&#x1d4;" 
d="M372 710l-95 102l26 18l76 -81l110 83l20 -18zM82 592l-17 20q32 20 75 20q29 0 47 -14t17 -37q-2 -84 -85 -372q-28 -108 -8 -151.5t87 -43.5q52 0 108 57t92.5 129.5t49.5 132.5l61 285h31l-115 -543q-1 -5 -1.5 -12t-0.5 -9q-1 -18 11.5 -29t32.5 -11q11 0 25 5t19 10
l17 -23q-32 -20 -75 -20q-28 0 -47 21.5t-13 64.5l27 130q-46 -98 -102 -157t-117 -59q-187 0 -115 225q80 249 84 353q0 18 -12 29t-32 11q-24 0 -44 -12z" />
    <glyph glyph-name="uni01D5" unicode="&#x1d5;" 
d="M327 1036l6 28h254l-6 -28h-254zM306 830q-28 0 -36 9.5t-2 36.5q5 23 14.5 30.5t35.5 7.5q28 0 36.5 -9t2.5 -34q-5 -25 -15 -33t-36 -8zM522 830q-28 0 -36 9.5t-2 36.5q5 23 14.5 30.5t35.5 7.5q28 0 36.5 -9t2.5 -34q-5 -25 -15 -33t-36 -8zM234 -14
q-118 0 -147.5 64t7.5 239l108 511h30l-109 -513q-33 -155 -9 -214t121 -59q98 0 149 60t84 215l108 511h30l-109 -513q-37 -174 -92.5 -237.5t-170.5 -63.5z" />
    <glyph glyph-name="uni01D6" unicode="&#x1d6;" 
d="M294 948l6 28h254l-6 -28h-254zM272 742q-28 0 -35.5 9.5t-1.5 36.5q5 23 14 30.5t36 7.5q28 0 36.5 -9t1.5 -34q-4 -25 -14 -33t-37 -8zM488 742q-28 0 -35.5 9.5t-1.5 36.5q5 23 14 30.5t36 7.5q28 0 36.5 -9t1.5 -34q-4 -25 -14 -33t-37 -8zM82 592l-17 20
q32 20 75 20q29 0 47 -14t17 -37q-2 -84 -85 -372q-28 -108 -8 -151.5t87 -43.5q52 0 108 57t92.5 129.5t49.5 132.5l61 285h31l-115 -543q-1 -5 -1.5 -12t-0.5 -9q-1 -18 11.5 -29t32.5 -11q11 0 25 5t19 10l17 -23q-32 -20 -75 -20q-28 0 -47 21.5t-13 64.5l27 130
q-46 -98 -102 -157t-117 -59q-187 0 -115 225q80 249 84 353q0 18 -12 29t-32 11q-24 0 -44 -12z" />
    <glyph glyph-name="uni01D7" unicode="&#x1d7;" 
d="M425 933l-16 21l140 106l17 -21zM306 830q-28 0 -36 9.5t-2 36.5q5 23 14.5 30.5t35.5 7.5q28 0 36.5 -9t2.5 -34q-5 -25 -15 -33t-36 -8zM522 830q-28 0 -36 9.5t-2 36.5q5 23 14.5 30.5t35.5 7.5q28 0 36.5 -9t2.5 -34q-5 -25 -15 -33t-36 -8zM234 -14
q-118 0 -147.5 64t7.5 239l108 511h30l-109 -513q-33 -155 -9 -214t121 -59q98 0 149 60t84 215l108 511h30l-109 -513q-37 -174 -92.5 -237.5t-170.5 -63.5z" />
    <glyph glyph-name="uni01D8" unicode="&#x1d8;" 
d="M405 908l-17 21l141 106l17 -21zM272 742q-28 0 -35.5 9.5t-1.5 36.5q5 23 14 30.5t36 7.5q28 0 36.5 -9t1.5 -34q-4 -25 -14 -33t-37 -8zM488 742q-28 0 -35.5 9.5t-1.5 36.5q5 23 14 30.5t36 7.5q28 0 36.5 -9t1.5 -34q-4 -25 -14 -33t-37 -8zM82 592l-17 20
q32 20 75 20q29 0 47 -14t17 -37q-2 -84 -85 -372q-28 -108 -8 -151.5t87 -43.5q52 0 108 57t92.5 129.5t49.5 132.5l61 285h31l-115 -543q-1 -5 -1.5 -12t-0.5 -9q-1 -18 11.5 -29t32.5 -11q11 0 25 5t19 10l17 -23q-32 -20 -75 -20q-28 0 -47 21.5t-13 64.5l27 130
q-46 -98 -102 -157t-117 -59q-187 0 -115 225q80 249 84 353q0 18 -12 29t-32 11q-24 0 -44 -12z" />
    <glyph glyph-name="uni01D9" unicode="&#x1d9;" 
d="M436 941l-95 102l26 18l76 -81l109 83l21 -18zM306 830q-28 0 -36 9.5t-2 36.5q5 23 14.5 30.5t35.5 7.5q28 0 36.5 -9t2.5 -34q-5 -25 -15 -33t-36 -8zM522 830q-28 0 -36 9.5t-2 36.5q5 23 14.5 30.5t35.5 7.5q28 0 36.5 -9t2.5 -34q-5 -25 -15 -33t-36 -8zM234 -14
q-118 0 -147.5 64t7.5 239l108 511h30l-109 -513q-33 -155 -9 -214t121 -59q98 0 149 60t84 215l108 511h30l-109 -513q-37 -174 -92.5 -237.5t-170.5 -63.5z" />
    <glyph glyph-name="uni01DA" unicode="&#x1da;" 
d="M417 925l-95 102l26 18l76 -81l110 83l20 -18zM272 742q-28 0 -35.5 9.5t-1.5 36.5q5 23 14 30.5t36 7.5q28 0 36.5 -9t1.5 -34q-4 -25 -14 -33t-37 -8zM488 742q-28 0 -35.5 9.5t-1.5 36.5q5 23 14 30.5t36 7.5q28 0 36.5 -9t1.5 -34q-4 -25 -14 -33t-37 -8zM82 592
l-17 20q32 20 75 20q29 0 47 -14t17 -37q-2 -84 -85 -372q-28 -108 -8 -151.5t87 -43.5q52 0 108 57t92.5 129.5t49.5 132.5l61 285h31l-115 -543q-1 -5 -1.5 -12t-0.5 -9q-1 -18 11.5 -29t32.5 -11q11 0 25 5t19 10l17 -23q-32 -20 -75 -20q-28 0 -47 21.5t-13 64.5l27 130
q-46 -98 -102 -157t-117 -59q-187 0 -115 225q80 249 84 353q0 18 -12 29t-32 11q-24 0 -44 -12z" />
    <glyph glyph-name="uni01DB" unicode="&#x1db;" 
d="M443 933l-99 106l23 21l100 -106zM306 830q-28 0 -36 9.5t-2 36.5q5 23 14.5 30.5t35.5 7.5q28 0 36.5 -9t2.5 -34q-5 -25 -15 -33t-36 -8zM522 830q-28 0 -36 9.5t-2 36.5q5 23 14.5 30.5t35.5 7.5q28 0 36.5 -9t2.5 -34q-5 -25 -15 -33t-36 -8zM234 -14
q-118 0 -147.5 64t7.5 239l108 511h30l-109 -513q-33 -155 -9 -214t121 -59q98 0 149 60t84 215l108 511h30l-109 -513q-37 -174 -92.5 -237.5t-170.5 -63.5z" />
    <glyph glyph-name="uni01DC" unicode="&#x1dc;" 
d="M423 908l-99 106l23 21l99 -106zM272 742q-28 0 -35.5 9.5t-1.5 36.5q5 23 14 30.5t36 7.5q28 0 36.5 -9t1.5 -34q-4 -25 -14 -33t-37 -8zM488 742q-28 0 -35.5 9.5t-1.5 36.5q5 23 14 30.5t36 7.5q28 0 36.5 -9t1.5 -34q-4 -25 -14 -33t-37 -8zM82 592l-17 20
q32 20 75 20q29 0 47 -14t17 -37q-2 -84 -85 -372q-28 -108 -8 -151.5t87 -43.5q52 0 108 57t92.5 129.5t49.5 132.5l61 285h31l-115 -543q-1 -5 -1.5 -12t-0.5 -9q-1 -18 11.5 -29t32.5 -11q11 0 25 5t19 10l17 -23q-32 -20 -75 -20q-28 0 -47 21.5t-13 64.5l27 130
q-46 -98 -102 -157t-117 -59q-187 0 -115 225q80 249 84 353q0 18 -12 29t-32 11q-24 0 -44 -12z" />
    <glyph glyph-name="uni0218" unicode="&#x218;" 
d="M234 -14q-93 0 -135.5 21t-63.5 78l25 18q14 -50 53 -69.5t122 -19.5q105 0 155 43.5t74 155.5q16 75 -14 118t-124 76q-109 39 -143.5 84t-18.5 124q25 116 75 157.5t166 41.5q84 0 124 -18.5t60 -66.5l-22 -18q-16 42 -52.5 58.5t-110.5 16.5q-97 0 -143 -38.5
t-66 -137.5q-15 -66 13 -104.5t114 -66.5q116 -40 153 -90t17 -141q-26 -128 -81 -175t-177 -47zM136 -246l74 118q-29 1 -21 38q4 20 11 26t29 6q23 0 29 -7t2 -29q-9 -47 -100 -154z" />
    <glyph glyph-name="uni0219" unicode="&#x219;" 
d="M217 -14q-123 0 -190 100l26 10q25 -38 65.5 -60t84.5 -22q93 0 146 81.5t53 194.5q1 42 -11 87t-32 70q-33 -53 -97 -92t-134 -50l-9 28q66 9 126 47t93 92q-58 55 -60 101q1 27 16.5 43t43.5 16q33 0 51.5 -18t18.5 -48q-2 -51 -35 -95q27 -32 43.5 -87t17.5 -104
q0 -75 -27.5 -142t-75.5 -113q42 11 90 35t68 46l21 -19q-45 -45 -124.5 -73t-168.5 -28zM353 503q19 34 17 60q-1 18 -8 27.5t-20 8.5q-26 0 -26 -29q0 -28 37 -67zM118 -246l74 118q-29 1 -21 38q4 20 11 26t29 6q23 0 29 -7t2 -29q-9 -47 -100 -154z" />
    <glyph glyph-name="uni021A" unicode="&#x21a;" 
d="M662 800l-5 -28h-244l-164 -772h-30l164 772h-242l5 28h516zM229 -58q23 0 29 -7t2 -29q-9 -47 -100 -154l-24 2l74 118q-29 1 -21 38q4 20 11 26t29 6z" />
    <glyph glyph-name="uni021B" unicode="&#x21b;" 
d="M301 -14q-94 0 -120 48.5t-1 162.5l85 393h-124l6 28h124l38 182h30l-38 -182h208l-6 -28h-208l-84 -397q-22 -92 -3 -135.5t90 -43.5q101 0 137 57l29 -12q-28 -43 -62.5 -58t-100.5 -15zM186 -246l74 118q-29 1 -21 38q4 20 11 26t29 6q23 0 29 -7t2 -29
q-9 -47 -100 -154z" />
    <glyph glyph-name="uni0237" unicode="&#x237;" 
d="M55 -206q-44 0 -71.5 17.5t-28.5 45.5q0 50 96.5 77t266.5 26q17 17 122 536q10 29 0.5 54t-46.5 36l9 26q86 -25 71 -105q-89 -447 -111 -516q-7 -21 -12 -29q65 0 84 3l-1 -23q-35 -9 -95 -6q-35 -64 -113 -103t-171 -39zM63 -178q71 0 140 31.5t108 82.5
q-152 -3 -238.5 -25t-85.5 -58q0 -31 76 -31z" />
    <glyph glyph-name="circumflex" unicode="&#x2c6;" 
d="M474 697l-73 84l-109 -82l-20 18l136 102l93 -104z" />
    <glyph glyph-name="caron" unicode="&#x2c7;" 
d="M389 724l-95 102l26 18l76 -81l109 83l21 -18z" />
    <glyph glyph-name="breve" unicode="&#x2d8;" 
d="M387 714q-64 0 -84.5 21t-11.5 77l29 -2q-7 -37 9 -52.5t60 -15.5q46 0 70.5 16.5t32.5 53.5l29 -2q-13 -56 -41 -76t-93 -20z" />
    <glyph glyph-name="dotaccent" unicode="&#x2d9;" 
d="M396 748q-35 0 -45 11.5t-3 44.5q8 32 20 42t45 10q35 0 45 -12t3 -45q-6 -31 -19 -41t-46 -10z" />
    <glyph glyph-name="ring" unicode="&#x2da;" 
d="M381 688q-67 0 -86.5 23t-6.5 85q13 61 41 82.5t93 21.5q66 0 87.5 -23.5t8.5 -84.5t-41.5 -82.5t-95.5 -21.5zM383 716q49 0 72.5 18t32.5 62q9 42 -6 59t-62 17q-46 0 -69.5 -18t-32.5 -62q-10 -42 5 -59t60 -17z" />
    <glyph glyph-name="ogonek" unicode="&#x2db;" 
d="M221 -178q-44 0 -66.5 21t-15.5 55q8 33 32 51.5t55 15.5l10 40h30l-14 -67q-28 -1 -42 -3.5t-26 -12.5t-16 -29t10.5 -31t42.5 -12q31 0 65 14l11 -22q-37 -20 -76 -20z" />
    <glyph glyph-name="tilde" unicode="&#x2dc;" 
d="M455 706q-19 0 -35.5 12t-27 26.5t-25 26.5t-30.5 12q-26 0 -36.5 -12t-20.5 -40l-29 2q11 36 33.5 57t52.5 21q18 0 34 -12t26.5 -26.5t26 -26.5t31.5 -12q25 0 36 11.5t19 37.5l29 -2q-11 -35 -33.5 -55t-50.5 -20z" />
    <glyph glyph-name="hungarumlaut" unicode="&#x2dd;" 
d="M262 700l-16 21l141 106l16 -21zM406 700l-16 21l141 106l16 -21z" />
    <glyph glyph-name="gravecomb" unicode="&#x300;" horiz-adv-x="0" 
d="M-208 693l-99 106l23 21l99 -106z" />
    <glyph glyph-name="acutecomb" unicode="&#x301;" horiz-adv-x="0" 
d="M-226 693l-17 21l141 106l17 -21z" />
    <glyph glyph-name="uni0302" unicode="&#x302;" horiz-adv-x="0" 
d="M-126 697l-73 84l-109 -82l-20 18l136 102l93 -104z" />
    <glyph glyph-name="tildecomb" unicode="&#x303;" horiz-adv-x="0" 
d="M-145 706q-19 0 -35.5 12t-27 26.5t-25 26.5t-30.5 12q-26 0 -36.5 -12t-20.5 -40l-29 2q11 36 33.5 57t52.5 21q18 0 34 -12t26.5 -26.5t26 -26.5t31.5 -12q25 0 36 11.5t19 37.5l29 -2q-11 -35 -33.5 -55t-50.5 -20z" />
    <glyph glyph-name="uni0304" unicode="&#x304;" horiz-adv-x="0" 
d="M-337 733l6 28h254l-6 -28h-254z" />
    <glyph glyph-name="uni0306" unicode="&#x306;" horiz-adv-x="0" 
d="M-217 694q-65 0 -85.5 21t-10.5 77l29 -2q-7 -37 9 -52.5t60 -15.5q46 0 70.5 16.5t32.5 53.5l29 -2q-14 -56 -42 -76t-92 -20z" />
    <glyph glyph-name="uni0307" unicode="&#x307;" horiz-adv-x="0" 
d="M-204 748q-35 0 -45 11.5t-3 44.5q8 32 20 42t45 10q35 0 45 -12t3 -45q-6 -31 -19 -41t-46 -10z" />
    <glyph glyph-name="uni0308" unicode="&#x308;" horiz-adv-x="0" 
d="M-314 742q-28 0 -35.5 9.5t-1.5 36.5q5 23 14 30.5t36 7.5q28 0 36.5 -9t1.5 -34q-4 -25 -14 -33t-37 -8zM-98 742q-28 0 -35.5 9.5t-1.5 36.5q5 23 14 30.5t36 7.5q28 0 36.5 -9t1.5 -34q-4 -25 -14 -33t-37 -8z" />
    <glyph glyph-name="hookabovecomb" unicode="&#x309;" horiz-adv-x="0" 
d="M-234 654l-4 27q67 20 76 61q4 16 -7 26.5t-26 10.5q-46 0 -86 -30l5 36q39 22 81 22q32 0 50 -21t11 -52q-5 -25 -30.5 -46.5t-69.5 -33.5z" />
    <glyph glyph-name="uni030A" unicode="&#x30a;" horiz-adv-x="0" 
d="M-217 696q-68 0 -87.5 23t-6.5 85q13 61 41 82.5t94 21.5t87 -23.5t8 -84.5t-41 -82.5t-95 -21.5zM-215 724q48 0 71.5 18t32.5 62q10 42 -5 59t-62 17t-70.5 -18t-32.5 -62q-9 -42 5.5 -59t60.5 -17z" />
    <glyph glyph-name="uni030B" unicode="&#x30b;" horiz-adv-x="0" 
d="M-339 693l-17 21l141 106l17 -21zM-195 693l-17 21l141 106l17 -21z" />
    <glyph glyph-name="uni030C" unicode="&#x30c;" horiz-adv-x="0" 
d="M-214 710l-95 102l26 18l76 -81l110 83l20 -18z" />
    <glyph glyph-name="uni0312" unicode="&#x312;" horiz-adv-x="0" 
d="M-215 664q-23 0 -29.5 7t-2.5 29q11 50 101 154l23 -2l-73 -118q29 -1 21 -38q-4 -20 -11.5 -26t-28.5 -6z" />
    <glyph glyph-name="uni031B" unicode="&#x31b;" horiz-adv-x="0" 
d="M-185 665q-29 0 -53 22l5 26q0 -4 5.5 -8.5t18 -8.5t28.5 -4q28 0 52 24.5t32 62.5l25 119h30l-25 -122q-10 -51 -42.5 -81t-75.5 -30z" />
    <glyph glyph-name="dotbelowcomb" unicode="&#x323;" horiz-adv-x="0" 
d="M-410 -222q-35 0 -45 11.5t-3 44.5q7 32 19.5 42t45.5 10q35 0 45 -12t3 -45q-6 -31 -19 -41t-46 -10z" />
    <glyph glyph-name="uni0326" unicode="&#x326;" horiz-adv-x="0" 
d="M-479 -246l74 118q-29 1 -21 38q4 20 11 26t29 6q23 0 29 -7t2 -29q-9 -47 -100 -154z" />
    <glyph glyph-name="uni0327" unicode="&#x327;" horiz-adv-x="0" 
d="M-396 -178q-42 0 -71 20l13 22q31 -14 58 -14q30 0 52 13t26 35q4 18 -4 26.5t-19.5 10.5t-40.5 4l13 66h29l-8 -39q34 3 50.5 -17.5t8.5 -55.5q-7 -32 -36 -51.5t-71 -19.5z" />
    <glyph glyph-name="uni0328" unicode="&#x328;" horiz-adv-x="0" 
d="M-295 -178q-44 0 -66.5 21t-15.5 55q8 33 31.5 51.5t55.5 15.5l9 40h30l-13 -67q-28 -1 -42 -3.5t-26.5 -12.5t-16.5 -29t11 -31t43 -12q31 0 65 14l11 -22q-38 -20 -76 -20z" />
    <glyph glyph-name="uni0374" unicode="&#x374;" 
d="M328 510l51 290h49l-70 -290h-30z" />
    <glyph glyph-name="uni0375" unicode="&#x375;" 
d="M166 -202l72 290h31l-53 -290h-50z" />
    <glyph glyph-name="uni037E" unicode="&#x37e;" 
d="M345 510q-35 0 -44.5 12t-2.5 45q7 31 20 41t45 10q36 0 45.5 -11.5t1.5 -44.5q-6 -32 -18.5 -42t-46.5 -10zM106 -202l113 186q-24 1 -31.5 14.5t-0.5 43.5q6 32 18.5 42t46.5 10q35 0 44.5 -12t2.5 -45q-16 -73 -159 -241z" />
    <glyph glyph-name="tonos" unicode="&#x384;" 
d="M374 693l-17 21l141 106l17 -21z" />
    <glyph glyph-name="dieresistonos" unicode="&#x385;" 
d="M334 693l-17 21l141 106l17 -21zM251 713q-29 0 -37 9t-2 36q5 24 15 31.5t36 7.5q28 0 36 -9t3 -35q-5 -25 -15 -32.5t-36 -7.5zM527 713q-29 0 -37 9t-2 36q5 24 15 31.5t36 7.5q28 0 36 -9t3 -35q-5 -25 -15 -32.5t-36 -7.5z" />
    <glyph glyph-name="Alphatonos" unicode="&#x386;" 
d="M443 0l-14 225h-293l-109 -225h-32l391 800h36l52 -800h-31zM329 779l-141 -106l-17 21l141 106zM150 253h278l-31 510z" />
    <glyph glyph-name="anoteleia" unicode="&#x387;" 
d="M310 346q-34 0 -44 11.5t-3 44.5q7 31 20 41.5t46 10.5q35 0 44.5 -11.5t2.5 -44.5q-7 -32 -19.5 -42t-46.5 -10z" />
    <glyph glyph-name="Epsilontonos" unicode="&#x388;" 
d="M149 800l17 -21l-141 -106l-17 21zM615 772h-376l-70 -335h240l-6 -28h-240l-81 -381h374l-6 -28h-404l170 800h404z" />
    <glyph glyph-name="Etatonos" unicode="&#x389;" 
d="M128 800l17 -21l-141 -106l-17 21zM580 800h30l-170 -800h-30l87 409h-352l-87 -409h-30l170 800h30l-77 -363h352z" />
    <glyph glyph-name="Iotatonos" unicode="&#x38a;" 
d="M153 800l17 -21l-141 -106l-17 21zM576 772h-163l-158 -744h162l-6 -28h-354l6 28h162l158 744h-161l5 28h354z" />
    <glyph glyph-name="Omicrontonos" unicode="&#x38c;" 
d="M234 -14q-88 0 -128 33t-45.5 116.5t27.5 225.5l17 80q46 216 109.5 294.5t190.5 78.5q129 0 160 -79t-15 -296l-17 -80q-46 -216 -109 -294.5t-190 -78.5zM27 673l-17 21l141 106l17 -21zM235 14q110 0 168.5 75.5t100.5 271.5l17 80q42 197 17 271t-134 74
q-111 0 -170.5 -75.5t-99.5 -271.5l-17 -80q-41 -197 -15.5 -271t133.5 -74z" />
    <glyph glyph-name="Upsilontonos" unicode="&#x38e;" 
d="M-73 673l-17 21l141 106l17 -21zM219 0l68 314l-125 486h33l114 -449l305 449h33l-330 -486l-68 -314h-30z" />
    <glyph glyph-name="Omegatonos" unicode="&#x38f;" 
d="M-33 0l6 28h113q-34 41 -35 110t32 223l17 80q46 216 110 294.5t193 78.5q90 0 131 -33t47 -116.5t-28 -225.5l-17 -80q-33 -156 -61.5 -224t-77.5 -108l110 1l-6 -28h-200l5 27q71 -1 116.5 75t84.5 259l17 80q30 130 26.5 206.5t-38 107.5t-110.5 31q-113 0 -172 -75.5
t-101 -271.5l-17 -80q-39 -183 -26 -258t86 -74l-5 -27h-200zM27 673l-17 21l141 106l17 -21z" />
    <glyph glyph-name="iotadieresistonos" unicode="&#x390;" 
d="M268 693l-17 21l141 106l17 -21zM185 713q-29 0 -37 9t-2 36q5 24 15 31.5t36 7.5q28 0 36 -9t3 -35q-5 -25 -15 -32.5t-36 -7.5zM461 713q-29 0 -37 9t-2 36q5 24 15 31.5t36 7.5q28 0 36 -9t3 -35q-5 -25 -15 -32.5t-36 -7.5zM297 -14q-83 0 -103.5 49t7.5 176l86 407
h30l-87 -409q-24 -113 -10 -154t77 -41q44 0 90 33l15 -29q-69 -32 -105 -32z" />
    <glyph glyph-name="Alpha" unicode="&#x391;" 
d="M443 0l-14 225h-293l-109 -225h-32l391 800h36l52 -800h-31zM150 253h278l-31 510z" />
    <glyph glyph-name="Beta" unicode="&#x392;" 
d="M38 0l170 800h179q118 0 153.5 -41.5t10.5 -154.5q-17 -81 -49 -119t-104 -58q77 -19 97.5 -64t-1.5 -146q-27 -126 -79.5 -171.5t-170.5 -45.5h-206zM161 437h149q97 0 144.5 38.5t67.5 133.5q20 93 -10 128t-128 35h-151zM74 28h174q99 0 147 42.5t71 151.5
q22 104 -7.5 145.5t-127.5 41.5h-176z" />
    <glyph glyph-name="Gamma" unicode="&#x393;" 
d="M621 800l-5 -28h-376l-163 -772h-30l170 800h404z" />
    <glyph glyph-name="uni0394" unicode="&#x394;" 
d="M-1 0l384 800h43l44 -800h-471zM43 28h396l-42 735z" />
    <glyph glyph-name="Epsilon" unicode="&#x395;" 
d="M615 772h-376l-70 -335h240l-6 -28h-240l-81 -381h374l-6 -28h-404l170 800h404z" />
    <glyph glyph-name="Zeta" unicode="&#x396;" 
d="M449 -63q-43 0 -131.5 37.5t-148.5 37.5q-7 0 -59 -5.5t-107 -6.5l5 29l589 743h-427l5 28h460l-5 -30l-590 -746q28 0 68.5 8t67.5 8q62 0 148 -37.5t131 -37.5q51 0 119.5 30.5t103.5 32.5l-3 -28q-20 -2 -94 -32.5t-132 -30.5z" />
    <glyph glyph-name="Eta" unicode="&#x397;" 
d="M580 800h30l-170 -800h-30l87 409h-352l-87 -409h-30l170 800h30l-77 -363h352z" />
    <glyph glyph-name="Theta" unicode="&#x398;" 
d="M314 918l6 28h223l-5 -28h-224zM234 -14q-88 0 -128 33t-45.5 116.5t27.5 225.5l17 80q46 216 109.5 294.5t190.5 78.5q129 0 160 -79t-15 -296l-17 -80q-46 -216 -109 -294.5t-190 -78.5zM235 14q110 0 168.5 75.5t100.5 271.5l17 80q42 197 17 271t-134 74
q-111 0 -170.5 -75.5t-99.5 -271.5l-17 -80q-41 -197 -15.5 -271t133.5 -74z" />
    <glyph glyph-name="Iota" unicode="&#x399;" 
d="M576 772h-163l-158 -744h162l-6 -28h-354l6 28h162l158 744h-161l5 28h354z" />
    <glyph glyph-name="Kappa" unicode="&#x39a;" 
d="M639 800l-382 -377l219 -423h-37l-208 409h-80l-87 -409h-30l170 800h30l-77 -363h75l369 363h38z" />
    <glyph glyph-name="Lambda" unicode="&#x39b;" 
d="M-1 0l383 800h44l44 -800h-29l-44 765l-368 -765h-30z" />
    <glyph glyph-name="Mu" unicode="&#x39c;" 
d="M4 0l184 800h34l76 -494l289 494h33l-156 -800h-30l142 727l-265 -456h-36l-73 456l-168 -727h-30z" />
    <glyph glyph-name="Nu" unicode="&#x39d;" 
d="M578 800h30l-170 -800h-32l-189 738l-157 -738h-30l170 800h33l189 -736z" />
    <glyph glyph-name="Xi" unicode="&#x39e;" 
d="M159 772l5 28h480l-5 -28h-480zM146 386l6 28h340l-6 -28h-340zM-6 0l6 28h480l-6 -28h-480z" />
    <glyph glyph-name="Omicron" unicode="&#x39f;" 
d="M234 -14q-88 0 -128 33t-45.5 116.5t27.5 225.5l17 80q46 216 109.5 294.5t190.5 78.5q129 0 160 -79t-15 -296l-17 -80q-46 -216 -109 -294.5t-190 -78.5zM235 14q110 0 168.5 75.5t100.5 271.5l17 80q42 197 17 271t-134 74q-111 0 -170.5 -75.5t-99.5 -271.5l-17 -80
q-41 -197 -15.5 -271t133.5 -74z" />
    <glyph glyph-name="Pi" unicode="&#x3a0;" 
d="M10 0l170 800h448l-170 -800h-30l165 772h-388l-165 -772h-30z" />
    <glyph glyph-name="Rho" unicode="&#x3a1;" 
d="M423 800q118 0 152 -46.5t7 -173.5q-26 -123 -78.5 -169.5t-169.5 -46.5h-177l-77 -364h-30l170 800h203zM554 585q22 107 -6.5 147t-127.5 40h-176l-81 -380h173q98 0 146.5 43t71.5 150z" />
    <glyph glyph-name="Sigma" unicode="&#x3a3;" 
d="M4 0l7 34l320 366l-164 366l7 34h470l-5 -28h-443l167 -372l-324 -372h441l-6 -28h-470z" />
    <glyph glyph-name="Tau" unicode="&#x3a4;" 
d="M662 800l-5 -28h-244l-164 -772h-30l164 772h-242l5 28h516z" />
    <glyph glyph-name="Upsilon" unicode="&#x3a5;" 
d="M219 0l68 314l-125 486h33l114 -449l305 449h33l-330 -486l-68 -314h-30z" />
    <glyph glyph-name="Phi" unicode="&#x3a6;" 
d="M395 688q154 -3 199.5 -66t12.5 -223q-34 -160 -106.5 -222t-227.5 -64l-24 -113h-30l24 113q-154 3 -199 66t-12 224q35 160 106.5 221.5t226.5 63.5l24 112h30zM577 403q31 144 -9.5 200t-178.5 57l-110 -519q137 3 202 60t96 202zM62 399q-31 -144 9 -200t178 -58
l110 519q-138 -3 -202 -60t-95 -201z" />
    <glyph glyph-name="Chi" unicode="&#x3a7;" 
d="M627 800l-291 -400l122 -400h-33l-112 369l-269 -369h-32l291 400l-122 400h33l112 -369l269 369h32z" />
    <glyph glyph-name="Psi" unicode="&#x3a8;" 
d="M638 800h30l-60 -289q-31 -147 -97.5 -204t-208.5 -59l-53 -248h-30l53 248q-140 3 -182 61t-11 205l61 286h30l-60 -289q-29 -131 7 -182t161 -53l111 524h30l-111 -524q124 3 182.5 55t86.5 183z" />
    <glyph glyph-name="uni03A9" unicode="&#x3a9;" 
d="M-33 0l6 28h113q-34 41 -35 110t32 223l17 80q46 216 110 294.5t193 78.5q90 0 131 -33t47 -116.5t-28 -225.5l-17 -80q-33 -156 -61.5 -224t-77.5 -108l110 1l-6 -28h-200l5 27q71 -1 116.5 75t84.5 259l17 80q30 130 26.5 206.5t-38 107.5t-110.5 31q-113 0 -172 -75.5
t-101 -271.5l-17 -80q-39 -183 -26 -258t86 -74l-5 -27h-200z" />
    <glyph glyph-name="Iotadieresis" unicode="&#x3aa;" 
d="M325 927q-28 0 -35.5 9.5t-1.5 36.5q5 23 14 30.5t36 7.5q28 0 36.5 -9t1.5 -34q-4 -25 -14 -33t-37 -8zM554 1011q28 0 36.5 -9t1.5 -34q-4 -25 -14 -33t-37 -8q-28 0 -35.5 9.5t-1.5 36.5q5 23 14 30.5t36 7.5zM581 800l-5 -28h-163l-158 -744h162l-6 -28h-354l6 28
h162l158 744h-161l5 28h354z" />
    <glyph glyph-name="Upsilondieresis" unicode="&#x3ab;" 
d="M325 927q-28 0 -35.5 9.5t-1.5 36.5q5 23 14 30.5t36 7.5q28 0 36.5 -9t1.5 -34q-4 -25 -14 -33t-37 -8zM541 927q-28 0 -35.5 9.5t-1.5 36.5q5 23 14 30.5t36 7.5q28 0 36.5 -9t1.5 -34q-4 -25 -14 -33t-37 -8zM219 0l68 314l-125 486h33l114 -449l305 449h33l-330 -486
l-68 -314h-30z" />
    <glyph glyph-name="alphatonos" unicode="&#x3ac;" 
d="M474 799l-141 -106l-17 21l141 106zM499 87l25 -18q-39 -48 -64 -65.5t-53 -17.5q-53 0 -67 22t-1 82l1 7q-66 -111 -169 -111q-106 0 -130 69t17 256q39 186 90.5 253.5t153.5 67.5q108 0 128 -115l21 101h30l-112 -530q-10 -40 -1.5 -57t39.5 -17q20 0 39.5 16t52.5 57
zM171 14q85 0 130.5 60t80.5 217l8 39q32 157 13 215.5t-101 58.5q-87 0 -133.5 -64t-81.5 -233q-36 -168 -18.5 -230.5t102.5 -62.5z" />
    <glyph glyph-name="epsilontonos" unicode="&#x3ad;" 
d="M333 693l-17 21l141 106l17 -21zM234 -14q-121 0 -159.5 34.5t-18.5 125.5q14 69 44.5 105t97.5 63q-54 26 -69.5 62t-2.5 102q20 88 71 121t168 33q121 0 161 -28t24 -100l-29 3q11 55 -22 76t-134 21q-103 0 -148 -28.5t-61 -102.5q-17 -78 10 -109t116 -37h62l-6 -28
h-60q-91 -6 -133 -40.5t-60 -117.5q-15 -73 17 -100t132 -27q103 0 147.5 23t57.5 82l29 -3q-16 -75 -66.5 -102.5t-167.5 -27.5z" />
    <glyph glyph-name="etatonos" unicode="&#x3ae;" 
d="M474 799l-141 -106l-17 21l141 106zM418 634q99 0 118.5 -49.5t-11.5 -173.5l-126 -593h-30l126 595q25 105 6.5 149t-97.5 44q-105 0 -151.5 -35.5t-70.5 -148.5l-90 -422h-30l112 526l2 1h-1q11 46 6 56.5t-43 10.5l3 24q20 0 30.5 -1t23 -6t16.5 -17t1 -32
q41 43 87 57.5t119 14.5z" />
    <glyph glyph-name="iotatonos" unicode="&#x3af;" 
d="M267 693l-17 21l141 106l17 -21zM297 -14q-83 0 -103.5 49t7.5 176l86 407h30l-87 -409q-24 -113 -10 -154t77 -41q44 0 90 33l15 -29q-69 -32 -105 -32z" />
    <glyph glyph-name="upsilondieresistonos" unicode="&#x3b0;" 
d="M324 693l-17 21l141 106l17 -21zM241 713q-29 0 -37 9t-2 36q5 24 15 31.5t36 7.5q28 0 36 -9t3 -35q-5 -25 -15 -32.5t-36 -7.5zM517 713q-29 0 -37 9t-2 36q5 24 15 31.5t36 7.5q28 0 36 -9t3 -35q-5 -25 -15 -32.5t-36 -7.5zM234 -14q-128 0 -159.5 71t10.5 268
l62 293h30l-63 -295q-37 -177 -11.5 -243t132.5 -66q109 0 164.5 67.5t93.5 244.5q42 204 -3 294l32 -4q24 -51 24.5 -113t-25.5 -181q-41 -195 -101.5 -265.5t-185.5 -70.5z" />
    <glyph glyph-name="alpha" unicode="&#x3b1;" 
d="M499 87l25 -18q-39 -48 -64 -65.5t-53 -17.5q-53 0 -67 22t-1 82l1 7q-66 -111 -169 -111q-106 0 -130 69t17 256q39 186 90.5 253.5t153.5 67.5q108 0 128 -115l21 101h30l-112 -530q-10 -40 -1.5 -57t39.5 -17q20 0 39.5 16t52.5 57zM171 14q85 0 130.5 60t80.5 217
l8 39q32 157 13 215.5t-101 58.5q-87 0 -133.5 -64t-81.5 -233q-36 -168 -18.5 -230.5t102.5 -62.5z" />
    <glyph glyph-name="beta" unicode="&#x3b2;" 
d="M535 620q-16 -73 -46 -108t-98 -61q98 -20 126 -65.5t6 -151.5q-29 -138 -83.5 -188.5t-173.5 -50.5q-86 0 -131.5 25.5t-58.5 77.5l-50 -236h-30l162 761q23 106 69.5 144t155.5 38q110 0 142 -39.5t10 -145.5zM332 467q80 6 118.5 40.5t55.5 116.5q19 86 -8 119.5
t-116 33.5t-132.5 -34.5t-62.5 -121.5l-81 -382q-26 -123 9 -169.5t152 -46.5q101 0 151.5 47t75.5 168q23 106 -13 150t-151 51h-82l5 28h79z" />
    <glyph glyph-name="gamma" unicode="&#x3b3;" 
d="M546 616q21 -65 4 -143q-23 -106 -84.5 -202t-222.5 -277l-36 -176h-30l38 182l-95 618h31l89 -582q142 159 200.5 252.5t79.5 189.5q10 45 8.5 76.5t-14.5 65.5z" />
    <glyph glyph-name="delta" unicode="&#x3b4;" 
d="M407 786q-50 0 -86 -17.5t-41 -45.5q-5 -24 13 -45.5t48.5 -38t65 -41.5t62.5 -54t41.5 -78t1.5 -110h-1q-5 -40 -15 -89q-35 -163 -90.5 -222t-171.5 -59q-120 0 -151 59.5t4 225.5q35 163 90.5 222t171.5 59q49 0 84 -9q-23 23 -62 48t-65.5 40.5t-44 40.5t-10.5 55
q8 39 50.5 63t106.5 24q74 0 143 -24l-14 -24q-66 20 -130 20zM235 14q100 0 150.5 56t81.5 201t5 199t-124 54q-100 0 -150.5 -56t-81.5 -201t-5 -199t124 -54z" />
    <glyph glyph-name="epsilon" unicode="&#x3b5;" 
d="M234 -14q-121 0 -159.5 34.5t-18.5 125.5q14 69 44.5 105t97.5 63q-54 26 -69.5 62t-2.5 102q20 88 71 121t168 33q121 0 161 -28t24 -100l-29 3q11 55 -22 76t-134 21q-103 0 -148 -28.5t-61 -102.5q-17 -78 10 -109t116 -37h62l-6 -28h-60q-91 -6 -133 -40.5
t-60 -117.5q-15 -73 17 -100t132 -27q103 0 147.5 23t57.5 82l29 -3q-16 -75 -66.5 -102.5t-167.5 -27.5z" />
    <glyph glyph-name="zeta" unicode="&#x3b6;" 
d="M608 801v-1l-5 -29q-174 -76 -310 -214t-163 -271q-12 -57 1 -101t43 -70t68.5 -46t78.5 -34.5t72.5 -30t49.5 -38t11 -52.5q-11 -50 -75 -97l-16 24q54 39 62 78q5 24 -13.5 42.5t-51 31t-72.5 29t-78.5 35.5t-68.5 50.5t-42 75t1 107.5q28 128 149.5 264t291.5 218
h-282l5 28h341h1z" />
    <glyph glyph-name="eta" unicode="&#x3b7;" 
d="M418 634q99 0 118.5 -49.5t-11.5 -173.5l-126 -593h-30l126 595q25 105 6.5 149t-97.5 44q-105 0 -151.5 -35.5t-70.5 -148.5l-90 -422h-30l112 526l2 1h-1q11 46 6 56.5t-43 10.5l3 24q20 0 30.5 -1t23 -6t16.5 -17t1 -32q41 43 87 57.5t119 14.5z" />
    <glyph glyph-name="theta" unicode="&#x3b8;" 
d="M405 814q95 0 136 -115.5t1 -300.5q-40 -184 -127.5 -298t-180.5 -114q-96 0 -136.5 115.5t-0.5 300.5q38 184 125.5 298t182.5 114zM515 414q33 171 1 271.5t-112 100.5q-81 0 -159 -102.5t-115 -269.5h385zM235 14q81 0 159 102.5t115 269.5h-385q-33 -171 -1 -271.5
t112 -100.5z" />
    <glyph glyph-name="iota" unicode="&#x3b9;" 
d="M297 -14q-83 0 -103.5 49t7.5 176l86 407h30l-87 -409q-24 -113 -10 -154t77 -41q44 0 90 33l15 -29q-69 -32 -105 -32z" />
    <glyph glyph-name="kappa" unicode="&#x3ba;" 
d="M70 0l132 618h30l-58 -273h66q36 17 67.5 52.5t54 72t46 70.5t55.5 56t71 22l-3 -28q-33 0 -61 -20.5t-49 -52.5t-41.5 -66.5t-50 -68t-63.5 -50.5l178 -332h-35l-169 317h-72l-68 -317h-30z" />
    <glyph glyph-name="lambda" unicode="&#x3bb;" 
d="M465 28h35l-6 -28h-39q-24 0 -43 9t-32 28.5t-23 41t-15.5 55t-9 63t-5 72t-2 73.5t-0.5 77.5t-1 74.5l-304 -494h-30l332 543q-3 71 -12.5 118t-33.5 79t-62 32h-35l5 28h39q49 0 77.5 -42.5t37.5 -110.5t11 -150.5t3.5 -165t9 -150.5t33 -110.5t70.5 -42.5z" />
    <glyph glyph-name="uni03BC" unicode="&#x3bc;" 
d="M-9 -182l170 800h30l-97 -454q-13 -84 13.5 -117t102.5 -33q66 0 140.5 44t91.5 125l93 435h30l-132 -618h-30l22 100q-30 -58 -90 -86t-126 -28q-108 0 -142 47l-46 -215h-30z" />
    <glyph glyph-name="nu" unicode="&#x3bd;" 
d="M546 616q21 -65 4 -143q-23 -104 -84 -199t-220 -276l-5 2h-26l-95 618h31l89 -582q142 159 200.5 252.5t79.5 189.5q10 45 8.5 76.5t-14.5 65.5z" />
    <glyph glyph-name="xi" unicode="&#x3be;" 
d="M604 771q-188 -36 -264 -73.5t-89 -99.5q-13 -59 49.5 -81t242.5 -22v-3l-4 -26q-221 -45 -311.5 -92.5t-107.5 -126.5q-7 -33 10.5 -57t50 -39.5t73 -29t80 -30t70.5 -38t45.5 -57t4.5 -82.5q-6 -28 -22.5 -49t-52.5 -48l-16 24q53 38 62 78q9 42 -7 73t-47.5 49.5
t-71.5 34t-80 30t-71.5 32t-47.5 46.5t-8 67q17 82 92.5 130.5t248.5 87.5q-132 7 -179 37.5t-33 96.5q13 61 71.5 99t191.5 70h-225l5 28h344l-3 -18z" />
    <glyph glyph-name="omicron" unicode="&#x3bf;" 
d="M236 -14q-121 0 -151.5 69.5t9.5 257.5q31 146 105 232.5t165 86.5q120 0 150.5 -69.5t-8.5 -257.5q-30 -145 -104.5 -232t-165.5 -87zM233 14q81 0 146 80.5t95 218.5q37 167 14 229t-121 62q-82 0 -147.5 -81t-93.5 -218q-35 -167 -12.5 -229t119.5 -62z" />
    <glyph glyph-name="pi" unicode="&#x3c0;" 
d="M605 618l-6 -28h-103l-99 -464q-11 -54 7 -76t74 -22l-4 -28q-70 2 -95.5 32.5t-10.5 95.5l98 462h-226l-125 -590h-30l125 590h-99l6 28h488z" />
    <glyph glyph-name="rho" unicode="&#x3c1;" 
d="M366 632q119 0 148.5 -68.5t-10.5 -256.5q-39 -186 -96.5 -253.5t-173.5 -67.5q-129 0 -151 124l-62 -292h-30l104 491h1v2q39 186 96.5 253.5t173.5 67.5zM476 311q35 168 11 230.5t-122 62.5q-100 0 -152.5 -64t-88.5 -231h1l-9 -42q-26 -143 0 -198t119 -55
q100 0 152.5 64.5t88.5 232.5z" />
    <glyph glyph-name="uni03C2" unicode="&#x3c2;" 
d="M287 -184l-21 20q35 38 49.5 59.5t19.5 44.5q10 47 -3 81.5t-40.5 53t-63 37t-70.5 34t-62 44t-38 66.5t1 101q34 157 105 216t227 59q135 0 176.5 -46.5t15.5 -167.5l-30 2q22 106 -12.5 145t-150.5 39q-140 0 -205.5 -54t-96.5 -198q-10 -47 -2 -82.5t29.5 -56.5
t50 -39.5t60 -31t60.5 -30.5t50 -39t29.5 -56.5t-1.5 -81.5q-11 -50 -77 -119z" />
    <glyph glyph-name="sigma" unicode="&#x3c3;" 
d="M639 632l-6 -28h-137q33 -28 35 -96t-27 -201q-39 -186 -96.5 -253.5t-173.5 -67.5q-119 0 -148.5 68.5t10.5 256.5q39 186 96.5 253.5t173.5 67.5h3h270zM476 311q35 168 11 230.5t-122 62.5q-100 0 -152.5 -64.5t-88.5 -232.5q-35 -168 -11 -230.5t122 -62.5
q100 0 152.5 64.5t88.5 232.5z" />
    <glyph glyph-name="tau" unicode="&#x3c4;" 
d="M354 590l-80 -381q-24 -113 -10 -154t77 -41q44 0 90 33l15 -29q-69 -32 -105 -32q-83 0 -103.5 49t7.5 176l79 379h-202l6 28h450l-6 -28h-218z" />
    <glyph glyph-name="upsilon" unicode="&#x3c5;" 
d="M234 -14q-128 0 -159.5 71t10.5 268l62 293h30l-63 -295q-37 -177 -11.5 -243t132.5 -66q109 0 164.5 67.5t93.5 244.5q42 204 -3 294l32 -4q24 -51 24.5 -113t-25.5 -181q-41 -195 -101.5 -265.5t-185.5 -70.5z" />
    <glyph glyph-name="phi" unicode="&#x3c6;" 
d="M455 632q68 0 78.5 -69t-29.5 -256q-38 -179 -96 -248.5t-174 -72.5q-13 -56 -37 -169l-29 2l36 167q-101 4 -124 76t16 249q29 137 86 224t124 94l-3 -26q-53 -10 -103 -92t-76 -204q-34 -160 -15.5 -224.5t101.5 -68.5q78 351 130 484.5t115 133.5zM476 311
q18 88 26 141.5t6.5 89t-13 49t-35.5 13.5q-49 0 -97 -128t-123 -462q97 5 149.5 71.5t86.5 225.5z" />
    <glyph glyph-name="chi" unicode="&#x3c7;" 
d="M313 235q2 -203 16 -272q25 -116 97 -117h35l-5 -28h-39q-30 0 -52 14t-36 44t-22.5 60t-12.5 81.5t-5 87.5t-2 96l-294 -383h-33l326 425q-1 54 -2 88.5t-4.5 80t-11 73t-19 54t-30.5 39t-44 12.5h-35l6 28h39q27 0 48 -12.5t34.5 -37.5t22.5 -53.5t13.5 -71t6 -79.5
t2.5 -87l262 341h33z" />
    <glyph glyph-name="psi" unicode="&#x3c8;" 
d="M568 516q15 -36 15 -75.5t-16 -112.5q-30 -147 -95.5 -203.5t-207.5 -58.5l-53 -248h-30l53 248q-140 3 -182 61t-11 205l39 186h30l-39 -189q-29 -132 7.5 -182.5t161.5 -52.5l111 524h30l-111 -524q124 3 182 55t87 184q14 71 14.5 111t-13.5 76z" />
    <glyph glyph-name="omega" unicode="&#x3c9;" 
d="M566 616q19 -39 18.5 -120.5t-19.5 -173.5q-40 -192 -85 -264t-122 -72q-53 0 -76.5 28t-23.5 95q-28 -67 -62.5 -95t-85.5 -28q-80 0 -95 73t26 267q19 91 53 172t71 122l32 -4q-38 -44 -73.5 -124t-54.5 -170q-25 -120 -29 -185.5t12.5 -94t58.5 -28.5q62 0 100.5 65.5
t75.5 236.5l29 -2q-36 -172 -27 -236t70 -64q62 0 101 67.5t77 244.5q18 90 18 170t-19 124z" />
    <glyph glyph-name="iotadieresis" unicode="&#x3ca;" 
d="M220 742q-28 0 -35.5 9.5t-1.5 36.5q5 23 14 30.5t36 7.5q28 0 36.5 -9t1.5 -34q-4 -25 -14 -33t-37 -8zM436 742q-28 0 -35.5 9.5t-1.5 36.5q5 23 14 30.5t36 7.5q28 0 36.5 -9t1.5 -34q-4 -25 -14 -33t-37 -8zM297 -14q-83 0 -103.5 49t7.5 176l86 407h30l-87 -409
q-24 -113 -10 -154t77 -41q44 0 90 33l15 -29q-69 -32 -105 -32z" />
    <glyph glyph-name="upsilondieresis" unicode="&#x3cb;" 
d="M276 742q-28 0 -35.5 9.5t-1.5 36.5q5 23 14 30.5t36 7.5q28 0 36.5 -9t1.5 -34q-4 -25 -14 -33t-37 -8zM492 742q-28 0 -35.5 9.5t-1.5 36.5q5 23 14 30.5t36 7.5q28 0 36.5 -9t1.5 -34q-4 -25 -14 -33t-37 -8zM234 -14q-128 0 -159.5 71t10.5 268l62 293h30l-63 -295
q-37 -177 -11.5 -243t132.5 -66q109 0 164.5 67.5t93.5 244.5q42 204 -3 294l32 -4q24 -51 24.5 -113t-25.5 -181q-41 -195 -101.5 -265.5t-185.5 -70.5z" />
    <glyph glyph-name="omicrontonos" unicode="&#x3cc;" 
d="M333 693l-17 21l141 106l17 -21zM236 -14q-121 0 -151.5 69.5t9.5 257.5q31 146 105 232.5t165 86.5q120 0 150.5 -69.5t-8.5 -257.5q-30 -145 -104.5 -232t-165.5 -87zM233 14q81 0 146 80.5t95 218.5q37 167 14 229t-121 62q-82 0 -147.5 -81t-93.5 -218
q-35 -167 -12.5 -229t119.5 -62z" />
    <glyph glyph-name="upsilontonos" unicode="&#x3cd;" 
d="M323 693l-17 21l141 106l17 -21zM234 -14q-128 0 -159.5 71t10.5 268l62 293h30l-63 -295q-37 -177 -11.5 -243t132.5 -66q109 0 164.5 67.5t93.5 244.5q42 204 -3 294l32 -4q24 -51 24.5 -113t-25.5 -181q-41 -195 -101.5 -265.5t-185.5 -70.5z" />
    <glyph glyph-name="omegatonos" unicode="&#x3ce;" 
d="M474 799l-141 -106l-17 21l141 106zM566 616q19 -39 18.5 -120.5t-19.5 -173.5q-40 -192 -85 -264t-122 -72q-53 0 -76.5 28t-23.5 95q-28 -67 -62.5 -95t-85.5 -28q-80 0 -95 73t26 267q19 91 53 172t71 122l32 -4q-38 -44 -73.5 -124t-54.5 -170q-25 -120 -29 -185.5
t12.5 -94t58.5 -28.5q62 0 100.5 65.5t75.5 236.5l29 -2q-36 -172 -27 -236t70 -64q62 0 101 67.5t77 244.5q18 90 18 170t-19 124z" />
    <glyph glyph-name="uni03CF" unicode="&#x3cf;" 
d="M257 423l219 -423h1l-102 -111h-39l102 111h1l-208 409h-80l-87 -409h-30l170 800h30l-77 -363h75l369 363h38z" />
    <glyph glyph-name="uni03D7" unicode="&#x3d7;" 
d="M533 632q56 0 67.5 -31t-24.5 -83q-46 -67 -187 -165q-42 -142 -19.5 -232t109.5 -96l-17 -80q-13 -64 -45.5 -102.5t-73.5 -38.5q-51 0 -109 29l19 24q53 -25 91 -25q29 0 53.5 32t35.5 84l12 52q-71 -6 -99 82.5t5 245.5q-29 -20 -86 -58.5t-61 -41.5
q-30 -125 -63.5 -183.5t-87.5 -58.5q-58 0 -63.5 37t43.5 98q26 32 145 117l28 132q21 95 2.5 155t-70.5 67l3 26q65 -6 91.5 -74.5t2.5 -178.5q-18 -81 -23 -103q102 71 149 106q24 88 71 193q16 32 45 51.5t56 19.5zM547 528q22 33 18.5 54.5t-33.5 21.5q-18 0 -40 -16.5
t-33 -42.5q-33 -73 -57 -147q117 86 145 130zM54 14q41 0 67.5 48.5t48.5 140.5q-79 -57 -113 -99q-55 -66 -26 -85q8 -5 23 -5z" />
    <glyph glyph-name="uni0401" unicode="&#x401;" 
d="M339 927q-28 0 -35.5 9.5t-1.5 36.5q5 23 14 30.5t36 7.5q28 0 36.5 -9t1.5 -34q-4 -25 -14 -33t-37 -8zM555 927q-28 0 -35.5 9.5t-1.5 36.5q5 23 14 30.5t36 7.5q28 0 36.5 -9t1.5 -34q-4 -25 -14 -33t-37 -8zM615 772h-376l-70 -335h240l-6 -28h-240l-81 -381h374
l-6 -28h-404l170 800h404z" />
    <glyph glyph-name="uni0410" unicode="&#x410;" 
d="M443 0l-14 225h-293l-109 -225h-32l391 800h36l52 -800h-31zM150 253h278l-31 510z" />
    <glyph glyph-name="uni0411" unicode="&#x411;" 
d="M38 0l170 800h330l-5 -28h-300l-62 -290h174q116 0 149.5 -52.5t4.5 -190.5q-29 -136 -84 -187.5t-171 -51.5h-206zM74 28h174q99 0 148 47t75 169q25 120 -3 165t-127 45h-176z" />
    <glyph glyph-name="uni0412" unicode="&#x412;" 
d="M38 0l170 800h179q118 0 153.5 -41.5t10.5 -154.5q-17 -81 -49 -119t-104 -58q77 -19 97.5 -64t-1.5 -146q-27 -126 -79.5 -171.5t-170.5 -45.5h-206zM161 437h149q97 0 144.5 38.5t67.5 133.5q20 93 -10 128t-128 35h-151zM74 28h174q99 0 147 42.5t71 151.5
q22 104 -7.5 145.5t-127.5 41.5h-176z" />
    <glyph glyph-name="uni0413" unicode="&#x413;" 
d="M621 800l-5 -28h-376l-163 -772h-30l170 800h404z" />
    <glyph glyph-name="uni0414" unicode="&#x414;" 
d="M616 800l-164 -772h50l-24 -116h-30l18 88h-464l-18 -88h-30l24 116h30q78 51 152 238.5t168 534.5zM48 28h374l159 744l-234 -1q-173 -640 -299 -743z" />
    <glyph glyph-name="uni0415" unicode="&#x415;" 
d="M615 772h-376l-70 -335h240l-6 -28h-240l-81 -381h374l-6 -28h-404l170 800h404z" />
    <glyph glyph-name="uni0416" unicode="&#x416;" 
d="M389 800h30l-170 -800h-30l85 398l-337 -398h-33l338 400l-167 400h32l167 -400zM705 800l-338 -400l167 -400h-32l-167 400h-1l338 400h33z" />
    <glyph glyph-name="uni0417" unicode="&#x417;" 
d="M234 -14q-120 0 -157.5 39t-15.5 144l30 -2q-19 -86 13.5 -119.5t130.5 -33.5q101 0 149.5 41.5t71.5 150.5q23 107 -1.5 152t-112.5 51h-61l6 28h59q90 6 134 46t64 132q21 97 -9.5 134t-130.5 37q-99 0 -147 -30.5t-64 -105.5l-29 3q20 93 71.5 127t169.5 34
q121 0 157 -43t12 -161q-18 -81 -49 -121t-98 -67q55 -25 67.5 -72.5t-7.5 -148.5q-28 -125 -81 -170t-172 -45z" />
    <glyph glyph-name="uni0418" unicode="&#x418;" 
d="M609 800l-1 -2l-170 -798h-30l156 734l-501 -734h-33l170 800h30l-156 -736l502 736h33z" />
    <glyph glyph-name="uni0419" unicode="&#x419;" 
d="M421 876q-65 0 -85 21t-10 77l40 -2q-23 -37 -12 -52.5t69 -15.5q61 0 80.5 16t12.5 54l40 -2q-15 -56 -43 -76t-92 -20zM609 800l-1 -2l-170 -798h-30l156 734l-501 -734h-33l170 800h30l-156 -736l502 736h33z" />
    <glyph glyph-name="uni041A" unicode="&#x41a;" 
d="M648 799q-50 -29 -90 -76t-66 -93.5t-51.5 -91.5t-61.5 -78.5t-82 -45.5l197 -414h-35l-195 409h-101l-87 -409h-30l170 800h30l-77 -363h80q53 3 90 28t62.5 65t48.5 84t62.5 96.5t90.5 90.5z" />
    <glyph glyph-name="uni041B" unicode="&#x41b;" 
d="M344 800h296l-170 -800h-30l165 772h-260q-130 -488 -190.5 -630t-164.5 -142l3 27q84 0 138.5 134.5t174.5 574.5q4 14 6 22t5.5 20.5t6.5 22.5z" />
    <glyph glyph-name="uni041C" unicode="&#x41c;" 
d="M4 0l184 800h34l76 -494l289 494h33l-156 -800h-30l142 727l-265 -456h-36l-73 456l-168 -727h-30z" />
    <glyph glyph-name="uni041D" unicode="&#x41d;" 
d="M580 800h30l-170 -800h-30l87 409h-352l-87 -409h-30l170 800h30l-77 -363h352z" />
    <glyph glyph-name="uni041E" unicode="&#x41e;" 
d="M234 -14q-88 0 -128 33t-45.5 116.5t27.5 225.5l17 80q46 216 109.5 294.5t190.5 78.5q129 0 160 -79t-15 -296l-17 -80q-46 -216 -109 -294.5t-190 -78.5zM235 14q110 0 168.5 75.5t100.5 271.5l17 80q42 197 17 271t-134 74q-111 0 -170.5 -75.5t-99.5 -271.5l-17 -80
q-41 -197 -15.5 -271t133.5 -74z" />
    <glyph glyph-name="uni041F" unicode="&#x41f;" 
d="M10 0l170 800h448l-170 -800h-30l165 772h-388l-165 -772h-30z" />
    <glyph glyph-name="uni0420" unicode="&#x420;" 
d="M423 800q118 0 152 -46.5t7 -173.5q-26 -123 -78.5 -169.5t-169.5 -46.5h-177l-77 -364h-30l170 800h203zM554 585q22 107 -6.5 147t-127.5 40h-176l-81 -380h173q98 0 146.5 43t71.5 150z" />
    <glyph glyph-name="uni0421" unicode="&#x421;" 
d="M249 -14q-91 0 -132 37t-45.5 129.5t32.5 250.5q51 238 117.5 324.5t198.5 86.5q86 0 122 -31.5t47 -116.5l-31 -9q-9 73 -39 101t-100 28q-115 0 -177.5 -84t-108.5 -303q-46 -220 -21.5 -302.5t138.5 -82.5q70 0 113.5 28.5t83.5 99.5l29 -12q-46 -83 -94 -113.5
t-133 -30.5z" />
    <glyph glyph-name="uni0422" unicode="&#x422;" 
d="M662 800l-5 -28h-244l-164 -772h-30l164 772h-242l5 28h516z" />
    <glyph glyph-name="uni0423" unicode="&#x423;" 
d="M633 800h31l-313 -629q-53 -106 -108 -145.5t-137 -39.5q-44 0 -75 20l15 24q27 -16 61 -16q50 0 84 13t64 46l-90 727h32l83 -695q23 35 50 87z" />
    <glyph glyph-name="uni0424" unicode="&#x424;" 
d="M395 688q154 -3 199.5 -66t12.5 -223q-34 -160 -106.5 -222t-227.5 -64l-24 -113h-30l24 113q-154 3 -199 66t-12 224q35 160 106.5 221.5t226.5 63.5l24 112h30zM577 403q31 144 -9.5 200t-178.5 57l-110 -519q137 3 202 60t96 202zM62 399q-31 -144 9 -200t178 -58
l110 519q-138 -3 -202 -60t-95 -201z" />
    <glyph glyph-name="uni0425" unicode="&#x425;" 
d="M627 800l-291 -400l122 -400h-33l-112 369l-269 -369h-32l291 400l-122 400h33l112 -369l269 369h32z" />
    <glyph glyph-name="uni0426" unicode="&#x426;" 
d="M598 800l-164 -772h50l-29 -136h-30l23 108h-438l170 800h30l-164 -772h358l164 772h30z" />
    <glyph glyph-name="uni0427" unicode="&#x427;" 
d="M149 774l-17 20q32 20 75 20q29 0 46.5 -14t17.5 -37q-1 -43 -24.5 -149.5t-59.5 -222.5q-61 -195 78 -195q56 0 116.5 56t100 126.5t51.5 128.5l63 293h31l-170 -800h-30l82 387q-45 -98 -108 -158.5t-133 -60.5q-190 0 -115 224q38 114 61 212.5t23 141.5q0 18 -12 29
t-32 11q-25 0 -44 -12z" />
    <glyph glyph-name="uni0428" unicode="&#x428;" 
d="M-15 0l170 800h30l-164 -772h204l164 772h30l-164 -772h204l164 772h30l-170 -800h-498z" />
    <glyph glyph-name="uni0429" unicode="&#x429;" 
d="M632 800l-164 -772h30l-29 -136h-30l23 108h-486l170 800h30l-164 -772h198l164 772h30l-164 -772h198l164 772h30z" />
    <glyph glyph-name="uni042A" unicode="&#x42a;" 
d="M362 436q118 0 152 -48t8 -173q-27 -125 -80 -170t-171 -45h-205l164 772h-100l5 28h131l-5 -28h-1l-71 -336h173zM493 220q22 105 -7.5 146.5t-127.5 41.5h-175l-80 -380h172q99 0 146.5 42t71.5 150z" />
    <glyph glyph-name="uni042B" unicode="&#x42b;" 
d="M264 436q103 0 136 -48.5t7 -172.5q-26 -121 -78.5 -168t-155.5 -47h-170l170 800h30l-77 -364h138zM605 800h30l-170 -800h-30zM379 220q22 106 -5.5 147t-113.5 41h-140l-81 -380h138q86 0 132 42t70 150z" />
    <glyph glyph-name="uni042C" unicode="&#x42c;" 
d="M346 436q117 0 151 -48.5t8 -172.5q-27 -124 -79.5 -169.5t-170.5 -45.5h-205l170 800h30l-77 -364h173zM477 220q22 105 -7.5 146.5t-127.5 41.5h-175l-81 -380h173q99 0 146.5 42t71.5 150z" />
    <glyph glyph-name="uni042D" unicode="&#x42d;" 
d="M405 814q129 0 160 -79t-15 -296l-17 -80q-46 -216 -109 -294.5t-190 -78.5q-77 0 -117.5 24.5t-52.5 83.5l36 -3q13 -42 45.5 -59.5t89.5 -17.5q110 0 168.5 75.5t100.5 271.5l5 25h-245l6 28h245l6 27q42 197 17 271t-134 74q-116 0 -175 -80l-36 3q38 58 87.5 81.5
t124.5 23.5z" />
    <glyph glyph-name="uni042E" unicode="&#x42e;" 
d="M492 814q73 0 105.5 -34t34 -117.5t-30.5 -223.5l-17 -80q-45 -213 -101.5 -293t-161.5 -80q-74 0 -106.5 34t-34 117.5t30.5 223.5l5 25h-125l-82 -386h-30l170 800h30l-82 -386h125l6 27q46 214 102 293.5t162 79.5zM572 441q29 134 30.5 207.5t-24.5 105.5t-87 32
q-91 0 -141.5 -75t-92.5 -272l-17 -80q-42 -197 -24.5 -271t106.5 -74q91 0 141 75t92 272z" />
    <glyph glyph-name="uni042F" unicode="&#x42f;" 
d="M391 800h205l-170 -800h-30l78 364h-126l-307 -364h-35l306 364h-10q-118 0 -152.5 48.5t-7.5 172.5q25 124 77.5 169.5t171.5 45.5zM304 392h176l81 380h-173q-99 0 -147 -42t-71 -150q-22 -105 7 -146.5t127 -41.5z" />
    <glyph glyph-name="uni0430" unicode="&#x430;" 
d="M489 26l17 -20q-32 -20 -75 -20q-28 0 -45 14.5t-16 39.5q1 56 14 98q-28 -68 -79 -110t-105 -42q-72 0 -116 45.5t-46 120.5q0 96 50.5 209t127.5 192t147 79q64 0 101 -16.5t37 -63.5q-1 -14 -95 -467q-3 -21 -2.5 -36.5t10.5 -25t31 -9.5q25 0 44 12zM196 14
q64 0 122.5 65.5t91.5 176.5q59 262 59 295q1 30 -23 41.5t-79 11.5q-62 0 -132.5 -76t-116.5 -183.5t-46 -196.5q-1 -60 33 -97t91 -37z" />
    <glyph glyph-name="uni0431" unicode="&#x431;" 
d="M234 -14q-125 0 -160 53.5t-6 194.5l53 247q23 107 94 169t168 62q81 0 141 24.5t69 64.5l27 -2q-11 -51 -78 -83t-161 -32q-84 0 -147.5 -56t-83.5 -149l-20 -92q42 57 84.5 76.5t120.5 19.5q125 0 160 -54.5t4 -196.5q-29 -140 -86 -193t-179 -53zM235 14
q105 0 157.5 50t78.5 173q26 121 -4 169.5t-134 48.5q-105 0 -157.5 -50t-78.5 -174q-26 -122 4 -169.5t134 -47.5z" />
    <glyph glyph-name="uni0432" unicode="&#x432;" 
d="M263 -14q-119 0 -166 115q-44 108 -8 252q37 146 131 224q68 55 149 55q108 0 142 -33.5t15 -124.5q-12 -58 -45 -92t-103 -46q80 -10 103.5 -48.5t6.5 -123.5q-21 -104 -69 -141t-156 -37zM118 346h173q179 0 207 133q14 71 -17.5 98t-119.5 27q-43 0 -82 -20.5
t-65.5 -51t-48 -67.5t-32.5 -66.5t-15 -52.5zM263 14q89 0 134 34t63 121q17 79 -16 114t-132 35h-200q-9 -44 -9 -90t10.5 -97.5t48.5 -84t101 -32.5z" />
    <glyph glyph-name="uni0433" unicode="&#x433;" 
d="M219 -14q-86 0 -130 43.5t-29 113.5q10 50 54 89t101 64t113.5 48t99.5 53.5t51 67.5q13 63 -23.5 101t-110.5 38q-59 0 -106 -38t-65 -100l-28 7q20 72 74.5 115.5t124.5 43.5q91 0 136 -48t26 -125q-11 -46 -55 -81.5t-100.5 -58.5t-112.5 -45.5t-99 -57t-52 -79.5
q-11 -56 25 -89.5t106 -33.5t125.5 40.5t77.5 106.5l30 -5q-23 -77 -87 -123.5t-146 -46.5z" />
    <glyph glyph-name="uni0434" unicode="&#x434;" 
d="M234 773q54 41 184 41q95 0 138.5 -73t18.5 -192l-67 -314q-25 -112 -99.5 -180.5t-172.5 -68.5q-123 0 -156.5 51.5t-3.5 194.5q24 113 99 182t173 69q78 0 111.5 -19.5t51.5 -76.5l34 160q23 107 -15 173t-123 66q-113 0 -156 -36zM248 14q82 0 145 59.5t85 157.5
q26 124 -5 174t-136 50q-83 0 -146 -60t-84 -158q-27 -126 3.5 -174.5t137.5 -48.5z" />
    <glyph glyph-name="uni0435" unicode="&#x435;" 
d="M256 17q49 0 104.5 22t99.5 59l18 -25q-47 -40 -107.5 -63.5t-116.5 -23.5q-66 0 -111.5 48t-45.5 123q0 24 1 36q-45 -15 -55 -27l-18 27q19 14 75 31q14 178 98 293t203 115q125 0 125 -121q0 -55 -27 -101.5t-57 -74t-92.5 -56t-92 -38t-95.5 -28.5q-21 -6 -30 -9
q-2 -36 -2 -55q0 -58 36.5 -95t89.5 -37zM404 604q-104 0 -178.5 -103.5t-91.5 -265.5q159 46 227 85q133 76 133 196q0 44 -26.5 66t-63.5 22z" />
    <glyph glyph-name="uni0436" unicode="&#x436;" 
d="M640 618q-95 -79 -162 -155.5t-85 -153.5q-4 -18 -4 -35.5t3.5 -36.5t8 -35t14 -36t16 -33.5t19.5 -35t20.5 -32.5t22 -33.5t20.5 -31.5h-38q-31 49 -45.5 74t-35.5 68t-28.5 79.5t-4.5 72.5h-52l-61 -294h-29l61 294h-52q-39 -128 -235 -294h-33q98 85 161.5 159.5
t80.5 149.5q22 131 -116 309h35q127 -158 113 -296h52l61 296h30l-62 -296h52q38 131 236 296h37z" />
    <glyph glyph-name="uni0437" unicode="&#x437;" 
d="M234 -14q-121 0 -161 29t-23 104l30 -3q-13 -59 20 -80.5t135 -21.5t147.5 28.5t62.5 103.5q16 82 -10.5 114.5t-114.5 38.5h-62l6 28h59q91 6 133 39t58 112q16 72 -16 99t-133 27q-102 0 -146 -22t-57 -78l-30 3q16 71 66.5 98t167.5 27q120 0 158.5 -34.5t20.5 -124.5
q-15 -65 -45.5 -99.5t-97.5 -61.5q54 -26 70 -63.5t1 -107.5q-19 -88 -70.5 -121.5t-168.5 -33.5z" />
    <glyph glyph-name="uni0438" unicode="&#x438;" 
d="M82 592l-17 20q32 20 75 20q29 0 47 -14t17 -37q-2 -84 -85 -372q-28 -108 -8 -151.5t87 -43.5q52 0 108 57t92.5 129.5t49.5 132.5l61 285h31l-115 -543q-1 -5 -1.5 -12t-0.5 -9q-1 -18 11.5 -29t32.5 -11q11 0 25 5t19 10l17 -23q-32 -20 -75 -20q-28 0 -47 21.5
t-13 64.5l27 130q-46 -98 -102 -157t-117 -59q-187 0 -115 225q80 249 84 353q0 18 -12 29t-32 11q-24 0 -44 -12z" />
    <glyph glyph-name="uni0439" unicode="&#x439;" 
d="M383 694q-65 0 -85 21t-10 77l40 -2q-23 -37 -12 -52.5t69 -15.5q61 0 80.5 16t12.5 54l40 -2q-15 -56 -43 -76t-92 -20zM82 592l-17 20q32 20 75 20q29 0 47 -14t17 -37q-2 -84 -85 -372q-28 -108 -8 -151.5t87 -43.5q52 0 108 57t92.5 129.5t49.5 132.5l61 285h31
l-115 -543q-1 -5 -1.5 -12t-0.5 -9q-1 -18 11.5 -29t32.5 -11q11 0 25 5t19 10l17 -23q-32 -20 -75 -20q-28 0 -47 21.5t-13 64.5l27 130q-46 -98 -102 -157t-117 -59q-187 0 -115 225q80 249 84 353q0 18 -12 29t-32 11q-24 0 -44 -12z" />
    <glyph glyph-name="uni043A" unicode="&#x43a;" 
d="M608 617q-53 -32 -93.5 -72.5t-63 -73.5t-45.5 -64t-55.5 -53.5t-77.5 -31.5l219 -322h-34l-216 317h-1h-97l-68 -317h-30l132 618h30l-58 -273h71q56 3 91.5 18.5t58.5 43t42.5 57.5t58.5 73.5t92 81.5z" />
    <glyph glyph-name="uni043B" unicode="&#x43b;" 
d="M306 618h296l-132 -618h-30l126 590h-260q-25 -91 -41 -147.5t-34.5 -119.5t-30.5 -98t-27.5 -74t-25.5 -58t-25 -39.5t-27 -28t-30 -15t-34.5 -9t-40.5 -1.5l3 27q90 0 135.5 96t156.5 496z" />
    <glyph glyph-name="uni043C" unicode="&#x43c;" 
d="M4 0l146 618h33l97 -403l268 403h34l-118 -618h-30l104 545l-248 -364h-35l-91 364l-130 -545h-30z" />
    <glyph glyph-name="uni043D" unicode="&#x43d;" 
d="M542 618h30l-132 -618h-30l68 318h-352l-68 -318h-30l132 618h30l-58 -272h352z" />
    <glyph glyph-name="uni043E" unicode="&#x43e;" 
d="M236 -14q-121 0 -151.5 69.5t9.5 257.5q31 146 105 232.5t165 86.5q120 0 150.5 -69.5t-8.5 -257.5q-30 -145 -104.5 -232t-165.5 -87zM233 14q81 0 146 80.5t95 218.5q37 167 14 229t-121 62q-82 0 -147.5 -81t-93.5 -218q-35 -167 -12.5 -229t119.5 -62z" />
    <glyph glyph-name="uni043F" unicode="&#x43f;" 
d="M509 26l17 -20q-32 -20 -75 -20q-29 0 -47 14t-17 37q1 78 85 372q57 195 -69 195q-52 0 -110 -57t-97 -130t-52 -132l-61 -285h-32l115 543q2 8 2 21q1 18 -11.5 29t-32.5 11q-11 0 -25 -5t-18 -10l-18 23q32 20 75 20q28 0 47.5 -21.5t12.5 -64.5l-27 -130
q45 96 106 156t123 60q177 0 105 -225q-80 -249 -84 -353q0 -18 12 -29t32 -11q26 0 44 12z" />
    <glyph glyph-name="uni0440" unicode="&#x440;" 
d="M390 632q81 0 117.5 -29.5t40 -102t-25.5 -195.5q-32 -147 -101 -233t-159 -86q-70 0 -114.5 18t-39.5 55l-51 -241h-30l100 469q1 5 2.5 13.5t1.5 12.5q1 4 3 11.5t2 9.5l44 209q4 16 2 21q1 18 -11.5 29t-32.5 11q-25 0 -44 -12l-17 20q32 20 75 20q32 0 50.5 -26.5
t8.5 -82.5q15 49 68.5 79t110.5 30zM490 313q37 165 18 228t-115 63q-40 0 -70 -10.5t-60 -38t-54 -82.5t-41 -138l-17 -83q-14 -69 -17 -113t1.5 -69.5t24 -37.5t39.5 -15t60 -3q81 0 142 80.5t89 218.5z" />
    <glyph glyph-name="uni0441" unicode="&#x441;" 
d="M426 94l26 -19q-47 -51 -93 -70t-129 -19q-118 0 -150 69.5t8 257.5q32 141 118.5 230t175.5 89q69 0 104.5 -19.5t62.5 -73.5l-28 -10q-21 42 -51 58.5t-85 16.5q-81 0 -159.5 -83t-105.5 -216q-34 -165 -10.5 -228t117.5 -63q71 0 113 17t86 63z" />
    <glyph glyph-name="uni0442" unicode="&#x442;" 
d="M500 -14q-29 0 -47 14t-17 37q1 43 25.5 150t59.5 222q32 106 29 150.5t-44 44.5q-45 0 -73.5 -19t-58 -87.5t-57.5 -200.5l-63 -297h-30l85 410q26 119 25 146q-8 45 -49 48q-44 0 -70.5 -21.5t-52.5 -88t-55 -199.5l-64 -295h-30l115 543q1 5 1.5 12t0.5 9q2 40 -38 40
q-12 0 -29 -5t-21 -10l-17 23q32 20 75 20q30 0 45 -14.5t14.5 -38.5t-6.5 -54q8 34 45.5 70.5t83.5 36.5q23 0 39 -6.5t23.5 -13t10.5 -23.5t3 -25t-2.5 -30.5t-2.5 -28.5q26 62 65 94.5t85 32.5q62 0 74.5 -51t-23.5 -173q-81 -259 -84 -354q0 -18 12 -29t32 -11
q24 0 44 12l17 -20q-32 -20 -75 -20z" />
    <glyph glyph-name="uni0443" unicode="&#x443;" 
d="M115 -206q-44 0 -71.5 17.5t-28.5 45.5q0 49 96.5 76.5t265.5 26.5q18 29 33.5 79t18.5 81q-5 -39 -56.5 -56.5t-107.5 -17.5q-73 0 -112 51.5t-20 110.5q37 112 60 212t23 144q0 18 -12 29t-32 11q-24 0 -44 -12l-17 20q32 20 75 20q28 0 45 -14t17 -37
q-2 -107 -81 -370q-20 -62 8.5 -99.5t85.5 -37.5q26 0 44.5 1.5t43.5 9.5t41.5 22t32 40t23.5 63l87 408h31q-71 -339 -104 -484t-49 -172q65 0 84 3l-1 -23q-35 -9 -95 -6q-35 -64 -113 -103t-171 -39zM123 -178q71 0 140 31.5t108 82.5q-152 -3 -238.5 -25t-85.5 -58
q0 -31 76 -31z" />
    <glyph glyph-name="uni0444" unicode="&#x444;" 
d="M593 814q34 0 50.5 -8t25.5 -28l-18 -16q-13 24 -67 24q-46 0 -77.5 -36.5t-68.5 -129.5l-67 -170q39 33 81 33q63 0 88 -62.5t2 -163.5q-22 -100 -76.5 -161t-121.5 -61q-41 0 -62 38t-19 105l-74 -187q-43 -109 -81 -148t-101 -39q-34 0 -50.5 8t-25.5 28l18 16
q13 -24 67 -24q46 0 77.5 36.5t68.5 129.5l77 193q-51 -46 -108 -46q-53 0 -72.5 62.5t2.5 163.5q21 100 70 161t108 61q49 0 75.5 -39.5t24.5 -107.5l72 181q45 108 83.5 147.5t98.5 39.5zM132 173q57 0 103.5 54.5t65.5 143.5q18 88 1 141t-64 53q-48 0 -89 -54.5
t-60 -143.5q-18 -88 -6.5 -141t49.5 -53zM451 455q-48 0 -89 -54.5t-60 -143.5q-18 -88 -6.5 -141t49.5 -53q57 0 103.5 54.5t65.5 143.5q18 88 1 141t-64 53z" />
    <glyph glyph-name="uni0445" unicode="&#x445;" 
d="M570 618q-23 -48 -67.5 -107.5t-80 -99t-102.5 -111.5l112 -300h-33l-103 275q-58 -62 -88.5 -96t-71.5 -85.5t-66 -93.5h-38q27 45 76 104t77 89.5t101 107.5l-118 317h33l109 -292q172 185 221 292h39z" />
    <glyph glyph-name="uni0446" unicode="&#x446;" 
d="M511 29l17 -23q-20 -13 -47 -17q0 -54 -61 -93q-32 -22 -68 -25l-1 28q37 6 55 21q39 30 43 66q-27 2 -44.5 23.5t-11.5 62.5l27 130q-46 -98 -102 -157t-117 -59q-187 0 -115 225q80 249 84 353q0 18 -12 29t-32 11q-24 0 -44 -12l-17 20q32 20 75 20q29 0 47 -14
t17 -37q-2 -84 -85 -372q-28 -108 -8 -151.5t87 -43.5q52 0 108 57t92.5 129.5t49.5 132.5l61 285h31l-115 -543q-1 -5 -1.5 -12t-0.5 -9q-1 -18 11.5 -29t32.5 -11q11 0 25 5t19 10z" />
    <glyph glyph-name="uni0447" unicode="&#x447;" 
d="M443 -14q-29 0 -47.5 12.5t-14.5 34.5l76 366q-46 -97 -107.5 -159.5t-115.5 -62.5q-86 0 -107 49.5t15 159.5q2 6 8 25t8.5 27t7.5 24.5t7 26.5t5 24t4 26t1 23q0 19 -13.5 30.5t-33.5 11.5q-22 0 -46 -12l-12 19q34 21 76 21q28 0 44.5 -13t16.5 -36q0 -64 -43 -195
q-33 -99 -18.5 -141t81.5 -42q68 0 147 109t99 205l20 99h30l-116 -560q-4 -19 10.5 -31.5t35.5 -12.5q22 0 46 12l12 -19q-34 -21 -76 -21z" />
    <glyph glyph-name="uni0448" unicode="&#x448;" 
d="M100 632q29 0 47 -14t17 -37q-1 -43 -25.5 -150t-59.5 -222q-32 -106 -29 -150.5t44 -44.5q45 0 73.5 19t58 87.5t57.5 200.5l63 297h30l-85 -410q-26 -119 -25 -146q8 -45 49 -48q44 0 70.5 21.5t52.5 88t55 199.5l64 295h30l-115 -543q-1 -5 -1.5 -12t-0.5 -9
q-2 -40 38 -40q12 0 29 5t21 10l17 -23q-32 -20 -75 -20q-30 0 -45 14.5t-14.5 38.5t6.5 54q-8 -34 -45.5 -70.5t-83.5 -36.5q-23 0 -39 6.5t-23.5 13t-10.5 23.5t-3 25t2.5 30.5t2.5 28.5q-26 -62 -65 -94.5t-85 -32.5q-62 0 -74.5 51t23.5 173q81 259 84 354q0 18 -12 29
t-32 11q-24 0 -44 -12l-17 20q32 20 75 20z" />
    <glyph glyph-name="uni0449" unicode="&#x449;" 
d="M558 29l17 -23q-15 -10 -44 -17q0 -53 -61 -93q-32 -22 -68 -25l-1 28q37 6 55 21q39 30 43 66q-44 0 -54.5 31.5t2.5 75.5q-8 -34 -45.5 -70.5t-83.5 -36.5q-23 0 -39 6.5t-23.5 13t-10.5 23.5t-3 25t2.5 30.5t2.5 28.5q-26 -62 -65 -94.5t-85 -32.5q-62 0 -74.5 51
t23.5 173q81 259 84 354q0 18 -12 29t-32 11q-24 0 -44 -12l-17 20q32 20 75 20q29 0 47 -14t17 -37q-1 -43 -25.5 -150t-59.5 -222q-32 -106 -29 -150.5t44 -44.5q45 0 73.5 19t58 87.5t57.5 200.5l63 297h30l-85 -410q-26 -119 -25 -146q8 -45 49 -48q44 0 70.5 21.5
t52.5 88t55 199.5l64 295h30l-115 -543q-1 -5 -1.5 -12t-0.5 -9q-2 -40 38 -40q12 0 29 5t21 10z" />
    <glyph glyph-name="uni044A" unicode="&#x44a;" 
d="M349 376q116 0 152.5 -41t14.5 -150q-23 -106 -75.5 -145.5t-169.5 -39.5h-205l126 590h-101l6 28h131l-51 -242h172zM486 190q20 91 -10 124.5t-130 33.5h-175l-68 -320h172q100 0 146 35t65 127z" />
    <glyph glyph-name="uni044B" unicode="&#x44b;" 
d="M250 376q108 0 141 -41t11 -150q-23 -106 -72.5 -145.5t-156.5 -39.5h-170l132 618h30l-52 -242h137zM567 618h30l-132 -618h-30zM371 190q20 91 -6.5 124.5t-116.5 33.5h-141l-68 -320h138q90 0 132.5 35t61.5 127z" />
    <glyph glyph-name="uni044C" unicode="&#x44c;" 
d="M332 376q117 0 153.5 -41t14.5 -150q-23 -106 -76 -145.5t-169 -39.5h-205l132 618h30l-52 -242h172zM469 190q20 90 -10 124t-129 34h-176l-68 -320h173q99 0 145 35t65 127z" />
    <glyph glyph-name="uni044D" unicode="&#x44d;" 
d="M366 632q129 0 164.5 -61t0.5 -223l-17 -80q-34 -161 -94.5 -221.5t-185.5 -60.5q-86 0 -123 21.5t-49 76.5l35 -3q13 -39 42.5 -53t95.5 -14q111 0 165 55.5t85 200.5l5 25h-245l6 28h245l6 27q31 146 1.5 200t-138.5 54q-68 0 -105.5 -15.5t-66.5 -54.5l-36 3
q35 54 80 74.5t129 20.5z" />
    <glyph glyph-name="uni044E" unicode="&#x44e;" 
d="M453 632q108 0 136 -61.5t-7 -222.5l-17 -80q-34 -161 -86.5 -221.5t-157.5 -60.5q-108 0 -136 61.5t7 222.5l5 25h-125l-63 -295h-30l132 618h30l-63 -295h125l6 27q34 161 86.5 221.5t157.5 60.5zM553 350q31 146 9.5 200t-110.5 54q-91 0 -137 -55.5t-77 -200.5
l-17 -80q-31 -146 -9.5 -200t110.5 -54q91 0 137 55.5t77 200.5z" />
    <glyph glyph-name="uni044F" unicode="&#x44f;" 
d="M353 618h205l-132 -618h-30l62 288h-125l-291 -288h-36l289 288h-11q-116 0 -153 36.5t-16 130.5q19 93 70.5 128t167.5 35zM288 316h175l59 274h-173q-99 0 -144 -30t-62 -109q-16 -78 15 -106.5t130 -28.5z" />
    <glyph glyph-name="uni0451" unicode="&#x451;" 
d="M286 742q-28 0 -35.5 9.5t-1.5 36.5q5 23 14 30.5t36 7.5q28 0 36.5 -9t1.5 -34q-4 -25 -14 -33t-37 -8zM515 826q28 0 36.5 -9t1.5 -34q-4 -25 -14 -33t-37 -8q-28 0 -35.5 9.5t-1.5 36.5q5 23 14 30.5t36 7.5zM526 511q0 -55 -27 -101.5t-57 -74t-92.5 -56t-92 -38
t-95.5 -28.5q-21 -6 -30 -9q-2 -36 -2 -55q0 -58 36.5 -95t89.5 -37q49 0 104.5 22t99.5 59l18 -25q-47 -40 -107.5 -63.5t-116.5 -23.5q-66 0 -111.5 48t-45.5 123q0 24 1 36q-45 -15 -55 -27l-18 27q19 14 75 31q14 178 98 293t203 115q125 0 125 -121zM404 604
q-104 0 -178.5 -103.5t-91.5 -265.5q159 46 227 85q133 76 133 196q0 44 -26.5 66t-63.5 22z" />
    <glyph glyph-name="Wgrave" unicode="&#x1e80;" 
d="M431 878l-99 106l23 21l99 -106zM86 0l65 800h30l-62 -740l210 467h34l11 -467l253 740h32l-275 -800h-34l-11 487l-221 -487h-32z" />
    <glyph glyph-name="wgrave" unicode="&#x1e81;" 
d="M415 714l-23 -21l-99 106l23 21zM584 618h34q-21 -89 -61.5 -193t-98 -234t-81.5 -191h-28l-32 352q-27 -68 -109 -201.5t-90 -148.5v-2h-30l29 618h30l-26 -562q7 12 50.5 82.5t59.5 98.5t40.5 80t34.5 92h33l33 -352q17 41 57 136t63 150t50 133.5t42 141.5z" />
    <glyph glyph-name="Wacute" unicode="&#x1e82;" 
d="M413 878l-17 21l141 106l17 -21zM86 0l65 800h30l-62 -740l210 467h34l11 -467l253 740h32l-275 -800h-34l-11 487l-221 -487h-32z" />
    <glyph glyph-name="wacute" unicode="&#x1e83;" 
d="M515 799l-141 -106l-17 21l141 106zM584 618h34q-21 -89 -61.5 -193t-98 -234t-81.5 -191h-28l-32 352q-27 -68 -109 -201.5t-90 -148.5v-2h-30l29 618h30l-26 -562q7 12 50.5 82.5t59.5 98.5t40.5 80t34.5 92h33l33 -352q17 41 57 136t63 150t50 133.5t42 141.5z" />
    <glyph glyph-name="Wdieresis" unicode="&#x1e84;" 
d="M325 927q-28 0 -35.5 9.5t-1.5 36.5q5 23 14 30.5t36 7.5q28 0 36.5 -9t1.5 -34q-4 -25 -14 -33t-37 -8zM541 927q-28 0 -35.5 9.5t-1.5 36.5q5 23 14 30.5t36 7.5q28 0 36.5 -9t1.5 -34q-4 -25 -14 -33t-37 -8zM86 0l65 800h30l-62 -740l210 467h34l11 -467l253 740h32
l-275 -800h-34l-11 487l-221 -487h-32z" />
    <glyph glyph-name="wdieresis" unicode="&#x1e85;" 
d="M286 742q-28 0 -35.5 9.5t-1.5 36.5q5 23 14 30.5t36 7.5q28 0 36.5 -9t1.5 -34q-4 -25 -14 -33t-37 -8zM502 742q-28 0 -35.5 9.5t-1.5 36.5q5 23 14 30.5t36 7.5q28 0 36.5 -9t1.5 -34q-4 -25 -14 -33t-37 -8zM584 618h34q-21 -89 -61.5 -193t-98 -234t-81.5 -191h-28
l-32 352q-27 -68 -109 -201.5t-90 -148.5v-2h-30l29 618h30l-26 -562q7 12 50.5 82.5t59.5 98.5t40.5 80t34.5 92h33l33 -352q17 41 57 136t63 150t50 133.5t42 141.5z" />
    <glyph glyph-name="uni1E9E" unicode="&#x1e9e;" 
d="M416 471q114 0 145.5 -53.5t2.5 -191.5q-30 -141 -82 -190.5t-165 -49.5q-114 0 -150.5 29t-19.5 104l29 -3q-12 -59 17.5 -80.5t123.5 -21.5q99 0 145 44.5t73 172.5q26 120 -0.5 166.5t-122.5 46.5h-60l270 328h-259q-83 0 -146 -55.5t-82 -145.5l-121 -571h-30
l122 573q22 106 93 166.5t172 60.5h306l-268 -329h7z" />
    <glyph glyph-name="uni1EA0" unicode="&#x1ea0;" 
d="M474 0h-31l-14 225h-293l-109 -225h-32l391 800h36zM150 253h278l-31 510zM207 -117q35 0 45 -12t3 -45q-6 -31 -19 -41t-46 -10q-35 0 -45 11.5t-3 44.5q7 32 19.5 42t45.5 10z" />
    <glyph glyph-name="uni1EA1" unicode="&#x1ea1;" 
d="M489 26l17 -20q-32 -20 -75 -20q-28 0 -45 14.5t-16 39.5q1 56 14 98q-28 -68 -79 -110t-105 -42q-72 0 -116 45.5t-46 120.5q0 96 50.5 209t127.5 192t147 79q64 0 101 -16.5t37 -63.5q-1 -14 -95 -467q-3 -21 -2.5 -36.5t10.5 -25t31 -9.5q25 0 44 12zM196 14
q64 0 122.5 65.5t91.5 176.5q59 262 59 295q1 30 -23 41.5t-79 11.5q-62 0 -132.5 -76t-116.5 -183.5t-46 -196.5q-1 -60 33 -97t91 -37zM190 -222q-35 0 -45 11.5t-3 44.5q7 32 19.5 42t45.5 10q35 0 45 -12t3 -45q-6 -31 -19 -41t-46 -10z" />
    <glyph glyph-name="uni1EA2" unicode="&#x1ea2;" 
d="M444 992q32 0 50 -21t11 -52q-5 -25 -30.5 -46.5t-69.5 -33.5l-4 27q67 20 76 61q4 16 -7 26.5t-26 10.5q-46 0 -86 -30l5 36q39 22 81 22zM386 800h36l52 -800h-31l-14 225h-293l-109 -225h-32zM150 253h278l-31 510z" />
    <glyph glyph-name="uni1EA3" unicode="&#x1ea3;" 
d="M366 654l-4 27q67 20 76 61q4 16 -7 26.5t-26 10.5q-46 0 -86 -30l5 36q39 22 81 22q32 0 50 -21t11 -52q-5 -25 -30.5 -46.5t-69.5 -33.5zM489 26l17 -20q-32 -20 -75 -20q-28 0 -45 14.5t-16 39.5q1 56 14 98q-28 -68 -79 -110t-105 -42q-72 0 -116 45.5t-46 120.5
q0 96 50.5 209t127.5 192t147 79q64 0 101 -16.5t37 -63.5q-1 -14 -95 -467q-3 -21 -2.5 -36.5t10.5 -25t31 -9.5q25 0 44 12zM196 14q64 0 122.5 65.5t91.5 176.5q59 262 59 295q1 30 -23 41.5t-79 11.5q-62 0 -132.5 -76t-116.5 -183.5t-46 -196.5q-1 -60 33 -97t91 -37z
" />
    <glyph glyph-name="uni1EA4" unicode="&#x1ea4;" 
d="M690 1023l-165 -122l-16 21l165 122zM302 856l136 102l93 -104l-27 -18l-73 84l-109 -82zM386 800h36l52 -800h-31l-14 225h-293l-109 -225h-32zM150 253h278l-31 510z" />
    <glyph glyph-name="uni1EA5" unicode="&#x1ea5;" 
d="M417 898l-17 21l141 106l17 -21zM474 697l-73 84l-109 -82l-20 18l136 102l93 -104zM489 26l17 -20q-32 -20 -75 -20q-28 0 -45 14.5t-16 39.5q1 56 14 98q-28 -68 -79 -110t-105 -42q-72 0 -116 45.5t-46 120.5q0 96 50.5 209t127.5 192t147 79q64 0 101 -16.5t37 -63.5
q-1 -14 -95 -467q-3 -21 -2.5 -36.5t10.5 -25t31 -9.5q25 0 44 12zM196 14q64 0 122.5 65.5t91.5 176.5q59 262 59 295q1 30 -23 41.5t-79 11.5q-62 0 -132.5 -76t-116.5 -183.5t-46 -196.5q-1 -60 33 -97t91 -37z" />
    <glyph glyph-name="uni1EA6" unicode="&#x1ea6;" 
d="M483 1005l113 -122l-23 -22l-114 123zM302 856l136 102l93 -104l-27 -18l-73 84l-109 -82zM386 800h36l52 -800h-31l-14 225h-293l-109 -225h-32zM150 253h278l-31 510z" />
    <glyph glyph-name="uni1EA7" unicode="&#x1ea7;" 
d="M435 898l-99 106l23 21l99 -106zM474 697l-73 84l-109 -82l-20 18l136 102l93 -104zM489 26l17 -20q-32 -20 -75 -20q-28 0 -45 14.5t-16 39.5q1 56 14 98q-28 -68 -79 -110t-105 -42q-72 0 -116 45.5t-46 120.5q0 96 50.5 209t127.5 192t147 79q64 0 101 -16.5t37 -63.5
q-1 -14 -95 -467q-3 -21 -2.5 -36.5t10.5 -25t31 -9.5q25 0 44 12zM196 14q64 0 122.5 65.5t91.5 176.5q59 262 59 295q1 30 -23 41.5t-79 11.5q-62 0 -132.5 -76t-116.5 -183.5t-46 -196.5q-1 -60 33 -97t91 -37z" />
    <glyph glyph-name="uni1EA8" unicode="&#x1ea8;" 
d="M617 1044q31 0 49 -21t11 -52q-11 -54 -100 -80l-3 27q66 22 76 62q3 15 -8 25.5t-25 10.5q-47 0 -87 -30l5 36q39 22 82 22zM302 856l136 102l93 -104l-27 -18l-73 84l-109 -82zM386 800h36l52 -800h-31l-14 225h-293l-109 -225h-32zM150 253h278l-31 510z" />
    <glyph glyph-name="uni1EA9" unicode="&#x1ea9;" 
d="M409 859l-4 27q67 20 76 61q4 16 -7 26.5t-26 10.5q-46 0 -86 -30l5 36q39 22 81 22q32 0 50 -21t11 -52q-5 -25 -30.5 -46.5t-69.5 -33.5zM474 697l-73 84l-109 -82l-20 18l136 102l93 -104zM489 26l17 -20q-32 -20 -75 -20q-28 0 -45 14.5t-16 39.5q1 56 14 98
q-28 -68 -79 -110t-105 -42q-72 0 -116 45.5t-46 120.5q0 96 50.5 209t127.5 192t147 79q64 0 101 -16.5t37 -63.5q-1 -14 -95 -467q-3 -21 -2.5 -36.5t10.5 -25t31 -9.5q25 0 44 12zM196 14q64 0 122.5 65.5t91.5 176.5q59 262 59 295q1 30 -23 41.5t-79 11.5
q-62 0 -132.5 -76t-116.5 -183.5t-46 -196.5q-1 -60 33 -97t91 -37z" />
    <glyph glyph-name="uni1EAA" unicode="&#x1eaa;" 
d="M735 976l29 -3q-10 -34 -33 -54t-52 -20t-62 38.5t-56 38.5q-18 0 -29.5 -7.5t-15.5 -16t-11 -28.5l-29 2q11 36 33.5 56.5t51.5 20.5q28 0 61.5 -38.5t56.5 -38.5q26 0 36.5 11.5t19.5 38.5zM302 856l136 102l93 -104l-27 -18l-73 84l-109 -82zM386 800h36l52 -800h-31
l-14 225h-293l-109 -225h-32zM150 253h278l-31 510z" />
    <glyph glyph-name="uni1EAB" unicode="&#x1eab;" 
d="M498 911q-24 0 -43.5 19.5t-37.5 38.5t-37 19q-26 0 -36.5 -12t-20.5 -40l-29 2q11 36 33.5 57t52.5 21q22 0 41.5 -19t38 -38.5t38.5 -19.5q25 0 36 11.5t19 37.5l29 -2q-11 -35 -33.5 -55t-50.5 -20zM474 697l-73 84l-109 -82l-20 18l136 102l93 -104zM489 26l17 -20
q-32 -20 -75 -20q-28 0 -45 14.5t-16 39.5q1 56 14 98q-28 -68 -79 -110t-105 -42q-72 0 -116 45.5t-46 120.5q0 96 50.5 209t127.5 192t147 79q64 0 101 -16.5t37 -63.5q-1 -14 -95 -467q-3 -21 -2.5 -36.5t10.5 -25t31 -9.5q25 0 44 12zM196 14q64 0 122.5 65.5
t91.5 176.5q59 262 59 295q1 30 -23 41.5t-79 11.5q-62 0 -132.5 -76t-116.5 -183.5t-46 -196.5q-1 -60 33 -97t91 -37z" />
    <glyph glyph-name="uni1EAC" unicode="&#x1eac;" 
d="M447 1004l93 -104l-27 -18l-73 84l-109 -82l-20 18zM386 800h36l52 -800h-31l-14 225h-293l-109 -225h-32zM150 253h278l-31 510zM207 -117q35 0 45 -12t3 -45q-6 -31 -19 -41t-46 -10q-35 0 -45 11.5t-3 44.5q7 32 19.5 42t45.5 10z" />
    <glyph glyph-name="uni1EAD" unicode="&#x1ead;" 
d="M474 697l-73 84l-109 -82l-20 18l136 102l93 -104zM489 26l17 -20q-32 -20 -75 -20q-28 0 -45 14.5t-16 39.5q1 56 14 98q-28 -68 -79 -110t-105 -42q-72 0 -116 45.5t-46 120.5q0 96 50.5 209t127.5 192t147 79q64 0 101 -16.5t37 -63.5q-1 -14 -95 -467
q-3 -21 -2.5 -36.5t10.5 -25t31 -9.5q25 0 44 12zM196 14q64 0 122.5 65.5t91.5 176.5q59 262 59 295q1 30 -23 41.5t-79 11.5q-62 0 -132.5 -76t-116.5 -183.5t-46 -196.5q-1 -60 33 -97t91 -37zM190 -222q-35 0 -45 11.5t-3 44.5q7 32 19.5 42t45.5 10q35 0 45 -12t3 -45
q-6 -31 -19 -41t-46 -10z" />
    <glyph glyph-name="uni1EAE" unicode="&#x1eae;" 
d="M582 1051l-165 -122l-15 21l163 122zM416 870q47 0 71 18.5t34 63.5l30 -3q-14 -60 -44 -83.5t-93 -23.5t-83 24.5t-10 85.5l29 -3q-9 -44 6.5 -61.5t59.5 -17.5zM386 800h36l52 -800h-31l-14 225h-293l-109 -225h-32zM150 253h278l-31 510z" />
    <glyph glyph-name="uni1EAF" unicode="&#x1eaf;" 
d="M410 866l-17 21l141 106l17 -21zM383 694q-65 0 -85.5 21t-10.5 77l29 -2q-7 -37 9 -52.5t60 -15.5q46 0 70.5 16.5t32.5 53.5l29 -2q-14 -56 -42 -76t-92 -20zM489 26l17 -20q-32 -20 -75 -20q-28 0 -45 14.5t-16 39.5q1 56 14 98q-28 -68 -79 -110t-105 -42
q-72 0 -116 45.5t-46 120.5q0 96 50.5 209t127.5 192t147 79q64 0 101 -16.5t37 -63.5q-1 -14 -95 -467q-3 -21 -2.5 -36.5t10.5 -25t31 -9.5q25 0 44 12zM196 14q64 0 122.5 65.5t91.5 176.5q59 262 59 295q1 30 -23 41.5t-79 11.5q-62 0 -132.5 -76t-116.5 -183.5
t-46 -196.5q-1 -60 33 -97t91 -37z" />
    <glyph glyph-name="uni1EB0" unicode="&#x1eb0;" 
d="M470 950l-25 -21l-114 122l24 21zM521 952l30 -3q-14 -60 -44 -83.5t-93 -23.5t-83 24.5t-10 85.5l29 -3q-9 -44 6.5 -61.5t59.5 -17.5q47 0 71 18.5t34 63.5zM386 800h36l52 -800h-31l-14 225h-293l-109 -225h-32zM150 253h278l-31 510z" />
    <glyph glyph-name="uni1EB1" unicode="&#x1eb1;" 
d="M428 866l-99 106l23 21l99 -106zM383 694q-65 0 -85.5 21t-10.5 77l29 -2q-7 -37 9 -52.5t60 -15.5q46 0 70.5 16.5t32.5 53.5l29 -2q-14 -56 -42 -76t-92 -20zM489 26l17 -20q-32 -20 -75 -20q-28 0 -45 14.5t-16 39.5q1 56 14 98q-28 -68 -79 -110t-105 -42
q-72 0 -116 45.5t-46 120.5q0 96 50.5 209t127.5 192t147 79q64 0 101 -16.5t37 -63.5q-1 -14 -95 -467q-3 -21 -2.5 -36.5t10.5 -25t31 -9.5q25 0 44 12zM196 14q64 0 122.5 65.5t91.5 176.5q59 262 59 295q1 30 -23 41.5t-79 11.5q-62 0 -132.5 -76t-116.5 -183.5
t-46 -196.5q-1 -60 33 -97t91 -37z" />
    <glyph glyph-name="uni1EB2" unicode="&#x1eb2;" 
d="M617 1044q31 0 49 -21t11 -52q-11 -54 -100 -80l-3 27q66 22 76 62q3 15 -8 25.5t-25 10.5q-47 0 -87 -30l5 36q39 22 82 22zM416 870q47 0 71 18.5t34 63.5l30 -3q-14 -58 -44 -82.5t-93 -24.5t-83 24.5t-10 85.5l29 -3q-9 -44 6.5 -61.5t59.5 -17.5zM386 800h36
l52 -800h-31l-14 225h-293l-109 -225h-32zM150 253h278l-31 510z" />
    <glyph glyph-name="uni1EB3" unicode="&#x1eb3;" 
d="M402 827l-4 27q67 20 76 61q4 16 -7 26.5t-26 10.5q-46 0 -86 -30l5 36q39 22 81 22q32 0 50 -21t11 -53q-5 -24 -30.5 -45.5t-69.5 -33.5zM383 694q-65 0 -85.5 21t-10.5 77l29 -2q-7 -37 9 -52.5t60 -15.5q46 0 70.5 16.5t32.5 53.5l29 -2q-14 -56 -42 -76t-92 -20z
M489 26l17 -20q-32 -20 -75 -20q-28 0 -45 14.5t-16 39.5q1 56 14 98q-28 -68 -79 -110t-105 -42q-72 0 -116 45.5t-46 120.5q0 96 50.5 209t127.5 192t147 79q64 0 101 -16.5t37 -63.5q-1 -14 -95 -467q-3 -21 -2.5 -36.5t10.5 -25t31 -9.5q25 0 44 12zM196 14
q64 0 122.5 65.5t91.5 176.5q59 262 59 295q1 30 -23 41.5t-79 11.5q-62 0 -132.5 -76t-116.5 -183.5t-46 -196.5q-1 -60 33 -97t91 -37z" />
    <glyph glyph-name="uni1EB4" unicode="&#x1eb4;" 
d="M792 1058l29 -2q-10 -34 -33 -54.5t-52 -20.5q-23 0 -42.5 19t-38 38.5t-37.5 19.5q-25 0 -35.5 -12t-20.5 -40l-29 3q24 77 86 77q22 0 41.5 -19t38 -38.5t38.5 -19.5q25 0 36 11.5t19 37.5zM416 870q47 0 71 18.5t34 63.5l30 -2q-14 -60 -43.5 -84t-93.5 -24
q-63 0 -83 25t-10 85l29 -2q-9 -45 6.5 -62.5t59.5 -17.5zM386 800h36l52 -800h-31l-14 225h-293l-109 -225h-32zM150 253h278l-31 510z" />
    <glyph glyph-name="uni1EB5" unicode="&#x1eb5;" 
d="M491 879q-24 0 -43.5 19.5t-37.5 38.5t-37 19q-26 0 -36.5 -12t-20.5 -40l-29 2q11 36 33.5 57t52.5 21q22 0 41.5 -19t38 -38.5t38.5 -19.5q26 0 36.5 11.5t18.5 37.5l29 -3q-10 -34 -32.5 -54t-51.5 -20zM383 694q-65 0 -85.5 21t-10.5 77l29 -2q-7 -37 9 -52.5
t60 -15.5q46 0 70.5 16.5t32.5 53.5l29 -2q-14 -56 -42 -76t-92 -20zM489 26l17 -20q-32 -20 -75 -20q-28 0 -45 14.5t-16 39.5q1 56 14 98q-28 -68 -79 -110t-105 -42q-72 0 -116 45.5t-46 120.5q0 96 50.5 209t127.5 192t147 79q64 0 101 -16.5t37 -63.5q-1 -14 -95 -467
q-3 -21 -2.5 -36.5t10.5 -25t31 -9.5q25 0 44 12zM196 14q64 0 122.5 65.5t91.5 176.5q59 262 59 295q1 30 -23 41.5t-79 11.5q-62 0 -132.5 -76t-116.5 -183.5t-46 -196.5q-1 -60 33 -97t91 -37z" />
    <glyph glyph-name="uni1EB6" unicode="&#x1eb6;" 
d="M527 977l29 -2q-14 -56 -42 -76t-92 -20q-65 0 -85.5 21t-10.5 77l29 -2q-7 -37 9 -52.5t60 -15.5q46 0 70.5 16.5t32.5 53.5zM386 800h36l52 -800h-31l-14 225h-293l-109 -225h-32zM150 253h278l-31 510zM207 -117q35 0 45 -12t3 -45q-6 -31 -19 -41t-46 -10
q-35 0 -45 11.5t-3 44.5q7 32 19.5 42t45.5 10z" />
    <glyph glyph-name="uni1EB7" unicode="&#x1eb7;" 
d="M383 694q-65 0 -85.5 21t-10.5 77l29 -2q-7 -37 9 -52.5t60 -15.5q46 0 70.5 16.5t32.5 53.5l29 -2q-14 -56 -42 -76t-92 -20zM489 26l17 -20q-32 -20 -75 -20q-28 0 -45 14.5t-16 39.5q1 56 14 98q-28 -68 -79 -110t-105 -42q-72 0 -116 45.5t-46 120.5q0 96 50.5 209
t127.5 192t147 79q64 0 101 -16.5t37 -63.5q-1 -14 -95 -467q-3 -21 -2.5 -36.5t10.5 -25t31 -9.5q25 0 44 12zM196 14q64 0 122.5 65.5t91.5 176.5q59 262 59 295q1 30 -23 41.5t-79 11.5q-62 0 -132.5 -76t-116.5 -183.5t-46 -196.5q-1 -60 33 -97t91 -37zM190 -222
q-35 0 -45 11.5t-3 44.5q7 32 19.5 42t45.5 10q35 0 45 -12t3 -45q-6 -31 -19 -41t-46 -10z" />
    <glyph glyph-name="uni1EB8" unicode="&#x1eb8;" 
d="M615 772h-376l-70 -335h240l-6 -28h-240l-81 -381h374l-6 -28h-404l170 800h404zM221 -117q35 0 45 -12t3 -45q-6 -31 -19 -41t-46 -10q-35 0 -45 11.5t-3 44.5q7 32 19.5 42t45.5 10z" />
    <glyph glyph-name="uni1EB9" unicode="&#x1eb9;" 
d="M256 17q49 0 104.5 22t99.5 59l18 -25q-47 -40 -107.5 -63.5t-116.5 -23.5q-66 0 -111.5 48t-45.5 123q0 24 1 36q-45 -15 -55 -27l-18 27q19 14 75 31q14 178 98 293t203 115q125 0 125 -121q0 -55 -27 -101.5t-57 -74t-92.5 -56t-92 -38t-95.5 -28.5q-21 -6 -30 -9
q-2 -36 -2 -55q0 -58 36.5 -95t89.5 -37zM404 604q-104 0 -178.5 -103.5t-91.5 -265.5q159 46 227 85q133 76 133 196q0 44 -26.5 66t-63.5 22zM207 -114q35 0 45 -12t3 -45q-6 -31 -19 -41t-46 -10q-35 0 -45 11.5t-3 44.5q7 32 19.5 42t45.5 10z" />
    <glyph glyph-name="uni1EBA" unicode="&#x1eba;" 
d="M491 927q4 16 -7 26.5t-26 10.5q-46 0 -86 -30l5 36q39 22 81 22q32 0 50 -21t11 -52q-5 -25 -30.5 -46.5t-69.5 -33.5l-4 27q67 20 76 61zM615 772h-376l-70 -335h240l-6 -28h-240l-81 -381h374l-6 -28h-404l170 800h404z" />
    <glyph glyph-name="uni1EBB" unicode="&#x1ebb;" 
d="M438 742q4 16 -7 26.5t-26 10.5q-46 0 -86 -30l5 36q39 22 81 22q32 0 50 -21t11 -52q-5 -25 -30.5 -46.5t-69.5 -33.5l-4 27q67 20 76 61zM256 17q49 0 104.5 22t99.5 59l18 -25q-47 -40 -107.5 -63.5t-116.5 -23.5q-66 0 -111.5 48t-45.5 123q0 24 1 36
q-45 -15 -55 -27l-18 27q19 14 75 31q14 178 98 293t203 115q125 0 125 -121q0 -55 -27 -101.5t-57 -74t-92.5 -56t-92 -38t-95.5 -28.5q-21 -6 -30 -9q-2 -36 -2 -55q0 -58 36.5 -95t89.5 -37zM404 604q-104 0 -178.5 -103.5t-91.5 -265.5q159 46 227 85q133 76 133 196
q0 44 -26.5 66t-63.5 22z" />
    <glyph glyph-name="uni1EBC" unicode="&#x1ebc;" 
d="M390 968q-26 0 -36.5 -12t-20.5 -40l-29 2q11 36 33.5 57t52.5 21q22 0 41.5 -19t38 -38.5t38.5 -19.5q25 0 36 11.5t19 37.5l29 -2q-11 -35 -33.5 -55t-50.5 -20q-24 0 -43.5 19.5t-37.5 38.5t-37 19zM615 772h-376l-70 -335h240l-6 -28h-240l-81 -381h374l-6 -28h-404
l170 800h404z" />
    <glyph glyph-name="uni1EBD" unicode="&#x1ebd;" 
d="M337 783q-26 0 -36.5 -12t-20.5 -40l-29 2q11 36 33.5 57t52.5 21q18 0 34 -12t26.5 -26.5t26 -26.5t31.5 -12q25 0 36 11.5t19 37.5l29 -2q-11 -35 -33.5 -55t-50.5 -20q-19 0 -35.5 12t-27 26.5t-25 26.5t-30.5 12zM526 511q0 -55 -27 -101.5t-57 -74t-92.5 -56
t-92 -38t-95.5 -28.5q-21 -6 -30 -9q-2 -36 -2 -55q0 -58 36.5 -95t89.5 -37q49 0 104.5 22t99.5 59l18 -25q-47 -40 -107.5 -63.5t-116.5 -23.5q-66 0 -111.5 48t-45.5 123q0 24 1 36q-45 -15 -55 -27l-18 27q19 14 75 31q14 178 98 293t203 115q125 0 125 -121zM404 604
q-104 0 -178.5 -103.5t-91.5 -265.5q159 46 227 85q133 76 133 196q0 44 -26.5 66t-63.5 22z" />
    <glyph glyph-name="uni1EBE" unicode="&#x1ebe;" 
d="M704 1023l-165 -122l-16 21l165 122zM445 920l-109 -82l-20 18l136 102l93 -104l-27 -18zM46 0l170 800h404l-5 -28h-376l-70 -335h240l-6 -28h-240l-81 -381h374l-6 -28h-404z" />
    <glyph glyph-name="uni1EBF" unicode="&#x1ebf;" 
d="M558 1004l-141 -106l-17 21l141 106zM401 781l-109 -82l-20 18l136 102l93 -104l-27 -18zM526 511q0 -55 -27 -101.5t-57 -74t-92.5 -56t-92 -38t-95.5 -28.5q-21 -6 -30 -9q-2 -36 -2 -55q0 -58 36.5 -95t89.5 -37q49 0 104.5 22t99.5 59l18 -25q-47 -40 -107.5 -63.5
t-116.5 -23.5q-66 0 -111.5 48t-45.5 123q0 24 1 36q-45 -15 -55 -27l-18 27q19 14 75 31q14 178 98 293t203 115q125 0 125 -121zM404 604q-104 0 -178.5 -103.5t-91.5 -265.5q159 46 227 85q133 76 133 196q0 44 -26.5 66t-63.5 22z" />
    <glyph glyph-name="uni1EC0" unicode="&#x1ec0;" 
d="M610 883l-23 -22l-114 123l24 21zM445 920l-109 -82l-20 18l136 102l93 -104l-27 -18zM615 772h-376l-70 -335h240l-6 -28h-240l-81 -381h374l-6 -28h-404l170 800h404z" />
    <glyph glyph-name="uni1EC1" unicode="&#x1ec1;" 
d="M458 919l-23 -21l-99 106l23 21zM401 781l-109 -82l-20 18l136 102l93 -104l-27 -18zM256 17q49 0 104.5 22t99.5 59l18 -25q-47 -40 -107.5 -63.5t-116.5 -23.5q-66 0 -111.5 48t-45.5 123q0 24 1 36q-45 -15 -55 -27l-18 27q19 14 75 31q14 178 98 293t203 115
q125 0 125 -121q0 -55 -27 -101.5t-57 -74t-92.5 -56t-92 -38t-95.5 -28.5q-21 -6 -30 -9q-2 -36 -2 -55q0 -58 36.5 -95t89.5 -37zM404 604q-104 0 -178.5 -103.5t-91.5 -265.5q159 46 227 85q133 76 133 196q0 44 -26.5 66t-63.5 22z" />
    <glyph glyph-name="uni1EC2" unicode="&#x1ec2;" 
d="M631 1044q31 0 49 -21t11 -52q-11 -54 -100 -80l-3 27q66 22 76 62q3 15 -8 25.5t-25 10.5q-47 0 -87 -30l5 36q39 22 82 22zM445 920l-109 -82l-20 18l136 102l93 -104l-27 -18zM46 0l170 800h404l-5 -28h-376l-70 -335h240l-6 -28h-240l-81 -381h374l-6 -28h-404z" />
    <glyph glyph-name="uni1EC3" unicode="&#x1ec3;" 
d="M481 947q4 16 -7 26.5t-26 10.5q-46 0 -86 -30l5 36q39 22 81 22q32 0 50 -21t11 -52q-5 -25 -30.5 -46.5t-69.5 -33.5l-4 27q67 20 76 61zM401 781l-109 -82l-20 18l136 102l93 -104l-27 -18zM256 17q49 0 104.5 22t99.5 59l18 -25q-47 -40 -107.5 -63.5t-116.5 -23.5
q-66 0 -111.5 48t-45.5 123q0 24 1 36q-45 -15 -55 -27l-18 27q19 14 75 31q14 178 98 293t203 115q125 0 125 -121q0 -55 -27 -101.5t-57 -74t-92.5 -56t-92 -38t-95.5 -28.5q-21 -6 -30 -9q-2 -36 -2 -55q0 -58 36.5 -95t89.5 -37zM404 604q-104 0 -178.5 -103.5
t-91.5 -265.5q159 46 227 85q133 76 133 196q0 44 -26.5 66t-63.5 22z" />
    <glyph glyph-name="uni1EC4" unicode="&#x1ec4;" 
d="M749 976l29 -3q-10 -34 -33 -54t-52 -20t-62 38.5t-56 38.5q-18 0 -29.5 -7.5t-15.5 -16t-11 -28.5l-29 2q11 36 33.5 56.5t51.5 20.5q28 0 61.5 -38.5t56.5 -38.5q26 0 36.5 11.5t19.5 38.5zM445 920l-109 -82l-20 18l136 102l93 -104l-27 -18zM46 0l170 800h404l-5 -28
h-376l-70 -335h240l-6 -28h-240l-81 -381h374l-6 -28h-404z" />
    <glyph glyph-name="uni1EC5" unicode="&#x1ec5;" 
d="M553 988l29 -2q-11 -35 -33.5 -55t-50.5 -20q-24 0 -43.5 19.5t-37.5 38.5t-37 19q-26 0 -36.5 -12t-20.5 -40l-29 2q11 36 33.5 57t52.5 21q22 0 41.5 -19t38 -38.5t38.5 -19.5q25 0 36 11.5t19 37.5zM474 697l-73 84l-109 -82l-20 18l136 102l93 -104zM526 511
q0 -55 -27 -101.5t-57 -74t-92.5 -56t-92 -38t-95.5 -28.5q-21 -6 -30 -9q-2 -36 -2 -55q0 -58 36.5 -95t89.5 -37q49 0 104.5 22t99.5 59l18 -25q-47 -40 -107.5 -63.5t-116.5 -23.5q-66 0 -111.5 48t-45.5 123q0 24 1 36q-45 -15 -55 -27l-18 27q19 14 75 31
q14 178 98 293t203 115q125 0 125 -121zM404 604q-104 0 -178.5 -103.5t-91.5 -265.5q159 46 227 85q133 76 133 196q0 44 -26.5 66t-63.5 22z" />
    <glyph glyph-name="uni1EC6" unicode="&#x1ec6;" 
d="M454 966l-109 -82l-20 18l136 102l93 -104l-27 -18zM615 772h-376l-70 -335h240l-6 -28h-240l-81 -381h374l-6 -28h-404l170 800h404zM221 -117q35 0 45 -12t3 -45q-6 -31 -19 -41t-46 -10q-35 0 -45 11.5t-3 44.5q7 32 19.5 42t45.5 10z" />
    <glyph glyph-name="uni1EC7" unicode="&#x1ec7;" 
d="M401 781l-109 -82l-20 18l136 102l93 -104l-27 -18zM256 17q49 0 104.5 22t99.5 59l18 -25q-47 -40 -107.5 -63.5t-116.5 -23.5q-66 0 -111.5 48t-45.5 123q0 24 1 36q-45 -15 -55 -27l-18 27q19 14 75 31q14 178 98 293t203 115q125 0 125 -121q0 -55 -27 -101.5
t-57 -74t-92.5 -56t-92 -38t-95.5 -28.5q-21 -6 -30 -9q-2 -36 -2 -55q0 -58 36.5 -95t89.5 -37zM404 604q-104 0 -178.5 -103.5t-91.5 -265.5q159 46 227 85q133 76 133 196q0 44 -26.5 66t-63.5 22zM207 -114q35 0 45 -12t3 -45q-6 -31 -19 -41t-46 -10q-35 0 -45 11.5
t-3 44.5q7 32 19.5 42t45.5 10z" />
    <glyph glyph-name="uni1EC8" unicode="&#x1ec8;" 
d="M477 927q4 16 -7 26.5t-26 10.5q-46 0 -86 -30l5 36q39 22 81 22q32 0 50 -21t11 -52q-5 -25 -30.5 -46.5t-69.5 -33.5l-4 27q67 20 76 61zM576 772h-163l-158 -744h162l-6 -28h-354l6 28h162l158 744h-161l5 28h354z" />
    <glyph glyph-name="uni1EC9" unicode="&#x1ec9;" 
d="M304 654l-4 27q67 20 76 61q4 16 -7 26.5t-26 10.5q-46 0 -86 -30l5 36q39 22 81 22q32 0 50 -21t11 -52q-5 -25 -30.5 -46.5t-69.5 -33.5zM342 -14q-110 0 -141 60.5t9 215.5l66 241q2 21 1.5 38t-13 30t-37.5 19l7 28q84 -20 76 -102l-68 -254q-35 -137 -12 -192.5
t108 -55.5q39 0 66.5 16t58.5 56l26 -19q-38 -46 -69.5 -63.5t-77.5 -17.5z" />
    <glyph glyph-name="uni1ECA" unicode="&#x1eca;" 
d="M576 772h-163l-158 -744h162l-6 -28h-354l6 28h162l158 744h-161l5 28h354zM207 -117q35 0 45 -12t3 -45q-6 -31 -19 -41t-46 -10q-35 0 -45 11.5t-3 44.5q7 32 19.5 42t45.5 10z" />
    <glyph glyph-name="uni1ECB" unicode="&#x1ecb;" 
d="M334 748q-35 0 -45 11.5t-3 44.5q8 32 20 42t45 10q35 0 45 -12t3 -45q-6 -31 -19 -41t-46 -10zM342 -14q-110 0 -141 60.5t9 215.5l66 241q2 21 1.5 38t-13 30t-37.5 19l7 28q84 -20 76 -102l-68 -254q-35 -137 -12 -192.5t108 -55.5q39 0 66.5 16t58.5 56l26 -19
q-38 -46 -69.5 -63.5t-77.5 -17.5zM267 -222q-35 0 -45 11.5t-3 44.5q7 32 19.5 42t45.5 10q35 0 45 -12t3 -45q-6 -31 -19 -41t-46 -10z" />
    <glyph glyph-name="uni1ECC" unicode="&#x1ecc;" 
d="M234 -14q-88 0 -128 33t-45.5 116.5t27.5 225.5l17 80q46 216 109.5 294.5t190.5 78.5q129 0 160 -79t-15 -296l-17 -80q-46 -216 -109 -294.5t-190 -78.5zM235 14q110 0 168.5 75.5t100.5 271.5l17 80q42 197 17 271t-134 74q-111 0 -170.5 -75.5t-99.5 -271.5l-17 -80
q-41 -197 -15.5 -271t133.5 -74zM190 -225q-35 0 -45 11.5t-3 44.5q7 32 19.5 42t45.5 10q35 0 45 -12t3 -45q-6 -31 -19 -41t-46 -10z" />
    <glyph glyph-name="uni1ECD" unicode="&#x1ecd;" 
d="M236 -14q-121 0 -151.5 69.5t9.5 257.5q31 146 105 232.5t165 86.5q120 0 150.5 -69.5t-8.5 -257.5q-30 -145 -104.5 -232t-165.5 -87zM233 14q81 0 146 80.5t95 218.5q37 167 14 229t-121 62q-82 0 -147.5 -81t-93.5 -218q-35 -167 -12.5 -229t119.5 -62zM190 -222
q-35 0 -45 11.5t-3 44.5q7 32 19.5 42t45.5 10q35 0 45 -12t3 -45q-6 -31 -19 -41t-46 -10z" />
    <glyph glyph-name="uni1ECE" unicode="&#x1ece;" 
d="M405 839l-4 27q67 20 76 61q4 16 -7 26.5t-26 10.5q-46 0 -86 -30l5 36q39 22 81 22q32 0 50 -21t11 -52q-5 -25 -30.5 -46.5t-69.5 -33.5zM234 -14q-88 0 -128 33t-45.5 116.5t27.5 225.5l17 80q46 216 109.5 294.5t190.5 78.5q129 0 160 -79t-15 -296l-17 -80
q-46 -216 -109 -294.5t-190 -78.5zM235 14q110 0 168.5 75.5t100.5 271.5l17 80q42 197 17 271t-134 74q-111 0 -170.5 -75.5t-99.5 -271.5l-17 -80q-41 -197 -15.5 -271t133.5 -74z" />
    <glyph glyph-name="uni1ECF" unicode="&#x1ecf;" 
d="M366 654l-4 27q67 20 76 61q4 16 -7 26.5t-26 10.5q-46 0 -86 -30l5 36q39 22 81 22q32 0 50 -21t11 -52q-5 -25 -30.5 -46.5t-69.5 -33.5zM236 -14q-121 0 -151.5 69.5t9.5 257.5q31 146 105 232.5t165 86.5q120 0 150.5 -69.5t-8.5 -257.5q-30 -145 -104.5 -232
t-165.5 -87zM233 14q81 0 146 80.5t95 218.5q37 167 14 229t-121 62q-82 0 -147.5 -81t-93.5 -218q-35 -167 -12.5 -229t119.5 -62z" />
    <glyph glyph-name="uni1ED0" unicode="&#x1ed0;" 
d="M525 901l-16 21l165 122l16 -21zM504 836l-73 84l-109 -82l-20 18l136 102l93 -104zM234 -14q-88 0 -128 33t-45.5 116.5t27.5 225.5l17 80q46 216 109.5 294.5t190.5 78.5q129 0 160 -79t-15 -296l-17 -80q-46 -216 -109 -294.5t-190 -78.5zM235 14q110 0 168.5 75.5
t100.5 271.5l17 80q42 197 17 271t-134 74q-111 0 -170.5 -75.5t-99.5 -271.5l-17 -80q-41 -197 -15.5 -271t133.5 -74z" />
    <glyph glyph-name="uni1ED1" unicode="&#x1ed1;" 
d="M417 898l-17 21l141 106l17 -21zM474 697l-73 84l-109 -82l-20 18l136 102l93 -104zM236 -14q-121 0 -151.5 69.5t9.5 257.5q31 146 105 232.5t165 86.5q120 0 150.5 -69.5t-8.5 -257.5q-30 -145 -104.5 -232t-165.5 -87zM233 14q81 0 146 80.5t95 218.5q37 167 14 229
t-121 62q-82 0 -147.5 -81t-93.5 -218q-35 -167 -12.5 -229t119.5 -62z" />
    <glyph glyph-name="uni1ED2" unicode="&#x1ed2;" 
d="M573 861l-114 123l24 21l113 -122zM504 836l-73 84l-109 -82l-20 18l136 102l93 -104zM234 -14q-88 0 -128 33t-45.5 116.5t27.5 225.5l17 80q46 216 109.5 294.5t190.5 78.5q129 0 160 -79t-15 -296l-17 -80q-46 -216 -109 -294.5t-190 -78.5zM235 14q110 0 168.5 75.5
t100.5 271.5l17 80q42 197 17 271t-134 74q-111 0 -170.5 -75.5t-99.5 -271.5l-17 -80q-41 -197 -15.5 -271t133.5 -74z" />
    <glyph glyph-name="uni1ED3" unicode="&#x1ed3;" 
d="M435 898l-99 106l23 21l99 -106zM474 697l-73 84l-109 -82l-20 18l136 102l93 -104zM236 -14q-121 0 -151.5 69.5t9.5 257.5q31 146 105 232.5t165 86.5q120 0 150.5 -69.5t-8.5 -257.5q-30 -145 -104.5 -232t-165.5 -87zM233 14q81 0 146 80.5t95 218.5q37 167 14 229
t-121 62q-82 0 -147.5 -81t-93.5 -218q-35 -167 -12.5 -229t119.5 -62z" />
    <glyph glyph-name="uni1ED4" unicode="&#x1ed4;" 
d="M577 891l-3 27q66 22 76 62q3 15 -8 25.5t-25 10.5q-47 0 -87 -30l5 36q39 22 82 22q31 0 49 -21t11 -52q-11 -54 -100 -80zM504 836l-73 84l-109 -82l-20 18l136 102l93 -104zM234 -14q-88 0 -128 33t-45.5 116.5t27.5 225.5l17 80q46 216 109.5 294.5t190.5 78.5
q129 0 160 -79t-15 -296l-17 -80q-46 -216 -109 -294.5t-190 -78.5zM235 14q110 0 168.5 75.5t100.5 271.5l17 80q42 197 17 271t-134 74q-111 0 -170.5 -75.5t-99.5 -271.5l-17 -80q-41 -197 -15.5 -271t133.5 -74z" />
    <glyph glyph-name="uni1ED5" unicode="&#x1ed5;" 
d="M409 859l-4 27q67 20 76 61q4 16 -7 26.5t-26 10.5q-46 0 -86 -30l5 36q39 22 81 22q32 0 50 -21t11 -52q-5 -25 -30.5 -46.5t-69.5 -33.5zM474 697l-73 84l-109 -82l-20 18l136 102l93 -104zM236 -14q-121 0 -151.5 69.5t9.5 257.5q31 146 105 232.5t165 86.5
q120 0 150.5 -69.5t-8.5 -257.5q-30 -145 -104.5 -232t-165.5 -87zM233 14q81 0 146 80.5t95 218.5q37 167 14 229t-121 62q-82 0 -147.5 -81t-93.5 -218q-35 -167 -12.5 -229t119.5 -62z" />
    <glyph glyph-name="uni1ED6" unicode="&#x1ed6;" 
d="M679 899q-29 0 -62 38.5t-56 38.5q-18 0 -29.5 -7.5t-15.5 -16t-11 -28.5l-29 2q11 36 33.5 56.5t51.5 20.5q28 0 61.5 -38.5t56.5 -38.5q26 0 36.5 11.5t19.5 38.5l29 -3q-10 -34 -33 -54t-52 -20zM504 836l-73 84l-109 -82l-20 18l136 102l93 -104zM234 -14
q-88 0 -128 33t-45.5 116.5t27.5 225.5l17 80q46 216 109.5 294.5t190.5 78.5q129 0 160 -79t-15 -296l-17 -80q-46 -216 -109 -294.5t-190 -78.5zM235 14q110 0 168.5 75.5t100.5 271.5l17 80q42 197 17 271t-134 74q-111 0 -170.5 -75.5t-99.5 -271.5l-17 -80
q-41 -197 -15.5 -271t133.5 -74z" />
    <glyph glyph-name="uni1ED7" unicode="&#x1ed7;" 
d="M498 911q-24 0 -43.5 19.5t-37.5 38.5t-37 19q-26 0 -36.5 -12t-20.5 -40l-29 2q11 36 33.5 57t52.5 21q22 0 41.5 -19t38 -38.5t38.5 -19.5q25 0 36 11.5t19 37.5l29 -2q-11 -35 -33.5 -55t-50.5 -20zM474 697l-73 84l-109 -82l-20 18l136 102l93 -104zM236 -14
q-121 0 -151.5 69.5t9.5 257.5q31 146 105 232.5t165 86.5q120 0 150.5 -69.5t-8.5 -257.5q-30 -145 -104.5 -232t-165.5 -87zM233 14q81 0 146 80.5t95 218.5q37 167 14 229t-121 62q-82 0 -147.5 -81t-93.5 -218q-35 -167 -12.5 -229t119.5 -62z" />
    <glyph glyph-name="uni1ED8" unicode="&#x1ed8;" 
d="M513 882l-73 84l-109 -82l-20 18l136 102l93 -104zM234 -14q-88 0 -128 33t-45.5 116.5t27.5 225.5l17 80q46 216 109.5 294.5t190.5 78.5q129 0 160 -79t-15 -296l-17 -80q-46 -216 -109 -294.5t-190 -78.5zM235 14q110 0 168.5 75.5t100.5 271.5l17 80q42 197 17 271
t-134 74q-111 0 -170.5 -75.5t-99.5 -271.5l-17 -80q-41 -197 -15.5 -271t133.5 -74zM190 -225q-35 0 -45 11.5t-3 44.5q7 32 19.5 42t45.5 10q35 0 45 -12t3 -45q-6 -31 -19 -41t-46 -10z" />
    <glyph glyph-name="uni1ED9" unicode="&#x1ed9;" 
d="M474 697l-73 84l-109 -82l-20 18l136 102l93 -104zM236 -14q-121 0 -151.5 69.5t9.5 257.5q31 146 105 232.5t165 86.5q120 0 150.5 -69.5t-8.5 -257.5q-30 -145 -104.5 -232t-165.5 -87zM233 14q81 0 146 80.5t95 218.5q37 167 14 229t-121 62q-82 0 -147.5 -81
t-93.5 -218q-35 -167 -12.5 -229t119.5 -62zM190 -222q-35 0 -45 11.5t-3 44.5q7 32 19.5 42t45.5 10q35 0 45 -12t3 -45q-6 -31 -19 -41t-46 -10z" />
    <glyph glyph-name="uni1EDA" unicode="&#x1eda;" 
d="M554 984l-141 -106l-17 21l141 106zM734 901h30l-25 -122q-10 -51 -42.5 -81t-75.5 -30q-25 0 -44 15q8 -79 -27 -244l-17 -80q-46 -216 -109 -294.5t-190 -78.5q-88 0 -128 33t-45.5 116.5t27.5 225.5l17 80q46 216 109.5 294.5t190.5 78.5q74 0 114.5 -23.5t52.5 -79.5
l1 5q0 -4 5.5 -8.5t18 -8.5t28.5 -4q28 0 52 24.5t32 62.5zM521 441q42 197 17 271t-134 74q-111 0 -170.5 -75.5t-99.5 -271.5l-17 -80q-41 -197 -15.5 -271t133.5 -74q110 0 168.5 75.5t100.5 271.5z" />
    <glyph glyph-name="uni1EDB" unicode="&#x1edb;" 
d="M515 799l-141 -106l-17 21l141 106zM670 716h30l-25 -122q-10 -51 -42.5 -81t-75.5 -30q-14 0 -29 6q3 -65 -22 -184q-30 -145 -104.5 -232t-165.5 -87q-121 0 -151.5 69.5t9.5 257.5q31 146 105 232.5t165 86.5q78 0 116.5 -26.5t45.5 -89.5q18 -6 35 -6q28 0 52 24.5
t32 62.5zM474 313q37 167 14 229t-121 62q-82 0 -147.5 -81t-93.5 -218q-35 -167 -12.5 -229t119.5 -62q81 0 146 80.5t95 218.5z" />
    <glyph glyph-name="uni1EDC" unicode="&#x1edc;" 
d="M454 899l-23 -21l-99 106l23 21zM734 901h30l-25 -122q-10 -51 -42.5 -81t-75.5 -30q-25 0 -44 15q8 -79 -27 -244l-17 -80q-46 -216 -109 -294.5t-190 -78.5q-88 0 -128 33t-45.5 116.5t27.5 225.5l17 80q46 216 109.5 294.5t190.5 78.5q74 0 114.5 -23.5t52.5 -79.5
l1 5q0 -4 5.5 -8.5t18 -8.5t28.5 -4q28 0 52 24.5t32 62.5zM521 441q42 197 17 271t-134 74q-111 0 -170.5 -75.5t-99.5 -271.5l-17 -80q-41 -197 -15.5 -271t133.5 -74q110 0 168.5 75.5t100.5 271.5z" />
    <glyph glyph-name="uni1EDD" unicode="&#x1edd;" 
d="M415 714l-23 -21l-99 106l23 21zM670 716h30l-25 -122q-10 -51 -42.5 -81t-75.5 -30q-14 0 -29 6q3 -65 -22 -184q-30 -145 -104.5 -232t-165.5 -87q-121 0 -151.5 69.5t9.5 257.5q31 146 105 232.5t165 86.5q78 0 116.5 -26.5t45.5 -89.5q18 -6 35 -6q28 0 52 24.5
t32 62.5zM474 313q37 167 14 229t-121 62q-82 0 -147.5 -81t-93.5 -218q-35 -167 -12.5 -229t119.5 -62q81 0 146 80.5t95 218.5z" />
    <glyph glyph-name="uni1EDE" unicode="&#x1ede;" 
d="M477 927q4 16 -7 26.5t-26 10.5q-46 0 -86 -30l5 36q39 22 81 22q32 0 50 -21t11 -52q-5 -25 -30.5 -46.5t-69.5 -33.5l-4 27q67 20 76 61zM734 901h30l-25 -122q-10 -51 -42.5 -81t-75.5 -30q-25 0 -44 15q8 -79 -27 -244l-17 -80q-46 -216 -109 -294.5t-190 -78.5
q-88 0 -128 33t-45.5 116.5t27.5 225.5l17 80q46 216 109.5 294.5t190.5 78.5q74 0 114.5 -23.5t52.5 -79.5l1 5q0 -4 5.5 -8.5t18 -8.5t28.5 -4q28 0 52 24.5t32 62.5zM521 441q42 197 17 271t-134 74q-111 0 -170.5 -75.5t-99.5 -271.5l-17 -80q-41 -197 -15.5 -271
t133.5 -74q110 0 168.5 75.5t100.5 271.5z" />
    <glyph glyph-name="uni1EDF" unicode="&#x1edf;" 
d="M438 742q4 16 -7 26.5t-26 10.5q-46 0 -86 -30l5 36q39 22 81 22q32 0 50 -21t11 -52q-5 -25 -30.5 -46.5t-69.5 -33.5l-4 27q67 20 76 61zM670 716h30l-25 -122q-10 -51 -42.5 -81t-75.5 -30q-14 0 -29 6q3 -65 -22 -184q-30 -145 -104.5 -232t-165.5 -87
q-121 0 -151.5 69.5t9.5 257.5q31 146 105 232.5t165 86.5q78 0 116.5 -26.5t45.5 -89.5q18 -6 35 -6q28 0 52 24.5t32 62.5zM474 313q37 167 14 229t-121 62q-82 0 -147.5 -81t-93.5 -218q-35 -167 -12.5 -229t119.5 -62q81 0 146 80.5t95 218.5z" />
    <glyph glyph-name="uni1EE0" unicode="&#x1ee0;" 
d="M376 968q-26 0 -36.5 -12t-20.5 -40l-29 2q11 36 33.5 57t52.5 21q22 0 41.5 -19t38 -38.5t38.5 -19.5q25 0 36 11.5t19 37.5l29 -2q-11 -35 -33.5 -55t-50.5 -20q-24 0 -43.5 19.5t-37.5 38.5t-37 19zM734 901h30l-25 -122q-10 -51 -42.5 -81t-75.5 -30q-25 0 -44 15
q8 -79 -27 -244l-17 -80q-46 -216 -109 -294.5t-190 -78.5q-88 0 -128 33t-45.5 116.5t27.5 225.5l17 80q46 216 109.5 294.5t190.5 78.5q74 0 114.5 -23.5t52.5 -79.5l1 5q0 -4 5.5 -8.5t18 -8.5t28.5 -4q28 0 52 24.5t32 62.5zM521 441q42 197 17 271t-134 74
q-111 0 -170.5 -75.5t-99.5 -271.5l-17 -80q-41 -197 -15.5 -271t133.5 -74q110 0 168.5 75.5t100.5 271.5z" />
    <glyph glyph-name="uni1EE1" unicode="&#x1ee1;" 
d="M337 783q-26 0 -36.5 -12t-20.5 -40l-29 2q11 36 33.5 57t52.5 21q18 0 34 -12t26.5 -26.5t26 -26.5t31.5 -12q25 0 36 11.5t19 37.5l29 -2q-11 -35 -33.5 -55t-50.5 -20q-19 0 -35.5 12t-27 26.5t-25 26.5t-30.5 12zM670 716h30l-25 -122q-10 -51 -42.5 -81t-75.5 -30
q-14 0 -29 6q3 -65 -22 -184q-30 -145 -104.5 -232t-165.5 -87q-121 0 -151.5 69.5t9.5 257.5q31 146 105 232.5t165 86.5q78 0 116.5 -26.5t45.5 -89.5q18 -6 35 -6q28 0 52 24.5t32 62.5zM474 313q37 167 14 229t-121 62q-82 0 -147.5 -81t-93.5 -218q-35 -167 -12.5 -229
t119.5 -62q81 0 146 80.5t95 218.5z" />
    <glyph glyph-name="uni1EE2" unicode="&#x1ee2;" 
d="M734 901h30l-25 -122q-10 -51 -42.5 -81t-75.5 -30q-25 0 -44 15q8 -79 -27 -244l-17 -80q-46 -216 -109 -294.5t-190 -78.5q-88 0 -128 33t-45.5 116.5t27.5 225.5l17 80q46 216 109.5 294.5t190.5 78.5q74 0 114.5 -23.5t52.5 -79.5l1 5q0 -4 5.5 -8.5t18 -8.5t28.5 -4
q28 0 52 24.5t32 62.5zM521 441q42 197 17 271t-134 74q-111 0 -170.5 -75.5t-99.5 -271.5l-17 -80q-41 -197 -15.5 -271t133.5 -74q110 0 168.5 75.5t100.5 271.5zM207 -117q35 0 45 -12t3 -45q-6 -31 -19 -41t-46 -10q-35 0 -45 11.5t-3 44.5q7 32 19.5 42t45.5 10z" />
    <glyph glyph-name="uni1EE3" unicode="&#x1ee3;" 
d="M670 716h30l-25 -122q-10 -51 -42.5 -81t-75.5 -30q-14 0 -29 6q3 -65 -22 -184q-30 -145 -104.5 -232t-165.5 -87q-121 0 -151.5 69.5t9.5 257.5q31 146 105 232.5t165 86.5q78 0 116.5 -26.5t45.5 -89.5q18 -6 35 -6q28 0 52 24.5t32 62.5zM474 313q37 167 14 229
t-121 62q-82 0 -147.5 -81t-93.5 -218q-35 -167 -12.5 -229t119.5 -62q81 0 146 80.5t95 218.5zM207 -114q35 0 45 -12t3 -45q-6 -31 -19 -41t-46 -10q-35 0 -45 11.5t-3 44.5q7 32 19.5 42t45.5 10z" />
    <glyph glyph-name="uni1EE4" unicode="&#x1ee4;" 
d="M234 -14q-118 0 -147.5 64t7.5 239l108 511h30l-109 -513q-33 -155 -9 -214t121 -59q98 0 149 60t84 215l108 511h30l-109 -513q-37 -174 -92.5 -237.5t-170.5 -63.5zM190 -225q-35 0 -45 11.5t-3 44.5q7 32 19.5 42t45.5 10q35 0 45 -12t3 -45q-6 -31 -19 -41t-46 -10z
" />
    <glyph glyph-name="uni1EE5" unicode="&#x1ee5;" 
d="M82 592l-17 20q32 20 75 20q29 0 47 -14t17 -37q-2 -84 -85 -372q-28 -108 -8 -151.5t87 -43.5q52 0 108 57t92.5 129.5t49.5 132.5l61 285h31l-115 -543q-1 -5 -1.5 -12t-0.5 -9q-1 -18 11.5 -29t32.5 -11q11 0 25 5t19 10l17 -23q-32 -20 -75 -20q-28 0 -47 21.5
t-13 64.5l27 130q-46 -98 -102 -157t-117 -59q-187 0 -115 225q80 249 84 353q0 18 -12 29t-32 11q-24 0 -44 -12zM150 -222q-35 0 -45 11.5t-3 44.5q7 32 19.5 42t45.5 10q35 0 45 -12t3 -45q-6 -31 -19 -41t-46 -10z" />
    <glyph glyph-name="uni1EE6" unicode="&#x1ee6;" 
d="M405 839l-4 27q67 20 76 61q4 16 -7 26.5t-26 10.5q-46 0 -86 -30l5 36q39 22 81 22q32 0 50 -21t11 -52q-5 -25 -30.5 -46.5t-69.5 -33.5zM234 -14q-118 0 -147.5 64t7.5 239l108 511h30l-109 -513q-33 -155 -9 -214t121 -59q98 0 149 60t84 215l108 511h30l-109 -513
q-37 -174 -92.5 -237.5t-170.5 -63.5z" />
    <glyph glyph-name="uni1EE7" unicode="&#x1ee7;" 
d="M352 654l-4 27q67 20 76 61q4 16 -7 26.5t-26 10.5q-46 0 -86 -30l5 36q39 22 81 22q32 0 50 -21t11 -52q-5 -25 -30.5 -46.5t-69.5 -33.5zM82 592l-17 20q32 20 75 20q29 0 47 -14t17 -37q-2 -84 -85 -372q-28 -108 -8 -151.5t87 -43.5q52 0 108 57t92.5 129.5
t49.5 132.5l61 285h31l-115 -543q-1 -5 -1.5 -12t-0.5 -9q-1 -18 11.5 -29t32.5 -11q11 0 25 5t19 10l17 -23q-32 -20 -75 -20q-28 0 -47 21.5t-13 64.5l27 130q-46 -98 -102 -157t-117 -59q-187 0 -115 225q80 249 84 353q0 18 -12 29t-32 11q-24 0 -44 -12z" />
    <glyph glyph-name="uni1EE8" unicode="&#x1ee8;" 
d="M554 984l-141 -106l-17 21l141 106zM752 984h30l-26 -122q-10 -51 -42.5 -81.5t-75.5 -30.5q-19 0 -40 13l-101 -476q-37 -174 -92.5 -237.5t-170.5 -63.5q-118 0 -147.5 64t7.5 239l108 511h30l-109 -513q-33 -155 -9 -214t121 -59q98 0 149 60t84 215l108 511h30
l-3 -14q14 -8 39 -8q29 0 53 24t32 62z" />
    <glyph glyph-name="uni1EE9" unicode="&#x1ee9;" 
d="M501 799l-141 -106l-17 21l141 106zM683 804h30l-25 -122q-10 -51 -42.5 -81.5t-75.5 -30.5q-19 0 -38 11l-107 -506q-1 -5 -1.5 -12t-0.5 -9q-1 -18 11.5 -29t32.5 -11q11 0 25 5t19 10l17 -23q-32 -20 -75 -20q-28 0 -47 21.5t-13 64.5l27 130q-46 -98 -102 -157
t-117 -59q-187 0 -115 225q80 249 84 353q0 18 -12 29t-32 11q-24 0 -44 -12l-17 20q32 20 75 20q29 0 47 -14t17 -37q-2 -84 -85 -372q-28 -108 -8 -151.5t87 -43.5q52 0 108 57t92.5 129.5t49.5 132.5l61 285h31l-3 -13q16 -7 37 -7q28 0 52 24t32 62z" />
    <glyph glyph-name="uni1EEA" unicode="&#x1eea;" 
d="M454 899l-23 -21l-99 106l23 21zM752 984h30l-26 -122q-10 -51 -42.5 -81.5t-75.5 -30.5q-19 0 -40 13l-101 -476q-37 -174 -92.5 -237.5t-170.5 -63.5q-118 0 -147.5 64t7.5 239l108 511h30l-109 -513q-33 -155 -9 -214t121 -59q98 0 149 60t84 215l108 511h30l-3 -14
q14 -8 39 -8q29 0 53 24t32 62z" />
    <glyph glyph-name="uni1EEB" unicode="&#x1eeb;" 
d="M401 714l-23 -21l-99 106l23 21zM683 804h30l-25 -122q-10 -51 -42.5 -81.5t-75.5 -30.5q-19 0 -38 11l-107 -506q-1 -5 -1.5 -12t-0.5 -9q-1 -18 11.5 -29t32.5 -11q11 0 25 5t19 10l17 -23q-32 -20 -75 -20q-28 0 -47 21.5t-13 64.5l27 130q-46 -98 -102 -157t-117 -59
q-187 0 -115 225q80 249 84 353q0 18 -12 29t-32 11q-24 0 -44 -12l-17 20q32 20 75 20q29 0 47 -14t17 -37q-2 -84 -85 -372q-28 -108 -8 -151.5t87 -43.5q52 0 108 57t92.5 129.5t49.5 132.5l61 285h31l-3 -13q16 -7 37 -7q28 0 52 24t32 62z" />
    <glyph glyph-name="uni1EEC" unicode="&#x1eec;" 
d="M477 927q4 16 -7 26.5t-26 10.5q-46 0 -86 -30l5 36q39 22 81 22q32 0 50 -21t11 -52q-5 -25 -30.5 -46.5t-69.5 -33.5l-4 27q67 20 76 61zM752 984h30l-26 -122q-10 -51 -42.5 -81.5t-75.5 -30.5q-19 0 -40 13l-101 -476q-37 -174 -92.5 -237.5t-170.5 -63.5
q-118 0 -147.5 64t7.5 239l108 511h30l-109 -513q-33 -155 -9 -214t121 -59q98 0 149 60t84 215l108 511h30l-3 -14q14 -8 39 -8q29 0 53 24t32 62z" />
    <glyph glyph-name="uni1EED" unicode="&#x1eed;" 
d="M424 742q4 16 -7 26.5t-26 10.5q-46 0 -86 -30l5 36q39 22 81 22q32 0 50 -21t11 -52q-5 -25 -30.5 -46.5t-69.5 -33.5l-4 27q67 20 76 61zM683 804h30l-25 -122q-10 -51 -42.5 -81.5t-75.5 -30.5q-19 0 -38 11l-107 -506q-1 -5 -1.5 -12t-0.5 -9q-1 -18 11.5 -29
t32.5 -11q11 0 25 5t19 10l17 -23q-32 -20 -75 -20q-28 0 -47 21.5t-13 64.5l27 130q-46 -98 -102 -157t-117 -59q-187 0 -115 225q80 249 84 353q0 18 -12 29t-32 11q-24 0 -44 -12l-17 20q32 20 75 20q29 0 47 -14t17 -37q-2 -84 -85 -372q-28 -108 -8 -151.5t87 -43.5
q52 0 108 57t92.5 129.5t49.5 132.5l61 285h31l-3 -13q16 -7 37 -7q28 0 52 24t32 62z" />
    <glyph glyph-name="uni1EEE" unicode="&#x1eee;" 
d="M376 968q-26 0 -36.5 -12t-20.5 -40l-29 2q11 36 33.5 57t52.5 21q22 0 41.5 -19t38 -38.5t38.5 -19.5q25 0 36 11.5t19 37.5l29 -2q-11 -35 -33.5 -55t-50.5 -20q-24 0 -43.5 19.5t-37.5 38.5t-37 19zM752 984h30l-26 -122q-10 -51 -42.5 -81.5t-75.5 -30.5
q-19 0 -40 13l-101 -476q-37 -174 -92.5 -237.5t-170.5 -63.5q-118 0 -147.5 64t7.5 239l108 511h30l-109 -513q-33 -155 -9 -214t121 -59q98 0 149 60t84 215l108 511h30l-3 -14q14 -8 39 -8q29 0 53 24t32 62z" />
    <glyph glyph-name="uni1EEF" unicode="&#x1eef;" 
d="M323 783q-26 0 -36.5 -12t-20.5 -40l-29 2q11 36 33.5 57t52.5 21q18 0 34 -12t26.5 -26.5t26 -26.5t31.5 -12q25 0 36 11.5t19 37.5l29 -2q-11 -35 -33.5 -55t-50.5 -20q-19 0 -35.5 12t-27 26.5t-25 26.5t-30.5 12zM683 804h30l-25 -122q-10 -51 -42.5 -81.5
t-75.5 -30.5q-19 0 -38 11l-107 -506q-1 -5 -1.5 -12t-0.5 -9q-1 -18 11.5 -29t32.5 -11q11 0 25 5t19 10l17 -23q-32 -20 -75 -20q-28 0 -47 21.5t-13 64.5l27 130q-46 -98 -102 -157t-117 -59q-187 0 -115 225q80 249 84 353q0 18 -12 29t-32 11q-24 0 -44 -12l-17 20
q32 20 75 20q29 0 47 -14t17 -37q-2 -84 -85 -372q-28 -108 -8 -151.5t87 -43.5q52 0 108 57t92.5 129.5t49.5 132.5l61 285h31l-3 -13q16 -7 37 -7q28 0 52 24t32 62z" />
    <glyph glyph-name="uni1EF0" unicode="&#x1ef0;" 
d="M752 984h30l-26 -122q-10 -51 -42.5 -81.5t-75.5 -30.5q-19 0 -40 13l-101 -476q-37 -174 -92.5 -237.5t-170.5 -63.5q-118 0 -147.5 64t7.5 239l108 511h30l-109 -513q-33 -155 -9 -214t121 -59q98 0 149 60t84 215l108 511h30l-3 -14q14 -8 39 -8q29 0 53 24t32 62z
M207 -117q35 0 45 -12t3 -45q-6 -31 -19 -41t-46 -10q-35 0 -45 11.5t-3 44.5q7 32 19.5 42t45.5 10z" />
    <glyph glyph-name="uni1EF1" unicode="&#x1ef1;" 
d="M683 804h30l-25 -122q-10 -51 -42.5 -81.5t-75.5 -30.5q-19 0 -38 11l-107 -506q-1 -5 -1.5 -12t-0.5 -9q-1 -18 11.5 -29t32.5 -11q11 0 25 5t19 10l17 -23q-32 -20 -75 -20q-28 0 -47 21.5t-13 64.5l27 130q-46 -98 -102 -157t-117 -59q-187 0 -115 225q80 249 84 353
q0 18 -12 29t-32 11q-24 0 -44 -12l-17 20q32 20 75 20q29 0 47 -14t17 -37q-2 -84 -85 -372q-28 -108 -8 -151.5t87 -43.5q52 0 108 57t92.5 129.5t49.5 132.5l61 285h31l-3 -13q16 -7 37 -7q28 0 52 24t32 62zM167 -114q35 0 45 -12t3 -45q-6 -31 -19 -41t-46 -10
q-35 0 -45 11.5t-3 44.5q7 32 19.5 42t45.5 10z" />
    <glyph glyph-name="Ygrave" unicode="&#x1ef2;" 
d="M431 878l-99 106l23 21l99 -106zM219 0l68 314l-125 486h33l114 -449l305 449h33l-330 -486l-68 -314h-30z" />
    <glyph glyph-name="ygrave" unicode="&#x1ef3;" 
d="M392 693l-99 106l23 21l99 -106zM115 -206q-44 0 -71.5 17.5t-28.5 45.5q0 49 96.5 76.5t265.5 26.5q18 29 33.5 79t18.5 81q-5 -39 -56.5 -56.5t-107.5 -17.5q-73 0 -112 51.5t-20 110.5q37 112 60 212t23 144q0 18 -12 29t-32 11q-24 0 -44 -12l-17 20q32 20 75 20
q28 0 45 -14t17 -37q-2 -107 -81 -370q-20 -62 8.5 -99.5t85.5 -37.5q26 0 44.5 1.5t43.5 9.5t41.5 22t32 40t23.5 63l87 408h31q-71 -339 -104 -484t-49 -172q65 0 84 3l-1 -23q-35 -9 -95 -6q-35 -64 -113 -103t-171 -39zM123 -178q71 0 140 31.5t108 82.5
q-152 -3 -238.5 -25t-85.5 -58q0 -31 76 -31z" />
    <glyph glyph-name="uni1EF4" unicode="&#x1ef4;" 
d="M219 0l68 314l-125 486h33l114 -449l305 449h33l-330 -486l-68 -314h-30zM190 -225q-35 0 -45 11.5t-3 44.5q7 32 19.5 42t45.5 10q35 0 45 -12t3 -45q-6 -31 -19 -41t-46 -10z" />
    </font>
</defs>
</svg>
