<?xml version="1.0" standalone="no"?>
<!DOCTYPE svg PUBLIC "-//W3C//DTD SVG 1.1//EN" "http://www.w3.org/Graphics/SVG/1.1/DTD/svg11.dtd" >
<svg xmlns="http://www.w3.org/2000/svg" xmlns:xlink="http://www.w3.org/1999/xlink" version="1.1">
<metadata>
Created by FontForge 20170731 at Wed Oct 23 13:47:35 2019
 By Aleksey,,,
Copyright (c) 2019 by Rune Bjrneras. All rights reserved.
</metadata>
<defs>
<font id="VictorMono-Italic" horiz-adv-x="600" >
  <font-face 
    font-family="Victor Mono"
    font-weight="400"
    font-style="italic"
    font-stretch="normal"
    units-per-em="1100"
    panose-1="0 0 5 9 0 0 0 0 0 0"
    ascent="880"
    descent="-220"
    x-height="618"
    cap-height="800"
    bbox="-1791 -340 842 1110"
    underline-thickness="50"
    underline-position="-200"
    slope="-12"
    unicode-range="U+0020-E0B3"
  />
<missing-glyph 
d="M2 0l173 814h354l-173 -814h-354zM76 57h230l150 700h-230z" />
    <glyph glyph-name=".notdef" 
d="M2 0l173 814h354l-173 -814h-354zM76 57h230l150 700h-230z" />
    <glyph glyph-name=".null" horiz-adv-x="144" 
 />
    <glyph glyph-name="nonmarkingreturn" horiz-adv-x="366" 
 />
    <glyph glyph-name="space" unicode=" " 
 />
    <glyph glyph-name="exclam" unicode="!" 
d="M251 227l112 573h82l-132 -573h-62zM237 -14q-43 0 -57.5 16.5t-5.5 56.5q7 37 25 50.5t56 13.5q43 0 57.5 -16.5t5.5 -56.5q-8 -37 -25.5 -50.5t-55.5 -13.5z" />
    <glyph glyph-name="quotedbl" unicode="&#x22;" 
d="M185 481l57 319h82l-78 -319h-61zM427 481l57 319h82l-78 -319h-61z" />
    <glyph glyph-name="numbersign" unicode="#" 
d="M618 509h-104l-73 -218h110l-12 -58h-118l-78 -233h-63l79 233h-191l-79 -233h-62l78 233h-96l12 58h104l73 218h-110l12 58h118l78 233h63l-79 -233h191l79 233h62l-78 -233h96zM378 291l74 218h-191l-74 -218h191z" />
    <glyph glyph-name="dollar" unicode="$" 
d="M437 813q73 -4 110 -26.5t58 -74.5l-51 -42q-13 46 -41 65t-88 22l-67 -316q105 -38 138 -88t13 -140q-25 -124 -79 -173t-168 -54l-15 -70h-62l15 71q-81 4 -120.5 30t-59.5 87l55 39q12 -53 42 -75t95 -24l77 362q-96 37 -127 82t-14 122q23 111 72 155.5t155 48.5
l16 75h62zM208 600q-12 -52 8 -82.5t85 -55.5l62 293q-69 -6 -103.5 -41t-51.5 -114zM450 223q14 60 -9 96t-95 65l-72 -340q78 7 117 47t59 132z" />
    <glyph glyph-name="percent" unicode="%" 
d="M203 498q-87 0 -114 33.5t-8 121.5q18 84 55 115t120 31q88 0 114.5 -34t7.5 -122q-17 -84 -54.5 -114.5t-120.5 -30.5zM204 555q52 0 77.5 21.5t37.5 76.5q11 52 -2.5 70.5t-61.5 18.5q-52 0 -77 -22t-37 -77q-11 -51 2.5 -69.5t60.5 -18.5zM-38 90l632 620h83
l-632 -620h-83zM381 1q-86 0 -113 34t-8 122q18 84 54.5 114.5t119.5 30.5q88 0 115 -33.5t8 -121.5q-17 -84 -54.5 -115t-121.5 -31zM382 58q53 0 78.5 22t36.5 77q11 51 -2 69.5t-62 18.5q-51 0 -76 -21.5t-37 -76.5q-11 -52 2 -70.5t60 -18.5z" />
    <glyph glyph-name="ampersand" unicode="&#x26;" 
d="M589 360h-84q-34 -141 -114 -238q47 -59 110 -123l-85 2q-24 25 -68 77q-101 -92 -227 -92q-78 0 -115.5 50t-20.5 131q22 104 165 233q-53 142 -33 238q17 80 67.5 128t117.5 48q70 0 103.5 -48.5t16.5 -127.5q-14 -61 -60 -126.5t-109 -109.5q-10 -6 -28 -20
q49 -106 129 -212q61 79 89 190h-80l12 58h226zM177 631q-16 -77 24 -189q2 2 8 6q58 39 100.5 94t52.5 106q10 49 -7.5 79t-57.5 30q-41 0 -74.5 -35t-45.5 -91zM123 43q103 0 189 80q-85 110 -137 219q-113 -100 -130 -184q-11 -52 10 -83.5t68 -31.5z" />
    <glyph glyph-name="quotesingle" unicode="'" 
d="M306 481l57 319h82l-78 -319h-61z" />
    <glyph glyph-name="parenleft" unicode="(" 
d="M352 -145q-85 0 -136 69.5t-59.5 191.5t24.5 289q52 244 160.5 392t237.5 148l-7 -57q-101 0 -192.5 -136t-137.5 -357q-47 -217 -15 -350t132 -133z" />
    <glyph glyph-name="parenright" unicode=")" 
d="M60 -145l7 57q101 0 192 136t138 357q47 217 15 350t-132 133l7 57q128 0 175.5 -151.5t-4.5 -398.5q-53 -244 -161.5 -392t-236.5 -148z" />
    <glyph glyph-name="asterisk" unicode="*" 
d="M587 511l-210 -111l164 -110l-42 -49l-160 107l-46 -218h-62l46 217l-202 -107l-23 50l210 111l-164 110l42 49l160 -107l46 218h62l-46 -217l202 107z" />
    <glyph glyph-name="plus" unicode="+" 
d="M599 429l-12 -58h-245l-52 -245h-57l52 245h-246l13 58h245l52 245h57l-52 -245h245z" />
    <glyph glyph-name="comma" unicode="," 
d="M82 -202l119 193q-40 10 -27 68q7 37 25 50.5t56 13.5q43 0 57.5 -16.5t5.5 -56.5q-17 -80 -168 -254z" />
    <glyph glyph-name="hyphen" unicode="-" 
d="M127 371l12 58h372l-12 -58h-372z" />
    <glyph glyph-name="period" unicode="." 
d="M237 -14q-43 0 -57.5 16.5t-5.5 56.5q7 37 25 50.5t56 13.5q43 0 57.5 -16.5t5.5 -56.5q-8 -37 -25.5 -50.5t-55.5 -13.5z" />
    <glyph glyph-name="slash" unicode="/" 
d="M-44 -182l653 1130h66l-653 -1130h-66z" />
    <glyph glyph-name="zero" unicode="0" 
d="M237 -14q-104 0 -149.5 117.5t-6.5 301.5q38 180 129.5 294.5t191.5 114.5q103 0 148.5 -117.5t7.5 -301.5q-39 -180 -130.5 -294.5t-190.5 -114.5zM238 43q76 0 151 102t108 260q32 157 3.5 254.5t-99.5 97.5q-76 0 -151 -102t-108 -260q-32 -157 -3.5 -254.5
t99.5 -97.5zM314 347q-28 0 -41.5 16t-8.5 42q4 21 21 33.5t40 12.5q27 0 41 -15.5t9 -40.5q-5 -22 -22 -35t-39 -13z" />
    <glyph glyph-name="one" unicode="1" 
d="M435 798q-2 -10 -4 -15l-154 -726h142l-12 -57h-346l12 57h142l124 584q-72 -56 -171 -56l8 57q70 0 122.5 39.5t71.5 105.5l3 13h1v2l31 -2h30v-2z" />
    <glyph glyph-name="two" unicode="2" 
d="M-2 0l12 54q9 41 40 81t74 74t94 68.5t103 71t96 75.5t77.5 89t44.5 104q17 82 -11.5 111t-127.5 29q-103 0 -148 -33t-63 -120l-61 5q24 118 82 161.5t191 43.5q136 0 180 -45t19 -161q-17 -82 -74 -154t-127 -123t-139 -95.5t-122 -90.5t-65 -90l407 2l-12 -57h-470z
" />
    <glyph glyph-name="three" unicode="3" 
d="M237 -14q-130 0 -170.5 45.5t-16.5 161.5l62 -5q-19 -85 7 -115t119 -30q95 0 139.5 37.5t65.5 135.5q21 99 -0.5 136t-102.5 42h-78l12 58h73q85 5 123 38t57 119q18 86 -8.5 117t-117.5 31q-97 0 -139 -29.5t-59 -108.5l-61 5q23 110 78 150t182 40q129 0 170 -47.5
t15 -167.5q-16 -75 -43.5 -112.5t-87.5 -65.5q46 -27 56.5 -73t-9.5 -142q-27 -125 -84.5 -172.5t-181.5 -47.5z" />
    <glyph glyph-name="four" unicode="4" 
d="M337 0l46 213h-345l10 53l466 534h55l-112 -530h74l-12 -57h-74l-46 -213h-62zM127 270h268l89 413z" />
    <glyph glyph-name="five" unicode="5" 
d="M237 -14q-135 0 -177 43t-19 153l61 -5q-17 -79 11 -106.5t125 -27.5q106 0 156 44.5t75 160.5q24 113 -4.5 154t-131.5 41q-41 0 -77.5 -13.5t-92.5 -49.5l-60 1l89 419h431l-11 -56h-369l-65 -297q38 30 73 41.5t85 11.5q140 0 182 -57t11 -205q-31 -143 -93.5 -197.5
t-198.5 -54.5z" />
    <glyph glyph-name="six" unicode="6" 
d="M237 -14q-134 0 -174 56.5t-9 200.5l64 300q33 155 93.5 213t190.5 58q134 0 176 -45.5t17 -163.5l-61 5q18 87 -9 117t-124 30q-100 0 -148 -47.5t-74 -171.5l-25 -109q36 39 76 54t105 15q134 0 173.5 -57t7.5 -204q-30 -143 -90 -197t-189 -54zM238 43q100 0 147 44
t72 160q24 113 -2 153t-122 40q-100 0 -147 -43.5t-72 -160.5q-23 -112 3 -152.5t121 -40.5z" />
    <glyph glyph-name="seven" unicode="7" 
d="M88 2q166 356 467 743l-397 -2l11 57h465l-11 -59q-309 -395 -471 -743z" />
    <glyph glyph-name="eight" unicode="8" 
d="M237 -14q-139 0 -181.5 52t-13.5 186q19 88 50.5 132t98.5 72q-40 26 -50 64.5t6 116.5q25 116 79.5 160.5t175.5 44.5q124 0 163.5 -47.5t13.5 -167.5q-16 -74 -41.5 -111t-79.5 -65q53 -27 66.5 -71.5t-5.5 -137.5q-27 -130 -88 -179t-194 -49zM325 452q91 0 133 33.5
t61 123.5q18 86 -6.5 117t-111.5 31q-91 0 -133 -34.5t-61 -123.5q-19 -87 6 -117t112 -30zM238 43q105 0 152.5 39t69.5 142q21 100 -7.5 135t-128.5 35q-105 0 -152.5 -38t-70.5 -142q-20 -99 8.5 -135t128.5 -36z" />
    <glyph glyph-name="nine" unicode="9" 
d="M237 -14q-135 0 -176.5 46t-16.5 164l61 -5q-19 -87 8.5 -117.5t124.5 -30.5q100 0 148 47.5t74 171.5l25 109q-36 -39 -76 -54t-105 -15q-134 0 -173.5 57t-8.5 204q31 143 91 197t189 54q133 0 173 -56.5t10 -200.5l-64 -300q-33 -155 -94 -213t-190 -58zM305 360
q100 0 147.5 43.5t72.5 160.5q23 112 -3 152.5t-121 40.5q-100 0 -147 -44t-72 -160q-24 -113 1.5 -153t121.5 -40z" />
    <glyph glyph-name="colon" unicode=":" 
d="M342 481q-43 0 -57.5 16.5t-5.5 56.5q8 37 25.5 50.5t55.5 13.5q43 0 57.5 -16.5t5.5 -56.5q-7 -37 -25 -50.5t-56 -13.5zM237 -14q-43 0 -57.5 16.5t-5.5 56.5q7 37 25 50.5t56 13.5q43 0 57.5 -16.5t5.5 -56.5q-8 -37 -25.5 -50.5t-55.5 -13.5z" />
    <glyph glyph-name="semicolon" unicode=";" 
d="M342 481q-43 0 -57.5 16.5t-5.5 56.5q8 37 25.5 50.5t55.5 13.5q43 0 57.5 -16.5t5.5 -56.5q-7 -37 -25 -50.5t-56 -13.5zM82 -202l119 193q-40 10 -27 68q7 37 25 50.5t56 13.5q43 0 57.5 -16.5t5.5 -56.5q-17 -80 -168 -254z" />
    <glyph glyph-name="less" unicode="&#x3c;" 
d="M427 42l-334 358l483 358l33 -42l-425 -316l292 -316z" />
    <glyph glyph-name="equal" unicode="=" 
d="M65 491l13 58h547l-13 -58h-547zM14 251l13 58h547l-13 -58h-547z" />
    <glyph glyph-name="greater" unicode="&#x3e;" 
d="M63 42l-34 42l425 316l-291 316l48 42l334 -358z" />
    <glyph glyph-name="question" unicode="?" 
d="M252 238q11 50 33.5 83.5t48.5 49.5t57 35.5t58.5 40t52 64t37.5 106.5q17 82 -11.5 111t-127.5 29q-103 0 -148 -33t-63 -120l-61 5q24 118 82 161.5t191 43.5q136 0 180 -45t19 -161q-15 -70 -41 -120t-54 -73.5t-59 -43.5t-57 -33t-47 -39.5t-29 -64.5zM237 -14
q-43 0 -57.5 16.5t-5.5 56.5q7 37 25 50.5t56 13.5q43 0 57.5 -16.5t5.5 -56.5q-8 -37 -25.5 -50.5t-55.5 -13.5z" />
    <glyph glyph-name="at" unicode="@" 
d="M239 -1q-170 0 -216 92.5t5 332.5q46 215 126 296t245 81q170 0 218 -84.5t2 -302.5q-32 -147 -66 -202t-96 -55q-31 0 -44.5 13t-15.5 43q-29 -38 -57 -51.5t-71 -13.5q-86 0 -113 37t-7 128l33 157q22 104 62 143t121 39q89 0 115.5 -41.5t4.5 -145.5l-37 -174
q-10 -47 -8 -62t18 -15q30 0 53 46.5t47 163.5q40 184 5.5 252t-165.5 68q-136 0 -203 -71.5t-106 -258.5q-44 -206 -11.5 -282t163.5 -76q32 0 55 9t56 35l23 -54q-74 -47 -136 -47zM270 205q55 0 83 30.5t45 110.5l26 124q16 74 3 99.5t-63 25.5q-52 0 -78.5 -28.5
t-42.5 -101.5l-33 -157q-13 -61 -0.5 -82t60.5 -21z" />
    <glyph glyph-name="A" unicode="A" 
d="M427 0l-13 210h-269l-102 -210h-65l392 800h68l52 -800h-63zM173 268h238l-27 434z" />
    <glyph glyph-name="B" unicode="B" 
d="M22 0l170 800h194q124 0 164 -45.5t15 -160.5q-15 -73 -42.5 -109t-86.5 -58q62 -21 78.5 -65.5t-3.5 -139.5q-27 -126 -84 -174t-181 -48h-224zM180 452h132q91 0 133 32t61 120q17 81 -9.5 110t-117.5 29h-136zM96 57h157q91 0 134.5 38t64.5 137q20 95 -5.5 128.5
t-116.5 33.5h-162z" />
    <glyph glyph-name="C" unicode="C" 
d="M252 -14q-96 0 -141.5 39t-51.5 132t29 249q50 233 120.5 320.5t208.5 87.5q95 0 135.5 -38t49.5 -135l-61 -16q-8 77 -34 104.5t-91 27.5q-108 0 -166 -78.5t-101 -282.5q-44 -202 -21.5 -277.5t125.5 -75.5q68 0 108.5 29t82.5 105l56 -25q-50 -96 -103 -131t-145 -35z
" />
    <glyph glyph-name="D" unicode="D" 
d="M415 800q133 0 166 -88.5t-15 -316.5q-49 -225 -116.5 -310t-199.5 -85h-237l170 800h232zM505 405q42 193 21.5 265.5t-118.5 72.5h-176l-144 -686h169q98 0 152.5 76t95.5 272z" />
    <glyph glyph-name="E" unicode="E" 
d="M625 743h-376l-60 -291h239l-12 -58h-241l-70 -337h373l-12 -57h-436l170 800h436z" />
    <glyph glyph-name="F" unicode="F" 
d="M626 743h-375l-70 -337h238l-11 -58h-242l-73 -348h-62l170 800h436z" />
    <glyph glyph-name="G" unicode="G" 
d="M256 -14q-149 0 -186 90t13 329q50 234 122 321.5t216 87.5q103 0 144.5 -42t47.5 -150l-60 -10q-4 84 -32.5 114.5t-100.5 30.5q-113 0 -173 -78.5t-103 -283.5q-44 -202 -20 -277t133 -75q68 0 108.5 27t79.5 95l41 183h-174l11 58h236l-53 -255q-51 -95 -104.5 -130
t-145.5 -35z" />
    <glyph glyph-name="H" unicode="H" 
d="M564 800h62l-170 -800h-62l84 394h-320l-84 -394h-62l170 800h62l-74 -348h320z" />
    <glyph glyph-name="I" unicode="I" 
d="M586 743h-163l-146 -686h162l-12 -57h-386l12 57h162l146 686h-161l11 57h386z" />
    <glyph glyph-name="J" unicode="J" 
d="M201 -14q-96 0 -136.5 37.5t-48.5 133.5l59 11q7 -73 33.5 -99t93.5 -26q107 0 163 68t93 245l83 387h-131l11 57h193l-95 -449q-44 -208 -112.5 -286.5t-205.5 -78.5z" />
    <glyph glyph-name="K" unicode="K" 
d="M670 800l-377 -363l208 -437h-71l-188 394h-78l-84 -394h-62l170 800h62l-74 -348h53l362 348h79z" />
    <glyph glyph-name="L" unicode="L" 
d="M49 0l170 800h62l-158 -743h335l-12 -57h-397z" />
    <glyph glyph-name="M" unicode="M" 
d="M-12 0l184 800h61l74 -449l267 449h62l-156 -800h-62l126 642l-225 -386h-59l-61 386l-149 -642h-62z" />
    <glyph glyph-name="N" unicode="N" 
d="M562 800h62l-170 -800h-65l-171 670l-142 -670h-62l170 800h66l170 -667z" />
    <glyph glyph-name="O" unicode="O" 
d="M237 -14q-138 0 -174 82.5t9 293.5l17 80q45 212 112 292t201 80q138 0 173.5 -82.5t-9.5 -293.5l-17 -80q-45 -212 -112 -292t-200 -80zM238 43q103 0 157.5 69.5t92.5 249.5l17 80q39 181 17 248t-121 67q-104 0 -158.5 -69.5t-92.5 -249.5l-17 -80
q-38 -181 -15.5 -248t120.5 -67z" />
    <glyph glyph-name="P" unicode="P" 
d="M422 800q125 0 163.5 -51t10.5 -180q-26 -127 -83 -174t-182 -47h-161l-74 -348h-62l170 800h218zM537 579q20 95 -5.5 129.5t-116.5 34.5h-162l-71 -338h155q92 0 135 37t65 137z" />
    <glyph glyph-name="Q" unicode="Q" 
d="M472 -126q50 0 93.5 16t72.5 35.5t82.5 37.5t119.5 22l-13 -58q-44 -3 -80.5 -15.5t-63.5 -28t-55.5 -30.5t-68.5 -25.5t-89 -10.5q-32 0 -60.5 7.5t-55 23.5t-44.5 29.5t-45.5 37t-41.5 34.5q-5 -3 -19 -13.5t-19.5 -14t-17.5 -10.5t-20.5 -10t-20 -5.5t-23.5 -2.5
q-50 0 -71 28.5t-6 74.5q13 39 45 56q-47 80 1 310l17 80q45 212 112.5 292t201.5 80q137 0 172 -82.5t-10 -293.5l-16 -80q-39 -183 -93.5 -266t-151.5 -101q-18 -6 -26 -10q4 -4 24 -22t26.5 -23t23.5 -18.5t27.5 -18.5t27 -12.5t32 -10t33.5 -2.5zM133 358
q-30 -141 -22.5 -211.5t56.5 -91.5l6 -3q27 -9 66 -9q103 0 157.5 69.5t91.5 249.5l17 80q38 181 16 248t-121 67q-104 0 -159 -69.5t-92 -249.5zM105 -50q6 0 12 1.5t12.5 5.5t10.5 7l14 10.5t15 11.5q-13 8 -27 12l-7 3q-42 12 -53 -17q-7 -15 -0.5 -24.5t23.5 -9.5z" />
    <glyph glyph-name="R" unicode="R" 
d="M414 800q125 0 163.5 -51t10.5 -180q-25 -124 -80 -171.5t-173 -49.5l155 -348h-70l-156 348h-102l-74 -348h-62l170 800h218zM529 579q20 95 -5.5 129.5t-116.5 34.5h-160l-72 -338h154q92 0 135 37t65 137z" />
    <glyph glyph-name="S" unicode="S" 
d="M237 -14q-101 0 -148 26t-69 92l55 39q13 -59 46.5 -79.5t116.5 -20.5q98 0 144 39t68 141q14 68 -13 103t-116 68q-116 40 -153.5 86t-19.5 130q25 116 79 160t175 44q92 0 136 -22.5t67 -79.5l-51 -42q-14 51 -46 69t-107 18q-91 0 -132.5 -34t-60.5 -123
q-13 -59 12 -89t107 -59q124 -40 163.5 -91.5t18.5 -147.5q-27 -129 -85.5 -178t-186.5 -49z" />
    <glyph glyph-name="T" unicode="T" 
d="M678 800l-11 -57h-244l-158 -743h-62l158 743h-242l11 57h548z" />
    <glyph glyph-name="U" unicode="U" 
d="M237 -14q-126 0 -160.5 69t3.5 244l106 501h62l-107 -506q-31 -145 -10.5 -198t107.5 -53q91 0 138 55.5t78 200.5l106 501h62l-107 -506q-38 -176 -97.5 -242t-180.5 -66z" />
    <glyph glyph-name="V" unicode="V" 
d="M202 0l-51 800h66l40 -687l334 687h68l-391 -800h-66z" />
    <glyph glyph-name="W" unicode="W" 
d="M72 0l61 800h62l-53 -652l177 394h60l9 -394l225 652h64l-279 -800h-61l-12 420l-191 -420h-62z" />
    <glyph glyph-name="X" unicode="X" 
d="M652 800l-298 -399l130 -401h-70l-109 336l-251 -336h-67l298 399l-130 401h70l109 -336l251 336h67z" />
    <glyph glyph-name="Y" unicode="Y" 
d="M203 0l66 304l-131 496h67l109 -418l289 418h69l-341 -496l-66 -304h-62z" />
    <glyph glyph-name="Z" unicode="Z" 
d="M449 -63q-46 0 -137.5 37.5t-148.5 37.5q-5 0 -55.5 -6t-120.5 -6l10 48l567 695h-416l11 57h492l-10 -49l-564 -692q17 0 47.5 5t51.5 5q52 0 104 -18.5t98 -37.5t83 -19q46 0 116 32t125 31l-14 -57q-27 2 -58 -14t-76 -32.5t-105 -16.5z" />
    <glyph glyph-name="bracketleft" unicode="[" 
d="M589 888h-231l-205 -976h228l-12 -57h-292l232 1090h292z" />
    <glyph glyph-name="backslash" unicode="\" 
d="M370 -182l-172 1130h63l172 -1130h-63z" />
    <glyph glyph-name="bracketright" unicode="]" 
d="M279 945h292l-232 -1090h-292l12 57h232l204 976h-229z" />
    <glyph glyph-name="asciicircum" unicode="^" 
d="M548 568l-154 172l-229 -170l-41 37l283 213l195 -215z" />
    <glyph glyph-name="underscore" unicode="_" 
d="M-80 -182l11 57h552l-11 -57h-552z" />
    <glyph glyph-name="grave" unicode="`" 
d="M444 626l-157 176l51 46l157 -176z" />
    <glyph glyph-name="a" unicode="a" 
d="M499 69l28 -47q-31 -36 -96 -36q-33 0 -53 16.5t-21 43.5q0 37 6 52q-29 -51 -73 -81.5t-90 -30.5q-78 0 -125.5 49t-46.5 128q0 102 51 212.5t130 183.5t154 73q149 0 149 -91q1 -18 -90 -440q-6 -27 -0.5 -42.5t29.5 -15.5q25 0 48 26zM202 43q57 0 111 59.5t84 154.5
q54 257 55 277q-1 24 -21 32.5t-70 8.5q-56 0 -120.5 -65.5t-108.5 -162.5t-44 -181q1 -56 32 -89.5t82 -33.5z" />
    <glyph glyph-name="b" unicode="b" 
d="M595 444l-12 -58h-57q-43 -180 -124 -290t-171 -110q-113 0 -146 70t-8 208l114 536h62l-115 -536q-13 -70 -13 -119t26 -75.5t83 -26.5q65 0 129 96.5t103 251.5q-47 2 -74.5 25.5t-28.5 66.5q0 38 25 63t67 25q50 0 70 -31.5t12 -96.5q8 0 27 0.5t31 0.5zM411 489
q0 -45 66 -45q15 82 -30 82q-18 0 -27 -11t-9 -26z" />
    <glyph glyph-name="c" unicode="c" 
d="M429 129l47 -35q-53 -63 -104.5 -85.5t-141.5 -22.5q-126 0 -160.5 70.5t5.5 256.5q30 138 119 228.5t188 90.5q76 0 115 -24t68 -87l-55 -27q-23 47 -50.5 64t-80.5 17q-76 0 -148 -76.5t-98 -193.5q-31 -151 -9 -206.5t109 -55.5q71 0 110 17.5t86 68.5z" />
    <glyph glyph-name="d" unicode="d" 
d="M480 43q25 0 48 26l28 -47q-31 -36 -96 -36q-73 0 -73 66q-51 -66 -196 -66q-114 0 -143.5 71t8.5 255q30 146 111 233t192 87q46 0 80.5 -22t45.5 -58l54 248h62l-149 -699q-7 -26 -1.5 -42t29.5 -16zM194 43q71 0 126.5 23.5t75.5 61.5l63 287q10 72 -18.5 116
t-84.5 44q-87 0 -151 -73.5t-91 -197.5q-31 -148 -13 -204.5t93 -56.5z" />
    <glyph glyph-name="e" unicode="e" 
d="M262 46q51 0 108.5 25.5t99.5 66.5l30 -51q-49 -46 -116.5 -73.5t-129.5 -27.5q-72 0 -120 51t-48 130v12q-32 -12 -46 -26l-28 50q17 21 78 41q17 174 101.5 281t209.5 107q136 0 136 -132q0 -31 -8.5 -58.5t-19.5 -49t-34 -43t-39.5 -35t-49.5 -30t-50.5 -24.5
t-56.5 -21l-52.5 -17.5t-52.5 -15.5q-18 -5 -27 -8q-1 -11 -1 -33q0 -52 34 -85.5t82 -33.5zM398 575q-93 0 -160 -85.5t-86 -227.5q147 41 203 70q122 62 122 165q0 37 -23 57.5t-56 20.5z" />
    <glyph glyph-name="f" unicode="f" horiz-adv-x="602" 
d="M187 -206q-45 0 -72.5 29.5t-26.5 77.5q-2 141 73 406q-103 59 -103 97q0 20 22 32t60 12h65q59 190 113.5 278t135.5 88q137 0 158 -144l-57 -22q-7 56 -27.5 82.5t-67.5 26.5q-26 0 -48 -14.5t-38.5 -36t-36 -66t-33.5 -83.5t-38 -109h251l-12 -58h-258
q-3 -7 -9.5 -26.5t-8.5 -26.5q150 -117 150 -255q0 -129 -52.5 -208.5t-139.5 -79.5zM175 356l13 39q-8 0 -30 4t-32.5 5t-18.5 -3q-6 -8 23 -23q12 -6 37 -18zM188 -149q58 0 94 63t36 165q0 103 -108 193q-60 -223 -62 -368q1 -24 12 -38.5t28 -14.5z" />
    <glyph glyph-name="g" unicode="g" 
d="M115 -206q-50 0 -81 20.5t-30 53.5q0 58 99 90.5t271 32.5q18 29 35 111q-17 -24 -70 -40t-104 -16q-78 0 -125.5 47.5t-47.5 125.5q0 98 53.5 195.5t135 157.5t158.5 60q72 0 111 -21t38 -70q0 -38 -51.5 -272.5t-71.5 -278.5q51 2 89 13l-16 -58q-34 -10 -99 -10
q-40 -64 -120.5 -102.5t-173.5 -38.5zM237 103q97 0 139 22t58 95q63 296 64 314q-1 29 -18 35t-73 6q-59 0 -126 -52.5t-113 -136.5t-46 -165q1 -53 32.5 -85.5t82.5 -32.5zM129 -149q58 0 114 22.5t93 60.5q-118 -4 -194.5 -22t-76.5 -41q0 -8 18.5 -14t45.5 -6z" />
    <glyph glyph-name="h" unicode="h" 
d="M500 69l28 -47q-31 -36 -96 -36q-34 0 -54.5 17t-20.5 45q-1 83 80 355q53 172 -69 172q-48 0 -103 -48.5t-94.5 -115.5t-51.5 -126l-60 -285h-63l170 800h62l-71 -331q44 76 99.5 119.5t114.5 43.5q201 0 126 -235q-76 -245 -78 -325q2 -29 33 -29q25 0 48 26z" />
    <glyph glyph-name="i" unicode="i" 
d="M332 729q-43 0 -57.5 16.5t-5.5 56.5q7 37 24.5 50.5t56.5 13.5q43 0 57 -16.5t6 -57.5q-7 -36 -25 -49.5t-56 -13.5zM336 -14q-118 0 -152.5 60.5t5.5 215.5l63 225q6 31 -3.5 49t-42.5 25l15 57q114 -22 94 -118l-65 -238q-31 -124 -10 -171.5t98 -47.5q37 0 62 16.5
t58 61.5l48 -33q-43 -58 -80 -80t-90 -22z" />
    <glyph glyph-name="j" unicode="j" 
d="M497 729q-43 0 -57.5 16.5t-5.5 56.5q7 37 24.5 50.5t56.5 13.5q43 0 57 -16.5t6 -57.5q-7 -36 -25 -49.5t-56 -13.5zM55 -206q-50 0 -81 20.5t-30 53.5q0 57 99 90t270 34q29 60 116 489q6 32 -3 50t-41 26l16 56q111 -23 91 -120q-86 -432 -118 -502q49 0 90 12
l-16 -58q-34 -10 -99 -10q-40 -64 -120.5 -102.5t-173.5 -38.5zM69 -149q58 0 114 22.5t93 60.5q-118 -4 -194.5 -22t-76.5 -41q0 -8 18.5 -14t45.5 -6z" />
    <glyph glyph-name="k" unicode="k" 
d="M411 43q15 0 35 19.5t33 46.5l42 -48q-58 -75 -114 -75q-87 0 -90 182q-2 76 -54 122l26 47q99 -1 160.5 44t60.5 118q-1 34 -28 56t-63 22q-80 0 -150.5 -72.5t-100.5 -190.5l-67 -314h-61l63 295h-1l6 24l102 481h61l-58 -275q93 109 210 109q62 0 104.5 -35.5
t42.5 -92.5q1 -84 -59.5 -145t-160.5 -77q31 -51 31 -111q1 -69 6.5 -99.5t23.5 -30.5z" />
    <glyph glyph-name="l" unicode="l" 
d="M334 43q29 0 62.5 22t57.5 57l48 -35q-33 -45 -80.5 -73t-90.5 -28q-56 0 -92 37t-41 99q-97 -73 -210 -122l-22 51q124 55 231 146q2 147 13.5 256.5t36.5 192.5t67 125.5t101 42.5q48 0 76.5 -33.5t28.5 -90.5q0 -144 -70.5 -277.5t-191.5 -240.5q2 -58 22.5 -93.5
t53.5 -35.5zM407 756q-66 0 -105 -138t-44 -364q200 205 200 434q0 68 -51 68z" />
    <glyph glyph-name="m" unicode="m" 
d="M490 -14q-34 0 -54 17t-21 45q0 88 82 355q28 94 26.5 133t-33.5 39q-40 0 -65 -20.5t-47 -80.5t-47 -179l-61 -295h-62l85 402q24 117 22 141q-3 32 -36 32q-37 0 -59 -20t-42.5 -79t-46.5 -183l-63 -293h-61l113 527q2 14 2 20q-2 28 -30 28q-25 0 -50 -25l-28 46
q31 36 96 36q68 0 64 -78q45 78 108 78q29 0 46.5 -7.5t24.5 -22.5t9 -27t2 -33v-4v-4q56 98 129 98q71 0 87 -56.5t-24 -178.5q-80 -237 -78 -325q0 -29 33 -29q26 0 47 26l28 -47q-31 -36 -96 -36z" />
    <glyph glyph-name="n" unicode="n" 
d="M520 69l28 -47q-31 -36 -96 -36q-34 0 -54 17t-21 45q0 102 81 355q55 172 -60 172q-65 0 -142 -97t-96 -188l-61 -290h-62l113 527q2 14 2 20q-2 28 -33 28q-22 0 -47 -25l-28 46q31 36 95 36q38 0 61 -27t12 -69l-16 -69q45 76 99 120.5t106 44.5q92 0 123 -57t-6 -178
q-80 -244 -78 -325q0 -13 9 -21t24 -8q26 0 47 26z" />
    <glyph glyph-name="o" unicode="o" 
d="M236 -14q-127 0 -160.5 72t5.5 255q29 142 107 230.5t176 88.5q127 0 161 -72t-6 -255q-30 -143 -107.5 -231t-175.5 -88zM239 43q74 0 135.5 75t86.5 195q31 151 10 206.5t-110 55.5q-73 0 -134.5 -75t-87.5 -195q-32 -151 -10.5 -206.5t110.5 -55.5z" />
    <glyph glyph-name="p" unicode="p" 
d="M390 632q125 0 155 -71t-10 -256q-30 -144 -103.5 -231.5t-169.5 -87.5q-128 0 -141 50l-48 -218h-62l100 469q2 11 6 26q2 14 5 21l40 193q2 16 2 20q0 13 -9 20.5t-23 7.5q-25 0 -48 -26l-28 47q31 36 96 36q81 0 72 -84q22 39 69.5 61.5t96.5 22.5zM477 313
q23 99 22 157.5t-26.5 81.5t-85.5 23q-78 0 -127.5 -52.5t-77.5 -187.5l-16 -83q-15 -74 -18 -115t11.5 -62.5t36.5 -26.5t69 -5q72 0 128.5 73.5t83.5 196.5z" />
    <glyph glyph-name="q" unicode="q" 
d="M505 618h62l-170 -800h-62l53 245q-20 -31 -66.5 -54t-95.5 -23q-125 0 -155 71t10 256q30 144 103.5 231.5t169.5 87.5q62 0 97 -18t41 -48zM229 43q81 0 130.5 53t77.5 198l11 57q12 59 15 97.5t-0.5 64.5t-18.5 39t-36.5 18t-56.5 5q-72 0 -128.5 -73.5t-83.5 -196.5
q-23 -99 -22 -157.5t26.5 -81.5t85.5 -23z" />
    <glyph glyph-name="r" unicode="r" 
d="M391 43q26 0 50 19t36 49l56 -20q-18 -47 -57.5 -76t-86.5 -29q-46 0 -74 30t-28 80q-1 84 34.5 190.5t98.5 208.5q-104 -52 -182 -52h-15q-34 -82 -110 -167l-37 49q57 59 90 126q-45 12 -70 37t-25 58q-1 38 25 62t69 24q37 0 59.5 -27t21.5 -70q0 -18 -4 -35
q45 1 114 28t137 71l42 -29q-86 -127 -137 -254t-51 -217q1 -25 13 -40.5t31 -15.5zM126 550q0 -34 59 -45q4 15 4 32q0 45 -31 45q-14 0 -23 -9t-9 -23z" />
    <glyph glyph-name="s" unicode="s" 
d="M217 -14q-68 0 -122.5 31.5t-85.5 87.5l55 26q22 -40 62 -64t83 -24q83 0 131 70t48 174q-2 69 -36 118q-40 -51 -107 -87t-136 -44l-9 58q63 4 122 38t94 84q-26 25 -41 53t-14 48q-1 34 20 55.5t57 21.5q38 0 59.5 -21t21.5 -56q2 -48 -31 -95q62 -80 60 -177
q0 -127 -77 -213q86 31 124 74l37 -39q-43 -53 -130.5 -86t-184.5 -33zM347 494q18 31 18 56q2 36 -26 36q-11 0 -18 -7.5t-7 -19.5q0 -26 33 -65z" />
    <glyph glyph-name="t" unicode="t" 
d="M301 -14q-100 0 -129 52t-3 174l74 349h-124l12 57h124l38 182h62l-38 -182h208l-13 -57h-208l-75 -353q-20 -89 -3.5 -127t78.5 -38q54 0 81 13.5t48 49.5l55 -24q-32 -56 -71.5 -76t-115.5 -20z" />
    <glyph glyph-name="u" unicode="u" 
d="M72 549l-28 47q31 36 96 36q34 0 54.5 -17t20.5 -45q2 -95 -80 -355q-55 -172 69 -172q65 0 136.5 96t91.5 189l61 290h63l-113 -527q-2 -17 -2 -20q0 -13 9 -20.5t23 -7.5q23 0 48 25l28 -46q-31 -36 -96 -36q-37 0 -60.5 27t-12.5 69l16 69q-96 -165 -195 -165
q-203 0 -126 235q79 249 78 325q-2 29 -33 29q-25 0 -48 -26z" />
    <glyph glyph-name="v" unicode="v" 
d="M203 0l-77 618h62l67 -522q31 55 103.5 164.5t118.5 195t62 162.5h64q-17 -72 -59 -156.5t-85.5 -150.5t-101.5 -157t-92 -154h-62z" />
    <glyph glyph-name="w" unicode="w" 
d="M570 618h63q-21 -93 -60 -195t-94.5 -226.5t-82.5 -196.5h-60l-29 295q-26 -52 -87 -150t-85 -145h-60l23 618h62l-21 -507q7 11 27 43.5t28.5 46.5t25 42.5t25 46.5t19.5 43t18 47t11 44h61l30 -304q10 25 50.5 118.5t57 135t41 113t37.5 131.5z" />
    <glyph glyph-name="x" unicode="x" 
d="M587 618q-20 -51 -63 -110t-81.5 -100.5t-103.5 -107.5l120 -300h-70l-100 250q-157 -159 -208 -250h-70q26 48 74 106.5t80 91.5t103 104l-127 316h70l107 -266q158 163 200 266h69z" />
    <glyph glyph-name="y" unicode="y" 
d="M115 -206q-50 0 -81 20.5t-30 53.5q0 57 99.5 90t270.5 34q19 34 36 106q-14 -27 -56.5 -39.5t-88.5 -12.5q-79 0 -121 56t-21 123q74 230 76 321q-2 29 -33 29q-25 0 -48 -26l-28 47q31 36 96 36q33 0 53 -17t20 -45q2 -98 -76 -346q-16 -54 8.5 -87.5t75.5 -33.5
q71 0 112 24.5t56 97.5l82 393h61q-39 -185 -54.5 -260t-37 -172t-32.5 -137t-20 -58q49 0 90 12l-16 -58q-34 -10 -99 -10q-40 -64 -120.5 -102.5t-173.5 -38.5zM129 -149q58 0 114 22.5t93 60.5q-118 -4 -194.5 -22t-76.5 -41q0 -8 18.5 -14t45.5 -6z" />
    <glyph glyph-name="z" unicode="z" 
d="M418 14q52 0 118 21.5t118 21.5l-14 -57q-26 0 -92.5 -21.5t-141.5 -21.5q-46 0 -111.5 26.5t-98.5 26.5q-5 0 -53 -5t-115 -5l9 38l436 523h-323l12 57h407l-8 -38l-433 -521q7 1 33 4.5t48 3.5q43 0 105.5 -26.5t103.5 -26.5z" />
    <glyph glyph-name="braceleft" unicode="{" 
d="M390 -145q-117 0 -164.5 47.5t-23.5 159.5q6 28 27.5 88.5t26.5 83.5q12 53 -124 169q185 116 197 177q5 20 8 75.5t10 91.5q23 109 88 153.5t182 44.5l-7 -57q-85 0 -136 -35.5t-69 -119.5q-7 -34 -7.5 -82t-5.5 -71q-12 -51 -52.5 -94.5t-113.5 -88.5
q54 -44 76.5 -86.5t11.5 -96.5q-4 -18 -24 -68.5t-28 -90.5q-17 -80 17 -111.5t118 -31.5z" />
    <glyph glyph-name="bar" unicode="|" 
d="M165 -182l240 1130h62l-240 -1130h-62z" />
    <glyph glyph-name="braceright" unicode="}" 
d="M22 -145l7 57q85 0 135 35t68 118q8 36 10 86.5t6 72.5q11 51 50.5 92.5t114.5 86.5q-53 44 -76 88.5t-12 98.5q4 18 24.5 66t28.5 87q17 80 -17 112.5t-119 32.5l7 57q117 0 164.5 -48t23.5 -160q-7 -32 -27.5 -88t-25.5 -79q-13 -57 123 -173q-183 -114 -197 -173
q-4 -19 -8 -79.5t-11 -92.5q-22 -109 -86.5 -153t-182.5 -44z" />
    <glyph glyph-name="asciitilde" unicode="~" 
d="M424 311q-71 0 -126 71q-49 49 -85 49q-43 0 -71.5 -23t-35.5 -61l-61 5q11 61 57.5 99t112.5 38q72 0 125 -71q51 -49 85 -49q44 0 72.5 23t34.5 61l61 -5q-11 -61 -57 -99t-112 -38z" />
    <glyph glyph-name="uni00A0" unicode="&#xa0;" 
 />
    <glyph glyph-name="exclamdown" unicode="&#xa1;" 
d="M342 481q-43 0 -57.5 16.5t-5.5 56.5q8 37 25.5 50.5t55.5 13.5q43 0 57.5 -16.5t5.5 -56.5q-7 -37 -25 -50.5t-56 -13.5zM155 -182l131 570h62l-111 -570h-82z" />
    <glyph glyph-name="cent" unicode="&#xa2;" 
d="M514 494q-22 45 -46.5 62.5t-70.5 18.5l-112 -531q43 4 76.5 23.5t71.5 61.5l48 -35q-53 -59 -98 -82.5t-111 -25.5l-13 -62h-62l14 64q-111 10 -140.5 84t7.5 242q35 168 94 238.5t175 78.5l13 61h62l-13 -61q64 -3 98.5 -27.5t61.5 -82.5zM138 304q-29 -136 -11 -194
t96 -65l111 527q-80 -12 -123.5 -72t-72.5 -196z" />
    <glyph glyph-name="sterling" unicode="&#xa3;" 
d="M503 812q50 0 76.5 -9t49.5 -32l-42 -43q-16 17 -33 22t-53 5q-120 0 -176 -52t-86 -192q-11 -47 -12 -81h203l-11 -58h-189q2 -18 6 -39q20 -84 9 -136t-31 -83t-63 -58l331 1l-12 -57h-453l-1 55q83 26 119.5 58t49.5 93q7 35 -6 114q-6 29 -9 52h-83l11 58h69
q0 37 12 91q35 167 104.5 229t219.5 62z" />
    <glyph glyph-name="currency" unicode="&#xa4;" 
d="M591 536l-106 -91q40 -56 22 -142q-18 -84 -80 -137l67 -86l-50 -40l-70 91q-53 -25 -112 -25q-63 0 -107 27l-110 -93l-37 40l106 91q-39 56 -21 142q18 84 79 137l-67 86l50 40l71 -90q53 24 111 24q64 0 108 -27l110 93zM447 313q13 63 -17 101t-94 38
q-68 0 -118.5 -41t-64.5 -108q-13 -63 17 -101t94 -38q68 0 118.5 41t64.5 108z" />
    <glyph glyph-name="yen" unicode="&#xa5;" 
d="M672 800l-300 -437h126l-13 -57h-153l-1 -2l-17 -79h154l-12 -57h-155l-36 -168h-62l36 168h-155l12 57h156l17 79l-1 2h-155l13 57h127l-115 437h67l109 -418l289 418h69z" />
    <glyph glyph-name="brokenbar" unicode="&#xa6;" 
d="M304 475l101 473h62l-101 -473h-62zM165 -182l100 473h62l-100 -473h-62z" />
    <glyph glyph-name="section" unicode="&#xa7;" 
d="M401 757q-90 0 -130 -28t-56 -104q-13 -65 13 -93t108 -28h8q194 -4 154 -190q-27 -128 -95 -170q67 -42 41 -161q-22 -103 -74 -141t-172 -38q-80 0 -118.5 24t-59.5 85l54 35q15 -52 40.5 -69.5t84.5 -17.5q90 0 130 28t56 104q13 65 -13 93t-108 28h-8
q-194 4 -154 190q27 128 95 170q-67 42 -41 161q22 103 74 141t172 38q80 0 118.5 -24t59.5 -85l-54 -35q-15 52 -40.5 69.5t-84.5 17.5zM438 324q27 121 -104 121h-4q-76 -1 -113 -34t-55 -117q-27 -121 104 -121h4q76 1 113 34t55 117z" />
    <glyph glyph-name="dieresis" unicode="&#xa8;" 
d="M286 726q-36 0 -48 14t-5 48q6 29 20 40t46 11q36 0 48.5 -14t5.5 -47q-7 -30 -21 -41t-46 -11zM502 726q-36 0 -48 14t-5 48q6 29 20 40t46 11q36 0 48.5 -14t5.5 -47q-7 -30 -21 -41t-46 -11z" />
    <glyph glyph-name="copyright" unicode="&#xa9;" 
d="M245 26q-133 0 -195 92.5t-30 241.5q31 146 128 235t226 89q133 0 195.5 -92.5t30.5 -241.5q-32 -146 -129 -235t-226 -89zM247 84q105 0 186 76t107 200q25 121 -20.5 193.5t-146.5 72.5q-105 0 -186 -76t-107 -200q-26 -121 20 -193.5t147 -72.5zM273 159
q-84 0 -108.5 44t-0.5 156q23 108 62.5 148.5t119.5 40.5q56 0 81.5 -13.5t35.5 -47.5l-59 -30q-7 22 -18 28t-42 6q-50 0 -76.5 -31t-42.5 -111q-17 -79 -6.5 -106t56.5 -27q30 0 46 7t34 27l46 -44q-25 -28 -52 -37.5t-76 -9.5z" />
    <glyph glyph-name="ordfeminine" unicode="&#xaa;" 
d="M302 360q-93 0 -122.5 30t-13.5 107q15 68 53.5 93t129.5 25h99l10 47q12 55 -3 75t-68 20q-41 0 -65 -15.5t-44 -54.5l-59 15q32 65 67.5 88.5t101.5 23.5q92 0 121 -34.5t10 -122.5l-43 -204q-3 -16 2.5 -20.5t27.5 -5.5l-7 -58q-41 -1 -58 11t-17 41
q-29 -36 -54.5 -48.5t-67.5 -12.5zM304 417q57 0 84.5 24t41.5 85l8 40h-95q-55 0 -81 -17t-36 -61q-8 -42 8 -56.5t70 -14.5zM99 216l12 57h372l-12 -57h-372z" />
    <glyph glyph-name="guillemotleft" unicode="&#xab;" 
d="M208 173l-135 227l230 227h77l-231 -227l133 -227h-74zM447 173l-135 227l230 227h77l-231 -227l133 -227h-74z" />
    <glyph glyph-name="logicalnot" unicode="&#xac;" 
d="M477 281l39 181h-403l11 57h465l-50 -238h-62z" />
    <glyph glyph-name="uni00AD" unicode="&#xad;" 
d="M127 371l12 58h372l-12 -58h-372z" />
    <glyph glyph-name="registered" unicode="&#xae;" 
d="M402 814q111 0 171 -77t36 -190q-23 -109 -111.5 -182.5t-196.5 -73.5q-111 0 -171 77t-36 189q23 109 112 183t196 74zM549 557q18 85 -24.5 142.5t-123.5 57.5q-85 0 -156 -60.5t-90 -149.5q-19 -85 23.5 -142t124.5 -57q85 0 156 60t90 149zM376 708q62 0 86.5 -28.5
t13.5 -79.5q-6 -28 -27.5 -52t-52.5 -36l43 -110h-71l-40 99h-32l-21 -99h-62l65 306h98zM416 610q4 17 -7.5 29t-39.5 12h-41l-20 -93h36q29 0 48.5 15.5t23.5 36.5z" />
    <glyph glyph-name="macron" unicode="&#xaf;" 
d="M244 718l12 58h286l-12 -58h-286z" />
    <glyph glyph-name="degree" unicode="&#xb0;" 
d="M338 463q-85 0 -127 50t-25 130q16 77 75.5 124t140.5 47q85 0 127 -50t25 -130q-16 -77 -76 -124t-140 -47zM340 520q57 0 100 34t54 89q11 52 -14.5 83t-78.5 31q-58 0 -100.5 -34t-54.5 -89q-11 -52 15 -83t79 -31z" />
    <glyph glyph-name="plusminus" unicode="&#xb1;" 
d="M368 493h244l-12 -57h-244l-42 -197h-58l42 197h-245l12 57h245l42 197h58zM-16 109l12 57h547l-12 -57h-547z" />
    <glyph glyph-name="uni00B2" unicode="&#xb2;" 
d="M194 424l8 41q8 37 48 73.5t83.5 62.5t84.5 65.5t50 81.5q7 34 -4 44.5t-53 10.5q-50 0 -68.5 -16t-26.5 -62l-57 6q12 71 45 98.5t108 27.5q74 0 99.5 -27t12.5 -92q-9 -40 -34.5 -75.5t-58.5 -61t-65 -46.5t-60 -42t-38 -38l199 3l-11 -54h-262z" />
    <glyph glyph-name="uni00B3" unicode="&#xb3;" 
d="M328 417q-75 0 -97.5 29.5t-5.5 101.5l58 -6q-12 -45 -4 -58t50 -13q44 0 62.5 15.5t27.5 60.5q10 44 2.5 58t-41.5 17h-55l12 54l48 -1q37 3 52.5 17t24.5 52q7 37 -2.5 48t-48.5 11q-47 0 -63 -13.5t-24 -56.5l-58 6q12 67 43.5 92.5t102.5 25.5q70 0 95 -28.5
t11 -94.5q-8 -34 -20 -54t-36 -34q31 -29 14 -109q-14 -66 -47.5 -93t-100.5 -27z" />
    <glyph glyph-name="acute" unicode="&#xb4;" 
d="M295 626l-36 46l228 176l36 -46z" />
    <glyph glyph-name="uni00B5" unicode="&#xb5;" 
d="M-19 -182l170 800h62l-94 -440q-13 -78 9 -106.5t91 -28.5q65 0 133.5 44t82.5 112l90 419h62l-132 -618h-62l17 71q-32 -43 -84 -64t-108 -21q-93 0 -130 34l-45 -202h-62z" />
    <glyph glyph-name="paragraph" unicode="&#xb6;" 
d="M248 0l87 408h-86q-91 0 -117.5 43.5t-2.5 157.5q23 109 65.5 150t133.5 41h152l-170 -800h-62zM358 0l170 800h62l-170 -800h-62z" />
    <glyph glyph-name="periodcentered" unicode="&#xb7;" 
d="M310 331q-43 0 -57 16.5t-6 57.5q8 37 25.5 50.5t56.5 13.5q43 0 57 -16.5t6 -57.5q-8 -37 -25.5 -50.5t-56.5 -13.5z" />
    <glyph glyph-name="cedilla" unicode="&#xb8;" 
d="M196 -207q-60 0 -89 34l35 51q18 -28 55 -28q24 0 41.5 10.5t20.5 26.5q3 15 -13.5 19t-53.5 2l18 97h62l-11 -41q33 -2 49.5 -26t8.5 -61q-8 -38 -42 -61t-81 -23z" />
    <glyph glyph-name="uni00B9" unicode="&#xb9;" 
d="M445 850l-79 -372h71l-11 -54h-200l10 54h72l54 254q-37 -17 -83 -14l8 53q40 -5 67.5 18t31.5 63l23 -2h36z" />
    <glyph glyph-name="ordmasculine" unicode="&#xba;" 
d="M316 360q-99 0 -127 50.5t0 181.5q27 127 72.5 174.5t140.5 47.5q99 0 127.5 -50.5t0.5 -180.5q-28 -128 -73.5 -175.5t-140.5 -47.5zM318 417q64 0 97 38t54 137q20 95 6 130t-74 35q-64 0 -97.5 -38t-53.5 -136q-21 -96 -6.5 -131t74.5 -35zM94 216l12 57h372l-12 -57
h-372z" />
    <glyph glyph-name="guillemotright" unicode="&#xbb;" 
d="M20 173l230 227l-132 227h74l134 -227l-229 -227h-77zM259 173l230 227l-132 227h74l134 -227l-229 -227h-77z" />
    <glyph glyph-name="onequarter" unicode="&#xbc;" 
d="M271 478l-11 -54h-200l10 54h72l54 254q-37 -17 -83 -14l8 53q40 -5 67.5 18t31.5 63l23 -2h36l-79 -372h71zM550 800h63l-524 -800h-63zM476 376h50l-56 -265h37l-11 -53h-37l-23 -108h-58l22 108h-172l7 42zM412 111l33 149l-130 -149h97z" />
    <glyph glyph-name="onehalf" unicode="&#xbd;" 
d="M271 478l-11 -54h-200l10 54h72l54 254q-37 -17 -83 -14l8 53q40 -5 67.5 18t31.5 63l23 -2h36l-79 -372h71zM550 800h63l-524 -800h-63zM472 383q75 0 100.5 -27t11.5 -92q-10 -49 -47.5 -92.5t-77 -68.5t-79.5 -53.5t-52 -48.5l200 3l-11 -54h-262l8 41q6 30 33.5 59
t62.5 53t70.5 48.5t63.5 56.5t36 66q7 34 -4 44.5t-53 10.5q-50 0 -68.5 -16t-26.5 -62l-57 6q12 71 45 98.5t107 27.5z" />
    <glyph glyph-name="threequarters" unicode="&#xbe;" 
d="M158 417q-75 0 -97.5 29.5t-5.5 101.5l58 -6q-12 -45 -4 -58t50 -13q44 0 62.5 15.5t27.5 60.5q10 44 2.5 58t-42.5 17h-54l12 54l48 -1q37 3 52.5 17t24.5 52q7 37 -2.5 48t-48.5 11q-47 0 -63 -13.5t-24 -56.5l-58 6q12 67 43.5 92.5t101.5 25.5q71 0 95.5 -28.5
t10.5 -94.5q-13 -63 -55 -88q31 -29 14 -109q-14 -66 -47.5 -93t-100.5 -27zM26 0l524 800h63l-524 -800h-63zM378 -50l22 108h-172l7 42l241 276h50l-56 -265h37l-11 -53h-37l-23 -108h-58zM315 111h97l33 149z" />
    <glyph glyph-name="questiondown" unicode="&#xbf;" 
d="M345 495q-43 0 -57.5 16.5t-5.5 56.5q8 37 25.5 50.5t55.5 13.5q43 0 57.5 -16.5t5.5 -56.5q-7 -37 -25 -50.5t-56 -13.5zM199 -196q-136 0 -180 45t-19 161q18 83 51 137.5t68.5 79.5t70 44t62 47.5t36.5 73.5l61 -5q-10 -49 -32.5 -83.5t-49 -51t-57.5 -37t-58.5 -42
t-52.5 -65.5t-38 -107q-17 -82 11.5 -111t127.5 -29q103 0 148 33t63 120l61 -5q-24 -118 -82 -161.5t-191 -43.5z" />
    <glyph glyph-name="Agrave" unicode="&#xc0;" 
d="M479 912l-48 -44l-120 126l49 43zM427 0l-13 210h-269l-102 -210h-65l392 800h68l52 -800h-63zM173 268h238l-27 434z" />
    <glyph glyph-name="Aacute" unicode="&#xc1;" 
d="M578 994l-168 -126l-33 44l168 125zM370 800h68l52 -800h-63l-13 210h-269l-102 -210h-65zM173 268h238l-27 434z" />
    <glyph glyph-name="Acircumflex" unicode="&#xc2;" 
d="M450 1025l114 -125l-54 -37l-73 82l-109 -80l-41 37zM370 800h68l52 -800h-63l-13 210h-269l-102 -210h-65zM173 268h238l-27 434z" />
    <glyph glyph-name="Atilde" unicode="&#xc3;" 
d="M536 990l61 -5q-8 -46 -36.5 -74t-66.5 -28q-26 0 -48.5 19.5t-39.5 38.5t-30 19q-32 0 -41 -54l-61 5q9 48 37 77t67 29q26 0 47.5 -19.5t38.5 -38.5t32 -19q33 0 40 50zM370 800h68l52 -800h-63l-13 210h-269l-102 -210h-65zM173 268h238l-27 434z" />
    <glyph glyph-name="Adieresis" unicode="&#xc4;" 
d="M325 911q-36 0 -48 14t-5 48q6 29 20 40t46 11q36 0 48.5 -14t5.5 -47q-7 -30 -21 -41t-46 -11zM554 1024q36 0 48.5 -14t5.5 -47q-7 -30 -21 -41t-46 -11q-36 0 -48 14t-5 48q6 29 20 40t46 11zM370 800h68l52 -800h-63l-13 210h-269l-102 -210h-65zM173 268h238
l-27 434z" />
    <glyph glyph-name="Aring" unicode="&#xc5;" 
d="M439 989q76 0 100.5 -28t9.5 -98q-11 -55 -35.5 -80.5t-72.5 -32.5l49 -750h-63l-13 210h-269l-102 -210h-65l369 752q-44 8 -56.5 36.5t-1.5 84.5q14 66 46.5 91t103.5 25zM489 873q7 35 -3.5 47t-48.5 12q-42 0 -61 -15t-27 -54q-7 -34 3 -46t48 -12q42 0 61.5 15
t27.5 53zM173 268h238l-27 434z" />
    <glyph glyph-name="AE" unicode="&#xc6;" 
d="M681 743h-222l-73 -337h145l-12 -58h-144l-63 -291h223l-13 -57h-284l55 256h-166l-122 -256h-65l382 800h370zM305 314l92 429h-37l-205 -429h150z" />
    <glyph glyph-name="Ccedilla" unicode="&#xc7;" 
d="M417 814q95 0 135.5 -38t49.5 -135l-61 -16q-8 77 -34 104.5t-91 27.5q-108 0 -166 -78.5t-101 -282.5q-44 -202 -21.5 -277.5t125.5 -75.5q68 0 108.5 29t82.5 105l56 -25q-49 -93 -100.5 -128.5t-138.5 -37.5l-6 -22q33 -2 49.5 -26t7.5 -61q-7 -38 -41 -61t-82 -23
q-60 0 -89 34l36 51q7 -12 23 -20t32 -8q24 0 41 10.5t21 26.5q3 15 -13.5 19t-53.5 2l15 81q-109 14 -134 108.5t21 308.5q50 233 120.5 320.5t208.5 87.5z" />
    <glyph glyph-name="Egrave" unicode="&#xc8;" 
d="M493 912l-48 -44l-120 126l49 43zM625 743h-376l-60 -291h239l-12 -58h-241l-70 -337h373l-12 -57h-436l170 800h436z" />
    <glyph glyph-name="Eacute" unicode="&#xc9;" 
d="M592 994l-168 -126l-33 44l168 125zM625 743h-376l-60 -291h239l-12 -58h-241l-70 -337h373l-12 -57h-436l170 800h436z" />
    <glyph glyph-name="Ecircumflex" unicode="&#xca;" 
d="M451 945l-109 -80l-41 37l163 123l114 -125l-54 -37zM625 743h-376l-60 -291h239l-12 -58h-241l-70 -337h373l-12 -57h-436l170 800h436z" />
    <glyph glyph-name="Edieresis" unicode="&#xcb;" 
d="M339 911q-36 0 -48 14t-5 48q6 29 20 40t46 11q36 0 48.5 -14t5.5 -47q-7 -30 -21 -41t-46 -11zM555 911q-36 0 -48 14t-5 48q6 29 20 40t46 11q36 0 48.5 -14t5.5 -47q-7 -30 -21 -41t-46 -11zM625 743h-376l-60 -291h239l-12 -58h-241l-70 -337h373l-12 -57h-436
l170 800h436z" />
    <glyph glyph-name="Igrave" unicode="&#xcc;" 
d="M479 912l-48 -44l-120 126l49 43zM586 743h-163l-146 -686h162l-12 -57h-386l12 57h162l146 686h-161l11 57h386z" />
    <glyph glyph-name="Iacute" unicode="&#xcd;" 
d="M578 994l-168 -126l-33 44l168 125zM586 743h-163l-146 -686h162l-12 -57h-386l12 57h162l146 686h-161l11 57h386z" />
    <glyph glyph-name="Icircumflex" unicode="&#xce;" 
d="M437 945l-109 -80l-41 37l163 123l114 -125l-54 -37zM586 743h-163l-146 -686h162l-12 -57h-386l12 57h162l146 686h-161l11 57h386z" />
    <glyph glyph-name="Idieresis" unicode="&#xcf;" 
d="M325 911q-36 0 -48 14t-5 48q6 29 20 40t46 11q36 0 48.5 -14t5.5 -47q-7 -30 -21 -41t-46 -11zM554 1024q36 0 48.5 -14t5.5 -47q-7 -30 -21 -41t-46 -11q-36 0 -48 14t-5 48q6 29 20 40t46 11zM597 800l-11 -57h-163l-146 -686h162l-12 -57h-386l12 57h162l146 686
h-161l11 57h386z" />
    <glyph glyph-name="Eth" unicode="&#xd0;" 
d="M418 800q133 0 166 -88.5t-15 -316.5q-49 -225 -116.5 -310t-199.5 -85h-237l84 394h-52l12 58h52l74 348h232zM508 405q42 193 21.5 265.5t-118.5 72.5h-176l-61 -291h144l-11 -58h-145l-71 -337h169q98 0 152.5 76t95.5 272z" />
    <glyph glyph-name="Ntilde" unicode="&#xd1;" 
d="M376 960q-32 0 -41 -54l-61 5q9 48 37 77t67 29q26 0 47.5 -19.5t38.5 -38.5t32 -19q33 0 40 50l61 -5q-8 -46 -36.5 -74t-66.5 -28q-26 0 -48.5 19.5t-39.5 38.5t-30 19zM562 800h62l-170 -800h-65l-171 670l-142 -670h-62l170 800h66l170 -667z" />
    <glyph glyph-name="Ograve" unicode="&#xd2;" 
d="M431 868l-120 126l49 43l119 -125zM237 -14q-138 0 -174 82.5t9 293.5l17 80q45 212 112 292t201 80q138 0 173.5 -82.5t-9.5 -293.5l-17 -80q-45 -212 -112 -292t-200 -80zM238 43q103 0 157.5 69.5t92.5 249.5l17 80q39 181 17 248t-121 67q-104 0 -158.5 -69.5
t-92.5 -249.5l-17 -80q-38 -181 -15.5 -248t120.5 -67z" />
    <glyph glyph-name="Oacute" unicode="&#xd3;" 
d="M410 868l-33 44l168 125l33 -43zM237 -14q-138 0 -174 82.5t9 293.5l17 80q45 212 112 292t201 80q138 0 173.5 -82.5t-9.5 -293.5l-17 -80q-45 -212 -112 -292t-200 -80zM238 43q103 0 157.5 69.5t92.5 249.5l17 80q39 181 17 248t-121 67q-104 0 -158.5 -69.5
t-92.5 -249.5l-17 -80q-38 -181 -15.5 -248t120.5 -67z" />
    <glyph glyph-name="Ocircumflex" unicode="&#xd4;" 
d="M510 863l-73 82l-109 -80l-41 37l163 123l114 -125zM237 -14q-138 0 -174 82.5t9 293.5l17 80q45 212 112 292t201 80q138 0 173.5 -82.5t-9.5 -293.5l-17 -80q-45 -212 -112 -292t-200 -80zM238 43q103 0 157.5 69.5t92.5 249.5l17 80q39 181 17 248t-121 67
q-104 0 -158.5 -69.5t-92.5 -249.5l-17 -80q-38 -181 -15.5 -248t120.5 -67z" />
    <glyph glyph-name="Otilde" unicode="&#xd5;" 
d="M494 883q-26 0 -48.5 19.5t-39.5 38.5t-30 19q-32 0 -41 -54l-61 5q9 48 37 77t67 29q26 0 47.5 -19.5t38.5 -38.5t32 -19q33 0 40 50l61 -5q-8 -46 -36.5 -74t-66.5 -28zM237 -14q-138 0 -174 82.5t9 293.5l17 80q45 212 112 292t201 80q138 0 173.5 -82.5t-9.5 -293.5
l-17 -80q-45 -212 -112 -292t-200 -80zM238 43q103 0 157.5 69.5t92.5 249.5l17 80q39 181 17 248t-121 67q-104 0 -158.5 -69.5t-92.5 -249.5l-17 -80q-38 -181 -15.5 -248t120.5 -67z" />
    <glyph glyph-name="Odieresis" unicode="&#xd6;" 
d="M325 911q-36 0 -48 14t-5 48q6 29 20 40t46 11q36 0 48.5 -14t5.5 -47q-7 -30 -21 -41t-46 -11zM541 911q-36 0 -48 14t-5 48q6 29 20 40t46 11q36 0 48.5 -14t5.5 -47q-7 -30 -21 -41t-46 -11zM237 -14q-138 0 -174 82.5t9 293.5l17 80q45 212 112 292t201 80
q138 0 173.5 -82.5t-9.5 -293.5l-17 -80q-45 -212 -112 -292t-200 -80zM238 43q103 0 157.5 69.5t92.5 249.5l17 80q39 181 17 248t-121 67q-104 0 -158.5 -69.5t-92.5 -249.5l-17 -80q-38 -181 -15.5 -248t120.5 -67z" />
    <glyph glyph-name="multiply" unicode="&#xd7;" 
d="M570 574l-210 -173l136 -174l-50 -40l-136 173l-210 -173l-31 39l211 173l-137 175l50 39l136 -173l211 173z" />
    <glyph glyph-name="Oslash" unicode="&#xd8;" 
d="M660 850l-83 -122q33 -81 -11 -290l-17 -80q-45 -212 -112 -292t-200 -80q-96 0 -140 37l-49 -73h-69l83 122q-34 83 10 290l17 80q45 212 112 292t201 80q94 0 139 -36l49 72h70zM133 358q-31 -149 -23 -215l394 580q-30 34 -103 34q-103 0 -158 -69.5t-93 -249.5z
M505 442q31 149 23 215l-393 -580q30 -34 103 -34q103 0 157.5 69.5t92.5 249.5z" />
    <glyph glyph-name="Ugrave" unicode="&#xd9;" 
d="M431 868l-120 126l49 43l119 -125zM237 -14q-126 0 -160.5 69t3.5 244l106 501h62l-107 -506q-31 -145 -10.5 -198t107.5 -53q91 0 138 55.5t78 200.5l106 501h62l-107 -506q-38 -176 -97.5 -242t-180.5 -66z" />
    <glyph glyph-name="Uacute" unicode="&#xda;" 
d="M410 868l-33 44l168 125l33 -43zM237 -14q-126 0 -160.5 69t3.5 244l106 501h62l-107 -506q-31 -145 -10.5 -198t107.5 -53q91 0 138 55.5t78 200.5l106 501h62l-107 -506q-38 -176 -97.5 -242t-180.5 -66z" />
    <glyph glyph-name="Ucircumflex" unicode="&#xdb;" 
d="M510 863l-73 82l-109 -80l-41 37l163 123l114 -125zM237 -14q-126 0 -160.5 69t3.5 244l106 501h62l-107 -506q-31 -145 -10.5 -198t107.5 -53q91 0 138 55.5t78 200.5l106 501h62l-107 -506q-38 -176 -97.5 -242t-180.5 -66z" />
    <glyph glyph-name="Udieresis" unicode="&#xdc;" 
d="M325 911q-36 0 -48 14t-5 48q6 29 20 40t46 11q36 0 48.5 -14t5.5 -47q-7 -30 -21 -41t-46 -11zM541 911q-36 0 -48 14t-5 48q6 29 20 40t46 11q36 0 48.5 -14t5.5 -47q-7 -30 -21 -41t-46 -11zM237 -14q-126 0 -160.5 69t3.5 244l106 501h62l-107 -506
q-31 -145 -10.5 -198t107.5 -53q91 0 138 55.5t78 200.5l106 501h62l-107 -506q-38 -176 -97.5 -242t-180.5 -66z" />
    <glyph glyph-name="Yacute" unicode="&#xdd;" 
d="M410 868l-33 44l168 125l33 -43zM203 0l66 304l-131 496h67l109 -418l289 418h69l-341 -496l-66 -304h-62z" />
    <glyph glyph-name="Thorn" unicode="&#xde;" 
d="M361 610q125 0 164.5 -47t14.5 -168q-26 -117 -82 -161t-181 -44h-141l-40 -190h-62l170 800h62l-40 -190h135zM479 405q19 86 -7.5 116.5t-117.5 30.5h-141l-64 -304h135q92 0 134 34t61 123z" />
    <glyph glyph-name="germandbls" unicode="&#xdf;" 
d="M448 428q51 -24 64 -68.5t-6 -136.5q-27 -127 -84 -175t-182 -48h-63l13 57h58q91 0 134.5 38t64.5 136q21 97 -5 131t-117 34h-43l12 58h13q93 0 134.5 31.5t59.5 117.5q19 89 -7 121.5t-115 32.5q-79 0 -116 -34.5t-57 -125.5l-127 -597h-62l129 601q25 121 76 167
t160 46q126 0 165 -48t13 -171q-15 -70 -38.5 -105.5t-73.5 -61.5z" />
    <glyph glyph-name="agrave" unicode="&#xe0;" 
d="M392 683l-120 126l49 43l119 -125zM499 69l28 -47q-31 -36 -96 -36q-33 0 -53 16.5t-21 43.5q0 37 6 52q-29 -51 -73 -81.5t-90 -30.5q-78 0 -125.5 49t-46.5 128q0 102 51 212.5t130 183.5t154 73q149 0 149 -91q1 -18 -90 -440q-6 -27 -0.5 -42.5t29.5 -15.5
q25 0 48 26zM202 43q57 0 111 59.5t84 154.5q54 257 55 277q-1 24 -21 32.5t-70 8.5q-56 0 -120.5 -65.5t-108.5 -162.5t-44 -181q1 -56 32 -89.5t82 -33.5z" />
    <glyph glyph-name="aacute" unicode="&#xe1;" 
d="M371 683l-33 44l168 125l33 -43zM499 69l28 -47q-31 -36 -96 -36q-33 0 -53 16.5t-21 43.5q0 37 6 52q-29 -51 -73 -81.5t-90 -30.5q-78 0 -125.5 49t-46.5 128q0 102 51 212.5t130 183.5t154 73q149 0 149 -91q1 -18 -90 -440q-6 -27 -0.5 -42.5t29.5 -15.5q25 0 48 26z
M202 43q57 0 111 59.5t84 154.5q54 257 55 277q-1 24 -21 32.5t-70 8.5q-56 0 -120.5 -65.5t-108.5 -162.5t-44 -181q1 -56 32 -89.5t82 -33.5z" />
    <glyph glyph-name="acircumflex" unicode="&#xe2;" 
d="M471 678l-73 82l-109 -80l-41 37l163 123l114 -125zM499 69l28 -47q-31 -36 -96 -36q-33 0 -53 16.5t-21 43.5q0 37 6 52q-29 -51 -73 -81.5t-90 -30.5q-78 0 -125.5 49t-46.5 128q0 102 51 212.5t130 183.5t154 73q149 0 149 -91q1 -18 -90 -440q-6 -27 -0.5 -42.5
t29.5 -15.5q25 0 48 26zM202 43q57 0 111 59.5t84 154.5q54 257 55 277q-1 24 -21 32.5t-70 8.5q-56 0 -120.5 -65.5t-108.5 -162.5t-44 -181q1 -56 32 -89.5t82 -33.5z" />
    <glyph glyph-name="atilde" unicode="&#xe3;" 
d="M455 698q-21 0 -39.5 12t-29.5 26.5t-24.5 26.5t-24.5 12q-32 0 -41 -54l-61 5q9 48 37 77t67 29q20 0 38.5 -12t29.5 -26.5t24.5 -26.5t25.5 -12q33 0 40 50l61 -5q-8 -46 -36.5 -74t-66.5 -28zM499 69l28 -47q-31 -36 -96 -36q-33 0 -53 16.5t-21 43.5q0 37 6 52
q-29 -51 -73 -81.5t-90 -30.5q-78 0 -125.5 49t-46.5 128q0 102 51 212.5t130 183.5t154 73q149 0 149 -91q1 -18 -90 -440q-6 -27 -0.5 -42.5t29.5 -15.5q25 0 48 26zM202 43q57 0 111 59.5t84 154.5q54 257 55 277q-1 24 -21 32.5t-70 8.5q-56 0 -120.5 -65.5
t-108.5 -162.5t-44 -181q1 -56 32 -89.5t82 -33.5z" />
    <glyph glyph-name="adieresis" unicode="&#xe4;" 
d="M286 726q-36 0 -48 14t-5 48q6 29 20 40t46 11q36 0 48.5 -14t5.5 -47q-7 -30 -21 -41t-46 -11zM502 726q-36 0 -48 14t-5 48q6 29 20 40t46 11q36 0 48.5 -14t5.5 -47q-7 -30 -21 -41t-46 -11zM499 69l28 -47q-31 -36 -96 -36q-33 0 -53 16.5t-21 43.5q0 37 6 52
q-29 -51 -73 -81.5t-90 -30.5q-78 0 -125.5 49t-46.5 128q0 102 51 212.5t130 183.5t154 73q149 0 149 -91q1 -18 -90 -440q-6 -27 -0.5 -42.5t29.5 -15.5q25 0 48 26zM202 43q57 0 111 59.5t84 154.5q54 257 55 277q-1 24 -21 32.5t-70 8.5q-56 0 -120.5 -65.5
t-108.5 -162.5t-44 -181q1 -56 32 -89.5t82 -33.5z" />
    <glyph glyph-name="aring" unicode="&#xe5;" 
d="M386 694q-75 0 -99 28t-9 98q13 65 45.5 90t103.5 25q76 0 101 -28t10 -97q-14 -66 -46.5 -91t-105.5 -25zM388 751q43 0 62.5 15t27.5 54q7 34 -3.5 46t-49.5 12q-41 0 -60.5 -15t-26.5 -53q-8 -35 2.5 -47t47.5 -12zM499 69l28 -47q-31 -36 -96 -36q-33 0 -53 16.5
t-21 43.5q0 37 6 52q-29 -51 -73 -81.5t-90 -30.5q-78 0 -125.5 49t-46.5 128q0 102 51 212.5t130 183.5t154 73q149 0 149 -91q1 -18 -90 -440q-6 -27 -0.5 -42.5t29.5 -15.5q25 0 48 26zM202 43q57 0 111 59.5t84 154.5q54 257 55 277q-1 24 -21 32.5t-70 8.5
q-56 0 -120.5 -65.5t-108.5 -162.5t-44 -181q1 -56 32 -89.5t82 -33.5z" />
    <glyph glyph-name="ae" unicode="&#xe6;" 
d="M96 -14q-69 0 -100.5 52t-13.5 137q19 85 77.5 135t138.5 48h81l13 63q15 67 0.5 110.5t-51.5 43.5q-32 0 -67 -28.5t-59 -74.5l-58 19q32 63 83.5 102t103.5 39q40 0 69 -30t37 -80q30 50 71.5 80t81.5 30q71 0 94 -92t-10 -240h-259q-23 -114 -11.5 -185.5t52.5 -71.5
q25 0 58 24t60 62l45 -38q-38 -48 -84 -76.5t-83 -28.5q-39 0 -68 33.5t-34 89.5q-27 -54 -75 -88.5t-92 -34.5zM340 357l200 1q16 95 5 156t-45 61q-50 0 -94.5 -61t-65.5 -157zM99 43q51 0 92.5 49t58.5 128l17 82h-76q-56 0 -96.5 -36t-53.5 -99q-11 -55 5 -89.5
t53 -34.5z" />
    <glyph glyph-name="ccedilla" unicode="&#xe7;" 
d="M382 632q76 0 115 -24t68 -87l-55 -27q-23 47 -50.5 64t-80.5 17q-76 0 -148 -76.5t-98 -193.5q-31 -151 -9 -206.5t109 -55.5q71 0 110 17.5t86 68.5l47 -35q-49 -57 -95 -80.5t-119 -26.5l-6 -23q33 -2 49.5 -26t7.5 -61q-7 -38 -41 -61t-82 -23q-60 0 -89 34l36 51
q7 -12 23 -20t32 -8q24 0 41 10.5t21 26.5q3 15 -13.5 19t-53.5 2l15 79q-108 7 -136.5 79t9.5 247q30 138 119 228.5t188 90.5z" />
    <glyph glyph-name="egrave" unicode="&#xe8;" 
d="M440 727l-48 -44l-120 126l49 43zM262 46q51 0 108.5 25.5t99.5 66.5l30 -51q-49 -46 -116.5 -73.5t-129.5 -27.5q-72 0 -120 51t-48 130v12q-32 -12 -46 -26l-28 50q17 21 78 41q17 174 101.5 281t209.5 107q136 0 136 -132q0 -31 -8.5 -58.5t-19.5 -49t-34 -43
t-39.5 -35t-49.5 -30t-50.5 -24.5t-56.5 -21l-52.5 -17.5t-52.5 -15.5q-18 -5 -27 -8q-1 -11 -1 -33q0 -52 34 -85.5t82 -33.5zM398 575q-93 0 -160 -85.5t-86 -227.5q147 41 203 70q122 62 122 165q0 37 -23 57.5t-56 20.5z" />
    <glyph glyph-name="eacute" unicode="&#xe9;" 
d="M539 809l-168 -126l-33 44l168 125zM537 500q0 -31 -8.5 -58.5t-19.5 -49t-34 -43t-39.5 -35t-49.5 -30t-50.5 -24.5t-56.5 -21l-52.5 -17.5t-52.5 -15.5q-18 -5 -27 -8q-1 -11 -1 -33q0 -52 34 -85.5t82 -33.5q51 0 108.5 25.5t99.5 66.5l30 -51q-49 -46 -116.5 -73.5
t-129.5 -27.5q-72 0 -120 51t-48 130v12q-32 -12 -46 -26l-28 50q17 21 78 41q17 174 101.5 281t209.5 107q136 0 136 -132zM398 575q-93 0 -160 -85.5t-86 -227.5q147 41 203 70q122 62 122 165q0 37 -23 57.5t-56 20.5z" />
    <glyph glyph-name="ecircumflex" unicode="&#xea;" 
d="M398 760l-109 -80l-41 37l163 123l114 -125l-54 -37zM262 46q51 0 108.5 25.5t99.5 66.5l30 -51q-49 -46 -116.5 -73.5t-129.5 -27.5q-72 0 -120 51t-48 130v12q-32 -12 -46 -26l-28 50q17 21 78 41q17 174 101.5 281t209.5 107q136 0 136 -132q0 -31 -8.5 -58.5
t-19.5 -49t-34 -43t-39.5 -35t-49.5 -30t-50.5 -24.5t-56.5 -21l-52.5 -17.5t-52.5 -15.5q-18 -5 -27 -8q-1 -11 -1 -33q0 -52 34 -85.5t82 -33.5zM398 575q-93 0 -160 -85.5t-86 -227.5q147 41 203 70q122 62 122 165q0 37 -23 57.5t-56 20.5z" />
    <glyph glyph-name="edieresis" unicode="&#xeb;" 
d="M286 726q-36 0 -48 14t-5 48q6 29 20 40t46 11q36 0 48.5 -14t5.5 -47q-7 -30 -21 -41t-46 -11zM515 839q36 0 48.5 -14t5.5 -47q-7 -30 -21 -41t-46 -11q-36 0 -48 14t-5 48q6 29 20 40t46 11zM537 500q0 -31 -8.5 -58.5t-19.5 -49t-34 -43t-39.5 -35t-49.5 -30
t-50.5 -24.5t-56.5 -21l-52.5 -17.5t-52.5 -15.5q-18 -5 -27 -8q-1 -11 -1 -33q0 -52 34 -85.5t82 -33.5q51 0 108.5 25.5t99.5 66.5l30 -51q-49 -46 -116.5 -73.5t-129.5 -27.5q-72 0 -120 51t-48 130v12q-32 -12 -46 -26l-28 50q17 21 78 41q17 174 101.5 281t209.5 107
q136 0 136 -132zM398 575q-93 0 -160 -85.5t-86 -227.5q147 41 203 70q122 62 122 165q0 37 -23 57.5t-56 20.5z" />
    <glyph glyph-name="igrave" unicode="&#xec;" 
d="M329 683l-120 126l49 43l119 -125zM336 -14q-118 0 -152.5 60.5t5.5 215.5l63 225q6 31 -3.5 49t-42.5 25l15 57q114 -22 94 -118l-65 -238q-31 -124 -10 -171.5t98 -47.5q37 0 62 16.5t58 61.5l48 -33q-43 -58 -80 -80t-90 -22z" />
    <glyph glyph-name="iacute" unicode="&#xed;" 
d="M308 683l-33 44l168 125l33 -43zM336 -14q-118 0 -152.5 60.5t5.5 215.5l63 225q6 31 -3.5 49t-42.5 25l15 57q114 -22 94 -118l-65 -238q-31 -124 -10 -171.5t98 -47.5q37 0 62 16.5t58 61.5l48 -33q-43 -58 -80 -80t-90 -22z" />
    <glyph glyph-name="icircumflex" unicode="&#xee;" 
d="M408 678l-73 82l-109 -80l-41 37l163 123l114 -125zM336 -14q-118 0 -152.5 60.5t5.5 215.5l63 225q6 31 -3.5 49t-42.5 25l15 57q114 -22 94 -118l-65 -238q-31 -124 -10 -171.5t98 -47.5q37 0 62 16.5t58 61.5l48 -33q-43 -58 -80 -80t-90 -22z" />
    <glyph glyph-name="idieresis" unicode="&#xef;" 
d="M223 726q-36 0 -48 14t-5 48q6 29 20 40t46 11q36 0 48.5 -14t5.5 -47q-7 -30 -21 -41t-46 -11zM439 726q-36 0 -48 14t-5 48q6 29 20 40t46 11q36 0 48.5 -14t5.5 -47q-7 -30 -21 -41t-46 -11zM336 -14q-118 0 -152.5 60.5t5.5 215.5l63 225q6 31 -3.5 49t-42.5 25
l15 57q114 -22 94 -118l-65 -238q-31 -124 -10 -171.5t98 -47.5q37 0 62 16.5t58 61.5l48 -33q-43 -58 -80 -80t-90 -22z" />
    <glyph glyph-name="eth" unicode="&#xf0;" 
d="M510 710q41 -56 45 -156.5t-27 -253.5q-1 -9 -5 -27l-6 -29h-1q-68 -258 -310 -258q-112 0 -145.5 60t-2.5 209q26 120 106 189.5t195 69.5q91 0 132 -31q6 134 -46 195l-187 -93l-21 49l161 80q-58 31 -163 29l8 57q153 2 226 -50l106 53l21 -50zM210 45
q96 0 159.5 55.5t88.5 155.5q1 3 2.5 10t2.5 10q7 32 8 43q11 76 -17 107t-98 31q-92 0 -154.5 -55.5t-84.5 -154.5q-24 -114 -2.5 -158t95.5 -44z" />
    <glyph glyph-name="ntilde" unicode="&#xf1;" 
d="M455 698q-21 0 -39.5 12t-29.5 26.5t-24.5 26.5t-24.5 12q-32 0 -41 -54l-61 5q9 48 37 77t67 29q20 0 38.5 -12t29.5 -26.5t24.5 -26.5t25.5 -12q33 0 40 50l61 -5q-8 -46 -36.5 -74t-66.5 -28zM520 69l28 -47q-31 -36 -96 -36q-34 0 -54 17t-21 45q0 102 81 355
q55 172 -60 172q-65 0 -142 -97t-96 -188l-61 -290h-62l113 527q2 14 2 20q-2 28 -33 28q-22 0 -47 -25l-28 46q31 36 95 36q38 0 61 -27t12 -69l-16 -69q45 76 99 120.5t106 44.5q92 0 123 -57t-6 -178q-80 -244 -78 -325q0 -13 9 -21t24 -8q26 0 47 26z" />
    <glyph glyph-name="ograve" unicode="&#xf2;" 
d="M392 683l-120 126l49 43l119 -125zM236 -14q-127 0 -160.5 72t5.5 255q29 142 107 230.5t176 88.5q127 0 161 -72t-6 -255q-30 -143 -107.5 -231t-175.5 -88zM239 43q74 0 135.5 75t86.5 195q31 151 10 206.5t-110 55.5q-73 0 -134.5 -75t-87.5 -195
q-32 -151 -10.5 -206.5t110.5 -55.5z" />
    <glyph glyph-name="oacute" unicode="&#xf3;" 
d="M371 683l-33 44l168 125l33 -43zM236 -14q-127 0 -160.5 72t5.5 255q29 142 107 230.5t176 88.5q127 0 161 -72t-6 -255q-30 -143 -107.5 -231t-175.5 -88zM239 43q74 0 135.5 75t86.5 195q31 151 10 206.5t-110 55.5q-73 0 -134.5 -75t-87.5 -195q-32 -151 -10.5 -206.5
t110.5 -55.5z" />
    <glyph glyph-name="ocircumflex" unicode="&#xf4;" 
d="M471 678l-73 82l-109 -80l-41 37l163 123l114 -125zM236 -14q-127 0 -160.5 72t5.5 255q29 142 107 230.5t176 88.5q127 0 161 -72t-6 -255q-30 -143 -107.5 -231t-175.5 -88zM239 43q74 0 135.5 75t86.5 195q31 151 10 206.5t-110 55.5q-73 0 -134.5 -75t-87.5 -195
q-32 -151 -10.5 -206.5t110.5 -55.5z" />
    <glyph glyph-name="otilde" unicode="&#xf5;" 
d="M455 698q-21 0 -39.5 12t-29.5 26.5t-24.5 26.5t-24.5 12q-32 0 -41 -54l-61 5q9 48 37 77t67 29q20 0 38.5 -12t29.5 -26.5t24.5 -26.5t25.5 -12q33 0 40 50l61 -5q-8 -46 -36.5 -74t-66.5 -28zM236 -14q-127 0 -160.5 72t5.5 255q29 142 107 230.5t176 88.5
q127 0 161 -72t-6 -255q-30 -143 -107.5 -231t-175.5 -88zM239 43q74 0 135.5 75t86.5 195q31 151 10 206.5t-110 55.5q-73 0 -134.5 -75t-87.5 -195q-32 -151 -10.5 -206.5t110.5 -55.5z" />
    <glyph glyph-name="odieresis" unicode="&#xf6;" 
d="M286 726q-36 0 -48 14t-5 48q6 29 20 40t46 11q36 0 48.5 -14t5.5 -47q-7 -30 -21 -41t-46 -11zM502 726q-36 0 -48 14t-5 48q6 29 20 40t46 11q36 0 48.5 -14t5.5 -47q-7 -30 -21 -41t-46 -11zM236 -14q-127 0 -160.5 72t5.5 255q29 142 107 230.5t176 88.5
q127 0 161 -72t-6 -255q-30 -143 -107.5 -231t-175.5 -88zM239 43q74 0 135.5 75t86.5 195q31 151 10 206.5t-110 55.5q-73 0 -134.5 -75t-87.5 -195q-32 -151 -10.5 -206.5t110.5 -55.5z" />
    <glyph glyph-name="divide" unicode="&#xf7;" 
d="M352 527q-43 0 -57 16.5t-6 57.5q8 37 25 50.5t56 13.5q43 0 57 -16.5t6 -57.5q-8 -37 -25 -50.5t-56 -13.5zM39 371l13 58h547l-12 -58h-548zM268 135q-43 0 -56.5 16.5t-5.5 57.5q7 37 24.5 50.5t56.5 13.5q43 0 57 -16.5t6 -57.5q-8 -37 -25.5 -50.5t-56.5 -13.5z" />
    <glyph glyph-name="oslash" unicode="&#xf8;" 
d="M587 656l-65 -90q39 -70 -3 -261q-30 -143 -107.5 -231t-175.5 -88q-79 0 -118 25l-35 -48h-72l66 91q-36 72 4 259q29 142 107 230.5t176 88.5q77 0 117 -24l35 48h71zM139 305q-29 -131 -16 -188l320 439q-28 19 -82 19q-73 0 -134.5 -75t-87.5 -195zM461 313
q27 134 15 190l-321 -440q29 -20 84 -20q74 0 135.5 75t86.5 195z" />
    <glyph glyph-name="ugrave" unicode="&#xf9;" 
d="M384 683l-120 126l49 43l119 -125zM72 549l-28 47q31 36 96 36q34 0 54.5 -17t20.5 -45q2 -95 -80 -355q-55 -172 69 -172q65 0 136.5 96t91.5 189l61 290h63l-113 -527q-2 -17 -2 -20q0 -13 9 -20.5t23 -7.5q23 0 48 25l28 -46q-31 -36 -96 -36q-37 0 -60.5 27t-12.5 69
l16 69q-96 -165 -195 -165q-203 0 -126 235q79 249 78 325q-2 29 -33 29q-25 0 -48 -26z" />
    <glyph glyph-name="uacute" unicode="&#xfa;" 
d="M363 683l-33 44l168 125l33 -43zM72 549l-28 47q31 36 96 36q34 0 54.5 -17t20.5 -45q2 -95 -80 -355q-55 -172 69 -172q65 0 136.5 96t91.5 189l61 290h63l-113 -527q-2 -17 -2 -20q0 -13 9 -20.5t23 -7.5q23 0 48 25l28 -46q-31 -36 -96 -36q-37 0 -60.5 27t-12.5 69
l16 69q-96 -165 -195 -165q-203 0 -126 235q79 249 78 325q-2 29 -33 29q-25 0 -48 -26z" />
    <glyph glyph-name="ucircumflex" unicode="&#xfb;" 
d="M463 678l-73 82l-109 -80l-41 37l163 123l114 -125zM72 549l-28 47q31 36 96 36q34 0 54.5 -17t20.5 -45q2 -95 -80 -355q-55 -172 69 -172q65 0 136.5 96t91.5 189l61 290h63l-113 -527q-2 -17 -2 -20q0 -13 9 -20.5t23 -7.5q23 0 48 25l28 -46q-31 -36 -96 -36
q-37 0 -60.5 27t-12.5 69l16 69q-96 -165 -195 -165q-203 0 -126 235q79 249 78 325q-2 29 -33 29q-25 0 -48 -26z" />
    <glyph glyph-name="udieresis" unicode="&#xfc;" 
d="M278 726q-36 0 -48 14t-5 48q6 29 20 40t46 11q36 0 48.5 -14t5.5 -47q-7 -30 -21 -41t-46 -11zM494 726q-36 0 -48 14t-5 48q6 29 20 40t46 11q36 0 48.5 -14t5.5 -47q-7 -30 -21 -41t-46 -11zM72 549l-28 47q31 36 96 36q34 0 54.5 -17t20.5 -45q2 -95 -80 -355
q-55 -172 69 -172q65 0 136.5 96t91.5 189l61 290h63l-113 -527q-2 -17 -2 -20q0 -13 9 -20.5t23 -7.5q23 0 48 25l28 -46q-31 -36 -96 -36q-37 0 -60.5 27t-12.5 69l16 69q-96 -165 -195 -165q-203 0 -126 235q79 249 78 325q-2 29 -33 29q-25 0 -48 -26z" />
    <glyph glyph-name="yacute" unicode="&#xfd;" 
d="M371 683l-33 44l168 125l33 -43zM115 -206q-50 0 -81 20.5t-30 53.5q0 57 99.5 90t270.5 34q19 34 36 106q-14 -27 -56.5 -39.5t-88.5 -12.5q-79 0 -121 56t-21 123q74 230 76 321q-2 29 -33 29q-25 0 -48 -26l-28 47q31 36 96 36q33 0 53 -17t20 -45q2 -98 -76 -346
q-16 -54 8.5 -87.5t75.5 -33.5q71 0 112 24.5t56 97.5l82 393h61q-39 -185 -54.5 -260t-37 -172t-32.5 -137t-20 -58q49 0 90 12l-16 -58q-34 -10 -99 -10q-40 -64 -120.5 -102.5t-173.5 -38.5zM129 -149q58 0 114 22.5t93 60.5q-118 -4 -194.5 -22t-76.5 -41q0 -8 18.5 -14
t45.5 -6z" />
    <glyph glyph-name="thorn" unicode="&#xfe;" 
d="M370 632q125 0 155.5 -71t-10.5 -256q-30 -145 -103.5 -232t-169.5 -87q-128 0 -141 50l-48 -218h-62l208 982h62l-55 -251q22 38 69 60.5t95 22.5zM457 313q33 151 15 206.5t-105 55.5q-81 0 -130 -57t-82 -213q-13 -65 -20 -106t-6 -72t6 -46.5t22 -24.5t35.5 -11
t52.5 -2q73 0 129.5 73.5t82.5 196.5z" />
    <glyph glyph-name="ydieresis" unicode="&#xff;" 
d="M286 726q-36 0 -48 14t-5 48q6 29 20 40t46 11q36 0 48.5 -14t5.5 -47q-7 -30 -21 -41t-46 -11zM502 726q-36 0 -48 14t-5 48q6 29 20 40t46 11q36 0 48.5 -14t5.5 -47q-7 -30 -21 -41t-46 -11zM115 -206q-50 0 -81 20.5t-30 53.5q0 57 99.5 90t270.5 34q19 34 36 106
q-14 -27 -56.5 -39.5t-88.5 -12.5q-79 0 -121 56t-21 123q74 230 76 321q-2 29 -33 29q-25 0 -48 -26l-28 47q31 36 96 36q33 0 53 -17t20 -45q2 -98 -76 -346q-16 -54 8.5 -87.5t75.5 -33.5q71 0 112 24.5t56 97.5l82 393h61q-39 -185 -54.5 -260t-37 -172t-32.5 -137
t-20 -58q49 0 90 12l-16 -58q-34 -10 -99 -10q-40 -64 -120.5 -102.5t-173.5 -38.5zM129 -149q58 0 114 22.5t93 60.5q-118 -4 -194.5 -22t-76.5 -41q0 -8 18.5 -14t45.5 -6z" />
    <glyph glyph-name="Amacron" unicode="&#x100;" 
d="M295 961h286l-12 -58h-286zM370 800h68l52 -800h-63l-13 210h-269l-102 -210h-65zM173 268h238l-27 434z" />
    <glyph glyph-name="amacron" unicode="&#x101;" 
d="M244 718l12 58h286l-12 -58h-286zM499 69l28 -47q-31 -36 -96 -36q-33 0 -53 16.5t-21 43.5q0 37 6 52q-29 -51 -73 -81.5t-90 -30.5q-78 0 -125.5 49t-46.5 128q0 102 51 212.5t130 183.5t154 73q149 0 149 -91q1 -18 -90 -440q-6 -27 -0.5 -42.5t29.5 -15.5q25 0 48 26
zM202 43q57 0 111 59.5t84 154.5q54 257 55 277q-1 24 -21 32.5t-70 8.5q-56 0 -120.5 -65.5t-108.5 -162.5t-44 -181q1 -56 32 -89.5t82 -33.5z" />
    <glyph glyph-name="Abreve" unicode="&#x102;" 
d="M514 993l61 -5q-14 -71 -46.5 -97.5t-106.5 -26.5q-76 0 -100 29t-7 100l61 -5q-10 -40 -0.5 -53t48.5 -13q44 0 63 15t27 56zM370 800h68l52 -800h-63l-13 210h-269l-102 -210h-65zM173 268h238l-27 434z" />
    <glyph glyph-name="abreve" unicode="&#x103;" 
d="M383 679q-76 0 -100 29t-7 100l61 -5q-10 -41 -0.5 -53.5t48.5 -12.5q44 0 63 15t27 56l61 -5q-14 -71 -46.5 -97.5t-106.5 -26.5zM499 69l28 -47q-31 -36 -96 -36q-33 0 -53 16.5t-21 43.5q0 37 6 52q-29 -51 -73 -81.5t-90 -30.5q-78 0 -125.5 49t-46.5 128
q0 102 51 212.5t130 183.5t154 73q149 0 149 -91q1 -18 -90 -440q-6 -27 -0.5 -42.5t29.5 -15.5q25 0 48 26zM202 43q57 0 111 59.5t84 154.5q54 257 55 277q-1 24 -21 32.5t-70 8.5q-56 0 -120.5 -65.5t-108.5 -162.5t-44 -181q1 -56 32 -89.5t82 -33.5z" />
    <glyph glyph-name="Aogonek" unicode="&#x104;" 
d="M503 -116l20 -57q-38 -32 -96 -32q-52 0 -78.5 26t-17.5 68q7 34 31 55t57 23l9 33h-1l-13 210h-269l-102 -210h-65l392 800h68l52 -793h2l-18 -96q-75 4 -83 -32q-3 -12 7 -19.5t31 -7.5q18 0 39.5 9.5t34.5 22.5zM173 268h238l-27 434z" />
    <glyph glyph-name="aogonek" unicode="&#x105;" 
d="M456 -77q-75 4 -83 -32q-3 -12 7 -19.5t31 -7.5q18 0 39.5 9.5t34.5 22.5l20 -57q-38 -32 -96 -32q-52 0 -78.5 26t-17.5 68q7 34 31 55t57 23l3 11q-45 13 -47 56q0 37 6 52q-29 -51 -73 -81.5t-90 -30.5q-78 0 -125.5 49t-46.5 128q0 102 51 212.5t130 183.5t154 73
q149 0 149 -91q1 -18 -90 -440q-6 -27 -0.5 -42.5t29.5 -15.5q25 0 48 26l28 -47q-20 -23 -58 -31zM202 43q57 0 111 59.5t84 154.5q54 257 55 277q-1 24 -21 32.5t-70 8.5q-56 0 -120.5 -65.5t-108.5 -162.5t-44 -181q1 -56 32 -89.5t82 -33.5z" />
    <glyph glyph-name="Cacute" unicode="&#x106;" 
d="M409 865l-33 44l168 125l33 -43zM252 -14q-96 0 -141.5 39t-51.5 132t29 249q50 233 120.5 320.5t208.5 87.5q95 0 135.5 -38t49.5 -135l-61 -16q-8 77 -34 104.5t-91 27.5q-108 0 -166 -78.5t-101 -282.5q-44 -202 -21.5 -277.5t125.5 -75.5q68 0 108.5 29t82.5 105
l56 -25q-50 -96 -103 -131t-145 -35z" />
    <glyph glyph-name="cacute" unicode="&#x107;" 
d="M371 683l-33 44l168 125l33 -43zM429 129l47 -35q-53 -63 -104.5 -85.5t-141.5 -22.5q-126 0 -160.5 70.5t5.5 256.5q30 138 119 228.5t188 90.5q76 0 115 -24t68 -87l-55 -27q-23 47 -50.5 64t-80.5 17q-76 0 -148 -76.5t-98 -193.5q-31 -151 -9 -206.5t109 -55.5
q71 0 110 17.5t86 68.5z" />
    <glyph glyph-name="Ccircumflex" unicode="&#x108;" 
d="M509 860l-73 82l-109 -80l-41 37l163 123l114 -125zM252 -14q-96 0 -141.5 39t-51.5 132t29 249q50 233 120.5 320.5t208.5 87.5q95 0 135.5 -38t49.5 -135l-61 -16q-8 77 -34 104.5t-91 27.5q-108 0 -166 -78.5t-101 -282.5q-44 -202 -21.5 -277.5t125.5 -75.5
q68 0 108.5 29t82.5 105l56 -25q-50 -96 -103 -131t-145 -35z" />
    <glyph glyph-name="ccircumflex" unicode="&#x109;" 
d="M471 678l-73 82l-109 -80l-41 37l163 123l114 -125zM429 129l47 -35q-53 -63 -104.5 -85.5t-141.5 -22.5q-126 0 -160.5 70.5t5.5 256.5q30 138 119 228.5t188 90.5q76 0 115 -24t68 -87l-55 -27q-23 47 -50.5 64t-80.5 17q-76 0 -148 -76.5t-98 -193.5
q-31 -151 -9 -206.5t109 -55.5q71 0 110 17.5t86 68.5z" />
    <glyph glyph-name="Cdotaccent" unicode="&#x10a;" 
d="M433 911q-43 0 -57.5 16.5t-5.5 56.5q7 37 24.5 50.5t56.5 13.5q43 0 57 -16.5t6 -57.5q-7 -36 -25 -49.5t-56 -13.5zM252 -14q-96 0 -141.5 39t-51.5 132t29 249q50 233 120.5 320.5t208.5 87.5q95 0 135.5 -38t49.5 -135l-61 -16q-8 77 -34 104.5t-91 27.5
q-108 0 -166 -78.5t-101 -282.5q-44 -202 -21.5 -277.5t125.5 -75.5q68 0 108.5 29t82.5 105l56 -25q-50 -96 -103 -131t-145 -35z" />
    <glyph glyph-name="cdotaccent" unicode="&#x10b;" 
d="M395 729q-43 0 -57.5 16.5t-5.5 56.5q7 37 24.5 50.5t56.5 13.5q43 0 57 -16.5t6 -57.5q-7 -36 -25 -49.5t-56 -13.5zM429 129l47 -35q-53 -63 -104.5 -85.5t-141.5 -22.5q-126 0 -160.5 70.5t5.5 256.5q30 138 119 228.5t188 90.5q76 0 115 -24t68 -87l-55 -27
q-23 47 -50.5 64t-80.5 17q-76 0 -148 -76.5t-98 -193.5q-31 -151 -9 -206.5t109 -55.5q71 0 110 17.5t86 68.5z" />
    <glyph glyph-name="Ccaron" unicode="&#x10c;" 
d="M419 865l-114 123l53 37l75 -81l108 83l42 -37zM252 -14q-96 0 -141.5 39t-51.5 132t29 249q50 233 120.5 320.5t208.5 87.5q95 0 135.5 -38t49.5 -135l-61 -16q-8 77 -34 104.5t-91 27.5q-108 0 -166 -78.5t-101 -282.5q-44 -202 -21.5 -277.5t125.5 -75.5
q68 0 108.5 29t82.5 105l56 -25q-50 -96 -103 -131t-145 -35z" />
    <glyph glyph-name="ccaron" unicode="&#x10d;" 
d="M381 683l-114 123l53 37l75 -81l108 83l42 -37zM429 129l47 -35q-53 -63 -104.5 -85.5t-141.5 -22.5q-126 0 -160.5 70.5t5.5 256.5q30 138 119 228.5t188 90.5q76 0 115 -24t68 -87l-55 -27q-23 47 -50.5 64t-80.5 17q-76 0 -148 -76.5t-98 -193.5q-31 -151 -9 -206.5
t109 -55.5q71 0 110 17.5t86 68.5z" />
    <glyph glyph-name="Dcaron" unicode="&#x10e;" 
d="M583 990l-164 -125l-114 123l53 37l75 -81l108 83zM415 800q133 0 166 -88.5t-15 -316.5q-49 -225 -116.5 -310t-199.5 -85h-237l170 800h232zM505 405q42 193 21.5 265.5t-118.5 72.5h-176l-144 -686h169q98 0 152.5 76t95.5 272z" />
    <glyph glyph-name="dcaron" unicode="&#x10f;" 
d="M480 43q25 0 48 26l28 -47q-31 -36 -96 -36q-73 0 -73 66q-51 -66 -196 -66q-114 0 -143.5 71t8.5 255q30 146 111 233t192 87q46 0 80.5 -22t45.5 -58l54 248h62l-149 -699q-7 -26 -1.5 -42t29.5 -16zM596 544l45 255h66l-62 -255h-49zM194 43q71 0 126.5 23.5
t75.5 61.5l63 287q10 72 -18.5 116t-84.5 44q-87 0 -151 -73.5t-91 -197.5q-31 -148 -13 -204.5t93 -56.5z" />
    <glyph glyph-name="Dcroat" unicode="&#x110;" 
d="M418 800q133 0 166 -88.5t-15 -316.5q-49 -225 -116.5 -310t-199.5 -85h-237l84 394h-52l12 58h52l74 348h232zM508 405q42 193 21.5 265.5t-118.5 72.5h-176l-61 -291h144l-11 -58h-145l-71 -337h169q98 0 152.5 76t95.5 272z" />
    <glyph glyph-name="dcroat" unicode="&#x111;" 
d="M575 676l-123 -575q-7 -26 -1.5 -42t29.5 -16q25 0 48 26l28 -47q-31 -36 -96 -36q-73 0 -73 66q-51 -66 -196 -66q-114 0 -143.5 71t8.5 255q30 146 111 233t192 87q46 0 80.5 -22t45.5 -58l27 124h-111l12 57h111l15 67h62l-14 -67h79l-12 -57h-79zM396 128l63 287
q10 72 -18.5 116t-84.5 44q-87 0 -151 -73.5t-91 -197.5q-31 -148 -13 -204.5t93 -56.5q71 0 126.5 23.5t75.5 61.5z" />
    <glyph glyph-name="Emacron" unicode="&#x112;" 
d="M595 961l-12 -58h-286l12 58h286zM625 743h-376l-60 -291h239l-12 -58h-241l-70 -337h373l-12 -57h-436l170 800h436z" />
    <glyph glyph-name="emacron" unicode="&#x113;" 
d="M542 776l-12 -58h-286l12 58h286zM537 500q0 -31 -8.5 -58.5t-19.5 -49t-34 -43t-39.5 -35t-49.5 -30t-50.5 -24.5t-56.5 -21l-52.5 -17.5t-52.5 -15.5q-18 -5 -27 -8q-1 -11 -1 -33q0 -52 34 -85.5t82 -33.5q51 0 108.5 25.5t99.5 66.5l30 -51q-49 -46 -116.5 -73.5
t-129.5 -27.5q-72 0 -120 51t-48 130v12q-32 -12 -46 -26l-28 50q17 21 78 41q17 174 101.5 281t209.5 107q136 0 136 -132zM398 575q-93 0 -160 -85.5t-86 -227.5q147 41 203 70q122 62 122 165q0 37 -23 57.5t-56 20.5z" />
    <glyph glyph-name="Edotaccent" unicode="&#x116;" 
d="M448 914q-43 0 -57.5 16.5t-5.5 56.5q7 37 24.5 50.5t56.5 13.5q43 0 57 -16.5t6 -57.5q-7 -36 -25 -49.5t-56 -13.5zM625 743h-376l-60 -291h239l-12 -58h-241l-70 -337h373l-12 -57h-436l170 800h436z" />
    <glyph glyph-name="edotaccent" unicode="&#x117;" 
d="M395 729q-43 0 -57.5 16.5t-5.5 56.5q7 37 24.5 50.5t56.5 13.5q43 0 57 -16.5t6 -57.5q-7 -36 -25 -49.5t-56 -13.5zM262 46q51 0 108.5 25.5t99.5 66.5l30 -51q-49 -46 -116.5 -73.5t-129.5 -27.5q-72 0 -120 51t-48 130v12q-32 -12 -46 -26l-28 50q17 21 78 41
q17 174 101.5 281t209.5 107q136 0 136 -132q0 -31 -8.5 -58.5t-19.5 -49t-34 -43t-39.5 -35t-49.5 -30t-50.5 -24.5t-56.5 -21l-52.5 -17.5t-52.5 -15.5q-18 -5 -27 -8q-1 -11 -1 -33q0 -52 34 -85.5t82 -33.5zM398 575q-93 0 -160 -85.5t-86 -227.5q147 41 203 70
q122 62 122 165q0 37 -23 57.5t-56 20.5z" />
    <glyph glyph-name="Eogonek" unicode="&#x118;" 
d="M625 743h-376l-60 -291h239l-12 -58h-241l-70 -337h373l-11 -50h1l-18 -96q-75 4 -83 -32q-3 -12 7 -19.5t31 -7.5q18 0 39.5 9.5t34.5 22.5l20 -57q-38 -32 -96 -32q-52 0 -78.5 26t-17.5 68q7 34 31 55t57 23l9 33h-374l170 800h436z" />
    <glyph glyph-name="eogonek" unicode="&#x119;" 
d="M271 -86q-75 4 -83 -32q-3 -12 7 -19.5t31 -7.5q18 0 39.5 9.5t34.5 22.5l20 -57q-38 -32 -96 -32q-52 0 -78.5 26t-17.5 68q7 34 31 55t57 23l5 19q-59 11 -97 60t-38 118v12q-32 -12 -46 -26l-28 50q17 21 78 41q17 174 101.5 281t209.5 107q136 0 136 -132
q0 -31 -8.5 -58.5t-19.5 -49t-34 -43t-39.5 -35t-49.5 -30t-50.5 -24.5t-56.5 -21l-52.5 -17.5t-52.5 -15.5q-18 -5 -27 -8q-1 -11 -1 -33q0 -52 34 -85.5t82 -33.5q51 0 108.5 25.5t99.5 66.5l30 -51q-42 -40 -100 -66.5t-115 -32.5zM398 575q-93 0 -160 -85.5t-86 -227.5
q147 41 203 70q122 62 122 165q0 37 -23 57.5t-56 20.5z" />
    <glyph glyph-name="Ecaron" unicode="&#x11a;" 
d="M598 993l-164 -125l-114 123l53 37l75 -81l108 83zM625 743h-376l-60 -291h239l-12 -58h-241l-70 -337h373l-12 -57h-436l170 800h436z" />
    <glyph glyph-name="ecaron" unicode="&#x11b;" 
d="M545 808l-164 -125l-114 123l53 37l75 -81l108 83zM537 500q0 -31 -8.5 -58.5t-19.5 -49t-34 -43t-39.5 -35t-49.5 -30t-50.5 -24.5t-56.5 -21l-52.5 -17.5t-52.5 -15.5q-18 -5 -27 -8q-1 -11 -1 -33q0 -52 34 -85.5t82 -33.5q51 0 108.5 25.5t99.5 66.5l30 -51
q-49 -46 -116.5 -73.5t-129.5 -27.5q-72 0 -120 51t-48 130v12q-32 -12 -46 -26l-28 50q17 21 78 41q17 174 101.5 281t209.5 107q136 0 136 -132zM398 575q-93 0 -160 -85.5t-86 -227.5q147 41 203 70q122 62 122 165q0 37 -23 57.5t-56 20.5z" />
    <glyph glyph-name="Gcircumflex" unicode="&#x11c;" 
d="M509 860l-73 82l-109 -80l-41 37l163 123l114 -125zM256 -14q-149 0 -186 90t13 329q50 234 122 321.5t216 87.5q103 0 144.5 -42t47.5 -150l-60 -10q-4 84 -32.5 114.5t-100.5 30.5q-113 0 -173 -78.5t-103 -283.5q-44 -202 -20 -277t133 -75q68 0 108.5 27t79.5 95
l41 183h-174l11 58h236l-53 -255q-51 -95 -104.5 -130t-145.5 -35z" />
    <glyph glyph-name="gcircumflex" unicode="&#x11d;" 
d="M481 678l-73 82l-109 -80l-41 37l163 123l114 -125zM115 -206q-50 0 -81 20.5t-30 53.5q0 58 99 90.5t271 32.5q18 29 35 111q-17 -24 -70 -40t-104 -16q-78 0 -125.5 47.5t-47.5 125.5q0 98 53.5 195.5t135 157.5t158.5 60q72 0 111 -21t38 -70q0 -38 -51.5 -272.5
t-71.5 -278.5q51 2 89 13l-16 -58q-34 -10 -99 -10q-40 -64 -120.5 -102.5t-173.5 -38.5zM237 103q97 0 139 22t58 95q63 296 64 314q-1 29 -18 35t-73 6q-59 0 -126 -52.5t-113 -136.5t-46 -165q1 -53 32.5 -85.5t82.5 -32.5zM129 -149q58 0 114 22.5t93 60.5
q-118 -4 -194.5 -22t-76.5 -41q0 -8 18.5 -14t45.5 -6z" />
    <glyph glyph-name="Gbreve" unicode="&#x11e;" 
d="M421 861q-76 0 -100 29t-7 100l61 -5q-10 -41 -0.5 -53.5t48.5 -12.5q44 0 63 15t27 56l61 -5q-14 -71 -46.5 -97.5t-106.5 -26.5zM256 -14q-149 0 -186 90t13 329q50 234 122 321.5t216 87.5q103 0 144.5 -42t47.5 -150l-60 -10q-4 84 -32.5 114.5t-100.5 30.5
q-113 0 -173 -78.5t-103 -283.5q-44 -202 -20 -277t133 -75q68 0 108.5 27t79.5 95l41 183h-174l11 58h236l-53 -255q-51 -95 -104.5 -130t-145.5 -35z" />
    <glyph glyph-name="gbreve" unicode="&#x11f;" 
d="M393 679q-76 0 -100 29t-7 100l61 -5q-10 -41 -0.5 -53.5t48.5 -12.5q44 0 63 15t27 56l61 -5q-14 -71 -46.5 -97.5t-106.5 -26.5zM115 -206q-50 0 -81 20.5t-30 53.5q0 58 99 90.5t271 32.5q18 29 35 111q-17 -24 -70 -40t-104 -16q-78 0 -125.5 47.5t-47.5 125.5
q0 98 53.5 195.5t135 157.5t158.5 60q72 0 111 -21t38 -70q0 -38 -51.5 -272.5t-71.5 -278.5q51 2 89 13l-16 -58q-34 -10 -99 -10q-40 -64 -120.5 -102.5t-173.5 -38.5zM237 103q97 0 139 22t58 95q63 296 64 314q-1 29 -18 35t-73 6q-59 0 -126 -52.5t-113 -136.5
t-46 -165q1 -53 32.5 -85.5t82.5 -32.5zM129 -149q58 0 114 22.5t93 60.5q-118 -4 -194.5 -22t-76.5 -41q0 -8 18.5 -14t45.5 -6z" />
    <glyph glyph-name="Gdotaccent" unicode="&#x120;" 
d="M433 911q-43 0 -57.5 16.5t-5.5 56.5q7 37 24.5 50.5t56.5 13.5q43 0 57 -16.5t6 -57.5q-7 -36 -25 -49.5t-56 -13.5zM256 -14q-149 0 -186 90t13 329q50 234 122 321.5t216 87.5q103 0 144.5 -42t47.5 -150l-60 -10q-4 84 -32.5 114.5t-100.5 30.5q-113 0 -173 -78.5
t-103 -283.5q-44 -202 -20 -277t133 -75q68 0 108.5 27t79.5 95l41 183h-174l11 58h236l-53 -255q-51 -95 -104.5 -130t-145.5 -35z" />
    <glyph glyph-name="gdotaccent" unicode="&#x121;" 
d="M405 729q-43 0 -57.5 16.5t-5.5 56.5q7 37 24.5 50.5t56.5 13.5q43 0 57 -16.5t6 -57.5q-7 -36 -25 -49.5t-56 -13.5zM115 -206q-50 0 -81 20.5t-30 53.5q0 58 99 90.5t271 32.5q18 29 35 111q-17 -24 -70 -40t-104 -16q-78 0 -125.5 47.5t-47.5 125.5q0 98 53.5 195.5
t135 157.5t158.5 60q72 0 111 -21t38 -70q0 -38 -51.5 -272.5t-71.5 -278.5q51 2 89 13l-16 -58q-34 -10 -99 -10q-40 -64 -120.5 -102.5t-173.5 -38.5zM237 103q97 0 139 22t58 95q63 296 64 314q-1 29 -18 35t-73 6q-59 0 -126 -52.5t-113 -136.5t-46 -165
q1 -53 32.5 -85.5t82.5 -32.5zM129 -149q58 0 114 22.5t93 60.5q-118 -4 -194.5 -22t-76.5 -41q0 -8 18.5 -14t45.5 -6z" />
    <glyph glyph-name="uni0122" unicode="&#x122;" 
d="M256 -14q-149 0 -186 90t13 329q50 234 122 321.5t216 87.5q103 0 144.5 -42t47.5 -150l-60 -10q-4 84 -32.5 114.5t-100.5 30.5q-113 0 -173 -78.5t-103 -283.5q-44 -202 -20 -277t133 -75q68 0 108.5 27t79.5 95l41 183h-174l11 58h236l-53 -255q-51 -95 -104.5 -130
t-145.5 -35zM123 -246l77 123q-25 6 -17 46q4 22 14.5 30t34.5 8q29 0 38.5 -11t3.5 -37q-11 -51 -106 -161z" />
    <glyph glyph-name="uni0123" unicode="&#x123;" 
d="M380 658q-28 0 -37.5 11t-4.5 37q11 53 107 161l45 -2l-78 -123q27 -6 18 -46q-5 -23 -15 -30.5t-35 -7.5zM115 -206q-50 0 -81 20.5t-30 53.5q0 58 99 90.5t271 32.5q18 29 35 111q-17 -24 -70 -40t-104 -16q-78 0 -125.5 47.5t-47.5 125.5q0 98 53.5 195.5t135 157.5
t158.5 60q72 0 111 -21t38 -70q0 -38 -51.5 -272.5t-71.5 -278.5q51 2 89 13l-16 -58q-34 -10 -99 -10q-40 -64 -120.5 -102.5t-173.5 -38.5zM237 103q97 0 139 22t58 95q63 296 64 314q-1 29 -18 35t-73 6q-59 0 -126 -52.5t-113 -136.5t-46 -165q1 -53 32.5 -85.5
t82.5 -32.5zM129 -149q58 0 114 22.5t93 60.5q-118 -4 -194.5 -22t-76.5 -41q0 -8 18.5 -14t45.5 -6z" />
    <glyph glyph-name="Hcircumflex" unicode="&#x124;" 
d="M436 942l-109 -80l-41 37l163 123l114 -125l-54 -37zM564 800h62l-170 -800h-62l84 394h-320l-84 -394h-62l170 800h62l-74 -348h320z" />
    <glyph glyph-name="hcircumflex" unicode="&#x125;" 
d="M295 815l-73 82l-109 -80l-41 37l163 123l114 -125zM500 69l28 -47q-31 -36 -96 -36q-34 0 -54.5 17t-20.5 45q-1 83 80 355q53 172 -69 172q-48 0 -103 -48.5t-94.5 -115.5t-51.5 -126l-60 -285h-63l170 800h62l-71 -331q44 76 99.5 119.5t114.5 43.5q201 0 126 -235
q-76 -245 -78 -325q2 -29 33 -29q25 0 48 26z" />
    <glyph glyph-name="Hbar" unicode="&#x126;" 
d="M637 609l-11 -57h-53l-117 -552h-62l84 394h-320l-84 -394h-62l117 552h-51l12 57h51l41 191h62l-41 -191h320l41 191h62l-41 -191h52zM490 452l21 100h-320l-21 -100h320z" />
    <glyph glyph-name="hbar" unicode="&#x127;" 
d="M500 69l28 -47q-31 -36 -96 -36q-34 0 -54.5 17t-20.5 45q-1 83 80 355q53 172 -69 172q-48 0 -103 -48.5t-94.5 -115.5t-51.5 -126l-60 -285h-63l144 676h-47l12 57h47l14 67h62l-14 -67h145l-13 -57h-145l-44 -207q44 76 99.5 119.5t114.5 43.5q201 0 126 -235
q-76 -245 -78 -325q2 -29 33 -29q25 0 48 26z" />
    <glyph glyph-name="Itilde" unicode="&#x128;" 
d="M376 960q-32 0 -41 -54l-61 5q9 48 37 77t67 29q26 0 47.5 -19.5t38.5 -38.5t32 -19q33 0 40 50l61 -5q-8 -46 -36.5 -74t-66.5 -28q-26 0 -48.5 19.5t-39.5 38.5t-30 19zM597 800l-11 -57h-163l-146 -686h162l-12 -57h-386l12 57h162l146 686h-161l11 57h386z" />
    <glyph glyph-name="itilde" unicode="&#x129;" 
d="M392 698q-21 0 -39.5 12t-29.5 26.5t-24.5 26.5t-24.5 12q-32 0 -41 -54l-61 5q9 48 37 77t67 29q20 0 38.5 -12t29.5 -26.5t24.5 -26.5t25.5 -12q33 0 40 50l61 -5q-8 -46 -36.5 -74t-66.5 -28zM336 -14q-118 0 -152.5 60.5t5.5 215.5l63 225q6 31 -3.5 49t-42.5 25
l15 57q114 -22 94 -118l-65 -238q-31 -124 -10 -171.5t98 -47.5q37 0 62 16.5t58 61.5l48 -33q-43 -58 -80 -80t-90 -22z" />
    <glyph glyph-name="Imacron" unicode="&#x12a;" 
d="M581 961l-12 -58h-286l12 58h286zM586 743h-163l-146 -686h162l-12 -57h-386l12 57h162l146 686h-161l11 57h386z" />
    <glyph glyph-name="imacron" unicode="&#x12b;" 
d="M181 718l12 58h286l-12 -58h-286zM336 -14q-118 0 -152.5 60.5t5.5 215.5l63 225q6 31 -3.5 49t-42.5 25l15 57q114 -22 94 -118l-65 -238q-31 -124 -10 -171.5t98 -47.5q37 0 62 16.5t58 61.5l48 -33q-43 -58 -80 -80t-90 -22z" />
    <glyph glyph-name="Iogonek" unicode="&#x12e;" 
d="M586 743h-163l-146 -686h162l-12 -57h-157l-17 -88q-75 4 -83 -32q-3 -12 7 -19.5t31 -7.5q18 0 39.5 9.5t34.5 22.5l20 -57q-38 -32 -96 -32q-52 0 -78.5 26t-17.5 68q7 34 31 55t57 23l9 32h-166l12 57h162l146 686h-161l11 57h386z" />
    <glyph glyph-name="iogonek" unicode="&#x12f;" 
d="M332 729q-43 0 -57.5 16.5t-5.5 56.5q7 37 24.5 50.5t56.5 13.5q43 0 57 -16.5t6 -57.5q-7 -36 -25 -49.5t-56 -13.5zM323 -86q-75 4 -83 -32q-3 -12 7 -19.5t31 -7.5q18 0 39.5 9.5t34.5 22.5l20 -57q-38 -32 -96 -32q-52 0 -78.5 26t-17.5 68q7 34 31 55t57 23l6 21
q-80 14 -100 76.5t15 194.5l63 225q6 31 -3.5 49t-42.5 25l15 57q114 -22 94 -118l-65 -238q-31 -124 -10 -171.5t98 -47.5q37 0 62 16.5t58 61.5l48 -33q-43 -58 -79.5 -80t-89.5 -22z" />
    <glyph glyph-name="Idotaccent" unicode="&#x130;" 
d="M434 914q-43 0 -57.5 16.5t-5.5 56.5q7 37 24.5 50.5t56.5 13.5q43 0 57 -16.5t6 -57.5q-7 -36 -25 -49.5t-56 -13.5zM586 743h-163l-146 -686h162l-12 -57h-386l12 57h162l146 686h-161l11 57h386z" />
    <glyph glyph-name="dotlessi" unicode="&#x131;" 
d="M336 -14q-118 0 -152.5 60.5t5.5 215.5l63 225q6 31 -3.5 49t-42.5 25l15 57q114 -22 94 -118l-65 -238q-31 -124 -10 -171.5t98 -47.5q37 0 62 16.5t58 61.5l48 -33q-43 -58 -80 -80t-90 -22z" />
    <glyph glyph-name="Jcircumflex" unicode="&#x134;" 
d="M626 860l-73 82l-109 -80l-41 37l163 123l114 -125zM201 -14q-96 0 -136.5 37.5t-48.5 133.5l59 11q7 -73 33.5 -99t93.5 -26q107 0 163 68t93 245l83 387h-131l11 57h193l-95 -449q-44 -208 -112.5 -286.5t-205.5 -78.5z" />
    <glyph glyph-name="jcircumflex" unicode="&#x135;" 
d="M573 678l-73 82l-109 -80l-41 37l163 123l114 -125zM55 -206q-50 0 -81 20.5t-30 53.5q0 57 99 90t270 34q29 60 116 489q6 32 -3 50t-41 26l16 56q111 -23 91 -120q-86 -432 -118 -502q49 0 90 12l-16 -58q-34 -10 -99 -10q-40 -64 -120.5 -102.5t-173.5 -38.5zM69 -149
q58 0 114 22.5t93 60.5q-118 -4 -194.5 -22t-76.5 -41q0 -8 18.5 -14t45.5 -6z" />
    <glyph glyph-name="uni0136" unicode="&#x136;" 
d="M670 800l-377 -363l208 -437h-71l-188 394h-78l-84 -394h-62l170 800h62l-74 -348h53l362 348h79zM232 -39q29 0 38.5 -11t3.5 -37q-11 -51 -106 -161l-45 2l77 123q-25 6 -17 46q4 22 14.5 30t34.5 8z" />
    <glyph glyph-name="uni0137" unicode="&#x137;" 
d="M411 43q15 0 35 19.5t33 46.5l42 -48q-58 -75 -114 -75q-87 0 -90 182q-2 76 -54 122l26 47q99 -1 160.5 44t60.5 118q-1 34 -28 56t-63 22q-80 0 -150.5 -72.5t-100.5 -190.5l-67 -314h-61l63 295h-1l6 24l102 481h61l-58 -275q93 109 210 109q62 0 104.5 -35.5
t42.5 -92.5q1 -84 -59.5 -145t-160.5 -77q31 -51 31 -111q1 -69 6.5 -99.5t23.5 -30.5zM235 -39q29 0 38.5 -11t3.5 -37q-11 -51 -106 -161l-45 2l77 123q-25 6 -17 46q4 22 14.5 30t34.5 8z" />
    <glyph glyph-name="Lacute" unicode="&#x139;" 
d="M274 865l-33 44l168 125l33 -43zM49 0l170 800h62l-158 -743h335l-12 -57h-397z" />
    <glyph glyph-name="lacute" unicode="&#x13a;" 
d="M588 991l-168 -126l-33 44l168 125zM520 690q0 -144 -70.5 -277.5t-191.5 -240.5q2 -58 22.5 -93.5t53.5 -35.5q29 0 62.5 22t57.5 57l48 -35q-33 -45 -80.5 -73t-90.5 -28q-56 0 -92 37t-41 99q-97 -73 -210 -122l-22 51q124 55 231 146q2 147 13.5 256.5t36.5 192.5
t67 125.5t101 42.5q48 0 76.5 -33.5t28.5 -90.5zM407 756q-66 0 -105 -138t-44 -364q200 205 200 434q0 68 -51 68z" />
    <glyph glyph-name="uni013B" unicode="&#x13b;" 
d="M49 0l170 800h62l-158 -743h335l-12 -57h-397zM123 -246l77 123q-25 6 -17 46q4 22 14.5 30t34.5 8q29 0 38.5 -11t3.5 -37q-11 -51 -106 -161z" />
    <glyph glyph-name="uni013C" unicode="&#x13c;" 
d="M334 43q29 0 62.5 22t57.5 57l48 -35q-33 -45 -80.5 -73t-90.5 -28q-56 0 -92 37t-41 99q-97 -73 -210 -122l-22 51q124 55 231 146q2 147 13.5 256.5t36.5 192.5t67 125.5t101 42.5q48 0 76.5 -33.5t28.5 -90.5q0 -144 -70.5 -277.5t-191.5 -240.5q2 -58 22.5 -93.5
t53.5 -35.5zM407 756q-66 0 -105 -138t-44 -364q200 205 200 434q0 68 -51 68zM222 -39q29 0 38.5 -11t3.5 -37q-11 -51 -106 -161l-45 2l77 123q-25 6 -17 46q4 22 14.5 30t34.5 8z" />
    <glyph glyph-name="Lcaron" unicode="&#x13d;" 
d="M49 0l170 800h62l-158 -743h335l-12 -57h-397zM368 545l46 255h66l-62 -255h-50z" />
    <glyph glyph-name="lcaron" unicode="&#x13e;" 
d="M520 690q0 -144 -70.5 -277.5t-191.5 -240.5q2 -58 22.5 -93.5t53.5 -35.5q29 0 62.5 22t57.5 57l48 -35q-33 -45 -80.5 -73t-90.5 -28q-56 0 -92 37t-41 99q-97 -73 -210 -122l-22 51q124 55 231 146q2 147 13.5 256.5t36.5 192.5t67 125.5t101 42.5q48 0 76.5 -33.5
t28.5 -90.5zM586 799h66l-62 -255h-49zM407 756q-66 0 -105 -138t-44 -364q200 205 200 434q0 68 -51 68z" />
    <glyph glyph-name="Lslash" unicode="&#x141;" 
d="M153 57h335l-12 -57h-397l92 435l-106 -40l13 59l106 39l65 307h62l-60 -281l146 54l-12 -59l-146 -54z" />
    <glyph glyph-name="lslash" unicode="&#x142;" 
d="M500 540q-55 -204 -242 -368q2 -58 22.5 -93.5t53.5 -35.5q29 0 62.5 22t57.5 57l48 -35q-33 -45 -80.5 -73t-90.5 -28q-56 0 -92 37t-41 99q-97 -73 -210 -122l-22 51q124 55 231 146q2 139 11 233l-53 -20l13 61l47 18q41 325 200 325q48 0 76.5 -33.5t28.5 -90.5
q0 -38 -7 -90l44 17l-16 -61zM407 756q-44 0 -77 -64t-51 -179l166 62q13 60 13 113q0 68 -51 68zM426 513l-155 -59q-10 -84 -13 -200q118 120 168 259z" />
    <glyph glyph-name="Nacute" unicode="&#x143;" 
d="M578 994l-168 -126l-33 44l168 125zM562 800h62l-170 -800h-65l-171 670l-142 -670h-62l170 800h66l170 -667z" />
    <glyph glyph-name="nacute" unicode="&#x144;" 
d="M371 683l-33 44l168 125l33 -43zM520 69l28 -47q-31 -36 -96 -36q-34 0 -54 17t-21 45q0 102 81 355q55 172 -60 172q-65 0 -142 -97t-96 -188l-61 -290h-62l113 527q2 14 2 20q-2 28 -33 28q-22 0 -47 -25l-28 46q31 36 95 36q38 0 61 -27t12 -69l-16 -69
q45 76 99 120.5t106 44.5q92 0 123 -57t-6 -178q-80 -244 -78 -325q0 -13 9 -21t24 -8q26 0 47 26z" />
    <glyph glyph-name="uni0145" unicode="&#x145;" 
d="M562 800h62l-170 -800h-65l-171 670l-142 -670h-62l170 800h66l170 -667zM232 -42q29 0 38.5 -11t3.5 -37q-11 -51 -106 -161l-45 2l77 123q-25 6 -17 46q4 22 14.5 30t34.5 8z" />
    <glyph glyph-name="uni0146" unicode="&#x146;" 
d="M520 69l28 -47q-31 -36 -96 -36q-34 0 -54 17t-21 45q0 102 81 355q55 172 -60 172q-65 0 -142 -97t-96 -188l-61 -290h-62l113 527q2 14 2 20q-2 28 -33 28q-22 0 -47 -25l-28 46q31 36 95 36q38 0 61 -27t12 -69l-16 -69q45 76 99 120.5t106 44.5q92 0 123 -57t-6 -178
q-80 -244 -78 -325q0 -13 9 -21t24 -8q26 0 47 26zM123 -246l77 123q-25 6 -17 46q4 22 14.5 30t34.5 8q29 0 38.5 -11t3.5 -37q-11 -51 -106 -161z" />
    <glyph glyph-name="Ncaron" unicode="&#x147;" 
d="M584 993l-164 -125l-114 123l53 37l75 -81l108 83zM562 800h62l-170 -800h-65l-171 670l-142 -670h-62l170 800h66l170 -667z" />
    <glyph glyph-name="ncaron" unicode="&#x148;" 
d="M381 683l-114 123l53 37l75 -81l108 83l42 -37zM520 69l28 -47q-31 -36 -96 -36q-34 0 -54 17t-21 45q0 102 81 355q55 172 -60 172q-65 0 -142 -97t-96 -188l-61 -290h-62l113 527q2 14 2 20q-2 28 -33 28q-22 0 -47 -25l-28 46q31 36 95 36q38 0 61 -27t12 -69l-16 -69
q45 76 99 120.5t106 44.5q92 0 123 -57t-6 -178q-80 -244 -78 -325q0 -13 9 -21t24 -8q26 0 47 26z" />
    <glyph glyph-name="Eng" unicode="&#x14a;" 
d="M624 800l-170 -800h-32l32 -2q-20 -95 -58 -126.5t-127 -31.5l7 57q58 0 87.5 23t25.5 80l-171 670l-142 -670h-62l170 800h66l170 -667l142 667h62z" />
    <glyph glyph-name="eng" unicode="&#x14b;" 
d="M548 22q-18 -21 -55 -31q-19 -87 -57.5 -119t-124.5 -32l6 57q55 0 78 17.5t36 73.5q-52 11 -54 60q0 102 81 355q55 172 -60 172q-65 0 -142 -97t-96 -188l-61 -290h-62l113 527q2 14 2 20q-2 28 -33 28q-22 0 -47 -25l-28 46q31 36 95 36q38 0 61 -27t12 -69l-16 -69
q45 76 99 120.5t106 44.5q92 0 123 -57t-6 -178q-80 -244 -78 -325q0 -13 9 -21t24 -8q26 0 47 26z" />
    <glyph glyph-name="Omacron" unicode="&#x14c;" 
d="M283 903l12 58h286l-12 -58h-286zM237 -14q-138 0 -174 82.5t9 293.5l17 80q45 212 112 292t201 80q138 0 173.5 -82.5t-9.5 -293.5l-17 -80q-45 -212 -112 -292t-200 -80zM238 43q103 0 157.5 69.5t92.5 249.5l17 80q39 181 17 248t-121 67q-104 0 -158.5 -69.5
t-92.5 -249.5l-17 -80q-38 -181 -15.5 -248t120.5 -67z" />
    <glyph glyph-name="omacron" unicode="&#x14d;" 
d="M244 718l12 58h286l-12 -58h-286zM236 -14q-127 0 -160.5 72t5.5 255q29 142 107 230.5t176 88.5q127 0 161 -72t-6 -255q-30 -143 -107.5 -231t-175.5 -88zM239 43q74 0 135.5 75t86.5 195q31 151 10 206.5t-110 55.5q-73 0 -134.5 -75t-87.5 -195
q-32 -151 -10.5 -206.5t110.5 -55.5z" />
    <glyph glyph-name="Ohungarumlaut" unicode="&#x150;" 
d="M275 868l-34 44l168 125l34 -43zM463 868l-33 44l168 125l34 -43zM237 -14q-138 0 -174 82.5t9 293.5l17 80q45 212 112 292t201 80q138 0 173.5 -82.5t-9.5 -293.5l-17 -80q-45 -212 -112 -292t-200 -80zM238 43q103 0 157.5 69.5t92.5 249.5l17 80q39 181 17 248
t-121 67q-104 0 -158.5 -69.5t-92.5 -249.5l-17 -80q-38 -181 -15.5 -248t120.5 -67z" />
    <glyph glyph-name="ohungarumlaut" unicode="&#x151;" 
d="M236 683l-34 44l168 125l34 -43zM424 683l-33 44l168 125l34 -43zM236 -14q-127 0 -160.5 72t5.5 255q29 142 107 230.5t176 88.5q127 0 161 -72t-6 -255q-30 -143 -107.5 -231t-175.5 -88zM239 43q74 0 135.5 75t86.5 195q31 151 10 206.5t-110 55.5q-73 0 -134.5 -75
t-87.5 -195q-32 -151 -10.5 -206.5t110.5 -55.5z" />
    <glyph glyph-name="OE" unicode="&#x152;" 
d="M691 743h-226l-59 -291h134l-12 -58h-135q-1 -1 -1 -3q-9 -42 -18 -78l-53 -256h224l-13 -57h-286l7 33q-50 -47 -128 -47q-108 0 -130.5 91t27.5 327q50 233 107.5 321.5t160.5 88.5q87 0 117 -55l9 41h286zM126 43q71 0 114.5 71.5t84.5 257.5l14 64q25 125 28.5 193
t-15 98t-64.5 30q-72 0 -117.5 -79.5t-88.5 -283.5q-29 -136 -34 -211t13.5 -107.5t64.5 -32.5z" />
    <glyph glyph-name="oe" unicode="&#x153;" 
d="M502 632q72 0 95 -92t-10 -240h-257q-26 -121 -16 -189t51 -68q22 0 56.5 24t66.5 62l44 -39q-39 -46 -86 -75t-84 -29q-42 0 -70.5 28t-35.5 75q-29 -47 -72 -75t-87 -28q-74 0 -97 91t12 236q34 143 99.5 231t139.5 88q94 0 97 -122q29 56 70.5 89t83.5 33zM100 43
q53 0 100 69.5t71 200.5q22 115 16 188.5t-39 73.5q-49 0 -98.5 -75t-79.5 -195q-28 -115 -18 -188.5t48 -73.5zM343 358l196 1q17 96 5.5 156t-45.5 60q-45 0 -88 -60t-68 -157z" />
    <glyph glyph-name="Racute" unicode="&#x154;" 
d="M577 991l-168 -126l-33 44l168 125zM414 800q125 0 163.5 -51t10.5 -180q-25 -124 -80 -171.5t-173 -49.5l155 -348h-70l-156 348h-102l-74 -348h-62l170 800h218zM529 579q20 95 -5.5 129.5t-116.5 34.5h-160l-72 -338h154q92 0 135 37t65 137z" />
    <glyph glyph-name="racute" unicode="&#x155;" 
d="M539 809l-168 -126l-33 44l168 125zM493 599l42 -29q-86 -127 -137 -254t-51 -217q1 -25 13 -40.5t31 -15.5q26 0 50 19t36 49l56 -20q-18 -47 -57.5 -76t-86.5 -29q-46 0 -74 30t-28 80q-1 84 34.5 190.5t98.5 208.5q-104 -52 -182 -52h-15q-34 -82 -110 -167l-37 49
q57 59 90 126q-45 12 -70 37t-25 58q-1 38 25 62t69 24q37 0 59.5 -27t21.5 -70q0 -18 -4 -35q45 1 114 28t137 71zM126 550q0 -34 59 -45q4 15 4 32q0 45 -31 45q-14 0 -23 -9t-9 -23z" />
    <glyph glyph-name="uni0156" unicode="&#x156;" 
d="M414 800q125 0 163.5 -51t10.5 -180q-25 -124 -80 -171.5t-173 -49.5l155 -348h-70l-156 348h-102l-74 -348h-62l170 800h218zM529 579q20 95 -5.5 129.5t-116.5 34.5h-160l-72 -338h154q92 0 135 37t65 137zM232 -39q29 0 38.5 -11t3.5 -37q-11 -51 -106 -161l-45 2
l77 123q-25 6 -17 46q4 22 14.5 30t34.5 8z" />
    <glyph glyph-name="uni0157" unicode="&#x157;" 
d="M391 43q26 0 50 19t36 49l56 -20q-18 -47 -57.5 -76t-86.5 -29q-46 0 -74 30t-28 80q-1 84 34.5 190.5t98.5 208.5q-104 -52 -182 -52h-15q-34 -82 -110 -167l-37 49q57 59 90 126q-45 12 -70 37t-25 58q-1 38 25 62t69 24q37 0 59.5 -27t21.5 -70q0 -18 -4 -35
q45 1 114 28t137 71l42 -29q-86 -127 -137 -254t-51 -217q1 -25 13 -40.5t31 -15.5zM126 550q0 -34 59 -45q4 15 4 32q0 45 -31 45q-14 0 -23 -9t-9 -23zM362 -39q29 0 38.5 -11t3.5 -37q-11 -51 -106 -161l-45 2l77 123q-25 6 -17 46q4 22 14.5 30t34.5 8z" />
    <glyph glyph-name="Rcaron" unicode="&#x158;" 
d="M583 990l-164 -125l-114 123l53 37l75 -81l108 83zM414 800q125 0 163.5 -51t10.5 -180q-25 -124 -80 -171.5t-173 -49.5l155 -348h-70l-156 348h-102l-74 -348h-62l170 800h218zM529 579q20 95 -5.5 129.5t-116.5 34.5h-160l-72 -338h154q92 0 135 37t65 137z" />
    <glyph glyph-name="rcaron" unicode="&#x159;" 
d="M545 808l-164 -125l-114 123l53 37l75 -81l108 83zM493 599l42 -29q-86 -127 -137 -254t-51 -217q1 -25 13 -40.5t31 -15.5q26 0 50 19t36 49l56 -20q-18 -47 -57.5 -76t-86.5 -29q-46 0 -74 30t-28 80q-1 84 34.5 190.5t98.5 208.5q-104 -52 -182 -52h-15
q-34 -82 -110 -167l-37 49q57 59 90 126q-45 12 -70 37t-25 58q-1 38 25 62t69 24q37 0 59.5 -27t21.5 -70q0 -18 -4 -35q45 1 114 28t137 71zM126 550q0 -34 59 -45q4 15 4 32q0 45 -31 45q-14 0 -23 -9t-9 -23z" />
    <glyph glyph-name="Sacute" unicode="&#x15a;" 
d="M410 868l-33 44l168 125l33 -43zM237 -14q-101 0 -148 26t-69 92l55 39q13 -59 46.5 -79.5t116.5 -20.5q98 0 144 39t68 141q14 68 -13 103t-116 68q-116 40 -153.5 86t-19.5 130q25 116 79 160t175 44q92 0 136 -22.5t67 -79.5l-51 -42q-14 51 -46 69t-107 18
q-91 0 -132.5 -34t-60.5 -123q-13 -59 12 -89t107 -59q124 -40 163.5 -91.5t18.5 -147.5q-27 -129 -85.5 -178t-186.5 -49z" />
    <glyph glyph-name="sacute" unicode="&#x15b;" 
d="M366 683l-33 44l168 125l33 -43zM217 -14q-68 0 -122.5 31.5t-85.5 87.5l55 26q22 -40 62 -64t83 -24q83 0 131 70t48 174q-2 69 -36 118q-40 -51 -107 -87t-136 -44l-9 58q63 4 122 38t94 84q-26 25 -41 53t-14 48q-1 34 20 55.5t57 21.5q38 0 59.5 -21t21.5 -56
q2 -48 -31 -95q62 -80 60 -177q0 -127 -77 -213q86 31 124 74l37 -39q-43 -53 -130.5 -86t-184.5 -33zM347 494q18 31 18 56q2 36 -26 36q-11 0 -18 -7.5t-7 -19.5q0 -26 33 -65z" />
    <glyph glyph-name="Scircumflex" unicode="&#x15c;" 
d="M510 863l-73 82l-109 -80l-41 37l163 123l114 -125zM237 -14q-101 0 -148 26t-69 92l55 39q13 -59 46.5 -79.5t116.5 -20.5q98 0 144 39t68 141q14 68 -13 103t-116 68q-116 40 -153.5 86t-19.5 130q25 116 79 160t175 44q92 0 136 -22.5t67 -79.5l-51 -42q-14 51 -46 69
t-107 18q-91 0 -132.5 -34t-60.5 -123q-13 -59 12 -89t107 -59q124 -40 163.5 -91.5t18.5 -147.5q-27 -129 -85.5 -178t-186.5 -49z" />
    <glyph glyph-name="scircumflex" unicode="&#x15d;" 
d="M466 678l-73 82l-109 -80l-41 37l163 123l114 -125zM217 -14q-68 0 -122.5 31.5t-85.5 87.5l55 26q22 -40 62 -64t83 -24q83 0 131 70t48 174q-2 69 -36 118q-40 -51 -107 -87t-136 -44l-9 58q63 4 122 38t94 84q-26 25 -41 53t-14 48q-1 34 20 55.5t57 21.5
q38 0 59.5 -21t21.5 -56q2 -48 -31 -95q62 -80 60 -177q0 -127 -77 -213q86 31 124 74l37 -39q-43 -53 -130.5 -86t-184.5 -33zM347 494q18 31 18 56q2 36 -26 36q-11 0 -18 -7.5t-7 -19.5q0 -26 33 -65z" />
    <glyph glyph-name="Scedilla" unicode="&#x15e;" 
d="M402 814q92 0 136 -22.5t67 -79.5l-51 -42q-14 51 -46 69t-107 18q-91 0 -132.5 -34t-60.5 -123q-13 -59 12 -89t107 -59q124 -40 163.5 -91.5t18.5 -147.5q-26 -123 -80 -173t-168 -54l-6 -22q33 -2 49.5 -26t7.5 -61q-7 -38 -41 -61t-82 -23q-60 0 -89 34l36 51
q7 -12 23 -20t32 -8q24 0 41 10.5t21 26.5q3 15 -13.5 19t-53.5 2l15 79q-82 4 -121.5 30t-59.5 87l55 39q13 -59 46.5 -79.5t116.5 -20.5q98 0 144 39t68 141q14 68 -13 103t-116 68q-116 40 -153.5 86t-19.5 130q25 116 79 160t175 44z" />
    <glyph glyph-name="scedilla" unicode="&#x15f;" 
d="M532 105q-39 -48 -114 -79.5t-162 -38.5l-6 -23q33 -2 49.5 -26t7.5 -61q-7 -38 -41 -61t-82 -23q-60 0 -89 34l36 51q7 -12 23 -20t32 -8q24 0 41 10.5t21 26.5q3 15 -13.5 19t-53.5 2l15 79q-125 9 -187 118l55 26q22 -40 62 -64t83 -24q83 0 131 70t48 174
q-2 69 -36 118q-40 -51 -107 -87t-136 -44l-9 58q63 4 122 38t94 84q-26 25 -41 53t-14 48q-1 34 20 55.5t57 21.5q38 0 59.5 -21t21.5 -56q2 -48 -31 -95q62 -80 60 -177q0 -127 -77 -213q86 31 124 74zM365 550q2 36 -26 36q-11 0 -18 -7.5t-7 -19.5q0 -26 33 -65
q18 31 18 56z" />
    <glyph glyph-name="Scaron" unicode="&#x160;" 
d="M420 868l-114 123l53 37l75 -81l108 83l42 -37zM237 -14q-101 0 -148 26t-69 92l55 39q13 -59 46.5 -79.5t116.5 -20.5q98 0 144 39t68 141q14 68 -13 103t-116 68q-116 40 -153.5 86t-19.5 130q25 116 79 160t175 44q92 0 136 -22.5t67 -79.5l-51 -42q-14 51 -46 69
t-107 18q-91 0 -132.5 -34t-60.5 -123q-13 -59 12 -89t107 -59q124 -40 163.5 -91.5t18.5 -147.5q-27 -129 -85.5 -178t-186.5 -49z" />
    <glyph glyph-name="scaron" unicode="&#x161;" 
d="M376 683l-114 123l53 37l75 -81l108 83l42 -37zM217 -14q-68 0 -122.5 31.5t-85.5 87.5l55 26q22 -40 62 -64t83 -24q83 0 131 70t48 174q-2 69 -36 118q-40 -51 -107 -87t-136 -44l-9 58q63 4 122 38t94 84q-26 25 -41 53t-14 48q-1 34 20 55.5t57 21.5q38 0 59.5 -21
t21.5 -56q2 -48 -31 -95q62 -80 60 -177q0 -127 -77 -213q86 31 124 74l37 -39q-43 -53 -130.5 -86t-184.5 -33zM347 494q18 31 18 56q2 36 -26 36q-11 0 -18 -7.5t-7 -19.5q0 -26 33 -65z" />
    <glyph glyph-name="uni0162" unicode="&#x162;" 
d="M265 0l-10 -36q33 -2 49.5 -26t7.5 -61q-7 -38 -41 -61t-82 -23q-60 0 -89 34l36 51q7 -12 23 -20t32 -8q24 0 41 10.5t21 26.5q3 15 -13.5 19t-53.5 2l17 92l1 3v2l157 738h-242l11 57h548l-11 -57h-244z" />
    <glyph glyph-name="uni0163" unicode="&#x163;" 
d="M304 561l-75 -353q-20 -89 -3.5 -127t78.5 -38q54 0 81 13.5t48 49.5l55 -24q-32 -54 -69.5 -74.5t-107.5 -21.5l-6 -22q33 -2 49.5 -26t7.5 -61q-7 -38 -41 -61t-82 -23q-60 0 -89 34l36 51q7 -12 23 -20t32 -8q24 0 41 10.5t21 26.5q3 15 -13.5 19t-53.5 2l15 82
q-68 12 -86.5 65.5t4.5 156.5l74 349h-124l12 57h124l38 182h62l-38 -182h208l-13 -57h-208z" />
    <glyph glyph-name="Tcaron" unicode="&#x164;" 
d="M583 990l-164 -125l-114 123l53 37l75 -81l108 83zM678 800l-11 -57h-244l-158 -743h-62l158 743h-242l11 57h548z" />
    <glyph glyph-name="tcaron" unicode="&#x165;" 
d="M405 672l46 255h66l-63 -255h-49zM301 -14q-100 0 -129 52t-3 174l74 349h-124l12 57h124l38 182h62l-38 -182h208l-13 -57h-208l-75 -353q-20 -89 -3.5 -127t78.5 -38q54 0 81 13.5t48 49.5l55 -24q-32 -56 -71.5 -76t-115.5 -20z" />
    <glyph glyph-name="Tbar" unicode="&#x166;" 
d="M667 743h-244l-62 -291h158l-12 -58h-158l-84 -394h-62l84 394h-158l12 58h158l62 291h-242l11 57h548z" />
    <glyph glyph-name="tbar" unicode="&#x167;" 
d="M512 561h-208l-34 -161h208l-11 -57h-209l-29 -135q-20 -89 -3.5 -127t78.5 -38q54 0 81 13.5t48 49.5l55 -24q-32 -56 -71.5 -76t-115.5 -20q-100 0 -129 52t-3 174l28 131h-124l11 57h125l34 161h-124l12 57h124l38 182h62l-38 -182h208z" />
    <glyph glyph-name="Utilde" unicode="&#x168;" 
d="M494 883q-26 0 -48.5 19.5t-39.5 38.5t-30 19q-32 0 -41 -54l-61 5q9 48 37 77t67 29q26 0 47.5 -19.5t38.5 -38.5t32 -19q33 0 40 50l61 -5q-8 -46 -36.5 -74t-66.5 -28zM237 -14q-126 0 -160.5 69t3.5 244l106 501h62l-107 -506q-31 -145 -10.5 -198t107.5 -53
q91 0 138 55.5t78 200.5l106 501h62l-107 -506q-38 -176 -97.5 -242t-180.5 -66z" />
    <glyph glyph-name="utilde" unicode="&#x169;" 
d="M447 698q-21 0 -39.5 12t-29.5 26.5t-24.5 26.5t-24.5 12q-32 0 -41 -54l-61 5q9 48 37 77t67 29q20 0 38.5 -12t29.5 -26.5t24.5 -26.5t25.5 -12q33 0 40 50l61 -5q-8 -46 -36.5 -74t-66.5 -28zM72 549l-28 47q31 36 96 36q34 0 54.5 -17t20.5 -45q2 -95 -80 -355
q-55 -172 69 -172q65 0 136.5 96t91.5 189l61 290h63l-113 -527q-2 -17 -2 -20q0 -13 9 -20.5t23 -7.5q23 0 48 25l28 -46q-31 -36 -96 -36q-37 0 -60.5 27t-12.5 69l16 69q-96 -165 -195 -165q-203 0 -126 235q79 249 78 325q-2 29 -33 29q-25 0 -48 -26z" />
    <glyph glyph-name="Umacron" unicode="&#x16a;" 
d="M283 903l12 58h286l-12 -58h-286zM237 -14q-126 0 -160.5 69t3.5 244l106 501h62l-107 -506q-31 -145 -10.5 -198t107.5 -53q91 0 138 55.5t78 200.5l106 501h62l-107 -506q-38 -176 -97.5 -242t-180.5 -66z" />
    <glyph glyph-name="umacron" unicode="&#x16b;" 
d="M236 718l12 58h286l-12 -58h-286zM72 549l-28 47q31 36 96 36q34 0 54.5 -17t20.5 -45q2 -95 -80 -355q-55 -172 69 -172q65 0 136.5 96t91.5 189l61 290h63l-113 -527q-2 -17 -2 -20q0 -13 9 -20.5t23 -7.5q23 0 48 25l28 -46q-31 -36 -96 -36q-37 0 -60.5 27t-12.5 69
l16 69q-96 -165 -195 -165q-203 0 -126 235q79 249 78 325q-2 29 -33 29q-25 0 -48 -26z" />
    <glyph glyph-name="Ubreve" unicode="&#x16c;" 
d="M422 864q-76 0 -100 29t-7 100l61 -5q-10 -40 -0.5 -53t48.5 -13q44 0 63 15t27 56l61 -5q-14 -71 -46.5 -97.5t-106.5 -26.5zM237 -14q-126 0 -160.5 69t3.5 244l106 501h62l-107 -506q-31 -145 -10.5 -198t107.5 -53q91 0 138 55.5t78 200.5l106 501h62l-107 -506
q-38 -176 -97.5 -242t-180.5 -66z" />
    <glyph glyph-name="ubreve" unicode="&#x16d;" 
d="M375 679q-76 0 -100 29t-7 100l61 -5q-10 -41 -0.5 -53.5t48.5 -12.5q44 0 63 15t27 56l61 -5q-14 -71 -46.5 -97.5t-106.5 -26.5zM72 549l-28 47q31 36 96 36q34 0 54.5 -17t20.5 -45q2 -95 -80 -355q-55 -172 69 -172q65 0 136.5 96t91.5 189l61 290h63l-113 -527
q-2 -17 -2 -20q0 -13 9 -20.5t23 -7.5q23 0 48 25l28 -46q-31 -36 -96 -36q-37 0 -60.5 27t-12.5 69l16 69q-96 -165 -195 -165q-203 0 -126 235q79 249 78 325q-2 29 -33 29q-25 0 -48 -26z" />
    <glyph glyph-name="Uring" unicode="&#x16e;" 
d="M398 748q-75 0 -99 28t-10 97q14 66 46.5 91t103.5 25q76 0 100.5 -28t9.5 -98q-13 -65 -46 -90t-105 -25zM400 805q42 0 61.5 15t27.5 53q7 35 -3.5 47t-48.5 12q-42 0 -61 -15t-27 -54q-7 -34 3 -46t48 -12zM237 -14q-126 0 -160.5 69t3.5 244l106 501h62l-107 -506
q-31 -145 -10.5 -198t107.5 -53q91 0 138 55.5t78 200.5l106 501h62l-107 -506q-38 -176 -97.5 -242t-180.5 -66z" />
    <glyph glyph-name="uring" unicode="&#x16f;" 
d="M378 694q-75 0 -99 28t-9 98q13 65 45.5 90t103.5 25q76 0 101 -28t10 -97q-14 -66 -46.5 -91t-105.5 -25zM380 751q43 0 62.5 15t27.5 54q7 34 -3.5 46t-49.5 12q-41 0 -60.5 -15t-26.5 -53q-8 -35 2.5 -47t47.5 -12zM72 549l-28 47q31 36 96 36q34 0 54.5 -17t20.5 -45
q2 -95 -80 -355q-55 -172 69 -172q65 0 136.5 96t91.5 189l61 290h63l-113 -527q-2 -17 -2 -20q0 -13 9 -20.5t23 -7.5q23 0 48 25l28 -46q-31 -36 -96 -36q-37 0 -60.5 27t-12.5 69l16 69q-96 -165 -195 -165q-203 0 -126 235q79 249 78 325q-2 29 -33 29q-25 0 -48 -26z
" />
    <glyph glyph-name="Uhungarumlaut" unicode="&#x170;" 
d="M275 868l-34 44l168 125l34 -43zM463 868l-33 44l168 125l34 -43zM237 -14q-126 0 -160.5 69t3.5 244l106 501h62l-107 -506q-31 -145 -10.5 -198t107.5 -53q91 0 138 55.5t78 200.5l106 501h62l-107 -506q-38 -176 -97.5 -242t-180.5 -66z" />
    <glyph glyph-name="uhungarumlaut" unicode="&#x171;" 
d="M228 683l-34 44l168 125l34 -43zM416 683l-33 44l168 125l34 -43zM72 549l-28 47q31 36 96 36q34 0 54.5 -17t20.5 -45q2 -95 -80 -355q-55 -172 69 -172q65 0 136.5 96t91.5 189l61 290h63l-113 -527q-2 -17 -2 -20q0 -13 9 -20.5t23 -7.5q23 0 48 25l28 -46
q-31 -36 -96 -36q-37 0 -60.5 27t-12.5 69l16 69q-96 -165 -195 -165q-203 0 -126 235q79 249 78 325q-2 29 -33 29q-25 0 -48 -26z" />
    <glyph glyph-name="Uogonek" unicode="&#x172;" 
d="M560 800h62l-107 -506q-35 -165 -89.5 -232.5t-158.5 -74.5l-14 -76q-75 4 -83 -32q-3 -12 7 -19.5t31 -7.5q18 0 39.5 9.5t34.5 22.5l20 -57q-38 -32 -96 -32q-52 0 -78.5 26t-17.5 68q7 34 31 55t57 23l6 20q-104 8 -131.5 78.5t7.5 233.5l106 501h62l-107 -506
q-31 -145 -10.5 -198t107.5 -53q91 0 138 55.5t78 200.5z" />
    <glyph glyph-name="uogonek" unicode="&#x173;" 
d="M473 43q23 0 48 25l28 -46q-21 -24 -63 -32l-15 -81q-75 4 -83 -32q-3 -12 7 -19.5t31 -7.5q18 0 39.5 9.5t34.5 22.5l20 -57q-38 -32 -96 -32q-52 0 -78.5 26t-17.5 68q7 34 31 55t57 23l7 26q-26 11 -39 34.5t-4 56.5l16 69q-96 -165 -195 -165q-203 0 -126 235
q79 249 78 325q-2 29 -33 29q-25 0 -48 -26l-28 47q31 36 96 36q34 0 54.5 -17t20.5 -45q2 -95 -80 -355q-55 -172 69 -172q65 0 136.5 96t91.5 189l61 290h63l-113 -527q-2 -17 -2 -20q0 -13 9 -20.5t23 -7.5z" />
    <glyph glyph-name="Wcircumflex" unicode="&#x174;" 
d="M510 863l-73 82l-109 -80l-41 37l163 123l114 -125zM72 0l61 800h62l-53 -652l177 394h60l9 -394l225 652h64l-279 -800h-61l-12 420l-191 -420h-62z" />
    <glyph glyph-name="wcircumflex" unicode="&#x175;" 
d="M398 760l-109 -80l-41 37l163 123l114 -125l-54 -37zM570 618h63q-21 -93 -60 -195t-94.5 -226.5t-82.5 -196.5h-60l-29 295q-26 -52 -87 -150t-85 -145h-60l23 618h62l-21 -507q7 11 27 43.5t28.5 46.5t25 42.5t25 46.5t19.5 43t18 47t11 44h61l30 -304
q10 25 50.5 118.5t57 135t41 113t37.5 131.5z" />
    <glyph glyph-name="Ycircumflex" unicode="&#x176;" 
d="M510 863l-73 82l-109 -80l-41 37l163 123l114 -125zM203 0l66 304l-131 496h67l109 -418l289 418h69l-341 -496l-66 -304h-62z" />
    <glyph glyph-name="ycircumflex" unicode="&#x177;" 
d="M471 678l-73 82l-109 -80l-41 37l163 123l114 -125zM115 -206q-50 0 -81 20.5t-30 53.5q0 57 99.5 90t270.5 34q19 34 36 106q-14 -27 -56.5 -39.5t-88.5 -12.5q-79 0 -121 56t-21 123q74 230 76 321q-2 29 -33 29q-25 0 -48 -26l-28 47q31 36 96 36q33 0 53 -17t20 -45
q2 -98 -76 -346q-16 -54 8.5 -87.5t75.5 -33.5q71 0 112 24.5t56 97.5l82 393h61q-39 -185 -54.5 -260t-37 -172t-32.5 -137t-20 -58q49 0 90 12l-16 -58q-34 -10 -99 -10q-40 -64 -120.5 -102.5t-173.5 -38.5zM129 -149q58 0 114 22.5t93 60.5q-118 -4 -194.5 -22
t-76.5 -41q0 -8 18.5 -14t45.5 -6z" />
    <glyph glyph-name="Ydieresis" unicode="&#x178;" 
d="M325 911q-36 0 -48 14t-5 48q6 29 20 40t46 11q36 0 48.5 -14t5.5 -47q-7 -30 -21 -41t-46 -11zM541 911q-36 0 -48 14t-5 48q6 29 20 40t46 11q36 0 48.5 -14t5.5 -47q-7 -30 -21 -41t-46 -11zM203 0l66 304l-131 496h67l109 -418l289 418h69l-341 -496l-66 -304h-62z
" />
    <glyph glyph-name="Zacute" unicode="&#x179;" 
d="M409 865l-33 44l168 125l33 -43zM449 -63q-46 0 -137.5 37.5t-148.5 37.5q-5 0 -55.5 -6t-120.5 -6l10 48l567 695h-416l11 57h492l-10 -49l-564 -692q17 0 47.5 5t51.5 5q52 0 104 -18.5t98 -37.5t83 -19q46 0 116 32t125 31l-14 -57q-27 2 -58 -14t-76 -32.5
t-105 -16.5z" />
    <glyph glyph-name="zacute" unicode="&#x17a;" 
d="M371 683l-33 44l168 125l33 -43zM418 14q52 0 118 21.5t118 21.5l-14 -57q-26 0 -92.5 -21.5t-141.5 -21.5q-46 0 -111.5 26.5t-98.5 26.5q-5 0 -53 -5t-115 -5l9 38l436 523h-323l12 57h407l-8 -38l-433 -521q7 1 33 4.5t48 3.5q43 0 105.5 -26.5t103.5 -26.5z" />
    <glyph glyph-name="Zdotaccent" unicode="&#x17b;" 
d="M433 911q-43 0 -57.5 16.5t-5.5 56.5q7 37 24.5 50.5t56.5 13.5q43 0 57 -16.5t6 -57.5q-7 -36 -25 -49.5t-56 -13.5zM449 -63q-46 0 -137.5 37.5t-148.5 37.5q-5 0 -55.5 -6t-120.5 -6l10 48l567 695h-416l11 57h492l-10 -49l-564 -692q17 0 47.5 5t51.5 5
q52 0 104 -18.5t98 -37.5t83 -19q46 0 116 32t125 31l-14 -57q-27 2 -58 -14t-76 -32.5t-105 -16.5z" />
    <glyph glyph-name="zdotaccent" unicode="&#x17c;" 
d="M395 729q-43 0 -57.5 16.5t-5.5 56.5q7 37 24.5 50.5t56.5 13.5q43 0 57 -16.5t6 -57.5q-7 -36 -25 -49.5t-56 -13.5zM418 14q52 0 118 21.5t118 21.5l-14 -57q-26 0 -92.5 -21.5t-141.5 -21.5q-46 0 -111.5 26.5t-98.5 26.5q-5 0 -53 -5t-115 -5l9 38l436 523h-323
l12 57h407l-8 -38l-433 -521q7 1 33 4.5t48 3.5q43 0 105.5 -26.5t103.5 -26.5z" />
    <glyph glyph-name="Zcaron" unicode="&#x17d;" 
d="M419 865l-114 123l53 37l75 -81l108 83l42 -37zM449 -63q-46 0 -137.5 37.5t-148.5 37.5q-5 0 -55.5 -6t-120.5 -6l10 48l567 695h-416l11 57h492l-10 -49l-564 -692q17 0 47.5 5t51.5 5q52 0 104 -18.5t98 -37.5t83 -19q46 0 116 32t125 31l-14 -57q-27 2 -58 -14
t-76 -32.5t-105 -16.5z" />
    <glyph glyph-name="zcaron" unicode="&#x17e;" 
d="M381 683l-114 123l53 37l75 -81l108 83l42 -37zM418 14q52 0 118 21.5t118 21.5l-14 -57q-26 0 -92.5 -21.5t-141.5 -21.5q-46 0 -111.5 26.5t-98.5 26.5q-5 0 -53 -5t-115 -5l9 38l436 523h-323l12 57h407l-8 -38l-433 -521q7 1 33 4.5t48 3.5q43 0 105.5 -26.5
t103.5 -26.5z" />
    <glyph glyph-name="florin" unicode="&#x192;" 
d="M112 -14q-62 0 -89 22t-35 78l60 15q6 -35 19 -46.5t46 -11.5q56 0 85 33.5t47 118.5l37 174h-124l12 58h124l41 191q23 110 65.5 153t126.5 43q62 0 89 -22t35 -78l-60 -15q-6 35 -19 46.5t-46 11.5q-56 0 -85 -33t-47 -119l-38 -178h178l-12 -58h-178l-40 -187
q-24 -110 -66 -153t-126 -43z" />
    <glyph glyph-name="Ohorn" unicode="&#x1a0;" 
d="M734 909h62l-30 -138q-11 -57 -48 -91t-86 -34q-21 0 -41 11q6 -78 -25 -219l-17 -80q-45 -212 -112 -292t-200 -80q-138 0 -174 82.5t9 293.5l17 80q45 212 112 292t201 80q73 0 116 -21.5t61 -69.5q16 -20 52 -20q27 0 47 20t28 53zM505 442q39 181 17 248t-121 67
q-104 0 -158.5 -69.5t-92.5 -249.5l-17 -80q-38 -181 -15.5 -248t120.5 -67q103 0 157.5 69.5t92.5 249.5z" />
    <glyph glyph-name="ohorn" unicode="&#x1a1;" 
d="M670 724h62l-30 -138q-11 -57 -48 -91t-86 -34q-12 0 -27 5q0 -60 -22 -161q-30 -143 -107.5 -231t-175.5 -88q-127 0 -160.5 72t5.5 255q29 142 107 230.5t176 88.5q78 0 120 -25.5t53 -83.5q12 -5 30 -5q27 0 47 20t28 53zM461 313q31 151 10 206.5t-110 55.5
q-73 0 -134.5 -75t-87.5 -195q-32 -151 -10.5 -206.5t110.5 -55.5q74 0 135.5 75t86.5 195z" />
    <glyph glyph-name="Uhorn" unicode="&#x1af;" 
d="M747 974h62l-29 -138q-12 -57 -48.5 -91t-85.5 -34q-21 0 -40 11l-91 -428q-38 -176 -97.5 -242t-180.5 -66q-126 0 -160.5 69t3.5 244l106 501h62l-107 -506q-31 -145 -10.5 -198t107.5 -53q91 0 138 55.5t78 200.5l106 501h62l-6 -27q12 -5 29 -5q26 0 46.5 20.5
t27.5 52.5z" />
    <glyph glyph-name="uhorn" unicode="&#x1b0;" 
d="M680 794h62l-30 -138q-12 -57 -48.5 -91t-85.5 -34q-19 0 -39 10l-96 -450q-2 -17 -2 -20q0 -13 9 -20.5t23 -7.5q23 0 48 25l28 -46q-31 -36 -96 -36q-37 0 -60.5 27t-12.5 69l16 69q-96 -165 -195 -165q-203 0 -126 235q79 249 78 325q-2 29 -33 29q-25 0 -48 -26
l-28 47q31 36 96 36q34 0 54.5 -17t20.5 -45q2 -95 -80 -355q-55 -172 69 -172q65 0 136.5 96t91.5 189l61 290h63l-6 -26q12 -4 27 -4q26 0 46.5 20.5t27.5 52.5z" />
    <glyph glyph-name="uni01CD" unicode="&#x1cd;" 
d="M584 993l-164 -125l-114 123l53 37l75 -81l108 83zM370 800h68l52 -800h-63l-13 210h-269l-102 -210h-65zM173 268h238l-27 434z" />
    <glyph glyph-name="uni01CE" unicode="&#x1ce;" 
d="M381 683l-114 123l53 37l75 -81l108 83l42 -37zM499 69l28 -47q-31 -36 -96 -36q-33 0 -53 16.5t-21 43.5q0 37 6 52q-29 -51 -73 -81.5t-90 -30.5q-78 0 -125.5 49t-46.5 128q0 102 51 212.5t130 183.5t154 73q149 0 149 -91q1 -18 -90 -440q-6 -27 -0.5 -42.5
t29.5 -15.5q25 0 48 26zM202 43q57 0 111 59.5t84 154.5q54 257 55 277q-1 24 -21 32.5t-70 8.5q-56 0 -120.5 -65.5t-108.5 -162.5t-44 -181q1 -56 32 -89.5t82 -33.5z" />
    <glyph glyph-name="uni01CF" unicode="&#x1cf;" 
d="M584 993l-164 -125l-114 123l53 37l75 -81l108 83zM586 743h-163l-146 -686h162l-12 -57h-386l12 57h162l146 686h-161l11 57h386z" />
    <glyph glyph-name="uni01D0" unicode="&#x1d0;" 
d="M318 683l-114 123l53 37l75 -81l108 83l42 -37zM336 -14q-118 0 -152.5 60.5t5.5 215.5l63 225q6 31 -3.5 49t-42.5 25l15 57q114 -22 94 -118l-65 -238q-31 -124 -10 -171.5t98 -47.5q37 0 62 16.5t58 61.5l48 -33q-43 -58 -80 -80t-90 -22z" />
    <glyph glyph-name="uni01D1" unicode="&#x1d1;" 
d="M420 868l-114 123l53 37l75 -81l108 83l42 -37zM237 -14q-138 0 -174 82.5t9 293.5l17 80q45 212 112 292t201 80q138 0 173.5 -82.5t-9.5 -293.5l-17 -80q-45 -212 -112 -292t-200 -80zM238 43q103 0 157.5 69.5t92.5 249.5l17 80q39 181 17 248t-121 67
q-104 0 -158.5 -69.5t-92.5 -249.5l-17 -80q-38 -181 -15.5 -248t120.5 -67z" />
    <glyph glyph-name="uni01D2" unicode="&#x1d2;" 
d="M381 683l-114 123l53 37l75 -81l108 83l42 -37zM236 -14q-127 0 -160.5 72t5.5 255q29 142 107 230.5t176 88.5q127 0 161 -72t-6 -255q-30 -143 -107.5 -231t-175.5 -88zM239 43q74 0 135.5 75t86.5 195q31 151 10 206.5t-110 55.5q-73 0 -134.5 -75t-87.5 -195
q-32 -151 -10.5 -206.5t110.5 -55.5z" />
    <glyph glyph-name="uni01D3" unicode="&#x1d3;" 
d="M420 868l-114 123l53 37l75 -81l108 83l42 -37zM237 -14q-126 0 -160.5 69t3.5 244l106 501h62l-107 -506q-31 -145 -10.5 -198t107.5 -53q91 0 138 55.5t78 200.5l106 501h62l-107 -506q-38 -176 -97.5 -242t-180.5 -66z" />
    <glyph glyph-name="uni01D4" unicode="&#x1d4;" 
d="M373 683l-114 123l53 37l75 -81l108 83l42 -37zM72 549l-28 47q31 36 96 36q34 0 54.5 -17t20.5 -45q2 -95 -80 -355q-55 -172 69 -172q65 0 136.5 96t91.5 189l61 290h63l-113 -527q-2 -17 -2 -20q0 -13 9 -20.5t23 -7.5q23 0 48 25l28 -46q-31 -36 -96 -36
q-37 0 -60.5 27t-12.5 69l16 69q-96 -165 -195 -165q-203 0 -126 235q79 249 78 325q-2 29 -33 29q-25 0 -48 -26z" />
    <glyph glyph-name="uni01D5" unicode="&#x1d5;" 
d="M309 1027l12 58h286l-12 -58h-286zM306 820q-36 0 -48 14t-5 49q6 28 20 39t46 11q37 0 49.5 -14t4.5 -46q-6 -31 -20.5 -42t-46.5 -11zM522 820q-36 0 -48 14t-5 49q6 28 20 39t46 11q37 0 49.5 -14t4.5 -46q-6 -31 -20.5 -42t-46.5 -11zM237 -14q-126 0 -160.5 69
t3.5 244l106 501h62l-107 -506q-31 -145 -10.5 -198t107.5 -53q91 0 138 55.5t78 200.5l106 501h62l-107 -506q-38 -176 -97.5 -242t-180.5 -66z" />
    <glyph glyph-name="uni01D6" unicode="&#x1d6;" 
d="M281 933l12 58h286l-12 -58h-286zM278 726q-36 0 -48 14t-5 48q6 29 20 40t46 11q36 0 48.5 -14t5.5 -47q-7 -30 -21 -41t-46 -11zM494 726q-36 0 -48 14t-5 48q6 29 20 40t46 11q36 0 48.5 -14t5.5 -47q-7 -30 -21 -41t-46 -11zM72 549l-28 47q31 36 96 36
q34 0 54.5 -17t20.5 -45q2 -95 -80 -355q-55 -172 69 -172q65 0 136.5 96t91.5 189l61 290h63l-113 -527q-2 -17 -2 -20q0 -13 9 -20.5t23 -7.5q23 0 48 25l28 -46q-31 -36 -96 -36q-37 0 -60.5 27t-12.5 69l16 69q-96 -165 -195 -165q-203 0 -126 235q79 249 78 325
q-2 29 -33 29q-25 0 -48 -26z" />
    <glyph glyph-name="uni01D7" unicode="&#x1d7;" 
d="M424 930l-34 43l168 125l34 -43zM306 820q-36 0 -48 14t-5 49q6 28 20 39t46 11q37 0 49.5 -14t4.5 -46q-6 -31 -20.5 -42t-46.5 -11zM522 820q-36 0 -48 14t-5 49q6 28 20 39t46 11q37 0 49.5 -14t4.5 -46q-6 -31 -20.5 -42t-46.5 -11zM237 -14q-126 0 -160.5 69
t3.5 244l106 501h62l-107 -506q-31 -145 -10.5 -198t107.5 -53q91 0 138 55.5t78 200.5l106 501h62l-107 -506q-38 -176 -97.5 -242t-180.5 -66z" />
    <glyph glyph-name="uni01D8" unicode="&#x1d8;" 
d="M408 898l-33 44l168 125l33 -43zM278 726q-36 0 -48 14t-5 48q6 29 20 40t46 11q36 0 48.5 -14t5.5 -47q-7 -30 -21 -41t-46 -11zM494 726q-36 0 -48 14t-5 48q6 29 20 40t46 11q36 0 48.5 -14t5.5 -47q-7 -30 -21 -41t-46 -11zM72 549l-28 47q31 36 96 36q34 0 54.5 -17
t20.5 -45q2 -95 -80 -355q-55 -172 69 -172q65 0 136.5 96t91.5 189l61 290h63l-113 -527q-2 -17 -2 -20q0 -13 9 -20.5t23 -7.5q23 0 48 25l28 -46q-31 -36 -96 -36q-37 0 -60.5 27t-12.5 69l16 69q-96 -165 -195 -165q-203 0 -126 235q79 249 78 325q-2 29 -33 29
q-25 0 -48 -26z" />
    <glyph glyph-name="uni01D9" unicode="&#x1d9;" 
d="M436 939l-114 123l53 37l75 -80l108 82l42 -37zM306 820q-36 0 -48 14t-5 49q6 28 20 39t46 11q37 0 49.5 -14t4.5 -46q-6 -31 -20.5 -42t-46.5 -11zM522 820q-36 0 -48 14t-5 49q6 28 20 39t46 11q37 0 49.5 -14t4.5 -46q-6 -31 -20.5 -42t-46.5 -11zM237 -14
q-126 0 -160.5 69t3.5 244l106 501h62l-107 -506q-31 -145 -10.5 -198t107.5 -53q91 0 138 55.5t78 200.5l106 501h62l-107 -506q-38 -176 -97.5 -242t-180.5 -66z" />
    <glyph glyph-name="uni01DA" unicode="&#x1da;" 
d="M418 898l-114 123l53 37l75 -81l108 83l42 -37zM278 726q-36 0 -48 14t-5 48q6 29 20 40t46 11q36 0 48.5 -14t5.5 -47q-7 -30 -21 -41t-46 -11zM494 726q-36 0 -48 14t-5 48q6 29 20 40t46 11q36 0 48.5 -14t5.5 -47q-7 -30 -21 -41t-46 -11zM72 549l-28 47q31 36 96 36
q34 0 54.5 -17t20.5 -45q2 -95 -80 -355q-55 -172 69 -172q65 0 136.5 96t91.5 189l61 290h63l-113 -527q-2 -17 -2 -20q0 -13 9 -20.5t23 -7.5q23 0 48 25l28 -46q-31 -36 -96 -36q-37 0 -60.5 27t-12.5 69l16 69q-96 -165 -195 -165q-203 0 -126 235q79 249 78 325
q-2 29 -33 29q-25 0 -48 -26z" />
    <glyph glyph-name="uni01DB" unicode="&#x1db;" 
d="M444 930l-119 125l48 43l120 -125zM306 820q-36 0 -48 14t-5 49q6 28 20 39t46 11q37 0 49.5 -14t4.5 -46q-6 -31 -20.5 -42t-46.5 -11zM522 820q-36 0 -48 14t-5 49q6 28 20 39t46 11q37 0 49.5 -14t4.5 -46q-6 -31 -20.5 -42t-46.5 -11zM237 -14q-126 0 -160.5 69
t3.5 244l106 501h62l-107 -506q-31 -145 -10.5 -198t107.5 -53q91 0 138 55.5t78 200.5l106 501h62l-107 -506q-38 -176 -97.5 -242t-180.5 -66z" />
    <glyph glyph-name="uni01DC" unicode="&#x1dc;" 
d="M429 898l-120 126l49 43l119 -125zM278 726q-36 0 -48 14t-5 48q6 29 20 40t46 11q36 0 48.5 -14t5.5 -47q-7 -30 -21 -41t-46 -11zM494 726q-36 0 -48 14t-5 48q6 29 20 40t46 11q36 0 48.5 -14t5.5 -47q-7 -30 -21 -41t-46 -11zM72 549l-28 47q31 36 96 36
q34 0 54.5 -17t20.5 -45q2 -95 -80 -355q-55 -172 69 -172q65 0 136.5 96t91.5 189l61 290h63l-113 -527q-2 -17 -2 -20q0 -13 9 -20.5t23 -7.5q23 0 48 25l28 -46q-31 -36 -96 -36q-37 0 -60.5 27t-12.5 69l16 69q-96 -165 -195 -165q-203 0 -126 235q79 249 78 325
q-2 29 -33 29q-25 0 -48 -26z" />
    <glyph glyph-name="uni0218" unicode="&#x218;" 
d="M237 -14q-101 0 -148 26t-69 92l55 39q13 -59 46.5 -79.5t116.5 -20.5q98 0 144 39t68 141q14 68 -13 103t-116 68q-116 40 -153.5 86t-19.5 130q25 116 79 160t175 44q92 0 136 -22.5t67 -79.5l-51 -42q-14 51 -46 69t-107 18q-91 0 -132.5 -34t-60.5 -123
q-13 -59 12 -89t107 -59q124 -40 163.5 -91.5t18.5 -147.5q-27 -129 -85.5 -178t-186.5 -49zM123 -246l77 123q-25 6 -17 46q4 22 14.5 30t34.5 8q29 0 38.5 -11t3.5 -37q-11 -51 -106 -161z" />
    <glyph glyph-name="uni0219" unicode="&#x219;" 
d="M217 -14q-68 0 -122.5 31.5t-85.5 87.5l55 26q22 -40 62 -64t83 -24q83 0 131 70t48 174q-2 69 -36 118q-40 -51 -107 -87t-136 -44l-9 58q63 4 122 38t94 84q-26 25 -41 53t-14 48q-1 34 20 55.5t57 21.5q38 0 59.5 -21t21.5 -56q2 -48 -31 -95q62 -80 60 -177
q0 -127 -77 -213q86 31 124 74l37 -39q-43 -53 -130.5 -86t-184.5 -33zM347 494q18 31 18 56q2 36 -26 36q-11 0 -18 -7.5t-7 -19.5q0 -26 33 -65zM118 -246l77 123q-25 6 -17 46q4 22 14.5 30t34.5 8q29 0 38.5 -11t3.5 -37q-11 -51 -106 -161z" />
    <glyph glyph-name="uni021A" unicode="&#x21a;" 
d="M678 800l-11 -57h-244l-158 -743h-62l158 743h-242l11 57h548zM232 -39q29 0 38.5 -11t3.5 -37q-11 -51 -106 -161l-45 2l77 123q-25 6 -17 46q4 22 14.5 30t34.5 8z" />
    <glyph glyph-name="uni021B" unicode="&#x21b;" 
d="M301 -14q-100 0 -129 52t-3 174l74 349h-124l12 57h124l38 182h62l-38 -182h208l-13 -57h-208l-75 -353q-20 -89 -3.5 -127t78.5 -38q54 0 81 13.5t48 49.5l55 -24q-32 -56 -71.5 -76t-115.5 -20zM173 -246l77 123q-25 6 -17 46q4 22 14.5 30t34.5 8q29 0 38.5 -11
t3.5 -37q-11 -51 -106 -161z" />
    <glyph glyph-name="uni0237" unicode="&#x237;" 
d="M55 -206q-50 0 -81 20.5t-30 53.5q0 57 99 90t270 34q29 60 116 489q6 32 -3 50t-41 26l16 56q111 -23 91 -120q-86 -432 -118 -502q49 0 90 12l-16 -58q-34 -10 -99 -10q-40 -64 -120.5 -102.5t-173.5 -38.5zM69 -149q58 0 114 22.5t93 60.5q-118 -4 -194.5 -22
t-76.5 -41q0 -8 18.5 -14t45.5 -6z" />
    <glyph glyph-name="circumflex" unicode="&#x2c6;" 
d="M471 678l-73 82l-109 -80l-41 37l163 123l114 -125z" />
    <glyph glyph-name="caron" unicode="&#x2c7;" 
d="M383 690l-115 123l54 37l74 -80l109 82l42 -37z" />
    <glyph glyph-name="breve" unicode="&#x2d8;" 
d="M387 699q-76 0 -100 29t-7 100l61 -5q-10 -40 -0.5 -53t48.5 -13q44 0 63 15t27 56l61 -5q-14 -71 -46.5 -97.5t-106.5 -26.5z" />
    <glyph glyph-name="dotaccent" unicode="&#x2d9;" 
d="M395 729q-43 0 -57.5 16.5t-5.5 56.5q7 37 24.5 50.5t56.5 13.5q43 0 57 -16.5t6 -57.5q-7 -36 -25 -49.5t-56 -13.5z" />
    <glyph glyph-name="ring" unicode="&#x2da;" 
d="M387 699q-75 0 -99 28t-9 98q13 65 45.5 90t103.5 25q75 0 100.5 -28t10.5 -97q-14 -66 -46.5 -91t-105.5 -25zM389 756q43 0 62.5 15t27.5 54q7 34 -3.5 46t-49.5 12q-41 0 -60.5 -15t-26.5 -53q-8 -35 2.5 -47t47.5 -12z" />
    <glyph glyph-name="ogonek" unicode="&#x2db;" 
d="M215 -207q-52 0 -79 26t-18 68q8 34 31.5 55t57.5 23l10 40h62l-18 -96q-75 4 -83 -32q-2 -12 8 -19.5t30 -7.5q18 0 40 9.5t35 22.5l19 -57q-38 -32 -95 -32z" />
    <glyph glyph-name="tilde" unicode="&#x2dc;" 
d="M455 698q-21 0 -39.5 12t-29.5 26.5t-24.5 26.5t-24.5 12q-32 0 -41 -54l-61 5q9 48 37 77t67 29q20 0 38.5 -12t29.5 -26.5t24.5 -26.5t25.5 -12q33 0 40 50l61 -5q-8 -46 -36.5 -74t-66.5 -28z" />
    <glyph glyph-name="hungarumlaut" unicode="&#x2dd;" 
d="M235 679l-34 43l169 126l33 -43zM423 679l-33 43l168 126l34 -43z" />
    <glyph glyph-name="gravecomb" unicode="&#x300;" horiz-adv-x="0" 
d="M-208 683l-120 126l49 43l119 -125z" />
    <glyph glyph-name="acutecomb" unicode="&#x301;" horiz-adv-x="0" 
d="M-229 683l-33 44l168 125l33 -43z" />
    <glyph glyph-name="uni0302" unicode="&#x302;" horiz-adv-x="0" 
d="M-129 678l-73 82l-109 -80l-41 37l163 123l114 -125z" />
    <glyph glyph-name="tildecomb" unicode="&#x303;" horiz-adv-x="0" 
d="M-145 698q-21 0 -39.5 12t-29.5 26.5t-24.5 26.5t-24.5 12q-32 0 -41 -54l-61 5q9 48 37 77t67 29q20 0 38.5 -12t29.5 -26.5t24.5 -26.5t25.5 -12q33 0 40 50l61 -5q-8 -46 -36.5 -74t-66.5 -28z" />
    <glyph glyph-name="uni0304" unicode="&#x304;" horiz-adv-x="0" 
d="M-356 718l12 58h286l-12 -58h-286z" />
    <glyph glyph-name="uni0306" unicode="&#x306;" horiz-adv-x="0" 
d="M-217 679q-76 0 -100 29t-7 100l61 -5q-10 -41 -0.5 -53.5t48.5 -12.5q44 0 63 15t27 56l61 -5q-14 -71 -46.5 -97.5t-106.5 -26.5z" />
    <glyph glyph-name="uni0307" unicode="&#x307;" horiz-adv-x="0" 
d="M-205 729q-43 0 -57.5 16.5t-5.5 56.5q7 37 24.5 50.5t56.5 13.5q43 0 57 -16.5t6 -57.5q-7 -36 -25 -49.5t-56 -13.5z" />
    <glyph glyph-name="uni0308" unicode="&#x308;" horiz-adv-x="0" 
d="M-314 726q-36 0 -48 14t-5 48q6 29 20 40t46 11q36 0 48.5 -14t5.5 -47q-7 -30 -21 -41t-46 -11zM-98 726q-36 0 -48 14t-5 48q6 29 20 40t46 11q36 0 48.5 -14t5.5 -47q-7 -30 -21 -41t-46 -11z" />
    <glyph glyph-name="hookabovecomb" unicode="&#x309;" horiz-adv-x="0" 
d="M-244 655l-9 56q71 15 80 53q2 12 -5 19t-19 7q-43 0 -100 -43l11 71q44 29 91 29q43 0 67 -25.5t15 -64.5q-7 -35 -41.5 -62.5t-89.5 -39.5z" />
    <glyph glyph-name="uni030A" unicode="&#x30a;" horiz-adv-x="0" 
d="M-214 694q-75 0 -99 28t-9 98q13 65 45.5 90t103.5 25q76 0 101 -28t10 -97q-14 -66 -46.5 -91t-105.5 -25zM-212 751q43 0 62.5 15t27.5 54q7 34 -3.5 46t-49.5 12q-41 0 -60.5 -15t-26.5 -53q-8 -35 2.5 -47t47.5 -12z" />
    <glyph glyph-name="uni030B" unicode="&#x30b;" horiz-adv-x="0" 
d="M-364 683l-34 44l168 125l34 -43zM-176 683l-33 44l168 125l34 -43z" />
    <glyph glyph-name="uni030C" unicode="&#x30c;" horiz-adv-x="0" 
d="M-219 683l-114 123l53 37l75 -81l108 83l42 -37z" />
    <glyph glyph-name="uni0312" unicode="&#x312;" horiz-adv-x="0" 
d="M-220 658q-28 0 -37.5 11t-4.5 37q11 53 107 161l45 -2l-78 -123q27 -6 18 -46q-5 -23 -15 -30.5t-35 -7.5z" />
    <glyph glyph-name="uni031B" unicode="&#x31b;" horiz-adv-x="0" 
d="M-174 643q-41 0 -67 33l8 53q14 -29 58 -29q27 0 47 20t28 53l28 133h62l-30 -138q-11 -57 -48 -91t-86 -34z" />
    <glyph glyph-name="dotbelowcomb" unicode="&#x323;" horiz-adv-x="0" 
d="M-410 -235q-43 0 -57 16.5t-6 57.5q8 36 25.5 49.5t56.5 13.5q43 0 57 -16.5t5 -56.5q-7 -37 -24.5 -50.5t-56.5 -13.5z" />
    <glyph glyph-name="uni0326" unicode="&#x326;" horiz-adv-x="0" 
d="M-495 -246l77 123q-25 6 -17 46q4 22 14.5 30t34.5 8q29 0 38.5 -11t3.5 -37q-11 -51 -106 -161z" />
    <glyph glyph-name="uni0327" unicode="&#x327;" horiz-adv-x="0" 
d="M-401 -207q-60 0 -89 34l36 51q7 -12 23 -20t32 -8q24 0 41 10.5t21 26.5q3 15 -13.5 19t-53.5 2l18 97h62l-11 -41q33 -2 49.5 -26t7.5 -61q-7 -38 -41 -61t-82 -23z" />
    <glyph glyph-name="uni0328" unicode="&#x328;" horiz-adv-x="0" 
d="M-284 -207q-52 0 -78.5 26t-17.5 68q7 34 31 55t57 23l11 40h62l-18 -96q-75 4 -83 -32q-3 -12 7 -19.5t31 -7.5q18 0 39.5 9.5t34.5 22.5l20 -57q-38 -32 -96 -32z" />
    <glyph glyph-name="uni0374" unicode="&#x374;" 
d="M306 481l57 319h82l-78 -319h-61z" />
    <glyph glyph-name="uni0375" unicode="&#x375;" 
d="M150 -202l78 319h62l-58 -319h-82z" />
    <glyph glyph-name="uni037E" unicode="&#x37e;" 
d="M342 481q-43 0 -57.5 16.5t-5.5 56.5q8 37 25.5 50.5t55.5 13.5q43 0 57.5 -16.5t5.5 -56.5q-7 -37 -25 -50.5t-56 -13.5zM82 -202l119 193q-40 10 -27 68q7 37 25 50.5t56 13.5q43 0 57.5 -16.5t5.5 -56.5q-17 -80 -168 -254z" />
    <glyph glyph-name="tonos" unicode="&#x384;" 
d="M371 683l-33 44l168 125l33 -43z" />
    <glyph glyph-name="dieresistonos" unicode="&#x385;" 
d="M331 683l-33 44l168 125l33 -43zM221 710q-36 0 -48.5 14t-5.5 48q7 29 21 40t46 11q36 0 48 -14t6 -47q-7 -30 -21 -41t-46 -11zM561 710q-36 0 -48.5 14t-5.5 48q7 29 21 40t46 11q36 0 48 -14t6 -47q-7 -30 -21 -41t-46 -11z" />
    <glyph glyph-name="Alphatonos" unicode="&#x386;" 
d="M427 0l-13 210h-269l-102 -210h-65l392 800h68l52 -800h-63zM316 757l-168 -126l-33 44l168 125zM173 268h238l-27 434z" />
    <glyph glyph-name="anoteleia" unicode="&#x387;" 
d="M310 331q-43 0 -57 16.5t-6 57.5q8 37 25.5 50.5t56.5 13.5q43 0 57 -16.5t6 -57.5q-8 -37 -25.5 -50.5t-56.5 -13.5z" />
    <glyph glyph-name="Epsilontonos" unicode="&#x388;" 
d="M118 800l33 -43l-168 -126l-33 44zM625 743h-376l-60 -291h239l-12 -58h-241l-70 -337h373l-12 -57h-436l170 800h436z" />
    <glyph glyph-name="Etatonos" unicode="&#x389;" 
d="M99 800l33 -43l-168 -126l-33 44zM564 800h62l-170 -800h-62l84 394h-320l-84 -394h-62l170 800h62l-74 -348h320z" />
    <glyph glyph-name="Iotatonos" unicode="&#x38a;" 
d="M125 800l33 -43l-168 -126l-33 44zM586 743h-163l-146 -686h162l-12 -57h-386l12 57h162l146 686h-161l11 57h386z" />
    <glyph glyph-name="Omicrontonos" unicode="&#x38c;" 
d="M237 -14q-138 0 -174 82.5t9 293.5l17 80q45 212 112 292t201 80q138 0 173.5 -82.5t-9.5 -293.5l-17 -80q-45 -212 -112 -292t-200 -80zM5 631l-33 44l168 125l33 -43zM238 43q103 0 157.5 69.5t92.5 249.5l17 80q39 181 17 248t-121 67q-104 0 -158.5 -69.5
t-92.5 -249.5l-17 -80q-38 -181 -15.5 -248t120.5 -67z" />
    <glyph glyph-name="Upsilontonos" unicode="&#x38e;" 
d="M-95 631l-33 44l168 125l33 -43zM203 0l66 304l-131 496h67l109 -418l289 418h69l-341 -496l-66 -304h-62z" />
    <glyph glyph-name="Omegatonos" unicode="&#x38f;" 
d="M-43 0l13 57l100 2q-26 41 -25 108t29 195l17 80q45 212 111.5 292t197.5 80q136 0 172 -82.5t-9 -293.5l-17 -80q-28 -131 -53.5 -196.5t-66.5 -105.5l97 1l-12 -57h-226l10 58q72 0 112 64t78 240l17 80q38 181 16 248t-119 67q-101 0 -155 -69.5t-93 -249.5l-17 -80
q-25 -122 -27.5 -184.5t17 -89t69.5 -26.5l-10 -58h-226zM5 631l-33 44l168 125l33 -43z" />
    <glyph glyph-name="iotadieresistonos" unicode="&#x390;" 
d="M272 683l-33 44l168 125l33 -43zM162 710q-36 0 -48.5 14t-5.5 48q7 29 21 40t46 11q36 0 48 -14t6 -47q-7 -30 -21 -41t-46 -11zM502 710q-36 0 -48.5 14t-5.5 48q7 29 21 40t46 11q36 0 48 -14t6 -47q-7 -30 -21 -41t-46 -11zM305 -14q-91 0 -116 50t3 178l85 404h62
l-87 -409q-20 -96 -9 -131t63 -35q40 0 98 43l29 -57q-77 -43 -128 -43z" />
    <glyph glyph-name="Alpha" unicode="&#x391;" 
d="M427 0l-13 210h-269l-102 -210h-65l392 800h68l52 -800h-63zM173 268h238l-27 434z" />
    <glyph glyph-name="Beta" unicode="&#x392;" 
d="M22 0l170 800h194q124 0 164 -45.5t15 -160.5q-15 -73 -42.5 -109t-86.5 -58q62 -21 78.5 -65.5t-3.5 -139.5q-27 -126 -84 -174t-181 -48h-224zM180 452h132q91 0 133 32t61 120q17 81 -9.5 110t-117.5 29h-136zM96 57h157q91 0 134.5 38t64.5 137q20 95 -5.5 128.5
t-116.5 33.5h-162z" />
    <glyph glyph-name="Gamma" unicode="&#x393;" 
d="M637 800l-11 -57h-376l-157 -743h-62l170 800h436z" />
    <glyph glyph-name="uni0394" unicode="&#x394;" 
d="M-22 0l390 800h71l50 -800h-511zM70 57h355l-41 645z" />
    <glyph glyph-name="Epsilon" unicode="&#x395;" 
d="M625 743h-376l-60 -291h239l-12 -58h-241l-70 -337h373l-12 -57h-436l170 800h436z" />
    <glyph glyph-name="Zeta" unicode="&#x396;" 
d="M449 -63q-46 0 -137.5 37.5t-148.5 37.5q-5 0 -55.5 -6t-120.5 -6l10 48l567 695h-416l11 57h492l-10 -49l-564 -692q17 0 47.5 5t51.5 5q52 0 104 -18.5t98 -37.5t83 -19q46 0 116 32t125 31l-14 -57q-27 2 -58 -14t-76 -32.5t-105 -16.5z" />
    <glyph glyph-name="Eta" unicode="&#x397;" 
d="M564 800h62l-170 -800h-62l84 394h-320l-84 -394h-62l170 800h62l-74 -348h320z" />
    <glyph glyph-name="Theta" unicode="&#x398;" 
d="M313 903l10 58h215l-10 -58h-215zM237 -14q-138 0 -174 82.5t9 293.5l17 80q45 212 112 292t201 80q138 0 173.5 -82.5t-9.5 -293.5l-17 -80q-45 -212 -112 -292t-200 -80zM238 43q103 0 157.5 69.5t92.5 249.5l17 80q39 181 17 248t-121 67q-104 0 -158.5 -69.5
t-92.5 -249.5l-17 -80q-38 -181 -15.5 -248t120.5 -67z" />
    <glyph glyph-name="Iota" unicode="&#x399;" 
d="M586 743h-163l-146 -686h162l-12 -57h-386l12 57h162l146 686h-161l11 57h386z" />
    <glyph glyph-name="Kappa" unicode="&#x39a;" 
d="M670 800l-377 -363l208 -437h-71l-188 394h-78l-84 -394h-62l170 800h62l-74 -348h53l362 348h79z" />
    <glyph glyph-name="Lambda" unicode="&#x39b;" 
d="M-22 0l391 800h70l50 -800h-61l-44 701l-342 -701h-64z" />
    <glyph glyph-name="Mu" unicode="&#x39c;" 
d="M-12 0l184 800h61l74 -449l267 449h62l-156 -800h-62l126 642l-225 -386h-59l-61 386l-149 -642h-62z" />
    <glyph glyph-name="Nu" unicode="&#x39d;" 
d="M562 800h62l-170 -800h-65l-171 670l-142 -670h-62l170 800h66l170 -667z" />
    <glyph glyph-name="Xi" unicode="&#x39e;" 
d="M137 743l11 57h512l-11 -57h-512zM127 371l12 58h372l-12 -58h-372zM-22 0l12 57h512l-12 -57h-512z" />
    <glyph glyph-name="Omicron" unicode="&#x39f;" 
d="M237 -14q-138 0 -174 82.5t9 293.5l17 80q45 212 112 292t201 80q138 0 173.5 -82.5t-9.5 -293.5l-17 -80q-45 -212 -112 -292t-200 -80zM238 43q103 0 157.5 69.5t92.5 249.5l17 80q39 181 17 248t-121 67q-104 0 -158.5 -69.5t-92.5 -249.5l-17 -80
q-38 -181 -15.5 -248t120.5 -67z" />
    <glyph glyph-name="Pi" unicode="&#x3a0;" 
d="M0 0l170 800h468l-170 -800h-62l158 743h-343l-159 -743h-62z" />
    <glyph glyph-name="Rho" unicode="&#x3a1;" 
d="M422 800q125 0 163.5 -51t10.5 -180q-26 -127 -83 -174t-182 -47h-161l-74 -348h-62l170 800h218zM537 579q20 95 -5.5 129.5t-116.5 34.5h-162l-71 -338h155q92 0 135 37t65 137z" />
    <glyph glyph-name="Sigma" unicode="&#x3a3;" 
d="M-12 0l10 53l314 347l-164 347l10 53h502l-11 -57h-424l163 -343l-307 -343h421l-12 -57h-502z" />
    <glyph glyph-name="Tau" unicode="&#x3a4;" 
d="M678 800l-11 -57h-244l-158 -743h-62l158 743h-242l11 57h548z" />
    <glyph glyph-name="Upsilon" unicode="&#x3a5;" 
d="M203 0l66 304l-131 496h67l109 -418l289 418h69l-341 -496l-66 -304h-62z" />
    <glyph glyph-name="Phi" unicode="&#x3a6;" 
d="M413 695q143 -5 185.5 -71t8.5 -228q-34 -161 -103 -224t-217 -67l-22 -105h-62l22 106q-143 6 -185 72t-8 228q34 159 103 222.5t216 67.5l22 104h62zM547 406q27 127 -4 178t-142 55l-101 -476q111 6 165.5 60t81.5 183zM92 396q-27 -127 4 -178t142 -55l101 475
q-111 -6 -165.5 -60t-81.5 -182z" />
    <glyph glyph-name="Chi" unicode="&#x3a7;" 
d="M652 800l-298 -399l130 -401h-70l-109 336l-251 -336h-67l298 399l-130 401h70l109 -336l251 336h67z" />
    <glyph glyph-name="Psi" unicode="&#x3a8;" 
d="M616 800h62l-60 -284q-33 -156 -98.5 -217.5t-204.5 -65.5l-50 -233h-62l50 234q-135 6 -174.5 69.5t-7.5 217.5l59 279h62l-59 -284q-27 -123 1.5 -171.5t130.5 -52.5l108 508h62l-108 -508q103 6 153.5 57t75.5 172z" />
    <glyph glyph-name="uni03A9" unicode="&#x3a9;" 
d="M-43 0l13 57l100 2q-26 41 -25 108t29 195l17 80q45 212 111.5 292t197.5 80q136 0 172 -82.5t-9 -293.5l-17 -80q-28 -131 -53.5 -196.5t-66.5 -105.5l97 1l-12 -57h-226l10 58q72 0 112 64t78 240l17 80q38 181 16 248t-119 67q-101 0 -155 -69.5t-93 -249.5l-17 -80
q-25 -122 -27.5 -184.5t17 -89t69.5 -26.5l-10 -58h-226z" />
    <glyph glyph-name="Iotadieresis" unicode="&#x3aa;" 
d="M325 911q-36 0 -48 14t-5 48q6 29 20 40t46 11q36 0 48.5 -14t5.5 -47q-7 -30 -21 -41t-46 -11zM554 1024q36 0 48.5 -14t5.5 -47q-7 -30 -21 -41t-46 -11q-36 0 -48 14t-5 48q6 29 20 40t46 11zM597 800l-11 -57h-163l-146 -686h162l-12 -57h-386l12 57h162l146 686
h-161l11 57h386z" />
    <glyph glyph-name="Upsilondieresis" unicode="&#x3ab;" 
d="M325 911q-36 0 -48 14t-5 48q6 29 20 40t46 11q36 0 48.5 -14t5.5 -47q-7 -30 -21 -41t-46 -11zM541 911q-36 0 -48 14t-5 48q6 29 20 40t46 11q36 0 48.5 -14t5.5 -47q-7 -30 -21 -41t-46 -11zM203 0l66 304l-131 496h67l109 -418l289 418h69l-341 -496l-66 -304h-62z
" />
    <glyph glyph-name="alphatonos" unicode="&#x3ac;" 
d="M498 809l-168 -126l-33 44l168 125zM488 122l50 -34q-46 -59 -76 -80.5t-64 -21.5q-47 0 -68.5 16t-21.5 53q-61 -69 -140 -69q-109 0 -136.5 72t12.5 256q38 180 92 249t158 69q83 0 118 -72l12 58h62l-110 -517q-8 -36 -3 -47t26 -11q15 0 34 17t55 62zM170 43
q74 0 115 59t74 212q32 150 18 205.5t-84 55.5q-74 0 -115.5 -59t-74.5 -212q-32 -150 -17.5 -205.5t84.5 -55.5z" />
    <glyph glyph-name="epsilontonos" unicode="&#x3ad;" 
d="M330 683l-33 44l168 125l33 -43zM237 -14q-131 0 -173 37t-21 133q13 63 39.5 97t86.5 62q-46 27 -59 61.5t0 96.5q19 91 73.5 125t179.5 34q130 0 173.5 -33t24.5 -119l-61 5q11 52 -18 71t-120 19q-94 0 -136 -24.5t-56 -87.5q-14 -65 10.5 -90.5t104.5 -30.5h78
l-12 -58h-73q-83 -5 -121.5 -35.5t-53.5 -102.5q-13 -59 16 -81t120 -22q94 0 135.5 22t53.5 78l61 -5q-20 -88 -73 -120t-179 -32z" />
    <glyph glyph-name="etatonos" unicode="&#x3ae;" 
d="M498 809l-168 -126l-33 44l168 125zM408 631q108 0 134 -53t-4 -183l-123 -577h-62l123 582q23 99 8.5 136.5t-85.5 37.5q-95 0 -140 -36.5t-64 -131.5l-87 -406h-62l105 497l17 13l-15 -10q11 46 6.5 55.5t-42.5 9.5l6 53q71 0 91 -9.5t13 -51.5q65 74 181 74z" />
    <glyph glyph-name="iotatonos" unicode="&#x3af;" 
d="M271 683l-33 44l168 125l33 -43zM305 -14q-91 0 -116 50t3 178l85 404h62l-87 -409q-20 -96 -9 -131t63 -35q40 0 98 43l29 -57q-77 -43 -128 -43z" />
    <glyph glyph-name="upsilondieresistonos" unicode="&#x3b0;" 
d="M321 683l-33 44l168 125l33 -43zM211 710q-36 0 -48.5 14t-5.5 48q7 29 21 40t46 11q36 0 48 -14t6 -47q-7 -30 -21 -41t-46 -11zM551 710q-36 0 -48.5 14t-5.5 48q7 29 21 40t46 11q36 0 48 -14t6 -47q-7 -30 -21 -41t-46 -11zM237 -14q-132 0 -167.5 75t5.5 265l62 292
h62l-63 -296q-34 -160 -12 -219.5t114 -59.5q97 0 148 62t85 224q23 111 19.5 173t-34.5 118l66 -4q28 -55 30.5 -117.5t-21.5 -179.5q-41 -189 -104 -261t-190 -72z" />
    <glyph glyph-name="alpha" unicode="&#x3b1;" 
d="M488 122l50 -34q-46 -59 -76 -80.5t-64 -21.5q-47 0 -68.5 16t-21.5 53q-61 -69 -140 -69q-109 0 -136.5 72t12.5 256q38 180 92 249t158 69q83 0 118 -72l12 58h62l-110 -517q-8 -36 -3 -47t26 -11q15 0 34 17t55 62zM170 43q74 0 115 59t74 212q32 150 18 205.5
t-84 55.5q-74 0 -115.5 -59t-74.5 -212q-32 -150 -17.5 -205.5t84.5 -55.5z" />
    <glyph glyph-name="beta" unicode="&#x3b2;" 
d="M551 617q-14 -66 -40.5 -101t-82.5 -62q83 -22 108 -71t3 -152q-31 -143 -90 -197t-183 -54q-139 0 -182 78l-45 -211h-62l95 448l12 61l1 -2l57 270q24 112 75.5 154t165.5 42q118 0 155 -44.5t13 -158.5zM333 482q73 5 107 36.5t50 108.5q17 79 -5.5 107t-102.5 28
q-84 0 -123 -31t-56 -111l-86 -407q-17 -101 15 -138t135 -37q96 0 141.5 43.5t69.5 159.5q22 99 -10 137.5t-141 45.5h-66l11 58h61z" />
    <glyph glyph-name="gamma" unicode="&#x3b3;" 
d="M562 616q26 -75 7 -160q-20 -93 -84.5 -192.5t-218.5 -270.5l-36 -175h-62l39 182l-102 618h64l89 -544q123 137 178.5 224.5t72.5 166.5q10 45 6.5 79.5t-22.5 75.5z" />
    <glyph glyph-name="delta" unicode="&#x3b4;" 
d="M404 757q-46 0 -77 -15.5t-36 -40.5q-3 -15 10 -29.5t36 -28.5t51 -30t55.5 -39t49 -51.5t31.5 -71t3 -93.5q-4 -41 -15 -94q-34 -158 -93 -218t-182 -60q-127 0 -163.5 63t-2.5 225q34 158 93 218t182 60h20q-11 7 -27.5 17t-26.5 16t-24.5 16t-22 17t-18 19t-12.5 21.5
t-5.5 24t2.5 28.5q10 47 57 75t116 28q99 0 163 -32l-28 -49q-75 24 -136 24zM238 43q93 0 139.5 50.5t73.5 180.5q8 41 10 56l1 4q13 91 -13 126t-104 35q-93 0 -139.5 -50.5t-73.5 -180.5q-27 -127 -4.5 -174t110.5 -47z" />
    <glyph glyph-name="epsilon" unicode="&#x3b5;" 
d="M237 -14q-131 0 -173 37t-21 133q13 63 39.5 97t86.5 62q-46 27 -59 61.5t0 96.5q19 91 73.5 125t179.5 34q130 0 173.5 -33t24.5 -119l-61 5q11 52 -18 71t-120 19q-94 0 -136 -24.5t-56 -87.5q-14 -65 10.5 -90.5t104.5 -30.5h78l-12 -58h-73q-83 -5 -121.5 -35.5
t-53.5 -102.5q-13 -59 16 -81t120 -22q94 0 135.5 22t53.5 78l61 -5q-20 -88 -73 -120t-179 -32z" />
    <glyph glyph-name="zeta" unicode="&#x3b6;" 
d="M614 742q-176 -71 -308.5 -197t-159.5 -256q-9 -45 0.5 -80t33.5 -57t56 -41t67.5 -30.5t68.5 -26.5t58 -29.5t37.5 -38.5t5.5 -54q-5 -28 -32 -60t-65 -55l-32 50q25 13 45.5 35t24.5 40q5 22 -21.5 39.5t-68.5 30t-89.5 35t-86.5 51t-58 80.5t-4 121q26 122 134.5 243
t264.5 201h-248l11 57h372h1q1 1 2 1v-1h1z" />
    <glyph glyph-name="eta" unicode="&#x3b7;" 
d="M408 631q108 0 134 -53t-4 -183l-123 -577h-62l123 582q23 99 8.5 136.5t-85.5 37.5q-95 0 -140 -36.5t-64 -131.5l-87 -406h-62l105 497l17 13l-15 -10q11 46 6.5 55.5t-42.5 9.5l6 53q71 0 91 -9.5t13 -51.5q65 74 181 74z" />
    <glyph glyph-name="theta" unicode="&#x3b8;" 
d="M402 814q103 0 148.5 -117.5t7.5 -301.5q-39 -180 -130.5 -294.5t-190.5 -114.5q-104 0 -149.5 117.5t-6.5 301.5q38 180 129.5 294.5t191.5 114.5zM401 757q-72 0 -143.5 -91.5t-107.5 -236.5h352q27 145 -3 236.5t-98 91.5zM238 43q72 0 143.5 91.5t107.5 236.5h-352
q-27 -145 3 -236.5t98 -91.5z" />
    <glyph glyph-name="iota" unicode="&#x3b9;" 
d="M305 -14q-91 0 -116 50t3 178l85 404h62l-87 -409q-20 -96 -9 -131t63 -35q40 0 98 43l29 -57q-77 -43 -128 -43z" />
    <glyph glyph-name="kappa" unicode="&#x3ba;" 
d="M54 0l132 618h62l-55 -258l41 1q34 19 67 53.5t58 68t53 65t66 51t85 19.5l-6 -57q-35 0 -64.5 -18t-53 -46.5t-45.5 -58.5t-50 -60t-57 -46l187 -332h-73l-172 302h-48l-65 -302h-62z" />
    <glyph glyph-name="lambda" unicode="&#x3bb;" 
d="M476 57h46l-12 -57h-53q-33 0 -58 15.5t-40 46.5t-24.5 65t-14.5 85t-7 91t-3 99q-1 29 -1 43l-278 -445h-65l339 542q-5 63 -14.5 104t-31.5 69t-56 28h-46l11 57h54q52 0 83.5 -41t42.5 -106.5t15 -145t6 -158.5t9.5 -144.5t31.5 -106.5t66 -41z" />
    <glyph glyph-name="uni03BC" unicode="&#x3bc;" 
d="M-25 -182l170 800h62l-94 -440q-13 -78 9 -106.5t91 -28.5q65 0 133.5 44t82.5 112l90 419h62l-132 -618h-62l17 71q-32 -43 -84 -64t-108 -21q-93 0 -130 34l-45 -202h-62z" />
    <glyph glyph-name="nu" unicode="&#x3bd;" 
d="M562 616q26 -75 7 -160q-20 -93 -83.5 -191t-215.5 -267l-2 3v-1h-61l-102 618h64l89 -544q123 137 178.5 224.5t72.5 166.5q10 45 6.5 79.5t-22.5 75.5z" />
    <glyph glyph-name="xi" unicode="&#x3be;" 
d="M618 770l-3 -26h-2v-1h-3q-184 -36 -259.5 -70.5t-86.5 -87.5q-5 -24 6 -39t45 -25t89 -14t143 -4q2 1 6 1t6 1v-2l-7 -57h-5q-218 -47 -307 -89.5t-103 -106.5q-5 -27 13 -46t51 -32t73.5 -25t80 -28.5t70.5 -38.5t45 -60t3 -88q-8 -37 -28.5 -61.5t-68.5 -53.5l-32 49
q34 19 49.5 35.5t20.5 40.5q8 38 -8.5 66t-48.5 44.5t-72.5 30t-80.5 27.5t-71.5 32t-47.5 47.5t-7 70.5q15 74 73 119.5t185 79.5q-84 14 -114 46.5t-18 89.5q11 50 51 85t123 63h-141l11 57h369h2q2 1 3 1v-1h2z" />
    <glyph glyph-name="omicron" unicode="&#x3bf;" 
d="M236 -14q-127 0 -160.5 72t5.5 255q29 142 107 230.5t176 88.5q127 0 161 -72t-6 -255q-30 -143 -107.5 -231t-175.5 -88zM239 43q74 0 135.5 75t86.5 195q31 151 10 206.5t-110 55.5q-73 0 -134.5 -75t-87.5 -195q-32 -151 -10.5 -206.5t110.5 -55.5z" />
    <glyph glyph-name="pi" unicode="&#x3c0;" 
d="M621 618l-12 -57h-103l-90 -422q-11 -50 5.5 -66t77.5 -16l-7 -57q-85 -2 -119 33.5t-18 110.5l89 417h-194l-119 -561h-62l119 561h-99l12 57h520z" />
    <glyph glyph-name="rho" unicode="&#x3c1;" 
d="M363 632q127 0 161.5 -72t-4.5 -256q-38 -180 -99 -249t-184 -69q-105 0 -147 82l-53 -250h-62l103 486q0 2 1 5t1 5q38 180 99 249t184 69zM460 314q32 150 11 205.5t-109 55.5q-93 0 -141.5 -59t-80.5 -212q-32 -150 -11 -205.5t109 -55.5q93 0 141.5 59t80.5 212z" />
    <glyph glyph-name="uni03C2" unicode="&#x3c2;" 
d="M292 -184l-45 39q39 41 55.5 63.5t21.5 45.5q9 44 -4 74.5t-41.5 45t-64 29.5t-70.5 28t-61.5 40t-36.5 67t3 108q34 158 106 217t233 59q141 0 184 -52t14 -186l-60 5q21 102 -8.5 139t-130.5 37q-130 0 -190 -49.5t-88 -179.5q-9 -44 -0.5 -76.5t30 -50t50.5 -32.5
t60 -24.5t60 -26t49.5 -37t28 -57.5t-3.5 -88q-6 -31 -25.5 -60.5t-65.5 -77.5z" />
    <glyph glyph-name="sigma" unicode="&#x3c3;" 
d="M639 632l-12 -57h-105q42 -67 -2 -271q-38 -180 -99 -249t-184 -69q-127 0 -161.5 72t4.5 256q38 180 99 249t184 69h6h270zM460 314q32 150 11 205.5t-109 55.5q-93 0 -141.5 -59t-80.5 -212q-32 -150 -11 -205.5t109 -55.5q93 0 141.5 59t80.5 212z" />
    <glyph glyph-name="tau" unicode="&#x3c4;" 
d="M365 561l-75 -352q-21 -96 -9.5 -131t63.5 -35q40 0 98 43l28 -57q-76 -43 -128 -43q-91 0 -116 50t3 178l74 347h-191l13 57h456l-12 -57h-204z" />
    <glyph glyph-name="upsilon" unicode="&#x3c5;" 
d="M237 -14q-132 0 -167.5 75t5.5 265l62 292h62l-63 -296q-34 -160 -12 -219.5t114 -59.5q97 0 148 62t85 224q23 111 19.5 173t-34.5 118l66 -4q28 -55 30.5 -117.5t-21.5 -179.5q-41 -189 -104 -261t-190 -72z" />
    <glyph glyph-name="phi" unicode="&#x3c6;" 
d="M452 632q78 0 92.5 -72t-24.5 -256q-36 -173 -95 -242.5t-175 -74.5q-9 -42 -37 -171l-61 4l36 168q-97 9 -121 82.5t13 243.5q29 133 89 219t132 96l-7 -60q-45 -11 -88.5 -84.5t-65.5 -180.5q-30 -140 -17.5 -196.5t78.5 -63.5q52 235 90 358t75.5 176.5t85.5 53.5z
M460 314q31 149 30.5 205t-33.5 56q-38 0 -83 -120t-111 -410q80 9 123.5 68.5t73.5 200.5z" />
    <glyph glyph-name="chi" unicode="&#x3c7;" 
d="M328 226q5 -191 21 -255q24 -96 88 -96h46l-11 -57h-54q-35 0 -61 19t-41 48t-24.5 76t-13 89.5t-5.5 102.5l-250 -335h-70l318 426q-2 51 -3.5 82t-5.5 73t-11 67t-18.5 49t-28.5 35t-40 11h-46l12 57h53q40 0 68 -23.5t42.5 -69t21.5 -93.5t10 -116l225 302h70z" />
    <glyph glyph-name="psi" unicode="&#x3c8;" 
d="M576 516q16 -36 16.5 -74.5t-14.5 -110.5q-32 -154 -97 -215t-204 -65l-50 -233h-62l50 234q-135 6 -174.5 69.5t-7.5 217.5l37 179h62l-38 -184q-27 -123 1.5 -172t131.5 -53l108 509h62l-108 -508q102 7 152.5 58t76.5 173q14 68 14.5 106t-14.5 73z" />
    <glyph glyph-name="omega" unicode="&#x3c9;" 
d="M560 616q22 -44 24.5 -125t-16.5 -172q-41 -191 -86 -262t-127 -71q-45 0 -70.5 18t-34.5 58q-47 -76 -131 -76q-87 0 -104.5 74t23.5 269q19 88 54.5 168.5t75.5 122.5l74 -4q-47 -48 -86.5 -129.5t-57.5 -167.5q-34 -158 -29 -217t52 -59q51 0 84 61.5t67 217.5
q0 1 1 4.5t1 5.5l61 -5q-35 -163 -30.5 -223.5t51.5 -60.5q51 0 84.5 62t67.5 224q18 84 14 164.5t-29 126.5z" />
    <glyph glyph-name="iotadieresis" unicode="&#x3ca;" 
d="M227 726q-36 0 -48 14t-5 48q6 29 20 40t46 11q36 0 48.5 -14t5.5 -47q-7 -30 -21 -41t-46 -11zM443 726q-36 0 -48 14t-5 48q6 29 20 40t46 11q36 0 48.5 -14t5.5 -47q-7 -30 -21 -41t-46 -11zM305 -14q-91 0 -116 50t3 178l85 404h62l-87 -409q-20 -96 -9 -131t63 -35
q40 0 98 43l29 -57q-77 -43 -128 -43z" />
    <glyph glyph-name="upsilondieresis" unicode="&#x3cb;" 
d="M276 726q-36 0 -48 14t-5 48q6 29 20 40t46 11q36 0 48.5 -14t5.5 -47q-7 -30 -21 -41t-46 -11zM492 726q-36 0 -48 14t-5 48q6 29 20 40t46 11q36 0 48.5 -14t5.5 -47q-7 -30 -21 -41t-46 -11zM237 -14q-132 0 -167.5 75t5.5 265l62 292h62l-63 -296
q-34 -160 -12 -219.5t114 -59.5q97 0 148 62t85 224q23 111 19.5 173t-34.5 118l66 -4q28 -55 30.5 -117.5t-21.5 -179.5q-41 -189 -104 -261t-190 -72z" />
    <glyph glyph-name="omicrontonos" unicode="&#x3cc;" 
d="M330 683l-33 44l168 125l33 -43zM236 -14q-127 0 -160.5 72t5.5 255q29 142 107 230.5t176 88.5q127 0 161 -72t-6 -255q-30 -143 -107.5 -231t-175.5 -88zM239 43q74 0 135.5 75t86.5 195q31 151 10 206.5t-110 55.5q-73 0 -134.5 -75t-87.5 -195q-32 -151 -10.5 -206.5
t110.5 -55.5z" />
    <glyph glyph-name="upsilontonos" unicode="&#x3cd;" 
d="M320 683l-33 44l168 125l33 -43zM237 -14q-132 0 -167.5 75t5.5 265l62 292h62l-63 -296q-34 -160 -12 -219.5t114 -59.5q97 0 148 62t85 224q23 111 19.5 173t-34.5 118l66 -4q28 -55 30.5 -117.5t-21.5 -179.5q-41 -189 -104 -261t-190 -72z" />
    <glyph glyph-name="omegatonos" unicode="&#x3ce;" 
d="M498 809l-168 -126l-33 44l168 125zM560 616q22 -44 24.5 -125t-16.5 -172q-41 -191 -86 -262t-127 -71q-45 0 -70.5 18t-34.5 58q-47 -76 -131 -76q-87 0 -104.5 74t23.5 269q19 88 54.5 168.5t75.5 122.5l74 -4q-47 -48 -86.5 -129.5t-57.5 -167.5q-34 -158 -29 -217
t52 -59q51 0 84 61.5t67 217.5q0 1 1 4.5t1 5.5l61 -5q-35 -163 -30.5 -223.5t51.5 -60.5q51 0 84.5 62t67.5 224q18 84 14 164.5t-29 126.5z" />
    <glyph glyph-name="uni03CF" unicode="&#x3cf;" 
d="M293 437l208 -437h2l-120 -132h-76l121 132h2l-188 394h-78l-84 -394h-62l170 800h62l-74 -348h53l362 348h79z" />
    <glyph glyph-name="uni03D7" unicode="&#x3d7;" 
d="M530 632q66 0 82 -38.5t-25 -99.5q-47 -66 -186 -155q-39 -134 -14 -210.5t113 -73.5l-19 -97q-15 -70 -51.5 -112t-83.5 -42q-69 0 -130 40l37 47q55 -30 94 -30q22 0 43 29t30 73l11 37q-70 3 -98.5 83t-3.5 211q-45 -26 -109 -67q-30 -122 -66 -181.5t-98 -59.5
q-69 0 -78.5 45t45.5 115q27 33 142 108q9 37 25 113q19 91 -1 144t-73 49l8 58q79 4 114.5 -70t10.5 -191l-12 -56q44 28 111 72q23 85 66 178q18 36 51 58.5t65 22.5zM530 521q37 54 -1 54q-14 0 -32 -14.5t-27 -36.5q-21 -44 -39 -94q78 58 99 91zM57 43q28 0 48 32
t40 100q-47 -36 -72 -66q-48 -61 -16 -66z" />
    <glyph glyph-name="uni0401" unicode="&#x401;" 
d="M339 911q-36 0 -48 14t-5 48q6 29 20 40t46 11q36 0 48.5 -14t5.5 -47q-7 -30 -21 -41t-46 -11zM555 911q-36 0 -48 14t-5 48q6 29 20 40t46 11q36 0 48.5 -14t5.5 -47q-7 -30 -21 -41t-46 -11zM625 743h-376l-60 -291h239l-12 -58h-241l-70 -337h373l-12 -57h-436
l170 800h436z" />
    <glyph glyph-name="uni0410" unicode="&#x410;" 
d="M427 0l-13 210h-269l-102 -210h-65l392 800h68l52 -800h-63zM173 268h238l-27 434z" />
    <glyph glyph-name="uni0411" unicode="&#x411;" 
d="M22 0l170 800h362l-11 -57h-300l-53 -245h157q126 0 163 -55t6 -198q-30 -141 -87.5 -193t-182.5 -52h-224zM96 57h157q90 0 135 43.5t69 154.5q23 107 -2 146.5t-115 39.5h-162z" />
    <glyph glyph-name="uni0412" unicode="&#x412;" 
d="M22 0l170 800h194q124 0 164 -45.5t15 -160.5q-15 -73 -42.5 -109t-86.5 -58q62 -21 78.5 -65.5t-3.5 -139.5q-27 -126 -84 -174t-181 -48h-224zM180 452h132q91 0 133 32t61 120q17 81 -9.5 110t-117.5 29h-136zM96 57h157q91 0 134.5 38t64.5 137q20 95 -5.5 128.5
t-116.5 33.5h-162z" />
    <glyph glyph-name="uni0413" unicode="&#x413;" 
d="M637 800l-11 -57h-376l-157 -743h-62l170 800h436z" />
    <glyph glyph-name="uni0414" unicode="&#x414;" 
d="M622 800l-157 -743h50l-31 -145h-62l18 88h-412l-18 -88h-62l30 145h74l-44 1q85 49 147.5 204.5t167.5 539.5zM97 57h306l146 686l-183 -3q-87 -325 -146 -479t-123 -204z" />
    <glyph glyph-name="uni0415" unicode="&#x415;" 
d="M625 743h-376l-60 -291h239l-12 -58h-241l-70 -337h373l-12 -57h-436l170 800h436z" />
    <glyph glyph-name="uni0416" unicode="&#x416;" 
d="M373 800h62l-170 -800h-62l85 398l-284 -398h-70l285 400h2l-116 400h67l116 -400zM420 400h-2l116 -400h-67l-116 400h-1l285 400h70z" />
    <glyph glyph-name="uni0417" unicode="&#x417;" 
d="M237 -14q-130 0 -170.5 45.5t-16.5 161.5l62 -5q-19 -85 7 -115t119 -30q95 0 139.5 37.5t65.5 135.5q21 99 -0.5 136t-102.5 42h-78l12 58h73q85 5 123 38t57 119q18 86 -8.5 117t-117.5 31q-97 0 -139 -29.5t-59 -108.5l-61 5q23 110 78 150t182 40q129 0 170 -47.5
t15 -167.5q-16 -75 -43.5 -112.5t-87.5 -65.5q46 -27 56.5 -73t-9.5 -142q-27 -125 -84.5 -172.5t-181.5 -47.5z" />
    <glyph glyph-name="uni0418" unicode="&#x418;" 
d="M625 800l-1 -2l-170 -798h-62l141 665l-451 -665h-68l170 800h62l-142 -667l453 667h68z" />
    <glyph glyph-name="uni0419" unicode="&#x419;" 
d="M421 861q-76 0 -100.5 29t-7.5 100l72 -5q-25 -41 -18.5 -53.5t56.5 -12.5q55 0 71 15t9 56l71 -5q-14 -71 -46.5 -97.5t-106.5 -26.5zM625 800l-1 -2l-170 -798h-62l141 665l-451 -665h-68l170 800h62l-142 -667l453 667h68z" />
    <glyph glyph-name="uni041A" unicode="&#x41a;" 
d="M666 799q-51 -29 -94.5 -76t-74 -94t-60.5 -92.5t-67.5 -81.5t-81.5 -51l203 -404h-73l-197 394h-64l-84 -394h-62l170 800h62l-74 -348h48q50 2 90 28.5t69 69t55.5 87t63.5 91t79 73.5z" />
    <glyph glyph-name="uni041B" unicode="&#x41b;" 
d="M348 800h298l-170 -800h-62l159 743h-210q-128 -478 -190.5 -610.5t-187.5 -132.5l7 57q30 0 53 12.5t47.5 49t45.5 85t50.5 140t58 193.5t71.5 265z" />
    <glyph glyph-name="uni041C" unicode="&#x41c;" 
d="M-12 0l184 800h61l74 -449l267 449h62l-156 -800h-62l126 642l-225 -386h-59l-61 386l-149 -642h-62z" />
    <glyph glyph-name="uni041D" unicode="&#x41d;" 
d="M564 800h62l-170 -800h-62l84 394h-320l-84 -394h-62l170 800h62l-74 -348h320z" />
    <glyph glyph-name="uni041E" unicode="&#x41e;" 
d="M237 -14q-138 0 -174 82.5t9 293.5l17 80q45 212 112 292t201 80q138 0 173.5 -82.5t-9.5 -293.5l-17 -80q-45 -212 -112 -292t-200 -80zM238 43q103 0 157.5 69.5t92.5 249.5l17 80q39 181 17 248t-121 67q-104 0 -158.5 -69.5t-92.5 -249.5l-17 -80
q-38 -181 -15.5 -248t120.5 -67z" />
    <glyph glyph-name="uni041F" unicode="&#x41f;" 
d="M0 0l170 800h468l-170 -800h-62l158 743h-343l-159 -743h-62z" />
    <glyph glyph-name="uni0420" unicode="&#x420;" 
d="M422 800q125 0 163.5 -51t10.5 -180q-26 -127 -83 -174t-182 -47h-161l-74 -348h-62l170 800h218zM537 579q20 95 -5.5 129.5t-116.5 34.5h-162l-71 -338h155q92 0 135 37t65 137z" />
    <glyph glyph-name="uni0421" unicode="&#x421;" 
d="M252 -14q-96 0 -141.5 39t-51.5 132t29 249q50 233 120.5 320.5t208.5 87.5q95 0 135.5 -38t49.5 -135l-61 -16q-8 77 -34 104.5t-91 27.5q-108 0 -166 -78.5t-101 -282.5q-44 -202 -21.5 -277.5t125.5 -75.5q68 0 108.5 29t82.5 105l56 -25q-50 -96 -103 -131t-145 -35z
" />
    <glyph glyph-name="uni0422" unicode="&#x422;" 
d="M678 800l-11 -57h-244l-158 -743h-62l158 743h-242l11 57h548z" />
    <glyph glyph-name="uni0423" unicode="&#x423;" 
d="M607 800h65l-304 -619q-54 -110 -112 -152.5t-147 -42.5q-55 0 -95 30l32 49q34 -22 64 -22q84 0 131 47l-84 710h63l74 -634l23 45z" />
    <glyph glyph-name="uni0424" unicode="&#x424;" 
d="M413 695q143 -5 185.5 -71t8.5 -228q-34 -161 -103 -224t-217 -67l-22 -105h-62l22 106q-143 6 -185 72t-8 228q34 159 103 222.5t216 67.5l22 104h62zM547 406q27 127 -4 178t-142 55l-101 -476q111 6 165.5 60t81.5 183zM92 396q-27 -127 4 -178t142 -55l101 475
q-111 -6 -165.5 -60t-81.5 -182z" />
    <glyph glyph-name="uni0425" unicode="&#x425;" 
d="M652 800l-298 -399l130 -401h-70l-109 336l-251 -336h-67l298 399l-130 401h70l109 -336l251 336h67z" />
    <glyph glyph-name="uni0426" unicode="&#x426;" 
d="M608 800l-158 -743h50l-35 -165h-62l23 108h-426l170 800h62l-157 -743h313l158 743h62z" />
    <glyph glyph-name="uni0427" unicode="&#x427;" 
d="M139 731l-28 47q31 36 96 36q34 0 54.5 -17t20.5 -45q1 -83 -80 -355q-53 -172 69 -172q48 0 103 48.5t94.5 115.5t51.5 126l60 285h63l-170 -800h-62l71 331q-44 -76 -99.5 -119.5t-114.5 -43.5q-201 0 -126 235q76 245 78 325q-2 29 -33 29q-25 0 -48 -26z" />
    <glyph glyph-name="uni0428" unicode="&#x428;" 
d="M-25 0l170 800h62l-157 -743h165l158 743h62l-158 -743h166l158 743h62l-170 -800h-518z" />
    <glyph glyph-name="uni0429" unicode="&#x429;" 
d="M619 800l-158 -743h63l-36 -165h-62l23 108h-492l170 800h62l-158 -743h153l158 743h62l-158 -743h154l157 743h62z" />
    <glyph glyph-name="uni042A" unicode="&#x42a;" 
d="M370 452q125 0 163.5 -50t11.5 -181q-27 -125 -84.5 -173t-181.5 -48h-223l158 743h-100l12 57h162l-11 -57h-1l-61 -291h155zM485 231q20 96 -5.5 130t-116.5 34h-160l-71 -338h154q91 0 134 37.5t65 136.5z" />
    <glyph glyph-name="uni042B" unicode="&#x42b;" 
d="M253 452q111 0 145.5 -51t6.5 -180q-27 -126 -79.5 -173.5t-163.5 -47.5h-181l170 800h62l-74 -348h114zM595 800h62l-170 -800h-62zM346 231q19 94 -2.5 129t-97.5 35h-119l-71 -338h113q76 0 115.5 38.5t61.5 135.5z" />
    <glyph glyph-name="uni042C" unicode="&#x42c;" 
d="M348 452q125 0 163.5 -50t10.5 -181q-27 -126 -84 -173.5t-181 -47.5h-223l170 800h62l-74 -348h156zM463 231q20 96 -5.5 130t-116.5 34h-161l-71 -338h155q91 0 134 37.5t65 136.5z" />
    <glyph glyph-name="uni042D" unicode="&#x42d;" 
d="M402 814q138 0 173.5 -82.5t-9.5 -293.5l-17 -80q-45 -212 -112 -292t-200 -80q-89 0 -133.5 33t-53.5 106l66 -5q11 -42 39.5 -59.5t82.5 -17.5q103 0 157.5 69.5t92.5 249.5l2 9h-245l12 58h245l3 13q39 181 17 248t-121 67q-111 0 -167 -82l-68 5q40 72 95.5 103
t140.5 31z" />
    <glyph glyph-name="uni042E" unicode="&#x42e;" 
d="M489 814q114 0 140.5 -81.5t-18.5 -294.5l-17 -80q-45 -213 -102.5 -292.5t-167.5 -79.5q-115 0 -141.5 81.5t19.5 294.5l2 9h-100l-79 -371h-62l170 800h62l-79 -371h100l3 13q45 213 102.5 292.5t167.5 79.5zM550 442q26 123 28.5 189.5t-18.5 96t-72 29.5
q-79 0 -124.5 -69.5t-84.5 -249.5l-17 -80q-38 -181 -25 -248t88 -67q79 0 124.5 69.5t83.5 249.5z" />
    <glyph glyph-name="uni042F" unicode="&#x42f;" 
d="M390 800h222l-170 -800h-62l74 348h-100l-303 -348h-74l303 348q-113 4 -147.5 54.5t-7.5 176.5q26 126 83 173.5t182 47.5zM305 405h162l72 338h-156q-91 0 -134.5 -37.5t-64.5 -136.5q-20 -96 5 -130t116 -34z" />
    <glyph glyph-name="uni0430" unicode="&#x430;" 
d="M499 69l28 -47q-31 -36 -96 -36q-33 0 -53 16.5t-21 43.5q0 37 6 52q-29 -51 -73 -81.5t-90 -30.5q-78 0 -125.5 49t-46.5 128q0 102 51 212.5t130 183.5t154 73q149 0 149 -91q1 -18 -90 -440q-6 -27 -0.5 -42.5t29.5 -15.5q25 0 48 26zM202 43q57 0 111 59.5t84 154.5
q54 257 55 277q-1 24 -21 32.5t-70 8.5q-56 0 -120.5 -65.5t-108.5 -162.5t-44 -181q1 -56 32 -89.5t82 -33.5z" />
    <glyph glyph-name="uni0431" unicode="&#x431;" 
d="M237 -14q-134 0 -174 55.5t-9 201.5l51 239q23 104 98 168t177 64q80 0 132 25t60 63l63 -4q-14 -65 -83.5 -103t-173.5 -38q-78 0 -136.5 -50t-75.5 -129l-12 -49q36 39 76 54t105 15q134 0 173.5 -56.5t7.5 -204.5q-30 -144 -89.5 -197.5t-189.5 -53.5zM238 43
q100 0 147 43.5t72 160.5q24 113 -2 153t-122 40q-100 0 -147 -43t-72 -161q-24 -113 2 -153t122 -40z" />
    <glyph glyph-name="uni0432" unicode="&#x432;" 
d="M266 -14q-120 0 -171 114q-47 106 -14 249q33 146 127 224q71 59 159 59q109 0 147.5 -37.5t19.5 -130.5q-11 -52 -36.5 -82t-79.5 -46q60 -13 78 -51.5t3 -115.5q-21 -104 -72.5 -143.5t-160.5 -39.5zM144 361h148q87 0 128.5 27.5t53.5 85.5q12 59 -12 80t-100 21
q-48 0 -88.5 -22.5t-66 -57t-41 -68.5t-22.5 -66zM276 43q75 0 111.5 29.5t51.5 106.5q14 71 -13 97.5t-116 26.5h-179q-6 -31 -7.5 -63t5.5 -68.5t23 -64t47.5 -46t76.5 -18.5z" />
    <glyph glyph-name="uni0433" unicode="&#x433;" 
d="M219 -14q-95 0 -143 48t-32 127q11 53 55.5 91t101.5 59.5t113.5 39.5t98.5 43.5t50 59.5q12 55 -20.5 88t-97.5 33q-56 0 -99.5 -37.5t-58.5 -98.5l-60 15q20 80 80 129t138 49q100 0 149 -52.5t29 -138.5q-12 -50 -56.5 -84.5t-101 -53.5t-112.5 -37t-98.5 -47
t-50.5 -71q-10 -47 22 -76t93 -29q68 0 120 39.5t70 103.5l62 -9q-22 -86 -91 -138.5t-161 -52.5z" />
    <glyph glyph-name="uni0434" unicode="&#x434;" 
d="M237 778q59 36 181 36q102 0 149 -74.5t21 -196.5l-64 -300q-25 -116 -105.5 -186.5t-187.5 -70.5q-129 0 -165.5 54t-6.5 197q25 117 105.5 189t186.5 72q66 0 99 -15t53 -54l21 109q21 98 -14 158.5t-114 60.5q-96 0 -134 -28zM254 43q74 0 131 53t76 140
q25 117 -3.5 160.5t-128.5 43.5q-74 0 -130.5 -53t-75.5 -140q-25 -116 3.5 -160t127.5 -44z" />
    <glyph glyph-name="uni0435" unicode="&#x435;" 
d="M262 46q51 0 108.5 25.5t99.5 66.5l30 -51q-49 -46 -116.5 -73.5t-129.5 -27.5q-72 0 -120 51t-48 130v12q-32 -12 -46 -26l-28 50q17 21 78 41q17 174 101.5 281t209.5 107q136 0 136 -132q0 -31 -8.5 -58.5t-19.5 -49t-34 -43t-39.5 -35t-49.5 -30t-50.5 -24.5
t-56.5 -21l-52.5 -17.5t-52.5 -15.5q-18 -5 -27 -8q-1 -11 -1 -33q0 -52 34 -85.5t82 -33.5zM398 575q-93 0 -160 -85.5t-86 -227.5q147 41 203 70q122 62 122 165q0 37 -23 57.5t-56 20.5z" />
    <glyph glyph-name="uni0436" unicode="&#x436;" 
d="M650 618q-194 -183 -222 -309q-15 -68 8.5 -138.5t78.5 -170.5h-72q-91 163 -81 279h-36l-61 -279h-62l60 279h-34q-42 -129 -201 -279h-78q191 177 225 309q26 127 -89 309h73q94 -151 82 -281h35l61 281h63l-61 -281h34q41 130 201 281h76z" />
    <glyph glyph-name="uni0437" unicode="&#x437;" 
d="M237 -14q-130 0 -173 34.5t-24 122.5l61 -5q-12 -55 17 -75t120 -20q94 0 136.5 25t56.5 88q14 68 -10 95.5t-104 32.5h-78l12 58h73q83 5 121.5 34t52.5 97q12 59 -16.5 80.5t-119.5 21.5q-94 0 -135.5 -21t-53.5 -74l-60 5q18 85 71 116t179 31q130 0 172.5 -37
t22.5 -132q-13 -60 -39.5 -92t-85.5 -60q46 -27 58.5 -62.5t-1.5 -102.5q-19 -92 -73 -126t-180 -34z" />
    <glyph glyph-name="uni0438" unicode="&#x438;" 
d="M72 549l-28 47q31 36 96 36q34 0 54.5 -17t20.5 -45q2 -95 -80 -355q-55 -172 69 -172q65 0 136.5 96t91.5 189l61 290h63l-113 -527q-2 -17 -2 -20q0 -13 9 -20.5t23 -7.5q23 0 48 25l28 -46q-31 -36 -96 -36q-37 0 -60.5 27t-12.5 69l16 69q-96 -165 -195 -165
q-203 0 -126 235q79 249 78 325q-2 29 -33 29q-25 0 -48 -26z" />
    <glyph glyph-name="uni0439" unicode="&#x439;" 
d="M383 679q-76 0 -100.5 29t-7.5 100l72 -5q-25 -41 -18.5 -53.5t56.5 -12.5q55 0 71 15t9 56l71 -5q-14 -71 -46.5 -97.5t-106.5 -26.5zM72 549l-28 47q31 36 96 36q34 0 54.5 -17t20.5 -45q2 -95 -80 -355q-55 -172 69 -172q65 0 136.5 96t91.5 189l61 290h63l-113 -527
q-2 -17 -2 -20q0 -13 9 -20.5t23 -7.5q23 0 48 25l28 -46q-31 -36 -96 -36q-37 0 -60.5 27t-12.5 69l16 69q-96 -165 -195 -165q-203 0 -126 235q79 249 78 325q-2 29 -33 29q-25 0 -48 -26z" />
    <glyph glyph-name="uni043A" unicode="&#x43a;" 
d="M627 617q-57 -32 -106 -82t-77.5 -91t-71 -79.5t-92.5 -52.5l212 -312h-74l-206 302h-74l-65 -302h-62l132 618h62l-55 -258h52q48 2 85 19.5t64.5 46.5t51 60.5t58 69t74.5 63.5z" />
    <glyph glyph-name="uni043B" unicode="&#x43b;" 
d="M309 618h299l-132 -618h-62l120 561h-210q-23 -82 -37.5 -133.5t-32.5 -110t-30 -91.5t-27.5 -70.5t-27.5 -56.5t-28.5 -40t-31 -29.5t-35 -17t-41.5 -10.5t-48 -2l7 57q31 0 52 6.5t43.5 30.5t40 58.5t42 102.5t49 151t60.5 214z" />
    <glyph glyph-name="uni043C" unicode="&#x43c;" 
d="M-12 0l146 618h60l94 -358l247 358h63l-118 -618h-62l88 460l-207 -295h-58l-80 295l-111 -460h-62z" />
    <glyph glyph-name="uni043D" unicode="&#x43d;" 
d="M526 618h62l-132 -618h-62l65 303h-320l-65 -303h-62l132 618h62l-55 -257h320z" />
    <glyph glyph-name="uni043E" unicode="&#x43e;" 
d="M236 -14q-127 0 -160.5 72t5.5 255q29 142 107 230.5t176 88.5q127 0 161 -72t-6 -255q-30 -143 -107.5 -231t-175.5 -88zM239 43q74 0 135.5 75t86.5 195q31 151 10 206.5t-110 55.5q-73 0 -134.5 -75t-87.5 -195q-32 -151 -10.5 -206.5t110.5 -55.5z" />
    <glyph glyph-name="uni043F" unicode="&#x43f;" 
d="M520 69l28 -47q-31 -36 -96 -36q-34 0 -54 17t-21 45q0 102 81 355q55 172 -60 172q-65 0 -142 -97t-96 -188l-61 -290h-62l113 527q2 14 2 20q-2 28 -33 28q-22 0 -47 -25l-28 46q31 36 95 36q38 0 61 -27t12 -69l-16 -69q45 76 99 120.5t106 44.5q92 0 123 -57t-6 -178
q-80 -244 -78 -325q0 -13 9 -21t24 -8q26 0 47 26z" />
    <glyph glyph-name="uni0440" unicode="&#x440;" 
d="M390 632q125 0 155 -71t-10 -256q-30 -144 -103.5 -231.5t-169.5 -87.5q-128 0 -141 50l-48 -218h-62l100 469q2 11 6 26q2 14 5 21l40 193q2 16 2 20q0 13 -9 20.5t-23 7.5q-25 0 -48 -26l-28 47q31 36 96 36q81 0 72 -84q22 39 69.5 61.5t96.5 22.5zM477 313
q23 99 22 157.5t-26.5 81.5t-85.5 23q-78 0 -127.5 -52.5t-77.5 -187.5l-16 -83q-15 -74 -18 -115t11.5 -62.5t36.5 -26.5t69 -5q72 0 128.5 73.5t83.5 196.5z" />
    <glyph glyph-name="uni0441" unicode="&#x441;" 
d="M429 129l47 -35q-53 -63 -104.5 -85.5t-141.5 -22.5q-126 0 -160.5 70.5t5.5 256.5q30 138 119 228.5t188 90.5q76 0 115 -24t68 -87l-55 -27q-23 47 -50.5 64t-80.5 17q-76 0 -148 -76.5t-98 -193.5q-31 -151 -9 -206.5t109 -55.5q71 0 110 17.5t86 68.5z" />
    <glyph glyph-name="uni0442" unicode="&#x442;" 
d="M490 -14q-34 0 -54 17t-21 45q0 88 82 355q28 94 26.5 133t-33.5 39q-40 0 -65 -20.5t-47 -80.5t-47 -179l-61 -295h-62l85 402q24 117 22 141q-3 32 -36 32q-37 0 -59 -20t-42.5 -79t-46.5 -183l-63 -293h-61l113 527q2 14 2 20q-2 28 -30 28q-25 0 -50 -25l-28 46
q31 36 96 36q68 0 64 -78q45 78 108 78q29 0 46.5 -7.5t24.5 -22.5t9 -27t2 -33v-4v-4q56 98 129 98q71 0 87 -56.5t-24 -178.5q-80 -237 -78 -325q0 -29 33 -29q26 0 47 26l28 -47q-31 -36 -96 -36z" />
    <glyph glyph-name="uni0443" unicode="&#x443;" 
d="M115 -206q-50 0 -81 20.5t-30 53.5q0 57 99.5 90t270.5 34q19 34 36 106q-14 -27 -56.5 -39.5t-88.5 -12.5q-79 0 -121 56t-21 123q74 230 76 321q-2 29 -33 29q-25 0 -48 -26l-28 47q31 36 96 36q33 0 53 -17t20 -45q2 -98 -76 -346q-16 -54 8.5 -87.5t75.5 -33.5
q71 0 112 24.5t56 97.5l82 393h61q-39 -185 -54.5 -260t-37 -172t-32.5 -137t-20 -58q49 0 90 12l-16 -58q-34 -10 -99 -10q-40 -64 -120.5 -102.5t-173.5 -38.5zM129 -149q58 0 114 22.5t93 60.5q-118 -4 -194.5 -22t-76.5 -41q0 -8 18.5 -14t45.5 -6z" />
    <glyph glyph-name="uni0444" unicode="&#x444;" 
d="M584 814q41 0 62 -12t32 -41l-43 -39q-10 22 -21.5 28.5t-39.5 6.5q-39 0 -68 -34.5t-62 -121.5l-44 -114q27 11 52 11q71 0 100.5 -67.5t5.5 -176.5q-23 -105 -82 -169.5t-132 -64.5q-71 0 -91 85l-39 -103q-43 -113 -86 -155.5t-112 -42.5q-41 0 -62 12t-32 41l43 39
q10 -22 21.5 -28.5t39.5 -6.5q39 0 68 34.5t62 121.5l51 133q-37 -20 -76 -20q-62 0 -85.5 67.5t-0.5 176.5q23 105 76 169.5t118 64.5q85 0 109 -91l38 99q47 113 89.5 155.5t108.5 42.5zM105 364q-16 -80 -9 -128t36 -48q51 0 93.5 51t59.5 135q16 80 3.5 128t-50.5 48
q-42 0 -79 -51t-54 -135zM498 264q16 80 3.5 128t-50.5 48q-42 0 -79 -51t-54 -135q-16 -80 -9 -128t36 -48q51 0 93.5 51t59.5 135z" />
    <glyph glyph-name="uni0445" unicode="&#x445;" 
d="M587 618q-20 -51 -63 -110t-81.5 -100.5t-103.5 -107.5l120 -300h-70l-100 250q-157 -159 -208 -250h-70q26 48 74 106.5t80 91.5t103 104l-127 316h70l107 -266q158 163 200 266h69z" />
    <glyph glyph-name="uni0446" unicode="&#x446;" 
d="M473 43q23 0 48 25l28 -46q-18 -21 -57 -31q0 -60 -63 -101q-53 -35 -93 -22l-1 60q35 -12 61 10q33 25 31 52q-27 9 -41.5 33.5t-5.5 58.5l16 69q-96 -165 -195 -165q-203 0 -126 235q79 249 78 325q-2 29 -33 29q-25 0 -48 -26l-28 47q31 36 96 36q34 0 54.5 -17
t20.5 -45q2 -95 -80 -355q-55 -172 69 -172q65 0 136.5 96t91.5 189l61 290h63l-113 -527q-2 -17 -2 -20q0 -13 9 -20.5t23 -7.5z" />
    <glyph glyph-name="uni0447" unicode="&#x447;" 
d="M443 -14q-37 0 -60.5 18.5t-17.5 46.5l60 273q-42 -73 -93.5 -117.5t-97.5 -44.5q-95 0 -120.5 55.5t12.5 173.5q5 16 14 41.5t14 40t9 35t4 39.5q0 28 -31 28q-25 0 -46 -26l-31 48q14 15 40.5 25t54.5 10q35 0 56 -17.5t21 -46.5q0 -54 -43 -185q-30 -93 -20 -128
t67 -35q60 0 135.5 98t94.5 190l23 110h62l-119 -549q-2 -11 7 -18.5t23 -7.5q25 0 46 26l31 -48q-32 -35 -95 -35z" />
    <glyph glyph-name="uni0448" unicode="&#x448;" 
d="M110 632q34 0 54 -17t21 -45q0 -88 -82 -355q-28 -94 -26.5 -133t33.5 -39q40 0 65 20.5t47 80.5t47 179l61 295h62l-85 -402q-24 -117 -22 -141q3 -32 36 -32q37 0 59 20t42.5 79t46.5 183l63 293h61l-113 -527q-2 -14 -2 -20q2 -28 30 -28q25 0 50 25l28 -46
q-31 -36 -96 -36q-68 0 -64 78q-45 -78 -108 -78q-29 0 -46.5 7.5t-24.5 22.5t-9 27t-2 33v8q-56 -98 -129 -98q-71 0 -87 56.5t24 178.5q80 237 78 325q0 29 -33 29q-26 0 -47 -26l-28 47q31 36 96 36z" />
    <glyph glyph-name="uni0449" unicode="&#x449;" 
d="M508 43q25 0 50 25l28 -46q-14 -17 -44 -27q3 -61 -63 -105q-53 -35 -93 -22l-1 60q35 -12 61 10q31 25 31 49q-55 7 -51 77q-45 -78 -108 -78q-29 0 -46.5 7.5t-24.5 22.5t-9 27t-2 33v8q-56 -98 -129 -98q-71 0 -87 56.5t24 178.5q80 237 78 325q0 29 -33 29
q-26 0 -47 -26l-28 47q31 36 96 36q34 0 54 -17t21 -45q0 -88 -82 -355q-28 -94 -26.5 -133t33.5 -39q40 0 65 20.5t47 80.5t47 179l61 295h62l-85 -402q-24 -117 -22 -141q3 -32 36 -32q37 0 59 20t42.5 79t46.5 183l63 293h61l-113 -527q-2 -14 -2 -20q2 -28 30 -28z" />
    <glyph glyph-name="uni044A" unicode="&#x44a;" 
d="M357 392q126 0 165.5 -43.5t15.5 -157.5q-23 -110 -78 -150.5t-181 -40.5h-223l120 561h-101l13 57h162l-12 -57l-36 -169h155zM478 201q16 78 -10.5 106t-116.5 28h-161l-58 -278h154q91 0 133 31.5t59 112.5z" />
    <glyph glyph-name="uni044B" unicode="&#x44b;" 
d="M240 392q113 0 148 -43.5t11 -157.5q-23 -110 -73.5 -150.5t-163.5 -40.5h-181l132 618h62l-48 -226h113zM557 618h62l-132 -618h-62zM339 201q16 78 -6 106t-99 28h-119l-59 -278h113q78 0 115.5 31.5t54.5 112.5z" />
    <glyph glyph-name="uni044C" unicode="&#x44c;" 
d="M335 392q126 0 165.5 -43.5t15.5 -157.5q-23 -110 -78 -150.5t-181 -40.5h-223l132 618h62l-48 -226h155zM456 201q16 78 -10.5 106t-116.5 28h-161l-59 -278h155q90 0 132.5 31.5t59.5 112.5z" />
    <glyph glyph-name="uni044D" unicode="&#x44d;" 
d="M363 632q139 0 179 -62t5 -223l-17 -80q-34 -161 -96.5 -221t-196.5 -60q-98 0 -139.5 28.5t-50.5 100.5l66 -5q10 -39 37 -53t88 -14q103 0 153.5 50t77.5 178l2 9h-245l12 58h245l3 13q27 129 1 176.5t-125 47.5q-65 0 -101 -16t-63 -56l-68 5q39 72 88.5 98t144.5 26z
" />
    <glyph glyph-name="uni044E" unicode="&#x44e;" 
d="M450 632q115 0 145.5 -62t-3.5 -223l-17 -80q-34 -161 -87.5 -221t-163.5 -60q-115 0 -145.5 62t3.5 223l2 9h-99l-60 -280h-62l132 618h62l-60 -280h99l3 13q34 161 87.5 221t163.5 60zM531 351q27 129 10 176.5t-92 47.5q-79 0 -120 -50t-69 -178l-17 -80
q-27 -129 -10 -176.5t92 -47.5q79 0 120 50t69 178z" />
    <glyph glyph-name="uni044F" unicode="&#x44f;" 
d="M351 618h223l-132 -618h-62l56 262h-101l-279 -262h-79l278 262q-110 4 -145 44.5t-14 138.5q21 100 75.5 136.5t179.5 36.5zM288 319h160l52 242h-156q-90 0 -131.5 -27.5t-56.5 -98.5q-14 -67 13.5 -91.5t118.5 -24.5z" />
    <glyph glyph-name="uni0451" unicode="&#x451;" 
d="M286 726q-36 0 -48 14t-5 48q6 29 20 40t46 11q36 0 48.5 -14t5.5 -47q-7 -30 -21 -41t-46 -11zM515 839q36 0 48.5 -14t5.5 -47q-7 -30 -21 -41t-46 -11q-36 0 -48 14t-5 48q6 29 20 40t46 11zM537 500q0 -31 -8.5 -58.5t-19.5 -49t-34 -43t-39.5 -35t-49.5 -30
t-50.5 -24.5t-56.5 -21l-52.5 -17.5t-52.5 -15.5q-18 -5 -27 -8q-1 -11 -1 -33q0 -52 34 -85.5t82 -33.5q51 0 108.5 25.5t99.5 66.5l30 -51q-49 -46 -116.5 -73.5t-129.5 -27.5q-72 0 -120 51t-48 130v12q-32 -12 -46 -26l-28 50q17 21 78 41q17 174 101.5 281t209.5 107
q136 0 136 -132zM398 575q-93 0 -160 -85.5t-86 -227.5q147 41 203 70q122 62 122 165q0 37 -23 57.5t-56 20.5z" />
    <glyph glyph-name="Wgrave" unicode="&#x1e80;" 
d="M431 868l-120 126l49 43l119 -125zM72 0l61 800h62l-53 -652l177 394h60l9 -394l225 652h64l-279 -800h-61l-12 420l-191 -420h-62z" />
    <glyph glyph-name="wgrave" unicode="&#x1e81;" 
d="M440 727l-48 -44l-120 126l49 43zM570 618h63q-21 -93 -60 -195t-94.5 -226.5t-82.5 -196.5h-60l-29 295q-26 -52 -87 -150t-85 -145h-60l23 618h62l-21 -507q7 11 27 43.5t28.5 46.5t25 42.5t25 46.5t19.5 43t18 47t11 44h61l30 -304q10 25 50.5 118.5t57 135t41 113
t37.5 131.5z" />
    <glyph glyph-name="Wacute" unicode="&#x1e82;" 
d="M410 868l-33 44l168 125l33 -43zM72 0l61 800h62l-53 -652l177 394h60l9 -394l225 652h64l-279 -800h-61l-12 420l-191 -420h-62z" />
    <glyph glyph-name="wacute" unicode="&#x1e83;" 
d="M539 809l-168 -126l-33 44l168 125zM570 618h63q-21 -93 -60 -195t-94.5 -226.5t-82.5 -196.5h-60l-29 295q-26 -52 -87 -150t-85 -145h-60l23 618h62l-21 -507q7 11 27 43.5t28.5 46.5t25 42.5t25 46.5t19.5 43t18 47t11 44h61l30 -304q10 25 50.5 118.5t57 135t41 113
t37.5 131.5z" />
    <glyph glyph-name="Wdieresis" unicode="&#x1e84;" 
d="M325 911q-36 0 -48 14t-5 48q6 29 20 40t46 11q36 0 48.5 -14t5.5 -47q-7 -30 -21 -41t-46 -11zM541 911q-36 0 -48 14t-5 48q6 29 20 40t46 11q36 0 48.5 -14t5.5 -47q-7 -30 -21 -41t-46 -11zM72 0l61 800h62l-53 -652l177 394h60l9 -394l225 652h64l-279 -800h-61
l-12 420l-191 -420h-62z" />
    <glyph glyph-name="wdieresis" unicode="&#x1e85;" 
d="M286 726q-36 0 -48 14t-5 48q6 29 20 40t46 11q36 0 48.5 -14t5.5 -47q-7 -30 -21 -41t-46 -11zM502 726q-36 0 -48 14t-5 48q6 29 20 40t46 11q36 0 48.5 -14t5.5 -47q-7 -30 -21 -41t-46 -11zM570 618h63q-21 -93 -60 -195t-94.5 -226.5t-82.5 -196.5h-60l-29 295
q-26 -52 -87 -150t-85 -145h-60l23 618h62l-21 -507q7 11 27 43.5t28.5 46.5t25 42.5t25 46.5t19.5 43t18 47t11 44h61l30 -304q10 25 50.5 118.5t57 135t41 113t37.5 131.5z" />
    <glyph glyph-name="uni1E9E" unicode="&#x1e9e;" 
d="M418 472q108 -4 139.5 -59.5t3.5 -188.5q-30 -140 -84.5 -189t-175.5 -49q-108 0 -142 34.5t-15 122.5l61 -5q-12 -55 8.5 -75t88.5 -20q91 0 133 39.5t66 151.5q22 104 -1.5 142.5t-110.5 38.5h-92l274 328h-206q-82 0 -143.5 -50.5t-78.5 -131.5l-119 -561h-62l120 566
q23 110 101 172t194 62h313z" />
    <glyph glyph-name="uni1EA0" unicode="&#x1ea0;" 
d="M490 0h-63l-13 210h-269l-102 -210h-65l392 800h68zM173 268h238l-27 434zM209 -101q43 0 57 -16.5t5 -56.5q-7 -37 -24.5 -50.5t-56.5 -13.5q-43 0 -57 16.5t-6 57.5q8 36 25.5 49.5t56.5 13.5z" />
    <glyph glyph-name="uni1EA1" unicode="&#x1ea1;" 
d="M499 69l28 -47q-31 -36 -96 -36q-33 0 -53 16.5t-21 43.5q0 37 6 52q-29 -51 -73 -81.5t-90 -30.5q-78 0 -125.5 49t-46.5 128q0 102 51 212.5t130 183.5t154 73q149 0 149 -91q1 -18 -90 -440q-6 -27 -0.5 -42.5t29.5 -15.5q25 0 48 26zM202 43q57 0 111 59.5t84 154.5
q54 257 55 277q-1 24 -21 32.5t-70 8.5q-56 0 -120.5 -65.5t-108.5 -162.5t-44 -181q1 -56 32 -89.5t82 -33.5zM190 -235q-43 0 -57 16.5t-6 57.5q8 36 25.5 49.5t56.5 13.5q43 0 57 -16.5t5 -56.5q-7 -37 -24.5 -50.5t-56.5 -13.5z" />
    <glyph glyph-name="uni1EA2" unicode="&#x1ea2;" 
d="M444 1032q43 0 67 -25.5t15 -64.5q-7 -35 -41.5 -62.5t-89.5 -39.5l-9 56q71 15 80 53q2 12 -5 19t-19 7q-43 0 -100 -43l11 71q43 29 91 29zM370 800h68l52 -800h-63l-13 210h-269l-102 -210h-65zM173 268h238l-27 434z" />
    <glyph glyph-name="uni1EA3" unicode="&#x1ea3;" 
d="M356 655l-9 56q71 15 80 53q2 12 -5 19t-19 7q-43 0 -100 -43l11 71q43 29 91 29q43 0 67 -25.5t15 -64.5q-7 -35 -41.5 -62.5t-89.5 -39.5zM499 69l28 -47q-31 -36 -96 -36q-33 0 -53 16.5t-21 43.5q0 37 6 52q-29 -51 -73 -81.5t-90 -30.5q-78 0 -125.5 49t-46.5 128
q0 102 51 212.5t130 183.5t154 73q149 0 149 -91q1 -18 -90 -440q-6 -27 -0.5 -42.5t29.5 -15.5q25 0 48 26zM202 43q57 0 111 59.5t84 154.5q54 257 55 277q-1 24 -21 32.5t-70 8.5q-56 0 -120.5 -65.5t-108.5 -162.5t-44 -181q1 -56 32 -89.5t82 -33.5z" />
    <glyph glyph-name="uni1EA4" unicode="&#x1ea4;" 
d="M684 1070l33 -44l-155 -115l-34 43zM281 873l164 123l113 -125l-54 -37l-73 83l-109 -81zM370 800h68l52 -800h-63l-13 210h-269l-102 -210h-65zM173 268h238l-27 434z" />
    <glyph glyph-name="uni1EA5" unicode="&#x1ea5;" 
d="M414 888l-33 44l168 125l33 -43zM471 678l-73 82l-109 -80l-41 37l163 123l114 -125zM499 69l28 -47q-31 -36 -96 -36q-33 0 -53 16.5t-21 43.5q0 37 6 52q-29 -51 -73 -81.5t-90 -30.5q-78 0 -125.5 49t-46.5 128q0 102 51 212.5t130 183.5t154 73q149 0 149 -91
q1 -18 -90 -440q-6 -27 -0.5 -42.5t29.5 -15.5q25 0 48 26zM202 43q57 0 111 59.5t84 154.5q54 257 55 277q-1 24 -21 32.5t-70 8.5q-56 0 -120.5 -65.5t-108.5 -162.5t-44 -181q1 -56 32 -89.5t82 -33.5z" />
    <glyph glyph-name="uni1EA6" unicode="&#x1ea6;" 
d="M539 1048l110 -115l-49 -43l-109 115zM281 873l164 123l113 -125l-54 -37l-73 83l-109 -81zM370 800h68l52 -800h-63l-13 210h-269l-102 -210h-65zM173 268h238l-27 434z" />
    <glyph glyph-name="uni1EA7" unicode="&#x1ea7;" 
d="M435 888l-120 126l49 43l119 -125zM471 678l-73 82l-109 -80l-41 37l163 123l114 -125zM499 69l28 -47q-31 -36 -96 -36q-33 0 -53 16.5t-21 43.5q0 37 6 52q-29 -51 -73 -81.5t-90 -30.5q-78 0 -125.5 49t-46.5 128q0 102 51 212.5t130 183.5t154 73q149 0 149 -91
q1 -18 -90 -440q-6 -27 -0.5 -42.5t29.5 -15.5q25 0 48 26zM202 43q57 0 111 59.5t84 154.5q54 257 55 277q-1 24 -21 32.5t-70 8.5q-56 0 -120.5 -65.5t-108.5 -162.5t-44 -181q1 -56 32 -89.5t82 -33.5z" />
    <glyph glyph-name="uni1EA8" unicode="&#x1ea8;" 
d="M638 1070q43 0 67 -25.5t15 -65.5q-7 -35 -41.5 -62.5t-88.5 -38.5l-9 56q70 15 79 53q2 11 -5 18.5t-19 7.5q-40 0 -100 -43l12 71q42 29 90 29zM281 873l164 123l113 -125l-54 -37l-73 83l-109 -81zM370 800h68l52 -800h-63l-13 210h-269l-102 -210h-65zM173 268h238
l-27 434z" />
    <glyph glyph-name="uni1EA9" unicode="&#x1ea9;" 
d="M399 860l-9 56q71 15 80 53q2 12 -5 19t-19 7q-43 0 -100 -43l11 71q43 29 91 29q43 0 67 -25.5t15 -64.5q-7 -35 -41.5 -62.5t-89.5 -39.5zM471 678l-73 82l-109 -80l-41 37l163 123l114 -125zM499 69l28 -47q-31 -36 -96 -36q-33 0 -53 16.5t-21 43.5q0 37 6 52
q-29 -51 -73 -81.5t-90 -30.5q-78 0 -125.5 49t-46.5 128q0 102 51 212.5t130 183.5t154 73q149 0 149 -91q1 -18 -90 -440q-6 -27 -0.5 -42.5t29.5 -15.5q25 0 48 26zM202 43q57 0 111 59.5t84 154.5q54 257 55 277q-1 24 -21 32.5t-70 8.5q-56 0 -120.5 -65.5
t-108.5 -162.5t-44 -181q1 -56 32 -89.5t82 -33.5z" />
    <glyph glyph-name="uni1EAA" unicode="&#x1eaa;" 
d="M767 1021l61 -5q-8 -46 -36.5 -74t-66.5 -28q-21 0 -39.5 12t-29.5 26.5t-24.5 26.5t-24.5 12q-32 0 -41 -54l-61 5q9 48 37 77t67 29q26 0 47.5 -19.5t38.5 -38.5t32 -19q33 0 40 50zM281 873l164 123l113 -125l-54 -37l-73 83l-109 -81zM370 800h68l52 -800h-63
l-13 210h-269l-102 -210h-65zM173 268h238l-27 434z" />
    <glyph glyph-name="uni1EAB" unicode="&#x1eab;" 
d="M498 903q-26 0 -48.5 19.5t-39.5 38.5t-30 19q-32 0 -41 -54l-61 5q9 48 37 77t67 29q26 0 47.5 -19.5t38.5 -38.5t32 -19q33 0 40 50l61 -5q-8 -46 -36.5 -74t-66.5 -28zM471 678l-73 82l-109 -80l-41 37l163 123l114 -125zM499 69l28 -47q-31 -36 -96 -36
q-33 0 -53 16.5t-21 43.5q0 37 6 52q-29 -51 -73 -81.5t-90 -30.5q-78 0 -125.5 49t-46.5 128q0 102 51 212.5t130 183.5t154 73q149 0 149 -91q1 -18 -90 -440q-6 -27 -0.5 -42.5t29.5 -15.5q25 0 48 26zM202 43q57 0 111 59.5t84 154.5q54 257 55 277q-1 24 -21 32.5
t-70 8.5q-56 0 -120.5 -65.5t-108.5 -162.5t-44 -181q1 -56 32 -89.5t82 -33.5z" />
    <glyph glyph-name="uni1EAC" unicode="&#x1eac;" 
d="M450 1025l114 -125l-54 -37l-73 82l-109 -80l-41 37zM370 800h68l52 -800h-63l-13 210h-269l-102 -210h-65zM173 268h238l-27 434zM209 -101q43 0 57 -16.5t5 -56.5q-7 -37 -24.5 -50.5t-56.5 -13.5q-43 0 -57 16.5t-6 57.5q8 36 25.5 49.5t56.5 13.5z" />
    <glyph glyph-name="uni1EAD" unicode="&#x1ead;" 
d="M471 678l-73 82l-109 -80l-41 37l163 123l114 -125zM499 69l28 -47q-31 -36 -96 -36q-33 0 -53 16.5t-21 43.5q0 37 6 52q-29 -51 -73 -81.5t-90 -30.5q-78 0 -125.5 49t-46.5 128q0 102 51 212.5t130 183.5t154 73q149 0 149 -91q1 -18 -90 -440q-6 -27 -0.5 -42.5
t29.5 -15.5q25 0 48 26zM202 43q57 0 111 59.5t84 154.5q54 257 55 277q-1 24 -21 32.5t-70 8.5q-56 0 -120.5 -65.5t-108.5 -162.5t-44 -181q1 -56 32 -89.5t82 -33.5zM190 -235q-43 0 -57 16.5t-6 57.5q8 36 25.5 49.5t56.5 13.5q43 0 57 -16.5t5 -56.5
q-7 -37 -24.5 -50.5t-56.5 -13.5z" />
    <glyph glyph-name="uni1EAE" unicode="&#x1eae;" 
d="M579 1041l-155 -115l-33 43l155 116zM416 886q43 0 62 14.5t27 50.5l61 -5q-13 -69 -45 -93t-107 -24q-77 0 -101 26.5t-8 95.5l61 -5q-8 -36 1.5 -48t48.5 -12zM370 800h68l52 -800h-63l-13 210h-269l-102 -210h-65zM173 268h238l-27 434z" />
    <glyph glyph-name="uni1EAF" unicode="&#x1eaf;" 
d="M410 871l-33 43l168 126l33 -44zM383 679q-76 0 -100 29t-7 100l61 -5q-10 -41 -0.5 -53.5t48.5 -12.5q44 0 63 15t27 56l61 -5q-14 -71 -46.5 -97.5t-106.5 -26.5zM499 69l28 -47q-31 -36 -96 -36q-33 0 -53 16.5t-21 43.5q0 37 6 52q-29 -51 -73 -81.5t-90 -30.5
q-78 0 -125.5 49t-46.5 128q0 102 51 212.5t130 183.5t154 73q149 0 149 -91q1 -18 -90 -440q-6 -27 -0.5 -42.5t29.5 -15.5q25 0 48 26zM202 43q57 0 111 59.5t84 154.5q54 257 55 277q-1 24 -21 32.5t-70 8.5q-56 0 -120.5 -65.5t-108.5 -162.5t-44 -181q1 -56 32 -89.5
t82 -33.5z" />
    <glyph glyph-name="uni1EB0" unicode="&#x1eb0;" 
d="M489 969l-49 -43l-109 115l48 44zM505 951l61 -5q-13 -69 -45 -93t-107 -24q-77 0 -101 26.5t-8 95.5l61 -5q-8 -36 1.5 -48t48.5 -12q43 0 62 14.5t27 50.5zM370 800h68l52 -800h-63l-13 210h-269l-102 -210h-65zM173 268h238l-27 434z" />
    <glyph glyph-name="uni1EB1" unicode="&#x1eb1;" 
d="M431 871l-119 125l48 44l120 -126zM383 679q-76 0 -100 29t-7 100l61 -5q-10 -41 -0.5 -53.5t48.5 -12.5q44 0 63 15t27 56l61 -5q-14 -71 -46.5 -97.5t-106.5 -26.5zM499 69l28 -47q-31 -36 -96 -36q-33 0 -53 16.5t-21 43.5q0 37 6 52q-29 -51 -73 -81.5t-90 -30.5
q-78 0 -125.5 49t-46.5 128q0 102 51 212.5t130 183.5t154 73q149 0 149 -91q1 -18 -90 -440q-6 -27 -0.5 -42.5t29.5 -15.5q25 0 48 26zM202 43q57 0 111 59.5t84 154.5q54 257 55 277q-1 24 -21 32.5t-70 8.5q-56 0 -120.5 -65.5t-108.5 -162.5t-44 -181q1 -56 32 -89.5
t82 -33.5z" />
    <glyph glyph-name="uni1EB2" unicode="&#x1eb2;" 
d="M638 1070q43 0 67 -25.5t15 -65.5q-7 -35 -41.5 -62.5t-88.5 -38.5l-9 56q70 15 79 53q2 11 -5 18.5t-19 7.5q-40 0 -100 -43l12 71q42 29 90 29zM416 886q43 0 62 14.5t27 50.5l61 -5q-13 -70 -45 -93.5t-107 -23.5q-77 0 -101 26.5t-8 95.5l61 -5q-8 -36 1.5 -48
t48.5 -12zM370 800h68l52 -800h-63l-13 210h-269l-102 -210h-65zM173 268h238l-27 434z" />
    <glyph glyph-name="uni1EB3" unicode="&#x1eb3;" 
d="M396 843l-9 56q70 15 79 53q2 12 -5 19t-19 7q-40 0 -100 -43l12 71q42 29 90 29q43 0 67 -25.5t15 -65.5q-7 -35 -41.5 -62.5t-88.5 -38.5zM383 679q-76 0 -100 29t-7 100l61 -5q-10 -41 -0.5 -53.5t48.5 -12.5q44 0 63 15t27 56l61 -5q-14 -71 -46.5 -97.5
t-106.5 -26.5zM499 69l28 -47q-31 -36 -96 -36q-33 0 -53 16.5t-21 43.5q0 37 6 52q-29 -51 -73 -81.5t-90 -30.5q-78 0 -125.5 49t-46.5 128q0 102 51 212.5t130 183.5t154 73q149 0 149 -91q1 -18 -90 -440q-6 -27 -0.5 -42.5t29.5 -15.5q25 0 48 26zM202 43
q57 0 111 59.5t84 154.5q54 257 55 277q-1 24 -21 32.5t-70 8.5q-56 0 -120.5 -65.5t-108.5 -162.5t-44 -181q1 -56 32 -89.5t82 -33.5z" />
    <glyph glyph-name="uni1EB4" unicode="&#x1eb4;" 
d="M774 1066l61 -5q-7 -46 -35.5 -74.5t-66.5 -28.5q-21 0 -39.5 12t-30 26.5t-24.5 26.5t-24 12q-33 0 -42 -53l-61 5q9 48 37 76.5t67 28.5q26 0 47.5 -19t38.5 -38.5t32 -19.5q33 0 40 51zM416 886q43 0 62 14.5t27 49.5l61 -5q-13 -68 -45 -92t-107 -24q-77 0 -101 26
t-8 95l61 -5q-8 -35 1.5 -47t48.5 -12zM370 800h68l52 -800h-63l-13 210h-269l-102 -210h-65zM173 268h238l-27 434z" />
    <glyph glyph-name="uni1EB5" unicode="&#x1eb5;" 
d="M494 885q-21 0 -39.5 12t-29.5 26.5t-24.5 26.5t-24.5 12q-32 0 -41 -53l-61 5q9 48 37 76.5t67 28.5q21 0 39 -12t29 -26.5t24.5 -26.5t25.5 -12q33 0 40 51l61 -5q-7 -46 -36 -74.5t-67 -28.5zM383 679q-76 0 -100 29t-7 100l61 -5q-10 -41 -0.5 -53.5t48.5 -12.5
q44 0 63 15t27 56l61 -5q-14 -71 -46.5 -97.5t-106.5 -26.5zM499 69l28 -47q-31 -36 -96 -36q-33 0 -53 16.5t-21 43.5q0 37 6 52q-29 -51 -73 -81.5t-90 -30.5q-78 0 -125.5 49t-46.5 128q0 102 51 212.5t130 183.5t154 73q149 0 149 -91q1 -18 -90 -440q-6 -27 -0.5 -42.5
t29.5 -15.5q25 0 48 26zM202 43q57 0 111 59.5t84 154.5q54 257 55 277q-1 24 -21 32.5t-70 8.5q-56 0 -120.5 -65.5t-108.5 -162.5t-44 -181q1 -56 32 -89.5t82 -33.5z" />
    <glyph glyph-name="uni1EB6" unicode="&#x1eb6;" 
d="M514 993l61 -5q-14 -71 -46.5 -97.5t-106.5 -26.5q-76 0 -100 29t-7 100l61 -5q-10 -40 -0.5 -53t48.5 -13q44 0 63 15t27 56zM370 800h68l52 -800h-63l-13 210h-269l-102 -210h-65zM173 268h238l-27 434zM209 -101q43 0 57 -16.5t5 -56.5q-7 -37 -24.5 -50.5
t-56.5 -13.5q-43 0 -57 16.5t-6 57.5q8 36 25.5 49.5t56.5 13.5z" />
    <glyph glyph-name="uni1EB7" unicode="&#x1eb7;" 
d="M383 679q-76 0 -100 29t-7 100l61 -5q-10 -41 -0.5 -53.5t48.5 -12.5q44 0 63 15t27 56l61 -5q-14 -71 -46.5 -97.5t-106.5 -26.5zM499 69l28 -47q-31 -36 -96 -36q-33 0 -53 16.5t-21 43.5q0 37 6 52q-29 -51 -73 -81.5t-90 -30.5q-78 0 -125.5 49t-46.5 128
q0 102 51 212.5t130 183.5t154 73q149 0 149 -91q1 -18 -90 -440q-6 -27 -0.5 -42.5t29.5 -15.5q25 0 48 26zM202 43q57 0 111 59.5t84 154.5q54 257 55 277q-1 24 -21 32.5t-70 8.5q-56 0 -120.5 -65.5t-108.5 -162.5t-44 -181q1 -56 32 -89.5t82 -33.5zM190 -235
q-43 0 -57 16.5t-6 57.5q8 36 25.5 49.5t56.5 13.5q43 0 57 -16.5t5 -56.5q-7 -37 -24.5 -50.5t-56.5 -13.5z" />
    <glyph glyph-name="uni1EB8" unicode="&#x1eb8;" 
d="M625 743h-376l-60 -291h239l-12 -58h-241l-70 -337h373l-12 -57h-436l170 800h436zM223 -101q43 0 57 -16.5t5 -56.5q-7 -37 -24.5 -50.5t-56.5 -13.5q-43 0 -57 16.5t-6 57.5q8 36 25.5 49.5t56.5 13.5z" />
    <glyph glyph-name="uni1EB9" unicode="&#x1eb9;" 
d="M262 46q51 0 108.5 25.5t99.5 66.5l30 -51q-49 -46 -116.5 -73.5t-129.5 -27.5q-72 0 -120 51t-48 130v12q-32 -12 -46 -26l-28 50q17 21 78 41q17 174 101.5 281t209.5 107q136 0 136 -132q0 -31 -8.5 -58.5t-19.5 -49t-34 -43t-39.5 -35t-49.5 -30t-50.5 -24.5
t-56.5 -21l-52.5 -17.5t-52.5 -15.5q-18 -5 -27 -8q-1 -11 -1 -33q0 -52 34 -85.5t82 -33.5zM398 575q-93 0 -160 -85.5t-86 -227.5q147 41 203 70q122 62 122 165q0 37 -23 57.5t-56 20.5zM209 -98q43 0 57 -16.5t5 -56.5q-7 -37 -24.5 -50.5t-56.5 -13.5q-43 0 -57 16.5
t-6 57.5q8 36 25.5 49.5t56.5 13.5z" />
    <glyph glyph-name="uni1EBA" unicode="&#x1eba;" 
d="M480 949q2 12 -5 19t-19 7q-43 0 -100 -43l11 71q43 29 91 29q43 0 67 -25.5t15 -64.5q-7 -35 -41.5 -62.5t-89.5 -39.5l-9 56q71 15 80 53zM625 743h-376l-60 -291h239l-12 -58h-241l-70 -337h373l-12 -57h-436l170 800h436z" />
    <glyph glyph-name="uni1EBB" unicode="&#x1ebb;" 
d="M427 764q2 12 -5 19t-19 7q-43 0 -100 -43l11 71q43 29 91 29q43 0 67 -25.5t15 -64.5q-7 -35 -41.5 -62.5t-89.5 -39.5l-9 56q71 15 80 53zM262 46q51 0 108.5 25.5t99.5 66.5l30 -51q-49 -46 -116.5 -73.5t-129.5 -27.5q-72 0 -120 51t-48 130v12q-32 -12 -46 -26
l-28 50q17 21 78 41q17 174 101.5 281t209.5 107q136 0 136 -132q0 -31 -8.5 -58.5t-19.5 -49t-34 -43t-39.5 -35t-49.5 -30t-50.5 -24.5t-56.5 -21l-52.5 -17.5t-52.5 -15.5q-18 -5 -27 -8q-1 -11 -1 -33q0 -52 34 -85.5t82 -33.5zM398 575q-93 0 -160 -85.5t-86 -227.5
q147 41 203 70q122 62 122 165q0 37 -23 57.5t-56 20.5z" />
    <glyph glyph-name="uni1EBC" unicode="&#x1ebc;" 
d="M390 960q-32 0 -41 -54l-61 5q9 48 37 77t67 29q26 0 47.5 -19.5t38.5 -38.5t32 -19q33 0 40 50l61 -5q-8 -46 -36.5 -74t-66.5 -28q-26 0 -48.5 19.5t-39.5 38.5t-30 19zM625 743h-376l-60 -291h239l-12 -58h-241l-70 -337h373l-12 -57h-436l170 800h436z" />
    <glyph glyph-name="uni1EBD" unicode="&#x1ebd;" 
d="M337 775q-32 0 -41 -54l-61 5q9 48 37 77t67 29q20 0 38.5 -12t29.5 -26.5t24.5 -26.5t25.5 -12q33 0 40 50l61 -5q-8 -46 -36.5 -74t-66.5 -28q-21 0 -39.5 12t-29.5 26.5t-24.5 26.5t-24.5 12zM537 500q0 -31 -8.5 -58.5t-19.5 -49t-34 -43t-39.5 -35t-49.5 -30
t-50.5 -24.5t-56.5 -21l-52.5 -17.5t-52.5 -15.5q-18 -5 -27 -8q-1 -11 -1 -33q0 -52 34 -85.5t82 -33.5q51 0 108.5 25.5t99.5 66.5l30 -51q-49 -46 -116.5 -73.5t-129.5 -27.5q-72 0 -120 51t-48 130v12q-32 -12 -46 -26l-28 50q17 21 78 41q17 174 101.5 281t209.5 107
q136 0 136 -132zM398 575q-93 0 -160 -85.5t-86 -227.5q147 41 203 70q122 62 122 165q0 37 -23 57.5t-56 20.5z" />
    <glyph glyph-name="uni1EBE" unicode="&#x1ebe;" 
d="M731 1026l-155 -115l-34 43l156 116zM445 917l-109 -81l-41 37l164 123l113 -125l-54 -37zM30 0l170 800h436l-11 -57h-376l-60 -291h239l-12 -58h-241l-70 -337h373l-12 -57h-436z" />
    <glyph glyph-name="uni1EBF" unicode="&#x1ebf;" 
d="M582 1014l-168 -126l-33 44l168 125zM398 760l-109 -80l-41 37l163 123l114 -125l-54 -37zM537 500q0 -31 -8.5 -58.5t-19.5 -49t-34 -43t-39.5 -35t-49.5 -30t-50.5 -24.5t-56.5 -21l-52.5 -17.5t-52.5 -15.5q-18 -5 -27 -8q-1 -11 -1 -33q0 -52 34 -85.5t82 -33.5
q51 0 108.5 25.5t99.5 66.5l30 -51q-49 -46 -116.5 -73.5t-129.5 -27.5q-72 0 -120 51t-48 130v12q-32 -12 -46 -26l-28 50q17 21 78 41q17 174 101.5 281t209.5 107q136 0 136 -132zM398 575q-93 0 -160 -85.5t-86 -227.5q147 41 203 70q122 62 122 165q0 37 -23 57.5
t-56 20.5z" />
    <glyph glyph-name="uni1EC0" unicode="&#x1ec0;" 
d="M663 933l-49 -43l-109 115l48 43zM445 917l-109 -81l-41 37l164 123l113 -125l-54 -37zM30 0l170 800h436l-11 -57h-376l-60 -291h239l-12 -58h-241l-70 -337h373l-12 -57h-436z" />
    <glyph glyph-name="uni1EC1" unicode="&#x1ec1;" 
d="M483 932l-48 -44l-120 126l49 43zM398 760l-109 -80l-41 37l163 123l114 -125l-54 -37zM262 46q51 0 108.5 25.5t99.5 66.5l30 -51q-49 -46 -116.5 -73.5t-129.5 -27.5q-72 0 -120 51t-48 130v12q-32 -12 -46 -26l-28 50q17 21 78 41q17 174 101.5 281t209.5 107
q136 0 136 -132q0 -31 -8.5 -58.5t-19.5 -49t-34 -43t-39.5 -35t-49.5 -30t-50.5 -24.5t-56.5 -21l-52.5 -17.5t-52.5 -15.5q-18 -5 -27 -8q-1 -11 -1 -33q0 -52 34 -85.5t82 -33.5zM398 575q-93 0 -160 -85.5t-86 -227.5q147 41 203 70q122 62 122 165q0 37 -23 57.5
t-56 20.5z" />
    <glyph glyph-name="uni1EC2" unicode="&#x1ec2;" 
d="M652 1070q43 0 67 -25.5t15 -65.5q-7 -35 -41.5 -62.5t-88.5 -38.5l-9 56q70 15 79 53q2 11 -5 18.5t-19 7.5q-40 0 -100 -43l12 71q42 29 90 29zM445 917l-109 -81l-41 37l164 123l113 -125l-54 -37zM30 0l170 800h436l-11 -57h-376l-60 -291h239l-12 -58h-241l-70 -337
h373l-12 -57h-436z" />
    <glyph glyph-name="uni1EC3" unicode="&#x1ec3;" 
d="M470 969q2 12 -5 19t-19 7q-43 0 -100 -43l11 71q43 29 91 29q43 0 67 -25.5t15 -64.5q-7 -35 -41.5 -62.5t-89.5 -39.5l-9 56q71 15 80 53zM398 760l-109 -80l-41 37l163 123l114 -125l-54 -37zM262 46q51 0 108.5 25.5t99.5 66.5l30 -51q-49 -46 -116.5 -73.5
t-129.5 -27.5q-72 0 -120 51t-48 130v12q-32 -12 -46 -26l-28 50q17 21 78 41q17 174 101.5 281t209.5 107q136 0 136 -132q0 -31 -8.5 -58.5t-19.5 -49t-34 -43t-39.5 -35t-49.5 -30t-50.5 -24.5t-56.5 -21l-52.5 -17.5t-52.5 -15.5q-18 -5 -27 -8q-1 -11 -1 -33
q0 -52 34 -85.5t82 -33.5zM398 575q-93 0 -160 -85.5t-86 -227.5q147 41 203 70q122 62 122 165q0 37 -23 57.5t-56 20.5z" />
    <glyph glyph-name="uni1EC4" unicode="&#x1ec4;" 
d="M781 1021l61 -5q-8 -46 -36.5 -74t-66.5 -28q-21 0 -39.5 12t-29.5 26.5t-24.5 26.5t-24.5 12q-32 0 -41 -54l-61 5q9 48 37 77t67 29q26 0 47.5 -19.5t38.5 -38.5t32 -19q33 0 40 50zM445 917l-109 -81l-41 37l164 123l113 -125l-54 -37zM30 0l170 800h436l-11 -57h-376
l-60 -291h239l-12 -58h-241l-70 -337h373l-12 -57h-436z" />
    <glyph glyph-name="uni1EC5" unicode="&#x1ec5;" 
d="M540 1010l61 -5q-8 -46 -36.5 -74t-66.5 -28q-26 0 -48.5 19.5t-39.5 38.5t-30 19q-32 0 -41 -54l-61 5q9 48 37 77t67 29q26 0 47.5 -19.5t38.5 -38.5t32 -19q33 0 40 50zM471 678l-73 82l-109 -80l-41 37l163 123l114 -125zM537 500q0 -31 -8.5 -58.5t-19.5 -49
t-34 -43t-39.5 -35t-49.5 -30t-50.5 -24.5t-56.5 -21l-52.5 -17.5t-52.5 -15.5q-18 -5 -27 -8q-1 -11 -1 -33q0 -52 34 -85.5t82 -33.5q51 0 108.5 25.5t99.5 66.5l30 -51q-49 -46 -116.5 -73.5t-129.5 -27.5q-72 0 -120 51t-48 130v12q-32 -12 -46 -26l-28 50q17 21 78 41
q17 174 101.5 281t209.5 107q136 0 136 -132zM398 575q-93 0 -160 -85.5t-86 -227.5q147 41 203 70q122 62 122 165q0 37 -23 57.5t-56 20.5z" />
    <glyph glyph-name="uni1EC6" unicode="&#x1ec6;" 
d="M451 945l-109 -80l-41 37l163 123l114 -125l-54 -37zM625 743h-376l-60 -291h239l-12 -58h-241l-70 -337h373l-12 -57h-436l170 800h436zM223 -101q43 0 57 -16.5t5 -56.5q-7 -37 -24.5 -50.5t-56.5 -13.5q-43 0 -57 16.5t-6 57.5q8 36 25.5 49.5t56.5 13.5z" />
    <glyph glyph-name="uni1EC7" unicode="&#x1ec7;" 
d="M398 760l-109 -80l-41 37l163 123l114 -125l-54 -37zM262 46q51 0 108.5 25.5t99.5 66.5l30 -51q-49 -46 -116.5 -73.5t-129.5 -27.5q-72 0 -120 51t-48 130v12q-32 -12 -46 -26l-28 50q17 21 78 41q17 174 101.5 281t209.5 107q136 0 136 -132q0 -31 -8.5 -58.5
t-19.5 -49t-34 -43t-39.5 -35t-49.5 -30t-50.5 -24.5t-56.5 -21l-52.5 -17.5t-52.5 -15.5q-18 -5 -27 -8q-1 -11 -1 -33q0 -52 34 -85.5t82 -33.5zM398 575q-93 0 -160 -85.5t-86 -227.5q147 41 203 70q122 62 122 165q0 37 -23 57.5t-56 20.5zM209 -98q43 0 57 -16.5
t5 -56.5q-7 -37 -24.5 -50.5t-56.5 -13.5q-43 0 -57 16.5t-6 57.5q8 36 25.5 49.5t56.5 13.5z" />
    <glyph glyph-name="uni1EC8" unicode="&#x1ec8;" 
d="M466 949q2 12 -5 19t-19 7q-43 0 -100 -43l11 71q43 29 91 29q43 0 67 -25.5t15 -64.5q-7 -35 -41.5 -62.5t-89.5 -39.5l-9 56q71 15 80 53zM586 743h-163l-146 -686h162l-12 -57h-386l12 57h162l146 686h-161l11 57h386z" />
    <glyph glyph-name="uni1EC9" unicode="&#x1ec9;" 
d="M293 655l-9 56q71 15 80 53q2 12 -5 19t-19 7q-43 0 -100 -43l11 71q43 29 91 29q43 0 67 -25.5t15 -64.5q-7 -35 -41.5 -62.5t-89.5 -39.5zM336 -14q-118 0 -152.5 60.5t5.5 215.5l63 225q6 31 -3.5 49t-42.5 25l15 57q114 -22 94 -118l-65 -238q-31 -124 -10 -171.5
t98 -47.5q37 0 62 16.5t58 61.5l48 -33q-43 -58 -80 -80t-90 -22z" />
    <glyph glyph-name="uni1ECA" unicode="&#x1eca;" 
d="M586 743h-163l-146 -686h162l-12 -57h-386l12 57h162l146 686h-161l11 57h386zM209 -101q43 0 57 -16.5t5 -56.5q-7 -37 -24.5 -50.5t-56.5 -13.5q-43 0 -57 16.5t-6 57.5q8 36 25.5 49.5t56.5 13.5z" />
    <glyph glyph-name="uni1ECB" unicode="&#x1ecb;" 
d="M332 729q-43 0 -57.5 16.5t-5.5 56.5q7 37 24.5 50.5t56.5 13.5q43 0 57 -16.5t6 -57.5q-7 -36 -25 -49.5t-56 -13.5zM336 -14q-118 0 -152.5 60.5t5.5 215.5l63 225q6 31 -3.5 49t-42.5 25l15 57q114 -22 94 -118l-65 -238q-31 -124 -10 -171.5t98 -47.5q37 0 62 16.5
t58 61.5l48 -33q-43 -58 -80 -80t-90 -22zM257 -235q-43 0 -57 16.5t-6 57.5q8 36 25.5 49.5t56.5 13.5q43 0 57 -16.5t5 -56.5q-7 -37 -24.5 -50.5t-56.5 -13.5z" />
    <glyph glyph-name="uni1ECC" unicode="&#x1ecc;" 
d="M237 -14q-138 0 -174 82.5t9 293.5l17 80q45 212 112 292t201 80q138 0 173.5 -82.5t-9.5 -293.5l-17 -80q-45 -212 -112 -292t-200 -80zM238 43q103 0 157.5 69.5t92.5 249.5l17 80q39 181 17 248t-121 67q-104 0 -158.5 -69.5t-92.5 -249.5l-17 -80
q-38 -181 -15.5 -248t120.5 -67zM190 -238q-43 0 -57 16.5t-6 57.5q8 36 25.5 49.5t56.5 13.5q43 0 57 -16.5t5 -56.5q-7 -37 -24.5 -50.5t-56.5 -13.5z" />
    <glyph glyph-name="uni1ECD" unicode="&#x1ecd;" 
d="M236 -14q-127 0 -160.5 72t5.5 255q29 142 107 230.5t176 88.5q127 0 161 -72t-6 -255q-30 -143 -107.5 -231t-175.5 -88zM239 43q74 0 135.5 75t86.5 195q31 151 10 206.5t-110 55.5q-73 0 -134.5 -75t-87.5 -195q-32 -151 -10.5 -206.5t110.5 -55.5zM190 -235
q-43 0 -57 16.5t-6 57.5q8 36 25.5 49.5t56.5 13.5q43 0 57 -16.5t5 -56.5q-7 -37 -24.5 -50.5t-56.5 -13.5z" />
    <glyph glyph-name="uni1ECE" unicode="&#x1ece;" 
d="M395 840l-9 56q71 15 80 53q2 12 -5 19t-19 7q-43 0 -100 -43l11 71q43 29 91 29q43 0 67 -25.5t15 -64.5q-7 -35 -41.5 -62.5t-89.5 -39.5zM237 -14q-138 0 -174 82.5t9 293.5l17 80q45 212 112 292t201 80q138 0 173.5 -82.5t-9.5 -293.5l-17 -80q-45 -212 -112 -292
t-200 -80zM238 43q103 0 157.5 69.5t92.5 249.5l17 80q39 181 17 248t-121 67q-104 0 -158.5 -69.5t-92.5 -249.5l-17 -80q-38 -181 -15.5 -248t120.5 -67z" />
    <glyph glyph-name="uni1ECF" unicode="&#x1ecf;" 
d="M356 655l-9 56q71 15 80 53q2 12 -5 19t-19 7q-43 0 -100 -43l11 71q43 29 91 29q43 0 67 -25.5t15 -64.5q-7 -35 -41.5 -62.5t-89.5 -39.5zM236 -14q-127 0 -160.5 72t5.5 255q29 142 107 230.5t176 88.5q127 0 161 -72t-6 -255q-30 -143 -107.5 -231t-175.5 -88z
M239 43q74 0 135.5 75t86.5 195q31 151 10 206.5t-110 55.5q-73 0 -134.5 -75t-87.5 -195q-32 -151 -10.5 -206.5t110.5 -55.5z" />
    <glyph glyph-name="uni1ED0" unicode="&#x1ed0;" 
d="M562 911l-34 43l156 116l33 -44zM504 834l-73 83l-109 -81l-41 37l164 123l113 -125zM237 -14q-138 0 -174 82.5t9 293.5l17 80q45 212 112 292t201 80q138 0 173.5 -82.5t-9.5 -293.5l-17 -80q-45 -212 -112 -292t-200 -80zM238 43q103 0 157.5 69.5t92.5 249.5l17 80
q39 181 17 248t-121 67q-104 0 -158.5 -69.5t-92.5 -249.5l-17 -80q-38 -181 -15.5 -248t120.5 -67z" />
    <glyph glyph-name="uni1ED1" unicode="&#x1ed1;" 
d="M414 888l-33 44l168 125l33 -43zM471 678l-73 82l-109 -80l-41 37l163 123l114 -125zM236 -14q-127 0 -160.5 72t5.5 255q29 142 107 230.5t176 88.5q127 0 161 -72t-6 -255q-30 -143 -107.5 -231t-175.5 -88zM239 43q74 0 135.5 75t86.5 195q31 151 10 206.5t-110 55.5
q-73 0 -134.5 -75t-87.5 -195q-32 -151 -10.5 -206.5t110.5 -55.5z" />
    <glyph glyph-name="uni1ED2" unicode="&#x1ed2;" 
d="M600 890l-109 115l48 43l110 -115zM504 834l-73 83l-109 -81l-41 37l164 123l113 -125zM237 -14q-138 0 -174 82.5t9 293.5l17 80q45 212 112 292t201 80q138 0 173.5 -82.5t-9.5 -293.5l-17 -80q-45 -212 -112 -292t-200 -80zM238 43q103 0 157.5 69.5t92.5 249.5l17 80
q39 181 17 248t-121 67q-104 0 -158.5 -69.5t-92.5 -249.5l-17 -80q-38 -181 -15.5 -248t120.5 -67z" />
    <glyph glyph-name="uni1ED3" unicode="&#x1ed3;" 
d="M435 888l-120 126l49 43l119 -125zM471 678l-73 82l-109 -80l-41 37l163 123l114 -125zM236 -14q-127 0 -160.5 72t5.5 255q29 142 107 230.5t176 88.5q127 0 161 -72t-6 -255q-30 -143 -107.5 -231t-175.5 -88zM239 43q74 0 135.5 75t86.5 195q31 151 10 206.5
t-110 55.5q-73 0 -134.5 -75t-87.5 -195q-32 -151 -10.5 -206.5t110.5 -55.5z" />
    <glyph glyph-name="uni1ED4" unicode="&#x1ed4;" 
d="M590 878l-9 56q70 15 79 53q2 11 -5 18.5t-19 7.5q-40 0 -100 -43l12 71q42 29 90 29q43 0 67 -25.5t15 -65.5q-7 -35 -41.5 -62.5t-88.5 -38.5zM504 834l-73 83l-109 -81l-41 37l164 123l113 -125zM237 -14q-138 0 -174 82.5t9 293.5l17 80q45 212 112 292t201 80
q138 0 173.5 -82.5t-9.5 -293.5l-17 -80q-45 -212 -112 -292t-200 -80zM238 43q103 0 157.5 69.5t92.5 249.5l17 80q39 181 17 248t-121 67q-104 0 -158.5 -69.5t-92.5 -249.5l-17 -80q-38 -181 -15.5 -248t120.5 -67z" />
    <glyph glyph-name="uni1ED5" unicode="&#x1ed5;" 
d="M399 860l-9 56q71 15 80 53q2 12 -5 19t-19 7q-43 0 -100 -43l11 71q43 29 91 29q43 0 67 -25.5t15 -64.5q-7 -35 -41.5 -62.5t-89.5 -39.5zM471 678l-73 82l-109 -80l-41 37l163 123l114 -125zM236 -14q-127 0 -160.5 72t5.5 255q29 142 107 230.5t176 88.5
q127 0 161 -72t-6 -255q-30 -143 -107.5 -231t-175.5 -88zM239 43q74 0 135.5 75t86.5 195q31 151 10 206.5t-110 55.5q-73 0 -134.5 -75t-87.5 -195q-32 -151 -10.5 -206.5t110.5 -55.5z" />
    <glyph glyph-name="uni1ED6" unicode="&#x1ed6;" 
d="M725 914q-21 0 -39.5 12t-29.5 26.5t-24.5 26.5t-24.5 12q-32 0 -41 -54l-61 5q9 48 37 77t67 29q26 0 47.5 -19.5t38.5 -38.5t32 -19q33 0 40 50l61 -5q-8 -46 -36.5 -74t-66.5 -28zM504 834l-73 83l-109 -81l-41 37l164 123l113 -125zM237 -14q-138 0 -174 82.5
t9 293.5l17 80q45 212 112 292t201 80q138 0 173.5 -82.5t-9.5 -293.5l-17 -80q-45 -212 -112 -292t-200 -80zM238 43q103 0 157.5 69.5t92.5 249.5l17 80q39 181 17 248t-121 67q-104 0 -158.5 -69.5t-92.5 -249.5l-17 -80q-38 -181 -15.5 -248t120.5 -67z" />
    <glyph glyph-name="uni1ED7" unicode="&#x1ed7;" 
d="M498 903q-26 0 -48.5 19.5t-39.5 38.5t-30 19q-32 0 -41 -54l-61 5q9 48 37 77t67 29q26 0 47.5 -19.5t38.5 -38.5t32 -19q33 0 40 50l61 -5q-8 -46 -36.5 -74t-66.5 -28zM471 678l-73 82l-109 -80l-41 37l163 123l114 -125zM236 -14q-127 0 -160.5 72t5.5 255
q29 142 107 230.5t176 88.5q127 0 161 -72t-6 -255q-30 -143 -107.5 -231t-175.5 -88zM239 43q74 0 135.5 75t86.5 195q31 151 10 206.5t-110 55.5q-73 0 -134.5 -75t-87.5 -195q-32 -151 -10.5 -206.5t110.5 -55.5z" />
    <glyph glyph-name="uni1ED8" unicode="&#x1ed8;" 
d="M510 863l-73 82l-109 -80l-41 37l163 123l114 -125zM237 -14q-138 0 -174 82.5t9 293.5l17 80q45 212 112 292t201 80q138 0 173.5 -82.5t-9.5 -293.5l-17 -80q-45 -212 -112 -292t-200 -80zM238 43q103 0 157.5 69.5t92.5 249.5l17 80q39 181 17 248t-121 67
q-104 0 -158.5 -69.5t-92.5 -249.5l-17 -80q-38 -181 -15.5 -248t120.5 -67zM190 -238q-43 0 -57 16.5t-6 57.5q8 36 25.5 49.5t56.5 13.5q43 0 57 -16.5t5 -56.5q-7 -37 -24.5 -50.5t-56.5 -13.5z" />
    <glyph glyph-name="uni1ED9" unicode="&#x1ed9;" 
d="M471 678l-73 82l-109 -80l-41 37l163 123l114 -125zM236 -14q-127 0 -160.5 72t5.5 255q29 142 107 230.5t176 88.5q127 0 161 -72t-6 -255q-30 -143 -107.5 -231t-175.5 -88zM239 43q74 0 135.5 75t86.5 195q31 151 10 206.5t-110 55.5q-73 0 -134.5 -75t-87.5 -195
q-32 -151 -10.5 -206.5t110.5 -55.5zM190 -235q-43 0 -57 16.5t-6 57.5q8 36 25.5 49.5t56.5 13.5q43 0 57 -16.5t5 -56.5q-7 -37 -24.5 -50.5t-56.5 -13.5z" />
    <glyph glyph-name="uni1EDA" unicode="&#x1eda;" 
d="M578 994l-168 -126l-33 44l168 125zM734 909h62l-30 -138q-11 -57 -48 -91t-86 -34q-21 0 -41 11q6 -78 -25 -219l-17 -80q-45 -212 -112 -292t-200 -80q-138 0 -174 82.5t9 293.5l17 80q45 212 112 292t201 80q73 0 116 -21.5t61 -69.5q16 -20 52 -20q27 0 47 20t28 53z
M505 442q39 181 17 248t-121 67q-104 0 -158.5 -69.5t-92.5 -249.5l-17 -80q-38 -181 -15.5 -248t120.5 -67q103 0 157.5 69.5t92.5 249.5z" />
    <glyph glyph-name="uni1EDB" unicode="&#x1edb;" 
d="M539 809l-168 -126l-33 44l168 125zM670 724h62l-30 -138q-11 -57 -48 -91t-86 -34q-12 0 -27 5q0 -60 -22 -161q-30 -143 -107.5 -231t-175.5 -88q-127 0 -160.5 72t5.5 255q29 142 107 230.5t176 88.5q78 0 120 -25.5t53 -83.5q12 -5 30 -5q27 0 47 20t28 53zM461 313
q31 151 10 206.5t-110 55.5q-73 0 -134.5 -75t-87.5 -195q-32 -151 -10.5 -206.5t110.5 -55.5q74 0 135.5 75t86.5 195z" />
    <glyph glyph-name="uni1EDC" unicode="&#x1edc;" 
d="M479 912l-48 -44l-120 126l49 43zM734 909h62l-30 -138q-11 -57 -48 -91t-86 -34q-21 0 -41 11q6 -78 -25 -219l-17 -80q-45 -212 -112 -292t-200 -80q-138 0 -174 82.5t9 293.5l17 80q45 212 112 292t201 80q73 0 116 -21.5t61 -69.5q16 -20 52 -20q27 0 47 20t28 53z
M505 442q39 181 17 248t-121 67q-104 0 -158.5 -69.5t-92.5 -249.5l-17 -80q-38 -181 -15.5 -248t120.5 -67q103 0 157.5 69.5t92.5 249.5z" />
    <glyph glyph-name="uni1EDD" unicode="&#x1edd;" 
d="M440 727l-48 -44l-120 126l49 43zM670 724h62l-30 -138q-11 -57 -48 -91t-86 -34q-12 0 -27 5q0 -60 -22 -161q-30 -143 -107.5 -231t-175.5 -88q-127 0 -160.5 72t5.5 255q29 142 107 230.5t176 88.5q78 0 120 -25.5t53 -83.5q12 -5 30 -5q27 0 47 20t28 53zM461 313
q31 151 10 206.5t-110 55.5q-73 0 -134.5 -75t-87.5 -195q-32 -151 -10.5 -206.5t110.5 -55.5q74 0 135.5 75t86.5 195z" />
    <glyph glyph-name="uni1EDE" unicode="&#x1ede;" 
d="M466 949q2 12 -5 19t-19 7q-43 0 -100 -43l11 71q43 29 91 29q43 0 67 -25.5t15 -64.5q-7 -35 -41.5 -62.5t-89.5 -39.5l-9 56q71 15 80 53zM734 909h62l-30 -138q-11 -57 -48 -91t-86 -34q-21 0 -41 11q6 -78 -25 -219l-17 -80q-45 -212 -112 -292t-200 -80
q-138 0 -174 82.5t9 293.5l17 80q45 212 112 292t201 80q73 0 116 -21.5t61 -69.5q16 -20 52 -20q27 0 47 20t28 53zM505 442q39 181 17 248t-121 67q-104 0 -158.5 -69.5t-92.5 -249.5l-17 -80q-38 -181 -15.5 -248t120.5 -67q103 0 157.5 69.5t92.5 249.5z" />
    <glyph glyph-name="uni1EDF" unicode="&#x1edf;" 
d="M427 764q2 12 -5 19t-19 7q-43 0 -100 -43l11 71q43 29 91 29q43 0 67 -25.5t15 -64.5q-7 -35 -41.5 -62.5t-89.5 -39.5l-9 56q71 15 80 53zM670 724h62l-30 -138q-11 -57 -48 -91t-86 -34q-12 0 -27 5q0 -60 -22 -161q-30 -143 -107.5 -231t-175.5 -88q-127 0 -160.5 72
t5.5 255q29 142 107 230.5t176 88.5q78 0 120 -25.5t53 -83.5q12 -5 30 -5q27 0 47 20t28 53zM461 313q31 151 10 206.5t-110 55.5q-73 0 -134.5 -75t-87.5 -195q-32 -151 -10.5 -206.5t110.5 -55.5q74 0 135.5 75t86.5 195z" />
    <glyph glyph-name="uni1EE0" unicode="&#x1ee0;" 
d="M376 960q-32 0 -41 -54l-61 5q9 48 37 77t67 29q26 0 47.5 -19.5t38.5 -38.5t32 -19q33 0 40 50l61 -5q-8 -46 -36.5 -74t-66.5 -28q-26 0 -48.5 19.5t-39.5 38.5t-30 19zM734 909h62l-30 -138q-11 -57 -48 -91t-86 -34q-21 0 -41 11q6 -78 -25 -219l-17 -80
q-45 -212 -112 -292t-200 -80q-138 0 -174 82.5t9 293.5l17 80q45 212 112 292t201 80q73 0 116 -21.5t61 -69.5q16 -20 52 -20q27 0 47 20t28 53zM505 442q39 181 17 248t-121 67q-104 0 -158.5 -69.5t-92.5 -249.5l-17 -80q-38 -181 -15.5 -248t120.5 -67
q103 0 157.5 69.5t92.5 249.5z" />
    <glyph glyph-name="uni1EE1" unicode="&#x1ee1;" 
d="M337 775q-32 0 -41 -54l-61 5q9 48 37 77t67 29q20 0 38.5 -12t29.5 -26.5t24.5 -26.5t25.5 -12q33 0 40 50l61 -5q-8 -46 -36.5 -74t-66.5 -28q-21 0 -39.5 12t-29.5 26.5t-24.5 26.5t-24.5 12zM670 724h62l-30 -138q-11 -57 -48 -91t-86 -34q-12 0 -27 5
q0 -60 -22 -161q-30 -143 -107.5 -231t-175.5 -88q-127 0 -160.5 72t5.5 255q29 142 107 230.5t176 88.5q78 0 120 -25.5t53 -83.5q12 -5 30 -5q27 0 47 20t28 53zM461 313q31 151 10 206.5t-110 55.5q-73 0 -134.5 -75t-87.5 -195q-32 -151 -10.5 -206.5t110.5 -55.5
q74 0 135.5 75t86.5 195z" />
    <glyph glyph-name="uni1EE2" unicode="&#x1ee2;" 
d="M734 909h62l-30 -138q-11 -57 -48 -91t-86 -34q-21 0 -41 11q6 -78 -25 -219l-17 -80q-45 -212 -112 -292t-200 -80q-138 0 -174 82.5t9 293.5l17 80q45 212 112 292t201 80q73 0 116 -21.5t61 -69.5q16 -20 52 -20q27 0 47 20t28 53zM505 442q39 181 17 248t-121 67
q-104 0 -158.5 -69.5t-92.5 -249.5l-17 -80q-38 -181 -15.5 -248t120.5 -67q103 0 157.5 69.5t92.5 249.5zM209 -101q43 0 57 -16.5t5 -56.5q-7 -37 -24.5 -50.5t-56.5 -13.5q-43 0 -57 16.5t-6 57.5q8 36 25.5 49.5t56.5 13.5z" />
    <glyph glyph-name="uni1EE3" unicode="&#x1ee3;" 
d="M670 724h62l-30 -138q-11 -57 -48 -91t-86 -34q-12 0 -27 5q0 -60 -22 -161q-30 -143 -107.5 -231t-175.5 -88q-127 0 -160.5 72t5.5 255q29 142 107 230.5t176 88.5q78 0 120 -25.5t53 -83.5q12 -5 30 -5q27 0 47 20t28 53zM461 313q31 151 10 206.5t-110 55.5
q-73 0 -134.5 -75t-87.5 -195q-32 -151 -10.5 -206.5t110.5 -55.5q74 0 135.5 75t86.5 195zM209 -98q43 0 57 -16.5t5 -56.5q-7 -37 -24.5 -50.5t-56.5 -13.5q-43 0 -57 16.5t-6 57.5q8 36 25.5 49.5t56.5 13.5z" />
    <glyph glyph-name="uni1EE4" unicode="&#x1ee4;" 
d="M237 -14q-126 0 -160.5 69t3.5 244l106 501h62l-107 -506q-31 -145 -10.5 -198t107.5 -53q91 0 138 55.5t78 200.5l106 501h62l-107 -506q-38 -176 -97.5 -242t-180.5 -66zM190 -238q-43 0 -57 16.5t-6 57.5q8 36 25.5 49.5t56.5 13.5q43 0 57 -16.5t5 -56.5
q-7 -37 -24.5 -50.5t-56.5 -13.5z" />
    <glyph glyph-name="uni1EE5" unicode="&#x1ee5;" 
d="M72 549l-28 47q31 36 96 36q34 0 54.5 -17t20.5 -45q2 -95 -80 -355q-55 -172 69 -172q65 0 136.5 96t91.5 189l61 290h63l-113 -527q-2 -17 -2 -20q0 -13 9 -20.5t23 -7.5q23 0 48 25l28 -46q-31 -36 -96 -36q-37 0 -60.5 27t-12.5 69l16 69q-96 -165 -195 -165
q-203 0 -126 235q79 249 78 325q-2 29 -33 29q-25 0 -48 -26zM150 -235q-43 0 -57 16.5t-6 57.5q8 36 25.5 49.5t56.5 13.5q43 0 57 -16.5t5 -56.5q-7 -37 -24.5 -50.5t-56.5 -13.5z" />
    <glyph glyph-name="uni1EE6" unicode="&#x1ee6;" 
d="M395 840l-9 56q71 15 80 53q2 12 -5 19t-19 7q-43 0 -100 -43l11 71q43 29 91 29q43 0 67 -25.5t15 -64.5q-7 -35 -41.5 -62.5t-89.5 -39.5zM237 -14q-126 0 -160.5 69t3.5 244l106 501h62l-107 -506q-31 -145 -10.5 -198t107.5 -53q91 0 138 55.5t78 200.5l106 501h62
l-107 -506q-38 -176 -97.5 -242t-180.5 -66z" />
    <glyph glyph-name="uni1EE7" unicode="&#x1ee7;" 
d="M348 655l-9 56q71 15 80 53q2 12 -5 19t-19 7q-43 0 -100 -43l11 71q44 29 91 29q43 0 67 -25.5t15 -64.5q-7 -35 -41.5 -62.5t-89.5 -39.5zM72 549l-28 47q31 36 96 36q34 0 54.5 -17t20.5 -45q2 -95 -80 -355q-55 -172 69 -172q65 0 136.5 96t91.5 189l61 290h63
l-113 -527q-2 -17 -2 -20q0 -13 9 -20.5t23 -7.5q23 0 48 25l28 -46q-31 -36 -96 -36q-37 0 -60.5 27t-12.5 69l16 69q-96 -165 -195 -165q-203 0 -126 235q79 249 78 325q-2 29 -33 29q-25 0 -48 -26z" />
    <glyph glyph-name="uni1EE8" unicode="&#x1ee8;" 
d="M578 994l-168 -126l-33 44l168 125zM747 974h62l-29 -138q-12 -57 -48.5 -91t-85.5 -34q-21 0 -40 11l-91 -428q-38 -176 -97.5 -242t-180.5 -66q-126 0 -160.5 69t3.5 244l106 501h62l-107 -506q-31 -145 -10.5 -198t107.5 -53q91 0 138 55.5t78 200.5l106 501h62
l-6 -27q12 -5 29 -5q26 0 46.5 20.5t27.5 52.5z" />
    <glyph glyph-name="uni1EE9" unicode="&#x1ee9;" 
d="M531 809l-168 -126l-33 44l168 125zM680 794h62l-30 -138q-12 -57 -48.5 -91t-85.5 -34q-19 0 -39 10l-96 -450q-2 -17 -2 -20q0 -13 9 -20.5t23 -7.5q23 0 48 25l28 -46q-31 -36 -96 -36q-37 0 -60.5 27t-12.5 69l16 69q-96 -165 -195 -165q-203 0 -126 235
q79 249 78 325q-2 29 -33 29q-25 0 -48 -26l-28 47q31 36 96 36q34 0 54.5 -17t20.5 -45q2 -95 -80 -355q-55 -172 69 -172q65 0 136.5 96t91.5 189l61 290h63l-6 -26q12 -4 27 -4q26 0 46.5 20.5t27.5 52.5z" />
    <glyph glyph-name="uni1EEA" unicode="&#x1eea;" 
d="M479 912l-48 -44l-120 126l49 43zM747 974h62l-29 -138q-12 -57 -48.5 -91t-85.5 -34q-21 0 -40 11l-91 -428q-38 -176 -97.5 -242t-180.5 -66q-126 0 -160.5 69t3.5 244l106 501h62l-107 -506q-31 -145 -10.5 -198t107.5 -53q91 0 138 55.5t78 200.5l106 501h62l-6 -27
q12 -5 29 -5q26 0 46.5 20.5t27.5 52.5z" />
    <glyph glyph-name="uni1EEB" unicode="&#x1eeb;" 
d="M432 727l-48 -44l-120 126l49 43zM680 794h62l-30 -138q-12 -57 -48.5 -91t-85.5 -34q-19 0 -39 10l-96 -450q-2 -17 -2 -20q0 -13 9 -20.5t23 -7.5q23 0 48 25l28 -46q-31 -36 -96 -36q-37 0 -60.5 27t-12.5 69l16 69q-96 -165 -195 -165q-203 0 -126 235q79 249 78 325
q-2 29 -33 29q-25 0 -48 -26l-28 47q31 36 96 36q34 0 54.5 -17t20.5 -45q2 -95 -80 -355q-55 -172 69 -172q65 0 136.5 96t91.5 189l61 290h63l-6 -26q12 -4 27 -4q26 0 46.5 20.5t27.5 52.5z" />
    <glyph glyph-name="uni1EEC" unicode="&#x1eec;" 
d="M466 949q2 12 -5 19t-19 7q-43 0 -100 -43l11 71q43 29 91 29q43 0 67 -25.5t15 -64.5q-7 -35 -41.5 -62.5t-89.5 -39.5l-9 56q71 15 80 53zM747 974h62l-29 -138q-12 -57 -48.5 -91t-85.5 -34q-21 0 -40 11l-91 -428q-38 -176 -97.5 -242t-180.5 -66q-126 0 -160.5 69
t3.5 244l106 501h62l-107 -506q-31 -145 -10.5 -198t107.5 -53q91 0 138 55.5t78 200.5l106 501h62l-6 -27q12 -5 29 -5q26 0 46.5 20.5t27.5 52.5z" />
    <glyph glyph-name="uni1EED" unicode="&#x1eed;" 
d="M419 764q2 12 -5 19t-19 7q-43 0 -100 -43l11 71q44 29 91 29q43 0 67 -25.5t15 -64.5q-7 -35 -41.5 -62.5t-89.5 -39.5l-9 56q71 15 80 53zM680 794h62l-30 -138q-12 -57 -48.5 -91t-85.5 -34q-19 0 -39 10l-96 -450q-2 -17 -2 -20q0 -13 9 -20.5t23 -7.5q23 0 48 25
l28 -46q-31 -36 -96 -36q-37 0 -60.5 27t-12.5 69l16 69q-96 -165 -195 -165q-203 0 -126 235q79 249 78 325q-2 29 -33 29q-25 0 -48 -26l-28 47q31 36 96 36q34 0 54.5 -17t20.5 -45q2 -95 -80 -355q-55 -172 69 -172q65 0 136.5 96t91.5 189l61 290h63l-6 -26
q12 -4 27 -4q26 0 46.5 20.5t27.5 52.5z" />
    <glyph glyph-name="uni1EEE" unicode="&#x1eee;" 
d="M376 960q-32 0 -41 -54l-61 5q9 48 37 77t67 29q26 0 47.5 -19.5t38.5 -38.5t32 -19q33 0 40 50l61 -5q-8 -46 -36.5 -74t-66.5 -28q-26 0 -48.5 19.5t-39.5 38.5t-30 19zM747 974h62l-29 -138q-12 -57 -48.5 -91t-85.5 -34q-21 0 -40 11l-91 -428q-38 -176 -97.5 -242
t-180.5 -66q-126 0 -160.5 69t3.5 244l106 501h62l-107 -506q-31 -145 -10.5 -198t107.5 -53q91 0 138 55.5t78 200.5l106 501h62l-6 -27q12 -5 29 -5q26 0 46.5 20.5t27.5 52.5z" />
    <glyph glyph-name="uni1EEF" unicode="&#x1eef;" 
d="M329 775q-32 0 -41 -54l-61 5q9 48 37 77t67 29q20 0 38.5 -12t29.5 -26.5t24.5 -26.5t25.5 -12q33 0 40 50l61 -5q-8 -46 -36.5 -74t-66.5 -28q-21 0 -39.5 12t-29.5 26.5t-24.5 26.5t-24.5 12zM680 794h62l-30 -138q-12 -57 -48.5 -91t-85.5 -34q-19 0 -39 10l-96 -450
q-2 -17 -2 -20q0 -13 9 -20.5t23 -7.5q23 0 48 25l28 -46q-31 -36 -96 -36q-37 0 -60.5 27t-12.5 69l16 69q-96 -165 -195 -165q-203 0 -126 235q79 249 78 325q-2 29 -33 29q-25 0 -48 -26l-28 47q31 36 96 36q34 0 54.5 -17t20.5 -45q2 -95 -80 -355q-55 -172 69 -172
q65 0 136.5 96t91.5 189l61 290h63l-6 -26q12 -4 27 -4q26 0 46.5 20.5t27.5 52.5z" />
    <glyph glyph-name="uni1EF0" unicode="&#x1ef0;" 
d="M747 974h62l-29 -138q-12 -57 -48.5 -91t-85.5 -34q-21 0 -40 11l-91 -428q-38 -176 -97.5 -242t-180.5 -66q-126 0 -160.5 69t3.5 244l106 501h62l-107 -506q-31 -145 -10.5 -198t107.5 -53q91 0 138 55.5t78 200.5l106 501h62l-6 -27q12 -5 29 -5q26 0 46.5 20.5
t27.5 52.5zM209 -101q43 0 57 -16.5t5 -56.5q-7 -37 -24.5 -50.5t-56.5 -13.5q-43 0 -57 16.5t-6 57.5q8 36 25.5 49.5t56.5 13.5z" />
    <glyph glyph-name="uni1EF1" unicode="&#x1ef1;" 
d="M680 794h62l-30 -138q-12 -57 -48.5 -91t-85.5 -34q-19 0 -39 10l-96 -450q-2 -17 -2 -20q0 -13 9 -20.5t23 -7.5q23 0 48 25l28 -46q-31 -36 -96 -36q-37 0 -60.5 27t-12.5 69l16 69q-96 -165 -195 -165q-203 0 -126 235q79 249 78 325q-2 29 -33 29q-25 0 -48 -26
l-28 47q31 36 96 36q34 0 54.5 -17t20.5 -45q2 -95 -80 -355q-55 -172 69 -172q65 0 136.5 96t91.5 189l61 290h63l-6 -26q12 -4 27 -4q26 0 46.5 20.5t27.5 52.5zM169 -98q43 0 57 -16.5t5 -56.5q-7 -37 -24.5 -50.5t-56.5 -13.5q-43 0 -57 16.5t-6 57.5q8 36 25.5 49.5
t56.5 13.5z" />
    <glyph glyph-name="Ygrave" unicode="&#x1ef2;" 
d="M431 868l-120 126l49 43l119 -125zM203 0l66 304l-131 496h67l109 -418l289 418h69l-341 -496l-66 -304h-62z" />
    <glyph glyph-name="ygrave" unicode="&#x1ef3;" 
d="M392 683l-120 126l49 43l119 -125zM115 -206q-50 0 -81 20.5t-30 53.5q0 57 99.5 90t270.5 34q19 34 36 106q-14 -27 -56.5 -39.5t-88.5 -12.5q-79 0 -121 56t-21 123q74 230 76 321q-2 29 -33 29q-25 0 -48 -26l-28 47q31 36 96 36q33 0 53 -17t20 -45q2 -98 -76 -346
q-16 -54 8.5 -87.5t75.5 -33.5q71 0 112 24.5t56 97.5l82 393h61q-39 -185 -54.5 -260t-37 -172t-32.5 -137t-20 -58q49 0 90 12l-16 -58q-34 -10 -99 -10q-40 -64 -120.5 -102.5t-173.5 -38.5zM129 -149q58 0 114 22.5t93 60.5q-118 -4 -194.5 -22t-76.5 -41q0 -8 18.5 -14
t45.5 -6z" />
    <glyph glyph-name="uni1EF4" unicode="&#x1ef4;" 
d="M203 0l66 304l-131 496h67l109 -418l289 418h69l-341 -496l-66 -304h-62zM190 -238q-43 0 -57 16.5t-6 57.5q8 36 25.5 49.5t56.5 13.5q43 0 57 -16.5t5 -56.5q-7 -37 -24.5 -50.5t-56.5 -13.5z" />
    <glyph glyph-name="uni1EF5" unicode="&#x1ef5;" 
d="M115 -206q-50 0 -81 20.5t-30 53.5q0 57 99.5 90t270.5 34q19 34 36 106q-14 -27 -56.5 -39.5t-88.5 -12.5q-79 0 -121 56t-21 123q74 230 76 321q-2 29 -33 29q-25 0 -48 -26l-28 47q31 36 96 36q33 0 53 -17t20 -45q2 -98 -76 -346q-16 -54 8.5 -87.5t75.5 -33.5
q71 0 112 24.5t56 97.5l82 393h61q-39 -185 -54.5 -260t-37 -172t-32.5 -137t-20 -58q49 0 90 12l-16 -58q-34 -10 -99 -10q-40 -64 -120.5 -102.5t-173.5 -38.5zM129 -149q58 0 114 22.5t93 60.5q-118 -4 -194.5 -22t-76.5 -41q0 -8 18.5 -14t45.5 -6zM406 -283
q-43 0 -57 16.5t-6 57.5q8 36 25.5 49.5t56.5 13.5q43 0 57 -16.5t5 -56.5q-7 -37 -24.5 -50.5t-56.5 -13.5z" />
    <glyph glyph-name="uni1EF6" unicode="&#x1ef6;" 
d="M395 840l-9 56q71 15 80 53q2 12 -5 19t-19 7q-43 0 -100 -43l11 71q43 29 91 29q43 0 67 -25.5t15 -64.5q-7 -35 -41.5 -62.5t-89.5 -39.5zM203 0l66 304l-131 496h67l109 -418l289 418h69l-341 -496l-66 -304h-62z" />
    <glyph glyph-name="uni1EF7" unicode="&#x1ef7;" 
d="M356 655l-9 56q71 15 80 53q2 12 -5 19t-19 7q-43 0 -100 -43l11 71q43 29 91 29q43 0 67 -25.5t15 -64.5q-7 -35 -41.5 -62.5t-89.5 -39.5zM115 -206q-50 0 -81 20.5t-30 53.5q0 57 99.5 90t270.5 34q19 34 36 106q-14 -27 -56.5 -39.5t-88.5 -12.5q-79 0 -121 56
t-21 123q74 230 76 321q-2 29 -33 29q-25 0 -48 -26l-28 47q31 36 96 36q33 0 53 -17t20 -45q2 -98 -76 -346q-16 -54 8.5 -87.5t75.5 -33.5q71 0 112 24.5t56 97.5l82 393h61q-39 -185 -54.5 -260t-37 -172t-32.5 -137t-20 -58q49 0 90 12l-16 -58q-34 -10 -99 -10
q-40 -64 -120.5 -102.5t-173.5 -38.5zM129 -149q58 0 114 22.5t93 60.5q-118 -4 -194.5 -22t-76.5 -41q0 -8 18.5 -14t45.5 -6z" />
    <glyph glyph-name="uni1EF8" unicode="&#x1ef8;" 
d="M494 883q-26 0 -48.5 19.5t-39.5 38.5t-30 19q-32 0 -41 -54l-61 5q9 48 37 77t67 29q26 0 47.5 -19.5t38.5 -38.5t32 -19q33 0 40 50l61 -5q-8 -46 -36.5 -74t-66.5 -28zM203 0l66 304l-131 496h67l109 -418l289 418h69l-341 -496l-66 -304h-62z" />
    <glyph glyph-name="uni1EF9" unicode="&#x1ef9;" 
d="M455 698q-21 0 -39.5 12t-29.5 26.5t-24.5 26.5t-24.5 12q-32 0 -41 -54l-61 5q9 48 37 77t67 29q20 0 38.5 -12t29.5 -26.5t24.5 -26.5t25.5 -12q33 0 40 50l61 -5q-8 -46 -36.5 -74t-66.5 -28zM115 -206q-50 0 -81 20.5t-30 53.5q0 57 99.5 90t270.5 34q19 34 36 106
q-14 -27 -56.5 -39.5t-88.5 -12.5q-79 0 -121 56t-21 123q74 230 76 321q-2 29 -33 29q-25 0 -48 -26l-28 47q31 36 96 36q33 0 53 -17t20 -45q2 -98 -76 -346q-16 -54 8.5 -87.5t75.5 -33.5q71 0 112 24.5t56 97.5l82 393h61q-39 -185 -54.5 -260t-37 -172t-32.5 -137
t-20 -58q49 0 90 12l-16 -58q-34 -10 -99 -10q-40 -64 -120.5 -102.5t-173.5 -38.5zM129 -149q58 0 114 22.5t93 60.5q-118 -4 -194.5 -22t-76.5 -41q0 -8 18.5 -14t45.5 -6z" />
    <glyph glyph-name="endash" unicode="&#x2013;" 
d="M97 371l12 58h432l-12 -58h-432z" />
    <glyph glyph-name="emdash" unicode="&#x2014;" 
d="M39 371l13 58h547l-12 -58h-548z" />
    <glyph glyph-name="uni2015" unicode="&#x2015;" 
d="M13 371l12 58h600l-12 -58h-600z" />
    <glyph glyph-name="quoteleft" unicode="&#x2018;" 
d="M632 820l-119 -193q40 -10 27 -68q-7 -37 -25 -50.5t-56 -13.5q-43 0 -57.5 16.5t-5.5 56.5q17 80 168 254z" />
    <glyph glyph-name="quoteright" unicode="&#x2019;" 
d="M220 449l119 193q-40 10 -27 68q7 37 25 50.5t56 13.5q43 0 57.5 -16.5t5.5 -56.5q-17 -80 -168 -254z" />
    <glyph glyph-name="quotesinglbase" unicode="&#x201a;" 
d="M82 -202l119 193q-40 10 -27 68q7 37 25 50.5t56 13.5q43 0 57.5 -16.5t5.5 -56.5q-17 -80 -168 -254z" />
    <glyph glyph-name="quotedblleft" unicode="&#x201c;" 
d="M507 820l-119 -193q40 -10 27 -68q-7 -37 -25 -50.5t-56 -13.5q-43 0 -57.5 16.5t-5.5 56.5q17 80 168 254zM802 820l-119 -193q40 -10 27 -68q-7 -37 -25 -50.5t-56 -13.5q-43 0 -57.5 16.5t-5.5 56.5q17 80 168 254z" />
    <glyph glyph-name="quotedblright" unicode="&#x201d;" 
d="M97 450l119 193q-40 10 -27 68q7 37 25 50.5t56 13.5q43 0 57.5 -16.5t5.5 -56.5q-17 -80 -168 -254zM392 450l119 193q-40 10 -27 68q7 37 25 50.5t56 13.5q43 0 57.5 -16.5t5.5 -56.5q-17 -80 -168 -254z" />
    <glyph glyph-name="quotedblbase" unicode="&#x201e;" 
d="M-43 -202l119 193q-40 10 -27 68q7 37 25 50.5t56 13.5q43 0 57.5 -16.5t5.5 -56.5q-17 -80 -168 -254zM252 -202l119 193q-40 10 -27 68q7 37 25 50.5t56 13.5q43 0 57.5 -16.5t5.5 -56.5q-17 -80 -168 -254z" />
    <glyph glyph-name="dagger" unicode="&#x2020;" 
d="M552 618l-12 -57h-156l-56 -264h-62l56 264h-155l12 57h155l38 182h62l-38 -182h156z" />
    <glyph glyph-name="daggerdbl" unicode="&#x2021;" 
d="M549 605h-156l-24 -113h156l-12 -57h-156l-29 -138h-62l29 138h-155l12 57h155l24 113h-155l12 57h155l29 138h62l-29 -138h156z" />
    </font>
</defs>
</svg>
