<?xml version="1.0" standalone="no"?>
<!DOCTYPE svg PUBLIC "-//W3C//DTD SVG 1.1//EN" "http://www.w3.org/Graphics/SVG/1.1/DTD/svg11.dtd" >
<svg xmlns="http://www.w3.org/2000/svg" xmlns:xlink="http://www.w3.org/1999/xlink" version="1.1">
<metadata>
Created by FontForge 20170731 at Wed Oct 23 13:47:35 2019
 By Aleksey,,,
Copyright (c) 2019 by Rune Bjrneras. All rights reserved.
</metadata>
<defs>
<font id="VictorMono-LightItalic" horiz-adv-x="600" >
  <font-face 
    font-family="Victor Mono Light"
    font-weight="300"
    font-style="italic"
    font-stretch="normal"
    units-per-em="1100"
    panose-1="0 0 4 9 0 0 0 0 0 0"
    ascent="880"
    descent="-220"
    x-height="618"
    cap-height="800"
    bbox="-1784 -340 831 1110"
    underline-thickness="50"
    underline-position="-200"
    slope="-12"
    unicode-range="U+0020-E0B3"
  />
<missing-glyph 
d="M2 0l173 814h354l-173 -814h-354zM62 46h254l154 722h-254z" />
    <glyph glyph-name=".notdef" 
d="M2 0l173 814h354l-173 -814h-354zM62 46h254l154 722h-254z" />
    <glyph glyph-name=".null" horiz-adv-x="0" 
 />
    <glyph glyph-name="nonmarkingreturn" horiz-adv-x="366" 
 />
    <glyph glyph-name="space" unicode=" " 
 />
    <glyph glyph-name="exclam" unicode="!" 
d="M255 216l114 584h70l-134 -584h-50zM236 -14q-40 0 -52.5 14.5t-4.5 52.5q7 34 22.5 46.5t52.5 12.5q40 0 52.5 -15t4.5 -52q-7 -34 -23 -46.5t-52 -12.5z" />
    <glyph glyph-name="quotedbl" unicode="&#x22;" 
d="M193 492l55 308h70l-75 -308h-50zM435 492l55 308h70l-75 -308h-50z" />
    <glyph glyph-name="numbersign" unicode="#" 
d="M613 515h-103l-77 -230h111l-10 -46h-116l-80 -239h-51l80 239h-203l-80 -239h-50l80 239h-98l10 46h103l77 230h-111l10 46h116l80 239h51l-80 -239h203l80 239h50l-80 -239h98zM382 285l78 230h-203l-78 -230h203z" />
    <glyph glyph-name="dollar" unicode="$" 
d="M431 813q74 -2 110.5 -23.5t57.5 -71.5l-40 -33q-14 45 -43.5 63t-93.5 20l-70 -330q104 -38 137 -88t14 -139q-26 -124 -79.5 -173t-167.5 -52l-14 -64h-50l14 65q-81 3 -120.5 27.5t-59.5 82.5l43 31q13 -52 44.5 -73t101.5 -23l80 377q-96 37 -127 81.5t-14 121.5
q23 111 72 154.5t155 47.5l15 69h50zM203 604q-13 -58 9.5 -90.5t92.5 -59.5l66 313q-75 -5 -112.5 -41.5t-55.5 -121.5zM455 219q14 66 -10.5 104t-102.5 69l-76 -359q84 4 126 45.5t63 140.5z" />
    <glyph glyph-name="percent" unicode="%" 
d="M203 504q-83 0 -109 32.5t-8 116.5q17 81 53.5 111t116.5 30q85 0 110.5 -32.5t7.5 -116.5q-17 -81 -53 -111t-118 -30zM204 550q56 0 83 22.5t39 80.5q12 55 -3 75t-68 20q-55 0 -81.5 -22.5t-39.5 -80.5q-11 -55 3.5 -75t66.5 -20zM-32 96l635 608h68l-635 -608h-68z
M381 6q-83 0 -109 32.5t-8 116.5q17 81 53.5 111t116.5 30q85 0 110.5 -32.5t8.5 -116.5q-17 -81 -53.5 -111t-118.5 -30zM382 52q56 0 83 22.5t39 80.5q12 55 -3 75t-68 20q-55 0 -81.5 -22.5t-38.5 -80.5q-12 -55 2.5 -75t66.5 -20z" />
    <glyph glyph-name="ampersand" unicode="&#x26;" 
d="M590 366h-83q-36 -149 -121 -248q55 -67 106 -119l-68 2q-38 41 -72 81q-104 -96 -232 -96q-76 0 -112 49t-19 128q10 50 55.5 112t113.5 122q-57 145 -36 243q17 79 66.5 126.5t114.5 47.5q68 0 100 -47.5t16 -124.5q-14 -62 -59.5 -127t-108.5 -110q-16 -10 -32 -23
q47 -106 138 -226q69 86 100 210h-81l10 46h214zM171 635q-18 -84 28 -205q7 7 16 13q59 41 102 98t53 109q12 53 -8 85.5t-64 32.5t-79 -37t-48 -96zM121 32q110 0 202 87q-92 120 -144 231q-57 -49 -94.5 -100.5t-46.5 -93.5q-12 -56 10.5 -90t72.5 -34z" />
    <glyph glyph-name="quotesingle" unicode="'" 
d="M314 492l55 308h70l-75 -308h-50z" />
    <glyph glyph-name="parenleft" unicode="(" 
d="M346 -145q-123 0 -167 151t8 398q52 244 157.5 392.5t228.5 148.5l-5 -46q-101 0 -193 -139t-139 -364q-48 -223 -16.5 -359t131.5 -136z" />
    <glyph glyph-name="parenright" unicode=")" 
d="M66 -145l5 46q101 0 192.5 139t139.5 364q48 223 16.5 359t-131.5 136l5 46q123 0 167 -151t-8 -398q-53 -245 -158 -393t-228 -148z" />
    <glyph glyph-name="asterisk" unicode="*" 
d="M579 513l-213 -113l166 -112l-33 -39l-163 110l-48 -223h-50l47 222l-207 -110l-18 40l213 113l-166 112l33 39l163 -110l48 223h50l-47 -222l207 110z" />
    <glyph glyph-name="plus" unicode="+" 
d="M594 423l-10 -46h-246l-53 -247h-46l53 247h-248l10 46h247l53 247h46l-53 -247h247z" />
    <glyph glyph-name="comma" unicode="," 
d="M91 -202l117 190q-42 7 -29 65q7 34 22.5 46.5t52.5 12.5q40 0 52.5 -15t4.5 -52q-17 -78 -165 -249z" />
    <glyph glyph-name="hyphen" unicode="-" 
d="M134 377l10 46h360l-10 -46h-360z" />
    <glyph glyph-name="period" unicode="." 
d="M236 -14q-40 0 -52.5 14.5t-4.5 52.5q7 34 22.5 46.5t52.5 12.5q40 0 52.5 -15t4.5 -52q-7 -34 -23 -46.5t-52 -12.5z" />
    <glyph glyph-name="slash" unicode="/" 
d="M-35 -182l648 1130h53l-648 -1130h-53z" />
    <glyph glyph-name="zero" unicode="0" 
d="M236 -14q-101 0 -144.5 116.5t-4.5 301.5q38 182 128 296t188 114q101 0 144.5 -117t4.5 -301q-39 -182 -129 -296t-187 -114zM237 32q78 0 155 104t111 268t4 264t-105 100q-78 0 -155 -104t-111 -268t-4 -264t105 -100zM314 353q-25 0 -37 14t-7 37q4 19 19 30t36 11
q24 0 36 -13.5t8 -35.5q-4 -19 -19.5 -31t-35.5 -12z" />
    <glyph glyph-name="one" unicode="1" 
d="M429 798l-3 -15l-156 -737h141l-10 -46h-334l10 46h143l129 613q-71 -63 -173 -63l6 46q69 0 122 40t72 105l3 13h1v2l25 -2h24v-2z" />
    <glyph glyph-name="two" unicode="2" 
d="M4 0l11 48q11 55 65 108.5t124 100.5t141 98t128 120t73 147q18 84 -12.5 115t-132.5 31q-103 0 -150 -33t-66 -119l-49 4q24 112 80.5 153t185.5 41q133 0 175 -43.5t18 -156.5q-13 -62 -47.5 -118.5t-80 -99.5t-97.5 -81.5t-102.5 -72t-93.5 -64.5t-73 -65.5t-37 -68.5
l408 2l-10 -46h-458z" />
    <glyph glyph-name="three" unicode="3" 
d="M236 -14q-127 0 -166 43t-16 155l50 -4q-19 -85 9.5 -116.5t123.5 -31.5q98 0 143.5 39t67.5 141t-0.5 142t-106.5 46h-72l10 46h68q86 6 126.5 41.5t59.5 123.5q19 90 -8.5 123.5t-122.5 33.5q-98 0 -142.5 -30t-60.5 -107l-49 4q22 103 76 141t177 38q126 0 165 -46
t14 -165q-17 -77 -45.5 -115.5t-91.5 -66.5q49 -26 60.5 -72.5t-8.5 -144.5q-27 -125 -83 -171.5t-178 -46.5z" />
    <glyph glyph-name="four" unicode="4" 
d="M343 0l46 216h-345l9 46l465 538h45l-114 -538h74l-10 -46h-74l-46 -216h-50zM115 262h284l96 447z" />
    <glyph glyph-name="five" unicode="5" 
d="M236 -14q-131 0 -172.5 40t-19.5 144l50 -4q-17 -77 13.5 -105.5t129.5 -28.5q109 0 160 46t77 165q25 116 -5 159.5t-136 43.5q-42 0 -79 -13.5t-93 -49.5l-51 1l88 416h419l-9 -45h-369l-70 -323q42 34 77.5 47t88.5 13q137 0 177.5 -56t9.5 -201q-30 -142 -91 -195.5
t-195 -53.5z" />
    <glyph glyph-name="six" unicode="6" 
d="M236 -14q-131 0 -169 55t-8 199l65 305q33 155 92.5 212t186.5 57q130 0 171 -43t17 -155l-49 4q18 86 -11.5 117t-128.5 31q-102 0 -151.5 -49.5t-77.5 -177.5l-28 -128q39 46 79 62.5t111 16.5q131 0 168.5 -56t6.5 -201q-30 -142 -88.5 -195.5t-185.5 -53.5zM237 32
q102 0 150.5 46t74.5 165q25 116 -2.5 159.5t-126.5 43.5q-102 0 -150.5 -46t-74.5 -166q-25 -116 2.5 -159t126.5 -43z" />
    <glyph glyph-name="seven" unicode="7" 
d="M95 2q180 384 471 754l-400 -2l9 46h453l-9 -48q-293 -373 -472 -754z" />
    <glyph glyph-name="eight" unicode="8" 
d="M236 -14q-136 0 -177 50.5t-12 183.5q20 91 52.5 135t102.5 72q-44 26 -54.5 65t5.5 119q25 116 78.5 159.5t171.5 43.5q121 0 158.5 -46t12.5 -165q-17 -77 -43.5 -115t-83.5 -65q57 -26 71.5 -71.5t-5.5 -139.5q-27 -130 -86.5 -178t-190.5 -48zM325 446q93 0 137 36
t63 129q19 90 -7 123.5t-116 33.5q-93 0 -137 -36t-63 -129q-19 -90 7 -123.5t116 -33.5zM237 32q107 0 156.5 41t71.5 147q22 103 -8 141.5t-133 38.5q-107 0 -156.5 -40.5t-72.5 -147.5q-22 -104 8.5 -142t133.5 -38z" />
    <glyph glyph-name="nine" unicode="9" 
d="M236 -14q-131 0 -171.5 43t-17.5 155l50 -4q-19 -85 11 -116.5t129 -31.5q102 0 151.5 49.5t76.5 177.5l29 128q-39 -46 -79 -62.5t-111 -16.5q-130 0 -168.5 55.5t-7.5 201.5q31 143 89.5 196t185.5 53q131 0 169 -55t7 -199l-64 -305q-33 -154 -92.5 -211.5
t-186.5 -57.5zM305 354q102 0 151.5 46t74.5 166q25 116 -2.5 159t-126.5 43q-102 0 -150.5 -46t-74.5 -165q-25 -117 2 -160t126 -43z" />
    <glyph glyph-name="colon" unicode=":" 
d="M343 492q-40 0 -52.5 15t-4.5 52q7 34 23 46.5t52 12.5q40 0 52.5 -14.5t4.5 -52.5q-7 -34 -22.5 -46.5t-52.5 -12.5zM236 -14q-40 0 -52.5 14.5t-4.5 52.5q7 34 22.5 46.5t52.5 12.5q40 0 52.5 -15t4.5 -52q-7 -34 -23 -46.5t-52 -12.5z" />
    <glyph glyph-name="semicolon" unicode=";" 
d="M343 492q-40 0 -52.5 15t-4.5 52q7 34 23 46.5t52 12.5q40 0 52.5 -14.5t4.5 -52.5q-7 -34 -22.5 -46.5t-52.5 -12.5zM91 -202l117 190q-42 7 -29 65q7 34 22.5 46.5t52.5 12.5q40 0 52.5 -15t4.5 -52q-17 -78 -165 -249z" />
    <glyph glyph-name="less" unicode="&#x3c;" 
d="M428 50l-326 350l472 350l27 -34l-426 -316l292 -316z" />
    <glyph glyph-name="equal" unicode="=" 
d="M70 497l10 46h540l-10 -46h-540zM19 257l10 46h540l-10 -46h-540z" />
    <glyph glyph-name="greater" unicode="&#x3e;" 
d="M64 50l-27 34l426 316l-292 316l39 34l326 -350z" />
    <glyph glyph-name="question" unicode="?" 
d="M258 238q10 47 32 79t48.5 47.5t57.5 35.5t58.5 42t52.5 68t39 112q18 84 -12.5 115t-132.5 31q-103 0 -150 -33t-66 -119l-49 4q24 112 80.5 153t185.5 41q133 0 175 -43.5t18 -156.5q-15 -72 -41 -122.5t-54.5 -74.5t-59.5 -44t-57 -33t-47 -39.5t-29 -66.5zM236 -14
q-40 0 -52.5 14.5t-4.5 52.5q7 34 22.5 46.5t52.5 12.5q40 0 52.5 -15t4.5 -52q-7 -34 -23 -46.5t-52 -12.5z" />
    <glyph glyph-name="at" unicode="@" 
d="M239 4q-86 0 -137.5 20.5t-77 70.5t-23.5 128.5t28 199.5q46 213 125 292.5t245 79.5q170 0 217.5 -82t1.5 -298q-31 -145 -64 -199t-92 -54q-32 0 -44.5 14t-12.5 49q-30 -42 -58.5 -57t-77.5 -15q-86 0 -112 35t-7 124l33 157q22 102 60.5 139.5t121.5 37.5
q89 0 115 -39.5t4 -141.5l-37 -174q-11 -49 -7.5 -66t23.5 -17q34 0 57.5 47t48.5 168q40 187 3.5 256.5t-174.5 69.5q-141 0 -210.5 -72.5t-109.5 -261.5q-45 -209 -10 -287t173 -78q60 0 113 40l18 -43q-69 -43 -133 -43zM270 199q61 0 91 32t48 114l26 124q16 76 1 103.5
t-72 27.5q-58 0 -86.5 -29.5t-45.5 -105.5l-33 -157q-13 -63 2 -86t69 -23z" />
    <glyph glyph-name="A" unicode="A" 
d="M433 0l-13 216h-278l-105 -216h-53l392 800h56l52 -800h-51zM164 262h253l-28 463z" />
    <glyph glyph-name="B" unicode="B" 
d="M28 0l170 800h188q122 0 160.5 -44t13.5 -158q-16 -76 -45 -112.5t-93 -58.5q67 -20 85.5 -64.5t-2.5 -142.5q-27 -126 -82.5 -173t-177.5 -47h-217zM173 446h138q94 0 138 34.5t63 125.5q18 86 -9.5 117t-121.5 31h-142zM88 46h163q94 0 139 39.5t67 142.5
q21 99 -6 135.5t-121 36.5h-167z" />
    <glyph glyph-name="C" unicode="C" 
d="M251 -14q-95 0 -138.5 38t-49 131.5t30.5 249.5q50 234 119 321.5t205 87.5q91 0 130 -36t49 -128l-50 -13q-8 76 -35.5 103.5t-94.5 27.5q-111 0 -170.5 -80.5t-103.5 -290.5q-44 -209 -21 -287t130 -78q69 0 110.5 28.5t82.5 103.5l46 -20q-48 -91 -99.5 -124.5
t-140.5 -33.5z" />
    <glyph glyph-name="D" unicode="D" 
d="M415 800q130 0 161.5 -87t-16.5 -317q-49 -227 -115 -311.5t-196 -84.5h-230l170 800h226zM511 404q43 200 21.5 275t-122.5 75h-181l-149 -708h175q102 0 157.5 77.5t98.5 280.5z" />
    <glyph glyph-name="E" unicode="E" 
d="M621 754h-375l-65 -308h240l-10 -46h-240l-75 -354h374l-10 -46h-424l170 800h424z" />
    <glyph glyph-name="F" unicode="F" 
d="M622 754h-375l-74 -354h239l-9 -46h-242l-74 -354h-50l170 800h424z" />
    <glyph glyph-name="G" unicode="G" 
d="M255 -14q-145 0 -180.5 90t14.5 328q50 235 121 322.5t212 87.5q99 0 139 -39.5t47 -141.5l-48 -8q-5 82 -35 112.5t-104 30.5q-116 0 -177.5 -80.5t-105.5 -291.5q-45 -208 -20 -286t138 -78q69 0 111.5 27.5t82.5 97.5l43 197h-174l9 46h224l-53 -254
q-49 -92 -101.5 -126t-142.5 -34z" />
    <glyph glyph-name="H" unicode="H" 
d="M570 800h50l-170 -800h-50l85 400h-332l-85 -400h-50l170 800h50l-75 -354h332z" />
    <glyph glyph-name="I" unicode="I" 
d="M582 754h-163l-150 -708h162l-10 -46h-374l10 46h162l150 708h-161l9 46h374z" />
    <glyph glyph-name="J" unicode="J" 
d="M200 -14q-93 0 -131.5 35t-47.5 126l48 9q7 -72 35 -98t97 -26q110 0 167 69t95 249l86 404h-131l9 46h181l-96 -454q-44 -206 -111 -283t-201 -77z" />
    <glyph glyph-name="K" unicode="K" 
d="M658 800l-378 -367l212 -433h-59l-195 400h-79l-85 -400h-50l170 800h50l-75 -354h61l365 354h63z" />
    <glyph glyph-name="L" unicode="L" 
d="M55 0l170 800h50l-160 -754h335l-10 -46h-385z" />
    <glyph glyph-name="M" unicode="M" 
d="M-6 0l184 800h51l75 -466l275 466h51l-156 -800h-50l132 674l-240 -412h-50l-66 412l-156 -674h-50z" />
    <glyph glyph-name="N" unicode="N" 
d="M568 800h50l-170 -800h-53l-177 695l-148 -695h-50l170 800h54l177 -693z" />
    <glyph glyph-name="O" unicode="O" 
d="M236 -14q-135 0 -169 81.5t11 294.5l17 80q46 213 111.5 292.5t196.5 79.5q134 0 168.5 -81.5t-11.5 -294.5l-17 -80q-45 -213 -110.5 -292.5t-196.5 -79.5zM237 32q106 0 161.5 71.5t95.5 258.5l17 80q40 187 17 256.5t-126 69.5q-107 0 -163 -71.5t-95 -258.5l-17 -80
q-39 -187 -15.5 -256.5t125.5 -69.5z" />
    <glyph glyph-name="P" unicode="P" 
d="M422 800q122 0 159 -49.5t10 -177.5q-26 -125 -81.5 -172t-177.5 -47h-167l-75 -354h-50l170 800h212zM543 581q21 100 -5.5 136.5t-120.5 36.5h-168l-74 -354h162q94 0 139 39.5t67 141.5z" />
    <glyph glyph-name="Q" unicode="Q" 
d="M470 -137q43 0 78 10.5t61.5 25.5t54.5 30.5t71 28.5t96 16l-9 -47q-55 -4 -101 -22.5t-73.5 -37.5t-74 -34.5t-103.5 -15.5q-53 0 -90.5 18t-87 62.5t-66.5 56.5q-12 -7 -32 -21t-30 -20.5t-26 -12t-33 -5.5q-48 0 -67.5 26.5t-2.5 70.5q15 38 45 51q-54 77 -2 319
l17 80q46 213 111.5 292.5t196.5 79.5q134 0 168.5 -81.5t-11.5 -294.5l-17 -80q-39 -185 -92 -267t-147 -99q-10 -4 -31 -13q14 -11 45.5 -39.5t47 -40.5t44.5 -24t60 -12zM127 358q-39 -187 -15.5 -256.5t125.5 -69.5q106 0 161.5 71.5t95.5 258.5l17 80q40 187 17 256.5
t-126 69.5q-107 0 -163 -71.5t-95 -258.5zM105 -59q9 0 18 4t15 7.5t20.5 14.5t21.5 16q-27 12 -36 15q-22 8 -40 2t-25 -22q-8 -16 -0.5 -26.5t26.5 -10.5z" />
    <glyph glyph-name="R" unicode="R" 
d="M414 800q122 0 159 -49.5t10 -177.5q-26 -125 -81.5 -172t-176.5 -47l155 -354h-57l-155 354h-110l-76 -354h-50l170 800h212zM535 581q21 100 -5.5 136.5t-120.5 36.5h-166l-76 -354h162q94 0 139 39.5t67 141.5z" />
    <glyph glyph-name="S" unicode="S" 
d="M236 -14q-98 0 -143.5 24t-66.5 87l43 31q13 -55 49 -75.5t119 -20.5q101 0 148.5 40.5t69.5 146.5q15 70 -13 108.5t-119 71.5q-113 40 -149.5 85.5t-19.5 127.5q25 116 77.5 159t171.5 43q89 0 131.5 -21t64.5 -75l-40 -33q-15 48 -48.5 65.5t-108.5 17.5
q-93 0 -136.5 -35.5t-62.5 -128.5q-13 -61 13 -94.5t109 -62.5q121 -40 159.5 -91t18.5 -145q-27 -129 -84.5 -177t-182.5 -48z" />
    <glyph glyph-name="T" unicode="T" 
d="M672 800l-9 -46h-244l-160 -754h-50l160 754h-242l9 46h536z" />
    <glyph glyph-name="U" unicode="U" 
d="M236 -14q-123 0 -156 67t5 242l107 505h50l-108 -509q-32 -149 -10 -204t113 -55q94 0 142.5 57.5t79.5 205.5l107 505h50l-108 -509q-37 -175 -95 -240t-177 -65z" />
    <glyph glyph-name="V" unicode="V" 
d="M207 0l-48 800h53l40 -710l344 710h55l-388 -800h-56z" />
    <glyph glyph-name="W" unicode="W" 
d="M77 0l63 800h50l-57 -685l190 421h50l10 -421l235 685h52l-277 -800h-51l-12 445l-202 -445h-51z" />
    <glyph glyph-name="X" unicode="X" 
d="M643 800l-296 -399l127 -401h-56l-110 348l-258 -348h-54l296 399l-127 401h56l110 -348l258 348h54z" />
    <glyph glyph-name="Y" unicode="Y" 
d="M209 0l67 308l-129 492h54l111 -430l295 430h56l-337 -492l-67 -308h-50z" />
    <glyph glyph-name="Z" unicode="Z" 
d="M449 -63q-45 0 -135.5 37.5t-148.5 37.5q-5 0 -56 -6t-116 -6l8 41l575 713h-420l9 46h480l-8 -42l-574 -712q21 0 55.5 6t57.5 6q64 0 152 -37.5t131 -37.5q48 0 117.5 31.5t116.5 31.5l-10 -46q-25 0 -58 -15.5t-77.5 -31.5t-98.5 -16z" />
    <glyph glyph-name="bracketleft" unicode="[" 
d="M585 899h-230l-211 -998h229l-10 -46h-280l232 1090h280z" />
    <glyph glyph-name="backslash" unicode="\" 
d="M374 -182l-168 1130h51l168 -1130h-51z" />
    <glyph glyph-name="bracketright" unicode="]" 
d="M275 945h280l-232 -1090h-280l10 46h231l211 998h-230z" />
    <glyph glyph-name="asciicircum" unicode="^" 
d="M549 575l-154 173l-229 -171l-33 30l273 205l187 -207z" />
    <glyph glyph-name="underscore" unicode="_" 
d="M-74 -182l9 46h540l-9 -46h-540z" />
    <glyph glyph-name="grave" unicode="`" 
d="M445 634l-150 168l42 38l150 -168z" />
    <glyph glyph-name="a" unicode="a" 
d="M495 53l24 -37q-32 -30 -88 -30q-31 0 -50 16t-19 42q0 44 9 69q-29 -57 -75.5 -92t-95.5 -35q-76 0 -122 47.5t-46 125.5q0 100 50.5 211.5t129 186.5t151.5 75q69 0 107 -19.5t38 -67.5q0 -16 -92 -450q-7 -29 -0.5 -46t33.5 -17q25 0 46 21zM200 32q59 0 115 62
t87 163q56 260 56 283q0 26 -21.5 36t-73.5 10q-58 0 -125 -69.5t-111.5 -170.5t-44.5 -187q0 -57 32.5 -92t85.5 -35z" />
    <glyph glyph-name="b" unicode="b" 
d="M587 438l-8 -46h-57q-43 -183 -123 -294.5t-168 -111.5q-77 0 -116 34.5t-43 96t10 145.5l115 538h50l-115 -538q-12 -70 -13.5 -121t26 -80t87.5 -29q68 0 134 100t107 264q-47 0 -75.5 23t-28.5 65q0 35 22.5 58t62.5 23q50 0 67.5 -30.5t9.5 -96.5h56zM411 488
q0 -47 69 -47q15 86 -31 86q-19 0 -28.5 -11.5t-9.5 -27.5z" />
    <glyph glyph-name="c" unicode="c" 
d="M428 116l39 -29q-52 -58 -101 -79.5t-136 -21.5q-123 0 -156.5 70t6.5 257q31 140 119 229.5t183 89.5q73 0 111 -22.5t66 -81.5l-45 -21q-22 45 -50.5 62t-82.5 17q-78 0 -152.5 -79t-100.5 -202q-32 -156 -9 -214.5t112 -58.5q70 0 110.5 17.5t86.5 66.5z" />
    <glyph glyph-name="d" unicode="d" 
d="M478 32q25 0 46 21l24 -37q-32 -30 -88 -30q-69 0 -69 68q-51 -68 -200 -68q-111 0 -139.5 70t9.5 256q30 146 109.5 233t188.5 87q50 0 86 -25.5t44 -66.5l56 260h50l-150 -705q-7 -29 -0.5 -46t33.5 -17zM192 32q73 0 130.5 24.5t77.5 65.5l65 296q11 76 -18.5 122
t-88.5 46q-89 0 -155.5 -76.5t-93.5 -205.5q-32 -155 -13.5 -213.5t96.5 -58.5z" />
    <glyph glyph-name="e" unicode="e" 
d="M260 35q50 0 106.5 24t99.5 64l26 -41q-48 -43 -113.5 -69.5t-124.5 -26.5q-70 0 -117 49.5t-47 127.5v21q-35 -12 -49 -26l-24 41q19 19 76 37q16 176 101 286t207 110q62 0 97 -31.5t35 -96.5q0 -55 -27 -101t-55.5 -73t-94 -56t-91 -37t-98.5 -29q-18 -6 -26 -8
q-1 -13 -1 -41q0 -54 35 -89t85 -35zM400 586q-97 0 -167 -92.5t-88 -241.5q151 43 212 75q126 67 126 177q0 40 -24 61t-59 21z" />
    <glyph glyph-name="f" unicode="f" horiz-adv-x="602" 
d="M187 -206q-43 0 -69 28.5t-26 74.5q0 146 75 413q-53 31 -78 52.5t-25 42.5q0 37 75 37h70q23 74 40.5 125t41 101.5t46.5 80t53 47.5t64 18q71 0 107 -35t46 -101l-46 -16q-7 53 -28.5 79.5t-70.5 26.5q-18 0 -33.5 -5t-30 -19t-26 -27t-24.5 -39.5t-22 -45.5t-22.5 -57
t-21.5 -62t-23 -71h251l-10 -46h-257q-8 -21 -20 -62q150 -115 150 -256q0 -128 -51 -206t-135 -78zM180 354l14 42q-9 0 -32 3.5t-35 4.5t-20 -3q1 -3 0 -5t5.5 -6.5t10 -7t13 -7t15 -7.5t15.5 -7.5t14 -6.5zM186 -160q62 0 99.5 65.5t37.5 172.5q0 112 -116 206
q-65 -238 -65 -387q0 -25 12 -41t32 -16z" />
    <glyph glyph-name="g" unicode="g" 
d="M115 -206q-48 0 -77.5 19.5t-29.5 50.5q0 54 98.5 85t268.5 31q23 36 40 128q-12 -26 -68.5 -44t-111.5 -18q-76 0 -122 47.5t-46 125.5q0 98 54 195.5t133.5 157.5t154.5 60q69 0 107 -19.5t38 -67.5q0 -38 -55 -285t-72 -280q52 0 86 9l-10 -45q-33 -9 -98 -9
q-37 -64 -117 -102.5t-173 -38.5zM235 92q97 0 142 24.5t62 102.5q65 302 65 321q0 32 -19 39t-76 7q-45 0 -97 -33t-94.5 -84t-71.5 -119t-29 -131q0 -57 32.5 -92t85.5 -35zM127 -160q62 0 123.5 26t98.5 69q-131 -4 -211 -23.5t-80 -47.5q0 -11 19 -17.5t50 -6.5z" />
    <glyph glyph-name="h" unicode="h" 
d="M496 53l24 -37q-32 -30 -88 -30q-32 0 -51.5 16t-19.5 42q0 93 82 361q28 98 9 139.5t-82 41.5q-76 0 -156 -101.5t-100 -196.5l-61 -288h-51l170 800h50l-75 -352q45 84 103 134t121 50q197 0 122 -231q-80 -247 -80 -336q0 -15 10 -24t27 -9q25 0 46 21z" />
    <glyph glyph-name="i" unicode="i" 
d="M332 736q-40 0 -52.5 15t-4.5 52q8 35 23 47t52 12q40 0 52.5 -15t4.5 -52q-7 -34 -22.5 -46.5t-52.5 -12.5zM338 -14q-115 0 -148 60.5t7 215.5l64 231q6 33 -3.5 52t-43.5 27l12 46q102 -21 87 -112l-66 -244q-33 -129 -11 -179.5t102 -50.5q38 0 64 16.5t58 59.5
l40 -28q-41 -53 -76 -73.5t-86 -20.5z" />
    <glyph glyph-name="j" unicode="j" 
d="M495 736q-40 0 -52.5 15t-4.5 52q8 35 23 47t52 12q40 0 52.5 -15t4.5 -52q-7 -34 -22.5 -46.5t-52.5 -12.5zM55 -206q-48 0 -77.5 19.5t-29.5 50.5q0 54 98.5 85t268.5 31q23 40 118 507q7 33 -2 52.5t-43 28.5l14 45q101 -24 83 -115q-92 -465 -120 -518q55 0 88 9
l-10 -45q-33 -9 -98 -9q-37 -64 -117 -102.5t-173 -38.5zM67 -160q62 0 123.5 26t98.5 69q-131 -4 -211 -23.5t-80 -47.5q0 -11 19 -17.5t50 -6.5z" />
    <glyph glyph-name="k" unicode="k" 
d="M410 32q15 0 37 18t34 42l34 -37q-27 -35 -50.5 -52t-55.5 -17q-85 0 -85 181q0 76 -51 124l21 40q101 0 162.5 47.5t61.5 124.5q0 36 -28.5 59.5t-66.5 23.5q-79 0 -152.5 -75.5t-105.5 -195.5l-67 -315h-50l64 300h-1q1 3 2.5 10t2.5 10l102 480h50l-63 -296
q46 61 104 94.5t116 33.5q60 0 101.5 -35t41.5 -89q0 -86 -62 -146.5t-163 -74.5q35 -52 35 -117q0 -40 0.5 -58t3.5 -40.5t9.5 -31t18.5 -8.5z" />
    <glyph glyph-name="l" unicode="l" 
d="M333 32q29 0 63 21t59 55l40 -28q-32 -42 -77 -68t-85 -26q-56 0 -91.5 39t-38.5 104q-98 -80 -210 -129l-20 42q122 54 230 150q4 301 53 461.5t161 160.5q45 0 71 -32.5t26 -86.5q0 -142 -71 -278t-190 -245v-3q0 -62 22 -99.5t58 -37.5zM409 767q-69 0 -109.5 -142
t-45.5 -385q97 99 153.5 216.5t56.5 238.5q0 33 -14.5 52.5t-40.5 19.5z" />
    <glyph glyph-name="m" unicode="m" 
d="M494 -14q-32 0 -51.5 16t-19.5 42q0 90 83 361q30 98 27.5 139.5t-37.5 41.5q-42 0 -68 -20t-51 -83.5t-51 -186.5l-62 -296h-50l85 405q24 92 23.5 136.5t-41.5 44.5q-39 0 -63 -20.5t-46.5 -82.5t-49.5 -189l-63 -294h-50l114 533q2 14 2 20q0 33 -33 33q-29 0 -50 -21
l-24 37q32 30 88 30q71 0 60 -89q15 33 46 61t70 28q42 0 60.5 -17.5t17.5 -41.5t0 -50q54 109 137 109q68 0 82.5 -54.5t-24.5 -176.5q-80 -247 -80 -336q0 -15 10 -24t27 -9q25 0 46 21l24 -37q-32 -30 -88 -30z" />
    <glyph glyph-name="n" unicode="n" 
d="M516 53l24 -37q-32 -30 -88 -30q-32 0 -51.5 16t-19.5 42q0 93 82 361q55 181 -63 181q-47 0 -101.5 -51t-93.5 -120t-51 -127l-61 -288h-51l114 533q2 14 2 20q0 15 -10 24t-27 9q-25 0 -46 -21l-24 37q32 30 88 30q34 0 55.5 -25t12.5 -67l-20 -92q44 83 101 133.5
t113 50.5q88 0 118 -54.5t-6 -176.5q-80 -247 -80 -336q0 -15 10 -24t27 -9q25 0 46 21z" />
    <glyph glyph-name="o" unicode="o" 
d="M236 -14q-125 0 -157.5 71t7.5 256q30 143 106.5 231t171.5 88q125 0 157.5 -71t-7.5 -256q-30 -143 -106.5 -231t-171.5 -88zM237 32q76 0 139 77t90 204q33 157 11 215t-114 58q-76 0 -139 -77t-90 -204q-33 -157 -11 -215t114 -58z" />
    <glyph glyph-name="p" unicode="p" 
d="M390 632q123 0 152 -71t-12 -256q-30 -145 -102 -232t-166 -87q-62 0 -103 14.5t-43 44.5l-49 -227h-50l100 469q1 8 5 26q1 7 5 21l42 199q2 16 2 20q0 15 -10 24t-27 9q-25 0 -46 -21l-24 37q32 30 88 30q35 0 54.5 -22.5t12.5 -70.5q19 42 69 67.5t102 25.5zM482 313
q35 157 16.5 215t-109.5 58q-52 0 -89 -19.5t-70 -76.5t-53 -155l-17 -83q-13 -63 -15.5 -102.5t1 -64t21.5 -36t38 -14.5t58 -3q75 0 133.5 76t85.5 205z" />
    <glyph glyph-name="q" unicode="q" 
d="M511 618h50l-170 -800h-50l55 256q-17 -35 -67 -61.5t-103 -26.5q-123 0 -152 71t12 256q30 145 102 232t166 87q68 0 104 -21.5t38 -55.5zM227 32q40 0 69.5 10.5t57.5 38t50 80.5t38 133l13 63q12 60 15.5 100t-0.5 66t-20 39.5t-38 18.5t-59 5q-75 0 -133.5 -76
t-85.5 -205q-35 -157 -16.5 -215t109.5 -58z" />
    <glyph glyph-name="r" unicode="r" 
d="M389 32q27 0 51.5 18.5t38.5 48.5l46 -18q-18 -43 -55.5 -69t-80.5 -26q-44 0 -71 29t-27 77q0 86 39 201t103 218q-109 -57 -193 -57h-19q-33 -80 -105 -163l-31 40q58 63 88 130q-45 11 -70.5 35t-25.5 57q0 35 24 57t64 22q35 0 56 -25.5t21 -67.5q0 -16 -5 -39h3
q45 0 114.5 27t138.5 71l36 -25q-85 -126 -136.5 -258t-51.5 -223q0 -27 13 -43.5t35 -16.5zM127 553q0 -35 60 -48q5 22 5 36q0 45 -33 45q-13 0 -22.5 -9t-9.5 -24z" />
    <glyph glyph-name="s" unicode="s" 
d="M217 -14q-65 0 -117.5 30t-83.5 82l44 20q22 -39 62.5 -62.5t84.5 -23.5q86 0 136 74.5t50 181.5q0 80 -38 133q-38 -52 -104 -89.5t-135 -45.5l-9 46q64 7 123.5 42t93.5 87q-26 25 -41.5 53.5t-15.5 47.5q0 31 19 50.5t52 19.5q36 0 56.5 -20t20.5 -53q0 -50 -33 -95
q28 -34 44.5 -84t16.5 -98q0 -137 -87 -229q37 12 77.5 34t59.5 43l31 -32q-44 -50 -128.5 -81t-178.5 -31zM349 497q18 32 18 58q0 36 -27 36q-25 0 -25 -28q0 -27 34 -66z" />
    <glyph glyph-name="t" unicode="t" 
d="M301 -14q-97 0 -125 51t-3 169l78 366h-124l10 46h124l38 182h50l-38 -182h208l-10 -46h-208l-79 -370q-20 -90 -2.5 -130t82.5 -40q54 0 83 13.5t49 47.5l45 -20q-30 -51 -68 -69t-110 -18z" />
    <glyph glyph-name="u" unicode="u" 
d="M76 565l-24 37q32 30 88 30q32 0 51.5 -16t19.5 -42q0 -93 -82 -361q-28 -98 -9 -139.5t82 -41.5q69 0 142.5 101.5t93.5 196.5l61 288h51l-114 -533q-2 -14 -2 -20q0 -15 10 -24t27 -9q25 0 46 21l24 -37q-32 -30 -88 -30q-34 0 -55.5 25t-12.5 67l20 92
q-98 -184 -204 -184q-197 0 -122 231q80 247 80 336q0 15 -10 24t-27 9q-25 0 -46 -21z" />
    <glyph glyph-name="v" unicode="v" 
d="M207 0l-73 618h50l67 -541q32 57 105.5 169.5t122 202.5t65.5 169h53q-23 -92 -79 -195t-138 -228.5t-119 -194.5h-54z" />
    <glyph glyph-name="w" unicode="w" 
d="M575 618h52q-21 -92 -60.5 -194.5t-95.5 -229.5t-82 -194h-48l-30 315q-27 -58 -93.5 -165t-89.5 -150h-48l25 618h50l-23 -528q10 17 39 63.5t42.5 70t33.5 61.5t32 70t19 63h50l32 -321q13 31 53 125t59 140t44 120.5t39 135.5z" />
    <glyph glyph-name="x" unicode="x" 
d="M581 618q-21 -50 -64.5 -109t-81 -100.5t-103.5 -108.5l117 -300h-56l-101 259q-162 -166 -215 -259h-58q27 47 74.5 104.5t80.5 92t101 104.5l-124 317h56l108 -275q163 168 208 275h58z" />
    <glyph glyph-name="y" unicode="y" 
d="M115 -206q-48 0 -77.5 19.5t-29.5 50.5q0 54 98.5 85t268.5 31q29 49 42 126q-10 -32 -56 -46t-96 -14q-77 0 -118 54t-20 119q78 239 78 334q0 15 -10 24t-27 9q-25 0 -46 -21l-24 37q32 30 88 30q31 0 50 -16t19 -42q0 -103 -78 -355q-18 -57 8.5 -92t79.5 -35
q46 0 76 7t58.5 36.5t39.5 83.5l84 399h50q-38 -180 -55 -260.5t-38.5 -178t-33.5 -140t-21 -59.5q55 0 88 9l-10 -45q-33 -9 -98 -9q-37 -64 -117 -102.5t-173 -38.5zM127 -160q62 0 123.5 26t98.5 69q-131 -4 -211 -23.5t-80 -47.5q0 -11 19 -17.5t50 -6.5z" />
    <glyph glyph-name="z" unicode="z" 
d="M411 3q54 0 122 21.5t112 21.5l-10 -46q-24 0 -91 -21.5t-143 -21.5q-44 0 -110.5 26t-101.5 26q-6 0 -50 -4.5t-104 -4.5l6 31l444 541h-327l10 46h395l-6 -31l-443 -541q4 0 31.5 4.5t54.5 4.5q40 0 104.5 -26t106.5 -26z" />
    <glyph glyph-name="braceleft" unicode="{" 
d="M384 -145q-110 0 -155.5 46t-21.5 157q6 28 28 90t27 85q13 58 -127 169q187 111 200 177q5 20 8 77.5t10 92.5q24 109 86 152.5t172 43.5l-5 -46q-83 0 -135 -37.5t-71 -124.5q-8 -35 -9 -84.5t-5 -71.5q-11 -52 -53 -95.5t-116 -87.5q55 -44 78.5 -86.5t12.5 -96.5
q-4 -18 -24 -70t-28 -92q-18 -84 16.5 -118t116.5 -34z" />
    <glyph glyph-name="bar" unicode="|" 
d="M171 -182l240 1130h50l-240 -1130h-50z" />
    <glyph glyph-name="braceright" unicode="}" 
d="M28 -145l5 46q83 0 134 36.5t70 123.5q8 37 10.5 89t6.5 73q11 52 52 93t116 86q-111 89 -91 187q4 18 24.5 67.5t28.5 88.5q18 85 -16.5 119.5t-117.5 34.5l5 46q110 0 155.5 -46.5t21.5 -157.5q-7 -32 -28 -89.5t-26 -80.5q-6 -29 25 -73.5t101 -99.5
q-186 -110 -200 -173q-4 -20 -8.5 -82t-10.5 -93q-23 -109 -85 -152t-172 -43z" />
    <glyph glyph-name="asciitilde" unicode="~" 
d="M424 317q-68 0 -122 69q-51 51 -89 51q-44 0 -73.5 -23.5t-38.5 -60.5l-49 4q12 56 56 91t107 35q69 0 121 -69q53 -51 89 -51q45 0 74.5 23.5t37.5 60.5l49 -4q-11 -56 -55 -91t-107 -35z" />
    <glyph glyph-name="uni00A0" unicode="&#xa0;" 
 />
    <glyph glyph-name="exclamdown" unicode="&#xa1;" 
d="M343 492q-40 0 -52.5 15t-4.5 52q7 34 23 46.5t52 12.5q40 0 52.5 -14.5t4.5 -52.5q-7 -34 -22.5 -46.5t-52.5 -12.5zM161 -182l134 584h50l-114 -584h-70z" />
    <glyph glyph-name="cent" unicode="&#xa2;" 
d="M403 632q64 -2 98.5 -25t61.5 -79l-45 -21q-22 44 -48.5 61t-75.5 18l-118 -553q47 3 82 22t74 61l39 -29q-50 -56 -94.5 -77.5t-110.5 -23.5l-12 -56h-50l12 57q-112 9 -140.5 81.5t8.5 244.5q36 172 94.5 241.5t174.5 76.5l12 55h50zM132 305q-31 -145 -11 -205
t105 -67l117 551q-87 -10 -134 -72.5t-77 -206.5z" />
    <glyph glyph-name="sterling" unicode="&#xa3;" 
d="M504 812q47 0 72 -8t46 -28l-33 -35q-26 25 -87 25q-122 0 -180 -55t-89 -199q-11 -52 -12 -88h202l-9 -46h-191q1 -13 7 -50q19 -84 8 -136q-11 -55 -33.5 -86.5t-71.5 -60.5l341 1l-10 -46h-442l-1 46q82 26 119 59t50 95q7 39 -6 118q-9 48 -10 60h-80l9 46h70
q0 40 12 96q35 167 103.5 229.5t215.5 62.5z" />
    <glyph glyph-name="currency" unicode="&#xa4;" 
d="M583 536l-106 -91q42 -53 24 -141q-18 -85 -82 -137l67 -87l-40 -32l-70 90q-52 -26 -114 -26q-63 0 -107 28l-109 -92l-30 32l106 90q-42 55 -23 142q18 84 81 138l-67 86l41 32l70 -90q50 26 113 26q64 0 108 -28l109 92zM453 312q14 66 -18 106t-99 40
q-70 0 -122 -42.5t-67 -111.5q-14 -66 18 -106t99 -40q70 0 122 42.5t67 111.5z" />
    <glyph glyph-name="yen" unicode="&#xa5;" 
d="M663 800l-304 -444h131l-10 -46h-153l-1 -2l-20 -90h155l-10 -46h-155l-37 -172h-50l37 172h-155l10 46h155l20 90l-1 2h-155l10 46h133l-116 444h54l111 -430l295 430h56z" />
    <glyph glyph-name="brokenbar" unicode="&#xa6;" 
d="M311 478l100 470h50l-100 -470h-50zM171 -182l100 470h50l-100 -470h-50z" />
    <glyph glyph-name="section" unicode="&#xa7;" 
d="M403 814q77 0 114 -22.5t57 -79.5l-43 -28q-15 49 -42.5 66.5t-86.5 17.5q-92 0 -134 -30t-58 -109q-14 -67 13.5 -98.5t112.5 -31.5h1h1q193 -1 154 -184q-15 -69 -38.5 -110.5t-62.5 -61.5q74 -40 47 -162q-22 -102 -73 -139.5t-168 -37.5q-77 0 -114 22.5t-57 79.5
l43 28q15 -49 42.5 -66.5t86.5 -17.5q92 0 134 30t58 109q14 67 -13.5 98.5t-112.5 31.5h-1h-1q-193 1 -154 184q15 69 38.5 110.5t62.5 61.5q-74 40 -47 162q22 102 73 139.5t168 37.5zM334 451h-2q-80 0 -119 -35t-57 -121q-28 -128 110 -128h2q80 0 119 35t57 121
q28 128 -110 128z" />
    <glyph glyph-name="dieresis" unicode="&#xa8;" 
d="M286 732q-33 0 -43.5 12.5t-3.5 43.5q5 27 17.5 36.5t42.5 9.5q33 0 44 -12t4 -42q-6 -28 -18.5 -38t-42.5 -10zM502 732q-33 0 -43.5 12.5t-3.5 43.5q5 27 17.5 36.5t42.5 9.5q33 0 44 -12t4 -42q-6 -28 -18.5 -38t-42.5 -10z" />
    <glyph glyph-name="copyright" unicode="&#xa9;" 
d="M245 32q-130 0 -190 90t-29 237q30 144 125.5 231.5t222.5 87.5q130 0 190.5 -90t29.5 -237q-31 -144 -126.5 -231.5t-222.5 -87.5zM247 78q107 0 189.5 77.5t109.5 203.5q26 123 -21.5 198t-151.5 75q-107 0 -189.5 -77.5t-109.5 -203.5q-26 -123 21.5 -198t151.5 -75z
M272 157q-84 0 -107.5 43.5t0.5 157.5q24 110 62.5 151t119.5 41q52 0 76 -11.5t35 -41.5l-48 -25q-7 19 -20 25.5t-44 6.5q-56 0 -85 -33.5t-47 -120.5q-18 -85 -5.5 -116t64.5 -31t80 31l38 -36q-23 -24 -48 -32.5t-71 -8.5z" />
    <glyph glyph-name="ordfeminine" unicode="&#xaa;" 
d="M301 371q-89 0 -117.5 28.5t-12.5 102.5q14 65 51 89t125 24h105l11 52q13 58 -3.5 79.5t-73.5 21.5q-43 0 -67.5 -15.5t-44.5 -53.5l-48 12q31 60 65 81.5t96 21.5q88 0 115.5 -33t9.5 -118l-43 -204q-4 -19 1.5 -25t27.5 -7l-6 -47q-38 0 -53 13.5t-13 45.5
q-28 -40 -54.5 -54t-70.5 -14zM303 417q60 0 89 25.5t43 90.5l9 44h-101q-59 0 -86 -18t-38 -65q-9 -45 8.5 -61t75.5 -16zM109 236l10 46h360l-10 -46h-360z" />
    <glyph glyph-name="guillemotleft" unicode="&#xab;" 
d="M212 179l-132 221l225 221h62l-225 -221l130 -221h-60zM451 179l-132 221l225 221h62l-225 -221l130 -221h-60z" />
    <glyph glyph-name="logicalnot" unicode="&#xac;" 
d="M484 286l39 181h-403l9 46h453l-48 -227h-50z" />
    <glyph glyph-name="uni00AD" unicode="&#xad;" 
d="M134 377l10 46h360l-10 -46h-360z" />
    <glyph glyph-name="registered" unicode="&#xae;" 
d="M403 814q103 0 160.5 -74t35.5 -179q-22 -102 -107.5 -173.5t-185.5 -71.5q-103 0 -160.5 74t-35.5 179q22 102 107.5 173.5t185.5 71.5zM550 569q18 83 -25.5 141t-122.5 58q-82 0 -153.5 -60.5t-89.5 -146.5q-18 -83 25.5 -141t122.5 -58q82 0 153.5 60.5t89.5 146.5z
M379 718q117 0 95 -102q-6 -27 -28 -51t-55 -35l46 -112h-56l-44 104h-42l-22 -104h-50l64 300h92zM426 624q4 19 -9 33.5t-44 14.5h-46l-22 -104h42q32 0 53 17t26 39z" />
    <glyph glyph-name="macron" unicode="&#xaf;" 
d="M251 724l10 46h274l-10 -46h-274z" />
    <glyph glyph-name="degree" unicode="&#xb0;" 
d="M339 474q-82 0 -122 48t-24 126q16 75 73.5 120.5t136.5 45.5q82 0 122 -48t24 -126q-16 -75 -73.5 -120.5t-136.5 -45.5zM341 520q59 0 103.5 35.5t56.5 92.5q11 54 -16 87t-83 33q-59 0 -103.5 -35.5t-57.5 -92.5q-11 -54 16.5 -87t83.5 -33z" />
    <glyph glyph-name="plusminus" unicode="&#xb1;" 
d="M359 479h247l-10 -46h-247l-42 -197h-46l42 197h-247l10 46h247l42 197h46zM-10 123l10 46h540l-10 -46h-540z" />
    <glyph glyph-name="uni00B2" unicode="&#xb2;" 
d="M198 426l7 36q6 30 33.5 58.5t62.5 52.5t70.5 49.5t64 58.5t36.5 70q8 36 -4 48t-57 12q-50 0 -70 -16t-28 -62l-49 5q12 67 44 93t104 26q73 0 97 -25.5t11 -88.5q-11 -51 -50 -96.5t-80 -71t-81 -54.5t-50 -51l202 2l-9 -46h-254z" />
    <glyph glyph-name="uni00B3" unicode="&#xb3;" 
d="M327 419q-72 0 -94 28t-5 96l50 -5q-12 -44 -2.5 -58.5t53.5 -14.5t64 17t30 64q10 46 1.5 62t-44.5 19h-50l10 46l45 -1q38 3 55 18.5t26 55.5q8 40 -3 52.5t-52 12.5q-48 0 -65.5 -14.5t-24.5 -55.5l-49 5q11 63 41 87t99 24t92.5 -27t9.5 -92q-14 -64 -58 -90
q33 -28 16 -110q-14 -66 -46.5 -92.5t-98.5 -26.5z" />
    <glyph glyph-name="acute" unicode="&#xb4;" 
d="M297 634l-30 38l218 168l30 -38z" />
    <glyph glyph-name="uni00B5" unicode="&#xb5;" 
d="M-13 -182l170 800h50l-95 -445q-13 -80 10.5 -110.5t95.5 -30.5q40 0 85.5 17t86 55.5t50.5 88.5l91 425h50l-132 -618h-50l19 82q-31 -48 -86 -72t-115 -24q-99 0 -135 39l-45 -207h-50z" />
    <glyph glyph-name="paragraph" unicode="&#xb6;" 
d="M259 0l88 414h-92q-88 0 -113 42.5t-2 154.5q23 109 64 149t129 40h146l-170 -800h-50zM359 0l170 800h50l-170 -800h-50z" />
    <glyph glyph-name="periodcentered" unicode="&#xb7;" 
d="M310 337q-40 0 -52.5 14.5t-4.5 52.5q7 34 23 46.5t53 12.5q40 0 52.5 -14.5t4.5 -52.5q-7 -34 -23 -46.5t-53 -12.5z" />
    <glyph glyph-name="cedilla" unicode="&#xb8;" 
d="M197 -196q-53 0 -82 29l27 40q23 -23 56 -23q26 0 45 11.5t23 29.5q4 19 -11.5 24t-54.5 5l16 85h50l-10 -40q33 0 49.5 -23t8.5 -59q-7 -36 -39 -57.5t-78 -21.5z" />
    <glyph glyph-name="uni00B9" unicode="&#xb9;" 
d="M441 850l-80 -378h70l-9 -46h-192l9 46h72l57 270q-37 -20 -84 -17l7 46q38 -5 66.5 18.5t32.5 62.5l20 -2h31z" />
    <glyph glyph-name="ordmasculine" unicode="&#xba;" 
d="M317 371q-95 0 -121.5 49t0.5 177q26 124 70.5 170.5t136.5 46.5q95 0 122 -49t0 -176q-27 -125 -71.5 -171.5t-136.5 -46.5zM319 417q67 0 101 39t56 141q21 98 5.5 134.5t-79.5 36.5q-67 0 -101.5 -39t-55.5 -140q-22 -99 -6 -135.5t80 -36.5zM104 236l10 46h360
l-10 -46h-360z" />
    <glyph glyph-name="guillemotright" unicode="&#xbb;" 
d="M33 179l224 221l-129 221h60l131 -221l-224 -221h-62zM272 179l224 221l-129 221h60l131 -221l-224 -221h-62z" />
    <glyph glyph-name="onequarter" unicode="&#xbc;" 
d="M265 472l-9 -46h-192l9 46h72l57 270q-37 -20 -84 -17l7 46q38 -5 66.5 18.5t32.5 62.5l20 -2h31l-80 -378h70zM552 800h54l-519 -800h-54zM478 374h44l-57 -269h37l-10 -46h-37l-23 -109h-50l23 109h-173l7 37zM415 105l37 170l-146 -170h109z" />
    <glyph glyph-name="onehalf" unicode="&#xbd;" 
d="M265 472l-9 -46h-192l9 46h72l57 270q-37 -20 -84 -17l7 46q38 -5 66.5 18.5t32.5 62.5l20 -2h31l-80 -378h70zM552 800h54l-519 -800h-54zM475 381q73 0 97 -25.5t11 -88.5q-11 -51 -50 -96.5t-80 -71t-81 -54.5t-50 -51l202 2l-9 -46h-254l7 36q6 30 33.5 58.5
t62.5 52.5t70.5 49.5t64 58.5t36.5 70q8 36 -4 48t-57 12q-50 0 -70 -16t-28 -62l-49 5q12 67 44 93t104 26z" />
    <glyph glyph-name="threequarters" unicode="&#xbe;" 
d="M154 419q-72 0 -94 28t-5 96l50 -5q-12 -44 -2.5 -58.5t53.5 -14.5t64 17t30 64q10 46 1.5 62t-44.5 19h-50l10 46l45 -1q38 3 55 18.5t26 55.5q8 40 -3 52.5t-52 12.5q-48 0 -65.5 -14.5t-24.5 -55.5l-49 5q11 63 41 87t99 24t92.5 -27t9.5 -92q-14 -64 -58 -90
q33 -28 16 -110q-14 -66 -46.5 -92.5t-98.5 -26.5zM33 0l519 800h54l-519 -800h-54zM382 -50l23 109h-173l7 37l239 278h44l-57 -269h37l-10 -46h-37l-23 -109h-50zM306 105h109l37 170z" />
    <glyph glyph-name="questiondown" unicode="&#xbf;" 
d="M346 506q-40 0 -52.5 15t-4.5 52q7 34 23 46.5t52 12.5q40 0 52.5 -14.5t4.5 -52.5q-7 -34 -22.5 -46.5t-52.5 -12.5zM198 -196q-133 0 -175 43.5t-18 156.5q15 72 41.5 123.5t54.5 76.5t59.5 46t57.5 35t47.5 41.5t29.5 67.5l49 -4q-8 -41 -26 -70t-40 -47t-47 -33.5
t-51 -34t-49.5 -43t-44 -67t-32.5 -99.5q-18 -84 12.5 -115t132.5 -31q103 0 150 33t66 119l49 -4q-24 -112 -80.5 -153t-185.5 -41z" />
    <glyph glyph-name="Agrave" unicode="&#xc0;" 
d="M470 907l-39 -35l-112 118l39 35zM433 0l-13 216h-278l-105 -216h-53l392 800h56l52 -800h-51zM164 262h253l-28 463z" />
    <glyph glyph-name="Aacute" unicode="&#xc1;" 
d="M569 990l-158 -118l-27 35l158 118zM376 800h56l52 -800h-51l-13 216h-278l-105 -216h-53zM164 262h253l-28 463z" />
    <glyph glyph-name="Acircumflex" unicode="&#xc2;" 
d="M449 1017l106 -117l-44 -30l-73 83l-109 -81l-33 30zM376 800h56l52 -800h-51l-13 216h-278l-105 -216h-53zM164 262h253l-28 463z" />
    <glyph glyph-name="Atilde" unicode="&#xc3;" 
d="M541 982l49 -4q-9 -42 -35 -67t-61 -25q-20 0 -38 12t-28.5 26.5t-24.5 26.5t-27 12q-21 0 -31 -13t-16 -40l-49 4q10 44 36 69.5t61 25.5q25 0 45.5 -19.5t38 -38.5t34.5 -19q21 0 31 12.5t15 37.5zM376 800h56l52 -800h-51l-13 216h-278l-105 -216h-53zM164 262h253
l-28 463z" />
    <glyph glyph-name="Adieresis" unicode="&#xc4;" 
d="M325 917q-33 0 -43.5 12.5t-3.5 43.5q5 27 17.5 36.5t42.5 9.5q33 0 44 -12t4 -42q-6 -28 -18.5 -38t-42.5 -10zM554 1019q33 0 44 -12t4 -42q-6 -28 -18.5 -38t-42.5 -10q-33 0 -43.5 12.5t-3.5 43.5q5 27 17.5 36.5t42.5 9.5zM376 800h56l52 -800h-51l-13 216h-278
l-105 -216h-53zM164 262h253l-28 463z" />
    <glyph glyph-name="Aring" unicode="&#xc5;" 
d="M439 987q73 0 96 -26t9 -93q-11 -55 -35.5 -79.5t-73.5 -29.5l49 -759h-51l-13 216h-278l-105 -216h-53l372 760q-45 6 -58.5 33t-2.5 83q14 64 44.5 87.5t99.5 23.5zM495 876q8 38 -4 51.5t-53 13.5q-44 0 -65 -16t-29 -57q-8 -37 3.5 -51t52.5 -14q45 0 66 16t29 57z
M164 262h253l-28 463z" />
    <glyph glyph-name="AE" unicode="&#xc6;" 
d="M682 754h-227l-76 -354h147l-9 -46h-147l-66 -308h227l-10 -46h-277l56 262h-180l-126 -262h-53l386 800h364zM310 308l95 446h-48l-215 -446h168z" />
    <glyph glyph-name="Ccedilla" unicode="&#xc7;" 
d="M418 814q91 0 130 -36t49 -128l-50 -13q-8 76 -35.5 103.5t-94.5 27.5q-111 0 -170.5 -80.5t-103.5 -290.5q-44 -209 -21 -287t130 -78q69 0 110.5 28.5t82.5 103.5l46 -20q-48 -90 -98.5 -123.5t-137.5 -34.5l-5 -21q33 0 49.5 -23t8.5 -59q-7 -36 -39 -57.5t-78 -21.5
q-53 0 -82 29l27 40q23 -23 56 -23q26 0 45 11.5t23 29.5q4 19 -11.5 24t-54.5 5l13 68q-75 9 -109 51.5t-35 132.5t31 233q50 234 119 321.5t205 87.5z" />
    <glyph glyph-name="Egrave" unicode="&#xc8;" 
d="M484 907l-39 -35l-112 118l39 35zM621 754h-375l-65 -308h240l-10 -46h-240l-75 -354h374l-10 -46h-424l170 800h424z" />
    <glyph glyph-name="Eacute" unicode="&#xc9;" 
d="M583 990l-158 -118l-27 35l158 118zM621 754h-375l-65 -308h240l-10 -46h-240l-75 -354h374l-10 -46h-424l170 800h424z" />
    <glyph glyph-name="Ecircumflex" unicode="&#xca;" 
d="M452 953l-109 -81l-33 30l153 115l106 -117l-44 -30zM621 754h-375l-65 -308h240l-10 -46h-240l-75 -354h374l-10 -46h-424l170 800h424z" />
    <glyph glyph-name="Edieresis" unicode="&#xcb;" 
d="M339 917q-33 0 -43.5 12.5t-3.5 43.5q5 27 17.5 36.5t42.5 9.5q33 0 44 -12t4 -42q-6 -28 -18.5 -38t-42.5 -10zM555 917q-33 0 -43.5 12.5t-3.5 43.5q5 27 17.5 36.5t42.5 9.5q33 0 44 -12t4 -42q-6 -28 -18.5 -38t-42.5 -10zM621 754h-375l-65 -308h240l-10 -46h-240
l-75 -354h374l-10 -46h-424l170 800h424z" />
    <glyph glyph-name="Igrave" unicode="&#xcc;" 
d="M470 907l-39 -35l-112 118l39 35zM582 754h-163l-150 -708h162l-10 -46h-374l10 46h162l150 708h-161l9 46h374z" />
    <glyph glyph-name="Iacute" unicode="&#xcd;" 
d="M569 990l-158 -118l-27 35l158 118zM582 754h-163l-150 -708h162l-10 -46h-374l10 46h162l150 708h-161l9 46h374z" />
    <glyph glyph-name="Icircumflex" unicode="&#xce;" 
d="M438 953l-109 -81l-33 30l153 115l106 -117l-44 -30zM582 754h-163l-150 -708h162l-10 -46h-374l10 46h162l150 708h-161l9 46h374z" />
    <glyph glyph-name="Idieresis" unicode="&#xcf;" 
d="M325 917q-33 0 -43.5 12.5t-3.5 43.5q5 27 17.5 36.5t42.5 9.5q33 0 44 -12t4 -42q-6 -28 -18.5 -38t-42.5 -10zM554 1019q33 0 44 -12t4 -42q-6 -28 -18.5 -38t-42.5 -10q-33 0 -43.5 12.5t-3.5 43.5q5 27 17.5 36.5t42.5 9.5zM591 800l-9 -46h-163l-150 -708h162
l-10 -46h-374l10 46h162l150 708h-161l9 46h374z" />
    <glyph glyph-name="Eth" unicode="&#xd0;" 
d="M418 800q130 0 161.5 -87t-16.5 -317q-49 -227 -115 -311.5t-196 -84.5h-230l85 400h-52l10 46h52l75 354h226zM514 404q43 200 21.5 275t-122.5 75h-181l-65 -308h144l-9 -46h-144l-75 -354h175q102 0 157.5 77.5t98.5 280.5z" />
    <glyph glyph-name="Ntilde" unicode="&#xd1;" 
d="M376 963q-21 0 -31 -13t-16 -40l-49 4q10 44 36 69.5t61 25.5q25 0 45.5 -19.5t38 -38.5t34.5 -19q21 0 31 12.5t15 37.5l49 -4q-9 -42 -35 -67t-61 -25q-20 0 -38 12t-28.5 26.5t-24.5 26.5t-27 12zM568 800h50l-170 -800h-53l-177 695l-148 -695h-50l170 800h54
l177 -693z" />
    <glyph glyph-name="Ograve" unicode="&#xd2;" 
d="M431 872l-112 118l39 35l112 -118zM236 -14q-135 0 -169 81.5t11 294.5l17 80q46 213 111.5 292.5t196.5 79.5q134 0 168.5 -81.5t-11.5 -294.5l-17 -80q-45 -213 -110.5 -292.5t-196.5 -79.5zM237 32q106 0 161.5 71.5t95.5 258.5l17 80q40 187 17 256.5t-126 69.5
q-107 0 -163 -71.5t-95 -258.5l-17 -80q-39 -187 -15.5 -256.5t125.5 -69.5z" />
    <glyph glyph-name="Oacute" unicode="&#xd3;" 
d="M411 872l-27 35l158 118l27 -35zM236 -14q-135 0 -169 81.5t11 294.5l17 80q46 213 111.5 292.5t196.5 79.5q134 0 168.5 -81.5t-11.5 -294.5l-17 -80q-45 -213 -110.5 -292.5t-196.5 -79.5zM237 32q106 0 161.5 71.5t95.5 258.5l17 80q40 187 17 256.5t-126 69.5
q-107 0 -163 -71.5t-95 -258.5l-17 -80q-39 -187 -15.5 -256.5t125.5 -69.5z" />
    <glyph glyph-name="Ocircumflex" unicode="&#xd4;" 
d="M511 870l-73 83l-109 -81l-33 30l153 115l106 -117zM236 -14q-135 0 -169 81.5t11 294.5l17 80q46 213 111.5 292.5t196.5 79.5q134 0 168.5 -81.5t-11.5 -294.5l-17 -80q-45 -213 -110.5 -292.5t-196.5 -79.5zM237 32q106 0 161.5 71.5t95.5 258.5l17 80
q40 187 17 256.5t-126 69.5q-107 0 -163 -71.5t-95 -258.5l-17 -80q-39 -187 -15.5 -256.5t125.5 -69.5z" />
    <glyph glyph-name="Otilde" unicode="&#xd5;" 
d="M494 886q-20 0 -38 12t-28.5 26.5t-24.5 26.5t-27 12q-21 0 -31 -13t-16 -40l-49 4q10 44 36 69.5t61 25.5q25 0 45.5 -19.5t38 -38.5t34.5 -19q21 0 31 12.5t15 37.5l49 -4q-9 -42 -35 -67t-61 -25zM236 -14q-135 0 -169 81.5t11 294.5l17 80q46 213 111.5 292.5
t196.5 79.5q134 0 168.5 -81.5t-11.5 -294.5l-17 -80q-45 -213 -110.5 -292.5t-196.5 -79.5zM237 32q106 0 161.5 71.5t95.5 258.5l17 80q40 187 17 256.5t-126 69.5q-107 0 -163 -71.5t-95 -258.5l-17 -80q-39 -187 -15.5 -256.5t125.5 -69.5z" />
    <glyph glyph-name="Odieresis" unicode="&#xd6;" 
d="M325 917q-33 0 -43.5 12.5t-3.5 43.5q5 27 17.5 36.5t42.5 9.5q33 0 44 -12t4 -42q-6 -28 -18.5 -38t-42.5 -10zM541 917q-33 0 -43.5 12.5t-3.5 43.5q5 27 17.5 36.5t42.5 9.5q33 0 44 -12t4 -42q-6 -28 -18.5 -38t-42.5 -10zM236 -14q-135 0 -169 81.5t11 294.5l17 80
q46 213 111.5 292.5t196.5 79.5q134 0 168.5 -81.5t-11.5 -294.5l-17 -80q-45 -213 -110.5 -292.5t-196.5 -79.5zM237 32q106 0 161.5 71.5t95.5 258.5l17 80q40 187 17 256.5t-126 69.5q-107 0 -163 -71.5t-95 -258.5l-17 -80q-39 -187 -15.5 -256.5t125.5 -69.5z" />
    <glyph glyph-name="multiply" unicode="&#xd7;" 
d="M564 575l-212 -174l137 -175l-40 -33l-137 175l-212 -175l-25 32l212 174l-137 176l40 32l137 -175l213 175z" />
    <glyph glyph-name="Oslash" unicode="&#xd8;" 
d="M651 850l-79 -118q33 -80 -12 -294l-17 -80q-45 -213 -110.5 -292.5t-196.5 -79.5q-98 0 -141 40l-51 -76h-56l79 117q-34 81 11 295l17 80q46 213 111.5 292.5t196.5 79.5q97 0 140 -40l51 76h57zM127 358q-34 -166 -22 -234l407 605q-29 39 -110 39q-106 0 -162 -71.5
t-96 -258.5zM511 442q35 162 22 234l-407 -604q31 -40 111 -40q106 0 161.5 71.5t95.5 258.5z" />
    <glyph glyph-name="Ugrave" unicode="&#xd9;" 
d="M431 872l-112 118l39 35l112 -118zM236 -14q-123 0 -156 67t5 242l107 505h50l-108 -509q-32 -149 -10 -204t113 -55q94 0 142.5 57.5t79.5 205.5l107 505h50l-108 -509q-37 -175 -95 -240t-177 -65z" />
    <glyph glyph-name="Uacute" unicode="&#xda;" 
d="M411 872l-27 35l158 118l27 -35zM236 -14q-123 0 -156 67t5 242l107 505h50l-108 -509q-32 -149 -10 -204t113 -55q94 0 142.5 57.5t79.5 205.5l107 505h50l-108 -509q-37 -175 -95 -240t-177 -65z" />
    <glyph glyph-name="Ucircumflex" unicode="&#xdb;" 
d="M511 870l-73 83l-109 -81l-33 30l153 115l106 -117zM236 -14q-123 0 -156 67t5 242l107 505h50l-108 -509q-32 -149 -10 -204t113 -55q94 0 142.5 57.5t79.5 205.5l107 505h50l-108 -509q-37 -175 -95 -240t-177 -65z" />
    <glyph glyph-name="Udieresis" unicode="&#xdc;" 
d="M325 917q-33 0 -43.5 12.5t-3.5 43.5q5 27 17.5 36.5t42.5 9.5q33 0 44 -12t4 -42q-6 -28 -18.5 -38t-42.5 -10zM541 917q-33 0 -43.5 12.5t-3.5 43.5q5 27 17.5 36.5t42.5 9.5q33 0 44 -12t4 -42q-6 -28 -18.5 -38t-42.5 -10zM236 -14q-123 0 -156 67t5 242l107 505h50
l-108 -509q-32 -149 -10 -204t113 -55q94 0 142.5 57.5t79.5 205.5l107 505h50l-108 -509q-37 -175 -95 -240t-177 -65z" />
    <glyph glyph-name="Yacute" unicode="&#xdd;" 
d="M411 872l-27 35l158 118l27 -35zM209 0l67 308l-129 492h54l111 -430l295 430h56l-337 -492l-67 -308h-50z" />
    <glyph glyph-name="Thorn" unicode="&#xde;" 
d="M361 604q122 0 160 -45t13 -163q-25 -115 -79.5 -157.5t-176.5 -42.5h-146l-42 -196h-50l170 800h50l-42 -196h143zM485 404q19 89 -8.5 121.5t-121.5 32.5h-146l-68 -316h143q94 0 138 35.5t63 126.5z" />
    <glyph glyph-name="germandbls" unicode="&#xdf;" 
d="M437 428q55 -24 69 -69t-6 -139q-27 -126 -82.5 -173t-177.5 -47h-57l10 46h53q94 0 139 39.5t67 142.5q21 100 -5.5 137t-120.5 37h-37l10 46h7q94 0 138 34.5t63 123.5q20 93 -7 127.5t-119 34.5q-81 0 -120.5 -36.5t-59.5 -131.5l-128 -600h-50l129 604
q25 121 74 165.5t156 44.5q124 0 161.5 -47t11.5 -169q-15 -72 -40 -108.5t-78 -61.5z" />
    <glyph glyph-name="agrave" unicode="&#xe0;" 
d="M392 687l-112 118l39 35l112 -118zM495 53l24 -37q-32 -30 -88 -30q-31 0 -50 16t-19 42q0 44 9 69q-29 -57 -75.5 -92t-95.5 -35q-76 0 -122 47.5t-46 125.5q0 100 50.5 211.5t129 186.5t151.5 75q69 0 107 -19.5t38 -67.5q0 -16 -92 -450q-7 -29 -0.5 -46t33.5 -17
q25 0 46 21zM200 32q59 0 115 62t87 163q56 260 56 283q0 26 -21.5 36t-73.5 10q-58 0 -125 -69.5t-111.5 -170.5t-44.5 -187q0 -57 32.5 -92t85.5 -35z" />
    <glyph glyph-name="aacute" unicode="&#xe1;" 
d="M372 687l-27 35l158 118l27 -35zM495 53l24 -37q-32 -30 -88 -30q-31 0 -50 16t-19 42q0 44 9 69q-29 -57 -75.5 -92t-95.5 -35q-76 0 -122 47.5t-46 125.5q0 100 50.5 211.5t129 186.5t151.5 75q69 0 107 -19.5t38 -67.5q0 -16 -92 -450q-7 -29 -0.5 -46t33.5 -17
q25 0 46 21zM200 32q59 0 115 62t87 163q56 260 56 283q0 26 -21.5 36t-73.5 10q-58 0 -125 -69.5t-111.5 -170.5t-44.5 -187q0 -57 32.5 -92t85.5 -35z" />
    <glyph glyph-name="acircumflex" unicode="&#xe2;" 
d="M472 685l-73 83l-109 -81l-33 30l153 115l106 -117zM495 53l24 -37q-32 -30 -88 -30q-31 0 -50 16t-19 42q0 44 9 69q-29 -57 -75.5 -92t-95.5 -35q-76 0 -122 47.5t-46 125.5q0 100 50.5 211.5t129 186.5t151.5 75q69 0 107 -19.5t38 -67.5q0 -16 -92 -450
q-7 -29 -0.5 -46t33.5 -17q25 0 46 21zM200 32q59 0 115 62t87 163q56 260 56 283q0 26 -21.5 36t-73.5 10q-58 0 -125 -69.5t-111.5 -170.5t-44.5 -187q0 -57 32.5 -92t85.5 -35z" />
    <glyph glyph-name="atilde" unicode="&#xe3;" 
d="M455 701q-25 0 -46.5 19.5t-38.5 38.5t-33 19q-21 0 -31 -13t-16 -40l-49 4q10 44 36 69.5t61 25.5q25 0 45.5 -19t38 -38.5t34.5 -19.5q21 0 31 12.5t15 37.5l49 -4q-9 -42 -35 -67t-61 -25zM495 53l24 -37q-32 -30 -88 -30q-31 0 -50 16t-19 42q0 44 9 69
q-29 -57 -75.5 -92t-95.5 -35q-76 0 -122 47.5t-46 125.5q0 100 50.5 211.5t129 186.5t151.5 75q69 0 107 -19.5t38 -67.5q0 -16 -92 -450q-7 -29 -0.5 -46t33.5 -17q25 0 46 21zM200 32q59 0 115 62t87 163q56 260 56 283q0 26 -21.5 36t-73.5 10q-58 0 -125 -69.5
t-111.5 -170.5t-44.5 -187q0 -57 32.5 -92t85.5 -35z" />
    <glyph glyph-name="adieresis" unicode="&#xe4;" 
d="M286 732q-33 0 -43.5 12.5t-3.5 43.5q5 27 17.5 36.5t42.5 9.5q33 0 44 -12t4 -42q-6 -28 -18.5 -38t-42.5 -10zM502 732q-33 0 -43.5 12.5t-3.5 43.5q5 27 17.5 36.5t42.5 9.5q33 0 44 -12t4 -42q-6 -28 -18.5 -38t-42.5 -10zM495 53l24 -37q-32 -30 -88 -30
q-31 0 -50 16t-19 42q0 44 9 69q-29 -57 -75.5 -92t-95.5 -35q-76 0 -122 47.5t-46 125.5q0 100 50.5 211.5t129 186.5t151.5 75q69 0 107 -19.5t38 -67.5q0 -16 -92 -450q-7 -29 -0.5 -46t33.5 -17q25 0 46 21zM200 32q59 0 115 62t87 163q56 260 56 283q0 26 -21.5 36
t-73.5 10q-58 0 -125 -69.5t-111.5 -170.5t-44.5 -187q0 -57 32.5 -92t85.5 -35z" />
    <glyph glyph-name="aring" unicode="&#xe5;" 
d="M385 695q-72 0 -94.5 26t-8.5 93q13 64 44 87.5t100 23.5q72 0 95.5 -26.5t9.5 -92.5q-14 -64 -45 -87.5t-101 -23.5zM387 741q45 0 66 16t29 57q8 38 -4 51.5t-54 13.5q-43 0 -64 -16t-29 -57q-8 -37 3.5 -51t52.5 -14zM495 53l24 -37q-32 -30 -88 -30q-31 0 -50 16
t-19 42q0 44 9 69q-29 -57 -75.5 -92t-95.5 -35q-76 0 -122 47.5t-46 125.5q0 100 50.5 211.5t129 186.5t151.5 75q69 0 107 -19.5t38 -67.5q0 -16 -92 -450q-7 -29 -0.5 -46t33.5 -17q25 0 46 21zM200 32q59 0 115 62t87 163q56 260 56 283q0 26 -21.5 36t-73.5 10
q-58 0 -125 -69.5t-111.5 -170.5t-44.5 -187q0 -57 32.5 -92t85.5 -35z" />
    <glyph glyph-name="ae" unicode="&#xe6;" 
d="M96 -14q-67 0 -97 50.5t-13 133.5q18 83 76 133t135 49h87l14 69q16 74 1 119.5t-56 45.5q-33 0 -68.5 -28t-60.5 -74l-48 16q31 59 80 95.5t98 36.5q41 0 69.5 -32.5t34.5 -85.5q29 53 71.5 85.5t83.5 32.5q68 0 89.5 -89.5t-9.5 -236.5h-260q-24 -123 -12.5 -198.5
t56.5 -75.5q26 0 58.5 22.5t60.5 60.5l37 -31q-37 -44 -80 -71t-78 -27q-39 0 -68.5 36.5t-32.5 95.5q-23 -57 -73 -94.5t-95 -37.5zM333 352h211q18 105 6.5 169.5t-48.5 64.5q-53 0 -100 -64.5t-69 -169.5zM97 32q53 0 96.5 51t61.5 135l19 90h-82q-57 0 -100.5 -40
t-56.5 -106q-12 -58 5 -94t57 -36z" />
    <glyph glyph-name="ccedilla" unicode="&#xe7;" 
d="M382 632q73 0 111 -22.5t66 -81.5l-45 -21q-22 45 -50.5 62t-82.5 17q-78 0 -152.5 -79t-100.5 -202q-32 -156 -9 -214.5t112 -58.5q70 0 110.5 17.5t86.5 66.5l39 -29q-48 -54 -93 -76t-119 -25l-5 -21q33 0 49.5 -23t8.5 -59q-7 -36 -39 -57.5t-78 -21.5q-53 0 -82 29
l27 40q23 -23 56 -23q26 0 45 11.5t23 29.5q4 19 -11.5 24t-54.5 5l13 67q-108 5 -136.5 76.5t9.5 249.5q31 140 119 229.5t183 89.5z" />
    <glyph glyph-name="egrave" unicode="&#xe8;" 
d="M431 722l-39 -35l-112 118l39 35zM260 35q50 0 106.5 24t99.5 64l26 -41q-48 -43 -113.5 -69.5t-124.5 -26.5q-70 0 -117 49.5t-47 127.5v21q-35 -12 -49 -26l-24 41q19 19 76 37q16 176 101 286t207 110q62 0 97 -31.5t35 -96.5q0 -55 -27 -101t-55.5 -73t-94 -56
t-91 -37t-98.5 -29q-18 -6 -26 -8q-1 -13 -1 -41q0 -54 35 -89t85 -35zM400 586q-97 0 -167 -92.5t-88 -241.5q151 43 212 75q126 67 126 177q0 40 -24 61t-59 21z" />
    <glyph glyph-name="eacute" unicode="&#xe9;" 
d="M530 805l-158 -118l-27 35l158 118zM260 35q50 0 106.5 24t99.5 64l26 -41q-48 -43 -113.5 -69.5t-124.5 -26.5q-70 0 -117 49.5t-47 127.5v21q-35 -12 -49 -26l-24 41q19 19 76 37q16 176 101 286t207 110q62 0 97 -31.5t35 -96.5q0 -55 -27 -101t-55.5 -73t-94 -56
t-91 -37t-98.5 -29q-18 -6 -26 -8q-1 -13 -1 -41q0 -54 35 -89t85 -35zM400 586q-97 0 -167 -92.5t-88 -241.5q151 43 212 75q126 67 126 177q0 40 -24 61t-59 21z" />
    <glyph glyph-name="ecircumflex" unicode="&#xea;" 
d="M399 768l-109 -81l-33 30l153 115l106 -117l-44 -30zM260 35q50 0 106.5 24t99.5 64l26 -41q-48 -43 -113.5 -69.5t-124.5 -26.5q-70 0 -117 49.5t-47 127.5v21q-35 -12 -49 -26l-24 41q19 19 76 37q16 176 101 286t207 110q62 0 97 -31.5t35 -96.5q0 -55 -27 -101
t-55.5 -73t-94 -56t-91 -37t-98.5 -29q-18 -6 -26 -8q-1 -13 -1 -41q0 -54 35 -89t85 -35zM400 586q-97 0 -167 -92.5t-88 -241.5q151 43 212 75q126 67 126 177q0 40 -24 61t-59 21z" />
    <glyph glyph-name="edieresis" unicode="&#xeb;" 
d="M286 732q-33 0 -43.5 12.5t-3.5 43.5q5 27 17.5 36.5t42.5 9.5q33 0 44 -12t4 -42q-6 -28 -18.5 -38t-42.5 -10zM515 834q33 0 44 -12t4 -42q-6 -28 -18.5 -38t-42.5 -10q-33 0 -43.5 12.5t-3.5 43.5q5 27 17.5 36.5t42.5 9.5zM533 504q0 -55 -27 -101t-55.5 -73t-94 -56
t-91 -37t-98.5 -29q-18 -6 -26 -8q-1 -13 -1 -41q0 -54 35 -89t85 -35t106.5 24t99.5 64l26 -41q-48 -43 -113.5 -69.5t-124.5 -26.5q-70 0 -117 49.5t-47 127.5v21q-35 -12 -49 -26l-24 41q19 19 76 37q16 176 101 286t207 110q62 0 97 -31.5t35 -96.5zM400 586
q-97 0 -167 -92.5t-88 -241.5q151 43 212 75q126 67 126 177q0 40 -24 61t-59 21z" />
    <glyph glyph-name="igrave" unicode="&#xec;" 
d="M329 687l-112 118l39 35l112 -118zM338 -14q-115 0 -148 60.5t7 215.5l64 231q6 33 -3.5 52t-43.5 27l12 46q102 -21 87 -112l-66 -244q-33 -129 -11 -179.5t102 -50.5q38 0 64 16.5t58 59.5l40 -28q-41 -53 -76 -73.5t-86 -20.5z" />
    <glyph glyph-name="iacute" unicode="&#xed;" 
d="M309 687l-27 35l158 118l27 -35zM338 -14q-115 0 -148 60.5t7 215.5l64 231q6 33 -3.5 52t-43.5 27l12 46q102 -21 87 -112l-66 -244q-33 -129 -11 -179.5t102 -50.5q38 0 64 16.5t58 59.5l40 -28q-41 -53 -76 -73.5t-86 -20.5z" />
    <glyph glyph-name="icircumflex" unicode="&#xee;" 
d="M409 685l-73 83l-109 -81l-33 30l153 115l106 -117zM338 -14q-115 0 -148 60.5t7 215.5l64 231q6 33 -3.5 52t-43.5 27l12 46q102 -21 87 -112l-66 -244q-33 -129 -11 -179.5t102 -50.5q38 0 64 16.5t58 59.5l40 -28q-41 -53 -76 -73.5t-86 -20.5z" />
    <glyph glyph-name="idieresis" unicode="&#xef;" 
d="M223 732q-33 0 -43.5 12.5t-3.5 43.5q5 27 17.5 36.5t42.5 9.5q33 0 44 -12t4 -42q-6 -28 -18.5 -38t-42.5 -10zM439 732q-33 0 -43.5 12.5t-3.5 43.5q5 27 17.5 36.5t42.5 9.5q33 0 44 -12t4 -42q-6 -28 -18.5 -38t-42.5 -10zM338 -14q-115 0 -148 60.5t7 215.5l64 231
q6 33 -3.5 52t-43.5 27l12 46q102 -21 87 -112l-66 -244q-33 -129 -11 -179.5t102 -50.5q38 0 64 16.5t58 59.5l40 -28q-41 -53 -76 -73.5t-86 -20.5z" />
    <glyph glyph-name="eth" unicode="&#xf0;" 
d="M501 716q44 -55 48.5 -156.5t-26.5 -257.5q-3 -20 -7 -36q0 -3 -1.5 -9l-2.5 -10q-1 -1 -1 -2q-65 -259 -305 -259q-110 0 -142.5 58.5t-0.5 208.5q25 118 104 188.5t192 70.5q98 0 137 -39q9 153 -48 217l-185 -92l-17 40l165 82q-57 34 -167 34l5 46q150 0 219 -52
l104 52l17 -40zM207 32q100 0 164.5 57.5t91.5 163.5q2 6 2 10q8 38 11 57q11 79 -18 112.5t-100 33.5q-94 0 -159.5 -60t-87.5 -161q-24 -121 -2 -167t98 -46z" />
    <glyph glyph-name="ntilde" unicode="&#xf1;" 
d="M455 701q-25 0 -46.5 19.5t-38.5 38.5t-33 19q-21 0 -31 -13t-16 -40l-49 4q10 44 36 69.5t61 25.5q25 0 45.5 -19t38 -38.5t34.5 -19.5q21 0 31 12.5t15 37.5l49 -4q-9 -42 -35 -67t-61 -25zM516 53l24 -37q-32 -30 -88 -30q-32 0 -51.5 16t-19.5 42q0 93 82 361
q55 181 -63 181q-47 0 -101.5 -51t-93.5 -120t-51 -127l-61 -288h-51l114 533q2 14 2 20q0 15 -10 24t-27 9q-25 0 -46 -21l-24 37q32 30 88 30q34 0 55.5 -25t12.5 -67l-20 -92q44 83 101 133.5t113 50.5q88 0 118 -54.5t-6 -176.5q-80 -247 -80 -336q0 -15 10 -24t27 -9
q25 0 46 21z" />
    <glyph glyph-name="ograve" unicode="&#xf2;" 
d="M392 687l-112 118l39 35l112 -118zM236 -14q-125 0 -157.5 71t7.5 256q30 143 106.5 231t171.5 88q125 0 157.5 -71t-7.5 -256q-30 -143 -106.5 -231t-171.5 -88zM237 32q76 0 139 77t90 204q33 157 11 215t-114 58q-76 0 -139 -77t-90 -204q-33 -157 -11 -215t114 -58z
" />
    <glyph glyph-name="oacute" unicode="&#xf3;" 
d="M372 687l-27 35l158 118l27 -35zM236 -14q-125 0 -157.5 71t7.5 256q30 143 106.5 231t171.5 88q125 0 157.5 -71t-7.5 -256q-30 -143 -106.5 -231t-171.5 -88zM237 32q76 0 139 77t90 204q33 157 11 215t-114 58q-76 0 -139 -77t-90 -204q-33 -157 -11 -215t114 -58z
" />
    <glyph glyph-name="ocircumflex" unicode="&#xf4;" 
d="M472 685l-73 83l-109 -81l-33 30l153 115l106 -117zM236 -14q-125 0 -157.5 71t7.5 256q30 143 106.5 231t171.5 88q125 0 157.5 -71t-7.5 -256q-30 -143 -106.5 -231t-171.5 -88zM237 32q76 0 139 77t90 204q33 157 11 215t-114 58q-76 0 -139 -77t-90 -204
q-33 -157 -11 -215t114 -58z" />
    <glyph glyph-name="otilde" unicode="&#xf5;" 
d="M455 701q-25 0 -46.5 19.5t-38.5 38.5t-33 19q-21 0 -31 -13t-16 -40l-49 4q10 44 36 69.5t61 25.5q25 0 45.5 -19t38 -38.5t34.5 -19.5q21 0 31 12.5t15 37.5l49 -4q-9 -42 -35 -67t-61 -25zM236 -14q-125 0 -157.5 71t7.5 256q30 143 106.5 231t171.5 88
q125 0 157.5 -71t-7.5 -256q-30 -143 -106.5 -231t-171.5 -88zM237 32q76 0 139 77t90 204q33 157 11 215t-114 58q-76 0 -139 -77t-90 -204q-33 -157 -11 -215t114 -58z" />
    <glyph glyph-name="odieresis" unicode="&#xf6;" 
d="M286 732q-33 0 -43.5 12.5t-3.5 43.5q5 27 17.5 36.5t42.5 9.5q33 0 44 -12t4 -42q-6 -28 -18.5 -38t-42.5 -10zM502 732q-33 0 -43.5 12.5t-3.5 43.5q5 27 17.5 36.5t42.5 9.5q33 0 44 -12t4 -42q-6 -28 -18.5 -38t-42.5 -10zM236 -14q-125 0 -157.5 71t7.5 256
q30 143 106.5 231t171.5 88q125 0 157.5 -71t-7.5 -256q-30 -143 -106.5 -231t-171.5 -88zM237 32q76 0 139 77t90 204q33 157 11 215t-114 58q-76 0 -139 -77t-90 -204q-33 -157 -11 -215t114 -58z" />
    <glyph glyph-name="divide" unicode="&#xf7;" 
d="M352 533q-40 0 -52.5 15t-4.5 52q8 35 23 47t52 12q40 0 52.5 -15t4.5 -52q-8 -35 -23 -47t-52 -12zM44 377l10 46h540l-10 -46h-540zM268 141q-40 0 -52 14.5t-4 52.5q7 34 22.5 46.5t52.5 12.5q40 0 52.5 -14.5t4.5 -52.5q-7 -34 -23 -46.5t-53 -12.5z" />
    <glyph glyph-name="oslash" unicode="&#xf8;" 
d="M595 650l-72 -92q30 -72 -9 -253q-30 -143 -106.5 -231t-171.5 -88q-92 0 -132 36l-42 -53h-59l73 94q-29 73 10 250q30 143 106.5 231t171.5 88q92 0 131 -35l42 53h58zM134 305q-28 -134 -17 -191l345 440q-28 32 -99 32q-76 0 -139 -77t-90 -204zM466 313
q28 133 17 194l-346 -442q27 -33 100 -33q76 0 139 77t90 204z" />
    <glyph glyph-name="ugrave" unicode="&#xf9;" 
d="M382 687l-112 118l39 35l112 -118zM76 565l-24 37q32 30 88 30q32 0 51.5 -16t19.5 -42q0 -93 -82 -361q-28 -98 -9 -139.5t82 -41.5q69 0 142.5 101.5t93.5 196.5l61 288h51l-114 -533q-2 -14 -2 -20q0 -15 10 -24t27 -9q25 0 46 21l24 -37q-32 -30 -88 -30
q-34 0 -55.5 25t-12.5 67l20 92q-98 -184 -204 -184q-197 0 -122 231q80 247 80 336q0 15 -10 24t-27 9q-25 0 -46 -21z" />
    <glyph glyph-name="uacute" unicode="&#xfa;" 
d="M362 687l-27 35l158 118l27 -35zM76 565l-24 37q32 30 88 30q32 0 51.5 -16t19.5 -42q0 -93 -82 -361q-28 -98 -9 -139.5t82 -41.5q69 0 142.5 101.5t93.5 196.5l61 288h51l-114 -533q-2 -14 -2 -20q0 -15 10 -24t27 -9q25 0 46 21l24 -37q-32 -30 -88 -30
q-34 0 -55.5 25t-12.5 67l20 92q-98 -184 -204 -184q-197 0 -122 231q80 247 80 336q0 15 -10 24t-27 9q-25 0 -46 -21z" />
    <glyph glyph-name="ucircumflex" unicode="&#xfb;" 
d="M462 685l-73 83l-109 -81l-33 30l153 115l106 -117zM76 565l-24 37q32 30 88 30q32 0 51.5 -16t19.5 -42q0 -93 -82 -361q-28 -98 -9 -139.5t82 -41.5q69 0 142.5 101.5t93.5 196.5l61 288h51l-114 -533q-2 -14 -2 -20q0 -15 10 -24t27 -9q25 0 46 21l24 -37
q-32 -30 -88 -30q-34 0 -55.5 25t-12.5 67l20 92q-98 -184 -204 -184q-197 0 -122 231q80 247 80 336q0 15 -10 24t-27 9q-25 0 -46 -21z" />
    <glyph glyph-name="udieresis" unicode="&#xfc;" 
d="M276 732q-33 0 -43.5 12.5t-3.5 43.5q5 27 17.5 36.5t42.5 9.5q33 0 44 -12t4 -42q-6 -28 -18.5 -38t-42.5 -10zM492 732q-33 0 -43.5 12.5t-3.5 43.5q5 27 17.5 36.5t42.5 9.5q33 0 44 -12t4 -42q-6 -28 -18.5 -38t-42.5 -10zM76 565l-24 37q32 30 88 30q32 0 51.5 -16
t19.5 -42q0 -93 -82 -361q-28 -98 -9 -139.5t82 -41.5q69 0 142.5 101.5t93.5 196.5l61 288h51l-114 -533q-2 -14 -2 -20q0 -15 10 -24t27 -9q25 0 46 21l24 -37q-32 -30 -88 -30q-34 0 -55.5 25t-12.5 67l20 92q-98 -184 -204 -184q-197 0 -122 231q80 247 80 336
q0 15 -10 24t-27 9q-25 0 -46 -21z" />
    <glyph glyph-name="yacute" unicode="&#xfd;" 
d="M372 687l-27 35l158 118l27 -35zM115 -206q-48 0 -77.5 19.5t-29.5 50.5q0 54 98.5 85t268.5 31q29 49 42 126q-10 -32 -56 -46t-96 -14q-77 0 -118 54t-20 119q78 239 78 334q0 15 -10 24t-27 9q-25 0 -46 -21l-24 37q32 30 88 30q31 0 50 -16t19 -42q0 -103 -78 -355
q-18 -57 8.5 -92t79.5 -35q46 0 76 7t58.5 36.5t39.5 83.5l84 399h50q-38 -180 -55 -260.5t-38.5 -178t-33.5 -140t-21 -59.5q55 0 88 9l-10 -45q-33 -9 -98 -9q-37 -64 -117 -102.5t-173 -38.5zM127 -160q62 0 123.5 26t98.5 69q-131 -4 -211 -23.5t-80 -47.5
q0 -11 19 -17.5t50 -6.5z" />
    <glyph glyph-name="thorn" unicode="&#xfe;" 
d="M370 632q123 0 152 -71t-12 -256q-30 -145 -102 -232t-166 -87q-62 0 -103 14.5t-43 44.5l-49 -227h-50l208 982h50l-57 -263q19 43 69.5 69t102.5 26zM462 313q35 157 16.5 215t-109.5 58q-41 0 -71 -11.5t-58 -41.5t-50 -86.5t-40 -141.5q-12 -58 -18 -97.5t-9 -70
t2.5 -49t12 -30.5t24 -17.5t34.5 -7t47 -1.5q75 0 133.5 76t85.5 205z" />
    <glyph glyph-name="ydieresis" unicode="&#xff;" 
d="M286 732q-33 0 -43.5 12.5t-3.5 43.5q5 27 17.5 36.5t42.5 9.5q33 0 44 -12t4 -42q-6 -28 -18.5 -38t-42.5 -10zM502 732q-33 0 -43.5 12.5t-3.5 43.5q5 27 17.5 36.5t42.5 9.5q33 0 44 -12t4 -42q-6 -28 -18.5 -38t-42.5 -10zM115 -206q-48 0 -77.5 19.5t-29.5 50.5
q0 54 98.5 85t268.5 31q29 49 42 126q-10 -32 -56 -46t-96 -14q-77 0 -118 54t-20 119q78 239 78 334q0 15 -10 24t-27 9q-25 0 -46 -21l-24 37q32 30 88 30q31 0 50 -16t19 -42q0 -103 -78 -355q-18 -57 8.5 -92t79.5 -35q46 0 76 7t58.5 36.5t39.5 83.5l84 399h50
q-38 -180 -55 -260.5t-38.5 -178t-33.5 -140t-21 -59.5q55 0 88 9l-10 -45q-33 -9 -98 -9q-37 -64 -117 -102.5t-173 -38.5zM127 -160q62 0 123.5 26t98.5 69q-131 -4 -211 -23.5t-80 -47.5q0 -11 19 -17.5t50 -6.5z" />
    <glyph glyph-name="Amacron" unicode="&#x100;" 
d="M300 955h274l-10 -46h-274zM376 800h56l52 -800h-51l-13 216h-278l-105 -216h-53zM164 262h253l-28 463z" />
    <glyph glyph-name="amacron" unicode="&#x101;" 
d="M251 724l10 46h274l-10 -46h-274zM495 53l24 -37q-32 -30 -88 -30q-31 0 -50 16t-19 42q0 44 9 69q-29 -57 -75.5 -92t-95.5 -35q-76 0 -122 47.5t-46 125.5q0 100 50.5 211.5t129 186.5t151.5 75q69 0 107 -19.5t38 -67.5q0 -16 -92 -450q-7 -29 -0.5 -46t33.5 -17
q25 0 46 21zM200 32q59 0 115 62t87 163q56 260 56 283q0 26 -21.5 36t-73.5 10q-58 0 -125 -69.5t-111.5 -170.5t-44.5 -187q0 -57 32.5 -92t85.5 -35z" />
    <glyph glyph-name="Abreve" unicode="&#x102;" 
d="M519 987l49 -4q-14 -65 -45 -89t-101 -24q-72 0 -94.5 26t-8.5 91l49 -4q-8 -39 3.5 -53t52.5 -14q45 0 66 16t29 55zM376 800h56l52 -800h-51l-13 216h-278l-105 -216h-53zM164 262h253l-28 463z" />
    <glyph glyph-name="abreve" unicode="&#x103;" 
d="M383 685q-72 0 -94.5 26t-8.5 91l49 -4q-8 -39 3.5 -53t52.5 -14q45 0 66 16t29 55l49 -4q-14 -65 -45 -89t-101 -24zM495 53l24 -37q-32 -30 -88 -30q-31 0 -50 16t-19 42q0 44 9 69q-29 -57 -75.5 -92t-95.5 -35q-76 0 -122 47.5t-46 125.5q0 100 50.5 211.5t129 186.5
t151.5 75q69 0 107 -19.5t38 -67.5q0 -16 -92 -450q-7 -29 -0.5 -46t33.5 -17q25 0 46 21zM200 32q59 0 115 62t87 163q56 260 56 283q0 26 -21.5 36t-73.5 10q-58 0 -125 -69.5t-111.5 -170.5t-44.5 -187q0 -57 32.5 -92t85.5 -35z" />
    <glyph glyph-name="Aogonek" unicode="&#x104;" 
d="M501 -123l16 -44q-38 -27 -88 -27q-49 0 -74 24t-17 63q8 34 31.5 54t56.5 20l8 33h-1l-13 216h-278l-105 -216h-53l392 800h56l52 -793h2l-16 -85q-38 0 -58.5 -7.5t-25.5 -29.5q-3 -15 9 -24t35 -9q37 0 71 25zM164 262h253l-28 463z" />
    <glyph glyph-name="aogonek" unicode="&#x105;" 
d="M406 -139q37 0 71 25l16 -44q-38 -27 -88 -27q-49 0 -74 24t-17 63q8 34 31.5 54t56.5 20l3 13q-43 13 -43 55q0 44 9 69q-29 -57 -75.5 -92t-95.5 -35q-76 0 -122 47.5t-46 125.5q0 100 50.5 211.5t129 186.5t151.5 75q69 0 107 -19.5t38 -67.5q0 -16 -92 -450
q-7 -29 -0.5 -46t33.5 -17q25 0 46 21l24 -37q-24 -22 -62 -28l-11 -57q-38 0 -58.5 -7.5t-25.5 -29.5q-3 -15 9 -24t35 -9zM200 32q59 0 115 62t87 163q56 260 56 283q0 26 -21.5 36t-73.5 10q-58 0 -125 -69.5t-111.5 -170.5t-44.5 -187q0 -57 32.5 -92t85.5 -35z" />
    <glyph glyph-name="Cacute" unicode="&#x106;" 
d="M410 869l-27 35l158 118l27 -35zM251 -14q-95 0 -138.5 38t-49 131.5t30.5 249.5q50 234 119 321.5t205 87.5q91 0 130 -36t49 -128l-50 -13q-8 76 -35.5 103.5t-94.5 27.5q-111 0 -170.5 -80.5t-103.5 -290.5q-44 -209 -21 -287t130 -78q69 0 110.5 28.5t82.5 103.5
l46 -20q-48 -91 -99.5 -124.5t-140.5 -33.5z" />
    <glyph glyph-name="cacute" unicode="&#x107;" 
d="M372 687l-27 35l158 118l27 -35zM428 116l39 -29q-52 -58 -101 -79.5t-136 -21.5q-123 0 -156.5 70t6.5 257q31 140 119 229.5t183 89.5q73 0 111 -22.5t66 -81.5l-45 -21q-22 45 -50.5 62t-82.5 17q-78 0 -152.5 -79t-100.5 -202q-32 -156 -9 -214.5t112 -58.5
q70 0 110.5 17.5t86.5 66.5z" />
    <glyph glyph-name="Ccircumflex" unicode="&#x108;" 
d="M510 867l-73 83l-109 -81l-33 30l153 115l106 -117zM251 -14q-95 0 -138.5 38t-49 131.5t30.5 249.5q50 234 119 321.5t205 87.5q91 0 130 -36t49 -128l-50 -13q-8 76 -35.5 103.5t-94.5 27.5q-111 0 -170.5 -80.5t-103.5 -290.5q-44 -209 -21 -287t130 -78
q69 0 110.5 28.5t82.5 103.5l46 -20q-48 -91 -99.5 -124.5t-140.5 -33.5z" />
    <glyph glyph-name="ccircumflex" unicode="&#x109;" 
d="M472 685l-73 83l-109 -81l-33 30l153 115l106 -117zM428 116l39 -29q-52 -58 -101 -79.5t-136 -21.5q-123 0 -156.5 70t6.5 257q31 140 119 229.5t183 89.5q73 0 111 -22.5t66 -81.5l-45 -21q-22 45 -50.5 62t-82.5 17q-78 0 -152.5 -79t-100.5 -202q-32 -156 -9 -214.5
t112 -58.5q70 0 110.5 17.5t86.5 66.5z" />
    <glyph glyph-name="Cdotaccent" unicode="&#x10a;" 
d="M433 918q-40 0 -52.5 15t-4.5 52q8 35 23 47t52 12q40 0 52.5 -15t4.5 -52q-7 -34 -22.5 -46.5t-52.5 -12.5zM251 -14q-95 0 -138.5 38t-49 131.5t30.5 249.5q50 234 119 321.5t205 87.5q91 0 130 -36t49 -128l-50 -13q-8 76 -35.5 103.5t-94.5 27.5q-111 0 -170.5 -80.5
t-103.5 -290.5q-44 -209 -21 -287t130 -78q69 0 110.5 28.5t82.5 103.5l46 -20q-48 -91 -99.5 -124.5t-140.5 -33.5z" />
    <glyph glyph-name="cdotaccent" unicode="&#x10b;" 
d="M395 736q-40 0 -52.5 15t-4.5 52q8 35 23 47t52 12q40 0 52.5 -15t4.5 -52q-7 -34 -22.5 -46.5t-52.5 -12.5zM428 116l39 -29q-52 -58 -101 -79.5t-136 -21.5q-123 0 -156.5 70t6.5 257q31 140 119 229.5t183 89.5q73 0 111 -22.5t66 -81.5l-45 -21q-22 45 -50.5 62
t-82.5 17q-78 0 -152.5 -79t-100.5 -202q-32 -156 -9 -214.5t112 -58.5q70 0 110.5 17.5t86.5 66.5z" />
    <glyph glyph-name="Ccaron" unicode="&#x10c;" 
d="M421 875l-107 115l43 30l75 -81l109 83l34 -30zM251 -14q-95 0 -138.5 38t-49 131.5t30.5 249.5q50 234 119 321.5t205 87.5q91 0 130 -36t49 -128l-50 -13q-8 76 -35.5 103.5t-94.5 27.5q-111 0 -170.5 -80.5t-103.5 -290.5q-44 -209 -21 -287t130 -78q69 0 110.5 28.5
t82.5 103.5l46 -20q-48 -91 -99.5 -124.5t-140.5 -33.5z" />
    <glyph glyph-name="ccaron" unicode="&#x10d;" 
d="M383 693l-107 115l43 30l75 -81l109 83l34 -30zM428 116l39 -29q-52 -58 -101 -79.5t-136 -21.5q-123 0 -156.5 70t6.5 257q31 140 119 229.5t183 89.5q73 0 111 -22.5t66 -81.5l-45 -21q-22 45 -50.5 62t-82.5 17q-78 0 -152.5 -79t-100.5 -202q-32 -156 -9 -214.5
t112 -58.5q70 0 110.5 17.5t86.5 66.5z" />
    <glyph glyph-name="Dcaron" unicode="&#x10e;" 
d="M575 992l-154 -117l-107 115l43 30l75 -81l109 83zM415 800q130 0 161.5 -87t-16.5 -317q-49 -227 -115 -311.5t-196 -84.5h-230l170 800h226zM511 404q43 200 21.5 275t-122.5 75h-181l-149 -708h175q102 0 157.5 77.5t98.5 280.5z" />
    <glyph glyph-name="dcaron" unicode="&#x10f;" 
d="M478 32q25 0 46 21l24 -37q-32 -30 -88 -30q-69 0 -69 68q-51 -68 -200 -68q-111 0 -139.5 70t9.5 256q30 146 109.5 233t188.5 87q50 0 86 -25.5t44 -66.5l56 260h50l-150 -705q-7 -29 -0.5 -46t33.5 -17zM598 553l44 246h56l-60 -246h-40zM192 32q73 0 130.5 24.5
t77.5 65.5l65 296q11 76 -18.5 122t-88.5 46q-89 0 -155.5 -76.5t-93.5 -205.5q-32 -155 -13.5 -213.5t96.5 -58.5z" />
    <glyph glyph-name="Dcroat" unicode="&#x110;" 
d="M418 800q130 0 161.5 -87t-16.5 -317q-49 -227 -115 -311.5t-196 -84.5h-230l85 400h-52l10 46h52l75 354h226zM514 404q43 200 21.5 275t-122.5 75h-181l-65 -308h144l-9 -46h-144l-75 -354h175q102 0 157.5 77.5t98.5 280.5z" />
    <glyph glyph-name="dcroat" unicode="&#x111;" 
d="M570 682l-125 -587q-7 -29 -0.5 -46t33.5 -17q25 0 46 21l24 -37q-32 -30 -88 -30q-69 0 -69 68q-51 -68 -200 -68q-111 0 -139.5 70t9.5 256q30 146 109.5 233t188.5 87q50 0 86 -25.5t44 -66.5l31 142h-111l10 46h110l16 72h50l-15 -72h79l-10 -46h-79zM400 122l65 296
q11 76 -18.5 122t-88.5 46q-89 0 -155.5 -76.5t-93.5 -205.5q-32 -155 -13.5 -213.5t96.5 -58.5q73 0 130.5 24.5t77.5 65.5z" />
    <glyph glyph-name="Emacron" unicode="&#x112;" 
d="M588 955l-10 -46h-274l10 46h274zM621 754h-375l-65 -308h240l-10 -46h-240l-75 -354h374l-10 -46h-424l170 800h424z" />
    <glyph glyph-name="emacron" unicode="&#x113;" 
d="M535 770l-10 -46h-274l10 46h274zM533 504q0 -55 -27 -101t-55.5 -73t-94 -56t-91 -37t-98.5 -29q-18 -6 -26 -8q-1 -13 -1 -41q0 -54 35 -89t85 -35t106.5 24t99.5 64l26 -41q-48 -43 -113.5 -69.5t-124.5 -26.5q-70 0 -117 49.5t-47 127.5v21q-35 -12 -49 -26l-24 41
q19 19 76 37q16 176 101 286t207 110q62 0 97 -31.5t35 -96.5zM400 586q-97 0 -167 -92.5t-88 -241.5q151 43 212 75q126 67 126 177q0 40 -24 61t-59 21z" />
    <glyph glyph-name="Edotaccent" unicode="&#x116;" 
d="M448 921q-40 0 -52.5 15t-4.5 52q8 35 23 47t52 12q40 0 52.5 -15t4.5 -52q-7 -34 -22.5 -46.5t-52.5 -12.5zM621 754h-375l-65 -308h240l-10 -46h-240l-75 -354h374l-10 -46h-424l170 800h424z" />
    <glyph glyph-name="edotaccent" unicode="&#x117;" 
d="M395 736q-40 0 -52.5 15t-4.5 52q8 35 23 47t52 12q40 0 52.5 -15t4.5 -52q-7 -34 -22.5 -46.5t-52.5 -12.5zM260 35q50 0 106.5 24t99.5 64l26 -41q-48 -43 -113.5 -69.5t-124.5 -26.5q-70 0 -117 49.5t-47 127.5v21q-35 -12 -49 -26l-24 41q19 19 76 37q16 176 101 286
t207 110q62 0 97 -31.5t35 -96.5q0 -55 -27 -101t-55.5 -73t-94 -56t-91 -37t-98.5 -29q-18 -6 -26 -8q-1 -13 -1 -41q0 -54 35 -89t85 -35zM400 586q-97 0 -167 -92.5t-88 -241.5q151 43 212 75q126 67 126 177q0 40 -24 61t-59 21z" />
    <glyph glyph-name="Eogonek" unicode="&#x118;" 
d="M621 754h-375l-65 -308h240l-10 -46h-240l-75 -354h374l-8 -39l-16 -85q-38 0 -58.5 -7.5t-25.5 -29.5q-3 -15 9 -24t35 -9q37 0 71 25l16 -44q-38 -27 -88 -27q-49 0 -74 24t-17 63q8 34 31.5 54t56.5 20l8 33h-374l170 800h424z" />
    <glyph glyph-name="eogonek" unicode="&#x119;" 
d="M269 -75q-38 0 -58.5 -7.5t-25.5 -29.5q-3 -15 9 -24t35 -9q37 0 71 25l16 -44q-38 -27 -88 -27q-49 0 -74 24t-17 63q8 34 31.5 54t56.5 20l4 18q-60 8 -99.5 56.5t-39.5 118.5v21q-35 -12 -49 -26l-24 41q19 19 76 37q16 176 101 286t207 110q62 0 97 -31.5t35 -96.5
q0 -55 -27 -101t-55.5 -73t-94 -56t-91 -37t-98.5 -29q-18 -6 -26 -8q-1 -13 -1 -41q0 -54 35 -89t85 -35t106.5 24t99.5 64l26 -41q-42 -38 -98.5 -63.5t-112.5 -31.5zM400 586q-97 0 -167 -92.5t-88 -241.5q151 43 212 75q126 67 126 177q0 40 -24 61t-59 21z" />
    <glyph glyph-name="Ecaron" unicode="&#x11a;" 
d="M590 995l-154 -117l-107 115l43 30l75 -81l109 83zM621 754h-375l-65 -308h240l-10 -46h-240l-75 -354h374l-10 -46h-424l170 800h424z" />
    <glyph glyph-name="ecaron" unicode="&#x11b;" 
d="M537 810l-154 -117l-107 115l43 30l75 -81l109 83zM533 504q0 -55 -27 -101t-55.5 -73t-94 -56t-91 -37t-98.5 -29q-18 -6 -26 -8q-1 -13 -1 -41q0 -54 35 -89t85 -35t106.5 24t99.5 64l26 -41q-48 -43 -113.5 -69.5t-124.5 -26.5q-70 0 -117 49.5t-47 127.5v21
q-35 -12 -49 -26l-24 41q19 19 76 37q16 176 101 286t207 110q62 0 97 -31.5t35 -96.5zM400 586q-97 0 -167 -92.5t-88 -241.5q151 43 212 75q126 67 126 177q0 40 -24 61t-59 21z" />
    <glyph glyph-name="Gcircumflex" unicode="&#x11c;" 
d="M510 867l-73 83l-109 -81l-33 30l153 115l106 -117zM255 -14q-145 0 -180.5 90t14.5 328q50 235 121 322.5t212 87.5q99 0 139 -39.5t47 -141.5l-48 -8q-5 82 -35 112.5t-104 30.5q-116 0 -177.5 -80.5t-105.5 -291.5q-45 -208 -20 -286t138 -78q69 0 111.5 27.5
t82.5 97.5l43 197h-174l9 46h224l-53 -254q-49 -92 -101.5 -126t-142.5 -34z" />
    <glyph glyph-name="gcircumflex" unicode="&#x11d;" 
d="M482 685l-73 83l-109 -81l-33 30l153 115l106 -117zM115 -206q-48 0 -77.5 19.5t-29.5 50.5q0 54 98.5 85t268.5 31q23 36 40 128q-12 -26 -68.5 -44t-111.5 -18q-76 0 -122 47.5t-46 125.5q0 98 54 195.5t133.5 157.5t154.5 60q69 0 107 -19.5t38 -67.5q0 -38 -55 -285
t-72 -280q52 0 86 9l-10 -45q-33 -9 -98 -9q-37 -64 -117 -102.5t-173 -38.5zM235 92q97 0 142 24.5t62 102.5q65 302 65 321q0 32 -19 39t-76 7q-45 0 -97 -33t-94.5 -84t-71.5 -119t-29 -131q0 -57 32.5 -92t85.5 -35zM127 -160q62 0 123.5 26t98.5 69q-131 -4 -211 -23.5
t-80 -47.5q0 -11 19 -17.5t50 -6.5z" />
    <glyph glyph-name="Gbreve" unicode="&#x11e;" 
d="M421 867q-72 0 -94.5 26t-8.5 91l49 -4q-8 -39 3.5 -53t52.5 -14q45 0 66 16t29 55l49 -4q-14 -65 -45 -89t-101 -24zM255 -14q-145 0 -180.5 90t14.5 328q50 235 121 322.5t212 87.5q99 0 139 -39.5t47 -141.5l-48 -8q-5 82 -35 112.5t-104 30.5q-116 0 -177.5 -80.5
t-105.5 -291.5q-45 -208 -20 -286t138 -78q69 0 111.5 27.5t82.5 97.5l43 197h-174l9 46h224l-53 -254q-49 -92 -101.5 -126t-142.5 -34z" />
    <glyph glyph-name="gbreve" unicode="&#x11f;" 
d="M393 685q-72 0 -94.5 26t-8.5 91l49 -4q-8 -39 3.5 -53t52.5 -14q45 0 66 16t29 55l49 -4q-14 -65 -45 -89t-101 -24zM115 -206q-48 0 -77.5 19.5t-29.5 50.5q0 54 98.5 85t268.5 31q23 36 40 128q-12 -26 -68.5 -44t-111.5 -18q-76 0 -122 47.5t-46 125.5q0 98 54 195.5
t133.5 157.5t154.5 60q69 0 107 -19.5t38 -67.5q0 -38 -55 -285t-72 -280q52 0 86 9l-10 -45q-33 -9 -98 -9q-37 -64 -117 -102.5t-173 -38.5zM235 92q97 0 142 24.5t62 102.5q65 302 65 321q0 32 -19 39t-76 7q-45 0 -97 -33t-94.5 -84t-71.5 -119t-29 -131q0 -57 32.5 -92
t85.5 -35zM127 -160q62 0 123.5 26t98.5 69q-131 -4 -211 -23.5t-80 -47.5q0 -11 19 -17.5t50 -6.5z" />
    <glyph glyph-name="Gdotaccent" unicode="&#x120;" 
d="M433 918q-40 0 -52.5 15t-4.5 52q8 35 23 47t52 12q40 0 52.5 -15t4.5 -52q-7 -34 -22.5 -46.5t-52.5 -12.5zM255 -14q-145 0 -180.5 90t14.5 328q50 235 121 322.5t212 87.5q99 0 139 -39.5t47 -141.5l-48 -8q-5 82 -35 112.5t-104 30.5q-116 0 -177.5 -80.5
t-105.5 -291.5q-45 -208 -20 -286t138 -78q69 0 111.5 27.5t82.5 97.5l43 197h-174l9 46h224l-53 -254q-49 -92 -101.5 -126t-142.5 -34z" />
    <glyph glyph-name="gdotaccent" unicode="&#x121;" 
d="M405 736q-40 0 -52.5 15t-4.5 52q8 35 23 47t52 12q40 0 52.5 -15t4.5 -52q-7 -34 -22.5 -46.5t-52.5 -12.5zM115 -206q-48 0 -77.5 19.5t-29.5 50.5q0 54 98.5 85t268.5 31q23 36 40 128q-12 -26 -68.5 -44t-111.5 -18q-76 0 -122 47.5t-46 125.5q0 98 54 195.5
t133.5 157.5t154.5 60q69 0 107 -19.5t38 -67.5q0 -38 -55 -285t-72 -280q52 0 86 9l-10 -45q-33 -9 -98 -9q-37 -64 -117 -102.5t-173 -38.5zM235 92q97 0 142 24.5t62 102.5q65 302 65 321q0 32 -19 39t-76 7q-45 0 -97 -33t-94.5 -84t-71.5 -119t-29 -131q0 -57 32.5 -92
t85.5 -35zM127 -160q62 0 123.5 26t98.5 69q-131 -4 -211 -23.5t-80 -47.5q0 -11 19 -17.5t50 -6.5z" />
    <glyph glyph-name="uni0122" unicode="&#x122;" 
d="M255 -14q-145 0 -180.5 90t14.5 328q50 235 121 322.5t212 87.5q99 0 139 -39.5t47 -141.5l-48 -8q-5 82 -35 112.5t-104 30.5q-116 0 -177.5 -80.5t-105.5 -291.5q-45 -208 -20 -286t138 -78q69 0 111.5 27.5t82.5 97.5l43 197h-174l9 46h224l-53 -254
q-49 -92 -101.5 -126t-142.5 -34zM128 -246l76 121q-28 5 -19 43q4 22 13.5 29t32.5 7q26 0 34.5 -9.5t3.5 -34.5q-11 -50 -104 -158z" />
    <glyph glyph-name="uni0123" unicode="&#x123;" 
d="M382 660q-26 0 -34.5 9.5t-3.5 34.5q11 50 104 158l37 -2l-76 -121q28 -4 19 -43q-4 -22 -13.5 -29t-32.5 -7zM115 -206q-48 0 -77.5 19.5t-29.5 50.5q0 54 98.5 85t268.5 31q23 36 40 128q-12 -26 -68.5 -44t-111.5 -18q-76 0 -122 47.5t-46 125.5q0 98 54 195.5
t133.5 157.5t154.5 60q69 0 107 -19.5t38 -67.5q0 -38 -55 -285t-72 -280q52 0 86 9l-10 -45q-33 -9 -98 -9q-37 -64 -117 -102.5t-173 -38.5zM235 92q97 0 142 24.5t62 102.5q65 302 65 321q0 32 -19 39t-76 7q-45 0 -97 -33t-94.5 -84t-71.5 -119t-29 -131q0 -57 32.5 -92
t85.5 -35zM127 -160q62 0 123.5 26t98.5 69q-131 -4 -211 -23.5t-80 -47.5q0 -11 19 -17.5t50 -6.5z" />
    <glyph glyph-name="Hcircumflex" unicode="&#x124;" 
d="M437 950l-109 -81l-33 30l153 115l106 -117l-44 -30zM570 800h50l-170 -800h-50l85 400h-332l-85 -400h-50l170 800h50l-75 -354h332z" />
    <glyph glyph-name="hcircumflex" unicode="&#x125;" 
d="M295 817l-73 83l-109 -81l-33 30l153 115l106 -117zM496 53l24 -37q-32 -30 -88 -30q-32 0 -51.5 16t-19.5 42q0 93 82 361q28 98 9 139.5t-82 41.5q-76 0 -156 -101.5t-100 -196.5l-61 -288h-51l170 800h50l-75 -352q45 84 103 134t121 50q197 0 122 -231
q-80 -247 -80 -336q0 -15 10 -24t27 -9q25 0 46 21z" />
    <glyph glyph-name="Hbar" unicode="&#x126;" 
d="M631 598l-9 -46h-55l-117 -552h-50l85 400h-332l-85 -400h-50l117 552h-53l9 46h54l43 202h50l-43 -202h332l43 202h50l-43 -202h54zM495 446l22 106h-332l-22 -106h332z" />
    <glyph glyph-name="hbar" unicode="&#x127;" 
d="M496 53l24 -37q-32 -30 -88 -30q-32 0 -51.5 16t-19.5 42q0 93 82 361q28 98 9 139.5t-82 41.5q-76 0 -156 -101.5t-100 -196.5l-61 -288h-51l145 682h-48l10 46h48l15 72h50l-15 -72h142l-10 -46h-142l-50 -234q45 84 103 134t121 50q197 0 122 -231q-80 -247 -80 -336
q0 -15 10 -24t27 -9q25 0 46 21z" />
    <glyph glyph-name="Itilde" unicode="&#x128;" 
d="M376 963q-21 0 -31 -13t-16 -40l-49 4q10 44 36 69.5t61 25.5q25 0 45.5 -19.5t38 -38.5t34.5 -19q21 0 31 12.5t15 37.5l49 -4q-9 -42 -35 -67t-61 -25q-20 0 -38 12t-28.5 26.5t-24.5 26.5t-27 12zM582 754h-163l-150 -708h162l-10 -46h-374l10 46h162l150 708h-161
l9 46h374z" />
    <glyph glyph-name="itilde" unicode="&#x129;" 
d="M392 701q-25 0 -46.5 19.5t-38.5 38.5t-33 19q-21 0 -31 -13t-16 -40l-49 4q10 44 36 69.5t61 25.5q25 0 45.5 -19t38 -38.5t34.5 -19.5q21 0 31 12.5t15 37.5l49 -4q-9 -42 -35 -67t-61 -25zM338 -14q-115 0 -148 60.5t7 215.5l64 231q6 33 -3.5 52t-43.5 27l12 46
q102 -21 87 -112l-66 -244q-33 -129 -11 -179.5t102 -50.5q38 0 64 16.5t58 59.5l40 -28q-41 -53 -76 -73.5t-86 -20.5z" />
    <glyph glyph-name="Imacron" unicode="&#x12a;" 
d="M574 955l-10 -46h-274l10 46h274zM582 754h-163l-150 -708h162l-10 -46h-374l10 46h162l150 708h-161l9 46h374z" />
    <glyph glyph-name="imacron" unicode="&#x12b;" 
d="M188 724l10 46h274l-10 -46h-274zM338 -14q-115 0 -148 60.5t7 215.5l64 231q6 33 -3.5 52t-43.5 27l12 46q102 -21 87 -112l-66 -244q-33 -129 -11 -179.5t102 -50.5q38 0 64 16.5t58 59.5l40 -28q-41 -53 -76 -73.5t-86 -20.5z" />
    <glyph glyph-name="Iogonek" unicode="&#x12e;" 
d="M582 754h-163l-150 -708h162l-10 -46h-157l-15 -78q-38 0 -58.5 -7.5t-25.5 -29.5q-3 -15 9 -24t35 -9q37 0 71 25l16 -44q-38 -27 -88 -27q-49 0 -74 24t-17 63q8 34 31.5 54t56.5 20l8 33h-166l10 46h162l150 708h-161l9 46h374z" />
    <glyph glyph-name="iogonek" unicode="&#x12f;" 
d="M332 736q-40 0 -52.5 15t-4.5 52q8 35 23 47t52 12q40 0 52.5 -15t4.5 -52q-7 -34 -22.5 -46.5t-52.5 -12.5zM319 -75q-38 0 -58.5 -7.5t-25.5 -29.5q-3 -15 9 -24t35 -9q37 0 71 25l16 -44q-38 -27 -88 -27q-49 0 -74 24t-17 63q8 34 31.5 54t56.5 20l5 20
q-79 14 -99 76t16 196l64 231q6 33 -3.5 52t-43.5 27l12 46q102 -21 87 -112l-66 -244q-33 -129 -11 -179.5t102 -50.5q38 0 64 16.5t58 59.5l40 -28q-41 -53 -76 -73.5t-86 -20.5h-8z" />
    <glyph glyph-name="Idotaccent" unicode="&#x130;" 
d="M434 921q-40 0 -52.5 15t-4.5 52q8 35 23 47t52 12q40 0 52.5 -15t4.5 -52q-7 -34 -22.5 -46.5t-52.5 -12.5zM582 754h-163l-150 -708h162l-10 -46h-374l10 46h162l150 708h-161l9 46h374z" />
    <glyph glyph-name="dotlessi" unicode="&#x131;" 
d="M338 -14q-115 0 -148 60.5t7 215.5l64 231q6 33 -3.5 52t-43.5 27l12 46q102 -21 87 -112l-66 -244q-33 -129 -11 -179.5t102 -50.5q38 0 64 16.5t58 59.5l40 -28q-41 -53 -76 -73.5t-86 -20.5z" />
    <glyph glyph-name="Jcircumflex" unicode="&#x134;" 
d="M626 867l-73 83l-109 -81l-33 30l153 115l106 -117zM200 -14q-93 0 -131.5 35t-47.5 126l48 9q7 -72 35 -98t97 -26q110 0 167 69t95 249l86 404h-131l9 46h181l-96 -454q-44 -206 -111 -283t-201 -77z" />
    <glyph glyph-name="jcircumflex" unicode="&#x135;" 
d="M572 685l-73 83l-109 -81l-33 30l153 115l106 -117zM55 -206q-48 0 -77.5 19.5t-29.5 50.5q0 54 98.5 85t268.5 31q23 40 118 507q7 33 -2 52.5t-43 28.5l14 45q101 -24 83 -115q-92 -465 -120 -518q55 0 88 9l-10 -45q-33 -9 -98 -9q-37 -64 -117 -102.5t-173 -38.5z
M67 -160q62 0 123.5 26t98.5 69q-131 -4 -211 -23.5t-80 -47.5q0 -11 19 -17.5t50 -6.5z" />
    <glyph glyph-name="uni0136" unicode="&#x136;" 
d="M658 800l-378 -367l212 -433h-59l-195 400h-79l-85 -400h-50l170 800h50l-75 -354h61l365 354h63zM231 -46q26 0 34.5 -9.5t3.5 -34.5q-11 -50 -104 -158l-37 2l76 121q-28 5 -19 43q4 22 13.5 29t32.5 7z" />
    <glyph glyph-name="uni0137" unicode="&#x137;" 
d="M410 32q15 0 37 18t34 42l34 -37q-27 -35 -50.5 -52t-55.5 -17q-85 0 -85 181q0 76 -51 124l21 40q101 0 162.5 47.5t61.5 124.5q0 36 -28.5 59.5t-66.5 23.5q-79 0 -152.5 -75.5t-105.5 -195.5l-67 -315h-50l64 300h-1q1 3 2.5 10t2.5 10l102 480h50l-63 -296
q46 61 104 94.5t116 33.5q60 0 101.5 -35t41.5 -89q0 -86 -62 -146.5t-163 -74.5q35 -52 35 -117q0 -40 0.5 -58t3.5 -40.5t9.5 -31t18.5 -8.5zM231 -46q26 0 34.5 -9.5t3.5 -34.5q-11 -50 -104 -158l-37 2l76 121q-28 5 -19 43q4 22 13.5 29t32.5 7z" />
    <glyph glyph-name="Lacute" unicode="&#x139;" 
d="M273 869l-27 35l158 118l27 -35zM55 0l170 800h50l-160 -754h335l-10 -46h-385z" />
    <glyph glyph-name="lacute" unicode="&#x13a;" 
d="M574 987l-158 -118l-27 35l158 118zM514 695q0 -142 -71 -278t-190 -245v-3q0 -62 22 -99.5t58 -37.5q29 0 63 21t59 55l40 -28q-32 -42 -77 -68t-85 -26q-56 0 -91.5 39t-38.5 104q-98 -80 -210 -129l-20 42q122 54 230 150q4 301 53 461.5t161 160.5q45 0 71 -32.5
t26 -86.5zM409 767q-69 0 -109.5 -142t-45.5 -385q97 99 153.5 216.5t56.5 238.5q0 33 -14.5 52.5t-40.5 19.5z" />
    <glyph glyph-name="uni013B" unicode="&#x13b;" 
d="M55 0l170 800h50l-160 -754h335l-10 -46h-385zM128 -246l76 121q-28 5 -19 43q4 22 13.5 29t32.5 7q26 0 34.5 -9.5t3.5 -34.5q-11 -50 -104 -158z" />
    <glyph glyph-name="uni013C" unicode="&#x13c;" 
d="M333 32q29 0 63 21t59 55l40 -28q-32 -42 -77 -68t-85 -26q-56 0 -91.5 39t-38.5 104q-98 -80 -210 -129l-20 42q122 54 230 150q4 301 53 461.5t161 160.5q45 0 71 -32.5t26 -86.5q0 -142 -71 -278t-190 -245v-3q0 -62 22 -99.5t58 -37.5zM409 767q-69 0 -109.5 -142
t-45.5 -385q97 99 153.5 216.5t56.5 238.5q0 33 -14.5 52.5t-40.5 19.5zM221 -46q26 0 34.5 -9.5t3.5 -34.5q-11 -50 -104 -158l-37 2l76 121q-28 5 -19 43q4 22 13.5 29t32.5 7z" />
    <glyph glyph-name="Lcaron" unicode="&#x13d;" 
d="M55 0l170 800h50l-160 -754h335l-10 -46h-385zM367 554l44 246h56l-60 -246h-40z" />
    <glyph glyph-name="lcaron" unicode="&#x13e;" 
d="M514 695q0 -142 -71 -278t-190 -245v-3q0 -62 22 -99.5t58 -37.5q29 0 63 21t59 55l40 -28q-32 -42 -77 -68t-85 -26q-56 0 -91.5 39t-38.5 104q-98 -80 -210 -129l-20 42q122 54 230 150q4 301 53 461.5t161 160.5q45 0 71 -32.5t26 -86.5zM582 799h56l-60 -246h-40z
M409 767q-69 0 -109.5 -142t-45.5 -385q97 99 153.5 216.5t56.5 238.5q0 33 -14.5 52.5t-40.5 19.5z" />
    <glyph glyph-name="Lslash" unicode="&#x141;" 
d="M145 46h335l-10 -46h-385l94 443l-106 -40l10 47l106 40l66 310h50l-61 -290l145 55l-9 -47l-146 -55z" />
    <glyph glyph-name="lslash" unicode="&#x142;" 
d="M494 546q-58 -207 -241 -374v-3q0 -62 22 -99.5t58 -37.5q29 0 63 21t59 55l40 -28q-32 -42 -77 -68t-85 -26q-56 0 -91.5 39t-38.5 104q-98 -80 -210 -129l-20 42q122 54 230 150q2 143 13 249l-54 -20l11 49l48 18q43 326 196 326q45 0 71 -32.5t26 -86.5
q0 -51 -9 -100l43 16l-13 -49zM409 767q-94 0 -134 -259l174 66q15 60 15 121q0 33 -14.5 52.5t-40.5 19.5zM435 524l-167 -63q-11 -87 -14 -221q130 131 181 284z" />
    <glyph glyph-name="Nacute" unicode="&#x143;" 
d="M569 990l-158 -118l-27 35l158 118zM568 800h50l-170 -800h-53l-177 695l-148 -695h-50l170 800h54l177 -693z" />
    <glyph glyph-name="nacute" unicode="&#x144;" 
d="M372 687l-27 35l158 118l27 -35zM516 53l24 -37q-32 -30 -88 -30q-32 0 -51.5 16t-19.5 42q0 93 82 361q55 181 -63 181q-47 0 -101.5 -51t-93.5 -120t-51 -127l-61 -288h-51l114 533q2 14 2 20q0 15 -10 24t-27 9q-25 0 -46 -21l-24 37q32 30 88 30q34 0 55.5 -25
t12.5 -67l-20 -92q44 83 101 133.5t113 50.5q88 0 118 -54.5t-6 -176.5q-80 -247 -80 -336q0 -15 10 -24t27 -9q25 0 46 21z" />
    <glyph glyph-name="uni0145" unicode="&#x145;" 
d="M568 800h50l-170 -800h-53l-177 695l-148 -695h-50l170 800h54l177 -693zM231 -49q26 0 34.5 -9.5t3.5 -34.5q-11 -50 -104 -158l-37 2l76 121q-28 5 -19 43q4 22 13.5 29t32.5 7z" />
    <glyph glyph-name="uni0146" unicode="&#x146;" 
d="M516 53l24 -37q-32 -30 -88 -30q-32 0 -51.5 16t-19.5 42q0 93 82 361q55 181 -63 181q-47 0 -101.5 -51t-93.5 -120t-51 -127l-61 -288h-51l114 533q2 14 2 20q0 15 -10 24t-27 9q-25 0 -46 -21l-24 37q32 30 88 30q34 0 55.5 -25t12.5 -67l-20 -92q44 83 101 133.5
t113 50.5q88 0 118 -54.5t-6 -176.5q-80 -247 -80 -336q0 -15 10 -24t27 -9q25 0 46 21zM128 -246l76 121q-28 5 -19 43q4 22 13.5 29t32.5 7q26 0 34.5 -9.5t3.5 -34.5q-11 -50 -104 -158z" />
    <glyph glyph-name="Ncaron" unicode="&#x147;" 
d="M576 995l-154 -117l-107 115l43 30l75 -81l109 83zM568 800h50l-170 -800h-53l-177 695l-148 -695h-50l170 800h54l177 -693z" />
    <glyph glyph-name="ncaron" unicode="&#x148;" 
d="M383 693l-107 115l43 30l75 -81l109 83l34 -30zM516 53l24 -37q-32 -30 -88 -30q-32 0 -51.5 16t-19.5 42q0 93 82 361q55 181 -63 181q-47 0 -101.5 -51t-93.5 -120t-51 -127l-61 -288h-51l114 533q2 14 2 20q0 15 -10 24t-27 9q-25 0 -46 -21l-24 37q32 30 88 30
q34 0 55.5 -25t12.5 -67l-20 -92q44 83 101 133.5t113 50.5q88 0 118 -54.5t-6 -176.5q-80 -247 -80 -336q0 -15 10 -24t27 -9q25 0 46 21z" />
    <glyph glyph-name="Eng" unicode="&#x14a;" 
d="M618 800l-170 -800h-26l26 -2q-19 -88 -55.5 -120.5t-116.5 -32.5l5 46q55 0 85 25.5t29 83.5l-177 695l-148 -695h-50l170 800h54l177 -693l147 693h50z" />
    <glyph glyph-name="eng" unicode="&#x14b;" 
d="M540 16q-22 -20 -55 -26q-19 -84 -55.5 -114.5t-114.5 -30.5l5 46q56 0 78 17.5t37 78.5q-54 10 -54 57q0 93 82 361q55 181 -63 181q-47 0 -101.5 -51t-93.5 -120t-51 -127l-61 -288h-51l114 533q2 14 2 20q0 15 -10 24t-27 9q-25 0 -46 -21l-24 37q32 30 88 30
q34 0 55.5 -25t12.5 -67l-20 -92q44 83 101 133.5t113 50.5q88 0 118 -54.5t-6 -176.5q-80 -247 -80 -336q0 -15 10 -24t27 -9q25 0 46 21z" />
    <glyph glyph-name="Omacron" unicode="&#x14c;" 
d="M290 909l10 46h274l-10 -46h-274zM236 -14q-135 0 -169 81.5t11 294.5l17 80q46 213 111.5 292.5t196.5 79.5q134 0 168.5 -81.5t-11.5 -294.5l-17 -80q-45 -213 -110.5 -292.5t-196.5 -79.5zM237 32q106 0 161.5 71.5t95.5 258.5l17 80q40 187 17 256.5t-126 69.5
q-107 0 -163 -71.5t-95 -258.5l-17 -80q-39 -187 -15.5 -256.5t125.5 -69.5z" />
    <glyph glyph-name="omacron" unicode="&#x14d;" 
d="M251 724l10 46h274l-10 -46h-274zM236 -14q-125 0 -157.5 71t7.5 256q30 143 106.5 231t171.5 88q125 0 157.5 -71t-7.5 -256q-30 -143 -106.5 -231t-171.5 -88zM237 32q76 0 139 77t90 204q33 157 11 215t-114 58q-76 0 -139 -77t-90 -204q-33 -157 -11 -215t114 -58z
" />
    <glyph glyph-name="Ohungarumlaut" unicode="&#x150;" 
d="M284 872l-27 35l158 118l27 -35zM456 872l-27 35l158 118l27 -35zM236 -14q-135 0 -169 81.5t11 294.5l17 80q46 213 111.5 292.5t196.5 79.5q134 0 168.5 -81.5t-11.5 -294.5l-17 -80q-45 -213 -110.5 -292.5t-196.5 -79.5zM237 32q106 0 161.5 71.5t95.5 258.5l17 80
q40 187 17 256.5t-126 69.5q-107 0 -163 -71.5t-95 -258.5l-17 -80q-39 -187 -15.5 -256.5t125.5 -69.5z" />
    <glyph glyph-name="ohungarumlaut" unicode="&#x151;" 
d="M245 687l-27 35l158 118l27 -35zM417 687l-27 35l158 118l27 -35zM236 -14q-125 0 -157.5 71t7.5 256q30 143 106.5 231t171.5 88q125 0 157.5 -71t-7.5 -256q-30 -143 -106.5 -231t-171.5 -88zM237 32q76 0 139 77t90 204q33 157 11 215t-114 58q-76 0 -139 -77
t-90 -204q-33 -157 -11 -215t114 -58z" />
    <glyph glyph-name="OE" unicode="&#x152;" 
d="M693 754h-231l-64 -308h138l-10 -46h-138l-2 -8q-8 -36 -15 -69l-59 -277h230l-10 -46h-280l10 49q-52 -63 -141 -63q-107 0 -128 90t29 327q50 235 106.5 323t159.5 88q96 0 122 -72l12 58h280zM122 32q73 0 118.5 71.5t87.5 254.5l20 95q35 179 22 247t-83 68
q-77 0 -124.5 -81t-92.5 -292q-30 -141 -34.5 -218.5t16 -111t70.5 -33.5z" />
    <glyph glyph-name="oe" unicode="&#x153;" 
d="M502 632q68 0 90.5 -89.5t-9.5 -236.5h-257q-30 -134 -19.5 -204t56.5 -70q23 0 56.5 23t66.5 60l37 -32q-37 -43 -81.5 -70t-79.5 -27q-42 0 -71 30.5t-34 80.5q-27 -50 -71 -80.5t-89 -30.5q-71 0 -93 90t13 237q35 144 99 231.5t135 87.5q95 0 93 -135q27 61 70.5 98
t87.5 37zM98 32q57 0 104 69t74 212q24 123 17.5 198t-43.5 75q-53 0 -103.5 -77t-81.5 -204q-29 -123 -19 -198t52 -75zM337 352h206q19 105 7.5 169.5t-49.5 64.5q-49 0 -93.5 -64.5t-70.5 -169.5z" />
    <glyph glyph-name="Racute" unicode="&#x154;" 
d="M568 987l-158 -118l-27 35l158 118zM414 800q122 0 159 -49.5t10 -177.5q-26 -125 -81.5 -172t-176.5 -47l155 -354h-57l-155 354h-110l-76 -354h-50l170 800h212zM535 581q21 100 -5.5 136.5t-120.5 36.5h-166l-76 -354h162q94 0 139 39.5t67 141.5z" />
    <glyph glyph-name="racute" unicode="&#x155;" 
d="M530 805l-158 -118l-27 35l158 118zM493 598l36 -25q-85 -126 -136.5 -258t-51.5 -223q0 -27 13 -43.5t35 -16.5q27 0 51.5 18.5t38.5 48.5l46 -18q-18 -43 -55.5 -69t-80.5 -26q-44 0 -71 29t-27 77q0 86 39 201t103 218q-109 -57 -193 -57h-19q-33 -80 -105 -163
l-31 40q58 63 88 130q-45 11 -70.5 35t-25.5 57q0 35 24 57t64 22q35 0 56 -25.5t21 -67.5q0 -16 -5 -39h3q45 0 114.5 27t138.5 71zM127 553q0 -35 60 -48q5 22 5 36q0 45 -33 45q-13 0 -22.5 -9t-9.5 -24z" />
    <glyph glyph-name="uni0156" unicode="&#x156;" 
d="M414 800q122 0 159 -49.5t10 -177.5q-26 -125 -81.5 -172t-176.5 -47l155 -354h-57l-155 354h-110l-76 -354h-50l170 800h212zM535 581q21 100 -5.5 136.5t-120.5 36.5h-166l-76 -354h162q94 0 139 39.5t67 141.5zM231 -46q26 0 34.5 -9.5t3.5 -34.5q-11 -50 -104 -158
l-37 2l76 121q-28 5 -19 43q4 22 13.5 29t32.5 7z" />
    <glyph glyph-name="uni0157" unicode="&#x157;" 
d="M389 32q27 0 51.5 18.5t38.5 48.5l46 -18q-18 -43 -55.5 -69t-80.5 -26q-44 0 -71 29t-27 77q0 86 39 201t103 218q-109 -57 -193 -57h-19q-33 -80 -105 -163l-31 40q58 63 88 130q-45 11 -70.5 35t-25.5 57q0 35 24 57t64 22q35 0 56 -25.5t21 -67.5q0 -16 -5 -39h3
q45 0 114.5 27t138.5 71l36 -25q-85 -126 -136.5 -258t-51.5 -223q0 -27 13 -43.5t35 -16.5zM127 553q0 -35 60 -48q5 22 5 36q0 45 -33 45q-13 0 -22.5 -9t-9.5 -24zM361 -46q26 0 34.5 -9.5t3.5 -34.5q-11 -50 -104 -158l-37 2l76 121q-28 5 -19 43q4 22 13.5 29t32.5 7z
" />
    <glyph glyph-name="Rcaron" unicode="&#x158;" 
d="M575 992l-154 -117l-107 115l43 30l75 -81l109 83zM414 800q122 0 159 -49.5t10 -177.5q-26 -125 -81.5 -172t-176.5 -47l155 -354h-57l-155 354h-110l-76 -354h-50l170 800h212zM535 581q21 100 -5.5 136.5t-120.5 36.5h-166l-76 -354h162q94 0 139 39.5t67 141.5z" />
    <glyph glyph-name="rcaron" unicode="&#x159;" 
d="M537 810l-154 -117l-107 115l43 30l75 -81l109 83zM493 598l36 -25q-85 -126 -136.5 -258t-51.5 -223q0 -27 13 -43.5t35 -16.5q27 0 51.5 18.5t38.5 48.5l46 -18q-18 -43 -55.5 -69t-80.5 -26q-44 0 -71 29t-27 77q0 86 39 201t103 218q-109 -57 -193 -57h-19
q-33 -80 -105 -163l-31 40q58 63 88 130q-45 11 -70.5 35t-25.5 57q0 35 24 57t64 22q35 0 56 -25.5t21 -67.5q0 -16 -5 -39h3q45 0 114.5 27t138.5 71zM127 553q0 -35 60 -48q5 22 5 36q0 45 -33 45q-13 0 -22.5 -9t-9.5 -24z" />
    <glyph glyph-name="Sacute" unicode="&#x15a;" 
d="M411 872l-27 35l158 118l27 -35zM236 -14q-98 0 -143.5 24t-66.5 87l43 31q13 -55 49 -75.5t119 -20.5q101 0 148.5 40.5t69.5 146.5q15 70 -13 108.5t-119 71.5q-113 40 -149.5 85.5t-19.5 127.5q25 116 77.5 159t171.5 43q89 0 131.5 -21t64.5 -75l-40 -33
q-15 48 -48.5 65.5t-108.5 17.5q-93 0 -136.5 -35.5t-62.5 -128.5q-13 -61 13 -94.5t109 -62.5q121 -40 159.5 -91t18.5 -145q-27 -129 -84.5 -177t-182.5 -48z" />
    <glyph glyph-name="sacute" unicode="&#x15b;" 
d="M362 687l-27 35l158 118l27 -35zM217 -14q-65 0 -117.5 30t-83.5 82l44 20q22 -39 62.5 -62.5t84.5 -23.5q86 0 136 74.5t50 181.5q0 80 -38 133q-38 -52 -104 -89.5t-135 -45.5l-9 46q64 7 123.5 42t93.5 87q-26 25 -41.5 53.5t-15.5 47.5q0 31 19 50.5t52 19.5
q36 0 56.5 -20t20.5 -53q0 -50 -33 -95q28 -34 44.5 -84t16.5 -98q0 -137 -87 -229q37 12 77.5 34t59.5 43l31 -32q-44 -50 -128.5 -81t-178.5 -31zM349 497q18 32 18 58q0 36 -27 36q-25 0 -25 -28q0 -27 34 -66z" />
    <glyph glyph-name="Scircumflex" unicode="&#x15c;" 
d="M511 870l-73 83l-109 -81l-33 30l153 115l106 -117zM236 -14q-98 0 -143.5 24t-66.5 87l43 31q13 -55 49 -75.5t119 -20.5q101 0 148.5 40.5t69.5 146.5q15 70 -13 108.5t-119 71.5q-113 40 -149.5 85.5t-19.5 127.5q25 116 77.5 159t171.5 43q89 0 131.5 -21t64.5 -75
l-40 -33q-15 48 -48.5 65.5t-108.5 17.5q-93 0 -136.5 -35.5t-62.5 -128.5q-13 -61 13 -94.5t109 -62.5q121 -40 159.5 -91t18.5 -145q-27 -129 -84.5 -177t-182.5 -48z" />
    <glyph glyph-name="scircumflex" unicode="&#x15d;" 
d="M462 685l-73 83l-109 -81l-33 30l153 115l106 -117zM217 -14q-65 0 -117.5 30t-83.5 82l44 20q22 -39 62.5 -62.5t84.5 -23.5q86 0 136 74.5t50 181.5q0 80 -38 133q-38 -52 -104 -89.5t-135 -45.5l-9 46q64 7 123.5 42t93.5 87q-26 25 -41.5 53.5t-15.5 47.5
q0 31 19 50.5t52 19.5q36 0 56.5 -20t20.5 -53q0 -50 -33 -95q28 -34 44.5 -84t16.5 -98q0 -137 -87 -229q37 12 77.5 34t59.5 43l31 -32q-44 -50 -128.5 -81t-178.5 -31zM349 497q18 32 18 58q0 36 -27 36q-25 0 -25 -28q0 -27 34 -66z" />
    <glyph glyph-name="Scedilla" unicode="&#x15e;" 
d="M403 814q89 0 131.5 -21t64.5 -75l-40 -33q-15 48 -48.5 65.5t-108.5 17.5q-93 0 -136.5 -35.5t-62.5 -128.5q-13 -61 13 -94.5t109 -62.5q121 -40 159.5 -91t18.5 -145q-26 -124 -80 -173t-168 -52l-5 -21q33 0 49.5 -23t8.5 -59q-7 -36 -39 -57.5t-78 -21.5
q-53 0 -82 29l27 40q23 -23 56 -23q26 0 45 11.5t23 29.5q4 19 -11.5 24t-54.5 5l13 67q-82 3 -121.5 27.5t-59.5 82.5l43 31q13 -55 49 -75.5t119 -20.5q101 0 148.5 40.5t69.5 146.5q15 70 -13 108.5t-119 71.5q-113 40 -149.5 85.5t-19.5 127.5q25 116 77.5 159t171.5 43
z" />
    <glyph glyph-name="scedilla" unicode="&#x15f;" 
d="M524 98q-41 -46 -117 -76t-162 -35l-5 -22q33 0 49.5 -23t8.5 -59q-7 -36 -39 -57.5t-78 -21.5q-53 0 -82 29l27 40q23 -23 56 -23q26 0 45 11.5t23 29.5q4 19 -11.5 24t-54.5 5l13 67q-121 9 -181 111l44 20q22 -39 62.5 -62.5t84.5 -23.5q86 0 136 74.5t50 181.5
q0 80 -38 133q-38 -52 -104 -89.5t-135 -45.5l-9 46q64 7 123.5 42t93.5 87q-26 25 -41.5 53.5t-15.5 47.5q0 31 19 50.5t52 19.5q36 0 56.5 -20t20.5 -53q0 -50 -33 -95q28 -34 44.5 -84t16.5 -98q0 -137 -87 -229q37 12 77.5 34t59.5 43zM349 497q18 32 18 58q0 36 -27 36
q-25 0 -25 -28q0 -27 34 -66z" />
    <glyph glyph-name="Scaron" unicode="&#x160;" 
d="M422 878l-107 115l43 30l75 -81l109 83l34 -30zM236 -14q-98 0 -143.5 24t-66.5 87l43 31q13 -55 49 -75.5t119 -20.5q101 0 148.5 40.5t69.5 146.5q15 70 -13 108.5t-119 71.5q-113 40 -149.5 85.5t-19.5 127.5q25 116 77.5 159t171.5 43q89 0 131.5 -21t64.5 -75
l-40 -33q-15 48 -48.5 65.5t-108.5 17.5q-93 0 -136.5 -35.5t-62.5 -128.5q-13 -61 13 -94.5t109 -62.5q121 -40 159.5 -91t18.5 -145q-27 -129 -84.5 -177t-182.5 -48z" />
    <glyph glyph-name="scaron" unicode="&#x161;" 
d="M373 693l-107 115l43 30l75 -81l109 83l34 -30zM217 -14q-65 0 -117.5 30t-83.5 82l44 20q22 -39 62.5 -62.5t84.5 -23.5q86 0 136 74.5t50 181.5q0 80 -38 133q-38 -52 -104 -89.5t-135 -45.5l-9 46q64 7 123.5 42t93.5 87q-26 25 -41.5 53.5t-15.5 47.5q0 31 19 50.5
t52 19.5q36 0 56.5 -20t20.5 -53q0 -50 -33 -95q28 -34 44.5 -84t16.5 -98q0 -137 -87 -229q37 12 77.5 34t59.5 43l31 -32q-44 -50 -128.5 -81t-178.5 -31zM349 497q18 32 18 58q0 36 -27 36q-25 0 -25 -28q0 -27 34 -66z" />
    <glyph glyph-name="uni0162" unicode="&#x162;" 
d="M259 0l-9 -35q33 0 49.5 -23t8.5 -59q-7 -36 -39 -57.5t-78 -21.5q-53 0 -82 29l27 40q23 -23 56 -23q26 0 45 11.5t23 29.5q4 19 -11.5 24t-54.5 5l15 80l1 2v3l159 749h-242l9 46h536l-9 -46h-244z" />
    <glyph glyph-name="uni0163" unicode="&#x163;" 
d="M301 572l-79 -370q-20 -90 -2.5 -130t82.5 -40q54 0 83 13.5t49 47.5l45 -20q-30 -50 -67 -68t-107 -19l-5 -21q33 0 49.5 -23t8.5 -59q-7 -36 -39 -57.5t-78 -21.5q-53 0 -82 29l27 40q23 -23 56 -23q26 0 45 11.5t23 29.5q4 19 -11.5 24t-54.5 5l13 69q-69 10 -88 62.5
t4 154.5l78 366h-124l10 46h124l38 182h50l-38 -182h208l-10 -46h-208z" />
    <glyph glyph-name="Tcaron" unicode="&#x164;" 
d="M575 992l-154 -117l-107 115l43 30l75 -81l109 83zM672 800l-9 -46h-244l-160 -754h-50l160 754h-242l9 46h536z" />
    <glyph glyph-name="tcaron" unicode="&#x165;" 
d="M400 671l44 246h56l-60 -246h-40zM301 -14q-97 0 -125 51t-3 169l78 366h-124l10 46h124l38 182h50l-38 -182h208l-10 -46h-208l-79 -370q-20 -90 -2.5 -130t82.5 -40q54 0 83 13.5t49 47.5l45 -20q-30 -51 -68 -69t-110 -18z" />
    <glyph glyph-name="Tbar" unicode="&#x166;" 
d="M663 754h-244l-65 -308h165l-10 -46h-165l-85 -400h-50l85 400h-165l10 46h165l65 308h-242l9 46h536z" />
    <glyph glyph-name="tbar" unicode="&#x167;" 
d="M509 572h-208l-37 -172h208l-9 -46h-209l-32 -152q-20 -90 -2.5 -130t82.5 -40q54 0 83 13.5t49 47.5l45 -20q-30 -51 -68 -69t-110 -18q-97 0 -125 51t-3 169l32 148h-124l9 46h124l37 172h-124l10 46h124l38 182h50l-38 -182h208z" />
    <glyph glyph-name="Utilde" unicode="&#x168;" 
d="M494 886q-20 0 -38 12t-28.5 26.5t-24.5 26.5t-27 12q-21 0 -31 -13t-16 -40l-49 4q10 44 36 69.5t61 25.5q25 0 45.5 -19.5t38 -38.5t34.5 -19q21 0 31 12.5t15 37.5l49 -4q-9 -42 -35 -67t-61 -25zM236 -14q-123 0 -156 67t5 242l107 505h50l-108 -509
q-32 -149 -10 -204t113 -55q94 0 142.5 57.5t79.5 205.5l107 505h50l-108 -509q-37 -175 -95 -240t-177 -65z" />
    <glyph glyph-name="utilde" unicode="&#x169;" 
d="M445 701q-25 0 -46.5 19.5t-38.5 38.5t-33 19q-21 0 -31 -13t-16 -40l-49 4q10 44 36 69.5t61 25.5q25 0 45.5 -19t38 -38.5t34.5 -19.5q21 0 31 12.5t15 37.5l49 -4q-9 -42 -35 -67t-61 -25zM76 565l-24 37q32 30 88 30q32 0 51.5 -16t19.5 -42q0 -93 -82 -361
q-28 -98 -9 -139.5t82 -41.5q69 0 142.5 101.5t93.5 196.5l61 288h51l-114 -533q-2 -14 -2 -20q0 -15 10 -24t27 -9q25 0 46 21l24 -37q-32 -30 -88 -30q-34 0 -55.5 25t-12.5 67l20 92q-98 -184 -204 -184q-197 0 -122 231q80 247 80 336q0 15 -10 24t-27 9q-25 0 -46 -21z
" />
    <glyph glyph-name="Umacron" unicode="&#x16a;" 
d="M290 909l10 46h274l-10 -46h-274zM236 -14q-123 0 -156 67t5 242l107 505h50l-108 -509q-32 -149 -10 -204t113 -55q94 0 142.5 57.5t79.5 205.5l107 505h50l-108 -509q-37 -175 -95 -240t-177 -65z" />
    <glyph glyph-name="umacron" unicode="&#x16b;" 
d="M241 724l10 46h274l-10 -46h-274zM76 565l-24 37q32 30 88 30q32 0 51.5 -16t19.5 -42q0 -93 -82 -361q-28 -98 -9 -139.5t82 -41.5q69 0 142.5 101.5t93.5 196.5l61 288h51l-114 -533q-2 -14 -2 -20q0 -15 10 -24t27 -9q25 0 46 21l24 -37q-32 -30 -88 -30
q-34 0 -55.5 25t-12.5 67l20 92q-98 -184 -204 -184q-197 0 -122 231q80 247 80 336q0 15 -10 24t-27 9q-25 0 -46 -21z" />
    <glyph glyph-name="Ubreve" unicode="&#x16c;" 
d="M422 870q-72 0 -94.5 26t-8.5 91l49 -4q-8 -39 3.5 -53t52.5 -14q45 0 66 16t29 55l49 -4q-14 -65 -45 -89t-101 -24zM236 -14q-123 0 -156 67t5 242l107 505h50l-108 -509q-32 -149 -10 -204t113 -55q94 0 142.5 57.5t79.5 205.5l107 505h50l-108 -509
q-37 -175 -95 -240t-177 -65z" />
    <glyph glyph-name="ubreve" unicode="&#x16d;" 
d="M373 685q-72 0 -94.5 26t-8.5 91l49 -4q-8 -39 3.5 -53t52.5 -14q45 0 66 16t29 55l49 -4q-14 -65 -45 -89t-101 -24zM76 565l-24 37q32 30 88 30q32 0 51.5 -16t19.5 -42q0 -93 -82 -361q-28 -98 -9 -139.5t82 -41.5q69 0 142.5 101.5t93.5 196.5l61 288h51l-114 -533
q-2 -14 -2 -20q0 -15 10 -24t27 -9q25 0 46 21l24 -37q-32 -30 -88 -30q-34 0 -55.5 25t-12.5 67l20 92q-98 -184 -204 -184q-197 0 -122 231q80 247 80 336q0 15 -10 24t-27 9q-25 0 -46 -21z" />
    <glyph glyph-name="Uring" unicode="&#x16e;" 
d="M398 757q-72 0 -94.5 26t-8.5 93q14 64 44.5 87.5t99.5 23.5q73 0 96 -26t9 -93q-14 -64 -45 -87.5t-101 -23.5zM400 803q45 0 66 16t29 57q8 38 -4 51.5t-53 13.5q-44 0 -65 -16t-29 -57q-8 -37 3.5 -51t52.5 -14zM236 -14q-123 0 -156 67t5 242l107 505h50l-108 -509
q-32 -149 -10 -204t113 -55q94 0 142.5 57.5t79.5 205.5l107 505h50l-108 -509q-37 -175 -95 -240t-177 -65z" />
    <glyph glyph-name="uring" unicode="&#x16f;" 
d="M375 695q-72 0 -94.5 26t-8.5 93q13 64 44 87.5t100 23.5q72 0 95.5 -26.5t9.5 -92.5q-14 -64 -45 -87.5t-101 -23.5zM377 741q45 0 66 16t29 57q8 38 -4 51.5t-54 13.5q-43 0 -64 -16t-29 -57q-8 -37 3.5 -51t52.5 -14zM76 565l-24 37q32 30 88 30q32 0 51.5 -16
t19.5 -42q0 -93 -82 -361q-28 -98 -9 -139.5t82 -41.5q69 0 142.5 101.5t93.5 196.5l61 288h51l-114 -533q-2 -14 -2 -20q0 -15 10 -24t27 -9q25 0 46 21l24 -37q-32 -30 -88 -30q-34 0 -55.5 25t-12.5 67l20 92q-98 -184 -204 -184q-197 0 -122 231q80 247 80 336
q0 15 -10 24t-27 9q-25 0 -46 -21z" />
    <glyph glyph-name="Uhungarumlaut" unicode="&#x170;" 
d="M284 872l-27 35l158 118l27 -35zM456 872l-27 35l158 118l27 -35zM236 -14q-123 0 -156 67t5 242l107 505h50l-108 -509q-32 -149 -10 -204t113 -55q94 0 142.5 57.5t79.5 205.5l107 505h50l-108 -509q-37 -175 -95 -240t-177 -65z" />
    <glyph glyph-name="uhungarumlaut" unicode="&#x171;" 
d="M235 687l-27 35l158 118l27 -35zM407 687l-27 35l158 118l27 -35zM76 565l-24 37q32 30 88 30q32 0 51.5 -16t19.5 -42q0 -93 -82 -361q-28 -98 -9 -139.5t82 -41.5q69 0 142.5 101.5t93.5 196.5l61 288h51l-114 -533q-2 -14 -2 -20q0 -15 10 -24t27 -9q25 0 46 21
l24 -37q-32 -30 -88 -30q-34 0 -55.5 25t-12.5 67l20 92q-98 -184 -204 -184q-197 0 -122 231q80 247 80 336q0 15 -10 24t-27 9q-25 0 -46 -21z" />
    <glyph glyph-name="Uogonek" unicode="&#x172;" 
d="M566 800h50l-108 -509q-35 -166 -88.5 -232.5t-158.5 -71.5l-12 -65q-38 0 -58.5 -7.5t-25.5 -29.5q-3 -15 9 -24t35 -9q37 0 71 25l16 -44q-38 -27 -88 -27q-49 0 -74 24t-17 63q8 34 31.5 54t56.5 20l5 20q-106 6 -133.5 74.5t8.5 233.5l107 505h50l-108 -509
q-32 -149 -10 -204t113 -55q94 0 142.5 57.5t79.5 205.5z" />
    <glyph glyph-name="uogonek" unicode="&#x173;" 
d="M464 -85q-38 0 -58.5 -7.5t-25.5 -29.5q-3 -15 9 -24t35 -9q37 0 71 25l16 -44q-38 -27 -88 -27q-49 0 -74 24t-17 63q8 34 31.5 54t56.5 20l8 30q-25 9 -37.5 32t-5.5 56l20 92q-98 -184 -204 -184q-197 0 -122 231q80 247 80 336q0 15 -10 24t-27 9q-25 0 -46 -21
l-24 37q32 30 88 30q32 0 51.5 -16t19.5 -42q0 -93 -82 -361q-28 -98 -9 -139.5t82 -41.5q69 0 142.5 101.5t93.5 196.5l61 288h51l-114 -533q-2 -14 -2 -20q0 -15 10 -24t27 -9q25 0 46 21l24 -37q-21 -21 -63 -28z" />
    <glyph glyph-name="Wcircumflex" unicode="&#x174;" 
d="M511 870l-73 83l-109 -81l-33 30l153 115l106 -117zM77 0l63 800h50l-57 -685l190 421h50l10 -421l235 685h52l-277 -800h-51l-12 445l-202 -445h-51z" />
    <glyph glyph-name="wcircumflex" unicode="&#x175;" 
d="M399 768l-109 -81l-33 30l153 115l106 -117l-44 -30zM575 618h52q-21 -92 -60.5 -194.5t-95.5 -229.5t-82 -194h-48l-30 315q-27 -58 -93.5 -165t-89.5 -150h-48l25 618h50l-23 -528q10 17 39 63.5t42.5 70t33.5 61.5t32 70t19 63h50l32 -321q13 31 53 125t59 140
t44 120.5t39 135.5z" />
    <glyph glyph-name="Ycircumflex" unicode="&#x176;" 
d="M511 870l-73 83l-109 -81l-33 30l153 115l106 -117zM209 0l67 308l-129 492h54l111 -430l295 430h56l-337 -492l-67 -308h-50z" />
    <glyph glyph-name="ycircumflex" unicode="&#x177;" 
d="M472 685l-73 83l-109 -81l-33 30l153 115l106 -117zM115 -206q-48 0 -77.5 19.5t-29.5 50.5q0 54 98.5 85t268.5 31q29 49 42 126q-10 -32 -56 -46t-96 -14q-77 0 -118 54t-20 119q78 239 78 334q0 15 -10 24t-27 9q-25 0 -46 -21l-24 37q32 30 88 30q31 0 50 -16t19 -42
q0 -103 -78 -355q-18 -57 8.5 -92t79.5 -35q46 0 76 7t58.5 36.5t39.5 83.5l84 399h50q-38 -180 -55 -260.5t-38.5 -178t-33.5 -140t-21 -59.5q55 0 88 9l-10 -45q-33 -9 -98 -9q-37 -64 -117 -102.5t-173 -38.5zM127 -160q62 0 123.5 26t98.5 69q-131 -4 -211 -23.5
t-80 -47.5q0 -11 19 -17.5t50 -6.5z" />
    <glyph glyph-name="Ydieresis" unicode="&#x178;" 
d="M325 917q-33 0 -43.5 12.5t-3.5 43.5q5 27 17.5 36.5t42.5 9.5q33 0 44 -12t4 -42q-6 -28 -18.5 -38t-42.5 -10zM541 917q-33 0 -43.5 12.5t-3.5 43.5q5 27 17.5 36.5t42.5 9.5q33 0 44 -12t4 -42q-6 -28 -18.5 -38t-42.5 -10zM209 0l67 308l-129 492h54l111 -430
l295 430h56l-337 -492l-67 -308h-50z" />
    <glyph glyph-name="Zacute" unicode="&#x179;" 
d="M410 869l-27 35l158 118l27 -35zM449 -63q-45 0 -135.5 37.5t-148.5 37.5q-5 0 -56 -6t-116 -6l8 41l575 713h-420l9 46h480l-8 -42l-574 -712q21 0 55.5 6t57.5 6q64 0 152 -37.5t131 -37.5q48 0 117.5 31.5t116.5 31.5l-10 -46q-25 0 -58 -15.5t-77.5 -31.5t-98.5 -16z
" />
    <glyph glyph-name="zacute" unicode="&#x17a;" 
d="M372 687l-27 35l158 118l27 -35zM411 3q54 0 122 21.5t112 21.5l-10 -46q-24 0 -91 -21.5t-143 -21.5q-44 0 -110.5 26t-101.5 26q-6 0 -50 -4.5t-104 -4.5l6 31l444 541h-327l10 46h395l-6 -31l-443 -541q4 0 31.5 4.5t54.5 4.5q40 0 104.5 -26t106.5 -26z" />
    <glyph glyph-name="Zdotaccent" unicode="&#x17b;" 
d="M433 918q-40 0 -52.5 15t-4.5 52q8 35 23 47t52 12q40 0 52.5 -15t4.5 -52q-7 -34 -22.5 -46.5t-52.5 -12.5zM449 -63q-45 0 -135.5 37.5t-148.5 37.5q-5 0 -56 -6t-116 -6l8 41l575 713h-420l9 46h480l-8 -42l-574 -712q21 0 55.5 6t57.5 6q64 0 152 -37.5t131 -37.5
q48 0 117.5 31.5t116.5 31.5l-10 -46q-25 0 -58 -15.5t-77.5 -31.5t-98.5 -16z" />
    <glyph glyph-name="zdotaccent" unicode="&#x17c;" 
d="M395 736q-40 0 -52.5 15t-4.5 52q8 35 23 47t52 12q40 0 52.5 -15t4.5 -52q-7 -34 -22.5 -46.5t-52.5 -12.5zM411 3q54 0 122 21.5t112 21.5l-10 -46q-24 0 -91 -21.5t-143 -21.5q-44 0 -110.5 26t-101.5 26q-6 0 -50 -4.5t-104 -4.5l6 31l444 541h-327l10 46h395l-6 -31
l-443 -541q4 0 31.5 4.5t54.5 4.5q40 0 104.5 -26t106.5 -26z" />
    <glyph glyph-name="Zcaron" unicode="&#x17d;" 
d="M421 875l-107 115l43 30l75 -81l109 83l34 -30zM449 -63q-45 0 -135.5 37.5t-148.5 37.5q-5 0 -56 -6t-116 -6l8 41l575 713h-420l9 46h480l-8 -42l-574 -712q21 0 55.5 6t57.5 6q64 0 152 -37.5t131 -37.5q48 0 117.5 31.5t116.5 31.5l-10 -46q-25 0 -58 -15.5
t-77.5 -31.5t-98.5 -16z" />
    <glyph glyph-name="zcaron" unicode="&#x17e;" 
d="M383 693l-107 115l43 30l75 -81l109 83l34 -30zM411 3q54 0 122 21.5t112 21.5l-10 -46q-24 0 -91 -21.5t-143 -21.5q-44 0 -110.5 26t-101.5 26q-6 0 -50 -4.5t-104 -4.5l6 31l444 541h-327l10 46h395l-6 -31l-443 -541q4 0 31.5 4.5t54.5 4.5q40 0 104.5 -26t106.5 -26
z" />
    <glyph glyph-name="florin" unicode="&#x192;" 
d="M111 -14q-59 0 -84 19.5t-34 71.5l49 12q6 -33 21 -45t49 -12q59 0 89 35t49 125l39 183h-124l10 46h124l42 199q24 111 64.5 152.5t122.5 41.5q58 0 83.5 -20t33.5 -71l-48 -12q-6 33 -21 45t-49 12q-59 0 -89 -35t-49 -125l-40 -187h178l-10 -46h-178l-41 -195
q-24 -111 -65 -152.5t-122 -41.5z" />
    <glyph glyph-name="Ohorn" unicode="&#x1a0;" 
d="M734 906h50l-28 -132q-11 -55 -46 -87.5t-82 -32.5q-21 0 -42 13q6 -82 -26 -229l-17 -80q-45 -213 -110.5 -292.5t-196.5 -79.5q-135 0 -169 81.5t11 294.5l17 80q46 213 111.5 292.5t196.5 79.5q73 0 115 -22t58 -71q14 -21 53 -21q27 0 49 21.5t29 56.5zM511 442
q40 187 17 256.5t-126 69.5q-107 0 -163 -71.5t-95 -258.5l-17 -80q-39 -187 -15.5 -256.5t125.5 -69.5q106 0 161.5 71.5t95.5 258.5z" />
    <glyph glyph-name="ohorn" unicode="&#x1a1;" 
d="M670 721h50l-28 -132q-11 -55 -46 -87.5t-82 -32.5q-13 0 -28 5q1 -61 -22 -169q-30 -143 -106.5 -231t-171.5 -88q-125 0 -157.5 71t7.5 256q30 143 106.5 231t171.5 88q78 0 118.5 -26t50.5 -86q15 -5 32 -5q27 0 49 21.5t29 56.5zM466 313q33 157 11 215t-114 58
q-76 0 -139 -77t-90 -204q-33 -157 -11 -215t114 -58q76 0 139 77t90 204z" />
    <glyph glyph-name="Uhorn" unicode="&#x1af;" 
d="M749 978h50l-28 -132q-11 -55 -46 -87.5t-82 -32.5q-21 0 -40 11l-95 -446q-37 -175 -95 -240t-177 -65q-123 0 -156 67t5 242l107 505h50l-108 -509q-32 -149 -10 -204t113 -55q94 0 142.5 57.5t79.5 205.5l107 505h50l-5 -22q15 -6 33 -6q27 0 48.5 22t29.5 56z" />
    <glyph glyph-name="uhorn" unicode="&#x1b0;" 
d="M681 798h50l-28 -132q-11 -55 -46 -87.5t-82 -32.5q-18 0 -38 10l-101 -471q-2 -14 -2 -20q0 -15 10 -24t27 -9q25 0 46 21l24 -37q-32 -30 -88 -30q-34 0 -55.5 25t-12.5 67l20 92q-98 -184 -204 -184q-197 0 -122 231q80 247 80 336q0 15 -10 24t-27 9q-25 0 -46 -21
l-24 37q32 30 88 30q32 0 51.5 -16t19.5 -42q0 -93 -82 -361q-28 -98 -9 -139.5t82 -41.5q69 0 142.5 101.5t93.5 196.5l61 288h51l-5 -21q15 -5 31 -5q27 0 48.5 22t29.5 56z" />
    <glyph glyph-name="uni01CD" unicode="&#x1cd;" 
d="M576 995l-154 -117l-107 115l43 30l75 -81l109 83zM376 800h56l52 -800h-51l-13 216h-278l-105 -216h-53zM164 262h253l-28 463z" />
    <glyph glyph-name="uni01CE" unicode="&#x1ce;" 
d="M383 693l-107 115l43 30l75 -81l109 83l34 -30zM495 53l24 -37q-32 -30 -88 -30q-31 0 -50 16t-19 42q0 44 9 69q-29 -57 -75.5 -92t-95.5 -35q-76 0 -122 47.5t-46 125.5q0 100 50.5 211.5t129 186.5t151.5 75q69 0 107 -19.5t38 -67.5q0 -16 -92 -450q-7 -29 -0.5 -46
t33.5 -17q25 0 46 21zM200 32q59 0 115 62t87 163q56 260 56 283q0 26 -21.5 36t-73.5 10q-58 0 -125 -69.5t-111.5 -170.5t-44.5 -187q0 -57 32.5 -92t85.5 -35z" />
    <glyph glyph-name="uni01CF" unicode="&#x1cf;" 
d="M576 995l-154 -117l-107 115l43 30l75 -81l109 83zM582 754h-163l-150 -708h162l-10 -46h-374l10 46h162l150 708h-161l9 46h374z" />
    <glyph glyph-name="uni01D0" unicode="&#x1d0;" 
d="M320 693l-107 115l43 30l75 -81l109 83l34 -30zM338 -14q-115 0 -148 60.5t7 215.5l64 231q6 33 -3.5 52t-43.5 27l12 46q102 -21 87 -112l-66 -244q-33 -129 -11 -179.5t102 -50.5q38 0 64 16.5t58 59.5l40 -28q-41 -53 -76 -73.5t-86 -20.5z" />
    <glyph glyph-name="uni01D1" unicode="&#x1d1;" 
d="M422 878l-107 115l43 30l75 -81l109 83l34 -30zM236 -14q-135 0 -169 81.5t11 294.5l17 80q46 213 111.5 292.5t196.5 79.5q134 0 168.5 -81.5t-11.5 -294.5l-17 -80q-45 -213 -110.5 -292.5t-196.5 -79.5zM237 32q106 0 161.5 71.5t95.5 258.5l17 80q40 187 17 256.5
t-126 69.5q-107 0 -163 -71.5t-95 -258.5l-17 -80q-39 -187 -15.5 -256.5t125.5 -69.5z" />
    <glyph glyph-name="uni01D2" unicode="&#x1d2;" 
d="M383 693l-107 115l43 30l75 -81l109 83l34 -30zM236 -14q-125 0 -157.5 71t7.5 256q30 143 106.5 231t171.5 88q125 0 157.5 -71t-7.5 -256q-30 -143 -106.5 -231t-171.5 -88zM237 32q76 0 139 77t90 204q33 157 11 215t-114 58q-76 0 -139 -77t-90 -204
q-33 -157 -11 -215t114 -58z" />
    <glyph glyph-name="uni01D3" unicode="&#x1d3;" 
d="M422 878l-107 115l43 30l75 -81l109 83l34 -30zM236 -14q-123 0 -156 67t5 242l107 505h50l-108 -509q-32 -149 -10 -204t113 -55q94 0 142.5 57.5t79.5 205.5l107 505h50l-108 -509q-37 -175 -95 -240t-177 -65z" />
    <glyph glyph-name="uni01D4" unicode="&#x1d4;" 
d="M373 693l-107 115l43 30l75 -81l109 83l34 -30zM76 565l-24 37q32 30 88 30q32 0 51.5 -16t19.5 -42q0 -93 -82 -361q-28 -98 -9 -139.5t82 -41.5q69 0 142.5 101.5t93.5 196.5l61 288h51l-114 -533q-2 -14 -2 -20q0 -15 10 -24t27 -9q25 0 46 21l24 -37q-32 -30 -88 -30
q-34 0 -55.5 25t-12.5 67l20 92q-98 -184 -204 -184q-197 0 -122 231q80 247 80 336q0 15 -10 24t-27 9q-25 0 -46 -21z" />
    <glyph glyph-name="uni01D5" unicode="&#x1d5;" 
d="M316 1031l10 46h274l-10 -46h-274zM306 824q-33 0 -43.5 12.5t-3.5 43.5q5 27 17.5 36.5t42.5 9.5q33 0 44 -12t4 -42q-6 -28 -18.5 -38t-42.5 -10zM522 824q-33 0 -43.5 12.5t-3.5 43.5q5 27 17.5 36.5t42.5 9.5q33 0 44 -12t4 -42q-6 -28 -18.5 -38t-42.5 -10zM236 -14
q-123 0 -156 67t5 242l107 505h50l-108 -509q-32 -149 -10 -204t113 -55q94 0 142.5 57.5t79.5 205.5l107 505h50l-108 -509q-37 -175 -95 -240t-177 -65z" />
    <glyph glyph-name="uni01D6" unicode="&#x1d6;" 
d="M286 939l10 46h274l-10 -46h-274zM276 732q-33 0 -43.5 12.5t-3.5 43.5q5 27 17.5 36.5t42.5 9.5q33 0 44 -12t4 -42q-6 -28 -18.5 -38t-42.5 -10zM492 732q-33 0 -43.5 12.5t-3.5 43.5q5 27 17.5 36.5t42.5 9.5q33 0 44 -12t4 -42q-6 -28 -18.5 -38t-42.5 -10zM76 565
l-24 37q32 30 88 30q32 0 51.5 -16t19.5 -42q0 -93 -82 -361q-28 -98 -9 -139.5t82 -41.5q69 0 142.5 101.5t93.5 196.5l61 288h51l-114 -533q-2 -14 -2 -20q0 -15 10 -24t27 -9q25 0 46 21l24 -37q-32 -30 -88 -30q-34 0 -55.5 25t-12.5 67l20 92q-98 -184 -204 -184
q-197 0 -122 231q80 247 80 336q0 15 -10 24t-27 9q-25 0 -46 -21z" />
    <glyph glyph-name="uni01D7" unicode="&#x1d7;" 
d="M424 931l-27 35l158 118l27 -35zM306 824q-33 0 -43.5 12.5t-3.5 43.5q5 27 17.5 36.5t42.5 9.5q33 0 44 -12t4 -42q-6 -28 -18.5 -38t-42.5 -10zM522 824q-33 0 -43.5 12.5t-3.5 43.5q5 27 17.5 36.5t42.5 9.5q33 0 44 -12t4 -42q-6 -28 -18.5 -38t-42.5 -10zM236 -14
q-123 0 -156 67t5 242l107 505h50l-108 -509q-32 -149 -10 -204t113 -55q94 0 142.5 57.5t79.5 205.5l107 505h50l-108 -509q-37 -175 -95 -240t-177 -65z" />
    <glyph glyph-name="uni01D8" unicode="&#x1d8;" 
d="M407 902l-27 35l158 118l27 -35zM276 732q-33 0 -43.5 12.5t-3.5 43.5q5 27 17.5 36.5t42.5 9.5q33 0 44 -12t4 -42q-6 -28 -18.5 -38t-42.5 -10zM492 732q-33 0 -43.5 12.5t-3.5 43.5q5 27 17.5 36.5t42.5 9.5q33 0 44 -12t4 -42q-6 -28 -18.5 -38t-42.5 -10zM76 565
l-24 37q32 30 88 30q32 0 51.5 -16t19.5 -42q0 -93 -82 -361q-28 -98 -9 -139.5t82 -41.5q69 0 142.5 101.5t93.5 196.5l61 288h51l-114 -533q-2 -14 -2 -20q0 -15 10 -24t27 -9q25 0 46 21l24 -37q-32 -30 -88 -30q-34 0 -55.5 25t-12.5 67l20 92q-98 -184 -204 -184
q-197 0 -122 231q80 247 80 336q0 15 -10 24t-27 9q-25 0 -46 -21z" />
    <glyph glyph-name="uni01D9" unicode="&#x1d9;" 
d="M436 940l-107 115l43 30l75 -81l109 83l34 -30zM306 824q-33 0 -43.5 12.5t-3.5 43.5q5 27 17.5 36.5t42.5 9.5q33 0 44 -12t4 -42q-6 -28 -18.5 -38t-42.5 -10zM522 824q-33 0 -43.5 12.5t-3.5 43.5q5 27 17.5 36.5t42.5 9.5q33 0 44 -12t4 -42q-6 -28 -18.5 -38
t-42.5 -10zM236 -14q-123 0 -156 67t5 242l107 505h50l-108 -509q-32 -149 -10 -204t113 -55q94 0 142.5 57.5t79.5 205.5l107 505h50l-108 -509q-37 -175 -95 -240t-177 -65z" />
    <glyph glyph-name="uni01DA" unicode="&#x1da;" 
d="M418 908l-107 115l43 30l75 -81l109 83l34 -30zM276 732q-33 0 -43.5 12.5t-3.5 43.5q5 27 17.5 36.5t42.5 9.5q33 0 44 -12t4 -42q-6 -28 -18.5 -38t-42.5 -10zM492 732q-33 0 -43.5 12.5t-3.5 43.5q5 27 17.5 36.5t42.5 9.5q33 0 44 -12t4 -42q-6 -28 -18.5 -38
t-42.5 -10zM76 565l-24 37q32 30 88 30q32 0 51.5 -16t19.5 -42q0 -93 -82 -361q-28 -98 -9 -139.5t82 -41.5q69 0 142.5 101.5t93.5 196.5l61 288h51l-114 -533q-2 -14 -2 -20q0 -15 10 -24t27 -9q25 0 46 21l24 -37q-32 -30 -88 -30q-34 0 -55.5 25t-12.5 67l20 92
q-98 -184 -204 -184q-197 0 -122 231q80 247 80 336q0 15 -10 24t-27 9q-25 0 -46 -21z" />
    <glyph glyph-name="uni01DB" unicode="&#x1db;" 
d="M444 931l-112 118l39 35l112 -118zM306 824q-33 0 -43.5 12.5t-3.5 43.5q5 27 17.5 36.5t42.5 9.5q33 0 44 -12t4 -42q-6 -28 -18.5 -38t-42.5 -10zM522 824q-33 0 -43.5 12.5t-3.5 43.5q5 27 17.5 36.5t42.5 9.5q33 0 44 -12t4 -42q-6 -28 -18.5 -38t-42.5 -10zM236 -14
q-123 0 -156 67t5 242l107 505h50l-108 -509q-32 -149 -10 -204t113 -55q94 0 142.5 57.5t79.5 205.5l107 505h50l-108 -509q-37 -175 -95 -240t-177 -65z" />
    <glyph glyph-name="uni01DC" unicode="&#x1dc;" 
d="M427 902l-112 118l39 35l112 -118zM276 732q-33 0 -43.5 12.5t-3.5 43.5q5 27 17.5 36.5t42.5 9.5q33 0 44 -12t4 -42q-6 -28 -18.5 -38t-42.5 -10zM492 732q-33 0 -43.5 12.5t-3.5 43.5q5 27 17.5 36.5t42.5 9.5q33 0 44 -12t4 -42q-6 -28 -18.5 -38t-42.5 -10zM76 565
l-24 37q32 30 88 30q32 0 51.5 -16t19.5 -42q0 -93 -82 -361q-28 -98 -9 -139.5t82 -41.5q69 0 142.5 101.5t93.5 196.5l61 288h51l-114 -533q-2 -14 -2 -20q0 -15 10 -24t27 -9q25 0 46 21l24 -37q-32 -30 -88 -30q-34 0 -55.5 25t-12.5 67l20 92q-98 -184 -204 -184
q-197 0 -122 231q80 247 80 336q0 15 -10 24t-27 9q-25 0 -46 -21z" />
    <glyph glyph-name="uni0218" unicode="&#x218;" 
d="M236 -14q-98 0 -143.5 24t-66.5 87l43 31q13 -55 49 -75.5t119 -20.5q101 0 148.5 40.5t69.5 146.5q15 70 -13 108.5t-119 71.5q-113 40 -149.5 85.5t-19.5 127.5q25 116 77.5 159t171.5 43q89 0 131.5 -21t64.5 -75l-40 -33q-15 48 -48.5 65.5t-108.5 17.5
q-93 0 -136.5 -35.5t-62.5 -128.5q-13 -61 13 -94.5t109 -62.5q121 -40 159.5 -91t18.5 -145q-27 -129 -84.5 -177t-182.5 -48zM128 -246l76 121q-28 5 -19 43q4 22 13.5 29t32.5 7q26 0 34.5 -9.5t3.5 -34.5q-11 -50 -104 -158z" />
    <glyph glyph-name="uni0219" unicode="&#x219;" 
d="M217 -14q-65 0 -117.5 30t-83.5 82l44 20q22 -39 62.5 -62.5t84.5 -23.5q86 0 136 74.5t50 181.5q0 80 -38 133q-38 -52 -104 -89.5t-135 -45.5l-9 46q64 7 123.5 42t93.5 87q-26 25 -41.5 53.5t-15.5 47.5q0 31 19 50.5t52 19.5q36 0 56.5 -20t20.5 -53q0 -50 -33 -95
q28 -34 44.5 -84t16.5 -98q0 -137 -87 -229q37 12 77.5 34t59.5 43l31 -32q-44 -50 -128.5 -81t-178.5 -31zM349 497q18 32 18 58q0 36 -27 36q-25 0 -25 -28q0 -27 34 -66zM118 -246l76 121q-28 5 -19 43q4 22 13.5 29t32.5 7q26 0 34.5 -9.5t3.5 -34.5q-11 -50 -104 -158z
" />
    <glyph glyph-name="uni021A" unicode="&#x21a;" 
d="M672 800l-9 -46h-244l-160 -754h-50l160 754h-242l9 46h536zM231 -46q26 0 34.5 -9.5t3.5 -34.5q-11 -50 -104 -158l-37 2l76 121q-28 5 -19 43q4 22 13.5 29t32.5 7z" />
    <glyph glyph-name="uni021B" unicode="&#x21b;" 
d="M301 -14q-97 0 -125 51t-3 169l78 366h-124l10 46h124l38 182h50l-38 -182h208l-10 -46h-208l-79 -370q-20 -90 -2.5 -130t82.5 -40q54 0 83 13.5t49 47.5l45 -20q-30 -51 -68 -69t-110 -18zM178 -246l76 121q-28 5 -19 43q4 22 13.5 29t32.5 7q26 0 34.5 -9.5t3.5 -34.5
q-11 -50 -104 -158z" />
    <glyph glyph-name="uni0237" unicode="&#x237;" 
d="M55 -206q-48 0 -77.5 19.5t-29.5 50.5q0 54 98.5 85t268.5 31q23 40 118 507q7 33 -2 52.5t-43 28.5l14 45q101 -24 83 -115q-92 -465 -120 -518q55 0 88 9l-10 -45q-33 -9 -98 -9q-37 -64 -117 -102.5t-173 -38.5zM67 -160q62 0 123.5 26t98.5 69q-131 -4 -211 -23.5
t-80 -47.5q0 -11 19 -17.5t50 -6.5z" />
    <glyph glyph-name="circumflex" unicode="&#x2c6;" 
d="M472 685l-73 83l-109 -81l-33 30l153 115l106 -117z" />
    <glyph glyph-name="caron" unicode="&#x2c7;" 
d="M385 703l-107 115l43 30l75 -81l109 83l34 -30z" />
    <glyph glyph-name="breve" unicode="&#x2d8;" 
d="M387 705q-72 0 -94.5 25.5t-8.5 91.5l49 -4q-8 -39 3.5 -53t52.5 -14q45 0 66 16t29 55l49 -4q-13 -65 -44 -89t-102 -24z" />
    <glyph glyph-name="dotaccent" unicode="&#x2d9;" 
d="M395 736q-40 0 -52.5 15t-4.5 52q8 35 23 47t52 12q40 0 52.5 -15t4.5 -52q-7 -34 -22.5 -46.5t-52.5 -12.5z" />
    <glyph glyph-name="ring" unicode="&#x2da;" 
d="M385 695q-72 0 -94.5 26t-8.5 93q13 64 44 87.5t100 23.5q72 0 95.5 -26.5t9.5 -92.5q-14 -64 -45 -87.5t-101 -23.5zM387 741q45 0 66 16t29 57q8 38 -4 51.5t-54 13.5q-43 0 -64 -16t-29 -57q-8 -37 3.5 -51t52.5 -14z" />
    <glyph glyph-name="ogonek" unicode="&#x2db;" 
d="M217 -196q-49 0 -74 24t-17 63q8 34 31.5 54t56.5 20l10 40h50l-16 -85q-38 0 -58.5 -7.5t-25.5 -29.5q-3 -15 9 -24t35 -9q37 0 71 25l16 -44q-38 -27 -88 -27z" />
    <glyph glyph-name="tilde" unicode="&#x2dc;" 
d="M455 701q-25 0 -46.5 19.5t-38.5 38.5t-33 19q-21 0 -31 -13t-16 -40l-49 4q10 44 36 69.5t61 25.5q25 0 45.5 -19t38 -38.5t34.5 -19.5q21 0 31 12.5t15 37.5l49 -4q-9 -42 -35 -67t-61 -25z" />
    <glyph glyph-name="hungarumlaut" unicode="&#x2dd;" 
d="M245 687l-27 35l158 118l27 -35zM417 687l-27 35l158 118l27 -35z" />
    <glyph glyph-name="gravecomb" unicode="&#x300;" horiz-adv-x="0" 
d="M-208 687l-112 118l39 35l112 -118z" />
    <glyph glyph-name="acutecomb" unicode="&#x301;" horiz-adv-x="0" 
d="M-228 687l-27 35l158 118l27 -35z" />
    <glyph glyph-name="uni0302" unicode="&#x302;" horiz-adv-x="0" 
d="M-128 685l-73 83l-109 -81l-33 30l153 115l106 -117z" />
    <glyph glyph-name="tildecomb" unicode="&#x303;" horiz-adv-x="0" 
d="M-145 701q-25 0 -46.5 19.5t-38.5 38.5t-33 19q-21 0 -31 -13t-16 -40l-49 4q10 44 36 69.5t61 25.5q25 0 45.5 -19t38 -38.5t34.5 -19.5q21 0 31 12.5t15 37.5l49 -4q-9 -42 -35 -67t-61 -25z" />
    <glyph glyph-name="uni0304" unicode="&#x304;" horiz-adv-x="0" 
d="M-349 724l10 46h274l-10 -46h-274z" />
    <glyph glyph-name="uni0306" unicode="&#x306;" horiz-adv-x="0" 
d="M-217 685q-72 0 -94.5 26t-8.5 91l49 -4q-8 -39 3.5 -53t52.5 -14q45 0 66 16t29 55l49 -4q-14 -65 -45 -89t-101 -24z" />
    <glyph glyph-name="uni0307" unicode="&#x307;" horiz-adv-x="0" 
d="M-205 736q-40 0 -52.5 15t-4.5 52q8 35 23 47t52 12q40 0 52.5 -15t4.5 -52q-7 -34 -22.5 -46.5t-52.5 -12.5z" />
    <glyph glyph-name="uni0308" unicode="&#x308;" horiz-adv-x="0" 
d="M-314 732q-33 0 -43.5 12.5t-3.5 43.5q5 27 17.5 36.5t42.5 9.5q33 0 44 -12t4 -42q-6 -28 -18.5 -38t-42.5 -10zM-98 732q-33 0 -43.5 12.5t-3.5 43.5q5 27 17.5 36.5t42.5 9.5q33 0 44 -12t4 -42q-6 -28 -18.5 -38t-42.5 -10z" />
    <glyph glyph-name="hookabovecomb" unicode="&#x309;" horiz-adv-x="0" 
d="M-240 655l-7 45q69 18 78 56q3 13 -5.5 21.5t-21.5 8.5q-43 0 -95 -38l9 58q41 26 87 26q39 0 60.5 -23.5t13.5 -60.5q-6 -31 -37 -56t-82 -37z" />
    <glyph glyph-name="uni030A" unicode="&#x30a;" horiz-adv-x="0" 
d="M-215 695q-72 0 -94.5 26t-8.5 93q13 64 44 87.5t100 23.5q72 0 95.5 -26.5t9.5 -92.5q-14 -64 -45 -87.5t-101 -23.5zM-213 741q45 0 66 16t29 57q8 38 -4 51.5t-54 13.5q-43 0 -64 -16t-29 -57q-8 -37 3.5 -51t52.5 -14z" />
    <glyph glyph-name="uni030B" unicode="&#x30b;" horiz-adv-x="0" 
d="M-355 687l-27 35l158 118l27 -35zM-183 687l-27 35l158 118l27 -35z" />
    <glyph glyph-name="uni030C" unicode="&#x30c;" horiz-adv-x="0" 
d="M-217 693l-107 115l43 30l75 -81l109 83l34 -30z" />
    <glyph glyph-name="uni0312" unicode="&#x312;" horiz-adv-x="0" 
d="M-218 660q-26 0 -34.5 9.5t-3.5 34.5q11 50 104 158l37 -2l-76 -121q28 -4 19 -43q-4 -22 -13.5 -29t-32.5 -7z" />
    <glyph glyph-name="uni031B" unicode="&#x31b;" horiz-adv-x="0" 
d="M-178 651q-36 0 -62 29l7 43q11 -26 56 -26q27 0 48.5 21.5t29.5 56.5l27 128h50l-28 -132q-11 -55 -46 -87.5t-82 -32.5z" />
    <glyph glyph-name="dotbelowcomb" unicode="&#x323;" horiz-adv-x="0" 
d="M-410 -230q-40 0 -52.5 15t-4.5 52q8 35 23 47t52 12q40 0 52.5 -15t4.5 -52q-7 -34 -22.5 -46.5t-52.5 -12.5z" />
    <glyph glyph-name="uni0326" unicode="&#x326;" horiz-adv-x="0" 
d="M-489 -246l76 121q-28 5 -19 43q4 22 13.5 29t32.5 7q26 0 34.5 -9.5t3.5 -34.5q-11 -50 -104 -158z" />
    <glyph glyph-name="uni0327" unicode="&#x327;" horiz-adv-x="0" 
d="M-399 -196q-53 0 -82 29l27 40q23 -23 56 -23q26 0 45 11.5t23 29.5q4 19 -11.5 24t-54.5 5l16 85h50l-10 -40q33 0 49.5 -23t8.5 -59q-7 -36 -39 -57.5t-78 -21.5z" />
    <glyph glyph-name="uni0328" unicode="&#x328;" horiz-adv-x="0" 
d="M-288 -196q-49 0 -74 24t-17 63q8 34 31.5 54t56.5 20l10 40h50l-16 -85q-38 0 -58.5 -7.5t-25.5 -29.5q-3 -15 9 -24t35 -9q37 0 71 25l16 -44q-38 -27 -88 -27z" />
    <glyph glyph-name="uni0374" unicode="&#x374;" 
d="M314 492l55 308h70l-75 -308h-50z" />
    <glyph glyph-name="uni0375" unicode="&#x375;" 
d="M156 -202l76 308h50l-56 -308h-70z" />
    <glyph glyph-name="uni037E" unicode="&#x37e;" 
d="M343 492q-40 0 -52.5 15t-4.5 52q7 34 23 46.5t52 12.5q40 0 52.5 -14.5t4.5 -52.5q-7 -34 -22.5 -46.5t-52.5 -12.5zM91 -202l117 190q-42 7 -29 65q7 34 22.5 46.5t52.5 12.5q40 0 52.5 -15t4.5 -52q-17 -78 -165 -249z" />
    <glyph glyph-name="tonos" unicode="&#x384;" 
d="M372 687l-27 35l158 118l27 -35z" />
    <glyph glyph-name="dieresistonos" unicode="&#x385;" 
d="M332 687l-27 35l158 118l27 -35zM232 711q-33 0 -44 12.5t-4 43.5q6 27 18.5 36.5t42.5 9.5q33 0 43.5 -12t4.5 -42q-6 -28 -18.5 -38t-42.5 -10zM548 711q-33 0 -44 12.5t-4 43.5q6 27 18.5 36.5t42.5 9.5q33 0 43.5 -12t4.5 -42q-6 -28 -18.5 -38t-42.5 -10z" />
    <glyph glyph-name="Alphatonos" unicode="&#x386;" 
d="M433 0l-13 216h-278l-105 -216h-53l392 800h56l52 -800h-51zM321 765l-158 -118l-27 35l158 118zM164 262h253l-28 463z" />
    <glyph glyph-name="anoteleia" unicode="&#x387;" 
d="M310 337q-40 0 -52.5 14.5t-4.5 52.5q7 34 23 46.5t53 12.5q40 0 52.5 -14.5t4.5 -52.5q-7 -34 -23 -46.5t-53 -12.5z" />
    <glyph glyph-name="Epsilontonos" unicode="&#x388;" 
d="M130 800l27 -35l-158 -118l-27 35zM621 754h-375l-65 -308h240l-10 -46h-240l-75 -354h374l-10 -46h-424l170 800h424z" />
    <glyph glyph-name="Etatonos" unicode="&#x389;" 
d="M110 800l27 -35l-158 -118l-27 35zM570 800h50l-170 -800h-50l85 400h-332l-85 -400h-50l170 800h50l-75 -354h332z" />
    <glyph glyph-name="Iotatonos" unicode="&#x38a;" 
d="M136 800l27 -35l-158 -118l-27 35zM582 754h-163l-150 -708h162l-10 -46h-374l10 46h162l150 708h-161l9 46h374z" />
    <glyph glyph-name="Omicrontonos" unicode="&#x38c;" 
d="M236 -14q-135 0 -169 81.5t11 294.5l17 80q46 213 111.5 292.5t196.5 79.5q134 0 168.5 -81.5t-11.5 -294.5l-17 -80q-45 -213 -110.5 -292.5t-196.5 -79.5zM13 647l-27 35l158 118l27 -35zM237 32q106 0 161.5 71.5t95.5 258.5l17 80q40 187 17 256.5t-126 69.5
q-107 0 -163 -71.5t-95 -258.5l-17 -80q-39 -187 -15.5 -256.5t125.5 -69.5z" />
    <glyph glyph-name="Upsilontonos" unicode="&#x38e;" 
d="M-87 647l-27 35l158 118l27 -35zM209 0l67 308l-129 492h54l111 -430l295 430h56l-337 -492l-67 -308h-50z" />
    <glyph glyph-name="Omegatonos" unicode="&#x38f;" 
d="M-39 0l10 46l105 1q-29 41 -28.5 109t29.5 206l17 80q46 213 111.5 292.5t195.5 79.5q135 0 169.5 -81.5t-11.5 -294.5l-17 -80q-29 -140 -56 -206.5t-71 -106.5l102 1l-10 -46h-216l8 46q71 0 113.5 68.5t80.5 247.5l17 80q40 187 16.5 256.5t-126.5 69.5
q-105 0 -161 -72t-96 -258l-17 -80q-26 -123 -28.5 -188.5t18 -94.5t69.5 -29l-8 -46h-216zM13 647l-27 35l158 118l27 -35z" />
    <glyph glyph-name="iotadieresistonos" unicode="&#x390;" 
d="M270 687l-27 35l158 118l27 -35zM170 711q-33 0 -44 12.5t-4 43.5q6 27 18.5 36.5t42.5 9.5q33 0 43.5 -12t4.5 -42q-6 -28 -18.5 -38t-42.5 -10zM486 711q-33 0 -44 12.5t-4 43.5q6 27 18.5 36.5t42.5 9.5q33 0 43.5 -12t4.5 -42q-6 -28 -18.5 -38t-42.5 -10zM302 -14
q-88 0 -111.5 49.5t4.5 177.5l86 405h50l-87 -409q-22 -102 -9.5 -139.5t68.5 -37.5q41 0 95 39l23 -46q-73 -39 -119 -39z" />
    <glyph glyph-name="Alpha" unicode="&#x391;" 
d="M433 0l-13 216h-278l-105 -216h-53l392 800h56l52 -800h-51zM164 262h253l-28 463z" />
    <glyph glyph-name="Beta" unicode="&#x392;" 
d="M28 0l170 800h188q122 0 160.5 -44t13.5 -158q-16 -76 -45 -112.5t-93 -58.5q67 -20 85.5 -64.5t-2.5 -142.5q-27 -126 -82.5 -173t-177.5 -47h-217zM173 446h138q94 0 138 34.5t63 125.5q18 86 -9.5 117t-121.5 31h-142zM88 46h163q94 0 139 39.5t67 142.5
q21 99 -6 135.5t-121 36.5h-167z" />
    <glyph glyph-name="Gamma" unicode="&#x393;" 
d="M631 800l-9 -46h-376l-159 -754h-50l170 800h424z" />
    <glyph glyph-name="uni0394" unicode="&#x394;" 
d="M-14 0l388 800h60l48 -800h-496zM60 46h370l-41 679z" />
    <glyph glyph-name="Epsilon" unicode="&#x395;" 
d="M621 754h-375l-65 -308h240l-10 -46h-240l-75 -354h374l-10 -46h-424l170 800h424z" />
    <glyph glyph-name="Zeta" unicode="&#x396;" 
d="M449 -63q-45 0 -135.5 37.5t-148.5 37.5q-5 0 -56 -6t-116 -6l8 41l575 713h-420l9 46h480l-8 -42l-574 -712q21 0 55.5 6t57.5 6q64 0 152 -37.5t131 -37.5q48 0 117.5 31.5t116.5 31.5l-10 -46q-25 0 -58 -15.5t-77.5 -31.5t-98.5 -16z" />
    <glyph glyph-name="Eta" unicode="&#x397;" 
d="M570 800h50l-170 -800h-50l85 400h-332l-85 -400h-50l170 800h50l-75 -354h332z" />
    <glyph glyph-name="Theta" unicode="&#x398;" 
d="M313 909l8 46h219l-8 -46h-219zM236 -14q-135 0 -169 81.5t11 294.5l17 80q46 213 111.5 292.5t196.5 79.5q134 0 168.5 -81.5t-11.5 -294.5l-17 -80q-45 -213 -110.5 -292.5t-196.5 -79.5zM237 32q106 0 161.5 71.5t95.5 258.5l17 80q40 187 17 256.5t-126 69.5
q-107 0 -163 -71.5t-95 -258.5l-17 -80q-39 -187 -15.5 -256.5t125.5 -69.5z" />
    <glyph glyph-name="Iota" unicode="&#x399;" 
d="M582 754h-163l-150 -708h162l-10 -46h-374l10 46h162l150 708h-161l9 46h374z" />
    <glyph glyph-name="Kappa" unicode="&#x39a;" 
d="M658 800l-378 -367l212 -433h-59l-195 400h-79l-85 -400h-50l170 800h50l-75 -354h61l365 354h63z" />
    <glyph glyph-name="Lambda" unicode="&#x39b;" 
d="M-14 0l388 800h60l48 -800h-49l-44 725l-352 -725h-51z" />
    <glyph glyph-name="Mu" unicode="&#x39c;" 
d="M-6 0l184 800h51l75 -466l275 466h51l-156 -800h-50l132 674l-240 -412h-50l-66 412l-156 -674h-50z" />
    <glyph glyph-name="Nu" unicode="&#x39d;" 
d="M568 800h50l-170 -800h-53l-177 695l-148 -695h-50l170 800h54l177 -693z" />
    <glyph glyph-name="Xi" unicode="&#x39e;" 
d="M145 754l9 46h500l-9 -46h-500zM134 377l10 46h360l-10 -46h-360zM-16 0l10 46h500l-10 -46h-500z" />
    <glyph glyph-name="Omicron" unicode="&#x39f;" 
d="M236 -14q-135 0 -169 81.5t11 294.5l17 80q46 213 111.5 292.5t196.5 79.5q134 0 168.5 -81.5t-11.5 -294.5l-17 -80q-45 -213 -110.5 -292.5t-196.5 -79.5zM237 32q106 0 161.5 71.5t95.5 258.5l17 80q40 187 17 256.5t-126 69.5q-107 0 -163 -71.5t-95 -258.5l-17 -80
q-39 -187 -15.5 -256.5t125.5 -69.5z" />
    <glyph glyph-name="Pi" unicode="&#x3a0;" 
d="M4 0l170 800h460l-170 -800h-50l161 754h-360l-161 -754h-50z" />
    <glyph glyph-name="Rho" unicode="&#x3a1;" 
d="M422 800q122 0 159 -49.5t10 -177.5q-26 -125 -81.5 -172t-177.5 -47h-167l-75 -354h-50l170 800h212zM543 581q21 100 -5.5 136.5t-120.5 36.5h-168l-74 -354h162q94 0 139 39.5t67 141.5z" />
    <glyph glyph-name="Sigma" unicode="&#x3a3;" 
d="M-6 0l9 46l316 354l-164 354l9 46h490l-9 -46h-431l165 -354l-314 -354h429l-10 -46h-490z" />
    <glyph glyph-name="Tau" unicode="&#x3a4;" 
d="M672 800l-9 -46h-244l-160 -754h-50l160 754h-242l9 46h536z" />
    <glyph glyph-name="Upsilon" unicode="&#x3a5;" 
d="M209 0l67 308l-129 492h54l111 -430l295 430h56l-337 -492l-67 -308h-50z" />
    <glyph glyph-name="Phi" unicode="&#x3a6;" 
d="M406 693q148 -5 191.5 -70t9.5 -226q-35 -161 -105 -223.5t-220 -65.5l-23 -108h-50l23 108q-147 5 -190.5 70t-9.5 227q34 159 104 221.5t220 66.5l23 107h50zM558 405q29 134 -6 186.5t-156 55.5l-104 -492q121 4 179 59.5t87 190.5zM81 397q-29 -134 5.5 -186.5
t155.5 -56.5l104 492q-120 -4 -178 -59.5t-87 -189.5z" />
    <glyph glyph-name="Chi" unicode="&#x3a7;" 
d="M643 800l-296 -399l127 -401h-56l-110 348l-258 -348h-54l296 399l-127 401h56l110 -348l258 348h54z" />
    <glyph glyph-name="Psi" unicode="&#x3a8;" 
d="M624 800h50l-60 -286q-32 -153 -98 -212t-206 -63l-51 -239h-50l51 239q-137 5 -177.5 66.5t-8.5 212.5l60 282h50l-60 -286q-27 -126 4.5 -175.5t141.5 -53.5l109 515h50l-109 -514q111 4 164.5 55.5t79.5 176.5z" />
    <glyph glyph-name="uni03A9" unicode="&#x3a9;" 
d="M-39 0l10 46l105 1q-29 41 -28.5 109t29.5 206l17 80q46 213 111.5 292.5t195.5 79.5q135 0 169.5 -81.5t-11.5 -294.5l-17 -80q-29 -140 -56 -206.5t-71 -106.5l102 1l-10 -46h-216l8 46q71 0 113.5 68.5t80.5 247.5l17 80q40 187 16.5 256.5t-126.5 69.5
q-105 0 -161 -72t-96 -258l-17 -80q-26 -123 -28.5 -188.5t18 -94.5t69.5 -29l-8 -46h-216z" />
    <glyph glyph-name="Iotadieresis" unicode="&#x3aa;" 
d="M325 917q-33 0 -43.5 12.5t-3.5 43.5q5 27 17.5 36.5t42.5 9.5q33 0 44 -12t4 -42q-6 -28 -18.5 -38t-42.5 -10zM554 1019q33 0 44 -12t4 -42q-6 -28 -18.5 -38t-42.5 -10q-33 0 -43.5 12.5t-3.5 43.5q5 27 17.5 36.5t42.5 9.5zM591 800l-9 -46h-163l-150 -708h162
l-10 -46h-374l10 46h162l150 708h-161l9 46h374z" />
    <glyph glyph-name="Upsilondieresis" unicode="&#x3ab;" 
d="M325 917q-33 0 -43.5 12.5t-3.5 43.5q5 27 17.5 36.5t42.5 9.5q33 0 44 -12t4 -42q-6 -28 -18.5 -38t-42.5 -10zM541 917q-33 0 -43.5 12.5t-3.5 43.5q5 27 17.5 36.5t42.5 9.5q33 0 44 -12t4 -42q-6 -28 -18.5 -38t-42.5 -10zM209 0l67 308l-129 492h54l111 -430
l295 430h56l-337 -492l-67 -308h-50z" />
    <glyph glyph-name="alphatonos" unicode="&#x3ac;" 
d="M489 805l-158 -118l-27 35l158 118zM492 109l41 -28q-44 -55 -72 -75t-60 -20q-49 0 -68 18t-15 62q-62 -80 -149 -80q-108 0 -134 71t14 256q38 182 91.5 250.5t156.5 68.5q91 0 122 -84l15 70h50l-111 -522q-8 -38 -2 -51t31 -13q18 0 36.5 16.5t53.5 60.5zM170 32
q79 0 122 61t77 220q33 157 18 215t-91 58q-79 0 -122 -61t-77 -220q-33 -157 -18 -215t91 -58z" />
    <glyph glyph-name="epsilontonos" unicode="&#x3ad;" 
d="M331 687l-27 35l158 118l27 -35zM236 -14q-127 0 -167.5 36t-20.5 130q14 66 41.5 100.5t90.5 62.5q-49 27 -63 61.5t-1 98.5q19 90 72.5 123.5t175.5 33.5q126 0 168 -31.5t25 -111.5l-49 4q11 54 -19.5 73.5t-125.5 19.5q-97 0 -140.5 -26t-57.5 -93q-15 -70 10 -97.5
t109 -33.5h72l-10 -46h-68q-86 -6 -126 -38t-56 -108q-13 -64 16.5 -88t124.5 -24q97 0 140 22.5t55 79.5l49 -4q-18 -83 -70 -113.5t-175 -30.5z" />
    <glyph glyph-name="etatonos" unicode="&#x3ae;" 
d="M489 805l-158 -118l-27 35l158 118zM412 632q104 0 128 -52t-7 -179l-124 -583h-50l124 587q24 101 8 141t-90 40q-99 0 -144.5 -36t-66.5 -138l-88 -412h-50l108 508l13 10l-12 -8q11 46 6.5 56t-42.5 10l5 42q31 0 46 -1.5t29 -7t17 -18t-1 -33.5q36 40 81 57t110 17z
" />
    <glyph glyph-name="iotatonos" unicode="&#x3af;" 
d="M269 687l-27 35l158 118l27 -35zM302 -14q-88 0 -111.5 49.5t4.5 177.5l86 405h50l-87 -409q-22 -102 -9.5 -139.5t68.5 -37.5q41 0 95 39l23 -46q-73 -39 -119 -39z" />
    <glyph glyph-name="upsilondieresistonos" unicode="&#x3b0;" 
d="M322 687l-27 35l158 118l27 -35zM222 711q-33 0 -44 12.5t-4 43.5q6 27 18.5 36.5t42.5 9.5q33 0 43.5 -12t4.5 -42q-6 -28 -18.5 -38t-42.5 -10zM538 711q-33 0 -44 12.5t-4 43.5q6 27 18.5 36.5t42.5 9.5q33 0 43.5 -12t4.5 -42q-6 -28 -18.5 -38t-42.5 -10zM236 -14
q-130 0 -164 73.5t7 266.5l62 292h50l-63 -296q-35 -166 -12 -228t121 -62q101 0 153.5 64t88.5 232q23 111 20.5 175t-30.5 117l53 -4q27 -54 28.5 -116t-23.5 -180q-40 -191 -102.5 -262.5t-188.5 -71.5z" />
    <glyph glyph-name="alpha" unicode="&#x3b1;" 
d="M492 109l41 -28q-44 -55 -72 -75t-60 -20q-49 0 -68 18t-15 62q-62 -80 -149 -80q-108 0 -134 71t14 256q38 182 91.5 250.5t156.5 68.5q91 0 122 -84l15 70h50l-111 -522q-8 -38 -2 -51t31 -13q18 0 36.5 16.5t53.5 60.5zM170 32q79 0 122 61t77 220q33 157 18 215
t-91 58q-79 0 -122 -61t-77 -220q-33 -157 -18 -215t91 -58z" />
    <glyph glyph-name="beta" unicode="&#x3b2;" 
d="M545 618q-15 -69 -42.5 -104t-88.5 -61q89 -21 115 -69t4 -152q-30 -141 -87.5 -193.5t-179.5 -52.5q-147 0 -186 85l-46 -218h-50l95 448q1 6 3.5 17t3.5 16v-1l62 291q23 109 73 149.5t162 40.5q115 0 150 -42.5t12 -153.5zM333 476q75 6 111 38.5t52 111.5
q18 82 -6.5 112t-107.5 30q-86 0 -126.5 -32.5t-58.5 -115.5l-85 -399q-20 -108 13.5 -148.5t141.5 -40.5q98 0 145 45t72 163q22 101 -11 142t-145 48h-72l9 46h68z" />
    <glyph glyph-name="gamma" unicode="&#x3b3;" 
d="M556 616q24 -71 6 -154q-21 -98 -85 -196t-220 -272l-36 -176h-50l39 182l-99 618h51l90 -559q130 146 186.5 235.5t74.5 175.5q18 83 -12 150z" />
    <glyph glyph-name="delta" unicode="&#x3b4;" 
d="M405 768q-47 0 -80 -16.5t-38 -42.5q-5 -23 21.5 -45t66 -45t78 -54.5t59.5 -87t8 -128.5q-6 -47 -14 -84q-34 -160 -92 -219.5t-178 -59.5q-125 0 -159 62t0 225q34 160 92 219.5t178 59.5q17 0 45 -2q-17 13 -46 30t-46.5 28.5t-35.5 28t-24 36.5t-1 44q9 44 54.5 70.5
t112.5 26.5q89 0 156 -29l-23 -40q-72 23 -134 23zM237 32q95 0 143.5 52.5t76.5 188.5q29 133 5 183t-116 50q-95 0 -143.5 -52.5t-76.5 -188.5q-29 -133 -5 -183t116 -50z" />
    <glyph glyph-name="epsilon" unicode="&#x3b5;" 
d="M236 -14q-127 0 -167.5 36t-20.5 130q14 66 41.5 100.5t90.5 62.5q-49 27 -63 61.5t-1 98.5q19 90 72.5 123.5t175.5 33.5q126 0 168 -31.5t25 -111.5l-49 4q11 54 -19.5 73.5t-125.5 19.5q-97 0 -140.5 -26t-57.5 -93q-15 -70 10 -97.5t109 -33.5h72l-10 -46h-68
q-86 -6 -126 -38t-56 -108q-13 -64 16.5 -88t124.5 -24q97 0 140 22.5t55 79.5l49 -4q-18 -83 -70 -113.5t-175 -30.5z" />
    <glyph glyph-name="zeta" unicode="&#x3b6;" 
d="M610 753q-175 -73 -309 -203.5t-161 -261.5q-11 -53 2.5 -93.5t44 -65t69.5 -43t79 -33t72 -30.5t49 -40.5t10 -57.5q-5 -26 -29.5 -55.5t-59.5 -52.5l-26 40q25 15 44 36.5t23 39.5q4 21 -14.5 37.5t-51.5 28.5t-73 28t-78.5 35.5t-68 51t-41.5 75t0 107.5
q26 125 140 251t276 207h-262l9 46h360h1q1 1 2 1v-1h1z" />
    <glyph glyph-name="eta" unicode="&#x3b7;" 
d="M412 632q104 0 128 -52t-7 -179l-124 -583h-50l124 587q24 101 8 141t-90 40q-99 0 -144.5 -36t-66.5 -138l-88 -412h-50l108 508l13 10l-12 -8q11 46 6.5 56t-42.5 10l5 42q31 0 46 -1.5t29 -7t17 -18t-1 -33.5q36 40 81 57t110 17z" />
    <glyph glyph-name="theta" unicode="&#x3b8;" 
d="M403 814q101 0 144.5 -117t4.5 -301q-39 -182 -129 -296t-187 -114q-101 0 -144.5 116.5t-4.5 301.5q38 182 128 296t188 114zM402 768q-75 0 -148.5 -96t-111.5 -249h365q29 153 -1.5 249t-103.5 96zM237 32q75 0 148.5 96t111.5 249h-365q-29 -153 1.5 -249t103.5 -96z
" />
    <glyph glyph-name="iota" unicode="&#x3b9;" 
d="M302 -14q-88 0 -111.5 49.5t4.5 177.5l86 405h50l-87 -409q-22 -102 -9.5 -139.5t68.5 -37.5q41 0 95 39l23 -46q-73 -39 -119 -39z" />
    <glyph glyph-name="kappa" unicode="&#x3ba;" 
d="M60 0l132 618h50l-56 -264l50 1q35 18 67.5 53t56.5 69.5t50.5 67t62 53t79.5 20.5l-5 -46q-34 0 -63 -19t-51.5 -49t-44 -61.5t-50 -63t-59.5 -47.5l184 -332h-59l-171 308h-57l-66 -308h-50z" />
    <glyph glyph-name="lambda" unicode="&#x3bb;" 
d="M472 46h42l-10 -46h-48q-38 0 -65 23t-41 61t-21.5 91t-10 108t-3.5 117q0 43 -1 64l-287 -464h-52l336 542q-6 101 -29 156.5t-75 55.5h-42l9 46h48q51 0 81.5 -41.5t41 -108t13.5 -147t5 -161t9 -147t32 -108t68 -41.5z" />
    <glyph glyph-name="uni03BC" unicode="&#x3bc;" 
d="M-19 -182l170 800h50l-95 -445q-13 -80 10.5 -110.5t95.5 -30.5q40 0 85.5 17t86 55.5t50.5 88.5l91 425h50l-132 -618h-50l19 82q-31 -48 -86 -72t-115 -24q-99 0 -135 39l-45 -207h-50z" />
    <glyph glyph-name="nu" unicode="&#x3bd;" 
d="M556 616q24 -71 6 -154q-21 -97 -84 -194t-217 -270l-2 2h-49l-99 618h51l90 -559q130 146 186.5 235.5t74.5 175.5q18 83 -12 150z" />
    <glyph glyph-name="xi" unicode="&#x3be;" 
d="M611 754q-188 -36 -264 -71.5t-88 -92.5q-11 -52 51.5 -71t242.5 -19l-6 -46q-221 -47 -311 -91t-105 -114q-8 -39 28 -64.5t92 -43t110.5 -39t86.5 -66t18 -111.5q-7 -33 -26 -56.5t-63 -51.5l-26 40q32 20 47 36.5t20 39.5q11 53 -23 88t-89.5 54l-111 38t-89.5 54.5
t-22 89.5q16 76 80 122.5t205 82.5q-99 12 -135 43.5t-23 92.5q12 55 58 90.5t146 65.5h-169l9 46h364l-4 -23z" />
    <glyph glyph-name="omicron" unicode="&#x3bf;" 
d="M236 -14q-125 0 -157.5 71t7.5 256q30 143 106.5 231t171.5 88q125 0 157.5 -71t-7.5 -256q-30 -143 -106.5 -231t-171.5 -88zM237 32q76 0 139 77t90 204q33 157 11 215t-114 58q-76 0 -139 -77t-90 -204q-33 -157 -11 -215t114 -58z" />
    <glyph glyph-name="pi" unicode="&#x3c0;" 
d="M615 618l-10 -46h-103l-93 -438q-11 -52 6 -70t76 -18l-6 -46q-79 0 -110 33.5t-15 104.5l92 434h-205l-122 -572h-50l122 572h-100l10 46h508z" />
    <glyph glyph-name="rho" unicode="&#x3c1;" 
d="M364 632q125 0 157.5 -71t-7.5 -256q-38 -182 -98 -250.5t-180 -68.5q-113 0 -150 94l-55 -262h-50l104 491l1 4q38 182 98 250.5t180 68.5zM466 313q33 157 11 215t-114 58q-95 0 -144.5 -60t-83.5 -217l-5 -24q-28 -145 -5 -199t112 -54q96 0 145.5 61t83.5 220z" />
    <glyph glyph-name="uni03C2" unicode="&#x3c2;" 
d="M290 -184l-36 32q37 39 53 61.5t21 45.5q9 40 -0.5 69.5t-31.5 46t-51 31t-60.5 25.5t-60 29t-49 42t-27.5 64t5 94q34 158 106 217t230 59q139 0 181.5 -49.5t14.5 -179.5l-49 4q22 103 -9.5 141t-138.5 38q-134 0 -196 -51.5t-91 -186.5q-11 -51 1.5 -87.5t40 -55
t62.5 -35.5t70 -30t62.5 -38.5t39 -60t-0.5 -94.5q-11 -54 -86 -131z" />
    <glyph glyph-name="sigma" unicode="&#x3c3;" 
d="M639 632l-10 -46h-116q26 -36 25.5 -100.5t-24.5 -180.5q-38 -182 -98 -250.5t-180 -68.5q-125 0 -157.5 71t7.5 256q38 182 98 250.5t180 68.5h5h270zM466 313q33 157 11 215t-114 58q-96 0 -145.5 -61t-83.5 -220q-33 -157 -11 -215t114 -58q96 0 145.5 61t83.5 220z
" />
    <glyph glyph-name="tau" unicode="&#x3c4;" 
d="M361 572l-77 -363q-22 -102 -9.5 -139.5t68.5 -37.5q41 0 95 39l23 -46q-73 -39 -119 -39q-88 0 -111.5 49.5t4.5 177.5l76 359h-195l10 46h454l-10 -46h-209z" />
    <glyph glyph-name="upsilon" unicode="&#x3c5;" 
d="M236 -14q-130 0 -164 73.5t7 266.5l62 292h50l-63 -296q-35 -166 -12 -228t121 -62q101 0 153.5 64t88.5 232q23 111 20.5 175t-30.5 117l53 -4q27 -54 28.5 -116t-23.5 -180q-40 -191 -102.5 -262.5t-188.5 -71.5z" />
    <glyph glyph-name="phi" unicode="&#x3c6;" 
d="M453 632q74 0 87.5 -71t-26.5 -256q-37 -175 -95.5 -244.5t-174.5 -74.5q-10 -44 -37 -170l-49 4l36 167q-99 7 -122.5 80t14.5 246q29 134 88 220.5t129 95.5l-6 -47q-48 -11 -93.5 -87.5t-69.5 -189.5q-31 -147 -16 -207t86 -65q53 236 91 361.5t75 181.5t83 56z
M466 313q33 157 31.5 215t-39.5 58q-43 0 -88.5 -123t-115.5 -430q87 7 133.5 69.5t78.5 210.5z" />
    <glyph glyph-name="chi" unicode="&#x3c7;" 
d="M322 230q4 -196 20 -263q24 -103 91 -103h42l-9 -46h-48q-35 0 -61 20.5t-40 51t-23 80.5t-12 94t-4 107l-266 -353h-56l321 425q-1 39 -2 64t-3 59t-5.5 56.5t-9 48.5t-13.5 42.5t-18.5 31t-25 21t-32.5 6.5h-42l10 46h48q40 0 67.5 -24.5t41 -73t19.5 -98.5t8 -121
l239 317h56z" />
    <glyph glyph-name="psi" unicode="&#x3c8;" 
d="M573 516q15 -35 15.5 -74.5t-14.5 -111.5q-32 -152 -97 -210.5t-205 -62.5l-51 -239h-50l51 239q-137 5 -177.5 66.5t-8.5 212.5l38 182h50l-39 -186q-27 -127 4.5 -176t142.5 -53l109 515h50l-109 -514q110 4 163.5 56t80.5 178q14 69 14.5 108t-14.5 74z" />
    <glyph glyph-name="omega" unicode="&#x3c9;" 
d="M562 616q21 -42 22.5 -123t-17.5 -173q-40 -191 -85.5 -262.5t-125.5 -71.5q-47 0 -72 21t-32 68q-48 -89 -136 -89q-85 0 -101.5 74t24.5 268q19 89 54 169.5t74 122.5l58 -4q-43 -46 -81 -127.5t-57 -168.5q-18 -85 -25 -138.5t-3.5 -88t17.5 -48t41 -13.5q56 0 91 64
t71 230l49 -4q-18 -85 -25.5 -139t-4 -89t17.5 -48.5t41 -13.5q56 0 91 64t71 232q18 85 15.5 166t-25.5 126z" />
    <glyph glyph-name="iotadieresis" unicode="&#x3ca;" 
d="M224 732q-33 0 -43.5 12.5t-3.5 43.5q5 27 17.5 36.5t42.5 9.5q33 0 44 -12t4 -42q-6 -28 -18.5 -38t-42.5 -10zM440 732q-33 0 -43.5 12.5t-3.5 43.5q5 27 17.5 36.5t42.5 9.5q33 0 44 -12t4 -42q-6 -28 -18.5 -38t-42.5 -10zM302 -14q-88 0 -111.5 49.5t4.5 177.5
l86 405h50l-87 -409q-22 -102 -9.5 -139.5t68.5 -37.5q41 0 95 39l23 -46q-73 -39 -119 -39z" />
    <glyph glyph-name="upsilondieresis" unicode="&#x3cb;" 
d="M276 732q-33 0 -43.5 12.5t-3.5 43.5q5 27 17.5 36.5t42.5 9.5q33 0 44 -12t4 -42q-6 -28 -18.5 -38t-42.5 -10zM492 732q-33 0 -43.5 12.5t-3.5 43.5q5 27 17.5 36.5t42.5 9.5q33 0 44 -12t4 -42q-6 -28 -18.5 -38t-42.5 -10zM236 -14q-130 0 -164 73.5t7 266.5l62 292
h50l-63 -296q-35 -166 -12 -228t121 -62q101 0 153.5 64t88.5 232q23 111 20.5 175t-30.5 117l53 -4q27 -54 28.5 -116t-23.5 -180q-40 -191 -102.5 -262.5t-188.5 -71.5z" />
    <glyph glyph-name="omicrontonos" unicode="&#x3cc;" 
d="M331 687l-27 35l158 118l27 -35zM236 -14q-125 0 -157.5 71t7.5 256q30 143 106.5 231t171.5 88q125 0 157.5 -71t-7.5 -256q-30 -143 -106.5 -231t-171.5 -88zM237 32q76 0 139 77t90 204q33 157 11 215t-114 58q-76 0 -139 -77t-90 -204q-33 -157 -11 -215t114 -58z
" />
    <glyph glyph-name="upsilontonos" unicode="&#x3cd;" 
d="M321 687l-27 35l158 118l27 -35zM236 -14q-130 0 -164 73.5t7 266.5l62 292h50l-63 -296q-35 -166 -12 -228t121 -62q101 0 153.5 64t88.5 232q23 111 20.5 175t-30.5 117l53 -4q27 -54 28.5 -116t-23.5 -180q-40 -191 -102.5 -262.5t-188.5 -71.5z" />
    <glyph glyph-name="omegatonos" unicode="&#x3ce;" 
d="M489 805l-158 -118l-27 35l158 118zM562 616q21 -42 22.5 -123t-17.5 -173q-40 -191 -85.5 -262.5t-125.5 -71.5q-47 0 -72 21t-32 68q-48 -89 -136 -89q-85 0 -101.5 74t24.5 268q19 89 54 169.5t74 122.5l58 -4q-43 -46 -81 -127.5t-57 -168.5q-18 -85 -25 -138.5
t-3.5 -88t17.5 -48t41 -13.5q56 0 91 64t71 230l49 -4q-18 -85 -25.5 -139t-4 -89t17.5 -48.5t41 -13.5q56 0 91 64t71 232q18 85 15.5 166t-25.5 126z" />
    <glyph glyph-name="uni03CF" unicode="&#x3cf;" 
d="M280 433l212 -433h1l-113 -124h-62l114 124h1l-195 400h-79l-85 -400h-50l170 800h50l-75 -354h61l365 354h63z" />
    <glyph glyph-name="uni03D7" unicode="&#x3d7;" 
d="M531 632q62 0 76.5 -35.5t-24.5 -93.5q-47 -67 -186 -158q-40 -137 -16 -219t111 -82l-18 -91q-14 -68 -49.5 -108.5t-79.5 -40.5q-64 0 -122 36l30 38q54 -28 93 -28q25 0 47 30t32 77l11 43q-70 0 -98.5 83.5t-0.5 222.5q-63 -39 -123 -79q-31 -124 -65.5 -182.5
t-93.5 -58.5q-65 0 -73 42t45 109q27 32 143 111q18 82 26 120q20 92 0.5 148t-72.5 56l6 46q74 0 106.5 -71.5t7.5 -186.5q-3 -15 -9 -42t-7 -31q56 37 125 84q26 93 68 184q17 34 48.5 55.5t61.5 21.5zM536 524q20 28 18 45t-24 17q-16 0 -35 -15.5t-29 -38.5
q-26 -58 -46 -113q91 66 116 105zM56 32q33 0 55.5 38t43.5 116q-61 -46 -88 -79q-52 -60 -25 -72q5 -3 14 -3z" />
    <glyph glyph-name="uni0401" unicode="&#x401;" 
d="M339 917q-33 0 -43.5 12.5t-3.5 43.5q5 27 17.5 36.5t42.5 9.5q33 0 44 -12t4 -42q-6 -28 -18.5 -38t-42.5 -10zM555 917q-33 0 -43.5 12.5t-3.5 43.5q5 27 17.5 36.5t42.5 9.5q33 0 44 -12t4 -42q-6 -28 -18.5 -38t-42.5 -10zM621 754h-375l-65 -308h240l-10 -46h-240
l-75 -354h374l-10 -46h-424l170 800h424z" />
    <glyph glyph-name="uni0410" unicode="&#x410;" 
d="M433 0l-13 216h-278l-105 -216h-53l392 800h56l52 -800h-51zM164 262h253l-28 463z" />
    <glyph glyph-name="uni0411" unicode="&#x411;" 
d="M28 0l170 800h350l-9 -46h-300l-56 -262h163q122 0 158 -54t6 -195q-30 -140 -86.5 -191.5t-178.5 -51.5h-217zM88 46h163q94 0 140 44.5t71 160.5q23 112 -2.5 153.5t-119.5 41.5h-167z" />
    <glyph glyph-name="uni0412" unicode="&#x412;" 
d="M28 0l170 800h188q122 0 160.5 -44t13.5 -158q-16 -76 -45 -112.5t-93 -58.5q67 -20 85.5 -64.5t-2.5 -142.5q-27 -126 -82.5 -173t-177.5 -47h-217zM173 446h138q94 0 138 34.5t63 125.5q18 86 -9.5 117t-121.5 31h-142zM88 46h163q94 0 139 39.5t67 142.5
q21 99 -6 135.5t-121 36.5h-167z" />
    <glyph glyph-name="uni0413" unicode="&#x413;" 
d="M631 800l-9 -46h-376l-159 -754h-50l170 800h424z" />
    <glyph glyph-name="uni0414" unicode="&#x414;" 
d="M620 800l-160 -754h50l-28 -134h-50l18 88h-432l-18 -88h-50l28 134h65l-35 1q82 50 149 217t168 538zM79 46h331l151 708l-202 -2q-85 -319 -150 -487t-130 -219z" />
    <glyph glyph-name="uni0415" unicode="&#x415;" 
d="M621 754h-375l-65 -308h240l-10 -46h-240l-75 -354h374l-10 -46h-424l170 800h424z" />
    <glyph glyph-name="uni0416" unicode="&#x416;" 
d="M379 800h50l-170 -800h-50l85 398l-304 -398h-56l305 400h1l-135 400h54l135 -400zM400 400h-1l135 -400h-54l-135 400h-1l305 400h56z" />
    <glyph glyph-name="uni0417" unicode="&#x417;" 
d="M236 -14q-127 0 -166 43t-16 155l50 -4q-19 -85 9.5 -116.5t123.5 -31.5q98 0 143.5 39t67.5 141t-0.5 142t-106.5 46h-72l10 46h68q86 6 126.5 41.5t59.5 123.5q19 90 -8.5 123.5t-122.5 33.5q-98 0 -142.5 -30t-60.5 -107l-49 4q22 103 76 141t177 38q126 0 165 -46
t14 -165q-17 -77 -45.5 -115.5t-91.5 -66.5q49 -26 60.5 -72.5t-8.5 -144.5q-27 -125 -83 -171.5t-178 -46.5z" />
    <glyph glyph-name="uni0418" unicode="&#x418;" 
d="M619 800l-1 -2l-170 -798h-50l147 691l-470 -691h-55l170 800h50l-147 -693l471 693h55z" />
    <glyph glyph-name="uni0419" unicode="&#x419;" 
d="M421 867q-72 0 -94.5 26t-8.5 91l60 -4q-24 -39 -16 -53t61 -14q57 0 74.5 15.5t10.5 55.5l59 -4q-14 -65 -45 -89t-101 -24zM619 800l-1 -2l-170 -798h-50l147 691l-470 -691h-55l170 800h50l-147 -693l471 693h55z" />
    <glyph glyph-name="uni041A" unicode="&#x41a;" 
d="M659 799q-50 -29 -92.5 -76t-71 -94t-57.5 -92.5t-65.5 -80.5t-81.5 -48l201 -408h-59l-195 400h-79l-85 -400h-50l170 800h50l-75 -354h60q51 3 90 29t66.5 67.5t53 86t63.5 93t83 79.5z" />
    <glyph glyph-name="uni041B" unicode="&#x41b;" 
d="M344 800h300l-170 -800h-50l161 754h-229q-128 -481 -190 -617.5t-179 -136.5l5 46q85 0 143 141.5t185 614.5z" />
    <glyph glyph-name="uni041C" unicode="&#x41c;" 
d="M-6 0l184 800h51l75 -466l275 466h51l-156 -800h-50l132 674l-240 -412h-50l-66 412l-156 -674h-50z" />
    <glyph glyph-name="uni041D" unicode="&#x41d;" 
d="M570 800h50l-170 -800h-50l85 400h-332l-85 -400h-50l170 800h50l-75 -354h332z" />
    <glyph glyph-name="uni041E" unicode="&#x41e;" 
d="M236 -14q-135 0 -169 81.5t11 294.5l17 80q46 213 111.5 292.5t196.5 79.5q134 0 168.5 -81.5t-11.5 -294.5l-17 -80q-45 -213 -110.5 -292.5t-196.5 -79.5zM237 32q106 0 161.5 71.5t95.5 258.5l17 80q40 187 17 256.5t-126 69.5q-107 0 -163 -71.5t-95 -258.5l-17 -80
q-39 -187 -15.5 -256.5t125.5 -69.5z" />
    <glyph glyph-name="uni041F" unicode="&#x41f;" 
d="M4 0l170 800h460l-170 -800h-50l161 754h-360l-161 -754h-50z" />
    <glyph glyph-name="uni0420" unicode="&#x420;" 
d="M422 800q122 0 159 -49.5t10 -177.5q-26 -125 -81.5 -172t-177.5 -47h-167l-75 -354h-50l170 800h212zM543 581q21 100 -5.5 136.5t-120.5 36.5h-168l-74 -354h162q94 0 139 39.5t67 141.5z" />
    <glyph glyph-name="uni0421" unicode="&#x421;" 
d="M251 -14q-95 0 -138.5 38t-49 131.5t30.5 249.5q50 234 119 321.5t205 87.5q91 0 130 -36t49 -128l-50 -13q-8 76 -35.5 103.5t-94.5 27.5q-111 0 -170.5 -80.5t-103.5 -290.5q-44 -209 -21 -287t130 -78q69 0 110.5 28.5t82.5 103.5l46 -20q-48 -91 -99.5 -124.5
t-140.5 -33.5z" />
    <glyph glyph-name="uni0422" unicode="&#x422;" 
d="M672 800l-9 -46h-244l-160 -754h-50l160 754h-242l9 46h536z" />
    <glyph glyph-name="uni0423" unicode="&#x423;" 
d="M617 800h52l-307 -623q-54 -108 -111 -149.5t-143 -41.5q-51 0 -88 26l26 40q31 -20 63 -20q89 0 137 52l-86 716h51l78 -657q15 23 33 61z" />
    <glyph glyph-name="uni0424" unicode="&#x424;" 
d="M406 693q148 -5 191.5 -70t9.5 -226q-35 -161 -105 -223.5t-220 -65.5l-23 -108h-50l23 108q-147 5 -190.5 70t-9.5 227q34 159 104 221.5t220 66.5l23 107h50zM558 405q29 134 -6 186.5t-156 55.5l-104 -492q121 4 179 59.5t87 190.5zM81 397q-29 -134 5.5 -186.5
t155.5 -56.5l104 492q-120 -4 -178 -59.5t-87 -189.5z" />
    <glyph glyph-name="uni0425" unicode="&#x425;" 
d="M643 800l-296 -399l127 -401h-56l-110 348l-258 -348h-54l296 399l-127 401h56l110 -348l258 348h54z" />
    <glyph glyph-name="uni0426" unicode="&#x426;" 
d="M604 800l-160 -754h50l-33 -154h-50l23 108h-430l170 800h50l-160 -754h330l160 754h50z" />
    <glyph glyph-name="uni0427" unicode="&#x427;" 
d="M143 747l-24 37q32 30 88 30q32 0 51.5 -16t19.5 -42q0 -93 -82 -361q-28 -98 -9 -139.5t82 -41.5q76 0 156 101.5t100 196.5l61 288h51l-170 -800h-50l75 352q-45 -84 -103 -134t-121 -50q-197 0 -122 231q80 247 80 336q0 15 -10 24t-27 9q-25 0 -46 -21z" />
    <glyph glyph-name="uni0428" unicode="&#x428;" 
d="M-21 0l170 800h50l-160 -754h180l160 754h50l-160 -754h180l160 754h50l-170 -800h-510z" />
    <glyph glyph-name="uni0429" unicode="&#x429;" 
d="M624 800l-160 -754h50l-33 -154h-50l23 108h-490l170 800h50l-160 -754h170l160 754h50l-160 -754h170l160 754h50z" />
    <glyph glyph-name="uni042A" unicode="&#x42a;" 
d="M367 446q122 0 159 -49.5t10 -177.5q-27 -125 -82.5 -172t-177.5 -47h-216l160 754h-100l9 46h151l-9 -46h-1l-65 -308h162zM488 227q21 100 -6 136.5t-121 36.5h-166l-74 -354h161q94 0 139 39t67 142z" />
    <glyph glyph-name="uni042B" unicode="&#x42b;" 
d="M257 446q108 0 142 -50t7 -177q-27 -124 -79.5 -171.5t-160.5 -47.5h-177l170 800h50l-75 -354h123zM599 800h50l-170 -800h-50zM358 227q21 98 -3 135.5t-104 37.5h-127l-74 -354h122q80 0 122 40t64 141z" />
    <glyph glyph-name="uni042C" unicode="&#x42c;" 
d="M347 446q122 0 159 -49.5t10 -177.5q-27 -125 -82.5 -172t-177.5 -47h-216l170 800h50l-75 -354h162zM468 227q21 100 -6 136.5t-121 36.5h-166l-74 -354h161q94 0 139 39t67 142z" />
    <glyph glyph-name="uni042D" unicode="&#x42d;" 
d="M403 814q134 0 168.5 -81.5t-11.5 -294.5l-17 -80q-45 -213 -110.5 -292.5t-196.5 -79.5q-84 0 -127.5 29.5t-53.5 97.5l55 -4q12 -42 42 -59.5t85 -17.5q106 0 161.5 71.5t95.5 258.5l3 15h-245l10 46h245l4 19q40 187 17 256.5t-126 69.5q-113 0 -170 -81l-56 4
q39 67 92.5 95t134.5 28z" />
    <glyph glyph-name="uni042E" unicode="&#x42e;" 
d="M490 814q112 0 137.5 -81.5t-20.5 -294.5l-17 -80q-45 -213 -102 -292.5t-165 -79.5q-76 0 -110.5 34.5t-37 118t29.5 223.5l3 15h-109l-80 -377h-50l170 800h50l-80 -377h109l4 19q46 214 103 293t165 79zM558 442q40 187 25.5 256.5t-94.5 69.5q-83 0 -130.5 -71.5
t-87.5 -258.5l-17 -80q-39 -187 -24.5 -256.5t94.5 -69.5q83 0 130 71.5t87 258.5z" />
    <glyph glyph-name="uni042F" unicode="&#x42f;" 
d="M390 800h216l-170 -800h-50l76 354h-110l-305 -354h-59l304 354q-117 2 -152.5 51.5t-8.5 175.5q26 125 81.5 172t177.5 47zM305 400h166l76 354h-162q-94 0 -139 -39.5t-67 -141.5q-21 -100 5.5 -136.5t120.5 -36.5z" />
    <glyph glyph-name="uni0430" unicode="&#x430;" 
d="M495 53l24 -37q-32 -30 -88 -30q-31 0 -50 16t-19 42q0 44 9 69q-29 -57 -75.5 -92t-95.5 -35q-76 0 -122 47.5t-46 125.5q0 100 50.5 211.5t129 186.5t151.5 75q69 0 107 -19.5t38 -67.5q0 -16 -92 -450q-7 -29 -0.5 -46t33.5 -17q25 0 46 21zM200 32q59 0 115 62
t87 163q56 260 56 283q0 26 -21.5 36t-73.5 10q-58 0 -125 -69.5t-111.5 -170.5t-44.5 -187q0 -57 32.5 -92t85.5 -35z" />
    <glyph glyph-name="uni0431" unicode="&#x431;" 
d="M236 -14q-131 0 -169 55t-8 199l52 242q22 105 96 168t174 63q81 0 136 25t63 64l49 -4q-13 -60 -81 -95.5t-169 -35.5q-80 0 -140.5 -52.5t-78.5 -136.5l-15 -65q39 46 79 62.5t111 16.5q131 0 168.5 -56t6.5 -201q-30 -142 -88.5 -195.5t-185.5 -53.5zM237 32
q102 0 150.5 46t74.5 165q25 116 -2.5 159.5t-126.5 43.5q-102 0 -150.5 -46t-74.5 -166q-25 -116 2.5 -159t126.5 -43z" />
    <glyph glyph-name="uni0432" unicode="&#x432;" 
d="M265 -14q-120 0 -169 115q-46 107 -12 249q35 147 129 225q70 57 155 57q109 0 145.5 -35.5t17.5 -128.5q-11 -54 -39.5 -86t-88.5 -46q67 -12 87.5 -50.5t4.5 -118.5q-21 -104 -71 -142.5t-159 -38.5zM134 355h158q90 0 134.5 30.5t56.5 90.5q13 63 -14 86.5t-107 23.5
q-50 0 -93 -25.5t-69.5 -64t-43 -74.5t-22.5 -67zM271 32q80 0 120 31.5t56 111.5q15 74 -14 104t-122 30h-187q-6 -32 -8 -65.5t4.5 -72.5t22 -69t48.5 -50t80 -20z" />
    <glyph glyph-name="uni0433" unicode="&#x433;" 
d="M219 -14q-92 0 -138.5 46t-30.5 122q11 52 55.5 90.5t101 61t113 42.5t99 47.5t50.5 62.5q13 58 -21.5 93t-102.5 35q-57 0 -101.5 -37.5t-61.5 -99.5l-48 12q20 77 78 124t133 47q97 0 144.5 -50.5t27.5 -133.5q-11 -48 -55.5 -83t-101 -55.5t-112.5 -40.5t-98.5 -51
t-51.5 -74q-10 -50 23.5 -81t97.5 -31q68 0 121.5 40t73.5 105l50 -8q-22 -82 -89.5 -132.5t-155.5 -50.5z" />
    <glyph glyph-name="uni0434" unicode="&#x434;" 
d="M236 776q58 38 182 38q100 0 145.5 -74t19.5 -195l-65 -305q-25 -114 -103.5 -184t-181.5 -70q-127 0 -162.5 53t-5.5 196q25 116 103.5 186.5t181.5 70.5q70 0 103.5 -16.5t52.5 -62.5l26 128q22 102 -14.5 164.5t-117.5 62.5q-103 0 -142 -31zM252 32q77 0 136 55.5
t79 146.5q26 120 -3.5 166t-131.5 46q-77 0 -136.5 -56t-78.5 -147q-26 -119 3.5 -165t131.5 -46z" />
    <glyph glyph-name="uni0435" unicode="&#x435;" 
d="M260 35q50 0 106.5 24t99.5 64l26 -41q-48 -43 -113.5 -69.5t-124.5 -26.5q-70 0 -117 49.5t-47 127.5v21q-35 -12 -49 -26l-24 41q19 19 76 37q16 176 101 286t207 110q62 0 97 -31.5t35 -96.5q0 -55 -27 -101t-55.5 -73t-94 -56t-91 -37t-98.5 -29q-18 -6 -26 -8
q-1 -13 -1 -41q0 -54 35 -89t85 -35zM400 586q-97 0 -167 -92.5t-88 -241.5q151 43 212 75q126 67 126 177q0 40 -24 61t-59 21z" />
    <glyph glyph-name="uni0436" unicode="&#x436;" 
d="M646 618q-97 -88 -156 -163t-75 -146q-5 -21 -4.5 -44.5t3.5 -43t12.5 -45.5t16 -43t22 -45.5t23.5 -42.5t26 -45h-59q-49 84 -73.5 152t-19.5 133h-42l-61 -285h-50l61 285h-42q-41 -129 -213 -285h-61q95 87 154.5 162t76.5 147q25 127 -99 309h59q105 -156 93 -287h42
l61 287h50l-61 -287h41q39 128 214 287h61z" />
    <glyph glyph-name="uni0437" unicode="&#x437;" 
d="M236 -14q-127 0 -168.5 32.5t-23.5 115.5l49 -4q-12 -57 18.5 -77.5t125.5 -20.5q97 0 140.5 26t58.5 94q15 74 -10 103t-108 35h-72l10 46h68q86 6 125.5 36.5t54.5 102.5q14 64 -16.5 87.5t-124.5 23.5q-97 0 -139.5 -21.5t-54.5 -75.5l-49 4q17 80 69 109.5t175 29.5
q127 0 168 -36t21 -129q-14 -62 -41.5 -95t-90.5 -61q49 -26 63 -62.5t0 -104.5q-19 -91 -72.5 -124.5t-175.5 -33.5z" />
    <glyph glyph-name="uni0438" unicode="&#x438;" 
d="M76 565l-24 37q32 30 88 30q32 0 51.5 -16t19.5 -42q0 -93 -82 -361q-28 -98 -9 -139.5t82 -41.5q69 0 142.5 101.5t93.5 196.5l61 288h51l-114 -533q-2 -14 -2 -20q0 -15 10 -24t27 -9q25 0 46 21l24 -37q-32 -30 -88 -30q-34 0 -55.5 25t-12.5 67l20 92
q-98 -184 -204 -184q-197 0 -122 231q80 247 80 336q0 15 -10 24t-27 9q-25 0 -46 -21z" />
    <glyph glyph-name="uni0439" unicode="&#x439;" 
d="M383 685q-72 0 -94.5 26t-8.5 91l60 -4q-24 -39 -16 -53t61 -14q57 0 74.5 15.5t10.5 55.5l59 -4q-14 -65 -45 -89t-101 -24zM76 565l-24 37q32 30 88 30q32 0 51.5 -16t19.5 -42q0 -93 -82 -361q-28 -98 -9 -139.5t82 -41.5q69 0 142.5 101.5t93.5 196.5l61 288h51
l-114 -533q-2 -14 -2 -20q0 -15 10 -24t27 -9q25 0 46 21l24 -37q-32 -30 -88 -30q-34 0 -55.5 25t-12.5 67l20 92q-98 -184 -204 -184q-197 0 -122 231q80 247 80 336q0 15 -10 24t-27 9q-25 0 -46 -21z" />
    <glyph glyph-name="uni043A" unicode="&#x43a;" 
d="M620 617q-49 -29 -89.5 -67.5t-66.5 -73.5t-52 -67.5t-59.5 -57t-75.5 -35.5l215 -316h-59l-210 308h-83l-66 -308h-50l132 618h50l-56 -264h59q51 3 87.5 19.5t62 45t47.5 59.5t58.5 70.5t81.5 70.5z" />
    <glyph glyph-name="uni043B" unicode="&#x43b;" 
d="M305 618h301l-132 -618h-50l122 572h-229q-29 -107 -47.5 -170t-40 -130.5t-35.5 -102.5t-33 -71t-34.5 -50.5t-38.5 -28t-46 -16.5t-55 -3l5 46q32 0 53 6.5t44 32t40 59.5t42 106t48.5 152.5t61.5 217.5z" />
    <glyph glyph-name="uni043C" unicode="&#x43c;" 
d="M-6 0l146 618h50l95 -375l255 375h52l-118 -618h-50l94 492l-222 -321h-50l-84 321l-118 -492h-50z" />
    <glyph glyph-name="uni043D" unicode="&#x43d;" 
d="M532 618h50l-132 -618h-50l66 309h-332l-66 -309h-50l132 618h50l-56 -263h332z" />
    <glyph glyph-name="uni043E" unicode="&#x43e;" 
d="M236 -14q-125 0 -157.5 71t7.5 256q30 143 106.5 231t171.5 88q125 0 157.5 -71t-7.5 -256q-30 -143 -106.5 -231t-171.5 -88zM237 32q76 0 139 77t90 204q33 157 11 215t-114 58q-76 0 -139 -77t-90 -204q-33 -157 -11 -215t114 -58z" />
    <glyph glyph-name="uni043F" unicode="&#x43f;" 
d="M516 53l24 -37q-32 -30 -88 -30q-32 0 -51.5 16t-19.5 42q0 93 82 361q55 181 -63 181q-47 0 -101.5 -51t-93.5 -120t-51 -127l-61 -288h-51l114 533q2 14 2 20q0 15 -10 24t-27 9q-25 0 -46 -21l-24 37q32 30 88 30q34 0 55.5 -25t12.5 -67l-20 -92q44 83 101 133.5
t113 50.5q88 0 118 -54.5t-6 -176.5q-80 -247 -80 -336q0 -15 10 -24t27 -9q25 0 46 21z" />
    <glyph glyph-name="uni0440" unicode="&#x440;" 
d="M390 632q123 0 152 -71t-12 -256q-30 -145 -102 -232t-166 -87q-62 0 -103 14.5t-43 44.5l-49 -227h-50l100 469q1 8 5 26q1 7 5 21l42 199q2 16 2 20q0 15 -10 24t-27 9q-25 0 -46 -21l-24 37q32 30 88 30q35 0 54.5 -22.5t12.5 -70.5q19 42 69 67.5t102 25.5zM482 313
q35 157 16.5 215t-109.5 58q-52 0 -89 -19.5t-70 -76.5t-53 -155l-17 -83q-13 -63 -15.5 -102.5t1 -64t21.5 -36t38 -14.5t58 -3q75 0 133.5 76t85.5 205z" />
    <glyph glyph-name="uni0441" unicode="&#x441;" 
d="M428 116l39 -29q-52 -58 -101 -79.5t-136 -21.5q-123 0 -156.5 70t6.5 257q31 140 119 229.5t183 89.5q73 0 111 -22.5t66 -81.5l-45 -21q-22 45 -50.5 62t-82.5 17q-78 0 -152.5 -79t-100.5 -202q-32 -156 -9 -214.5t112 -58.5q70 0 110.5 17.5t86.5 66.5z" />
    <glyph glyph-name="uni0442" unicode="&#x442;" 
d="M494 -14q-32 0 -51.5 16t-19.5 42q0 90 83 361q30 98 27.5 139.5t-37.5 41.5q-42 0 -68 -20t-51 -83.5t-51 -186.5l-62 -296h-50l85 405q24 92 23.5 136.5t-41.5 44.5q-39 0 -63 -20.5t-46.5 -82.5t-49.5 -189l-63 -294h-50l114 533q2 14 2 20q0 33 -33 33q-29 0 -50 -21
l-24 37q32 30 88 30q71 0 60 -89q15 33 46 61t70 28q42 0 60.5 -17.5t17.5 -41.5t0 -50q54 109 137 109q68 0 82.5 -54.5t-24.5 -176.5q-80 -247 -80 -336q0 -15 10 -24t27 -9q25 0 46 21l24 -37q-32 -30 -88 -30z" />
    <glyph glyph-name="uni0443" unicode="&#x443;" 
d="M115 -206q-48 0 -77.5 19.5t-29.5 50.5q0 54 98.5 85t268.5 31q29 49 42 126q-10 -32 -56 -46t-96 -14q-77 0 -118 54t-20 119q78 239 78 334q0 15 -10 24t-27 9q-25 0 -46 -21l-24 37q32 30 88 30q31 0 50 -16t19 -42q0 -103 -78 -355q-18 -57 8.5 -92t79.5 -35
q46 0 76 7t58.5 36.5t39.5 83.5l84 399h50q-38 -180 -55 -260.5t-38.5 -178t-33.5 -140t-21 -59.5q55 0 88 9l-10 -45q-33 -9 -98 -9q-37 -64 -117 -102.5t-173 -38.5zM127 -160q62 0 123.5 26t98.5 69q-131 -4 -211 -23.5t-80 -47.5q0 -11 19 -17.5t50 -6.5z" />
    <glyph glyph-name="uni0444" unicode="&#x444;" 
d="M587 814q39 0 58 -10.5t30 -36.5l-34 -30q-9 18 -22 24.5t-41 6.5q-41 0 -71.5 -35t-64.5 -125l-52 -133q31 17 62 17q68 0 95.5 -65t4.5 -172q-23 -103 -80 -166t-128 -63q-36 0 -59 26.5t-30 74.5l-50 -129q-43 -111 -84 -152.5t-108 -41.5q-39 0 -58 10.5t-30 36.5
l34 30q9 -18 22 -24.5t41 -6.5q41 0 71.5 35t64.5 125l59 153q-39 -27 -86 -27q-58 0 -80.5 65t0.5 172q22 103 73.5 166t114.5 63q44 0 71.5 -28t35.5 -79l49 125q46 112 87 153t105 41zM99 365q-17 -83 -8 -133t41 -50q53 0 97 52.5t62 138.5q17 83 2.5 133t-55.5 50
q-44 0 -82.5 -52.5t-56.5 -138.5zM504 263q17 83 2.5 133t-55.5 50q-44 0 -82.5 -52.5t-56.5 -138.5q-17 -83 -8 -133t41 -50q53 0 97 52.5t62 138.5z" />
    <glyph glyph-name="uni0445" unicode="&#x445;" 
d="M581 618q-21 -50 -64.5 -109t-81 -100.5t-103.5 -108.5l117 -300h-56l-101 259q-162 -166 -215 -259h-58q27 47 74.5 104.5t80.5 92t101 104.5l-124 317h56l108 -275q163 168 208 275h58z" />
    <glyph glyph-name="uni0446" unicode="&#x446;" 
d="M517 53l24 -37q-18 -18 -53 -26q0 -57 -62 -98q-45 -30 -84 -23l-1 48q35 -5 59 14q35 29 35 57q-28 7 -43 30.5t-7 59.5l20 92q-98 -184 -204 -184q-197 0 -122 231q80 247 80 336q0 15 -10 24t-27 9q-25 0 -46 -21l-24 37q32 30 88 30q32 0 51.5 -16t19.5 -42
q0 -93 -82 -361q-28 -98 -9 -139.5t82 -41.5q69 0 142.5 101.5t93.5 196.5l61 288h51l-114 -533q-2 -14 -2 -20q0 -15 10 -24t27 -9q25 0 46 21z" />
    <glyph glyph-name="uni0447" unicode="&#x447;" 
d="M443 -14q-34 0 -55.5 16.5t-16.5 41.5l66 308q-44 -82 -99 -133t-104 -51q-92 0 -115.5 53t13.5 168l14 42t14 44t8.5 36.5t4.5 41.5q0 15 -10 24t-27 9q-25 0 -46 -21l-24 37q32 30 88 30q32 0 51.5 -16t19.5 -42q0 -58 -43 -189q-31 -95 -19.5 -133t72.5 -38
q63 0 140 102t96 196l22 106h50l-118 -553q-3 -15 8 -24t28 -9q25 0 46 21l24 -37q-32 -30 -88 -30z" />
    <glyph glyph-name="uni0448" unicode="&#x448;" 
d="M106 632q32 0 51.5 -16t19.5 -42q0 -90 -83 -361q-30 -98 -27.5 -139.5t37.5 -41.5q42 0 68 20t51 83.5t51 186.5l62 296h50l-85 -405q-24 -92 -23.5 -136.5t41.5 -44.5q39 0 63 20.5t46.5 82.5t49.5 189l63 294h50l-114 -533q-2 -14 -2 -20q0 -33 33 -33q29 0 50 21
l24 -37q-32 -30 -88 -30q-71 0 -60 89q-15 -33 -46 -61t-70 -28q-42 0 -60.5 17.5t-17.5 41.5t0 50q-54 -109 -137 -109q-68 0 -82.5 54.5t24.5 176.5q80 247 80 336q0 15 -10 24t-27 9q-25 0 -46 -21l-24 37q32 30 88 30z" />
    <glyph glyph-name="uni0449" unicode="&#x449;" 
d="M558 53l24 -37q-16 -15 -44 -24q1 -27 -15.5 -54t-46.5 -46q-45 -30 -84 -23l-1 48q35 -5 59 14q34 29 35 55q-62 6 -51 89q-15 -33 -46 -61t-70 -28q-42 0 -60.5 17.5t-17.5 41.5t0 50q-54 -109 -137 -109q-68 0 -82.5 54.5t24.5 176.5q80 247 80 336q0 15 -10 24t-27 9
q-25 0 -46 -21l-24 37q32 30 88 30q32 0 51.5 -16t19.5 -42q0 -90 -83 -361q-30 -98 -27.5 -139.5t37.5 -41.5q42 0 68 20t51 83.5t51 186.5l62 296h50l-85 -405q-24 -92 -23.5 -136.5t41.5 -44.5q39 0 63 20.5t46.5 82.5t49.5 189l63 294h50l-114 -533q-2 -14 -2 -20
q0 -33 33 -33q29 0 50 21z" />
    <glyph glyph-name="uni044A" unicode="&#x44a;" 
d="M354 386q122 0 160.5 -42.5t15.5 -154.5q-23 -109 -77.5 -149t-176.5 -40h-216l122 572h-101l10 46h151l-49 -232h161zM481 197q18 82 -10 112.5t-122 30.5h-166l-62 -294h161q94 0 137.5 33t61.5 118z" />
    <glyph glyph-name="uni044B" unicode="&#x44b;" 
d="M244 386q111 0 145 -42.5t11 -154.5q-23 -109 -73 -149t-161 -40h-177l132 618h50l-49 -232h122zM561 618h50l-132 -618h-50zM351 197q18 82 -5.5 112.5t-106.5 30.5h-127l-62 -294h122q83 0 122 33t57 118z" />
    <glyph glyph-name="uni044C" unicode="&#x44c;" 
d="M334 386q122 0 160.5 -42.5t15.5 -154.5q-23 -109 -77.5 -149t-176.5 -40h-216l132 618h50l-49 -232h161zM461 197q18 82 -10 112.5t-122 30.5h-166l-62 -294h161q94 0 137.5 33t61.5 118z" />
    <glyph glyph-name="uni044D" unicode="&#x44d;" 
d="M364 632q135 0 173.5 -62t3.5 -223l-17 -80q-34 -161 -95.5 -221t-192.5 -60q-94 0 -133.5 25.5t-49.5 91.5l54 -4q11 -39 39 -53t91 -14q106 0 158 52t80 187l3 15h-245l10 46h245l4 19q29 135 1.5 185t-130.5 50q-66 0 -102.5 -16t-64.5 -55l-56 4q37 65 85.5 89
t138.5 24z" />
    <glyph glyph-name="uni044E" unicode="&#x44e;" 
d="M451 632q112 0 142 -62t-5 -223l-17 -80q-35 -161 -87.5 -221t-160.5 -60q-112 0 -142 62t5 223l3 15h-109l-61 -286h-50l132 618h50l-61 -286h109l4 19q35 161 87.5 221t160.5 60zM539 351q29 135 10 185t-99 50q-83 0 -126.5 -52t-71.5 -187l-17 -80q-29 -135 -10 -185
t99 -50q83 0 126.5 52t71.5 187z" />
    <glyph glyph-name="uni044F" unicode="&#x44f;" 
d="M352 618h216l-132 -618h-50l58 272h-110l-283 -272h-63l282 272q-115 1 -151.5 40t-15.5 137q20 97 73.5 133t175.5 36zM288 318h166l54 254h-162q-94 0 -136.5 -28.5t-58.5 -102.5q-15 -71 14 -97t123 -26z" />
    <glyph glyph-name="uni0451" unicode="&#x451;" 
d="M286 732q-33 0 -43.5 12.5t-3.5 43.5q5 27 17.5 36.5t42.5 9.5q33 0 44 -12t4 -42q-6 -28 -18.5 -38t-42.5 -10zM515 834q33 0 44 -12t4 -42q-6 -28 -18.5 -38t-42.5 -10q-33 0 -43.5 12.5t-3.5 43.5q5 27 17.5 36.5t42.5 9.5zM533 504q0 -55 -27 -101t-55.5 -73t-94 -56
t-91 -37t-98.5 -29q-18 -6 -26 -8q-1 -13 -1 -41q0 -54 35 -89t85 -35t106.5 24t99.5 64l26 -41q-48 -43 -113.5 -69.5t-124.5 -26.5q-70 0 -117 49.5t-47 127.5v21q-35 -12 -49 -26l-24 41q19 19 76 37q16 176 101 286t207 110q62 0 97 -31.5t35 -96.5zM400 586
q-97 0 -167 -92.5t-88 -241.5q151 43 212 75q126 67 126 177q0 40 -24 61t-59 21z" />
    <glyph glyph-name="Wgrave" unicode="&#x1e80;" 
d="M431 872l-112 118l39 35l112 -118zM77 0l63 800h50l-57 -685l190 421h50l10 -421l235 685h52l-277 -800h-51l-12 445l-202 -445h-51z" />
    <glyph glyph-name="wgrave" unicode="&#x1e81;" 
d="M431 722l-39 -35l-112 118l39 35zM575 618h52q-21 -92 -60.5 -194.5t-95.5 -229.5t-82 -194h-48l-30 315q-27 -58 -93.5 -165t-89.5 -150h-48l25 618h50l-23 -528q10 17 39 63.5t42.5 70t33.5 61.5t32 70t19 63h50l32 -321q13 31 53 125t59 140t44 120.5t39 135.5z" />
    <glyph glyph-name="Wacute" unicode="&#x1e82;" 
d="M411 872l-27 35l158 118l27 -35zM77 0l63 800h50l-57 -685l190 421h50l10 -421l235 685h52l-277 -800h-51l-12 445l-202 -445h-51z" />
    <glyph glyph-name="wacute" unicode="&#x1e83;" 
d="M530 805l-158 -118l-27 35l158 118zM575 618h52q-21 -92 -60.5 -194.5t-95.5 -229.5t-82 -194h-48l-30 315q-27 -58 -93.5 -165t-89.5 -150h-48l25 618h50l-23 -528q10 17 39 63.5t42.5 70t33.5 61.5t32 70t19 63h50l32 -321q13 31 53 125t59 140t44 120.5t39 135.5z" />
    <glyph glyph-name="Wdieresis" unicode="&#x1e84;" 
d="M325 917q-33 0 -43.5 12.5t-3.5 43.5q5 27 17.5 36.5t42.5 9.5q33 0 44 -12t4 -42q-6 -28 -18.5 -38t-42.5 -10zM541 917q-33 0 -43.5 12.5t-3.5 43.5q5 27 17.5 36.5t42.5 9.5q33 0 44 -12t4 -42q-6 -28 -18.5 -38t-42.5 -10zM77 0l63 800h50l-57 -685l190 421h50
l10 -421l235 685h52l-277 -800h-51l-12 445l-202 -445h-51z" />
    <glyph glyph-name="wdieresis" unicode="&#x1e85;" 
d="M286 732q-33 0 -43.5 12.5t-3.5 43.5q5 27 17.5 36.5t42.5 9.5q33 0 44 -12t4 -42q-6 -28 -18.5 -38t-42.5 -10zM502 732q-33 0 -43.5 12.5t-3.5 43.5q5 27 17.5 36.5t42.5 9.5q33 0 44 -12t4 -42q-6 -28 -18.5 -38t-42.5 -10zM575 618h52q-21 -92 -60.5 -194.5
t-95.5 -229.5t-82 -194h-48l-30 315q-27 -58 -93.5 -165t-89.5 -150h-48l25 618h50l-23 -528q10 17 39 63.5t42.5 70t33.5 61.5t32 70t19 63h50l32 -321q13 31 53 125t59 140t44 120.5t39 135.5z" />
    <glyph glyph-name="uni1E9E" unicode="&#x1e9e;" 
d="M415 472q112 -2 144 -56.5t3 -190.5q-30 -141 -83.5 -190t-171.5 -49q-110 0 -145 32.5t-17 115.5l49 -4q-12 -57 12 -77.5t102 -20.5q93 0 137 41.5t69 159.5q23 109 -1.5 151t-114.5 42h-80l272 328h-226q-82 0 -144 -52.5t-80 -136.5l-120 -565h-50l121 569
q23 109 98.5 170t185.5 61h310z" />
    <glyph glyph-name="uni1EA0" unicode="&#x1ea0;" 
d="M484 0h-51l-13 216h-278l-105 -216h-53l392 800h56zM164 262h253l-28 463zM208 -107q40 0 52.5 -15t4.5 -52q-7 -34 -22.5 -46.5t-52.5 -12.5q-40 0 -52.5 15t-4.5 52q8 35 23 47t52 12z" />
    <glyph glyph-name="uni1EA1" unicode="&#x1ea1;" 
d="M495 53l24 -37q-32 -30 -88 -30q-31 0 -50 16t-19 42q0 44 9 69q-29 -57 -75.5 -92t-95.5 -35q-76 0 -122 47.5t-46 125.5q0 100 50.5 211.5t129 186.5t151.5 75q69 0 107 -19.5t38 -67.5q0 -16 -92 -450q-7 -29 -0.5 -46t33.5 -17q25 0 46 21zM200 32q59 0 115 62
t87 163q56 260 56 283q0 26 -21.5 36t-73.5 10q-58 0 -125 -69.5t-111.5 -170.5t-44.5 -187q0 -57 32.5 -92t85.5 -35zM190 -230q-40 0 -52.5 15t-4.5 52q8 35 23 47t52 12q40 0 52.5 -15t4.5 -52q-7 -34 -22.5 -46.5t-52.5 -12.5z" />
    <glyph glyph-name="uni1EA2" unicode="&#x1ea2;" 
d="M444 1017q39 0 60.5 -23.5t13.5 -60.5q-6 -31 -37 -56t-82 -37l-7 45q69 18 78 56q3 13 -5.5 21.5t-21.5 8.5q-43 0 -95 -38l9 58q41 26 87 26zM376 800h56l52 -800h-51l-13 216h-278l-105 -216h-53zM164 262h253l-28 463z" />
    <glyph glyph-name="uni1EA3" unicode="&#x1ea3;" 
d="M360 655l-7 45q69 18 78 56q3 13 -5.5 21.5t-21.5 8.5q-43 0 -95 -38l9 58q41 26 87 26q39 0 60.5 -23.5t13.5 -60.5q-6 -31 -37 -56t-82 -37zM495 53l24 -37q-32 -30 -88 -30q-31 0 -50 16t-19 42q0 44 9 69q-29 -57 -75.5 -92t-95.5 -35q-76 0 -122 47.5t-46 125.5
q0 100 50.5 211.5t129 186.5t151.5 75q69 0 107 -19.5t38 -67.5q0 -16 -92 -450q-7 -29 -0.5 -46t33.5 -17q25 0 46 21zM200 32q59 0 115 62t87 163q56 260 56 283q0 26 -21.5 36t-73.5 10q-58 0 -125 -69.5t-111.5 -170.5t-44.5 -187q0 -57 32.5 -92t85.5 -35z" />
    <glyph glyph-name="uni1EA4" unicode="&#x1ea4;" 
d="M680 1060l27 -35l-159 -118l-27 35zM289 867l153 115l106 -117l-44 -30l-73 83l-109 -81zM376 800h56l52 -800h-51l-13 216h-278l-105 -216h-53zM164 262h253l-28 463z" />
    <glyph glyph-name="uni1EA5" unicode="&#x1ea5;" 
d="M415 892l-27 35l158 118l27 -35zM472 685l-73 83l-109 -81l-33 30l153 115l106 -117zM495 53l24 -37q-32 -30 -88 -30q-31 0 -50 16t-19 42q0 44 9 69q-29 -57 -75.5 -92t-95.5 -35q-76 0 -122 47.5t-46 125.5q0 100 50.5 211.5t129 186.5t151.5 75q69 0 107 -19.5
t38 -67.5q0 -16 -92 -450q-7 -29 -0.5 -46t33.5 -17q25 0 46 21zM200 32q59 0 115 62t87 163q56 260 56 283q0 26 -21.5 36t-73.5 10q-58 0 -125 -69.5t-111.5 -170.5t-44.5 -187q0 -57 32.5 -92t85.5 -35z" />
    <glyph glyph-name="uni1EA6" unicode="&#x1ea6;" 
d="M518 1032l111 -118l-39 -35l-111 118zM289 867l153 115l106 -117l-44 -30l-73 83l-109 -81zM376 800h56l52 -800h-51l-13 216h-278l-105 -216h-53zM164 262h253l-28 463z" />
    <glyph glyph-name="uni1EA7" unicode="&#x1ea7;" 
d="M435 892l-112 118l39 35l112 -118zM472 685l-73 83l-109 -81l-33 30l153 115l106 -117zM495 53l24 -37q-32 -30 -88 -30q-31 0 -50 16t-19 42q0 44 9 69q-29 -57 -75.5 -92t-95.5 -35q-76 0 -122 47.5t-46 125.5q0 100 50.5 211.5t129 186.5t151.5 75q69 0 107 -19.5
t38 -67.5q0 -16 -92 -450q-7 -29 -0.5 -46t33.5 -17q25 0 46 21zM200 32q59 0 115 62t87 163q56 260 56 283q0 26 -21.5 36t-73.5 10q-58 0 -125 -69.5t-111.5 -170.5t-44.5 -187q0 -57 32.5 -92t85.5 -35z" />
    <glyph glyph-name="uni1EA8" unicode="&#x1ea8;" 
d="M630 1060q39 0 60.5 -23.5t13.5 -60.5q-6 -31 -37 -56t-82 -37l-7 45q69 18 78 56q3 13 -5.5 21.5t-21.5 8.5q-43 0 -95 -38l9 58q41 26 87 26zM289 867l153 115l106 -117l-44 -30l-73 83l-109 -81zM376 800h56l52 -800h-51l-13 216h-278l-105 -216h-53zM164 262h253
l-28 463z" />
    <glyph glyph-name="uni1EA9" unicode="&#x1ea9;" 
d="M403 860l-7 45q69 18 78 56q3 13 -5.5 21.5t-21.5 8.5q-43 0 -95 -38l9 58q41 26 87 26q39 0 60.5 -23.5t13.5 -60.5q-6 -31 -37 -56t-82 -37zM472 685l-73 83l-109 -81l-33 30l153 115l106 -117zM495 53l24 -37q-32 -30 -88 -30q-31 0 -50 16t-19 42q0 44 9 69
q-29 -57 -75.5 -92t-95.5 -35q-76 0 -122 47.5t-46 125.5q0 100 50.5 211.5t129 186.5t151.5 75q69 0 107 -19.5t38 -67.5q0 -16 -92 -450q-7 -29 -0.5 -46t33.5 -17q25 0 46 21zM200 32q59 0 115 62t87 163q56 260 56 283q0 26 -21.5 36t-73.5 10q-58 0 -125 -69.5
t-111.5 -170.5t-44.5 -187q0 -57 32.5 -92t85.5 -35z" />
    <glyph glyph-name="uni1EAA" unicode="&#x1eaa;" 
d="M755 1004l49 -4q-9 -42 -35 -67t-61 -25q-20 0 -38 12t-28.5 26.5t-24.5 26.5t-27 12q-21 0 -31 -13t-16 -40l-49 4q10 44 36 69.5t61 25.5q25 0 45.5 -19.5t38 -38.5t34.5 -19q21 0 31 12.5t15 37.5zM289 867l153 115l106 -117l-44 -30l-73 83l-109 -81zM376 800h56
l52 -800h-51l-13 216h-278l-105 -216h-53zM164 262h253l-28 463z" />
    <glyph glyph-name="uni1EAB" unicode="&#x1eab;" 
d="M498 906q-20 0 -38 12t-28.5 26.5t-24.5 26.5t-27 12q-21 0 -31 -13t-16 -40l-49 4q10 44 36 69.5t61 25.5q25 0 45.5 -19.5t38 -38.5t34.5 -19q21 0 31 12.5t15 37.5l49 -4q-9 -42 -35 -67t-61 -25zM472 685l-73 83l-109 -81l-33 30l153 115l106 -117zM495 53l24 -37
q-32 -30 -88 -30q-31 0 -50 16t-19 42q0 44 9 69q-29 -57 -75.5 -92t-95.5 -35q-76 0 -122 47.5t-46 125.5q0 100 50.5 211.5t129 186.5t151.5 75q69 0 107 -19.5t38 -67.5q0 -16 -92 -450q-7 -29 -0.5 -46t33.5 -17q25 0 46 21zM200 32q59 0 115 62t87 163q56 260 56 283
q0 26 -21.5 36t-73.5 10q-58 0 -125 -69.5t-111.5 -170.5t-44.5 -187q0 -57 32.5 -92t85.5 -35z" />
    <glyph glyph-name="uni1EAC" unicode="&#x1eac;" 
d="M449 1017l106 -117l-44 -30l-73 83l-109 -81l-33 30zM376 800h56l52 -800h-51l-13 216h-278l-105 -216h-53zM164 262h253l-28 463zM208 -107q40 0 52.5 -15t4.5 -52q-7 -34 -22.5 -46.5t-52.5 -12.5q-40 0 -52.5 15t-4.5 52q8 35 23 47t52 12z" />
    <glyph glyph-name="uni1EAD" unicode="&#x1ead;" 
d="M472 685l-73 83l-109 -81l-33 30l153 115l106 -117zM495 53l24 -37q-32 -30 -88 -30q-31 0 -50 16t-19 42q0 44 9 69q-29 -57 -75.5 -92t-95.5 -35q-76 0 -122 47.5t-46 125.5q0 100 50.5 211.5t129 186.5t151.5 75q69 0 107 -19.5t38 -67.5q0 -16 -92 -450
q-7 -29 -0.5 -46t33.5 -17q25 0 46 21zM200 32q59 0 115 62t87 163q56 260 56 283q0 26 -21.5 36t-73.5 10q-58 0 -125 -69.5t-111.5 -170.5t-44.5 -187q0 -57 32.5 -92t85.5 -35zM190 -230q-40 0 -52.5 15t-4.5 52q8 35 23 47t52 12q40 0 52.5 -15t4.5 -52
q-7 -34 -22.5 -46.5t-52.5 -12.5z" />
    <glyph glyph-name="uni1EAE" unicode="&#x1eae;" 
d="M580 1045l-159 -118l-26 35l158 118zM416 880q45 0 66 16t29 55l49 -4q-13 -65 -44 -89t-102 -24q-72 0 -94.5 25.5t-8.5 91.5l49 -4q-8 -39 3.5 -53t52.5 -14zM376 800h56l52 -800h-51l-13 216h-278l-105 -216h-53zM164 262h253l-28 463z" />
    <glyph glyph-name="uni1EAF" unicode="&#x1eaf;" 
d="M410 869l-27 35l158 118l27 -35zM383 685q-72 0 -94.5 26t-8.5 91l49 -4q-8 -39 3.5 -53t52.5 -14q45 0 66 16t29 55l49 -4q-14 -65 -45 -89t-101 -24zM495 53l24 -37q-32 -30 -88 -30q-31 0 -50 16t-19 42q0 44 9 69q-29 -57 -75.5 -92t-95.5 -35q-76 0 -122 47.5
t-46 125.5q0 100 50.5 211.5t129 186.5t151.5 75q69 0 107 -19.5t38 -67.5q0 -16 -92 -450q-7 -29 -0.5 -46t33.5 -17q25 0 46 21zM200 32q59 0 115 62t87 163q56 260 56 283q0 26 -21.5 36t-73.5 10q-58 0 -125 -69.5t-111.5 -170.5t-44.5 -187q0 -57 32.5 -92t85.5 -35z
" />
    <glyph glyph-name="uni1EB0" unicode="&#x1eb0;" 
d="M482 962l-40 -35l-111 118l39 35zM511 951l49 -4q-13 -65 -44 -89t-102 -24q-72 0 -94.5 25.5t-8.5 91.5l49 -4q-8 -39 3.5 -53t52.5 -14q45 0 66 16t29 55zM376 800h56l52 -800h-51l-13 216h-278l-105 -216h-53zM164 262h253l-28 463z" />
    <glyph glyph-name="uni1EB1" unicode="&#x1eb1;" 
d="M430 869l-112 118l39 35l112 -118zM383 685q-72 0 -94.5 26t-8.5 91l49 -4q-8 -39 3.5 -53t52.5 -14q45 0 66 16t29 55l49 -4q-14 -65 -45 -89t-101 -24zM495 53l24 -37q-32 -30 -88 -30q-31 0 -50 16t-19 42q0 44 9 69q-29 -57 -75.5 -92t-95.5 -35q-76 0 -122 47.5
t-46 125.5q0 100 50.5 211.5t129 186.5t151.5 75q69 0 107 -19.5t38 -67.5q0 -16 -92 -450q-7 -29 -0.5 -46t33.5 -17q25 0 46 21zM200 32q59 0 115 62t87 163q56 260 56 283q0 26 -21.5 36t-73.5 10q-58 0 -125 -69.5t-111.5 -170.5t-44.5 -187q0 -57 32.5 -92t85.5 -35z
" />
    <glyph glyph-name="uni1EB2" unicode="&#x1eb2;" 
d="M630 1060q39 0 60.5 -23.5t13.5 -60.5q-6 -31 -37 -56t-82 -37l-7 45q69 18 78 56q3 13 -5.5 21.5t-21.5 8.5q-43 0 -95 -38l9 58q41 26 87 26zM416 880q45 0 66 16t29 55l49 -4q-13 -65 -44 -89t-102 -24q-72 0 -94.5 25.5t-8.5 91.5l49 -4q-8 -39 3.5 -53t52.5 -14z
M376 800h56l52 -800h-51l-13 216h-278l-105 -216h-53zM164 262h253l-28 463z" />
    <glyph glyph-name="uni1EB3" unicode="&#x1eb3;" 
d="M398 837l-7 45q69 18 78 56q3 13 -5.5 21.5t-21.5 8.5q-43 0 -95 -38l9 58q41 26 87 26q39 0 60.5 -23.5t13.5 -60.5q-6 -31 -37 -56t-82 -37zM383 685q-72 0 -94.5 26t-8.5 91l49 -4q-8 -39 3.5 -53t52.5 -14q45 0 66 16t29 55l49 -4q-14 -65 -45 -89t-101 -24zM495 53
l24 -37q-32 -30 -88 -30q-31 0 -50 16t-19 42q0 44 9 69q-29 -57 -75.5 -92t-95.5 -35q-76 0 -122 47.5t-46 125.5q0 100 50.5 211.5t129 186.5t151.5 75q69 0 107 -19.5t38 -67.5q0 -16 -92 -450q-7 -29 -0.5 -46t33.5 -17q25 0 46 21zM200 32q59 0 115 62t87 163
q56 260 56 283q0 26 -21.5 36t-73.5 10q-58 0 -125 -69.5t-111.5 -170.5t-44.5 -187q0 -57 32.5 -92t85.5 -35z" />
    <glyph glyph-name="uni1EB4" unicode="&#x1eb4;" 
d="M781 1063l49 -4q-9 -42 -35 -67t-61 -25q-20 0 -38 12t-28.5 26.5t-24.5 26.5t-27 12q-21 0 -31 -13t-16 -40l-49 4q10 44 36 69.5t61 25.5q25 0 45.5 -19t38 -38.5t34.5 -19.5q21 0 31 12.5t15 37.5zM416 880q45 0 66 16t29 55l49 -4q-13 -65 -44 -89t-102 -24
q-72 0 -94.5 25.5t-8.5 91.5l49 -4q-8 -39 3.5 -53t52.5 -14zM376 800h56l52 -800h-51l-13 216h-278l-105 -216h-53zM164 262h253l-28 463z" />
    <glyph glyph-name="uni1EB5" unicode="&#x1eb5;" 
d="M493 883q-25 0 -46.5 19.5t-38.5 38.5t-33 19q-21 0 -31 -13t-16 -40l-49 4q10 44 36 69.5t61 25.5q25 0 45.5 -19t38 -38.5t34.5 -19.5q21 0 31 12.5t15 37.5l49 -4q-9 -42 -35 -67t-61 -25zM383 685q-72 0 -94.5 26t-8.5 91l49 -4q-8 -39 3.5 -53t52.5 -14q45 0 66 16
t29 55l49 -4q-14 -65 -45 -89t-101 -24zM495 53l24 -37q-32 -30 -88 -30q-31 0 -50 16t-19 42q0 44 9 69q-29 -57 -75.5 -92t-95.5 -35q-76 0 -122 47.5t-46 125.5q0 100 50.5 211.5t129 186.5t151.5 75q69 0 107 -19.5t38 -67.5q0 -16 -92 -450q-7 -29 -0.5 -46t33.5 -17
q25 0 46 21zM200 32q59 0 115 62t87 163q56 260 56 283q0 26 -21.5 36t-73.5 10q-58 0 -125 -69.5t-111.5 -170.5t-44.5 -187q0 -57 32.5 -92t85.5 -35z" />
    <glyph glyph-name="uni1EB6" unicode="&#x1eb6;" 
d="M519 987l49 -4q-14 -65 -45 -89t-101 -24q-72 0 -94.5 26t-8.5 91l49 -4q-8 -39 3.5 -53t52.5 -14q45 0 66 16t29 55zM376 800h56l52 -800h-51l-13 216h-278l-105 -216h-53zM164 262h253l-28 463zM208 -107q40 0 52.5 -15t4.5 -52q-7 -34 -22.5 -46.5t-52.5 -12.5
q-40 0 -52.5 15t-4.5 52q8 35 23 47t52 12z" />
    <glyph glyph-name="uni1EB7" unicode="&#x1eb7;" 
d="M383 685q-72 0 -94.5 26t-8.5 91l49 -4q-8 -39 3.5 -53t52.5 -14q45 0 66 16t29 55l49 -4q-14 -65 -45 -89t-101 -24zM495 53l24 -37q-32 -30 -88 -30q-31 0 -50 16t-19 42q0 44 9 69q-29 -57 -75.5 -92t-95.5 -35q-76 0 -122 47.5t-46 125.5q0 100 50.5 211.5t129 186.5
t151.5 75q69 0 107 -19.5t38 -67.5q0 -16 -92 -450q-7 -29 -0.5 -46t33.5 -17q25 0 46 21zM200 32q59 0 115 62t87 163q56 260 56 283q0 26 -21.5 36t-73.5 10q-58 0 -125 -69.5t-111.5 -170.5t-44.5 -187q0 -57 32.5 -92t85.5 -35zM190 -230q-40 0 -52.5 15t-4.5 52
q8 35 23 47t52 12q40 0 52.5 -15t4.5 -52q-7 -34 -22.5 -46.5t-52.5 -12.5z" />
    <glyph glyph-name="uni1EB8" unicode="&#x1eb8;" 
d="M621 754h-375l-65 -308h240l-10 -46h-240l-75 -354h374l-10 -46h-424l170 800h424zM222 -107q40 0 52.5 -15t4.5 -52q-7 -34 -22.5 -46.5t-52.5 -12.5q-40 0 -52.5 15t-4.5 52q8 35 23 47t52 12z" />
    <glyph glyph-name="uni1EB9" unicode="&#x1eb9;" 
d="M260 35q50 0 106.5 24t99.5 64l26 -41q-48 -43 -113.5 -69.5t-124.5 -26.5q-70 0 -117 49.5t-47 127.5v21q-35 -12 -49 -26l-24 41q19 19 76 37q16 176 101 286t207 110q62 0 97 -31.5t35 -96.5q0 -55 -27 -101t-55.5 -73t-94 -56t-91 -37t-98.5 -29q-18 -6 -26 -8
q-1 -13 -1 -41q0 -54 35 -89t85 -35zM400 586q-97 0 -167 -92.5t-88 -241.5q151 43 212 75q126 67 126 177q0 40 -24 61t-59 21zM208 -104q40 0 52.5 -15t4.5 -52q-7 -34 -22.5 -46.5t-52.5 -12.5q-40 0 -52.5 15t-4.5 52q8 35 23 47t52 12z" />
    <glyph glyph-name="uni1EBA" unicode="&#x1eba;" 
d="M484 941q3 13 -5.5 21.5t-21.5 8.5q-43 0 -95 -38l9 58q41 26 87 26q39 0 60.5 -23.5t13.5 -60.5q-6 -31 -37 -56t-82 -37l-7 45q69 18 78 56zM621 754h-375l-65 -308h240l-10 -46h-240l-75 -354h374l-10 -46h-424l170 800h424z" />
    <glyph glyph-name="uni1EBB" unicode="&#x1ebb;" 
d="M431 756q3 13 -5.5 21.5t-21.5 8.5q-43 0 -95 -38l9 58q41 26 87 26q39 0 60.5 -23.5t13.5 -60.5q-6 -31 -37 -56t-82 -37l-7 45q69 18 78 56zM260 35q50 0 106.5 24t99.5 64l26 -41q-48 -43 -113.5 -69.5t-124.5 -26.5q-70 0 -117 49.5t-47 127.5v21q-35 -12 -49 -26
l-24 41q19 19 76 37q16 176 101 286t207 110q62 0 97 -31.5t35 -96.5q0 -55 -27 -101t-55.5 -73t-94 -56t-91 -37t-98.5 -29q-18 -6 -26 -8q-1 -13 -1 -41q0 -54 35 -89t85 -35zM400 586q-97 0 -167 -92.5t-88 -241.5q151 43 212 75q126 67 126 177q0 40 -24 61t-59 21z" />
    <glyph glyph-name="uni1EBC" unicode="&#x1ebc;" 
d="M390 963q-21 0 -31 -13t-16 -40l-49 4q10 44 36 69.5t61 25.5q25 0 45.5 -19.5t38 -38.5t34.5 -19q21 0 31 12.5t15 37.5l49 -4q-9 -42 -35 -67t-61 -25q-20 0 -38 12t-28.5 26.5t-24.5 26.5t-27 12zM621 754h-375l-65 -308h240l-10 -46h-240l-75 -354h374l-10 -46h-424
l170 800h424z" />
    <glyph glyph-name="uni1EBD" unicode="&#x1ebd;" 
d="M337 778q-21 0 -31 -13t-16 -40l-49 4q10 44 36 69.5t61 25.5q25 0 45.5 -19t38 -38.5t34.5 -19.5q21 0 31 12.5t15 37.5l49 -4q-9 -42 -35 -67t-61 -25q-25 0 -46.5 19.5t-38.5 38.5t-33 19zM533 504q0 -55 -27 -101t-55.5 -73t-94 -56t-91 -37t-98.5 -29q-18 -6 -26 -8
q-1 -13 -1 -41q0 -54 35 -89t85 -35t106.5 24t99.5 64l26 -41q-48 -43 -113.5 -69.5t-124.5 -26.5q-70 0 -117 49.5t-47 127.5v21q-35 -12 -49 -26l-24 41q19 19 76 37q16 176 101 286t207 110q62 0 97 -31.5t35 -96.5zM400 586q-97 0 -167 -92.5t-88 -241.5q151 43 212 75
q126 67 126 177q0 40 -24 61t-59 21z" />
    <glyph glyph-name="uni1EBE" unicode="&#x1ebe;" 
d="M721 1025l-159 -118l-27 35l159 118zM445 918l-109 -81l-33 30l153 115l106 -117l-44 -30zM36 0l170 800h424l-9 -46h-375l-65 -308h240l-10 -46h-240l-75 -354h374l-10 -46h-424z" />
    <glyph glyph-name="uni1EBF" unicode="&#x1ebf;" 
d="M573 1010l-158 -118l-27 35l158 118zM399 768l-109 -81l-33 30l153 115l106 -117l-44 -30zM533 504q0 -55 -27 -101t-55.5 -73t-94 -56t-91 -37t-98.5 -29q-18 -6 -26 -8q-1 -13 -1 -41q0 -54 35 -89t85 -35t106.5 24t99.5 64l26 -41q-48 -43 -113.5 -69.5t-124.5 -26.5
q-70 0 -117 49.5t-47 127.5v21q-35 -12 -49 -26l-24 41q19 19 76 37q16 176 101 286t207 110q62 0 97 -31.5t35 -96.5zM400 586q-97 0 -167 -92.5t-88 -241.5q151 43 212 75q126 67 126 177q0 40 -24 61t-59 21z" />
    <glyph glyph-name="uni1EC0" unicode="&#x1ec0;" 
d="M643 914l-39 -35l-111 118l39 35zM445 918l-109 -81l-33 30l153 115l106 -117l-44 -30zM36 0l170 800h424l-9 -46h-375l-65 -308h240l-10 -46h-240l-75 -354h374l-10 -46h-424z" />
    <glyph glyph-name="uni1EC1" unicode="&#x1ec1;" 
d="M474 927l-39 -35l-112 118l39 35zM399 768l-109 -81l-33 30l153 115l106 -117l-44 -30zM260 35q50 0 106.5 24t99.5 64l26 -41q-48 -43 -113.5 -69.5t-124.5 -26.5q-70 0 -117 49.5t-47 127.5v21q-35 -12 -49 -26l-24 41q19 19 76 37q16 176 101 286t207 110
q62 0 97 -31.5t35 -96.5q0 -55 -27 -101t-55.5 -73t-94 -56t-91 -37t-98.5 -29q-18 -6 -26 -8q-1 -13 -1 -41q0 -54 35 -89t85 -35zM400 586q-97 0 -167 -92.5t-88 -241.5q151 43 212 75q126 67 126 177q0 40 -24 61t-59 21z" />
    <glyph glyph-name="uni1EC2" unicode="&#x1ec2;" 
d="M644 1060q39 0 60.5 -23.5t13.5 -60.5q-6 -31 -37 -56t-82 -37l-7 45q69 18 78 56q3 13 -5.5 21.5t-21.5 8.5q-43 0 -95 -38l9 58q41 26 87 26zM445 918l-109 -81l-33 30l153 115l106 -117l-44 -30zM36 0l170 800h424l-9 -46h-375l-65 -308h240l-10 -46h-240l-75 -354
h374l-10 -46h-424z" />
    <glyph glyph-name="uni1EC3" unicode="&#x1ec3;" 
d="M474 961q3 13 -5.5 21.5t-21.5 8.5q-43 0 -95 -38l9 58q41 26 87 26q39 0 60.5 -23.5t13.5 -60.5q-6 -31 -37 -56t-82 -37l-7 45q69 18 78 56zM399 768l-109 -81l-33 30l153 115l106 -117l-44 -30zM260 35q50 0 106.5 24t99.5 64l26 -41q-48 -43 -113.5 -69.5
t-124.5 -26.5q-70 0 -117 49.5t-47 127.5v21q-35 -12 -49 -26l-24 41q19 19 76 37q16 176 101 286t207 110q62 0 97 -31.5t35 -96.5q0 -55 -27 -101t-55.5 -73t-94 -56t-91 -37t-98.5 -29q-18 -6 -26 -8q-1 -13 -1 -41q0 -54 35 -89t85 -35zM400 586q-97 0 -167 -92.5
t-88 -241.5q151 43 212 75q126 67 126 177q0 40 -24 61t-59 21z" />
    <glyph glyph-name="uni1EC4" unicode="&#x1ec4;" 
d="M769 1004l49 -4q-9 -42 -35 -67t-61 -25q-20 0 -38 12t-28.5 26.5t-24.5 26.5t-27 12q-21 0 -31 -13t-16 -40l-49 4q10 44 36 69.5t61 25.5q25 0 45.5 -19.5t38 -38.5t34.5 -19q21 0 31 12.5t15 37.5zM445 918l-109 -81l-33 30l153 115l106 -117l-44 -30zM36 0l170 800
h424l-9 -46h-375l-65 -308h240l-10 -46h-240l-75 -354h374l-10 -46h-424z" />
    <glyph glyph-name="uni1EC5" unicode="&#x1ec5;" 
d="M545 1002l49 -4q-9 -42 -35 -67t-61 -25q-20 0 -38 12t-28.5 26.5t-24.5 26.5t-27 12q-21 0 -31 -13t-16 -40l-49 4q10 44 36 69.5t61 25.5q25 0 45.5 -19.5t38 -38.5t34.5 -19q21 0 31 12.5t15 37.5zM472 685l-73 83l-109 -81l-33 30l153 115l106 -117zM533 504
q0 -55 -27 -101t-55.5 -73t-94 -56t-91 -37t-98.5 -29q-18 -6 -26 -8q-1 -13 -1 -41q0 -54 35 -89t85 -35t106.5 24t99.5 64l26 -41q-48 -43 -113.5 -69.5t-124.5 -26.5q-70 0 -117 49.5t-47 127.5v21q-35 -12 -49 -26l-24 41q19 19 76 37q16 176 101 286t207 110
q62 0 97 -31.5t35 -96.5zM400 586q-97 0 -167 -92.5t-88 -241.5q151 43 212 75q126 67 126 177q0 40 -24 61t-59 21z" />
    <glyph glyph-name="uni1EC6" unicode="&#x1ec6;" 
d="M452 953l-109 -81l-33 30l153 115l106 -117l-44 -30zM621 754h-375l-65 -308h240l-10 -46h-240l-75 -354h374l-10 -46h-424l170 800h424zM222 -107q40 0 52.5 -15t4.5 -52q-7 -34 -22.5 -46.5t-52.5 -12.5q-40 0 -52.5 15t-4.5 52q8 35 23 47t52 12z" />
    <glyph glyph-name="uni1EC7" unicode="&#x1ec7;" 
d="M399 768l-109 -81l-33 30l153 115l106 -117l-44 -30zM260 35q50 0 106.5 24t99.5 64l26 -41q-48 -43 -113.5 -69.5t-124.5 -26.5q-70 0 -117 49.5t-47 127.5v21q-35 -12 -49 -26l-24 41q19 19 76 37q16 176 101 286t207 110q62 0 97 -31.5t35 -96.5q0 -55 -27 -101
t-55.5 -73t-94 -56t-91 -37t-98.5 -29q-18 -6 -26 -8q-1 -13 -1 -41q0 -54 35 -89t85 -35zM400 586q-97 0 -167 -92.5t-88 -241.5q151 43 212 75q126 67 126 177q0 40 -24 61t-59 21zM208 -104q40 0 52.5 -15t4.5 -52q-7 -34 -22.5 -46.5t-52.5 -12.5q-40 0 -52.5 15
t-4.5 52q8 35 23 47t52 12z" />
    <glyph glyph-name="uni1EC8" unicode="&#x1ec8;" 
d="M470 941q3 13 -5.5 21.5t-21.5 8.5q-43 0 -95 -38l9 58q41 26 87 26q39 0 60.5 -23.5t13.5 -60.5q-6 -31 -37 -56t-82 -37l-7 45q69 18 78 56zM582 754h-163l-150 -708h162l-10 -46h-374l10 46h162l150 708h-161l9 46h374z" />
    <glyph glyph-name="uni1EC9" unicode="&#x1ec9;" 
d="M297 655l-7 45q69 18 78 56q3 13 -5.5 21.5t-21.5 8.5q-43 0 -95 -38l9 58q41 26 87 26q39 0 60.5 -23.5t13.5 -60.5q-6 -31 -37 -56t-82 -37zM338 -14q-115 0 -148 60.5t7 215.5l64 231q6 33 -3.5 52t-43.5 27l12 46q102 -21 87 -112l-66 -244q-33 -129 -11 -179.5
t102 -50.5q38 0 64 16.5t58 59.5l40 -28q-41 -53 -76 -73.5t-86 -20.5z" />
    <glyph glyph-name="uni1ECA" unicode="&#x1eca;" 
d="M582 754h-163l-150 -708h162l-10 -46h-374l10 46h162l150 708h-161l9 46h374zM208 -107q40 0 52.5 -15t4.5 -52q-7 -34 -22.5 -46.5t-52.5 -12.5q-40 0 -52.5 15t-4.5 52q8 35 23 47t52 12z" />
    <glyph glyph-name="uni1ECB" unicode="&#x1ecb;" 
d="M332 736q-40 0 -52.5 15t-4.5 52q8 35 23 47t52 12q40 0 52.5 -15t4.5 -52q-7 -34 -22.5 -46.5t-52.5 -12.5zM338 -14q-115 0 -148 60.5t7 215.5l64 231q6 33 -3.5 52t-43.5 27l12 46q102 -21 87 -112l-66 -244q-33 -129 -11 -179.5t102 -50.5q38 0 64 16.5t58 59.5
l40 -28q-41 -53 -76 -73.5t-86 -20.5zM261 -230q-40 0 -52.5 15t-4.5 52q8 35 23 47t52 12q40 0 52.5 -15t4.5 -52q-7 -34 -22.5 -46.5t-52.5 -12.5z" />
    <glyph glyph-name="uni1ECC" unicode="&#x1ecc;" 
d="M236 -14q-135 0 -169 81.5t11 294.5l17 80q46 213 111.5 292.5t196.5 79.5q134 0 168.5 -81.5t-11.5 -294.5l-17 -80q-45 -213 -110.5 -292.5t-196.5 -79.5zM237 32q106 0 161.5 71.5t95.5 258.5l17 80q40 187 17 256.5t-126 69.5q-107 0 -163 -71.5t-95 -258.5l-17 -80
q-39 -187 -15.5 -256.5t125.5 -69.5zM190 -233q-40 0 -52.5 15t-4.5 52q8 35 23 47t52 12q40 0 52.5 -15t4.5 -52q-7 -34 -22.5 -46.5t-52.5 -12.5z" />
    <glyph glyph-name="uni1ECD" unicode="&#x1ecd;" 
d="M236 -14q-125 0 -157.5 71t7.5 256q30 143 106.5 231t171.5 88q125 0 157.5 -71t-7.5 -256q-30 -143 -106.5 -231t-171.5 -88zM237 32q76 0 139 77t90 204q33 157 11 215t-114 58q-76 0 -139 -77t-90 -204q-33 -157 -11 -215t114 -58zM190 -230q-40 0 -52.5 15t-4.5 52
q8 35 23 47t52 12q40 0 52.5 -15t4.5 -52q-7 -34 -22.5 -46.5t-52.5 -12.5z" />
    <glyph glyph-name="uni1ECE" unicode="&#x1ece;" 
d="M399 840l-7 45q69 18 78 56q3 13 -5.5 21.5t-21.5 8.5q-43 0 -95 -38l9 58q41 26 87 26q39 0 60.5 -23.5t13.5 -60.5q-6 -31 -37 -56t-82 -37zM236 -14q-135 0 -169 81.5t11 294.5l17 80q46 213 111.5 292.5t196.5 79.5q134 0 168.5 -81.5t-11.5 -294.5l-17 -80
q-45 -213 -110.5 -292.5t-196.5 -79.5zM237 32q106 0 161.5 71.5t95.5 258.5l17 80q40 187 17 256.5t-126 69.5q-107 0 -163 -71.5t-95 -258.5l-17 -80q-39 -187 -15.5 -256.5t125.5 -69.5z" />
    <glyph glyph-name="uni1ECF" unicode="&#x1ecf;" 
d="M360 655l-7 45q69 18 78 56q3 13 -5.5 21.5t-21.5 8.5q-43 0 -95 -38l9 58q41 26 87 26q39 0 60.5 -23.5t13.5 -60.5q-6 -31 -37 -56t-82 -37zM236 -14q-125 0 -157.5 71t7.5 256q30 143 106.5 231t171.5 88q125 0 157.5 -71t-7.5 -256q-30 -143 -106.5 -231t-171.5 -88z
M237 32q76 0 139 77t90 204q33 157 11 215t-114 58q-76 0 -139 -77t-90 -204q-33 -157 -11 -215t114 -58z" />
    <glyph glyph-name="uni1ED0" unicode="&#x1ed0;" 
d="M548 907l-27 35l159 118l27 -35zM504 835l-73 83l-109 -81l-33 30l153 115l106 -117zM236 -14q-135 0 -169 81.5t11 294.5l17 80q46 213 111.5 292.5t196.5 79.5q134 0 168.5 -81.5t-11.5 -294.5l-17 -80q-45 -213 -110.5 -292.5t-196.5 -79.5zM237 32q106 0 161.5 71.5
t95.5 258.5l17 80q40 187 17 256.5t-126 69.5q-107 0 -163 -71.5t-95 -258.5l-17 -80q-39 -187 -15.5 -256.5t125.5 -69.5z" />
    <glyph glyph-name="uni1ED1" unicode="&#x1ed1;" 
d="M415 892l-27 35l158 118l27 -35zM472 685l-73 83l-109 -81l-33 30l153 115l106 -117zM236 -14q-125 0 -157.5 71t7.5 256q30 143 106.5 231t171.5 88q125 0 157.5 -71t-7.5 -256q-30 -143 -106.5 -231t-171.5 -88zM237 32q76 0 139 77t90 204q33 157 11 215t-114 58
q-76 0 -139 -77t-90 -204q-33 -157 -11 -215t114 -58z" />
    <glyph glyph-name="uni1ED2" unicode="&#x1ed2;" 
d="M590 879l-111 118l39 35l111 -118zM504 835l-73 83l-109 -81l-33 30l153 115l106 -117zM236 -14q-135 0 -169 81.5t11 294.5l17 80q46 213 111.5 292.5t196.5 79.5q134 0 168.5 -81.5t-11.5 -294.5l-17 -80q-45 -213 -110.5 -292.5t-196.5 -79.5zM237 32
q106 0 161.5 71.5t95.5 258.5l17 80q40 187 17 256.5t-126 69.5q-107 0 -163 -71.5t-95 -258.5l-17 -80q-39 -187 -15.5 -256.5t125.5 -69.5z" />
    <glyph glyph-name="uni1ED3" unicode="&#x1ed3;" 
d="M435 892l-112 118l39 35l112 -118zM472 685l-73 83l-109 -81l-33 30l153 115l106 -117zM236 -14q-125 0 -157.5 71t7.5 256q30 143 106.5 231t171.5 88q125 0 157.5 -71t-7.5 -256q-30 -143 -106.5 -231t-171.5 -88zM237 32q76 0 139 77t90 204q33 157 11 215t-114 58
q-76 0 -139 -77t-90 -204q-33 -157 -11 -215t114 -58z" />
    <glyph glyph-name="uni1ED4" unicode="&#x1ed4;" 
d="M585 883l-7 45q69 18 78 56q3 13 -5.5 21.5t-21.5 8.5q-43 0 -95 -38l9 58q41 26 87 26q39 0 60.5 -23.5t13.5 -60.5q-6 -31 -37 -56t-82 -37zM504 835l-73 83l-109 -81l-33 30l153 115l106 -117zM236 -14q-135 0 -169 81.5t11 294.5l17 80q46 213 111.5 292.5
t196.5 79.5q134 0 168.5 -81.5t-11.5 -294.5l-17 -80q-45 -213 -110.5 -292.5t-196.5 -79.5zM237 32q106 0 161.5 71.5t95.5 258.5l17 80q40 187 17 256.5t-126 69.5q-107 0 -163 -71.5t-95 -258.5l-17 -80q-39 -187 -15.5 -256.5t125.5 -69.5z" />
    <glyph glyph-name="uni1ED5" unicode="&#x1ed5;" 
d="M403 860l-7 45q69 18 78 56q3 13 -5.5 21.5t-21.5 8.5q-43 0 -95 -38l9 58q41 26 87 26q39 0 60.5 -23.5t13.5 -60.5q-6 -31 -37 -56t-82 -37zM472 685l-73 83l-109 -81l-33 30l153 115l106 -117zM236 -14q-125 0 -157.5 71t7.5 256q30 143 106.5 231t171.5 88
q125 0 157.5 -71t-7.5 -256q-30 -143 -106.5 -231t-171.5 -88zM237 32q76 0 139 77t90 204q33 157 11 215t-114 58q-76 0 -139 -77t-90 -204q-33 -157 -11 -215t114 -58z" />
    <glyph glyph-name="uni1ED6" unicode="&#x1ed6;" 
d="M708 908q-20 0 -38 12t-28.5 26.5t-24.5 26.5t-27 12q-21 0 -31 -13t-16 -40l-49 4q10 44 36 69.5t61 25.5q25 0 45.5 -19.5t38 -38.5t34.5 -19q21 0 31 12.5t15 37.5l49 -4q-9 -42 -35 -67t-61 -25zM504 835l-73 83l-109 -81l-33 30l153 115l106 -117zM236 -14
q-135 0 -169 81.5t11 294.5l17 80q46 213 111.5 292.5t196.5 79.5q134 0 168.5 -81.5t-11.5 -294.5l-17 -80q-45 -213 -110.5 -292.5t-196.5 -79.5zM237 32q106 0 161.5 71.5t95.5 258.5l17 80q40 187 17 256.5t-126 69.5q-107 0 -163 -71.5t-95 -258.5l-17 -80
q-39 -187 -15.5 -256.5t125.5 -69.5z" />
    <glyph glyph-name="uni1ED7" unicode="&#x1ed7;" 
d="M498 906q-20 0 -38 12t-28.5 26.5t-24.5 26.5t-27 12q-21 0 -31 -13t-16 -40l-49 4q10 44 36 69.5t61 25.5q25 0 45.5 -19.5t38 -38.5t34.5 -19q21 0 31 12.5t15 37.5l49 -4q-9 -42 -35 -67t-61 -25zM472 685l-73 83l-109 -81l-33 30l153 115l106 -117zM236 -14
q-125 0 -157.5 71t7.5 256q30 143 106.5 231t171.5 88q125 0 157.5 -71t-7.5 -256q-30 -143 -106.5 -231t-171.5 -88zM237 32q76 0 139 77t90 204q33 157 11 215t-114 58q-76 0 -139 -77t-90 -204q-33 -157 -11 -215t114 -58z" />
    <glyph glyph-name="uni1ED8" unicode="&#x1ed8;" 
d="M511 870l-73 83l-109 -81l-33 30l153 115l106 -117zM236 -14q-135 0 -169 81.5t11 294.5l17 80q46 213 111.5 292.5t196.5 79.5q134 0 168.5 -81.5t-11.5 -294.5l-17 -80q-45 -213 -110.5 -292.5t-196.5 -79.5zM237 32q106 0 161.5 71.5t95.5 258.5l17 80
q40 187 17 256.5t-126 69.5q-107 0 -163 -71.5t-95 -258.5l-17 -80q-39 -187 -15.5 -256.5t125.5 -69.5zM190 -233q-40 0 -52.5 15t-4.5 52q8 35 23 47t52 12q40 0 52.5 -15t4.5 -52q-7 -34 -22.5 -46.5t-52.5 -12.5z" />
    <glyph glyph-name="uni1ED9" unicode="&#x1ed9;" 
d="M472 685l-73 83l-109 -81l-33 30l153 115l106 -117zM236 -14q-125 0 -157.5 71t7.5 256q30 143 106.5 231t171.5 88q125 0 157.5 -71t-7.5 -256q-30 -143 -106.5 -231t-171.5 -88zM237 32q76 0 139 77t90 204q33 157 11 215t-114 58q-76 0 -139 -77t-90 -204
q-33 -157 -11 -215t114 -58zM190 -230q-40 0 -52.5 15t-4.5 52q8 35 23 47t52 12q40 0 52.5 -15t4.5 -52q-7 -34 -22.5 -46.5t-52.5 -12.5z" />
    <glyph glyph-name="uni1EDA" unicode="&#x1eda;" 
d="M569 990l-158 -118l-27 35l158 118zM734 906h50l-28 -132q-11 -55 -46 -87.5t-82 -32.5q-21 0 -42 13q6 -82 -26 -229l-17 -80q-45 -213 -110.5 -292.5t-196.5 -79.5q-135 0 -169 81.5t11 294.5l17 80q46 213 111.5 292.5t196.5 79.5q73 0 115 -22t58 -71q14 -21 53 -21
q27 0 49 21.5t29 56.5zM511 442q40 187 17 256.5t-126 69.5q-107 0 -163 -71.5t-95 -258.5l-17 -80q-39 -187 -15.5 -256.5t125.5 -69.5q106 0 161.5 71.5t95.5 258.5z" />
    <glyph glyph-name="uni1EDB" unicode="&#x1edb;" 
d="M530 805l-158 -118l-27 35l158 118zM670 721h50l-28 -132q-11 -55 -46 -87.5t-82 -32.5q-13 0 -28 5q1 -61 -22 -169q-30 -143 -106.5 -231t-171.5 -88q-125 0 -157.5 71t7.5 256q30 143 106.5 231t171.5 88q78 0 118.5 -26t50.5 -86q15 -5 32 -5q27 0 49 21.5t29 56.5z
M466 313q33 157 11 215t-114 58q-76 0 -139 -77t-90 -204q-33 -157 -11 -215t114 -58q76 0 139 77t90 204z" />
    <glyph glyph-name="uni1EDC" unicode="&#x1edc;" 
d="M470 907l-39 -35l-112 118l39 35zM734 906h50l-28 -132q-11 -55 -46 -87.5t-82 -32.5q-21 0 -42 13q6 -82 -26 -229l-17 -80q-45 -213 -110.5 -292.5t-196.5 -79.5q-135 0 -169 81.5t11 294.5l17 80q46 213 111.5 292.5t196.5 79.5q73 0 115 -22t58 -71q14 -21 53 -21
q27 0 49 21.5t29 56.5zM511 442q40 187 17 256.5t-126 69.5q-107 0 -163 -71.5t-95 -258.5l-17 -80q-39 -187 -15.5 -256.5t125.5 -69.5q106 0 161.5 71.5t95.5 258.5z" />
    <glyph glyph-name="uni1EDD" unicode="&#x1edd;" 
d="M431 722l-39 -35l-112 118l39 35zM670 721h50l-28 -132q-11 -55 -46 -87.5t-82 -32.5q-13 0 -28 5q1 -61 -22 -169q-30 -143 -106.5 -231t-171.5 -88q-125 0 -157.5 71t7.5 256q30 143 106.5 231t171.5 88q78 0 118.5 -26t50.5 -86q15 -5 32 -5q27 0 49 21.5t29 56.5z
M466 313q33 157 11 215t-114 58q-76 0 -139 -77t-90 -204q-33 -157 -11 -215t114 -58q76 0 139 77t90 204z" />
    <glyph glyph-name="uni1EDE" unicode="&#x1ede;" 
d="M470 941q3 13 -5.5 21.5t-21.5 8.5q-43 0 -95 -38l9 58q41 26 87 26q39 0 60.5 -23.5t13.5 -60.5q-6 -31 -37 -56t-82 -37l-7 45q69 18 78 56zM734 906h50l-28 -132q-11 -55 -46 -87.5t-82 -32.5q-21 0 -42 13q6 -82 -26 -229l-17 -80q-45 -213 -110.5 -292.5
t-196.5 -79.5q-135 0 -169 81.5t11 294.5l17 80q46 213 111.5 292.5t196.5 79.5q73 0 115 -22t58 -71q14 -21 53 -21q27 0 49 21.5t29 56.5zM511 442q40 187 17 256.5t-126 69.5q-107 0 -163 -71.5t-95 -258.5l-17 -80q-39 -187 -15.5 -256.5t125.5 -69.5q106 0 161.5 71.5
t95.5 258.5z" />
    <glyph glyph-name="uni1EDF" unicode="&#x1edf;" 
d="M431 756q3 13 -5.5 21.5t-21.5 8.5q-43 0 -95 -38l9 58q41 26 87 26q39 0 60.5 -23.5t13.5 -60.5q-6 -31 -37 -56t-82 -37l-7 45q69 18 78 56zM670 721h50l-28 -132q-11 -55 -46 -87.5t-82 -32.5q-13 0 -28 5q1 -61 -22 -169q-30 -143 -106.5 -231t-171.5 -88
q-125 0 -157.5 71t7.5 256q30 143 106.5 231t171.5 88q78 0 118.5 -26t50.5 -86q15 -5 32 -5q27 0 49 21.5t29 56.5zM466 313q33 157 11 215t-114 58q-76 0 -139 -77t-90 -204q-33 -157 -11 -215t114 -58q76 0 139 77t90 204z" />
    <glyph glyph-name="uni1EE0" unicode="&#x1ee0;" 
d="M376 963q-21 0 -31 -13t-16 -40l-49 4q10 44 36 69.5t61 25.5q25 0 45.5 -19.5t38 -38.5t34.5 -19q21 0 31 12.5t15 37.5l49 -4q-9 -42 -35 -67t-61 -25q-20 0 -38 12t-28.5 26.5t-24.5 26.5t-27 12zM734 906h50l-28 -132q-11 -55 -46 -87.5t-82 -32.5q-21 0 -42 13
q6 -82 -26 -229l-17 -80q-45 -213 -110.5 -292.5t-196.5 -79.5q-135 0 -169 81.5t11 294.5l17 80q46 213 111.5 292.5t196.5 79.5q73 0 115 -22t58 -71q14 -21 53 -21q27 0 49 21.5t29 56.5zM511 442q40 187 17 256.5t-126 69.5q-107 0 -163 -71.5t-95 -258.5l-17 -80
q-39 -187 -15.5 -256.5t125.5 -69.5q106 0 161.5 71.5t95.5 258.5z" />
    <glyph glyph-name="uni1EE1" unicode="&#x1ee1;" 
d="M337 778q-21 0 -31 -13t-16 -40l-49 4q10 44 36 69.5t61 25.5q25 0 45.5 -19t38 -38.5t34.5 -19.5q21 0 31 12.5t15 37.5l49 -4q-9 -42 -35 -67t-61 -25q-25 0 -46.5 19.5t-38.5 38.5t-33 19zM670 721h50l-28 -132q-11 -55 -46 -87.5t-82 -32.5q-13 0 -28 5
q1 -61 -22 -169q-30 -143 -106.5 -231t-171.5 -88q-125 0 -157.5 71t7.5 256q30 143 106.5 231t171.5 88q78 0 118.5 -26t50.5 -86q15 -5 32 -5q27 0 49 21.5t29 56.5zM466 313q33 157 11 215t-114 58q-76 0 -139 -77t-90 -204q-33 -157 -11 -215t114 -58q76 0 139 77
t90 204z" />
    <glyph glyph-name="uni1EE2" unicode="&#x1ee2;" 
d="M734 906h50l-28 -132q-11 -55 -46 -87.5t-82 -32.5q-21 0 -42 13q6 -82 -26 -229l-17 -80q-45 -213 -110.5 -292.5t-196.5 -79.5q-135 0 -169 81.5t11 294.5l17 80q46 213 111.5 292.5t196.5 79.5q73 0 115 -22t58 -71q14 -21 53 -21q27 0 49 21.5t29 56.5zM511 442
q40 187 17 256.5t-126 69.5q-107 0 -163 -71.5t-95 -258.5l-17 -80q-39 -187 -15.5 -256.5t125.5 -69.5q106 0 161.5 71.5t95.5 258.5zM208 -107q40 0 52.5 -15t4.5 -52q-7 -34 -22.5 -46.5t-52.5 -12.5q-40 0 -52.5 15t-4.5 52q8 35 23 47t52 12z" />
    <glyph glyph-name="uni1EE3" unicode="&#x1ee3;" 
d="M670 721h50l-28 -132q-11 -55 -46 -87.5t-82 -32.5q-13 0 -28 5q1 -61 -22 -169q-30 -143 -106.5 -231t-171.5 -88q-125 0 -157.5 71t7.5 256q30 143 106.5 231t171.5 88q78 0 118.5 -26t50.5 -86q15 -5 32 -5q27 0 49 21.5t29 56.5zM466 313q33 157 11 215t-114 58
q-76 0 -139 -77t-90 -204q-33 -157 -11 -215t114 -58q76 0 139 77t90 204zM208 -104q40 0 52.5 -15t4.5 -52q-7 -34 -22.5 -46.5t-52.5 -12.5q-40 0 -52.5 15t-4.5 52q8 35 23 47t52 12z" />
    <glyph glyph-name="uni1EE4" unicode="&#x1ee4;" 
d="M236 -14q-123 0 -156 67t5 242l107 505h50l-108 -509q-32 -149 -10 -204t113 -55q94 0 142.5 57.5t79.5 205.5l107 505h50l-108 -509q-37 -175 -95 -240t-177 -65zM190 -233q-40 0 -52.5 15t-4.5 52q8 35 23 47t52 12q40 0 52.5 -15t4.5 -52q-7 -34 -22.5 -46.5
t-52.5 -12.5z" />
    <glyph glyph-name="uni1EE5" unicode="&#x1ee5;" 
d="M76 565l-24 37q32 30 88 30q32 0 51.5 -16t19.5 -42q0 -93 -82 -361q-28 -98 -9 -139.5t82 -41.5q69 0 142.5 101.5t93.5 196.5l61 288h51l-114 -533q-2 -14 -2 -20q0 -15 10 -24t27 -9q25 0 46 21l24 -37q-32 -30 -88 -30q-34 0 -55.5 25t-12.5 67l20 92
q-98 -184 -204 -184q-197 0 -122 231q80 247 80 336q0 15 -10 24t-27 9q-25 0 -46 -21zM150 -230q-40 0 -52.5 15t-4.5 52q8 35 23 47t52 12q40 0 52.5 -15t4.5 -52q-7 -34 -22.5 -46.5t-52.5 -12.5z" />
    <glyph glyph-name="uni1EE6" unicode="&#x1ee6;" 
d="M399 840l-7 45q69 18 78 56q3 13 -5.5 21.5t-21.5 8.5q-43 0 -95 -38l9 58q41 26 87 26q39 0 60.5 -23.5t13.5 -60.5q-6 -31 -37 -56t-82 -37zM236 -14q-123 0 -156 67t5 242l107 505h50l-108 -509q-32 -149 -10 -204t113 -55q94 0 142.5 57.5t79.5 205.5l107 505h50
l-108 -509q-37 -175 -95 -240t-177 -65z" />
    <glyph glyph-name="uni1EE7" unicode="&#x1ee7;" 
d="M350 655l-7 45q69 18 78 56q3 13 -5.5 21.5t-21.5 8.5q-43 0 -95 -38l9 58q41 26 87 26q39 0 60.5 -23.5t13.5 -60.5q-6 -31 -37 -56t-82 -37zM76 565l-24 37q32 30 88 30q32 0 51.5 -16t19.5 -42q0 -93 -82 -361q-28 -98 -9 -139.5t82 -41.5q69 0 142.5 101.5
t93.5 196.5l61 288h51l-114 -533q-2 -14 -2 -20q0 -15 10 -24t27 -9q25 0 46 21l24 -37q-32 -30 -88 -30q-34 0 -55.5 25t-12.5 67l20 92q-98 -184 -204 -184q-197 0 -122 231q80 247 80 336q0 15 -10 24t-27 9q-25 0 -46 -21z" />
    <glyph glyph-name="uni1EE8" unicode="&#x1ee8;" 
d="M569 990l-158 -118l-27 35l158 118zM749 978h50l-28 -132q-11 -55 -46 -87.5t-82 -32.5q-21 0 -40 11l-95 -446q-37 -175 -95 -240t-177 -65q-123 0 -156 67t5 242l107 505h50l-108 -509q-32 -149 -10 -204t113 -55q94 0 142.5 57.5t79.5 205.5l107 505h50l-5 -22
q15 -6 33 -6q27 0 48.5 22t29.5 56z" />
    <glyph glyph-name="uni1EE9" unicode="&#x1ee9;" 
d="M520 805l-158 -118l-27 35l158 118zM681 798h50l-28 -132q-11 -55 -46 -87.5t-82 -32.5q-18 0 -38 10l-101 -471q-2 -14 -2 -20q0 -15 10 -24t27 -9q25 0 46 21l24 -37q-32 -30 -88 -30q-34 0 -55.5 25t-12.5 67l20 92q-98 -184 -204 -184q-197 0 -122 231q80 247 80 336
q0 15 -10 24t-27 9q-25 0 -46 -21l-24 37q32 30 88 30q32 0 51.5 -16t19.5 -42q0 -93 -82 -361q-28 -98 -9 -139.5t82 -41.5q69 0 142.5 101.5t93.5 196.5l61 288h51l-5 -21q15 -5 31 -5q27 0 48.5 22t29.5 56z" />
    <glyph glyph-name="uni1EEA" unicode="&#x1eea;" 
d="M470 907l-39 -35l-112 118l39 35zM749 978h50l-28 -132q-11 -55 -46 -87.5t-82 -32.5q-21 0 -40 11l-95 -446q-37 -175 -95 -240t-177 -65q-123 0 -156 67t5 242l107 505h50l-108 -509q-32 -149 -10 -204t113 -55q94 0 142.5 57.5t79.5 205.5l107 505h50l-5 -22
q15 -6 33 -6q27 0 48.5 22t29.5 56z" />
    <glyph glyph-name="uni1EEB" unicode="&#x1eeb;" 
d="M421 722l-39 -35l-112 118l39 35zM681 798h50l-28 -132q-11 -55 -46 -87.5t-82 -32.5q-18 0 -38 10l-101 -471q-2 -14 -2 -20q0 -15 10 -24t27 -9q25 0 46 21l24 -37q-32 -30 -88 -30q-34 0 -55.5 25t-12.5 67l20 92q-98 -184 -204 -184q-197 0 -122 231q80 247 80 336
q0 15 -10 24t-27 9q-25 0 -46 -21l-24 37q32 30 88 30q32 0 51.5 -16t19.5 -42q0 -93 -82 -361q-28 -98 -9 -139.5t82 -41.5q69 0 142.5 101.5t93.5 196.5l61 288h51l-5 -21q15 -5 31 -5q27 0 48.5 22t29.5 56z" />
    <glyph glyph-name="uni1EEC" unicode="&#x1eec;" 
d="M470 941q3 13 -5.5 21.5t-21.5 8.5q-43 0 -95 -38l9 58q41 26 87 26q39 0 60.5 -23.5t13.5 -60.5q-6 -31 -37 -56t-82 -37l-7 45q69 18 78 56zM749 978h50l-28 -132q-11 -55 -46 -87.5t-82 -32.5q-21 0 -40 11l-95 -446q-37 -175 -95 -240t-177 -65q-123 0 -156 67t5 242
l107 505h50l-108 -509q-32 -149 -10 -204t113 -55q94 0 142.5 57.5t79.5 205.5l107 505h50l-5 -22q15 -6 33 -6q27 0 48.5 22t29.5 56z" />
    <glyph glyph-name="uni1EED" unicode="&#x1eed;" 
d="M421 756q3 13 -5.5 21.5t-21.5 8.5q-43 0 -95 -38l9 58q41 26 87 26q39 0 60.5 -23.5t13.5 -60.5q-6 -31 -37 -56t-82 -37l-7 45q69 18 78 56zM681 798h50l-28 -132q-11 -55 -46 -87.5t-82 -32.5q-18 0 -38 10l-101 -471q-2 -14 -2 -20q0 -15 10 -24t27 -9q25 0 46 21
l24 -37q-32 -30 -88 -30q-34 0 -55.5 25t-12.5 67l20 92q-98 -184 -204 -184q-197 0 -122 231q80 247 80 336q0 15 -10 24t-27 9q-25 0 -46 -21l-24 37q32 30 88 30q32 0 51.5 -16t19.5 -42q0 -93 -82 -361q-28 -98 -9 -139.5t82 -41.5q69 0 142.5 101.5t93.5 196.5l61 288
h51l-5 -21q15 -5 31 -5q27 0 48.5 22t29.5 56z" />
    <glyph glyph-name="uni1EEE" unicode="&#x1eee;" 
d="M376 963q-21 0 -31 -13t-16 -40l-49 4q10 44 36 69.5t61 25.5q25 0 45.5 -19.5t38 -38.5t34.5 -19q21 0 31 12.5t15 37.5l49 -4q-9 -42 -35 -67t-61 -25q-20 0 -38 12t-28.5 26.5t-24.5 26.5t-27 12zM749 978h50l-28 -132q-11 -55 -46 -87.5t-82 -32.5q-21 0 -40 11
l-95 -446q-37 -175 -95 -240t-177 -65q-123 0 -156 67t5 242l107 505h50l-108 -509q-32 -149 -10 -204t113 -55q94 0 142.5 57.5t79.5 205.5l107 505h50l-5 -22q15 -6 33 -6q27 0 48.5 22t29.5 56z" />
    <glyph glyph-name="uni1EEF" unicode="&#x1eef;" 
d="M327 778q-21 0 -31 -13t-16 -40l-49 4q10 44 36 69.5t61 25.5q25 0 45.5 -19t38 -38.5t34.5 -19.5q21 0 31 12.5t15 37.5l49 -4q-9 -42 -35 -67t-61 -25q-25 0 -46.5 19.5t-38.5 38.5t-33 19zM681 798h50l-28 -132q-11 -55 -46 -87.5t-82 -32.5q-18 0 -38 10l-101 -471
q-2 -14 -2 -20q0 -15 10 -24t27 -9q25 0 46 21l24 -37q-32 -30 -88 -30q-34 0 -55.5 25t-12.5 67l20 92q-98 -184 -204 -184q-197 0 -122 231q80 247 80 336q0 15 -10 24t-27 9q-25 0 -46 -21l-24 37q32 30 88 30q32 0 51.5 -16t19.5 -42q0 -93 -82 -361q-28 -98 -9 -139.5
t82 -41.5q69 0 142.5 101.5t93.5 196.5l61 288h51l-5 -21q15 -5 31 -5q27 0 48.5 22t29.5 56z" />
    <glyph glyph-name="uni1EF0" unicode="&#x1ef0;" 
d="M749 978h50l-28 -132q-11 -55 -46 -87.5t-82 -32.5q-21 0 -40 11l-95 -446q-37 -175 -95 -240t-177 -65q-123 0 -156 67t5 242l107 505h50l-108 -509q-32 -149 -10 -204t113 -55q94 0 142.5 57.5t79.5 205.5l107 505h50l-5 -22q15 -6 33 -6q27 0 48.5 22t29.5 56z
M208 -107q40 0 52.5 -15t4.5 -52q-7 -34 -22.5 -46.5t-52.5 -12.5q-40 0 -52.5 15t-4.5 52q8 35 23 47t52 12z" />
    <glyph glyph-name="uni1EF1" unicode="&#x1ef1;" 
d="M681 798h50l-28 -132q-11 -55 -46 -87.5t-82 -32.5q-18 0 -38 10l-101 -471q-2 -14 -2 -20q0 -15 10 -24t27 -9q25 0 46 21l24 -37q-32 -30 -88 -30q-34 0 -55.5 25t-12.5 67l20 92q-98 -184 -204 -184q-197 0 -122 231q80 247 80 336q0 15 -10 24t-27 9q-25 0 -46 -21
l-24 37q32 30 88 30q32 0 51.5 -16t19.5 -42q0 -93 -82 -361q-28 -98 -9 -139.5t82 -41.5q69 0 142.5 101.5t93.5 196.5l61 288h51l-5 -21q15 -5 31 -5q27 0 48.5 22t29.5 56zM168 -104q40 0 52.5 -15t4.5 -52q-7 -34 -22.5 -46.5t-52.5 -12.5q-40 0 -52.5 15t-4.5 52
q8 35 23 47t52 12z" />
    <glyph glyph-name="Ygrave" unicode="&#x1ef2;" 
d="M431 872l-112 118l39 35l112 -118zM209 0l67 308l-129 492h54l111 -430l295 430h56l-337 -492l-67 -308h-50z" />
    <glyph glyph-name="ygrave" unicode="&#x1ef3;" 
d="M392 687l-112 118l39 35l112 -118zM115 -206q-48 0 -77.5 19.5t-29.5 50.5q0 54 98.5 85t268.5 31q29 49 42 126q-10 -32 -56 -46t-96 -14q-77 0 -118 54t-20 119q78 239 78 334q0 15 -10 24t-27 9q-25 0 -46 -21l-24 37q32 30 88 30q31 0 50 -16t19 -42q0 -103 -78 -355
q-18 -57 8.5 -92t79.5 -35q46 0 76 7t58.5 36.5t39.5 83.5l84 399h50q-38 -180 -55 -260.5t-38.5 -178t-33.5 -140t-21 -59.5q55 0 88 9l-10 -45q-33 -9 -98 -9q-37 -64 -117 -102.5t-173 -38.5zM127 -160q62 0 123.5 26t98.5 69q-131 -4 -211 -23.5t-80 -47.5
q0 -11 19 -17.5t50 -6.5z" />
    <glyph glyph-name="uni1EF4" unicode="&#x1ef4;" 
d="M209 0l67 308l-129 492h54l111 -430l295 430h56l-337 -492l-67 -308h-50zM190 -233q-40 0 -52.5 15t-4.5 52q8 35 23 47t52 12q40 0 52.5 -15t4.5 -52q-7 -34 -22.5 -46.5t-52.5 -12.5z" />
    <glyph glyph-name="uni1EF5" unicode="&#x1ef5;" 
d="M115 -206q-48 0 -77.5 19.5t-29.5 50.5q0 54 98.5 85t268.5 31q29 49 42 126q-10 -32 -56 -46t-96 -14q-77 0 -118 54t-20 119q78 239 78 334q0 15 -10 24t-27 9q-25 0 -46 -21l-24 37q32 30 88 30q31 0 50 -16t19 -42q0 -103 -78 -355q-18 -57 8.5 -92t79.5 -35
q46 0 76 7t58.5 36.5t39.5 83.5l84 399h50q-38 -180 -55 -260.5t-38.5 -178t-33.5 -140t-21 -59.5q55 0 88 9l-10 -45q-33 -9 -98 -9q-37 -64 -117 -102.5t-173 -38.5zM127 -160q62 0 123.5 26t98.5 69q-131 -4 -211 -23.5t-80 -47.5q0 -11 19 -17.5t50 -6.5zM406 -277
q-40 0 -52.5 15t-4.5 52q8 35 23 47t52 12q40 0 52.5 -15t4.5 -52q-7 -34 -22.5 -46.5t-52.5 -12.5z" />
    <glyph glyph-name="uni1EF6" unicode="&#x1ef6;" 
d="M399 840l-7 45q69 18 78 56q3 13 -5.5 21.5t-21.5 8.5q-43 0 -95 -38l9 58q41 26 87 26q39 0 60.5 -23.5t13.5 -60.5q-6 -31 -37 -56t-82 -37zM209 0l67 308l-129 492h54l111 -430l295 430h56l-337 -492l-67 -308h-50z" />
    <glyph glyph-name="uni1EF7" unicode="&#x1ef7;" 
d="M360 655l-7 45q69 18 78 56q3 13 -5.5 21.5t-21.5 8.5q-43 0 -95 -38l9 58q41 26 87 26q39 0 60.5 -23.5t13.5 -60.5q-6 -31 -37 -56t-82 -37zM115 -206q-48 0 -77.5 19.5t-29.5 50.5q0 54 98.5 85t268.5 31q29 49 42 126q-10 -32 -56 -46t-96 -14q-77 0 -118 54t-20 119
q78 239 78 334q0 15 -10 24t-27 9q-25 0 -46 -21l-24 37q32 30 88 30q31 0 50 -16t19 -42q0 -103 -78 -355q-18 -57 8.5 -92t79.5 -35q46 0 76 7t58.5 36.5t39.5 83.5l84 399h50q-38 -180 -55 -260.5t-38.5 -178t-33.5 -140t-21 -59.5q55 0 88 9l-10 -45q-33 -9 -98 -9
q-37 -64 -117 -102.5t-173 -38.5zM127 -160q62 0 123.5 26t98.5 69q-131 -4 -211 -23.5t-80 -47.5q0 -11 19 -17.5t50 -6.5z" />
    <glyph glyph-name="uni1EF8" unicode="&#x1ef8;" 
d="M494 886q-20 0 -38 12t-28.5 26.5t-24.5 26.5t-27 12q-21 0 -31 -13t-16 -40l-49 4q10 44 36 69.5t61 25.5q25 0 45.5 -19.5t38 -38.5t34.5 -19q21 0 31 12.5t15 37.5l49 -4q-9 -42 -35 -67t-61 -25zM209 0l67 308l-129 492h54l111 -430l295 430h56l-337 -492l-67 -308
h-50z" />
    <glyph glyph-name="uni1EF9" unicode="&#x1ef9;" 
d="M455 701q-25 0 -46.5 19.5t-38.5 38.5t-33 19q-21 0 -31 -13t-16 -40l-49 4q10 44 36 69.5t61 25.5q25 0 45.5 -19t38 -38.5t34.5 -19.5q21 0 31 12.5t15 37.5l49 -4q-9 -42 -35 -67t-61 -25zM115 -206q-48 0 -77.5 19.5t-29.5 50.5q0 54 98.5 85t268.5 31q29 49 42 126
q-10 -32 -56 -46t-96 -14q-77 0 -118 54t-20 119q78 239 78 334q0 15 -10 24t-27 9q-25 0 -46 -21l-24 37q32 30 88 30q31 0 50 -16t19 -42q0 -103 -78 -355q-18 -57 8.5 -92t79.5 -35q46 0 76 7t58.5 36.5t39.5 83.5l84 399h50q-38 -180 -55 -260.5t-38.5 -178t-33.5 -140
t-21 -59.5q55 0 88 9l-10 -45q-33 -9 -98 -9q-37 -64 -117 -102.5t-173 -38.5zM127 -160q62 0 123.5 26t98.5 69q-131 -4 -211 -23.5t-80 -47.5q0 -11 19 -17.5t50 -6.5z" />
    <glyph glyph-name="endash" unicode="&#x2013;" 
d="M104 377l10 46h420l-10 -46h-420z" />
    <glyph glyph-name="emdash" unicode="&#x2014;" 
d="M44 377l10 46h540l-10 -46h-540z" />
    <glyph glyph-name="uni2015" unicode="&#x2015;" 
d="M14 377l10 46h600l-10 -46h-600z" />
    <glyph glyph-name="quoteleft" unicode="&#x2018;" 
d="M623 820l-117 -190q42 -7 29 -65q-7 -34 -22.5 -46.5t-52.5 -12.5q-40 0 -52.5 15t-4.5 52q17 78 165 249z" />
    </font>
</defs>
</svg>
