<?xml version="1.0" standalone="no"?>
<!DOCTYPE svg PUBLIC "-//W3C//DTD SVG 1.1//EN" "http://www.w3.org/Graphics/SVG/1.1/DTD/svg11.dtd" >
<svg xmlns="http://www.w3.org/2000/svg" xmlns:xlink="http://www.w3.org/1999/xlink" version="1.1">
<metadata>
Created by FontForge 20170731 at Wed Oct 23 13:48:56 2019
 By Aleksey,,,
Copyright (c) 2019 by Rune Bjrneras. All rights reserved.
</metadata>
<defs>
<font id="VictorMono-Regular" horiz-adv-x="600" >
  <font-face 
    font-family="Victor Mono"
    font-weight="400"
    font-stretch="normal"
    units-per-em="1100"
    panose-1="0 0 5 9 0 0 0 0 0 0"
    ascent="880"
    descent="-220"
    x-height="618"
    cap-height="800"
    bbox="-1775 -340 692.154 1110"
    underline-thickness="50"
    underline-position="-200"
    unicode-range="U+0020-E0B3"
  />
<missing-glyph 
d="M68 0v814h354v-814h-354zM130 57h230v700h-230v-700z" />
    <glyph glyph-name=".notdef" 
d="M68 0v814h354v-814h-354zM130 57h230v700h-230v-700z" />
    <glyph glyph-name=".null" horiz-adv-x="144" 
 />
    <glyph glyph-name="nonmarkingreturn" horiz-adv-x="366" 
 />
    <glyph glyph-name="space" unicode=" " 
 />
    <glyph glyph-name="exclam" unicode="!" 
d="M269 227l-10 573h82l-10 -573h-62zM300 -14q-41 0 -57 15t-16 54q0 38 16 53t57 15t57 -15t16 -53q0 -39 -16 -54t-57 -15z" />
    <glyph glyph-name="quotedbl" unicode="&#x22;" 
d="M148 481l-10 319h82l-10 -319h-62zM390 481l-10 319h82l-10 -319h-62z" />
    <glyph glyph-name="numbersign" unicode="#" 
d="M575 509h-104l-27 -218h111v-58h-118l-29 -233h-62l29 233h-192l-29 -233h-61l29 233h-97v58h104l27 218h-111v58h118l29 233h62l-29 -233h192l29 233h61l-29 -233h97v-58zM382 291l28 218h-192l-28 -218h192z" />
    <glyph glyph-name="dollar" unicode="$" 
d="M530 218q0 -125 -43.5 -176t-156.5 -55v-71h-62v71q-83 3 -127.5 28.5t-76.5 86.5l46 44q23 -53 58 -75.5t100 -26.5v359q-104 38 -144 82t-40 120q0 112 40 158t144 50v76h62v-76q75 -3 117 -25t72 -74l-43 -47q-23 47 -55 66.5t-91 22.5v-312q113 -38 156.5 -87.5
t43.5 -138.5zM146 605q0 -54 26.5 -85t95.5 -56v292q-69 -5 -95.5 -38.5t-26.5 -112.5zM330 44q78 5 108 43.5t30 130.5q0 62 -30 98t-108 66v-338z" />
    <glyph glyph-name="percent" unicode="%" 
d="M157 498q-85 0 -117 32.5t-32 117.5q0 86 32 118.5t117 32.5q86 0 118.5 -32.5t32.5 -118.5q0 -85 -32.5 -117.5t-118.5 -32.5zM157 555q50 0 69.5 20t19.5 73t-19.5 73.5t-69.5 20.5q-49 0 -68 -20.5t-19 -73.5t19 -73t68 -20zM9 90l501 620h81l-501 -620h-81zM441 1
q-85 0 -117 32.5t-32 118.5q0 85 32 117.5t117 32.5q86 0 118.5 -32.5t32.5 -117.5q0 -86 -32.5 -118.5t-118.5 -32.5zM441 58q50 0 69.5 20.5t19.5 73.5t-19.5 73t-69.5 20q-49 0 -68 -20t-19 -73t19 -73.5t68 -20.5z" />
    <glyph glyph-name="ampersand" unicode="&#x26;" 
d="M578 360h-84q-4 -138 -64 -234q83 -79 140 -126h-90q-40 35 -85 78q-84 -92 -211 -92q-76 0 -122.5 48.5t-46.5 127.5q0 50 31.5 112t85.5 121q-85 142 -85 238q0 82 42 131.5t111 49.5q68 0 110 -47t42 -124q0 -63 -33.5 -128.5t-89.5 -110.5q-1 -1 -8.5 -7t-11.5 -10
q67 -103 177 -216q42 78 46 189h-80v58h226v-58zM196 757q-39 0 -63 -33.5t-24 -87.5q0 -82 68 -198l7 6q48 41 77 95.5t29 103.5q0 51 -26 82.5t-68 31.5zM184 43q101 0 167 78q-113 116 -185 222q-89 -99 -89 -180q0 -54 29.5 -87t77.5 -33z" />
    <glyph glyph-name="quotesingle" unicode="'" 
d="M269 481l-10 319h82l-10 -319h-62z" />
    <glyph glyph-name="parenleft" unicode="(" 
d="M446 -145q-128 0 -206.5 150t-78.5 395t78.5 395t206.5 150v-57q-100 0 -161.5 -134t-61.5 -354t61.5 -354t161.5 -134v-57z" />
    <glyph glyph-name="parenright" unicode=")" 
d="M154 -145v57q100 0 161.5 134t61.5 354t-61.5 354t-161.5 134v57q128 0 206.5 -150t78.5 -395t-78.5 -395t-206.5 -150z" />
    <glyph glyph-name="asterisk" unicode="*" 
d="M544 511l-186 -111l186 -110l-32 -49l-181 107v-218h-62v218l-181 -108l-32 50l186 111l-186 110l32 49l181 -107v218h62v-218l181 108z" />
    <glyph glyph-name="plus" unicode="+" 
d="M574 429v-58h-245v-245h-58v245h-245v58h245v245h58v-245h245z" />
    <glyph glyph-name="comma" unicode="," 
d="M191 -202l75 192q-39 9 -39 65q0 38 16 53t57 15t57 -15t16 -53q0 -81 -116 -257h-66z" />
    <glyph glyph-name="hyphen" unicode="-" 
d="M114 371v58h372v-58h-372z" />
    <glyph glyph-name="period" unicode="." 
d="M300 -14q-41 0 -57 15t-16 54q0 38 16 53t57 15t57 -15t16 -53q0 -39 -16 -54t-57 -15z" />
    <glyph glyph-name="slash" unicode="/" 
d="M61 -182l413 1130h65l-413 -1130h-65z" />
    <glyph glyph-name="zero" unicode="0" 
d="M300 -14q-102 0 -170.5 116t-68.5 298t68.5 298t170.5 116t170.5 -116t68.5 -298t-68.5 -298t-170.5 -116zM300 43q74 0 125.5 100.5t51.5 256.5t-51.5 256.5t-125.5 100.5t-125.5 -100.5t-51.5 -256.5t51.5 -256.5t125.5 -100.5zM300 347q-25 0 -40.5 15t-15.5 38
t15.5 37t40.5 14t40.5 -14t15.5 -37t-15.5 -38t-40.5 -15z" />
    <glyph glyph-name="one" unicode="1" 
d="M331 57h142v-57h-346v57h142v586q-61 -58 -162 -58v57q74 0 118 42.5t44 115.5h62v-743z" />
    <glyph glyph-name="two" unicode="2" 
d="M64 0v52q0 41 22.5 81t59 73.5t80 68t87 71t80 75.5t59 88t22.5 103q0 83 -37 114t-138 31t-137.5 -32t-35.5 -118h-62q-1 117 50 162t185 45t185.5 -43.5t51.5 -158.5q0 -60 -22 -115t-57.5 -97t-78.5 -80t-86.5 -70.5t-79.5 -63t-59.5 -63.5t-25.5 -66h407v-57h-470z
" />
    <glyph glyph-name="three" unicode="3" 
d="M300 -14q-128 0 -176.5 44.5t-48.5 159.5h62q0 -85 34 -116t129 -31q93 0 128 36t35 132q0 101 -30.5 139.5t-112.5 43.5h-76v58h76q82 5 112.5 37t30.5 115q0 87 -35 120t-128 33q-95 0 -129 -28.5t-34 -106.5h-62q0 109 48 150.5t177 41.5q127 0 176 -46t49 -164
q0 -76 -20 -115t-73 -66q53 -28 73 -73.5t20 -138.5q0 -127 -49 -176t-176 -49z" />
    <glyph glyph-name="four" unicode="4" 
d="M403 0v213h-345v53l353 534h54v-530h74v-57h-74v-213h-62zM135 270h268v413z" />
    <glyph glyph-name="five" unicode="5" 
d="M300 -14q-132 0 -182 41.5t-50 151.5h62q0 -78 35.5 -107t134.5 -29q104 0 143 42.5t39 157.5t-39 157.5t-143 42.5q-40 0 -73 -13.5t-81 -48.5h-58v419h431v-56h-369v-298q33 30 66 42t84 12q138 0 191 -55.5t53 -201.5q0 -145 -53 -201t-191 -56z" />
    <glyph glyph-name="six" unicode="6" 
d="M300 -14q-132 0 -182 55.5t-50 199.5v299q0 155 50 214.5t182 59.5t182 -45t50 -162h-62q0 87 -35.5 118.5t-134.5 31.5q-98 0 -134 -46.5t-36 -170.5v-113q29 40 66 55.5t104 15.5q132 0 182 -55t50 -201q0 -145 -50 -200.5t-182 -55.5zM300 43q97 0 133.5 42.5
t36.5 156.5q0 115 -36 156.5t-134 41.5t-134 -41.5t-36 -157.5q0 -114 36 -156t134 -42z" />
    <glyph glyph-name="seven" unicode="7" 
d="M154 0q89 354 310 743h-399v57h465v-57q-223 -390 -312 -743h-64z" />
    <glyph glyph-name="eight" unicode="8" 
d="M300 -14q-136 0 -188 50.5t-52 182.5q0 90 23 134.5t83 71.5q-47 27 -65 65t-18 114q0 118 47.5 164t169.5 46t169.5 -46t47.5 -164q0 -76 -18 -114t-65 -65q60 -27 83 -71.5t23 -134.5q0 -132 -52 -182.5t-188 -50.5zM300 452q90 0 122.5 31.5t32.5 120.5q0 87 -33 120
t-122 33t-122 -33t-33 -120q0 -89 32.5 -120.5t122.5 -31.5zM300 43q102 0 140 37.5t38 138.5q0 102 -37.5 138.5t-140.5 36.5t-140.5 -36.5t-37.5 -138.5q0 -101 38 -138.5t140 -37.5z" />
    <glyph glyph-name="nine" unicode="9" 
d="M300 -14q-132 0 -182 45t-50 162h62q0 -87 35.5 -118.5t134.5 -31.5q97 0 133.5 46t36.5 170v114q-29 -40 -66 -55.5t-104 -15.5q-132 0 -182 55t-50 201q0 145 50 200.5t182 55.5t182 -55.5t50 -199.5v-300q0 -155 -50 -214t-182 -59zM300 360q98 0 134 41.5t36 157.5
q0 114 -36 156t-134 42q-97 0 -133.5 -42.5t-36.5 -156.5q0 -115 36 -156.5t134 -41.5z" />
    <glyph glyph-name="colon" unicode=":" 
d="M300 481q-41 0 -57 15t-16 53q0 39 16 54t57 15t57 -15t16 -54q0 -38 -16 -53t-57 -15zM300 -14q-41 0 -57 15t-16 54q0 38 16 53t57 15t57 -15t16 -53q0 -39 -16 -54t-57 -15z" />
    <glyph glyph-name="semicolon" unicode=";" 
d="M300 481q-41 0 -57 15t-16 53q0 39 16 54t57 15t57 -15t16 -54q0 -38 -16 -53t-57 -15zM191 -202l75 192q-39 9 -39 65q0 38 16 53t57 15t57 -15t16 -53q0 -81 -116 -257h-66z" />
    <glyph glyph-name="less" unicode="&#x3c;" 
d="M482 42l-408 358l408 358l41 -42l-358 -316l358 -316z" />
    <glyph glyph-name="equal" unicode="=" 
d="M26 491v58h548v-58h-548zM26 251v58h548v-58h-548z" />
    <glyph glyph-name="greater" unicode="&#x3e;" 
d="M118 42l-41 42l358 316l-358 316l41 42l408 -358z" />
    <glyph glyph-name="question" unicode="?" 
d="M267 236q0 43 11.5 73.5t29.5 47.5t40 31.5t44.5 30.5t40.5 38t29.5 61.5t11.5 93.5q0 83 -37 114t-138 31t-137.5 -32t-35.5 -118h-62q-1 117 50 162t185 45t185.5 -43.5t51.5 -158.5q0 -83 -21.5 -137.5t-52 -78.5t-60.5 -42t-51.5 -45.5t-21.5 -72.5h-62zM300 -14
q-41 0 -57 15t-16 54q0 38 16 53t57 15t57 -15t16 -53q0 -39 -16 -54t-57 -15z" />
    <glyph glyph-name="at" unicode="@" 
d="M300 -1q-167 0 -231.5 91t-64.5 329q0 217 64.5 299.5t231.5 82.5t231.5 -82.5t64.5 -299.5q0 -149 -24 -205.5t-88 -56.5q-29 0 -44.5 12.5t-24.5 43.5q-21 -37 -47 -51t-70 -14q-84 0 -117 35.5t-33 126.5v157q0 104 33 144.5t117 40.5q86 0 120 -40.5t34 -144.5v-174
q0 -46 7 -62.5t25 -16.5q28 0 39 44.5t11 160.5q0 186 -50.5 255.5t-183.5 69.5t-183.5 -69.5t-50.5 -255.5q0 -207 50.5 -285t183.5 -78q30 0 51 8.5t49 33.5l29 -51q-65 -48 -129 -48zM298 205q52 0 72 29.5t20 108.5v124q0 74 -20 101t-72 27q-50 0 -69 -27t-19 -101
v-157q0 -61 19 -83t69 -22z" />
    <glyph glyph-name="A" unicode="A" 
d="M492 0l-57 210h-270l-57 -210h-64l222 800h68l222 -800h-64zM181 268h238l-119 434z" />
    <glyph glyph-name="B" unicode="B" 
d="M88 0v800h196q125 0 173 -44t48 -157q0 -74 -20.5 -110.5t-73.5 -59.5q68 -22 93.5 -65.5t25.5 -136.5q0 -128 -48 -177.5t-173 -49.5h-221zM150 452h134q92 0 125.5 30.5t33.5 116.5q0 83 -34 113.5t-125 30.5h-134v-291zM150 57h159q91 0 125 36.5t34 133.5t-33.5 132
t-125.5 35h-159v-337z" />
    <glyph glyph-name="C" unicode="C" 
d="M315 -14q-140 0 -193.5 90.5t-53.5 324.5t53.5 323.5t193.5 89.5q93 0 140 -37t77 -134l-59 -21q-25 78 -58 106.5t-100 28.5q-105 0 -145 -76.5t-40 -279.5q0 -204 40 -281t145 -77q67 0 100 27.5t58 104.5l59 -20q-30 -96 -76.5 -132.5t-140.5 -36.5z" />
    <glyph glyph-name="D" unicode="D" 
d="M313 800q133 0 183.5 -87t50.5 -313t-50.5 -313t-183.5 -87h-234v800h234zM313 57q98 0 135 74t37 269t-37 269t-135 74h-172v-686h172z" />
    <glyph glyph-name="E" unicode="E" 
d="M532 743h-374v-291h240v-58h-240v-337h374v-57h-436v800h436v-57z" />
    <glyph glyph-name="F" unicode="F" 
d="M533 743h-374v-337h240v-58h-240v-348h-62v800h436v-57z" />
    <glyph glyph-name="G" unicode="G" 
d="M319 -14q-146 0 -201 89t-55 325t55 325t201 89q101 0 150 -40.5t78 -148.5l-59 -15q-23 83 -59.5 115t-109.5 32q-110 0 -152 -76.5t-42 -280.5t42 -280.5t152 -76.5q66 0 100 25.5t58 93.5v186h-174v58h236v-252q-31 -96 -78 -132t-142 -36z" />
    <glyph glyph-name="H" unicode="H" 
d="M460 800h62v-800h-62v394h-320v-394h-62v800h62v-348h320v348z" />
    <glyph glyph-name="I" unicode="I" 
d="M493 743h-162v-686h162v-57h-386v57h162v686h-162v57h386v-57z" />
    <glyph glyph-name="J" unicode="J" 
d="M264 -14q-94 0 -140.5 36t-75.5 132l58 16q23 -74 56 -100.5t102 -26.5q105 0 144.5 66.5t39.5 244.5v389h-131v57h193v-446q0 -209 -53.5 -288.5t-192.5 -79.5z" />
    <glyph glyph-name="K" unicode="K" 
d="M494 0l-270 394h-78v-394h-62v800h62v-348h54l287 348h77l-297 -360l301 -440h-74z" />
    <glyph glyph-name="L" unicode="L" 
d="M115 0v800h62v-743h335v-57h-397z" />
    <glyph glyph-name="M" unicode="M" 
d="M54 0l14 800h61l171 -449l171 449h61l14 -800h-62l-12 642l-143 -386h-58l-143 386l-12 -642h-62z" />
    <glyph glyph-name="N" unicode="N" 
d="M458 800h62v-800h-67l-311 667v-667h-62v800h67l311 -667v667z" />
    <glyph glyph-name="O" unicode="O" 
d="M300 -14q-135 0 -187 81.5t-52 292.5v80q0 211 52 292.5t187 81.5t187 -81.5t52 -292.5v-80q0 -211 -52 -292.5t-187 -81.5zM300 43q101 0 139 68t38 249v80q0 181 -38 249t-139 68q-102 0 -140 -68t-37 -249v-80q1 -181 39 -249t138 -68z" />
    <glyph glyph-name="P" unicode="P" 
d="M320 800q125 0 173 -49.5t48 -176.5q0 -129 -48 -177.5t-173 -48.5h-158v-348h-62v800h220zM320 405q91 0 125 35.5t34 133.5q0 97 -34 133t-125 36h-158v-338h158z" />
    <glyph glyph-name="Q" unicode="Q" 
d="M420 -111q27 0 88.5 15t92.5 14v-57q-32 1 -86.5 -14t-94.5 -15q-47 0 -105.5 29.5t-107.5 29.5h-34v58q57 -1 90 38q-113 10 -157.5 93t-44.5 280v80q0 211 52 292.5t187 81.5t187 -81.5t52 -292.5v-80q0 -198 -45 -281t-160 -92q-12 -37 -36 -54q8 -2 52 -23t70 -21z
M123 360q1 -181 39 -249t138 -68q101 0 139 68t38 249v80q0 181 -38 249t-139 68q-102 0 -140 -68t-37 -249v-80z" />
    <glyph glyph-name="R" unicode="R" 
d="M485 0l-230 348h-101v-348h-62v800h220q125 0 173 -49.5t48 -176.5q0 -125 -45 -174t-161 -52l230 -348h-72zM154 743v-338h158q91 0 125 35.5t34 133.5q0 97 -34 133t-125 36h-158z" />
    <glyph glyph-name="S" unicode="S" 
d="M300 -14q-100 0 -151 25t-85 91l46 44q26 -59 66 -81t124 -22q96 0 132 37.5t36 137.5q0 69 -36 105.5t-134 69.5q-122 40 -168 85t-46 127q0 118 47 163.5t169 45.5q91 0 138.5 -22t80.5 -78l-43 -47q-26 52 -62.5 71t-113.5 19q-89 0 -121.5 -32.5t-32.5 -119.5
q0 -60 32.5 -91.5t123.5 -60.5q130 -40 179 -90t49 -145q0 -131 -50 -181.5t-180 -50.5z" />
    <glyph glyph-name="T" unicode="T" 
d="M574 800v-57h-243v-743h-62v743h-243v57h548z" />
    <glyph glyph-name="U" unicode="U" 
d="M300 -14q-124 0 -171 67.5t-47 242.5v504h62v-504q0 -145 33.5 -199t122.5 -54t122.5 54t33.5 199v504h62v-504q0 -175 -47 -242.5t-171 -67.5z" />
    <glyph glyph-name="V" unicode="V" 
d="M267 0l-221 800h67l187 -687l187 687h67l-221 -800h-66z" />
    <glyph glyph-name="W" unicode="W" 
d="M137 0l-109 800h63l86 -652l93 394h60l93 -394l86 652h63l-109 -800h-61l-102 420l-101 -420h-62z" />
    <glyph glyph-name="X" unicode="X" 
d="M549 800l-214 -400l214 -400h-69l-180 336l-180 -336h-69l215 400l-215 400h69l180 -336l180 336h69z" />
    <glyph glyph-name="Y" unicode="Y" 
d="M269 0v304l-236 496h68l199 -418l199 418h68l-236 -496v-304h-62z" />
    <glyph glyph-name="Z" unicode="Z" 
d="M53 0v48l419 695h-417v57h492v-49l-419 -694h417v-57h-492z" />
    <glyph glyph-name="bracketleft" unicode="[" 
d="M466 888h-230v-976h230v-57h-292v1090h292v-57z" />
    <glyph glyph-name="backslash" unicode="\" 
d="M474 -182l-413 1130h65l413 -1130h-65z" />
    <glyph glyph-name="bracketright" unicode="]" 
d="M144 945h292v-1090h-292v57h230v976h-230v57z" />
    <glyph glyph-name="asciicircum" unicode="^" 
d="M491 568l-191 172l-192 -170l-47 37l239 213l239 -215z" />
    <glyph glyph-name="underscore" unicode="_" 
d="M24 -182v57h552v-57h-552z" />
    <glyph glyph-name="grave" unicode="`" 
d="M374 626l-192 176l44 46l192 -176z" />
    <glyph glyph-name="a" unicode="a" 
d="M274 -14q-121 0 -167.5 40t-46.5 143q0 109 46.5 150t167.5 41h152v57q0 89 -32.5 122.5t-119.5 33.5q-64 0 -93.5 -21.5t-46.5 -80.5l-59 15q23 82 66 114t133 32q121 0 167.5 -47.5t46.5 -167.5v-258q0 -61 16.5 -82t61.5 -20v-57q-56 -1 -82.5 16t-36.5 61
q-28 -52 -65.5 -71.5t-107.5 -19.5zM274 43q87 0 119.5 37.5t32.5 137.5v84h-152q-88 0 -120 -27.5t-32 -105.5q0 -72 32 -99t120 -27z" />
    <glyph glyph-name="b" unicode="b" 
d="M312 -14q-80 0 -127 19.5t-88 70.5v724h62v-242q39 74 153 74q121 0 167.5 -70.5t46.5 -253.5q0 -182 -46.5 -252t-167.5 -70zM312 43q87 0 119.5 56.5t32.5 208.5t-32.5 209.5t-119.5 57.5q-88 0 -120.5 -35.5t-32.5 -131.5v-313q30 -30 62.5 -41t90.5 -11z" />
    <glyph glyph-name="c" unicode="c" 
d="M318 -14q-137 0 -189 70.5t-52 252.5t53 252.5t192 70.5q75 0 118.5 -23.5t84.5 -85.5l-52 -31q-33 48 -64.5 65.5t-86.5 17.5q-105 0 -144 -57t-39 -209t38 -209t141 -57q55 0 87.5 18t67.5 66l52 -31q-42 -62 -86.5 -86t-120.5 -24z" />
    <glyph glyph-name="d" unicode="d" 
d="M295 -14q-125 0 -173 70t-48 252q0 183 48 253.5t173 70.5q121 0 160 -78v246h62v-800h-62v44q-40 -58 -160 -58zM295 43q160 0 160 83v284q0 165 -160 165q-91 0 -125 -57.5t-34 -209.5q0 -151 34 -208t125 -57z" />
    <glyph glyph-name="e" unicode="e" 
d="M303 632q127 0 175 -72t47 -258h-398q1 -147 39.5 -203t136.5 -56q58 0 92 17.5t72 65.5l49 -33q-44 -61 -89.5 -84t-123.5 -23q-135 0 -186.5 70.5t-51.5 252.5t51.5 252.5t186.5 70.5zM128 360h334q-8 122 -42 168.5t-117 46.5q-94 0 -132.5 -46.5t-42.5 -168.5z" />
    <glyph glyph-name="f" unicode="f" 
d="M382 814q83 0 121.5 -21t58.5 -77l-58 -20q-13 36 -38 48.5t-84 12.5q-77 0 -105.5 -32.5t-28.5 -120.5v-106h178v-58h-178v-440h-62v440h-124v58h124v106q0 119 42.5 164.5t153.5 45.5z" />
    <glyph glyph-name="g" unicode="g" 
d="M298 -196q-58 0 -92 13t-66 48l45 38q24 -24 47.5 -33t65.5 -9q88 0 120.5 38.5t32.5 141.5v80q-39 -77 -160 -77q-125 0 -173 70.5t-48 255.5q0 147 48 204.5t173 57.5q120 0 160 -58v44h62v-568q0 -139 -46.5 -192.5t-168.5 -53.5zM291 101q160 0 160 164v227
q0 83 -160 83q-91 0 -125 -44t-34 -161q0 -154 34 -211.5t125 -57.5z" />
    <glyph glyph-name="h" unicode="h" 
d="M98 0v800h62v-236q32 68 150 68q121 0 167 -68t46 -246v-318h-62v318q0 147 -32.5 202t-118.5 55q-88 0 -119 -33.5t-31 -133.5v-408h-62z" />
    <glyph glyph-name="i" unicode="i" 
d="M310 729q-41 0 -57 15t-16 53t16.5 53.5t56.5 15.5t56.5 -15.5t16.5 -53.5t-16 -53t-57 -15zM357 57h175v-57h-412v57h175v504h-126v57h188v-561z" />
    <glyph glyph-name="j" unicode="j" 
d="M400 729q-41 0 -57 15t-16 53t16.5 53.5t56.5 15.5t56.5 -15.5t16.5 -53.5t-16 -53t-57 -15zM238 -196q-58 0 -92 13t-66 48l45 38q24 -24 47.5 -33t65.5 -9q88 0 120.5 40.5t32.5 151.5v508h-126v57h188v-565q0 -141 -46.5 -195t-168.5 -54z" />
    <glyph glyph-name="k" unicode="k" 
d="M120 0v800h62v-440h43l201 258h75l-221 -285l261 -333h-75l-237 302h-47v-302h-62z" />
    <glyph glyph-name="l" unicode="l" 
d="M406 -14q-90 0 -123.5 48.5t-33.5 177.5v531h-126v57h188v-588q0 -96 20.5 -132.5t74.5 -36.5q37 0 86 41l36 -54q-69 -44 -122 -44z" />
    <glyph glyph-name="m" unicode="m" 
d="M52 0v618h62v-46q20 34 40.5 46.5t57.5 12.5q38 0 58 -18t35 -67q25 49 52 67t72 18q68 0 93.5 -49.5t25.5 -181.5v-400h-62v400q0 94 -13.5 129.5t-49.5 35.5q-52 0 -72 -35.5t-20 -128.5v-401h-62v394q0 97 -14 134t-49 37q-53 0 -72.5 -35t-19.5 -129v-401h-62z" />
    <glyph glyph-name="n" unicode="n" 
d="M92 0v618h62v-55q29 37 67.5 53t106.5 16q109 0 150 -50.5t41 -184.5v-397h-62v397q0 101 -28 139.5t-101 38.5q-103 0 -138.5 -33t-35.5 -134v-408h-62z" />
    <glyph glyph-name="o" unicode="o" 
d="M300 -14q-125 0 -173 70.5t-48 252.5t48 252.5t173 70.5t173 -70.5t48 -252.5t-48 -252.5t-173 -70.5zM300 43q91 0 125 57t34 209t-34 209t-125 57t-125 -57t-34 -209t34 -209t125 -57z" />
    <glyph glyph-name="p" unicode="p" 
d="M85 -182v800h62v-44q40 58 160 58q125 0 173 -70t48 -252q0 -183 -48 -253.5t-173 -70.5q-121 0 -160 78v-246h-62zM307 43q91 0 125 57.5t34 209.5q0 151 -34 208t-125 57q-160 0 -160 -83v-284q0 -165 160 -165z" />
    <glyph glyph-name="q" unicode="q" 
d="M453 -182v246q-39 -78 -160 -78q-125 0 -173 70.5t-48 253.5q0 182 48 252t173 70q120 0 160 -58v44h62v-800h-62zM293 43q160 0 160 165v284q0 83 -160 83q-91 0 -125 -57t-34 -208q0 -152 34 -209.5t125 -57.5z" />
    <glyph glyph-name="r" unicode="r" 
d="M119 0v618h62v-108q18 49 65 85.5t106 36.5q72 0 110.5 -27t67.5 -98l-55 -25q-20 53 -46 73t-77 20q-46 0 -81 -22.5t-53.5 -58t-27.5 -71.5t-9 -71v-352h-62z" />
    <glyph glyph-name="s" unicode="s" 
d="M275 -14q-73 0 -113 23t-73 84l48 40q26 -52 54.5 -71t83.5 -19q110 0 151 27t41 99q0 63 -34 89t-129 37q-113 14 -159.5 52.5t-46.5 109.5q0 99 49.5 137t177.5 38q76 0 117.5 -19.5t75.5 -70.5l-44 -44q-27 45 -58 61t-91 16q-95 0 -130 -25t-35 -93q0 -43 33 -67.5
t113 -34.5q128 -17 175.5 -56.5t47.5 -129.5q0 -103 -55.5 -143t-198.5 -40z" />
    <glyph glyph-name="t" unicode="t" 
d="M365 -14q-98 0 -137 51t-39 173v353h-124v57h124v180h62v-180h208v-57h-208v-353q0 -91 25 -129t89 -38q52 0 75 13t37 48l58 -20q-20 -56 -56.5 -77t-113.5 -21z" />
    <glyph glyph-name="u" unicode="u" 
d="M283 -14q-109 0 -150 49.5t-41 180.5v402h62v-402q0 -100 27.5 -136.5t101.5 -36.5q100 0 137 31t37 115v429h62v-618h-62v50q-28 -36 -66 -50t-108 -14z" />
    <glyph glyph-name="v" unicode="v" 
d="M267 0l-207 618h63l176 -519l176 519h64l-208 -618h-64z" />
    <glyph glyph-name="w" unicode="w" 
d="M139 0l-107 618h63l83 -495l92 301h60l91 -301l84 495h63l-108 -618h-60l-100 323l-101 -323h-60z" />
    <glyph glyph-name="x" unicode="x" 
d="M525 618l-189 -309l189 -309h-71l-154 251l-154 -251h-71l190 309l-190 309h71l154 -251l154 251h71z" />
    <glyph glyph-name="y" unicode="y" 
d="M134 -196q-55 0 -97 29l24 52q42 -24 73 -24q63 0 96.5 30t60.5 112l-200 615h65l168 -527l170 527h65l-204 -616q-38 -112 -85.5 -155t-135.5 -43z" />
    <glyph glyph-name="z" unicode="z" 
d="M95 0v38l324 523h-323v57h407v-38l-324 -523h325v-57h-409z" />
    <glyph glyph-name="braceleft" unicode="{" 
d="M484 -145q-117 0 -173.5 46t-56.5 156q0 30 9 90t9 82q0 55 -160 171q160 115 160 175q0 21 -9 76.5t-9 90.5q0 110 56.5 156.5t173.5 46.5v-57q-85 0 -127 -34t-42 -116q0 -36 9.5 -84t9.5 -69q0 -97 -127 -185q64 -44 95.5 -86.5t31.5 -94.5q0 -21 -9 -71t-9 -88
q0 -81 41.5 -114.5t126.5 -33.5v-57z" />
    <glyph glyph-name="bar" unicode="|" 
d="M269 -182v1130h62v-1130h-62z" />
    <glyph glyph-name="braceright" unicode="}" 
d="M116 -145v57q85 0 126.5 33.5t41.5 114.5q0 38 -9 88t-9 71q0 52 31.5 94.5t95.5 86.5q-127 88 -127 185q0 21 9.5 69t9.5 84q0 82 -42 116t-127 34v57q117 0 173.5 -46.5t56.5 -156.5q0 -35 -9 -90.5t-9 -76.5q0 -60 160 -175q-160 -116 -160 -171q0 -22 9 -82t9 -90
q0 -110 -56.5 -156t-173.5 -46z" />
    <glyph glyph-name="asciitilde" unicode="~" 
d="M418 311q-65 0 -139 68q-57 52 -97 52q-42 0 -64 -22t-20 -60h-62q-2 62 38 101t108 39q65 0 139 -68q57 -52 97 -52q42 0 64 22t20 60h62q2 -62 -38 -101t-108 -39z" />
    <glyph glyph-name="uni00A0" unicode="&#xa0;" 
 />
    <glyph glyph-name="exclamdown" unicode="&#xa1;" 
d="M300 481q-41 0 -57 15t-16 53q0 39 16 54t57 15t57 -15t16 -54q0 -38 -16 -53t-57 -15zM259 -182l10 570h62l10 -570h-82z" />
    <glyph glyph-name="cent" unicode="&#xa2;" 
d="M341 44q44 3 72.5 21.5t59.5 61.5l52 -31q-39 -58 -79.5 -82t-104.5 -27v-63h-62v63q-113 9 -157.5 81t-44.5 241q0 168 44.5 240t157.5 81v62h62v-60q65 -3 105.5 -27t78.5 -82l-52 -31q-30 44 -58.5 62t-73.5 21v-531zM139 309q0 -138 30.5 -196.5t109.5 -67.5v528
q-79 -10 -109.5 -68.5t-30.5 -195.5z" />
    <glyph glyph-name="sterling" unicode="&#xa3;" 
d="M202 57h334v-57h-454l-10 54q78 25 106.5 56.5t28.5 91.5q0 36 -32 113q-15 40 -20 57h-82v58h67q-6 39 -6 86q0 169 57.5 232.5t209.5 63.5q49 0 77 -8.5t54 -30.5l-36 -46q-20 17 -39.5 22.5t-55.5 5.5q-118 0 -161.5 -50.5t-43.5 -188.5q0 -51 7 -86h202v-58h-186
q4 -11 14 -35q36 -87 36 -135q0 -54 -14.5 -85.5t-52.5 -59.5z" />
    <glyph glyph-name="currency" unicode="&#xa4;" 
d="M508 308q0 -84 -51 -140l86 -88l-43 -40l-90 92q-47 -26 -110 -26t-110 26l-90 -92l-43 40l86 88q-51 56 -51 140t51 140l-86 88l43 40l90 -92q47 26 110 26t110 -26l90 92l43 -40l-86 -88q51 -56 51 -140zM154 308q0 -65 40 -104.5t106 -39.5t106 39.5t40 104.5
t-40 104.5t-106 39.5t-106 -39.5t-40 -104.5z" />
    <glyph glyph-name="yen" unicode="&#xa5;" 
d="M567 800l-208 -437h127v-57h-154l-1 -2v-79h155v-57h-155v-168h-62v168h-155v57h155v79l-1 2h-154v57h127l-208 437h68l199 -418l199 418h68z" />
    <glyph glyph-name="brokenbar" unicode="&#xa6;" 
d="M269 475v473h62v-473h-62zM269 -182v473h62v-473h-62z" />
    <glyph glyph-name="section" unicode="&#xa7;" 
d="M438 147q76 -41 76 -159q0 -105 -46.5 -144.5t-167.5 -39.5q-79 0 -121 23t-75 84l48 40q26 -52 57 -71t91 -19q88 0 120 26t32 101q0 67 -33.5 96.5t-116.5 29.5h-8q-191 3 -191 185q0 128 59 172q-76 41 -76 159q0 105 46.5 144.5t167.5 39.5q79 0 121 -23t75 -84
l-48 -40q-26 52 -57 71t-91 19q-88 0 -120 -26t-32 -101q0 -67 33.5 -96.5t116.5 -29.5h8q191 -3 191 -185q0 -128 -59 -172zM165 299q0 -126 135 -126h2q76 1 104.5 32.5t28.5 113.5q0 126 -135 126h-2q-76 -1 -104.5 -32.5t-28.5 -113.5z" />
    <glyph glyph-name="dieresis" unicode="&#xa8;" 
d="M192 726q-34 0 -47.5 12.5t-13.5 44.5q0 31 13.5 43.5t47.5 12.5t47.5 -12.5t13.5 -43.5q0 -32 -13.5 -44.5t-47.5 -12.5zM408 726q-34 0 -47.5 12.5t-13.5 44.5q0 31 13.5 43.5t47.5 12.5t47.5 -12.5t13.5 -43.5q0 -32 -13.5 -44.5t-47.5 -12.5z" />
    <glyph glyph-name="copyright" unicode="&#xa9;" 
d="M300 26q-131 0 -211 90.5t-80 238.5t80 238.5t211 90.5t211 -90.5t80 -238.5t-80 -238.5t-211 -90.5zM300 84q103 0 166 74.5t63 196.5t-63 196.5t-166 74.5t-166 -74.5t-63 -196.5t63 -196.5t166 -74.5zM300 159q-82 0 -114 42t-32 153q0 110 32 152t114 42
q55 0 81.5 -12.5t43.5 -45.5l-53 -36q-12 23 -26 30t-46 7q-48 0 -66 -29t-18 -108q0 -80 18 -109t66 -29q29 0 42.5 6t27.5 26l51 -40q-20 -28 -46 -38.5t-75 -10.5z" />
    <glyph glyph-name="ordfeminine" unicode="&#xaa;" 
d="M286 360q-91 0 -125.5 28t-34.5 104q0 70 34.5 96.5t125.5 26.5h97v44q0 56 -21 77t-76 21q-39 0 -58.5 -14.5t-30.5 -53.5l-61 10q18 66 50 90.5t100 24.5q91 0 125 -33.5t34 -121.5v-204q0 -15 8 -21t30 -7v-58q-40 -1 -59 10.5t-27 41.5q-20 -35 -44 -48t-67 -13z
M286 417q56 0 76.5 22.5t20.5 83.5v43h-97q-56 0 -77 -16t-21 -58q0 -43 21 -59t77 -16zM119 216v57h372v-57h-372z" />
    <glyph glyph-name="guillemotleft" unicode="&#xab;" 
d="M236 173l-182 227l182 227h76l-182 -227l182 -227h-76zM475 173l-182 227l182 227h76l-182 -227l182 -227h-76z" />
    <glyph glyph-name="logicalnot" unicode="&#xac;" 
d="M483 281v181h-403v57h465v-238h-62z" />
    <glyph glyph-name="uni00AD" unicode="&#xad;" 
d="M114 371v58h372v-58h-372z" />
    <glyph glyph-name="registered" unicode="&#xae;" 
d="M300 814q109 0 183.5 -75.5t74.5 -186.5t-74 -186t-184 -75t-184 75t-74 186t74.5 186.5t183.5 75.5zM300 348q83 0 139.5 59t56.5 145q0 87 -56.5 146t-139.5 59t-139.5 -59t-56.5 -146q0 -86 56.5 -145t139.5 -59zM415 605q0 -29 -16.5 -54t-46.5 -38l68 -111h-73
l-61 99h-30v-99h-62v306h100q121 0 121 -103zM256 651v-93h38q28 0 43.5 14t15.5 33t-15.5 32.5t-43.5 13.5h-38z" />
    <glyph glyph-name="macron" unicode="&#xaf;" 
d="M157 718v58h286v-58h-286z" />
    <glyph glyph-name="degree" unicode="&#xb0;" 
d="M300 463q-83 0 -134 48t-51 127t51 127.5t134 48.5t134 -48.5t51 -127.5t-51 -127t-134 -48zM300 520q55 0 89 32.5t34 85.5t-34 86t-89 33t-89 -33t-34 -86t34 -85.5t89 -32.5z" />
    <glyph glyph-name="plusminus" unicode="&#xb1;" 
d="M329 493h245v-57h-245v-197h-58v197h-245v57h245v197h58v-197zM26 109v57h548v-57h-548z" />
    <glyph glyph-name="uni00B2" unicode="&#xb2;" 
d="M169 424v38q0 31 21 60t51.5 52.5t60.5 48t51 55.5t21 65q0 36 -14.5 48t-59.5 12q-48 0 -61.5 -14.5t-11.5 -61.5l-58 1q-3 72 26 100.5t105 28.5q73 0 102.5 -25.5t29.5 -88.5q0 -41 -18 -76.5t-45.5 -61t-55.5 -47t-51.5 -42.5t-30.5 -38h200v-54h-262z" />
    <glyph glyph-name="uni00B3" unicode="&#xb3;" 
d="M300 417q-73 0 -100.5 28.5t-24.5 99.5l58 -1q-2 -45 10.5 -59t56.5 -14q41 0 55 14t14 57q0 45 -12 61t-47 19h-51v54l51 -1q36 3 47.5 15t11.5 49q0 39 -14 51.5t-55 12.5q-45 0 -56.5 -12.5t-10.5 -55.5l-58 1q-3 68 24.5 94.5t100.5 26.5q69 0 98 -27t29 -91t-37 -90
q37 -30 37 -107q0 -68 -29 -96.5t-98 -28.5z" />
    <glyph glyph-name="acute" unicode="&#xb4;" 
d="M226 626l-44 46l192 176l44 -46z" />
    <glyph glyph-name="uni00B5" unicode="&#xb5;" 
d="M85 -182v800h62v-437q4 -78 33.5 -108t100.5 -30q64 0 121 42.5t57 111.5v421h62v-618h-62v73q-23 -43 -71.5 -65t-106.5 -22q-91 0 -134 33v-201h-62z" />
    <glyph glyph-name="paragraph" unicode="&#xb6;" 
d="M314 0v408h-88q-91 0 -126 42t-35 154q0 110 35 153t126 43h150v-800h-62zM424 0v800h62v-800h-62z" />
    <glyph glyph-name="periodcentered" unicode="&#xb7;" 
d="M300 331q-40 0 -56.5 15.5t-16.5 53.5t16.5 53.5t56.5 15.5t56.5 -15.5t16.5 -53.5t-16.5 -53.5t-56.5 -15.5z" />
    <glyph glyph-name="cedilla" unicode="&#xb8;" 
d="M300 -207q-59 0 -92 33l27 54q25 -30 65 -30q22 0 35.5 9t13.5 23q0 29 -74 27v96h62v-40q33 -2 53.5 -24.5t20.5 -58.5q0 -40 -30.5 -64.5t-80.5 -24.5z" />
    <glyph glyph-name="uni00B9" unicode="&#xb9;" 
d="M330 478h71v-54h-200v54h71v256q-35 -20 -82 -16l1 53q41 -5 62.5 17t17.5 62h59v-372z" />
    <glyph glyph-name="ordmasculine" unicode="&#xba;" 
d="M300 360q-98 0 -134.5 48.5t-36.5 178.5t36.5 178.5t134.5 48.5t134.5 -48.5t36.5 -178.5t-36.5 -178.5t-134.5 -48.5zM300 417q62 0 85.5 36.5t23.5 133.5t-23.5 133.5t-85.5 36.5t-85.5 -36.5t-23.5 -133.5t23.5 -133.5t85.5 -36.5zM114 216v57h372v-57h-372z" />
    <glyph glyph-name="guillemotright" unicode="&#xbb;" 
d="M49 173l182 227l-182 227h76l182 -227l-182 -227h-76zM288 173l182 227l-182 227h76l182 -227l-182 -227h-76z" />
    <glyph glyph-name="onequarter" unicode="&#xbc;" 
d="M35 478h71v256q-35 -20 -82 -16l1 53q41 -5 62.5 17t17.5 62h59v-372h71v-54h-200v54zM446 800h61l-353 -800h-61zM512 111h37v-53h-37v-108h-58v108h-173v42l182 276h49v-265zM454 111v149l-97 -149h97z" />
    <glyph glyph-name="onehalf" unicode="&#xbd;" 
d="M35 478h71v256q-35 -20 -82 -16l1 53q41 -5 62.5 17t17.5 62h59v-372h71v-54h-200v54zM446 800h61l-353 -800h-61zM594 269q0 -41 -18 -76.5t-45.5 -61t-55.5 -47t-51.5 -42.5t-30.5 -38h200v-54h-262v38q0 31 21 60t51.5 52.5t60.5 48t51 55.5t21 65q0 36 -14.5 48
t-59.5 12q-48 0 -61.5 -14.5t-11.5 -61.5l-58 1q-3 72 26 100.5t105 28.5q73 0 102.5 -25.5t29.5 -88.5z" />
    <glyph glyph-name="threequarters" unicode="&#xbe;" 
d="M130 417q-73 0 -100.5 28.5t-24.5 99.5l58 -1q-2 -45 10.5 -59t56.5 -14q41 0 55 14.5t14 56.5q0 45 -12 61t-47 19h-51v54l51 -1q36 3 47.5 15t11.5 49q0 39 -14 51.5t-55 12.5q-45 0 -57 -12.5t-10 -55.5l-58 1q-3 68 24.5 94.5t100.5 26.5q69 0 98 -27t29 -91
q0 -63 -37 -90q37 -30 37 -107q0 -68 -29 -96.5t-98 -28.5zM93 0l353 800h61l-353 -800h-61zM454 -50v108h-173v42l182 276h49v-265h37v-53h-37v-108h-58zM357 111h97v149z" />
    <glyph glyph-name="questiondown" unicode="&#xbf;" 
d="M300 495q-41 0 -57 15t-16 53q0 39 16 54t57 15t57 -15t16 -54q0 -38 -16 -53t-57 -15zM301 -196q-134 0 -185.5 43.5t-51.5 158.5q0 83 21.5 138t52 80.5t60.5 44.5t51.5 47.5t21.5 73.5h62q0 -43 -11.5 -74t-29.5 -49t-40 -33t-44.5 -32t-40.5 -40t-29.5 -62.5
t-11.5 -93.5q0 -83 37 -114t138 -31t137.5 32t35.5 118h62q1 -117 -50 -162t-185 -45z" />
    <glyph glyph-name="Agrave" unicode="&#xc0;" 
d="M351 912l-41 -44l-143 126l41 43zM492 0l-57 210h-270l-57 -210h-64l222 800h68l222 -800h-64zM181 268h238l-119 434z" />
    <glyph glyph-name="Aacute" unicode="&#xc1;" 
d="M433 994l-143 -126l-41 44l143 125zM492 0l-57 210h-270l-57 -210h-64l222 800h68l222 -800h-64zM181 268h238l-119 434z" />
    <glyph glyph-name="Acircumflex" unicode="&#xc2;" 
d="M300 945l-92 -80l-47 37l139 123l139 -125l-48 -37zM492 0l-57 210h-270l-57 -210h-64l222 800h68l222 -800h-64zM181 268h238l-119 434z" />
    <glyph glyph-name="Atilde" unicode="&#xc3;" 
d="M209 909h-63q-2 48 22.5 78t64.5 30q29 0 74 -38.5t60 -38.5q17 0 21.5 11.5t2.5 36.5h63q2 -47 -22.5 -76t-64.5 -29q-30 0 -75 38.5t-59 38.5q-17 0 -21.5 -12.5t-2.5 -38.5zM492 0l-57 210h-270l-57 -210h-64l222 800h68l222 -800h-64zM181 268h238l-119 434z" />
    <glyph glyph-name="Adieresis" unicode="&#xc4;" 
d="M192 911q-34 0 -47.5 12.5t-13.5 44.5q0 31 13.5 43.5t47.5 12.5t47.5 -12.5t13.5 -43.5q0 -32 -13.5 -44.5t-47.5 -12.5zM408 911q-34 0 -47.5 12.5t-13.5 44.5q0 31 13.5 43.5t47.5 12.5t47.5 -12.5t13.5 -43.5q0 -32 -13.5 -44.5t-47.5 -12.5zM492 0l-57 210h-270
l-57 -210h-64l222 800h68l222 -800h-64zM181 268h238l-119 434z" />
    <glyph glyph-name="Aring" unicode="&#xc5;" 
d="M492 0l-57 210h-270l-57 -210h-64l208 751q-45 7 -64 34t-19 83q0 68 28.5 94.5t101.5 26.5q75 0 103.5 -26.5t28.5 -94.5q0 -56 -18.5 -83t-64.5 -34l208 -751h-64zM231 868q0 -36 14.5 -49.5t53.5 -13.5q41 0 55.5 13.5t14.5 49.5q0 37 -14.5 50.5t-55.5 13.5
q-39 0 -53.5 -13.5t-14.5 -50.5zM181 268h238l-119 434z" />
    <glyph glyph-name="AE" unicode="&#xc6;" 
d="M588 743h-222v-337h145v-58h-145v-291h222v-57h-284v256h-166l-68 -256h-64l212 800h370v-57zM153 314h151v429h-37z" />
    <glyph glyph-name="Ccedilla" unicode="&#xc7;" 
d="M315 43q67 0 100 27.5t58 104.5l59 -20q-29 -92 -72.5 -129t-128.5 -40v-21q33 -2 53.5 -24.5t20.5 -58.5q0 -40 -30.5 -64.5t-80.5 -24.5q-59 0 -92 33l27 54q25 -30 65 -30q22 0 35.5 9t13.5 23q0 29 -74 27v79q-113 13 -157 105.5t-44 307.5q0 234 53.5 323.5
t193.5 89.5q93 0 140 -37t77 -134l-59 -21q-25 78 -58 106.5t-100 28.5q-105 0 -145 -76.5t-40 -279.5q0 -204 40 -281t145 -77z" />
    <glyph glyph-name="Egrave" unicode="&#xc8;" 
d="M365 912l-41 -44l-143 126l41 43zM532 743h-374v-291h240v-58h-240v-337h374v-57h-436v800h436v-57z" />
    <glyph glyph-name="Eacute" unicode="&#xc9;" 
d="M447 994l-143 -126l-41 44l143 125zM532 743h-374v-291h240v-58h-240v-337h374v-57h-436v800h436v-57z" />
    <glyph glyph-name="Ecircumflex" unicode="&#xca;" 
d="M314 945l-92 -80l-47 37l139 123l139 -125l-48 -37zM532 743h-374v-291h240v-58h-240v-337h374v-57h-436v800h436v-57z" />
    <glyph glyph-name="Edieresis" unicode="&#xcb;" 
d="M206 911q-34 0 -47.5 12.5t-13.5 44.5q0 31 13.5 43.5t47.5 12.5t47.5 -12.5t13.5 -43.5q0 -32 -13.5 -44.5t-47.5 -12.5zM422 911q-34 0 -47.5 12.5t-13.5 44.5q0 31 13.5 43.5t47.5 12.5t47.5 -12.5t13.5 -43.5q0 -32 -13.5 -44.5t-47.5 -12.5zM532 743h-374v-291h240
v-58h-240v-337h374v-57h-436v800h436v-57z" />
    <glyph glyph-name="Igrave" unicode="&#xcc;" 
d="M351 912l-41 -44l-143 126l41 43zM493 743h-162v-686h162v-57h-386v57h162v686h-162v57h386v-57z" />
    <glyph glyph-name="Iacute" unicode="&#xcd;" 
d="M433 994l-143 -126l-41 44l143 125zM493 743h-162v-686h162v-57h-386v57h162v686h-162v57h386v-57z" />
    <glyph glyph-name="Icircumflex" unicode="&#xce;" 
d="M300 945l-92 -80l-47 37l139 123l139 -125l-48 -37zM493 743h-162v-686h162v-57h-386v57h162v686h-162v57h386v-57z" />
    <glyph glyph-name="Idieresis" unicode="&#xcf;" 
d="M192 911q-34 0 -47.5 12.5t-13.5 44.5q0 31 13.5 43.5t47.5 12.5t47.5 -12.5t13.5 -43.5q0 -32 -13.5 -44.5t-47.5 -12.5zM408 911q-34 0 -47.5 12.5t-13.5 44.5q0 31 13.5 43.5t47.5 12.5t47.5 -12.5t13.5 -43.5q0 -32 -13.5 -44.5t-47.5 -12.5zM493 743h-162v-686h162
v-57h-386v57h162v686h-162v57h386v-57z" />
    <glyph glyph-name="Eth" unicode="&#xd0;" 
d="M316 800q133 0 183.5 -87t50.5 -313t-50.5 -313t-183.5 -87h-234v394h-52v58h52v348h234zM316 57q98 0 135 74t37 269t-37 269t-135 74h-172v-291h144l1 -58h-145v-337h172z" />
    <glyph glyph-name="Ntilde" unicode="&#xd1;" 
d="M209 909h-63q-2 48 22.5 78t64.5 30q29 0 74 -38.5t60 -38.5q17 0 21.5 11.5t2.5 36.5h63q2 -47 -22.5 -76t-64.5 -29q-30 0 -75 38.5t-59 38.5q-17 0 -21.5 -12.5t-2.5 -38.5zM458 800h62v-800h-67l-311 667v-667h-62v800h67l311 -667v667z" />
    <glyph glyph-name="Ograve" unicode="&#xd2;" 
d="M310 868l-143 126l41 43l143 -125zM300 -14q-135 0 -187 81.5t-52 292.5v80q0 211 52 292.5t187 81.5t187 -81.5t52 -292.5v-80q0 -211 -52 -292.5t-187 -81.5zM300 43q101 0 139 68t38 249v80q0 181 -38 249t-139 68q-102 0 -140 -68t-37 -249v-80q1 -181 39 -249
t138 -68z" />
    <glyph glyph-name="Oacute" unicode="&#xd3;" 
d="M290 868l-41 44l143 125l41 -43zM300 -14q-135 0 -187 81.5t-52 292.5v80q0 211 52 292.5t187 81.5t187 -81.5t52 -292.5v-80q0 -211 -52 -292.5t-187 -81.5zM300 43q101 0 139 68t38 249v80q0 181 -38 249t-139 68q-102 0 -140 -68t-37 -249v-80q1 -181 39 -249t138 -68
z" />
    <glyph glyph-name="Ocircumflex" unicode="&#xd4;" 
d="M391 863l-91 82l-92 -80l-47 37l139 123l139 -125zM300 -14q-135 0 -187 81.5t-52 292.5v80q0 211 52 292.5t187 81.5t187 -81.5t52 -292.5v-80q0 -211 -52 -292.5t-187 -81.5zM300 43q101 0 139 68t38 249v80q0 181 -38 249t-139 68q-102 0 -140 -68t-37 -249v-80
q1 -181 39 -249t138 -68z" />
    <glyph glyph-name="Otilde" unicode="&#xd5;" 
d="M367 883q-30 0 -75 38.5t-59 38.5q-17 0 -21.5 -12.5t-2.5 -38.5h-63q-2 48 22.5 78t64.5 30q29 0 74 -38.5t60 -38.5q17 0 21.5 11.5t2.5 36.5h63q2 -47 -22.5 -76t-64.5 -29zM300 -14q-135 0 -187 81.5t-52 292.5v80q0 211 52 292.5t187 81.5t187 -81.5t52 -292.5v-80
q0 -211 -52 -292.5t-187 -81.5zM300 43q101 0 139 68t38 249v80q0 181 -38 249t-139 68q-102 0 -140 -68t-37 -249v-80q1 -181 39 -249t138 -68z" />
    <glyph glyph-name="Odieresis" unicode="&#xd6;" 
d="M192 911q-34 0 -47.5 12.5t-13.5 44.5q0 31 13.5 43.5t47.5 12.5t47.5 -12.5t13.5 -43.5q0 -32 -13.5 -44.5t-47.5 -12.5zM408 911q-34 0 -47.5 12.5t-13.5 44.5q0 31 13.5 43.5t47.5 12.5t47.5 -12.5t13.5 -43.5q0 -32 -13.5 -44.5t-47.5 -12.5zM300 -14
q-135 0 -187 81.5t-52 292.5v80q0 211 52 292.5t187 81.5t187 -81.5t52 -292.5v-80q0 -211 -52 -292.5t-187 -81.5zM300 43q101 0 139 68t38 249v80q0 181 -38 249t-139 68q-102 0 -140 -68t-37 -249v-80q1 -181 39 -249t138 -68z" />
    <glyph glyph-name="multiply" unicode="&#xd7;" 
d="M513 574l-173 -174l173 -173l-39 -40l-174 174l-173 -174l-40 39l174 174l-174 174l39 39l174 -174l174 174z" />
    <glyph glyph-name="Oslash" unicode="&#xd8;" 
d="M544 850l-56 -119q51 -81 51 -291v-80q0 -211 -52 -292.5t-187 -81.5q-93 0 -143 35l-33 -71h-68l56 119q-51 81 -51 291v80q0 211 52 292.5t187 81.5q93 0 143 -35l33 71h68zM123 360q0 -147 24 -216l268 576q-38 37 -115 37q-101 0 -139 -68t-38 -249v-80zM477 440
q0 147 -24 216l-268 -576q38 -37 115 -37q101 0 139 68t38 249v80z" />
    <glyph glyph-name="Ugrave" unicode="&#xd9;" 
d="M310 868l-143 126l41 43l143 -125zM300 -14q-124 0 -171 67.5t-47 242.5v504h62v-504q0 -145 33.5 -199t122.5 -54t122.5 54t33.5 199v504h62v-504q0 -175 -47 -242.5t-171 -67.5z" />
    <glyph glyph-name="Uacute" unicode="&#xda;" 
d="M290 868l-41 44l143 125l41 -43zM300 -14q-124 0 -171 67.5t-47 242.5v504h62v-504q0 -145 33.5 -199t122.5 -54t122.5 54t33.5 199v504h62v-504q0 -175 -47 -242.5t-171 -67.5z" />
    <glyph glyph-name="Ucircumflex" unicode="&#xdb;" 
d="M391 863l-91 82l-92 -80l-47 37l139 123l139 -125zM300 -14q-124 0 -171 67.5t-47 242.5v504h62v-504q0 -145 33.5 -199t122.5 -54t122.5 54t33.5 199v504h62v-504q0 -175 -47 -242.5t-171 -67.5z" />
    <glyph glyph-name="Udieresis" unicode="&#xdc;" 
d="M192 911q-34 0 -47.5 12.5t-13.5 44.5q0 31 13.5 43.5t47.5 12.5t47.5 -12.5t13.5 -43.5q0 -32 -13.5 -44.5t-47.5 -12.5zM408 911q-34 0 -47.5 12.5t-13.5 44.5q0 31 13.5 43.5t47.5 12.5t47.5 -12.5t13.5 -43.5q0 -32 -13.5 -44.5t-47.5 -12.5zM300 -14
q-124 0 -171 67.5t-47 242.5v504h62v-504q0 -145 33.5 -199t122.5 -54t122.5 54t33.5 199v504h62v-504q0 -175 -47 -242.5t-171 -67.5z" />
    <glyph glyph-name="Yacute" unicode="&#xdd;" 
d="M290 868l-41 44l143 125l41 -43zM269 0v304l-236 496h68l199 -418l199 418h68l-236 -496v-304h-62z" />
    <glyph glyph-name="Thorn" unicode="&#xde;" 
d="M300 610q125 0 173 -46t48 -164t-48 -164t-173 -46h-138v-190h-62v800h62v-190h138zM300 248q92 0 125.5 32t33.5 120t-33.5 120t-125.5 32h-138v-304h138z" />
    <glyph glyph-name="germandbls" unicode="&#xdf;" 
d="M83 0v599q0 121 42.5 168t153.5 47q125 0 173 -47t48 -168q0 -70 -16.5 -106.5t-60.5 -61.5q58 -26 80 -70t22 -134q0 -128 -48 -177.5t-173 -49.5h-56v57h56q91 0 125 36.5t34 133.5q0 98 -34 133.5t-125 35.5h-41v58h16q92 0 125.5 30t33.5 115q0 90 -34 124t-125 34
q-77 0 -105.5 -33.5t-28.5 -124.5v-599h-62z" />
    <glyph glyph-name="agrave" unicode="&#xe0;" 
d="M310 683l-143 126l41 43l143 -125zM274 -14q-121 0 -167.5 40t-46.5 143q0 109 46.5 150t167.5 41h152v57q0 89 -32.5 122.5t-119.5 33.5q-64 0 -93.5 -21.5t-46.5 -80.5l-59 15q23 82 66 114t133 32q121 0 167.5 -47.5t46.5 -167.5v-258q0 -61 16.5 -82t61.5 -20v-57
q-56 -1 -82.5 16t-36.5 61q-28 -52 -65.5 -71.5t-107.5 -19.5zM274 43q87 0 119.5 37.5t32.5 137.5v84h-152q-88 0 -120 -27.5t-32 -105.5q0 -72 32 -99t120 -27z" />
    <glyph glyph-name="aacute" unicode="&#xe1;" 
d="M290 683l-41 44l143 125l41 -43zM274 -14q-121 0 -167.5 40t-46.5 143q0 109 46.5 150t167.5 41h152v57q0 89 -32.5 122.5t-119.5 33.5q-64 0 -93.5 -21.5t-46.5 -80.5l-59 15q23 82 66 114t133 32q121 0 167.5 -47.5t46.5 -167.5v-258q0 -61 16.5 -82t61.5 -20v-57
q-56 -1 -82.5 16t-36.5 61q-28 -52 -65.5 -71.5t-107.5 -19.5zM274 43q87 0 119.5 37.5t32.5 137.5v84h-152q-88 0 -120 -27.5t-32 -105.5q0 -72 32 -99t120 -27z" />
    <glyph glyph-name="acircumflex" unicode="&#xe2;" 
d="M391 678l-91 82l-92 -80l-47 37l139 123l139 -125zM274 -14q-121 0 -167.5 40t-46.5 143q0 109 46.5 150t167.5 41h152v57q0 89 -32.5 122.5t-119.5 33.5q-64 0 -93.5 -21.5t-46.5 -80.5l-59 15q23 82 66 114t133 32q121 0 167.5 -47.5t46.5 -167.5v-258q0 -61 16.5 -82
t61.5 -20v-57q-56 -1 -82.5 16t-36.5 61q-28 -52 -65.5 -71.5t-107.5 -19.5zM274 43q87 0 119.5 37.5t32.5 137.5v84h-152q-88 0 -120 -27.5t-32 -105.5q0 -72 32 -99t120 -27z" />
    <glyph glyph-name="atilde" unicode="&#xe3;" 
d="M367 698q-30 0 -75 38.5t-59 38.5q-17 0 -21.5 -12.5t-2.5 -38.5h-63q-2 48 22.5 78t64.5 30q29 0 74 -38.5t60 -38.5q17 0 21.5 11.5t2.5 36.5h63q2 -47 -22.5 -76t-64.5 -29zM274 -14q-121 0 -167.5 40t-46.5 143q0 109 46.5 150t167.5 41h152v57q0 89 -32.5 122.5
t-119.5 33.5q-64 0 -93.5 -21.5t-46.5 -80.5l-59 15q23 82 66 114t133 32q121 0 167.5 -47.5t46.5 -167.5v-258q0 -61 16.5 -82t61.5 -20v-57q-56 -1 -82.5 16t-36.5 61q-28 -52 -65.5 -71.5t-107.5 -19.5zM274 43q87 0 119.5 37.5t32.5 137.5v84h-152q-88 0 -120 -27.5
t-32 -105.5q0 -72 32 -99t120 -27z" />
    <glyph glyph-name="adieresis" unicode="&#xe4;" 
d="M192 726q-34 0 -47.5 12.5t-13.5 44.5q0 31 13.5 43.5t47.5 12.5t47.5 -12.5t13.5 -43.5q0 -32 -13.5 -44.5t-47.5 -12.5zM408 726q-34 0 -47.5 12.5t-13.5 44.5q0 31 13.5 43.5t47.5 12.5t47.5 -12.5t13.5 -43.5q0 -32 -13.5 -44.5t-47.5 -12.5zM274 -14
q-121 0 -167.5 40t-46.5 143q0 109 46.5 150t167.5 41h152v57q0 89 -32.5 122.5t-119.5 33.5q-64 0 -93.5 -21.5t-46.5 -80.5l-59 15q23 82 66 114t133 32q121 0 167.5 -47.5t46.5 -167.5v-258q0 -61 16.5 -82t61.5 -20v-57q-56 -1 -82.5 16t-36.5 61q-28 -52 -65.5 -71.5
t-107.5 -19.5zM274 43q87 0 119.5 37.5t32.5 137.5v84h-152q-88 0 -120 -27.5t-32 -105.5q0 -72 32 -99t120 -27z" />
    <glyph glyph-name="aring" unicode="&#xe5;" 
d="M299 694q-73 0 -101.5 26.5t-28.5 94.5q0 67 28.5 93.5t101.5 26.5t102.5 -26.5t29.5 -93.5q0 -68 -28.5 -94.5t-103.5 -26.5zM299 751q41 0 55.5 13.5t14.5 50.5t-14.5 50t-55.5 13q-39 0 -53.5 -13t-14.5 -50t14.5 -50.5t53.5 -13.5zM274 -14q-121 0 -167.5 40
t-46.5 143q0 109 46.5 150t167.5 41h152v57q0 89 -32.5 122.5t-119.5 33.5q-64 0 -93.5 -21.5t-46.5 -80.5l-59 15q23 82 66 114t133 32q121 0 167.5 -47.5t46.5 -167.5v-258q0 -61 16.5 -82t61.5 -20v-57q-56 -1 -82.5 16t-36.5 61q-28 -52 -65.5 -71.5t-107.5 -19.5z
M274 43q87 0 119.5 37.5t32.5 137.5v84h-152q-88 0 -120 -27.5t-32 -105.5q0 -72 32 -99t120 -27z" />
    <glyph glyph-name="ae" unicode="&#xe6;" 
d="M161 -14q-84 0 -116.5 40t-32.5 143q0 109 39 150t140 41h77v58q0 90 -22.5 123.5t-84.5 33.5q-34 0 -50.5 -21t-27.5 -80l-62 14q17 82 47 113t93 31q59 0 92.5 -23.5t48.5 -78.5q17 57 47 79.5t89 22.5q85 0 117.5 -71.5t32.5 -258.5h-258q0 -148 23 -203.5t85 -55.5
q24 0 42 17.5t45 66.5l50 -34q-28 -61 -58 -84t-79 -23q-52 0 -83 23.5t-52 80.5q-15 -57 -48 -80.5t-94 -23.5zM330 360h196q-1 122 -20 168.5t-68 46.5q-61 0 -84.5 -46.5t-23.5 -168.5zM161 43q62 0 84.5 37t22.5 139v83h-77q-67 0 -92 -27.5t-25 -105.5q0 -72 18.5 -99
t68.5 -27z" />
    <glyph glyph-name="ccedilla" unicode="&#xe7;" 
d="M318 43q55 0 87.5 18t67.5 66l52 -31q-41 -60 -83.5 -84.5t-110.5 -25.5v-21q33 -2 53.5 -24.5t20.5 -58.5q0 -40 -30.5 -64.5t-80.5 -24.5q-59 0 -92 33l27 54q25 -30 65 -30q22 0 35.5 9t13.5 23q0 29 -74 27v79q-108 11 -150 83t-42 238q0 182 53 252.5t192 70.5
q75 0 118.5 -23.5t84.5 -85.5l-52 -31q-33 48 -64.5 65.5t-86.5 17.5q-105 0 -144 -57t-39 -209t38 -209t141 -57z" />
    <glyph glyph-name="egrave" unicode="&#xe8;" 
d="M351 727l-41 -44l-143 126l41 43zM303 632q127 0 175 -72t47 -258h-398q1 -147 39.5 -203t136.5 -56q58 0 92 17.5t72 65.5l49 -33q-44 -61 -89.5 -84t-123.5 -23q-135 0 -186.5 70.5t-51.5 252.5t51.5 252.5t186.5 70.5zM128 360h334q-8 122 -42 168.5t-117 46.5
q-94 0 -132.5 -46.5t-42.5 -168.5z" />
    <glyph glyph-name="eacute" unicode="&#xe9;" 
d="M433 809l-143 -126l-41 44l143 125zM303 632q127 0 175 -72t47 -258h-398q1 -147 39.5 -203t136.5 -56q58 0 92 17.5t72 65.5l49 -33q-44 -61 -89.5 -84t-123.5 -23q-135 0 -186.5 70.5t-51.5 252.5t51.5 252.5t186.5 70.5zM128 360h334q-8 122 -42 168.5t-117 46.5
q-94 0 -132.5 -46.5t-42.5 -168.5z" />
    <glyph glyph-name="ecircumflex" unicode="&#xea;" 
d="M300 760l-92 -80l-47 37l139 123l139 -125l-48 -37zM303 632q127 0 175 -72t47 -258h-398q1 -147 39.5 -203t136.5 -56q58 0 92 17.5t72 65.5l49 -33q-44 -61 -89.5 -84t-123.5 -23q-135 0 -186.5 70.5t-51.5 252.5t51.5 252.5t186.5 70.5zM128 360h334q-8 122 -42 168.5
t-117 46.5q-94 0 -132.5 -46.5t-42.5 -168.5z" />
    <glyph glyph-name="edieresis" unicode="&#xeb;" 
d="M192 726q-34 0 -47.5 12.5t-13.5 44.5q0 31 13.5 43.5t47.5 12.5t47.5 -12.5t13.5 -43.5q0 -32 -13.5 -44.5t-47.5 -12.5zM408 726q-34 0 -47.5 12.5t-13.5 44.5q0 31 13.5 43.5t47.5 12.5t47.5 -12.5t13.5 -43.5q0 -32 -13.5 -44.5t-47.5 -12.5zM303 632q127 0 175 -72
t47 -258h-398q1 -147 39.5 -203t136.5 -56q58 0 92 17.5t72 65.5l49 -33q-44 -61 -89.5 -84t-123.5 -23q-135 0 -186.5 70.5t-51.5 252.5t51.5 252.5t186.5 70.5zM128 360h334q-8 122 -42 168.5t-117 46.5q-94 0 -132.5 -46.5t-42.5 -168.5z" />
    <glyph glyph-name="igrave" unicode="&#xec;" 
d="M361 727l-41 -44l-143 126l41 43zM357 57h175v-57h-412v57h175v504h-126v57h188v-561z" />
    <glyph glyph-name="iacute" unicode="&#xed;" 
d="M443 809l-143 -126l-41 44l143 125zM357 57h175v-57h-412v57h175v504h-126v57h188v-561z" />
    <glyph glyph-name="icircumflex" unicode="&#xee;" 
d="M310 760l-92 -80l-47 37l139 123l139 -125l-48 -37zM357 57h175v-57h-412v57h175v504h-126v57h188v-561z" />
    <glyph glyph-name="idieresis" unicode="&#xef;" 
d="M202 726q-34 0 -47.5 12.5t-13.5 44.5q0 31 13.5 43.5t47.5 12.5t47.5 -12.5t13.5 -43.5q0 -32 -13.5 -44.5t-47.5 -12.5zM418 726q-34 0 -47.5 12.5t-13.5 44.5q0 31 13.5 43.5t47.5 12.5t47.5 -12.5t13.5 -43.5q0 -32 -13.5 -44.5t-47.5 -12.5zM357 57h175v-57h-412v57
h175v504h-126v57h188v-561z" />
    <glyph glyph-name="eth" unicode="&#xf0;" 
d="M400 694q132 -144 131 -448q-1 -147 -51 -203.5t-180 -56.5q-131 0 -181 57.5t-50 205.5q0 149 50 206t181 57q90 0 141 -26q-33 115 -96 178l-147 -81l-30 49l128 71q-67 42 -155 40v57q125 2 214 -64l116 64l30 -50zM300 43q97 0 133 44t36 162t-36 162t-133 44
t-133 -44t-36 -162t36 -162t133 -44z" />
    <glyph glyph-name="ntilde" unicode="&#xf1;" 
d="M367 698q-30 0 -75 38.5t-59 38.5q-17 0 -21.5 -12.5t-2.5 -38.5h-63q-2 48 22.5 78t64.5 30q29 0 74 -38.5t60 -38.5q17 0 21.5 11.5t2.5 36.5h63q2 -47 -22.5 -76t-64.5 -29zM92 0v618h62v-55q29 37 67.5 53t106.5 16q109 0 150 -50.5t41 -184.5v-397h-62v397
q0 101 -28 139.5t-101 38.5q-103 0 -138.5 -33t-35.5 -134v-408h-62z" />
    <glyph glyph-name="ograve" unicode="&#xf2;" 
d="M310 683l-143 126l41 43l143 -125zM300 -14q-125 0 -173 70.5t-48 252.5t48 252.5t173 70.5t173 -70.5t48 -252.5t-48 -252.5t-173 -70.5zM300 43q91 0 125 57t34 209t-34 209t-125 57t-125 -57t-34 -209t34 -209t125 -57z" />
    <glyph glyph-name="oacute" unicode="&#xf3;" 
d="M290 683l-41 44l143 125l41 -43zM300 -14q-125 0 -173 70.5t-48 252.5t48 252.5t173 70.5t173 -70.5t48 -252.5t-48 -252.5t-173 -70.5zM300 43q91 0 125 57t34 209t-34 209t-125 57t-125 -57t-34 -209t34 -209t125 -57z" />
    <glyph glyph-name="ocircumflex" unicode="&#xf4;" 
d="M391 678l-91 82l-92 -80l-47 37l139 123l139 -125zM300 -14q-125 0 -173 70.5t-48 252.5t48 252.5t173 70.5t173 -70.5t48 -252.5t-48 -252.5t-173 -70.5zM300 43q91 0 125 57t34 209t-34 209t-125 57t-125 -57t-34 -209t34 -209t125 -57z" />
    <glyph glyph-name="otilde" unicode="&#xf5;" 
d="M367 698q-30 0 -75 38.5t-59 38.5q-17 0 -21.5 -12.5t-2.5 -38.5h-63q-2 48 22.5 78t64.5 30q29 0 74 -38.5t60 -38.5q17 0 21.5 11.5t2.5 36.5h63q2 -47 -22.5 -76t-64.5 -29zM300 -14q-125 0 -173 70.5t-48 252.5t48 252.5t173 70.5t173 -70.5t48 -252.5t-48 -252.5
t-173 -70.5zM300 43q91 0 125 57t34 209t-34 209t-125 57t-125 -57t-34 -209t34 -209t125 -57z" />
    <glyph glyph-name="odieresis" unicode="&#xf6;" 
d="M192 726q-34 0 -47.5 12.5t-13.5 44.5q0 31 13.5 43.5t47.5 12.5t47.5 -12.5t13.5 -43.5q0 -32 -13.5 -44.5t-47.5 -12.5zM408 726q-34 0 -47.5 12.5t-13.5 44.5q0 31 13.5 43.5t47.5 12.5t47.5 -12.5t13.5 -43.5q0 -32 -13.5 -44.5t-47.5 -12.5zM300 -14
q-125 0 -173 70.5t-48 252.5t48 252.5t173 70.5t173 -70.5t48 -252.5t-48 -252.5t-173 -70.5zM300 43q91 0 125 57t34 209t-34 209t-125 57t-125 -57t-34 -209t34 -209t125 -57z" />
    <glyph glyph-name="divide" unicode="&#xf7;" 
d="M300 527q-40 0 -56.5 15.5t-16.5 53.5t16.5 53.5t56.5 15.5t56.5 -15.5t16.5 -53.5t-16.5 -53.5t-56.5 -15.5zM26 371v58h548v-58h-548zM300 135q-40 0 -56.5 15.5t-16.5 53.5t16.5 53.5t56.5 15.5t56.5 -15.5t16.5 -53.5t-16.5 -53.5t-56.5 -15.5z" />
    <glyph glyph-name="oslash" unicode="&#xf8;" 
d="M532 650l-55 -95q44 -70 44 -246q0 -182 -48 -252.5t-173 -70.5q-86 0 -135 32l-28 -49h-71l56 96q-43 71 -43 244q0 182 48 252.5t173 70.5q86 0 133 -31l28 49h71zM141 309q0 -118 20 -177l240 415q-34 28 -101 28q-91 0 -125 -57t-34 -209zM459 309q0 121 -21 180
l-241 -416q36 -30 103 -30q91 0 125 57t34 209z" />
    <glyph glyph-name="ugrave" unicode="&#xf9;" 
d="M310 683l-143 126l41 43l143 -125zM283 -14q-109 0 -150 49.5t-41 180.5v402h62v-402q0 -100 27.5 -136.5t101.5 -36.5q100 0 137 31t37 115v429h62v-618h-62v50q-28 -36 -66 -50t-108 -14z" />
    <glyph glyph-name="uacute" unicode="&#xfa;" 
d="M290 683l-41 44l143 125l41 -43zM283 -14q-109 0 -150 49.5t-41 180.5v402h62v-402q0 -100 27.5 -136.5t101.5 -36.5q100 0 137 31t37 115v429h62v-618h-62v50q-28 -36 -66 -50t-108 -14z" />
    <glyph glyph-name="ucircumflex" unicode="&#xfb;" 
d="M391 678l-91 82l-92 -80l-47 37l139 123l139 -125zM283 -14q-109 0 -150 49.5t-41 180.5v402h62v-402q0 -100 27.5 -136.5t101.5 -36.5q100 0 137 31t37 115v429h62v-618h-62v50q-28 -36 -66 -50t-108 -14z" />
    <glyph glyph-name="udieresis" unicode="&#xfc;" 
d="M192 726q-34 0 -47.5 12.5t-13.5 44.5q0 31 13.5 43.5t47.5 12.5t47.5 -12.5t13.5 -43.5q0 -32 -13.5 -44.5t-47.5 -12.5zM408 726q-34 0 -47.5 12.5t-13.5 44.5q0 31 13.5 43.5t47.5 12.5t47.5 -12.5t13.5 -43.5q0 -32 -13.5 -44.5t-47.5 -12.5zM283 -14
q-109 0 -150 49.5t-41 180.5v402h62v-402q0 -100 27.5 -136.5t101.5 -36.5q100 0 137 31t37 115v429h62v-618h-62v50q-28 -36 -66 -50t-108 -14z" />
    <glyph glyph-name="yacute" unicode="&#xfd;" 
d="M290 683l-41 44l143 125l41 -43zM134 -196q-55 0 -97 29l24 52q42 -24 73 -24q63 0 96.5 30t60.5 112l-200 615h65l168 -527l170 527h65l-204 -616q-38 -112 -85.5 -155t-135.5 -43z" />
    <glyph glyph-name="thorn" unicode="&#xfe;" 
d="M85 -182v982h62v-226q40 58 160 58q125 0 173 -70t48 -252q0 -183 -48 -253.5t-173 -70.5q-121 0 -160 78v-246h-62zM307 43q91 0 125 57.5t34 209.5q0 151 -34 208t-125 57q-160 0 -160 -83v-284q0 -165 160 -165z" />
    <glyph glyph-name="ydieresis" unicode="&#xff;" 
d="M192 726q-34 0 -47.5 12.5t-13.5 44.5q0 31 13.5 43.5t47.5 12.5t47.5 -12.5t13.5 -43.5q0 -32 -13.5 -44.5t-47.5 -12.5zM408 726q-34 0 -47.5 12.5t-13.5 44.5q0 31 13.5 43.5t47.5 12.5t47.5 -12.5t13.5 -43.5q0 -32 -13.5 -44.5t-47.5 -12.5zM134 -196q-55 0 -97 29
l24 52q42 -24 73 -24q63 0 96.5 30t60.5 112l-200 615h65l168 -527l170 527h65l-204 -616q-38 -112 -85.5 -155t-135.5 -43z" />
    <glyph glyph-name="Amacron" unicode="&#x100;" 
d="M443 961v-58h-286v58h286zM492 0l-57 210h-270l-57 -210h-64l222 800h68l222 -800h-64zM181 268h238l-119 434z" />
    <glyph glyph-name="amacron" unicode="&#x101;" 
d="M157 718v58h286v-58h-286zM274 -14q-121 0 -167.5 40t-46.5 143q0 109 46.5 150t167.5 41h152v57q0 89 -32.5 122.5t-119.5 33.5q-64 0 -93.5 -21.5t-46.5 -80.5l-59 15q23 82 66 114t133 32q121 0 167.5 -47.5t46.5 -167.5v-258q0 -61 16.5 -82t61.5 -20v-57
q-56 -1 -82.5 16t-36.5 61q-28 -52 -65.5 -71.5t-107.5 -19.5zM274 43q87 0 119.5 37.5t32.5 137.5v84h-152q-88 0 -120 -27.5t-32 -105.5q0 -72 32 -99t120 -27z" />
    <glyph glyph-name="Abreve" unicode="&#x102;" 
d="M299 864q-74 0 -102.5 28t-27.5 99h62q0 -41 14 -55t54 -14q42 0 56 14t14 55h62q2 -71 -27 -99t-105 -28zM492 0l-57 210h-270l-57 -210h-64l222 800h68l222 -800h-64zM181 268h238l-119 434z" />
    <glyph glyph-name="abreve" unicode="&#x103;" 
d="M299 679q-74 0 -102.5 28t-27.5 99h62q0 -41 14 -55t54 -14q42 0 56 14t14 55h62q2 -71 -27 -99t-105 -28zM274 -14q-121 0 -167.5 40t-46.5 143q0 109 46.5 150t167.5 41h152v57q0 89 -32.5 122.5t-119.5 33.5q-64 0 -93.5 -21.5t-46.5 -80.5l-59 15q23 82 66 114
t133 32q121 0 167.5 -47.5t46.5 -167.5v-258q0 -61 16.5 -82t61.5 -20v-57q-56 -1 -82.5 16t-36.5 61q-28 -52 -65.5 -71.5t-107.5 -19.5zM274 43q87 0 119.5 37.5t32.5 137.5v84h-152q-88 0 -120 -27.5t-32 -105.5q0 -72 32 -99t120 -27z" />
    <glyph glyph-name="Aogonek" unicode="&#x104;" 
d="M596 -118l27 -54q-35 -33 -92 -33q-50 0 -80.5 24.5t-30.5 64.5q0 36 20.5 58.5t53.5 24.5v33h-2l-57 210h-270l-57 -210h-64l222 800h68l220 -793h2v-96q-74 2 -74 -27q0 -14 13.5 -23t35.5 -9q39 0 65 30zM181 268h238l-119 434z" />
    <glyph glyph-name="aogonek" unicode="&#x105;" 
d="M606 -73l27 -54q-35 -33 -92 -33q-50 0 -80.5 24.5t-30.5 64.5q0 33 17.5 55t46.5 27q-35 15 -47 66q-28 -52 -65.5 -71.5t-107.5 -19.5q-121 0 -167.5 40t-46.5 143q0 109 46.5 150t167.5 41h152v57q0 89 -32.5 122.5t-119.5 33.5q-64 0 -93.5 -21.5t-46.5 -80.5l-59 15
q23 82 66 114t133 32q121 0 167.5 -47.5t46.5 -167.5v-258q0 -61 16.5 -82t61.5 -20v-101q-74 2 -74 -27q0 -14 13.5 -23t35.5 -9q39 0 65 30zM426 218v84h-152q-88 0 -120 -27.5t-32 -105.5q0 -72 32 -99t120 -27q87 0 119.5 37.5t32.5 137.5z" />
    <glyph glyph-name="Cacute" unicode="&#x106;" 
d="M290 865l-41 44l143 125l41 -43zM315 -14q-140 0 -193.5 90.5t-53.5 324.5t53.5 323.5t193.5 89.5q93 0 140 -37t77 -134l-59 -21q-25 78 -58 106.5t-100 28.5q-105 0 -145 -76.5t-40 -279.5q0 -204 40 -281t145 -77q67 0 100 27.5t58 104.5l59 -20q-30 -96 -76.5 -132.5
t-140.5 -36.5z" />
    <glyph glyph-name="cacute" unicode="&#x107;" 
d="M290 683l-41 44l143 125l41 -43zM318 -14q-137 0 -189 70.5t-52 252.5t53 252.5t192 70.5q75 0 118.5 -23.5t84.5 -85.5l-52 -31q-33 48 -64.5 65.5t-86.5 17.5q-105 0 -144 -57t-39 -209t38 -209t141 -57q55 0 87.5 18t67.5 66l52 -31q-42 -62 -86.5 -86t-120.5 -24z
" />
    <glyph glyph-name="Ccircumflex" unicode="&#x108;" 
d="M391 860l-91 82l-92 -80l-47 37l139 123l139 -125zM315 -14q-140 0 -193.5 90.5t-53.5 324.5t53.5 323.5t193.5 89.5q93 0 140 -37t77 -134l-59 -21q-25 78 -58 106.5t-100 28.5q-105 0 -145 -76.5t-40 -279.5q0 -204 40 -281t145 -77q67 0 100 27.5t58 104.5l59 -20
q-30 -96 -76.5 -132.5t-140.5 -36.5z" />
    <glyph glyph-name="ccircumflex" unicode="&#x109;" 
d="M391 678l-91 82l-92 -80l-47 37l139 123l139 -125zM318 -14q-137 0 -189 70.5t-52 252.5t53 252.5t192 70.5q75 0 118.5 -23.5t84.5 -85.5l-52 -31q-33 48 -64.5 65.5t-86.5 17.5q-105 0 -144 -57t-39 -209t38 -209t141 -57q55 0 87.5 18t67.5 66l52 -31
q-42 -62 -86.5 -86t-120.5 -24z" />
    <glyph glyph-name="Cdotaccent" unicode="&#x10a;" 
d="M300 911q-41 0 -57 15t-16 53t16.5 53.5t56.5 15.5t56.5 -15.5t16.5 -53.5t-16 -53t-57 -15zM315 -14q-140 0 -193.5 90.5t-53.5 324.5t53.5 323.5t193.5 89.5q93 0 140 -37t77 -134l-59 -21q-25 78 -58 106.5t-100 28.5q-105 0 -145 -76.5t-40 -279.5q0 -204 40 -281
t145 -77q67 0 100 27.5t58 104.5l59 -20q-30 -96 -76.5 -132.5t-140.5 -36.5z" />
    <glyph glyph-name="cdotaccent" unicode="&#x10b;" 
d="M300 729q-41 0 -57 15t-16 53t16.5 53.5t56.5 15.5t56.5 -15.5t16.5 -53.5t-16 -53t-57 -15zM318 -14q-137 0 -189 70.5t-52 252.5t53 252.5t192 70.5q75 0 118.5 -23.5t84.5 -85.5l-52 -31q-33 48 -64.5 65.5t-86.5 17.5q-105 0 -144 -57t-39 -209t38 -209t141 -57
q55 0 87.5 18t67.5 66l52 -31q-42 -62 -86.5 -86t-120.5 -24z" />
    <glyph glyph-name="Ccaron" unicode="&#x10c;" 
d="M300 865l-139 123l47 37l92 -81l91 83l48 -37zM315 -14q-140 0 -193.5 90.5t-53.5 324.5t53.5 323.5t193.5 89.5q93 0 140 -37t77 -134l-59 -21q-25 78 -58 106.5t-100 28.5q-105 0 -145 -76.5t-40 -279.5q0 -204 40 -281t145 -77q67 0 100 27.5t58 104.5l59 -20
q-30 -96 -76.5 -132.5t-140.5 -36.5z" />
    <glyph glyph-name="ccaron" unicode="&#x10d;" 
d="M300 683l-139 123l47 37l92 -81l91 83l48 -37zM318 -14q-137 0 -189 70.5t-52 252.5t53 252.5t192 70.5q75 0 118.5 -23.5t84.5 -85.5l-52 -31q-33 48 -64.5 65.5t-86.5 17.5q-105 0 -144 -57t-39 -209t38 -209t141 -57q55 0 87.5 18t67.5 66l52 -31q-42 -62 -86.5 -86
t-120.5 -24z" />
    <glyph glyph-name="Dcaron" unicode="&#x10e;" 
d="M439 990l-139 -125l-139 123l47 37l92 -81l91 83zM313 800q133 0 183.5 -87t50.5 -313t-50.5 -313t-183.5 -87h-234v800h234zM313 57q98 0 135 74t37 269t-37 269t-135 74h-172v-686h172z" />
    <glyph glyph-name="dcaron" unicode="&#x10f;" 
d="M248 -14q-117 0 -163 70.5t-46 251.5q0 182 46 253t163 71q109 0 147 -78v246h62v-800h-62v44q-40 -58 -147 -58zM523 545l-8 255h66l-9 -255h-49zM248 43q64 0 105.5 20t41.5 63v284q0 86 -39.5 125.5t-107.5 39.5q-82 0 -114.5 -58t-32.5 -209q0 -150 32.5 -207.5
t114.5 -57.5z" />
    <glyph glyph-name="Dcroat" unicode="&#x110;" 
d="M316 800q133 0 183.5 -87t50.5 -313t-50.5 -313t-183.5 -87h-234v394h-52v58h52v348h234zM316 57q98 0 135 74t37 269t-37 269t-135 74h-172v-291h144l1 -58h-145v-337h172z" />
    <glyph glyph-name="dcroat" unicode="&#x111;" 
d="M576 733v-57h-59v-676h-62v44q-40 -58 -160 -58q-125 0 -173 70t-48 252q0 183 48 253.5t173 70.5q121 0 160 -78v122h-132v57h132v67h62v-67h59zM455 126v284q0 165 -160 165q-91 0 -125 -57.5t-34 -209.5q0 -151 34 -208t125 -57q160 0 160 83z" />
    <glyph glyph-name="Emacron" unicode="&#x112;" 
d="M457 961v-58h-286v58h286zM532 743h-374v-291h240v-58h-240v-337h374v-57h-436v800h436v-57z" />
    <glyph glyph-name="emacron" unicode="&#x113;" 
d="M443 776v-58h-286v58h286zM303 632q127 0 175 -72t47 -258h-398q1 -147 39.5 -203t136.5 -56q58 0 92 17.5t72 65.5l49 -33q-44 -61 -89.5 -84t-123.5 -23q-135 0 -186.5 70.5t-51.5 252.5t51.5 252.5t186.5 70.5zM128 360h334q-8 122 -42 168.5t-117 46.5
q-94 0 -132.5 -46.5t-42.5 -168.5z" />
    <glyph glyph-name="Edotaccent" unicode="&#x116;" 
d="M314 914q-41 0 -57 15t-16 53t16.5 53.5t56.5 15.5t56.5 -15.5t16.5 -53.5t-16 -53t-57 -15zM532 743h-374v-291h240v-58h-240v-337h374v-57h-436v800h436v-57z" />
    <glyph glyph-name="edotaccent" unicode="&#x117;" 
d="M300 729q-41 0 -57 15t-16 53t16.5 53.5t56.5 15.5t56.5 -15.5t16.5 -53.5t-16 -53t-57 -15zM303 632q127 0 175 -72t47 -258h-398q1 -147 39.5 -203t136.5 -56q58 0 92 17.5t72 65.5l49 -33q-44 -61 -89.5 -84t-123.5 -23q-135 0 -186.5 70.5t-51.5 252.5t51.5 252.5
t186.5 70.5zM128 360h334q-8 122 -42 168.5t-117 46.5q-94 0 -132.5 -46.5t-42.5 -168.5z" />
    <glyph glyph-name="Eogonek" unicode="&#x118;" 
d="M572 -118l27 -54q-35 -33 -92 -33q-50 0 -80.5 24.5t-30.5 64.5q0 36 20.5 58.5t53.5 24.5v33h-374v800h436v-57h-374v-291h240v-58h-240v-337h374v-146q-74 2 -74 -27q0 -14 13.5 -23t35.5 -9q39 0 65 30z" />
    <glyph glyph-name="eogonek" unicode="&#x119;" 
d="M303 632q127 0 175 -72t47 -258h-398q1 -147 39.5 -203t136.5 -56q58 0 92 17.5t72 65.5l49 -33q-40 -55 -80 -78.5t-101 -27.5v-73q-74 2 -74 -27q0 -14 13.5 -23t35.5 -9q39 0 65 30l27 -54q-35 -33 -92 -33q-50 0 -80.5 24.5t-30.5 64.5q0 36 20.5 58.5t53.5 24.5v17
q-117 7 -162.5 78.5t-45.5 243.5q0 182 51.5 252.5t186.5 70.5zM128 360h334q-8 122 -42 168.5t-117 46.5q-94 0 -132.5 -46.5t-42.5 -168.5z" />
    <glyph glyph-name="Ecaron" unicode="&#x11a;" 
d="M453 993l-139 -125l-139 123l47 37l92 -81l91 83zM532 743h-374v-291h240v-58h-240v-337h374v-57h-436v800h436v-57z" />
    <glyph glyph-name="ecaron" unicode="&#x11b;" 
d="M439 808l-139 -125l-139 123l47 37l92 -81l91 83zM303 632q127 0 175 -72t47 -258h-398q1 -147 39.5 -203t136.5 -56q58 0 92 17.5t72 65.5l49 -33q-44 -61 -89.5 -84t-123.5 -23q-135 0 -186.5 70.5t-51.5 252.5t51.5 252.5t186.5 70.5zM128 360h334q-8 122 -42 168.5
t-117 46.5q-94 0 -132.5 -46.5t-42.5 -168.5z" />
    <glyph glyph-name="Gcircumflex" unicode="&#x11c;" 
d="M391 860l-91 82l-92 -80l-47 37l139 123l139 -125zM319 -14q-146 0 -201 89t-55 325t55 325t201 89q101 0 150 -40.5t78 -148.5l-59 -15q-23 83 -59.5 115t-109.5 32q-110 0 -152 -76.5t-42 -280.5t42 -280.5t152 -76.5q66 0 100 25.5t58 93.5v186h-174v58h236v-252
q-31 -96 -78 -132t-142 -36z" />
    <glyph glyph-name="gcircumflex" unicode="&#x11d;" 
d="M391 678l-91 82l-92 -80l-47 37l139 123l139 -125zM298 -196q-58 0 -92 13t-66 48l45 38q24 -24 47.5 -33t65.5 -9q88 0 120.5 38.5t32.5 141.5v80q-39 -77 -160 -77q-125 0 -173 70.5t-48 255.5q0 147 48 204.5t173 57.5q120 0 160 -58v44h62v-568q0 -139 -46.5 -192.5
t-168.5 -53.5zM291 101q160 0 160 164v227q0 83 -160 83q-91 0 -125 -44t-34 -161q0 -154 34 -211.5t125 -57.5z" />
    <glyph glyph-name="Gbreve" unicode="&#x11e;" 
d="M299 861q-74 0 -102.5 28t-27.5 99h62q0 -41 14 -55t54 -14q42 0 56 14t14 55h62q2 -71 -27 -99t-105 -28zM319 -14q-146 0 -201 89t-55 325t55 325t201 89q101 0 150 -40.5t78 -148.5l-59 -15q-23 83 -59.5 115t-109.5 32q-110 0 -152 -76.5t-42 -280.5t42 -280.5
t152 -76.5q66 0 100 25.5t58 93.5v186h-174v58h236v-252q-31 -96 -78 -132t-142 -36z" />
    <glyph glyph-name="gbreve" unicode="&#x11f;" 
d="M299 679q-74 0 -102.5 28t-27.5 99h62q0 -41 14 -55t54 -14q42 0 56 14t14 55h62q2 -71 -27 -99t-105 -28zM298 -196q-58 0 -92 13t-66 48l45 38q24 -24 47.5 -33t65.5 -9q88 0 120.5 38.5t32.5 141.5v80q-39 -77 -160 -77q-125 0 -173 70.5t-48 255.5q0 147 48 204.5
t173 57.5q120 0 160 -58v44h62v-568q0 -139 -46.5 -192.5t-168.5 -53.5zM291 101q160 0 160 164v227q0 83 -160 83q-91 0 -125 -44t-34 -161q0 -154 34 -211.5t125 -57.5z" />
    <glyph glyph-name="Gdotaccent" unicode="&#x120;" 
d="M300 911q-41 0 -57 15t-16 53t16.5 53.5t56.5 15.5t56.5 -15.5t16.5 -53.5t-16 -53t-57 -15zM319 -14q-146 0 -201 89t-55 325t55 325t201 89q101 0 150 -40.5t78 -148.5l-59 -15q-23 83 -59.5 115t-109.5 32q-110 0 -152 -76.5t-42 -280.5t42 -280.5t152 -76.5
q66 0 100 25.5t58 93.5v186h-174v58h236v-252q-31 -96 -78 -132t-142 -36z" />
    <glyph glyph-name="gdotaccent" unicode="&#x121;" 
d="M300 729q-41 0 -57 15t-16 53t16.5 53.5t56.5 15.5t56.5 -15.5t16.5 -53.5t-16 -53t-57 -15zM298 -196q-58 0 -92 13t-66 48l45 38q24 -24 47.5 -33t65.5 -9q88 0 120.5 38.5t32.5 141.5v80q-39 -77 -160 -77q-125 0 -173 70.5t-48 255.5q0 147 48 204.5t173 57.5
q120 0 160 -58v44h62v-568q0 -139 -46.5 -192.5t-168.5 -53.5zM291 101q160 0 160 164v227q0 83 -160 83q-91 0 -125 -44t-34 -161q0 -154 34 -211.5t125 -57.5z" />
    <glyph glyph-name="uni0122" unicode="&#x122;" 
d="M319 -14q-146 0 -201 89t-55 325t55 325t201 89q101 0 150 -40.5t78 -148.5l-59 -15q-23 83 -59.5 115t-109.5 32q-110 0 -152 -76.5t-42 -280.5t42 -280.5t152 -76.5q66 0 100 25.5t58 93.5v186h-174v58h236v-252q-31 -96 -78 -132t-142 -36zM242 -246l48 122
q-25 7 -25 42q0 25 10 34t37 9q26 0 36 -9t10 -34q0 -52 -73 -164h-43z" />
    <glyph glyph-name="uni0123" unicode="&#x123;" 
d="M301 658q-26 0 -36.5 9t-10.5 34q0 52 74 164h42l-47 -123q25 -6 25 -41q0 -25 -10.5 -34t-36.5 -9zM298 -196q-58 0 -92 13t-66 48l45 38q24 -24 47.5 -33t65.5 -9q88 0 120.5 38.5t32.5 141.5v80q-39 -77 -160 -77q-125 0 -173 70.5t-48 255.5q0 147 48 204.5t173 57.5
q120 0 160 -58v44h62v-568q0 -139 -46.5 -192.5t-168.5 -53.5zM291 101q160 0 160 164v227q0 83 -160 83q-91 0 -125 -44t-34 -161q0 -154 34 -211.5t125 -57.5z" />
    <glyph glyph-name="Hcircumflex" unicode="&#x124;" 
d="M300 942l-92 -80l-47 37l139 123l139 -125l-48 -37zM460 800h62v-800h-62v394h-320v-394h-62v800h62v-348h320v348z" />
    <glyph glyph-name="hcircumflex" unicode="&#x125;" 
d="M223 815l-91 82l-92 -80l-47 37l139 123l139 -125zM98 0v800h62v-236q32 68 150 68q121 0 167 -68t46 -246v-318h-62v318q0 147 -32.5 202t-118.5 55q-88 0 -119 -33.5t-31 -133.5v-408h-62z" />
    <glyph glyph-name="Hbar" unicode="&#x126;" 
d="M574 609v-57h-52v-552h-62v394h-320v-394h-62v552h-52v57h52v191h62v-191h320v191h62v-191h52zM460 452v100h-320v-100h320z" />
    <glyph glyph-name="hbar" unicode="&#x127;" 
d="M310 632q121 0 167 -68t46 -246v-318h-62v318q0 147 -32.5 202t-118.5 55q-88 0 -119 -33.5t-31 -133.5v-408h-62v676h-74v57h74v67h62v-67h117v-57h-117v-112q32 68 150 68z" />
    <glyph glyph-name="Itilde" unicode="&#x128;" 
d="M209 909h-63q-2 48 22.5 78t64.5 30q29 0 74 -38.5t60 -38.5q17 0 21.5 11.5t2.5 36.5h63q2 -47 -22.5 -76t-64.5 -29q-30 0 -75 38.5t-59 38.5q-17 0 -21.5 -12.5t-2.5 -38.5zM493 743h-162v-686h162v-57h-386v57h162v686h-162v57h386v-57z" />
    <glyph glyph-name="itilde" unicode="&#x129;" 
d="M219 724h-63q-2 48 22.5 78t64.5 30q29 0 74 -38.5t60 -38.5q17 0 21.5 11.5t2.5 36.5h63q2 -47 -22.5 -76t-64.5 -29q-30 0 -75 38.5t-59 38.5q-17 0 -21.5 -12.5t-2.5 -38.5zM357 57h175v-57h-412v57h175v504h-126v57h188v-561z" />
    <glyph glyph-name="Imacron" unicode="&#x12a;" 
d="M443 961v-58h-286v58h286zM493 743h-162v-686h162v-57h-386v57h162v686h-162v57h386v-57z" />
    <glyph glyph-name="imacron" unicode="&#x12b;" 
d="M453 776v-58h-286v58h286zM357 57h175v-57h-412v57h175v504h-126v57h188v-561z" />
    <glyph glyph-name="Iogonek" unicode="&#x12e;" 
d="M493 743h-162v-686h162v-57h-158v-88q-74 2 -74 -27q0 -14 13.5 -23t35.5 -9q39 0 65 30l27 -54q-35 -33 -92 -33q-50 0 -80.5 24.5t-30.5 64.5q0 36 20.5 58.5t53.5 24.5v32h-166v57h162v686h-162v57h386v-57z" />
    <glyph glyph-name="iogonek" unicode="&#x12f;" 
d="M310 729q-41 0 -57 15t-16 53t16.5 53.5t56.5 15.5t56.5 -15.5t16.5 -53.5t-16 -53t-57 -15zM355 -86q-74 2 -74 -27q0 -14 13.5 -23t35.5 -9q39 0 65 30l27 -54q-35 -33 -92 -33q-50 0 -80.5 24.5t-30.5 64.5q0 36 20.5 58.5t53.5 24.5v30h-173v57h175v504h-126v57h188
v-561h175v-57h-177v-86z" />
    <glyph glyph-name="Idotaccent" unicode="&#x130;" 
d="M300 914q-41 0 -57 15t-16 53t16.5 53.5t56.5 15.5t56.5 -15.5t16.5 -53.5t-16 -53t-57 -15zM493 743h-162v-686h162v-57h-386v57h162v686h-162v57h386v-57z" />
    <glyph glyph-name="dotlessi" unicode="&#x131;" 
d="M357 57h175v-57h-412v57h175v504h-126v57h188v-561z" />
    <glyph glyph-name="Jcircumflex" unicode="&#x134;" 
d="M508 860l-91 82l-92 -80l-47 37l139 123l139 -125zM264 -14q-94 0 -140.5 36t-75.5 132l58 16q23 -74 56 -100.5t102 -26.5q105 0 144.5 66.5t39.5 244.5v389h-131v57h193v-446q0 -209 -53.5 -288.5t-192.5 -79.5z" />
    <glyph glyph-name="jcircumflex" unicode="&#x135;" 
d="M491 678l-91 82l-92 -80l-47 37l139 123l139 -125zM238 -196q-58 0 -92 13t-66 48l45 38q24 -24 47.5 -33t65.5 -9q88 0 120.5 40.5t32.5 151.5v508h-126v57h188v-565q0 -141 -46.5 -195t-168.5 -54z" />
    <glyph glyph-name="uni0136" unicode="&#x136;" 
d="M267 440l301 -440h-74l-270 394h-78v-394h-62v800h62v-348h54l287 348h77zM312 -39q26 0 36 -9t10 -34q0 -52 -73 -164h-43l48 122q-25 7 -25 42q0 25 10 34t37 9z" />
    <glyph glyph-name="uni0137" unicode="&#x137;" 
d="M120 0v800h62v-440h43l201 258h75l-221 -285l261 -333h-75l-237 302h-47v-302h-62zM242 -246l48 122q-25 7 -25 42q0 25 10 34t37 9q26 0 36 -9t10 -34q0 -52 -73 -164h-43z" />
    <glyph glyph-name="Lacute" unicode="&#x139;" 
d="M155 865l-41 44l143 125l41 -43zM115 0v800h62v-743h335v-57h-397z" />
    <glyph glyph-name="lacute" unicode="&#x13a;" 
d="M290 865l-41 44l143 125l41 -43zM406 -14q-90 0 -123.5 48.5t-33.5 177.5v531h-126v57h188v-588q0 -96 20.5 -132.5t74.5 -36.5q37 0 86 41l36 -54q-69 -44 -122 -44z" />
    <glyph glyph-name="uni013B" unicode="&#x13b;" 
d="M115 0v800h62v-743h335v-57h-397zM242 -246l48 122q-25 7 -25 42q0 25 10 34t37 9q26 0 36 -9t10 -34q0 -52 -73 -164h-43z" />
    <glyph glyph-name="uni013C" unicode="&#x13c;" 
d="M406 -14q-90 0 -123.5 48.5t-33.5 177.5v531h-126v57h188v-588q0 -96 20.5 -132.5t74.5 -36.5q37 0 86 41l36 -54q-69 -44 -122 -44zM242 -246l48 122q-25 7 -25 42q0 25 10 34t37 9q26 0 36 -9t10 -34q0 -52 -73 -164h-43z" />
    <glyph glyph-name="Lcaron" unicode="&#x13d;" 
d="M115 0v800h62v-743h335v-57h-397zM305 545l-8 255h66l-9 -255h-49z" />
    <glyph glyph-name="lcaron" unicode="&#x13e;" 
d="M406 -14q-90 0 -123.5 48.5t-33.5 177.5v531h-126v57h188v-588q0 -96 20.5 -132.5t74.5 -36.5q37 0 86 41l36 -54q-69 -44 -122 -44zM375 545l-9 255h66l-8 -255h-49z" />
    <glyph glyph-name="Lslash" unicode="&#x141;" 
d="M207 57h335v-57h-397v435l-98 -40v59l98 40v306h62v-281l134 54v-59l-134 -54v-403z" />
    <glyph glyph-name="lslash" unicode="&#x142;" 
d="M492 84l36 -54q-69 -44 -122 -44q-90 0 -123.5 48.5t-33.5 177.5v230l-116 -47v59l116 47v242h-126v57h188v-274l116 47v-59l-116 -47v-255q0 -96 20.5 -132.5t74.5 -36.5q37 0 86 41z" />
    <glyph glyph-name="Nacute" unicode="&#x143;" 
d="M433 994l-143 -126l-41 44l143 125zM458 800h62v-800h-67l-311 667v-667h-62v800h67l311 -667v667z" />
    <glyph glyph-name="nacute" unicode="&#x144;" 
d="M290 683l-41 44l143 125l41 -43zM92 0v618h62v-55q29 37 67.5 53t106.5 16q109 0 150 -50.5t41 -184.5v-397h-62v397q0 101 -28 139.5t-101 38.5q-103 0 -138.5 -33t-35.5 -134v-408h-62z" />
    <glyph glyph-name="uni0145" unicode="&#x145;" 
d="M458 800h62v-800h-67l-311 667v-667h-62v800h67l311 -667v667zM312 -42q26 0 36 -9t10 -34q0 -52 -73 -164h-43l48 122q-25 7 -25 42q0 25 10 34t37 9z" />
    <glyph glyph-name="uni0146" unicode="&#x146;" 
d="M92 0v618h62v-55q29 37 67.5 53t106.5 16q109 0 150 -50.5t41 -184.5v-397h-62v397q0 101 -28 139.5t-101 38.5q-103 0 -138.5 -33t-35.5 -134v-408h-62zM242 -246l48 122q-25 7 -25 42q0 25 10 34t37 9q26 0 36 -9t10 -34q0 -52 -73 -164h-43z" />
    <glyph glyph-name="Ncaron" unicode="&#x147;" 
d="M439 993l-139 -125l-139 123l47 37l92 -81l91 83zM458 800h62v-800h-67l-311 667v-667h-62v800h67l311 -667v667z" />
    <glyph glyph-name="ncaron" unicode="&#x148;" 
d="M300 683l-139 123l47 37l92 -81l91 83l48 -37zM92 0v618h62v-55q29 37 67.5 53t106.5 16q109 0 150 -50.5t41 -184.5v-397h-62v397q0 101 -28 139.5t-101 38.5q-103 0 -138.5 -33t-35.5 -134v-408h-62z" />
    <glyph glyph-name="Eng" unicode="&#x14a;" 
d="M458 800h62v-800q0 -94 -32.5 -127t-121.5 -33v57q59 0 82 22t5 81l-311 667v-667h-62v800h67l311 -667v667z" />
    <glyph glyph-name="eng" unicode="&#x14b;" 
d="M328 632q109 0 150 -50.5t41 -184.5v-397q0 -91 -33 -125.5t-121 -34.5v57q58 0 75 18.5t17 84.5v397q0 101 -28 139.5t-101 38.5q-103 0 -138.5 -33t-35.5 -134v-408h-62v618h62v-55q29 37 67.5 53t106.5 16z" />
    <glyph glyph-name="Omacron" unicode="&#x14c;" 
d="M157 903v58h286v-58h-286zM300 -14q-135 0 -187 81.5t-52 292.5v80q0 211 52 292.5t187 81.5t187 -81.5t52 -292.5v-80q0 -211 -52 -292.5t-187 -81.5zM300 43q101 0 139 68t38 249v80q0 181 -38 249t-139 68q-102 0 -140 -68t-37 -249v-80q1 -181 39 -249t138 -68z" />
    <glyph glyph-name="omacron" unicode="&#x14d;" 
d="M157 718v58h286v-58h-286zM300 -14q-125 0 -173 70.5t-48 252.5t48 252.5t173 70.5t173 -70.5t48 -252.5t-48 -252.5t-173 -70.5zM300 43q91 0 125 57t34 209t-34 209t-125 57t-125 -57t-34 -209t34 -209t125 -57z" />
    <glyph glyph-name="Ohungarumlaut" unicode="&#x150;" 
d="M154 868l-41 44l144 125l41 -43zM343 868l-41 44l144 125l41 -43zM300 -14q-135 0 -187 81.5t-52 292.5v80q0 211 52 292.5t187 81.5t187 -81.5t52 -292.5v-80q0 -211 -52 -292.5t-187 -81.5zM300 43q101 0 139 68t38 249v80q0 181 -38 249t-139 68q-102 0 -140 -68
t-37 -249v-80q1 -181 39 -249t138 -68z" />
    <glyph glyph-name="ohungarumlaut" unicode="&#x151;" 
d="M154 683l-41 44l144 125l41 -43zM343 683l-41 44l144 125l41 -43zM300 -14q-125 0 -173 70.5t-48 252.5t48 252.5t173 70.5t173 -70.5t48 -252.5t-48 -252.5t-173 -70.5zM300 43q91 0 125 57t34 209t-34 209t-125 57t-125 -57t-34 -209t34 -209t125 -57z" />
    <glyph glyph-name="OE" unicode="&#x152;" 
d="M598 743h-224v-291h136v-58h-136v-337h224v-57h-286v37q-41 -51 -124 -51q-106 0 -146 89.5t-40 323.5q0 235 40 325t146 90q83 0 124 -52v38h286v-57zM188 43q72 0 98 76t26 280q0 205 -26 281.5t-98 76.5q-70 0 -97 -77.5t-27 -280.5q0 -202 27 -279t97 -77z" />
    <glyph glyph-name="oe" unicode="&#x153;" 
d="M173 -20q-91 0 -126 71.5t-35 257.5t35 257.5t126 71.5q51 0 79 -22.5t49 -79.5q20 57 50 79.5t86 22.5q87 0 119 -72.5t32 -263.5h-257q0 -150 23 -207t83 -57q25 0 43 17t45 66l50 -34q-31 -60 -61 -83.5t-77 -23.5q-56 0 -86 22.5t-50 79.5q-21 -57 -49 -79.5
t-79 -22.5zM173 38q55 0 75.5 57.5t20.5 213.5t-20.5 213.5t-75.5 57.5q-56 0 -77.5 -58t-21.5 -213t21.5 -213t77.5 -58zM332 360h193q-1 125 -20 172.5t-68 47.5q-60 0 -82.5 -47t-22.5 -173z" />
    <glyph glyph-name="Racute" unicode="&#x154;" 
d="M433 991l-143 -126l-41 44l143 125zM485 0l-230 348h-101v-348h-62v800h220q125 0 173 -49.5t48 -176.5q0 -125 -45 -174t-161 -52l230 -348h-72zM154 743v-338h158q91 0 125 35.5t34 133.5q0 97 -34 133t-125 36h-158z" />
    <glyph glyph-name="racute" unicode="&#x155;" 
d="M290 683l-41 44l143 125l41 -43zM119 0v618h62v-108q18 49 65 85.5t106 36.5q72 0 110.5 -27t67.5 -98l-55 -25q-20 53 -46 73t-77 20q-46 0 -81 -22.5t-53.5 -58t-27.5 -71.5t-9 -71v-352h-62z" />
    <glyph glyph-name="uni0156" unicode="&#x156;" 
d="M327 348l230 -348h-72l-230 348h-101v-348h-62v800h220q125 0 173 -49.5t48 -176.5q0 -125 -45 -174t-161 -52zM154 743v-338h158q91 0 125 35.5t34 133.5q0 97 -34 133t-125 36h-158zM312 -39q26 0 36 -9t10 -34q0 -52 -73 -164h-43l48 122q-25 7 -25 42q0 25 10 34
t37 9z" />
    <glyph glyph-name="uni0157" unicode="&#x157;" 
d="M119 0v618h62v-108q18 49 65 85.5t106 36.5q72 0 110.5 -27t67.5 -98l-55 -25q-20 53 -46 73t-77 20q-46 0 -81 -22.5t-53.5 -58t-27.5 -71.5t-9 -71v-352h-62zM242 -246l48 122q-25 7 -25 42q0 25 10 34t37 9q26 0 36 -9t10 -34q0 -52 -73 -164h-43z" />
    <glyph glyph-name="Rcaron" unicode="&#x158;" 
d="M439 990l-139 -125l-139 123l47 37l92 -81l91 83zM485 0l-230 348h-101v-348h-62v800h220q125 0 173 -49.5t48 -176.5q0 -125 -45 -174t-161 -52l230 -348h-72zM154 743v-338h158q91 0 125 35.5t34 133.5q0 97 -34 133t-125 36h-158z" />
    <glyph glyph-name="rcaron" unicode="&#x159;" 
d="M300 683l-139 123l47 37l92 -81l91 83l48 -37zM119 0v618h62v-108q18 49 65 85.5t106 36.5q72 0 110.5 -27t67.5 -98l-55 -25q-20 53 -46 73t-77 20q-46 0 -81 -22.5t-53.5 -58t-27.5 -71.5t-9 -71v-352h-62z" />
    <glyph glyph-name="Sacute" unicode="&#x15a;" 
d="M290 868l-41 44l143 125l41 -43zM300 -14q-100 0 -151 25t-85 91l46 44q26 -59 66 -81t124 -22q96 0 132 37.5t36 137.5q0 69 -36 105.5t-134 69.5q-122 40 -168 85t-46 127q0 118 47 163.5t169 45.5q91 0 138.5 -22t80.5 -78l-43 -47q-26 52 -62.5 71t-113.5 19
q-89 0 -121.5 -32.5t-32.5 -119.5q0 -60 32.5 -91.5t123.5 -60.5q130 -40 179 -90t49 -145q0 -131 -50 -181.5t-180 -50.5z" />
    <glyph glyph-name="sacute" unicode="&#x15b;" 
d="M290 683l-41 44l143 125l41 -43zM275 -14q-73 0 -113 23t-73 84l48 40q26 -52 54.5 -71t83.5 -19q110 0 151 27t41 99q0 63 -34 89t-129 37q-113 14 -159.5 52.5t-46.5 109.5q0 99 49.5 137t177.5 38q76 0 117.5 -19.5t75.5 -70.5l-44 -44q-27 45 -58 61t-91 16
q-95 0 -130 -25t-35 -93q0 -43 33 -67.5t113 -34.5q128 -17 175.5 -56.5t47.5 -129.5q0 -103 -55.5 -143t-198.5 -40z" />
    <glyph glyph-name="Scircumflex" unicode="&#x15c;" 
d="M391 863l-91 82l-92 -80l-47 37l139 123l139 -125zM300 -14q-100 0 -151 25t-85 91l46 44q26 -59 66 -81t124 -22q96 0 132 37.5t36 137.5q0 69 -36 105.5t-134 69.5q-122 40 -168 85t-46 127q0 118 47 163.5t169 45.5q91 0 138.5 -22t80.5 -78l-43 -47q-26 52 -62.5 71
t-113.5 19q-89 0 -121.5 -32.5t-32.5 -119.5q0 -60 32.5 -91.5t123.5 -60.5q130 -40 179 -90t49 -145q0 -131 -50 -181.5t-180 -50.5z" />
    <glyph glyph-name="scircumflex" unicode="&#x15d;" 
d="M391 678l-91 82l-92 -80l-47 37l139 123l139 -125zM275 -14q-73 0 -113 23t-73 84l48 40q26 -52 54.5 -71t83.5 -19q110 0 151 27t41 99q0 63 -34 89t-129 37q-113 14 -159.5 52.5t-46.5 109.5q0 99 49.5 137t177.5 38q76 0 117.5 -19.5t75.5 -70.5l-44 -44
q-27 45 -58 61t-91 16q-95 0 -130 -25t-35 -93q0 -43 33 -67.5t113 -34.5q128 -17 175.5 -56.5t47.5 -129.5q0 -103 -55.5 -143t-198.5 -40z" />
    <glyph glyph-name="Scedilla" unicode="&#x15e;" 
d="M530 218q0 -124 -43.5 -175t-155.5 -56v-22q33 -2 53.5 -24.5t20.5 -58.5q0 -40 -30.5 -64.5t-80.5 -24.5q-59 0 -92 33l27 54q25 -30 65 -30q22 0 35.5 9t13.5 23q0 29 -74 27v78q-83 3 -128 28.5t-77 86.5l46 44q26 -59 66 -81t124 -22q96 0 132 37.5t36 137.5
q0 69 -36 105.5t-134 69.5q-122 40 -168 85t-46 127q0 118 47 163.5t169 45.5q91 0 138.5 -22t80.5 -78l-43 -47q-26 52 -62.5 71t-113.5 19q-89 0 -121.5 -32.5t-32.5 -119.5q0 -60 32.5 -91.5t123.5 -60.5q130 -40 179 -90t49 -145z" />
    <glyph glyph-name="scedilla" unicode="&#x15f;" 
d="M529 169q0 -94 -44 -134.5t-154 -46.5v-23q33 -2 53.5 -24.5t20.5 -58.5q0 -40 -30.5 -64.5t-80.5 -24.5q-59 0 -92 33l27 54q25 -30 65 -30q22 0 35.5 9t13.5 23q0 29 -74 27v77q-69 1 -108.5 24t-71.5 83l48 40q26 -52 54.5 -71t83.5 -19q110 0 151 27t41 99
q0 63 -34 89t-129 37q-113 14 -159.5 52.5t-46.5 109.5q0 99 49.5 137t177.5 38q76 0 117.5 -19.5t75.5 -70.5l-44 -44q-27 45 -58 61t-91 16q-95 0 -130 -25t-35 -93q0 -43 33 -67.5t113 -34.5q128 -17 175.5 -56.5t47.5 -129.5z" />
    <glyph glyph-name="Scaron" unicode="&#x160;" 
d="M300 868l-139 123l47 37l92 -81l91 83l48 -37zM300 -14q-100 0 -151 25t-85 91l46 44q26 -59 66 -81t124 -22q96 0 132 37.5t36 137.5q0 69 -36 105.5t-134 69.5q-122 40 -168 85t-46 127q0 118 47 163.5t169 45.5q91 0 138.5 -22t80.5 -78l-43 -47q-26 52 -62.5 71
t-113.5 19q-89 0 -121.5 -32.5t-32.5 -119.5q0 -60 32.5 -91.5t123.5 -60.5q130 -40 179 -90t49 -145q0 -131 -50 -181.5t-180 -50.5z" />
    <glyph glyph-name="scaron" unicode="&#x161;" 
d="M300 683l-139 123l47 37l92 -81l91 83l48 -37zM275 -14q-73 0 -113 23t-73 84l48 40q26 -52 54.5 -71t83.5 -19q110 0 151 27t41 99q0 63 -34 89t-129 37q-113 14 -159.5 52.5t-46.5 109.5q0 99 49.5 137t177.5 38q76 0 117.5 -19.5t75.5 -70.5l-44 -44q-27 45 -58 61
t-91 16q-95 0 -130 -25t-35 -93q0 -43 33 -67.5t113 -34.5q128 -17 175.5 -56.5t47.5 -129.5q0 -103 -55.5 -143t-198.5 -40z" />
    <glyph glyph-name="uni0162" unicode="&#x162;" 
d="M331 -35q33 -2 53.5 -24.5t20.5 -58.5q0 -40 -30.5 -64.5t-80.5 -24.5q-59 0 -92 33l27 54q25 -30 65 -30q22 0 35.5 9t13.5 23q0 29 -74 27v834h-243v57h548v-57h-243v-778z" />
    <glyph glyph-name="uni0163" unicode="&#x163;" 
d="M535 84q-18 -51 -50 -72.5t-94 -24.5v-22q33 -2 53.5 -24.5t20.5 -58.5q0 -40 -30.5 -64.5t-80.5 -24.5q-59 0 -92 33l27 54q25 -30 65 -30q22 0 35.5 9t13.5 23q0 29 -74 27v79q-77 8 -108.5 60t-31.5 162v353h-124v57h124v180h62v-180h208v-57h-208v-353q0 -91 25 -129
t89 -38q52 0 75 13t37 48z" />
    <glyph glyph-name="Tcaron" unicode="&#x164;" 
d="M439 990l-139 -125l-139 123l47 37l92 -81l91 83zM574 800v-57h-243v-743h-62v743h-243v57h548z" />
    <glyph glyph-name="tcaron" unicode="&#x165;" 
d="M315 672l-9 255h66l-8 -255h-49zM365 -14q-98 0 -137 51t-39 173v353h-124v57h124v180h62v-180h208v-57h-208v-353q0 -91 25 -129t89 -38q52 0 75 13t37 48l58 -20q-20 -56 -56.5 -77t-113.5 -21z" />
    <glyph glyph-name="Tbar" unicode="&#x166;" 
d="M574 743h-243v-291h158v-58h-158v-394h-62v394h-158v58h158v291h-243v57h548v-57z" />
    <glyph glyph-name="tbar" unicode="&#x167;" 
d="M477 104l58 -20q-20 -56 -56.5 -77t-113.5 -21q-98 0 -137 51t-39 173v133h-124v57h124v163h-124v57h124v180h62v-180h208v-57h-208v-163h208v-57h-208v-133q0 -91 25 -129t89 -38q52 0 75 13t37 48z" />
    <glyph glyph-name="Utilde" unicode="&#x168;" 
d="M367 883q-30 0 -75 38.5t-59 38.5q-17 0 -21.5 -12.5t-2.5 -38.5h-63q-2 48 22.5 78t64.5 30q29 0 74 -38.5t60 -38.5q17 0 21.5 11.5t2.5 36.5h63q2 -47 -22.5 -76t-64.5 -29zM300 -14q-124 0 -171 67.5t-47 242.5v504h62v-504q0 -145 33.5 -199t122.5 -54t122.5 54
t33.5 199v504h62v-504q0 -175 -47 -242.5t-171 -67.5z" />
    <glyph glyph-name="utilde" unicode="&#x169;" 
d="M367 698q-30 0 -75 38.5t-59 38.5q-17 0 -21.5 -12.5t-2.5 -38.5h-63q-2 48 22.5 78t64.5 30q29 0 74 -38.5t60 -38.5q17 0 21.5 11.5t2.5 36.5h63q2 -47 -22.5 -76t-64.5 -29zM283 -14q-109 0 -150 49.5t-41 180.5v402h62v-402q0 -100 27.5 -136.5t101.5 -36.5
q100 0 137 31t37 115v429h62v-618h-62v50q-28 -36 -66 -50t-108 -14z" />
    <glyph glyph-name="Umacron" unicode="&#x16a;" 
d="M157 903v58h286v-58h-286zM300 -14q-124 0 -171 67.5t-47 242.5v504h62v-504q0 -145 33.5 -199t122.5 -54t122.5 54t33.5 199v504h62v-504q0 -175 -47 -242.5t-171 -67.5z" />
    <glyph glyph-name="umacron" unicode="&#x16b;" 
d="M157 718v58h286v-58h-286zM283 -14q-109 0 -150 49.5t-41 180.5v402h62v-402q0 -100 27.5 -136.5t101.5 -36.5q100 0 137 31t37 115v429h62v-618h-62v50q-28 -36 -66 -50t-108 -14z" />
    <glyph glyph-name="Ubreve" unicode="&#x16c;" 
d="M299 864q-74 0 -102.5 28t-27.5 99h62q0 -41 14 -55t54 -14q42 0 56 14t14 55h62q2 -71 -27 -99t-105 -28zM300 -14q-124 0 -171 67.5t-47 242.5v504h62v-504q0 -145 33.5 -199t122.5 -54t122.5 54t33.5 199v504h62v-504q0 -175 -47 -242.5t-171 -67.5z" />
    <glyph glyph-name="ubreve" unicode="&#x16d;" 
d="M299 679q-74 0 -102.5 28t-27.5 99h62q0 -41 14 -55t54 -14q42 0 56 14t14 55h62q2 -71 -27 -99t-105 -28zM283 -14q-109 0 -150 49.5t-41 180.5v402h62v-402q0 -100 27.5 -136.5t101.5 -36.5q100 0 137 31t37 115v429h62v-618h-62v50q-28 -36 -66 -50t-108 -14z" />
    <glyph glyph-name="Uring" unicode="&#x16e;" 
d="M299 748q-73 0 -101.5 26.5t-28.5 93.5q0 68 28.5 94.5t101.5 26.5q75 0 103.5 -26.5t28.5 -94.5t-28.5 -94t-103.5 -26zM299 805q41 0 55.5 13.5t14.5 49.5q0 37 -14.5 50.5t-55.5 13.5q-39 0 -53.5 -13.5t-14.5 -50.5q0 -36 14.5 -49.5t53.5 -13.5zM300 -14
q-124 0 -171 67.5t-47 242.5v504h62v-504q0 -145 33.5 -199t122.5 -54t122.5 54t33.5 199v504h62v-504q0 -175 -47 -242.5t-171 -67.5z" />
    <glyph glyph-name="uring" unicode="&#x16f;" 
d="M299 694q-73 0 -101.5 26.5t-28.5 94.5q0 67 28.5 93.5t101.5 26.5t102.5 -26.5t29.5 -93.5q0 -68 -28.5 -94.5t-103.5 -26.5zM299 751q41 0 55.5 13.5t14.5 50.5t-14.5 50t-55.5 13q-39 0 -53.5 -13t-14.5 -50t14.5 -50.5t53.5 -13.5zM283 -14q-109 0 -150 49.5
t-41 180.5v402h62v-402q0 -100 27.5 -136.5t101.5 -36.5q100 0 137 31t37 115v429h62v-618h-62v50q-28 -36 -66 -50t-108 -14z" />
    <glyph glyph-name="Uhungarumlaut" unicode="&#x170;" 
d="M154 868l-41 44l144 125l41 -43zM343 868l-41 44l144 125l41 -43zM300 -14q-124 0 -171 67.5t-47 242.5v504h62v-504q0 -145 33.5 -199t122.5 -54t122.5 54t33.5 199v504h62v-504q0 -175 -47 -242.5t-171 -67.5z" />
    <glyph glyph-name="uhungarumlaut" unicode="&#x171;" 
d="M154 679l-41 43l144 126l41 -43zM343 679l-41 43l144 126l41 -43zM283 -14q-109 0 -150 49.5t-41 180.5v402h62v-402q0 -100 27.5 -136.5t101.5 -36.5q100 0 137 31t37 115v429h62v-618h-62v50q-28 -36 -66 -50t-108 -14z" />
    <glyph glyph-name="Uogonek" unicode="&#x172;" 
d="M456 800h62v-504q0 -163 -40 -232t-143 -77v-76q-74 2 -74 -27q0 -14 13.5 -23t35.5 -9q39 0 65 30l27 -54q-35 -33 -92 -33q-50 0 -80.5 24.5t-30.5 64.5q0 36 20.5 58.5t53.5 24.5v20q-107 6 -149 74.5t-42 234.5v504h62v-504q0 -145 33.5 -199t122.5 -54t122.5 54
t33.5 199v504z" />
    <glyph glyph-name="uogonek" unicode="&#x173;" 
d="M559 -85l27 -54q-35 -33 -92 -33q-50 0 -80.5 24.5t-30.5 64.5q0 36 20.5 58.5t53.5 24.5v50q-28 -36 -66 -50t-108 -14q-109 0 -150 49.5t-41 180.5v402h62v-402q0 -100 27.5 -136.5t101.5 -36.5q100 0 137 31t37 115v429h62v-674q-74 2 -74 -27q0 -14 13.5 -23t35.5 -9
q39 0 65 30z" />
    <glyph glyph-name="Wcircumflex" unicode="&#x174;" 
d="M391 863l-91 82l-92 -80l-47 37l139 123l139 -125zM137 0l-109 800h63l86 -652l93 394h60l93 -394l86 652h63l-109 -800h-61l-102 420l-101 -420h-62z" />
    <glyph glyph-name="wcircumflex" unicode="&#x175;" 
d="M391 678l-91 82l-92 -80l-47 37l139 123l139 -125zM139 0l-107 618h63l83 -495l92 301h60l91 -301l84 495h63l-108 -618h-60l-100 323l-101 -323h-60z" />
    <glyph glyph-name="Ycircumflex" unicode="&#x176;" 
d="M391 863l-91 82l-92 -80l-47 37l139 123l139 -125zM269 0v304l-236 496h68l199 -418l199 418h68l-236 -496v-304h-62z" />
    <glyph glyph-name="ycircumflex" unicode="&#x177;" 
d="M391 678l-91 82l-92 -80l-47 37l139 123l139 -125zM134 -196q-55 0 -97 29l24 52q42 -24 73 -24q63 0 96.5 30t60.5 112l-200 615h65l168 -527l170 527h65l-204 -616q-38 -112 -85.5 -155t-135.5 -43z" />
    <glyph glyph-name="Ydieresis" unicode="&#x178;" 
d="M192 911q-34 0 -47.5 12.5t-13.5 44.5q0 31 13.5 43.5t47.5 12.5t47.5 -12.5t13.5 -43.5q0 -32 -13.5 -44.5t-47.5 -12.5zM408 911q-34 0 -47.5 12.5t-13.5 44.5q0 31 13.5 43.5t47.5 12.5t47.5 -12.5t13.5 -43.5q0 -32 -13.5 -44.5t-47.5 -12.5zM269 0v304l-236 496h68
l199 -418l199 418h68l-236 -496v-304h-62z" />
    <glyph glyph-name="Zacute" unicode="&#x179;" 
d="M290 865l-41 44l143 125l41 -43zM53 0v48l419 695h-417v57h492v-49l-419 -694h417v-57h-492z" />
    <glyph glyph-name="zacute" unicode="&#x17a;" 
d="M290 683l-41 44l143 125l41 -43zM95 0v38l324 523h-323v57h407v-38l-324 -523h325v-57h-409z" />
    <glyph glyph-name="Zdotaccent" unicode="&#x17b;" 
d="M300 911q-41 0 -57 15t-16 53t16.5 53.5t56.5 15.5t56.5 -15.5t16.5 -53.5t-16 -53t-57 -15zM53 0v48l419 695h-417v57h492v-49l-419 -694h417v-57h-492z" />
    <glyph glyph-name="zdotaccent" unicode="&#x17c;" 
d="M300 729q-41 0 -57 15t-16 53t16.5 53.5t56.5 15.5t56.5 -15.5t16.5 -53.5t-16 -53t-57 -15zM95 0v38l324 523h-323v57h407v-38l-324 -523h325v-57h-409z" />
    <glyph glyph-name="Zcaron" unicode="&#x17d;" 
d="M300 865l-139 123l47 37l92 -81l91 83l48 -37zM53 0v48l419 695h-417v57h492v-49l-419 -694h417v-57h-492z" />
    <glyph glyph-name="zcaron" unicode="&#x17e;" 
d="M300 683l-139 123l47 37l92 -81l91 83l48 -37zM95 0v38l324 523h-323v57h407v-38l-324 -523h325v-57h-409z" />
    <glyph glyph-name="florin" unicode="&#x192;" 
d="M175 -14q-60 0 -90 21t-50 77l58 20q13 -36 30 -48.5t52 -12.5q54 0 74 31.5t20 117.5v177h-124v58h124v189q0 110 35 154t121 44q60 0 90 -21t50 -77l-58 -20q-13 36 -30 48.5t-52 12.5q-54 0 -74 -31.5t-20 -117.5v-181h178v-58h-178v-185q0 -110 -35 -154t-121 -44z
" />
    <glyph glyph-name="Ohorn" unicode="&#x1a0;" 
d="M606 909h62v-136q0 -57 -31.5 -92t-81.5 -35q-17 0 -36 8q20 -77 20 -214v-80q0 -211 -52 -292.5t-187 -81.5t-187 81.5t-52 292.5v80q0 211 52 292.5t187 81.5q141 0 192 -89q23 -22 61 -22q24 0 38.5 19t14.5 51v136zM477 360v80q0 181 -38 249t-139 68
q-102 0 -140 -68t-37 -249v-80q1 -181 39 -249t138 -68q101 0 139 68t38 249z" />
    <glyph glyph-name="ohorn" unicode="&#x1a1;" 
d="M581 724h62v-136q0 -57 -31.5 -92t-81.5 -35q-10 0 -20 3q11 -66 11 -155q0 -182 -48 -252.5t-173 -70.5t-173 70.5t-48 252.5t48 252.5t173 70.5q78 0 123.5 -25t69.5 -83q16 -6 35 -6q24 0 38.5 19t14.5 51v136zM300 43q91 0 125 57t34 209t-34 209t-125 57t-125 -57
t-34 -209t34 -209t125 -57z" />
    <glyph glyph-name="Uhorn" unicode="&#x1af;" 
d="M606 974h62v-135q0 -57 -31.5 -92.5t-81.5 -35.5q-17 0 -37 9v-424q0 -175 -47 -242.5t-171 -67.5t-171 67.5t-47 242.5v504h62v-504q0 -145 33.5 -199t122.5 -54t122.5 54t33.5 199v504h62v-26q18 -6 35 -6q24 0 38.5 19.5t14.5 51.5v135z" />
    <glyph glyph-name="uhorn" unicode="&#x1b0;" 
d="M606 792h62v-135q0 -57 -31.5 -92.5t-81.5 -35.5q-17 0 -36 8v-537h-62v50q-28 -36 -66 -50t-108 -14q-109 0 -150 49.5t-41 180.5v402h62v-402q0 -100 27.5 -136.5t101.5 -36.5q100 0 137 31t37 115v429h62v-26q17 -6 34 -6q24 0 38.5 19.5t14.5 51.5v135z" />
    <glyph glyph-name="uni01CD" unicode="&#x1cd;" 
d="M439 993l-139 -125l-139 123l47 37l92 -81l91 83zM492 0l-57 210h-270l-57 -210h-64l222 800h68l222 -800h-64zM181 268h238l-119 434z" />
    <glyph glyph-name="uni01CE" unicode="&#x1ce;" 
d="M300 683l-139 123l47 37l92 -81l91 83l48 -37zM274 -14q-121 0 -167.5 40t-46.5 143q0 109 46.5 150t167.5 41h152v57q0 89 -32.5 122.5t-119.5 33.5q-64 0 -93.5 -21.5t-46.5 -80.5l-59 15q23 82 66 114t133 32q121 0 167.5 -47.5t46.5 -167.5v-258q0 -61 16.5 -82
t61.5 -20v-57q-56 -1 -82.5 16t-36.5 61q-28 -52 -65.5 -71.5t-107.5 -19.5zM274 43q87 0 119.5 37.5t32.5 137.5v84h-152q-88 0 -120 -27.5t-32 -105.5q0 -72 32 -99t120 -27z" />
    <glyph glyph-name="uni01CF" unicode="&#x1cf;" 
d="M439 993l-139 -125l-139 123l47 37l92 -81l91 83zM493 743h-162v-686h162v-57h-386v57h162v686h-162v57h386v-57z" />
    <glyph glyph-name="uni01D0" unicode="&#x1d0;" 
d="M449 808l-139 -125l-139 123l47 37l92 -81l91 83zM357 57h175v-57h-412v57h175v504h-126v57h188v-561z" />
    <glyph glyph-name="uni01D1" unicode="&#x1d1;" 
d="M300 868l-139 123l47 37l92 -81l91 83l48 -37zM300 -14q-135 0 -187 81.5t-52 292.5v80q0 211 52 292.5t187 81.5t187 -81.5t52 -292.5v-80q0 -211 -52 -292.5t-187 -81.5zM300 43q101 0 139 68t38 249v80q0 181 -38 249t-139 68q-102 0 -140 -68t-37 -249v-80
q1 -181 39 -249t138 -68z" />
    <glyph glyph-name="uni01D2" unicode="&#x1d2;" 
d="M300 683l-139 123l47 37l92 -81l91 83l48 -37zM300 -14q-125 0 -173 70.5t-48 252.5t48 252.5t173 70.5t173 -70.5t48 -252.5t-48 -252.5t-173 -70.5zM300 43q91 0 125 57t34 209t-34 209t-125 57t-125 -57t-34 -209t34 -209t125 -57z" />
    <glyph glyph-name="uni01D3" unicode="&#x1d3;" 
d="M300 868l-139 123l47 37l92 -81l91 83l48 -37zM300 -14q-124 0 -171 67.5t-47 242.5v504h62v-504q0 -145 33.5 -199t122.5 -54t122.5 54t33.5 199v504h62v-504q0 -175 -47 -242.5t-171 -67.5z" />
    <glyph glyph-name="uni01D4" unicode="&#x1d4;" 
d="M300 683l-139 123l47 37l92 -81l91 83l48 -37zM283 -14q-109 0 -150 49.5t-41 180.5v402h62v-402q0 -100 27.5 -136.5t101.5 -36.5q100 0 137 31t37 115v429h62v-618h-62v50q-28 -36 -66 -50t-108 -14z" />
    <glyph glyph-name="uni01D5" unicode="&#x1d5;" 
d="M157 1027v58h286v-58h-286zM192 820q-34 0 -47.5 13t-13.5 45q0 31 13.5 43t47.5 12t47.5 -12t13.5 -43q0 -32 -13.5 -45t-47.5 -13zM408 820q-34 0 -47.5 13t-13.5 45q0 31 13.5 43t47.5 12t47.5 -12t13.5 -43q0 -32 -13.5 -45t-47.5 -13zM300 -14q-124 0 -171 67.5
t-47 242.5v504h62v-504q0 -145 33.5 -199t122.5 -54t122.5 54t33.5 199v504h62v-504q0 -175 -47 -242.5t-171 -67.5z" />
    <glyph glyph-name="uni01D6" unicode="&#x1d6;" 
d="M157 933v58h286v-58h-286zM192 726q-34 0 -47.5 12.5t-13.5 44.5q0 31 13.5 43.5t47.5 12.5t47.5 -12.5t13.5 -43.5q0 -32 -13.5 -44.5t-47.5 -12.5zM408 726q-34 0 -47.5 12.5t-13.5 44.5q0 31 13.5 43.5t47.5 12.5t47.5 -12.5t13.5 -43.5q0 -32 -13.5 -44.5
t-47.5 -12.5zM283 -14q-109 0 -150 49.5t-41 180.5v402h62v-402q0 -100 27.5 -136.5t101.5 -36.5q100 0 137 31t37 115v429h62v-618h-62v50q-28 -36 -66 -50t-108 -14z" />
    <glyph glyph-name="uni01D7" unicode="&#x1d7;" 
d="M290 930l-41 43l143 125l41 -43zM192 820q-34 0 -47.5 13t-13.5 45q0 31 13.5 43t47.5 12t47.5 -12t13.5 -43q0 -32 -13.5 -45t-47.5 -13zM408 820q-34 0 -47.5 13t-13.5 45q0 31 13.5 43t47.5 12t47.5 -12t13.5 -43q0 -32 -13.5 -45t-47.5 -13zM300 -14
q-124 0 -171 67.5t-47 242.5v504h62v-504q0 -145 33.5 -199t122.5 -54t122.5 54t33.5 199v504h62v-504q0 -175 -47 -242.5t-171 -67.5z" />
    <glyph glyph-name="uni01D8" unicode="&#x1d8;" 
d="M290 898l-41 44l143 125l41 -43zM192 726q-34 0 -47.5 12.5t-13.5 44.5q0 31 13.5 43.5t47.5 12.5t47.5 -12.5t13.5 -43.5q0 -32 -13.5 -44.5t-47.5 -12.5zM408 726q-34 0 -47.5 12.5t-13.5 44.5q0 31 13.5 43.5t47.5 12.5t47.5 -12.5t13.5 -43.5q0 -32 -13.5 -44.5
t-47.5 -12.5zM283 -14q-109 0 -150 49.5t-41 180.5v402h62v-402q0 -100 27.5 -136.5t101.5 -36.5q100 0 137 31t37 115v429h62v-618h-62v50q-28 -36 -66 -50t-108 -14z" />
    <glyph glyph-name="uni01D9" unicode="&#x1d9;" 
d="M300 939l-139 123l47 37l92 -80l91 82l48 -37zM192 820q-34 0 -47.5 13t-13.5 45q0 31 13.5 43t47.5 12t47.5 -12t13.5 -43q0 -32 -13.5 -45t-47.5 -13zM408 820q-34 0 -47.5 13t-13.5 45q0 31 13.5 43t47.5 12t47.5 -12t13.5 -43q0 -32 -13.5 -45t-47.5 -13zM300 -14
q-124 0 -171 67.5t-47 242.5v504h62v-504q0 -145 33.5 -199t122.5 -54t122.5 54t33.5 199v504h62v-504q0 -175 -47 -242.5t-171 -67.5z" />
    <glyph glyph-name="uni01DA" unicode="&#x1da;" 
d="M300 898l-139 123l47 37l92 -81l91 83l48 -37zM192 726q-34 0 -47.5 12.5t-13.5 44.5q0 31 13.5 43.5t47.5 12.5t47.5 -12.5t13.5 -43.5q0 -32 -13.5 -44.5t-47.5 -12.5zM408 726q-34 0 -47.5 12.5t-13.5 44.5q0 31 13.5 43.5t47.5 12.5t47.5 -12.5t13.5 -43.5
q0 -32 -13.5 -44.5t-47.5 -12.5zM283 -14q-109 0 -150 49.5t-41 180.5v402h62v-402q0 -100 27.5 -136.5t101.5 -36.5q100 0 137 31t37 115v429h62v-618h-62v50q-28 -36 -66 -50t-108 -14z" />
    <glyph glyph-name="uni01DB" unicode="&#x1db;" 
d="M310 930l-143 125l41 43l143 -125zM192 820q-34 0 -47.5 13t-13.5 45q0 31 13.5 43t47.5 12t47.5 -12t13.5 -43q0 -32 -13.5 -45t-47.5 -13zM408 820q-34 0 -47.5 13t-13.5 45q0 31 13.5 43t47.5 12t47.5 -12t13.5 -43q0 -32 -13.5 -45t-47.5 -13zM300 -14
q-124 0 -171 67.5t-47 242.5v504h62v-504q0 -145 33.5 -199t122.5 -54t122.5 54t33.5 199v504h62v-504q0 -175 -47 -242.5t-171 -67.5z" />
    <glyph glyph-name="uni01DC" unicode="&#x1dc;" 
d="M310 898l-143 126l41 43l143 -125zM192 726q-34 0 -47.5 12.5t-13.5 44.5q0 31 13.5 43.5t47.5 12.5t47.5 -12.5t13.5 -43.5q0 -32 -13.5 -44.5t-47.5 -12.5zM408 726q-34 0 -47.5 12.5t-13.5 44.5q0 31 13.5 43.5t47.5 12.5t47.5 -12.5t13.5 -43.5q0 -32 -13.5 -44.5
t-47.5 -12.5zM283 -14q-109 0 -150 49.5t-41 180.5v402h62v-402q0 -100 27.5 -136.5t101.5 -36.5q100 0 137 31t37 115v429h62v-618h-62v50q-28 -36 -66 -50t-108 -14z" />
    <glyph glyph-name="uni0218" unicode="&#x218;" 
d="M300 -14q-100 0 -151 25t-85 91l46 44q26 -59 66 -81t124 -22q96 0 132 37.5t36 137.5q0 69 -36 105.5t-134 69.5q-122 40 -168 85t-46 127q0 118 47 163.5t169 45.5q91 0 138.5 -22t80.5 -78l-43 -47q-26 52 -62.5 71t-113.5 19q-89 0 -121.5 -32.5t-32.5 -119.5
q0 -60 32.5 -91.5t123.5 -60.5q130 -40 179 -90t49 -145q0 -131 -50 -181.5t-180 -50.5zM242 -246l48 122q-25 7 -25 42q0 25 10 34t37 9q26 0 36 -9t10 -34q0 -52 -73 -164h-43z" />
    <glyph glyph-name="uni0219" unicode="&#x219;" 
d="M275 -14q-73 0 -113 23t-73 84l48 40q26 -52 54.5 -71t83.5 -19q110 0 151 27t41 99q0 63 -34 89t-129 37q-113 14 -159.5 52.5t-46.5 109.5q0 99 49.5 137t177.5 38q76 0 117.5 -19.5t75.5 -70.5l-44 -44q-27 45 -58 61t-91 16q-95 0 -130 -25t-35 -93q0 -43 33 -67.5
t113 -34.5q128 -17 175.5 -56.5t47.5 -129.5q0 -103 -55.5 -143t-198.5 -40zM242 -246l48 122q-25 7 -25 42q0 25 10 34t37 9q26 0 36 -9t10 -34q0 -52 -73 -164h-43z" />
    <glyph glyph-name="uni021A" unicode="&#x21a;" 
d="M574 800v-57h-243v-743h-62v743h-243v57h548zM312 -39q26 0 36 -9t10 -34q0 -52 -73 -164h-43l48 122q-25 7 -25 42q0 25 10 34t37 9z" />
    <glyph glyph-name="uni021B" unicode="&#x21b;" 
d="M365 -14q-98 0 -137 51t-39 173v353h-124v57h124v180h62v-180h208v-57h-208v-353q0 -91 25 -129t89 -38q52 0 75 13t37 48l58 -20q-20 -56 -56.5 -77t-113.5 -21zM302 -246l48 122q-25 7 -25 42q0 25 10 34t37 9q26 0 36 -9t10 -34q0 -52 -73 -164h-43z" />
    <glyph glyph-name="uni0237" unicode="&#x237;" 
d="M238 -196q-58 0 -92 13t-66 48l45 38q24 -24 47.5 -33t65.5 -9q88 0 120.5 40.5t32.5 151.5v508h-126v57h188v-565q0 -141 -46.5 -195t-168.5 -54z" />
    <glyph glyph-name="circumflex" unicode="&#x2c6;" 
d="M391 678l-91 82l-92 -80l-47 37l139 123l139 -125z" />
    <glyph glyph-name="caron" unicode="&#x2c7;" 
d="M300 690l-139 123l47 37l92 -80l91 82l48 -37z" />
    <glyph glyph-name="breve" unicode="&#x2d8;" 
d="M299 699q-74 0 -102.5 28t-27.5 99h62q0 -41 14 -55t54 -14q42 0 56 14t14 55h62q2 -71 -27 -99t-105 -28z" />
    <glyph glyph-name="dotaccent" unicode="&#x2d9;" 
d="M300 729q-41 0 -57 15t-16 53t16.5 53.5t56.5 15.5t56.5 -15.5t16.5 -53.5t-16 -53t-57 -15z" />
    <glyph glyph-name="ring" unicode="&#x2da;" 
d="M299 699q-73 0 -101.5 26.5t-28.5 94.5q0 67 28.5 93.5t101.5 26.5t102.5 -26.5t29.5 -93.5q0 -68 -28.5 -94.5t-103.5 -26.5zM299 756q41 0 55.5 13.5t14.5 50.5q0 36 -14.5 49.5t-55.5 13.5q-39 0 -53.5 -13.5t-14.5 -49.5q0 -37 14.5 -50.5t53.5 -13.5z" />
    <glyph glyph-name="ogonek" unicode="&#x2db;" 
d="M319 -207q-50 0 -80.5 24.5t-30.5 64.5q0 36 20.5 58.5t53.5 24.5v40h62v-96q-74 2 -74 -27q0 -14 13.5 -23t35.5 -9q40 0 65 30l27 -54q-33 -33 -92 -33z" />
    <glyph glyph-name="tilde" unicode="&#x2dc;" 
d="M367 698q-30 0 -75 38.5t-59 38.5q-17 0 -21.5 -12.5t-2.5 -38.5h-63q-2 48 22.5 78t64.5 30q29 0 74 -38.5t60 -38.5q17 0 21.5 11.5t2.5 36.5h63q2 -47 -22.5 -76t-64.5 -29z" />
    <glyph glyph-name="hungarumlaut" unicode="&#x2dd;" 
d="M154 679l-41 43l144 126l41 -43zM343 679l-41 43l144 126l41 -43z" />
    <glyph glyph-name="gravecomb" unicode="&#x300;" horiz-adv-x="0" 
d="M-290 683l-143 126l41 43l143 -125z" />
    <glyph glyph-name="acutecomb" unicode="&#x301;" horiz-adv-x="0" 
d="M-310 683l-41 44l143 125l41 -43z" />
    <glyph glyph-name="uni0302" unicode="&#x302;" horiz-adv-x="0" 
d="M-209 678l-91 82l-92 -80l-47 37l139 123l139 -125z" />
    <glyph glyph-name="tildecomb" unicode="&#x303;" horiz-adv-x="0" 
d="M-233 698q-30 0 -75 38.5t-59 38.5q-17 0 -21.5 -12.5t-2.5 -38.5h-63q-2 48 22.5 78t64.5 30q29 0 74 -38.5t60 -38.5q17 0 21.5 11.5t2.5 36.5h63q2 -47 -22.5 -76t-64.5 -29z" />
    <glyph glyph-name="uni0304" unicode="&#x304;" horiz-adv-x="0" 
d="M-443 718v58h286v-58h-286z" />
    <glyph glyph-name="uni0306" unicode="&#x306;" horiz-adv-x="0" 
d="M-301 679q-74 0 -102.5 28t-27.5 99h62q0 -41 14 -55t54 -14q42 0 56 14t14 55h62q2 -71 -27 -99t-105 -28z" />
    <glyph glyph-name="uni0307" unicode="&#x307;" horiz-adv-x="0" 
d="M-300 729q-41 0 -57 15t-16 53t16.5 53.5t56.5 15.5t56.5 -15.5t16.5 -53.5t-16 -53t-57 -15z" />
    <glyph glyph-name="uni0308" unicode="&#x308;" horiz-adv-x="0" 
d="M-408 726q-34 0 -47.5 12.5t-13.5 44.5q0 31 13.5 43.5t47.5 12.5t47.5 -12.5t13.5 -43.5q0 -32 -13.5 -44.5t-47.5 -12.5zM-192 726q-34 0 -47.5 12.5t-13.5 44.5q0 31 13.5 43.5t47.5 12.5t47.5 -12.5t13.5 -43.5q0 -32 -13.5 -44.5t-47.5 -12.5z" />
    <glyph glyph-name="hookabovecomb" unicode="&#x309;" horiz-adv-x="0" 
d="M-320 656l-15 55q65 15 65 48q0 14 -10.5 22.5t-23.5 8.5q-39 0 -88 -41v68q38 30 88 30q42 0 69 -23.5t27 -61.5q0 -37 -30 -66t-82 -40z" />
    <glyph glyph-name="uni030A" unicode="&#x30a;" horiz-adv-x="0" 
d="M-301 694q-73 0 -101.5 26.5t-28.5 94.5q0 67 28.5 93.5t101.5 26.5t102.5 -26.5t29.5 -93.5q0 -68 -28.5 -94.5t-103.5 -26.5zM-301 751q41 0 55.5 13.5t14.5 50.5t-14.5 50t-55.5 13q-39 0 -53.5 -13t-14.5 -50t14.5 -50.5t53.5 -13.5z" />
    <glyph glyph-name="uni030B" unicode="&#x30b;" horiz-adv-x="0" 
d="M-446 683l-41 44l144 125l41 -43zM-257 683l-41 44l144 125l41 -43z" />
    <glyph glyph-name="uni030C" unicode="&#x30c;" horiz-adv-x="0" 
d="M-300 683l-139 123l47 37l92 -81l91 83l48 -37z" />
    <glyph glyph-name="uni0312" unicode="&#x312;" horiz-adv-x="0" 
d="M-299 658q-26 0 -36.5 9t-10.5 34q0 52 74 164h42l-47 -123q25 -6 25 -41q0 -25 -10.5 -34t-36.5 -9z" />
    <glyph glyph-name="uni031B" unicode="&#x31b;" horiz-adv-x="0" 
d="M-250 643q-38 0 -71 31v57q22 -31 69 -31q24 0 38.5 19t14.5 51v136h62v-136q0 -57 -31.5 -92t-81.5 -35z" />
    <glyph glyph-name="dotbelowcomb" unicode="&#x323;" horiz-adv-x="0" 
d="M-300 -235q-40 0 -56.5 15.5t-16.5 53.5t16 53t57 15t57 -15t16 -53t-16.5 -53.5t-56.5 -15.5z" />
    <glyph glyph-name="uni0326" unicode="&#x326;" horiz-adv-x="0" 
d="M-376 -246l48 122q-25 7 -25 42q0 25 10 34t37 9q26 0 36 -9t10 -34q0 -52 -73 -164h-43z" />
    <glyph glyph-name="uni0327" unicode="&#x327;" horiz-adv-x="0" 
d="M-296 -207q-59 0 -92 33l27 54q25 -30 65 -30q22 0 35.5 9t13.5 23q0 29 -74 27v96h62v-40q33 -2 53.5 -24.5t20.5 -58.5q0 -40 -30.5 -64.5t-80.5 -24.5z" />
    <glyph glyph-name="uni0328" unicode="&#x328;" horiz-adv-x="0" 
d="M-179 -207q-50 0 -80.5 24.5t-30.5 64.5q0 36 20.5 58.5t53.5 24.5v40h62v-96q-74 2 -74 -27q0 -14 13.5 -23t35.5 -9q39 0 65 30l27 -54q-35 -33 -92 -33z" />
    <glyph glyph-name="uni0374" unicode="&#x374;" 
d="M269 481l-10 319h82l-10 -319h-62z" />
    <glyph glyph-name="uni0375" unicode="&#x375;" 
d="M259 -202l10 319h62l10 -319h-82z" />
    <glyph glyph-name="uni037E" unicode="&#x37e;" 
d="M300 481q-41 0 -57 15t-16 53q0 39 16 54t57 15t57 -15t16 -54q0 -38 -16 -53t-57 -15zM191 -202l75 192q-39 9 -39 65q0 38 16 53t57 15t57 -15t16 -53q0 -81 -116 -257h-66z" />
    <glyph glyph-name="tonos" unicode="&#x384;" 
d="M290 683l-41 44l143 125l41 -43z" />
    <glyph glyph-name="dieresistonos" unicode="&#x385;" 
d="M250 683l-41 44l143 125l41 -43zM130 710q-34 0 -47.5 12.5t-13.5 44.5q0 31 13.5 43.5t47.5 12.5t47.5 -12.5t13.5 -43.5q0 -32 -13.5 -44.5t-47.5 -12.5zM470 710q-34 0 -47.5 12.5t-13.5 44.5q0 31 13.5 43.5t47.5 12.5t47.5 -12.5t13.5 -43.5q0 -32 -13.5 -44.5
t-47.5 -12.5z" />
    <glyph glyph-name="Alphatonos" unicode="&#x386;" 
d="M222 757l-144 -126l-41 44l144 125zM492 0l-57 210h-270l-57 -210h-64l222 800h68l222 -800h-64zM181 268h238l-119 434z" />
    <glyph glyph-name="anoteleia" unicode="&#x387;" 
d="M300 331q-40 0 -56.5 15.5t-16.5 53.5t16.5 53.5t56.5 15.5t56.5 -15.5t16.5 -53.5t-16.5 -53.5t-56.5 -15.5z" />
    <glyph glyph-name="Epsilontonos" unicode="&#x388;" 
d="M-128 675l144 125l41 -43l-144 -126zM532 743h-374v-291h240v-58h-240v-337h374v-57h-436v800h436v-57z" />
    <glyph glyph-name="Etatonos" unicode="&#x389;" 
d="M-147 675l144 125l41 -43l-144 -126zM460 800h62v-800h-62v394h-320v-394h-62v800h62v-348h320v348z" />
    <glyph glyph-name="Iotatonos" unicode="&#x38a;" 
d="M-121 675l144 125l41 -43l-144 -126zM493 743h-162v-686h162v-57h-386v57h162v686h-162v57h386v-57z" />
    <glyph glyph-name="Omicrontonos" unicode="&#x38c;" 
d="M300 -14q-135 0 -187 81.5t-52 292.5v80q0 211 52 292.5t187 81.5t187 -81.5t52 -292.5v-80q0 -211 -52 -292.5t-187 -81.5zM-65 631l-41 44l144 125l41 -43zM300 43q101 0 139 68t38 249v80q0 181 -38 249t-139 68q-102 0 -140 -68t-37 -249v-80q1 -181 39 -249t138 -68
z" />
    <glyph glyph-name="Upsilontonos" unicode="&#x38e;" 
d="M-165 631l-41 44l144 125l41 -43zM269 0v304l-236 496h68l199 -418l199 418h68l-236 -496v-304h-62z" />
    <glyph glyph-name="Omegatonos" unicode="&#x38f;" 
d="M23 0v57h98q-34 42 -46.5 108t-12.5 195v80q0 211 51.5 292.5t184.5 81.5q135 0 186.5 -81.5t51.5 -292.5v-80q0 -130 -12.5 -196t-45.5 -107h99v-57h-226v58q49 0 74.5 27t37 91t11.5 184v80q0 180 -38 248.5t-138 68.5q-99 0 -136.5 -68.5t-37.5 -248.5v-80
q0 -177 26 -239.5t99 -62.5v-58h-226zM-65 631l-41 44l144 125l41 -43z" />
    <glyph glyph-name="iotadieresistonos" unicode="&#x390;" 
d="M191 683l-41 44l143 125l41 -43zM71 710q-34 0 -47.5 12.5t-13.5 44.5q0 31 13.5 43.5t47.5 12.5t47.5 -12.5t13.5 -43.5q0 -32 -13.5 -44.5t-47.5 -12.5zM411 710q-34 0 -47.5 12.5t-13.5 44.5q0 31 13.5 43.5t47.5 12.5t47.5 -12.5t13.5 -43.5q0 -32 -13.5 -44.5
t-47.5 -12.5zM368 -14q-89 0 -123 48.5t-34 177.5v406h62v-406q0 -96 20.5 -132.5t74.5 -36.5q37 0 87 41l35 -54q-68 -44 -122 -44z" />
    <glyph glyph-name="Alpha" unicode="&#x391;" 
d="M492 0l-57 210h-270l-57 -210h-64l222 800h68l222 -800h-64zM181 268h238l-119 434z" />
    <glyph glyph-name="Beta" unicode="&#x392;" 
d="M88 0v800h196q125 0 173 -44t48 -157q0 -74 -20.5 -110.5t-73.5 -59.5q68 -22 93.5 -65.5t25.5 -136.5q0 -128 -48 -177.5t-173 -49.5h-221zM150 452h134q92 0 125.5 30.5t33.5 116.5q0 83 -34 113.5t-125 30.5h-134v-291zM150 57h159q91 0 125 36.5t34 133.5t-33.5 132
t-125.5 35h-159v-337z" />
    <glyph glyph-name="Gamma" unicode="&#x393;" 
d="M533 800v-57h-374v-743h-62v800h436z" />
    <glyph glyph-name="uni0394" unicode="&#x394;" 
d="M44 0l221 800h70l221 -800h-512zM123 57h354l-177 645z" />
    <glyph glyph-name="Epsilon" unicode="&#x395;" 
d="M532 743h-374v-291h240v-58h-240v-337h374v-57h-436v800h436v-57z" />
    <glyph glyph-name="Zeta" unicode="&#x396;" 
d="M53 0v48l419 695h-417v57h492v-49l-419 -694h417v-57h-492z" />
    <glyph glyph-name="Eta" unicode="&#x397;" 
d="M460 800h62v-800h-62v394h-320v-394h-62v800h62v-348h320v348z" />
    <glyph glyph-name="Theta" unicode="&#x398;" 
d="M192 903v58h215v-58h-215zM300 -14q-135 0 -187 81.5t-52 292.5v80q0 211 52 292.5t187 81.5t187 -81.5t52 -292.5v-80q0 -211 -52 -292.5t-187 -81.5zM300 43q101 0 139 68t38 249v80q0 181 -38 249t-139 68q-102 0 -140 -68t-37 -249v-80q1 -181 39 -249t138 -68z" />
    <glyph glyph-name="Iota" unicode="&#x399;" 
d="M493 743h-162v-686h162v-57h-386v57h162v686h-162v57h386v-57z" />
    <glyph glyph-name="Kappa" unicode="&#x39a;" 
d="M494 0l-270 394h-78v-394h-62v800h62v-348h54l287 348h77l-297 -360l301 -440h-74z" />
    <glyph glyph-name="Lambda" unicode="&#x39b;" 
d="M44 0l221 800h70l221 -800h-63l-193 701l-193 -701h-63z" />
    <glyph glyph-name="Mu" unicode="&#x39c;" 
d="M54 0l14 800h61l171 -449l171 449h61l14 -800h-62l-12 642l-143 -386h-58l-143 386l-12 -642h-62z" />
    <glyph glyph-name="Nu" unicode="&#x39d;" 
d="M458 800h62v-800h-67l-311 667v-667h-62v800h67l311 -667v667z" />
    <glyph glyph-name="Xi" unicode="&#x39e;" 
d="M44 743v57h512v-57h-512zM114 371v58h372v-58h-372zM44 0v57h512v-57h-512z" />
    <glyph glyph-name="Omicron" unicode="&#x39f;" 
d="M300 -14q-135 0 -187 81.5t-52 292.5v80q0 211 52 292.5t187 81.5t187 -81.5t52 -292.5v-80q0 -211 -52 -292.5t-187 -81.5zM300 43q101 0 139 68t38 249v80q0 181 -38 249t-139 68q-102 0 -140 -68t-37 -249v-80q1 -181 39 -249t138 -68z" />
    <glyph glyph-name="Pi" unicode="&#x3a0;" 
d="M66 0v800h468v-800h-62v743h-344v-743h-62z" />
    <glyph glyph-name="Rho" unicode="&#x3a1;" 
d="M320 800q125 0 173 -49.5t48 -176.5q0 -129 -48 -177.5t-173 -48.5h-158v-348h-62v800h220zM320 405q91 0 125 35.5t34 133.5q0 97 -34 133t-125 36h-158v-338h158z" />
    <glyph glyph-name="Sigma" unicode="&#x3a3;" 
d="M54 0v53l239 347l-239 347v53h502v-57h-423l236 -343l-236 -343h423v-57h-502z" />
    <glyph glyph-name="Tau" unicode="&#x3a4;" 
d="M574 800v-57h-243v-743h-62v743h-243v57h548z" />
    <glyph glyph-name="Upsilon" unicode="&#x3a5;" 
d="M269 0v304l-236 496h68l199 -418l199 418h68l-236 -496v-304h-62z" />
    <glyph glyph-name="Phi" unicode="&#x3a6;" 
d="M588 401q0 -161 -56 -226t-201 -70v-105h-62v106q-146 5 -201.5 69.5t-55.5 225.5q0 160 55.5 224.5t201.5 69.5v105h62v-104q145 -5 201 -70t56 -225zM331 163q110 4 152.5 56.5t42.5 181.5q0 128 -42.5 180.5t-152.5 56.5v-475zM74 401q0 -128 42.5 -180.5t152.5 -57.5
v475q-110 -5 -152.5 -57t-42.5 -180z" />
    <glyph glyph-name="Chi" unicode="&#x3a7;" 
d="M549 800l-214 -400l214 -400h-69l-180 336l-180 -336h-69l215 400l-215 400h69l180 -336l180 336h69z" />
    <glyph glyph-name="Psi" unicode="&#x3a8;" 
d="M512 800h62v-282q0 -155 -53 -217.5t-190 -66.5v-234h-62v234q-137 4 -190 66.5t-53 217.5v282h62v-282q0 -121 39.5 -171t141.5 -55v508h62v-508q102 5 141.5 55t39.5 171v282z" />
    <glyph glyph-name="uni03A9" unicode="&#x3a9;" 
d="M23 0v57h98q-34 42 -46.5 108t-12.5 195v80q0 211 51.5 292.5t184.5 81.5q135 0 186.5 -81.5t51.5 -292.5v-80q0 -130 -12.5 -196t-45.5 -107h99v-57h-226v58q49 0 74.5 27t37 91t11.5 184v80q0 180 -38 248.5t-138 68.5q-99 0 -136.5 -68.5t-37.5 -248.5v-80
q0 -177 26 -239.5t99 -62.5v-58h-226z" />
    <glyph glyph-name="Iotadieresis" unicode="&#x3aa;" 
d="M192 911q-34 0 -47.5 12.5t-13.5 44.5q0 31 13.5 43.5t47.5 12.5t47.5 -12.5t13.5 -43.5q0 -32 -13.5 -44.5t-47.5 -12.5zM408 911q-34 0 -47.5 12.5t-13.5 44.5q0 31 13.5 43.5t47.5 12.5t47.5 -12.5t13.5 -43.5q0 -32 -13.5 -44.5t-47.5 -12.5zM493 743h-162v-686h162
v-57h-386v57h162v686h-162v57h386v-57z" />
    <glyph glyph-name="Upsilondieresis" unicode="&#x3ab;" 
d="M192 911q-34 0 -47.5 12.5t-13.5 44.5q0 31 13.5 43.5t47.5 12.5t47.5 -12.5t13.5 -43.5q0 -32 -13.5 -44.5t-47.5 -12.5zM408 911q-34 0 -47.5 12.5t-13.5 44.5q0 31 13.5 43.5t47.5 12.5t47.5 -12.5t13.5 -43.5q0 -32 -13.5 -44.5t-47.5 -12.5zM269 0v304l-236 496h68
l199 -418l199 418h68l-236 -496v-304h-62z" />
    <glyph glyph-name="alphatonos" unicode="&#x3ac;" 
d="M392 809l-143 -126l-41 44l143 125zM529 120l55 -29q-35 -60 -61 -82.5t-62 -22.5q-47 0 -70 16.5t-30 55.5q-48 -72 -130 -72q-107 0 -148 70.5t-41 252.5t41 252.5t148 70.5q78 0 127 -67v53h62v-514q0 -36 8.5 -48.5t32.5 -12.5q14 0 28 16t40 61zM231 43
q72 0 99.5 57t27.5 209t-27.5 209t-99.5 57t-99.5 -57t-27.5 -209t27.5 -209t99.5 -57z" />
    <glyph glyph-name="epsilontonos" unicode="&#x3ad;" 
d="M249 683l-41 44l143 125l41 -43zM300 -14q-128 0 -176.5 35.5t-48.5 129.5q0 64 20 99.5t73 62.5q-53 27 -73 60.5t-20 94.5q0 93 48.5 128.5t176.5 35.5t176.5 -32t48.5 -118h-62q0 53 -35 73t-128 20q-92 0 -127.5 -23t-35.5 -84q0 -67 31 -94t112 -32h76v-58h-76
q-81 -5 -112 -34t-31 -99q0 -61 35.5 -84.5t127.5 -23.5q93 0 128 21t35 77h62q0 -88 -48.5 -121.5t-176.5 -33.5z" />
    <glyph glyph-name="etatonos" unicode="&#x3ae;" 
d="M392 809l-143 -126l-41 44l143 125zM346 631q105 0 139 -49.5t34 -184.5v-579h-62v579q0 103 -23.5 140t-95.5 37q-94 0 -129 -35t-35 -131v-408h-62v497q0 47 -7 57.5t-45 10.5v53q74 0 94 -10t20 -57q50 80 172 80z" />
    <glyph glyph-name="iotatonos" unicode="&#x3af;" 
d="M190 683l-41 44l143 125l41 -43zM368 -14q-89 0 -123 48.5t-34 177.5v406h62v-406q0 -96 20.5 -132.5t74.5 -36.5q37 0 87 41l35 -54q-68 -44 -122 -44z" />
    <glyph glyph-name="upsilondieresistonos" unicode="&#x3b0;" 
d="M240 683l-41 44l143 125l41 -43zM120 710q-34 0 -47.5 12.5t-13.5 44.5q0 31 13.5 43.5t47.5 12.5t47.5 -12.5t13.5 -43.5q0 -32 -13.5 -44.5t-47.5 -12.5zM460 710q-34 0 -47.5 12.5t-13.5 44.5q0 31 13.5 43.5t47.5 12.5t47.5 -12.5t13.5 -43.5q0 -32 -13.5 -44.5
t-47.5 -12.5zM300 -14q-130 0 -179.5 73.5t-49.5 264.5v294h62v-294q0 -160 36 -220.5t131 -60.5t131 60.5t36 220.5q0 111 -17 174.5t-61 119.5h70q39 -55 54.5 -118t15.5 -176q0 -191 -49.5 -264.5t-179.5 -73.5z" />
    <glyph glyph-name="alpha" unicode="&#x3b1;" 
d="M529 120l55 -29q-35 -60 -61 -82.5t-62 -22.5q-47 0 -70 16.5t-30 55.5q-48 -72 -130 -72q-107 0 -148 70.5t-41 252.5t41 252.5t148 70.5q78 0 127 -67v53h62v-514q0 -36 8.5 -48.5t32.5 -12.5q14 0 28 16t40 61zM231 43q72 0 99.5 57t27.5 209t-27.5 209t-99.5 57
t-99.5 -57t-27.5 -209t27.5 -209t99.5 -57z" />
    <glyph glyph-name="beta" unicode="&#x3b2;" 
d="M398 456q89 -23 123 -71t34 -149q0 -145 -49 -200.5t-176 -55.5q-136 0 -193 74v-207h-62v775q0 112 44.5 155t160.5 43t160.5 -43t44.5 -155q0 -67 -19 -103.5t-68 -62.5zM330 38q93 0 128 42t35 156q0 101 -41.5 141t-151.5 47h-64v58h64q71 5 97 35t26 105
q0 81 -30 110.5t-113 29.5t-113 -29.5t-30 -110.5v-379q0 -118 41 -161.5t152 -43.5z" />
    <glyph glyph-name="gamma" unicode="&#x3b3;" 
d="M538 460q0 -93 -43.5 -192t-160.5 -268v-182h-62v182l-233 618h65l207 -547q93 137 129 224t36 165q0 47 -11 81t-39 77h72q23 -40 31.5 -74t8.5 -84z" />
    <glyph glyph-name="delta" unicode="&#x3b4;" 
d="M518 350q3 -36 3 -81q0 -159 -48 -221t-173 -62t-173 62t-48 221t48 221t173 62h9q-8 5 -45.5 24.5t-48.5 27.5t-32.5 25.5t-29 35.5t-7.5 41q0 49 43 78.5t114 29.5q99 0 166 -31l-22 -51q-84 25 -144 25q-43 0 -69 -14t-26 -37q0 -21 32 -43.5t74 -41.5t91.5 -57.5
t76.5 -86.5q9 -14 17 -35q16 -44 19 -92zM300 43q91 0 125 48.5t34 177.5q0 23 -2 59v2q-7 92 -42 128.5t-115 36.5q-91 0 -125 -48.5t-34 -177.5t34 -177.5t125 -48.5z" />
    <glyph glyph-name="epsilon" unicode="&#x3b5;" 
d="M300 -14q-128 0 -176.5 35.5t-48.5 129.5q0 64 20 99.5t73 62.5q-53 27 -73 60.5t-20 94.5q0 93 48.5 128.5t176.5 35.5t176.5 -32t48.5 -118h-62q0 53 -35 73t-128 20q-92 0 -127.5 -23t-35.5 -84q0 -67 31 -94t112 -32h76v-58h-76q-81 -5 -112 -34t-31 -99
q0 -61 35.5 -84.5t127.5 -23.5q93 0 128 21t35 77h62q0 -88 -48.5 -121.5t-176.5 -33.5z" />
    <glyph glyph-name="zeta" unicode="&#x3b6;" 
d="M150 294q0 -59 30 -102.5t75 -65.5t97 -42.5t97 -35.5t75 -43.5t30 -67.5q0 -30 -21 -63t-55 -56l-38 48q22 13 37 33.5t15 37.5q0 19 -22.5 34.5t-58 28.5t-78.5 27t-86 36t-78.5 50.5t-58 75t-22.5 105.5q0 124 84 246.5t225 202.5h-253v57h376v-57
q-161 -71 -265.5 -196t-104.5 -253z" />
    <glyph glyph-name="eta" unicode="&#x3b7;" 
d="M346 631q105 0 139 -49.5t34 -184.5v-579h-62v579q0 103 -23.5 140t-95.5 37q-94 0 -129 -35t-35 -131v-408h-62v497q0 47 -7 57.5t-45 10.5v53q74 0 94 -10t20 -57q50 80 172 80z" />
    <glyph glyph-name="theta" unicode="&#x3b8;" 
d="M300 814q102 0 170.5 -116t68.5 -298t-68.5 -298t-170.5 -116t-170.5 116t-68.5 298t68.5 298t170.5 116zM300 757q-70 0 -120.5 -91.5t-55.5 -236.5h352q-5 145 -55.5 236.5t-120.5 91.5zM300 43q70 0 120.5 91.5t55.5 236.5h-352q5 -145 55.5 -236.5t120.5 -91.5z" />
    <glyph glyph-name="iota" unicode="&#x3b9;" 
d="M368 -14q-89 0 -123 48.5t-34 177.5v406h62v-406q0 -96 20.5 -132.5t74.5 -36.5q37 0 87 41l35 -54q-68 -44 -122 -44z" />
    <glyph glyph-name="kappa" unicode="&#x3ba;" 
d="M120 0v618h62v-258h43q30 19 55.5 53.5t43.5 68t40 65.5t56 51.5t81 19.5v-57q-42 0 -73 -28t-47.5 -63.5t-43 -76.5t-57.5 -60l261 -333h-75l-237 302h-47v-302h-62z" />
    <glyph glyph-name="lambda" unicode="&#x3bb;" 
d="M532 57h44v-57h-56q-33 0 -61 15t-50 47t-38.5 64t-32.5 85t-26 91t-24 98q-2 10 -3.5 15t-3 13t-3.5 14l-182 -442h-64l222 537q-28 99 -62 152.5t-84 53.5h-44v57h56q52 0 92 -41t65 -106.5t46 -145t40 -158.5t40 -144.5t54 -106.5t75 -41z" />
    <glyph glyph-name="uni03BC" unicode="&#x3bc;" 
d="M79 -182v800h62v-437q4 -78 33.5 -108t100.5 -30q64 0 121 42.5t57 111.5v421h62v-618h-62v73q-23 -43 -71.5 -65t-106.5 -22q-91 0 -134 33v-201h-62z" />
    <glyph glyph-name="nu" unicode="&#x3bd;" 
d="M498 618q23 -40 31.5 -74t8.5 -84q0 -93 -43.5 -191.5t-160.5 -268.5h-62l-233 618h65l207 -547q93 137 129 224t36 165q0 47 -11 81t-39 77h72z" />
    <glyph glyph-name="xi" unicode="&#x3be;" 
d="M150 255q0 -36 41.5 -60t101 -40.5t119 -38t101 -66.5t41.5 -113q0 -38 -16.5 -64t-59.5 -55l-38 47q30 19 41 34t11 38q0 44 -30 75.5t-75 47t-97 33t-97 34t-75 49.5t-30 79q0 75 49 121.5t168 81.5q-88 13 -125 44t-37 88q0 53 33.5 88.5t112.5 64.5h-145v57h371
q1 0 2.5 0.5t2.5 0.5v-58h-5q-177 -36 -243.5 -68.5t-66.5 -84.5q0 -49 67 -68t242 -19q1 0 3 0.5t3 0.5v-58h-4q-208 -46 -287 -87.5t-79 -103.5z" />
    <glyph glyph-name="omicron" unicode="&#x3bf;" 
d="M300 -14q-125 0 -173 70.5t-48 252.5t48 252.5t173 70.5t173 -70.5t48 -252.5t-48 -252.5t-173 -70.5zM300 43q91 0 125 57t34 209t-34 209t-125 57t-125 -57t-34 -209t34 -209t125 -57z" />
    <glyph glyph-name="pi" unicode="&#x3c0;" 
d="M555 561h-103v-419q0 -51 21 -68t82 -17v-57q-84 -2 -124.5 32.5t-40.5 109.5v419h-193v-561h-62v561h-100v57h520v-57z" />
    <glyph glyph-name="rho" unicode="&#x3c1;" 
d="M300 632q125 0 173 -70.5t48 -252.5t-48 -252.5t-173 -70.5q-101 0 -159 79v-247h-62v491q0 182 48 252.5t173 70.5zM300 43q91 0 125 57t34 209t-34 209t-125 57t-125 -57t-34 -209t34 -209t125 -57z" />
    <glyph glyph-name="uni03C2" unicode="&#x3c2;" 
d="M394 -182l-49 35q52 68 52 106q0 45 -19.5 75.5t-51.5 46.5t-70 28.5t-76 28.5t-70 39t-51.5 67.5t-19.5 106.5q0 160 61.5 220.5t224.5 60.5q139 0 191 -50.5t52 -184.5h-62q0 101 -39 139.5t-142 38.5q-127 0 -175.5 -48.5t-48.5 -175.5q0 -45 15.5 -77.5t40.5 -50.5
t57 -33t66 -24.5t66 -26t57 -37t40.5 -57t15.5 -86.5q0 -32 -14 -62.5t-51 -78.5z" />
    <glyph glyph-name="sigma" unicode="&#x3c3;" 
d="M570 632v-57h-102q53 -66 53 -266q0 -182 -48 -252.5t-173 -70.5t-173 70.5t-48 252.5t48 252.5t173 70.5h270zM459 309q0 152 -34 209t-125 57t-125 -57t-34 -209t34 -209t125 -57t125 57t34 209z" />
    <glyph glyph-name="tau" unicode="&#x3c4;" 
d="M492 84l36 -54q-69 -44 -122 -44q-90 0 -123.5 48.5t-33.5 177.5v349h-190v57h456v-57h-204v-349q0 -96 20.5 -132.5t74.5 -36.5q37 0 86 41z" />
    <glyph glyph-name="upsilon" unicode="&#x3c5;" 
d="M300 -14q-130 0 -179.5 73.5t-49.5 264.5v294h62v-294q0 -160 36 -220.5t131 -60.5t131 60.5t36 220.5q0 111 -17 174.5t-61 119.5h70q39 -55 54.5 -118t15.5 -176q0 -191 -49.5 -264.5t-179.5 -73.5z" />
    <glyph glyph-name="phi" unicode="&#x3c6;" 
d="M521 309q0 -173 -44 -244t-158 -78q-1 -52 -1 -169h-62q0 117 1 169q-100 7 -139 78.5t-39 243.5q0 134 43 221.5t114 98.5v-59q-43 -11 -69 -83t-26 -178q0 -139 25.5 -197.5t90.5 -66.5q3 233 16 356.5t39.5 177t76.5 53.5q75 0 103.5 -70t28.5 -253zM319 44
q79 8 109.5 66t30.5 199q0 150 -14 208t-50 58q-37 0 -54.5 -117.5t-21.5 -413.5z" />
    <glyph glyph-name="chi" unicode="&#x3c7;" 
d="M532 -125h44v-57h-56q-43 0 -77.5 26t-60.5 78t-42.5 102.5t-35.5 125.5l-177 -332h-68l224 421q-12 51 -20.5 83t-21.5 74.5t-25.5 67.5t-28.5 50t-36 36t-43 11h-44v57h56q40 0 72.5 -23.5t57 -68.5t41.5 -93t34 -115l160 300h69l-207 -388q46 -193 76 -258
q45 -97 109 -97z" />
    <glyph glyph-name="psi" unicode="&#x3c8;" 
d="M574 336q0 -155 -53 -217.5t-190 -66.5v-234h-62v234q-137 4 -190 66.5t-53 217.5v182h62v-182q0 -121 39.5 -171t141.5 -55v508h62v-508q102 5 141.5 55t39.5 171q0 69 -8.5 108t-31.5 74h62q23 -35 31.5 -74t8.5 -108z" />
    <glyph glyph-name="omega" unicode="&#x3c9;" 
d="M496 618q31 -43 50.5 -124t19.5 -170q0 -193 -32 -265.5t-116 -72.5q-86 0 -118 76q-32 -76 -118 -76q-84 0 -116 72.5t-32 265.5q0 89 19.5 170t50.5 124h71q-36 -47 -57.5 -127.5t-21.5 -166.5q0 -160 18.5 -220.5t67.5 -60.5q50 0 68.5 62t18.5 225h62
q0 -163 18.5 -225t68.5 -62q49 0 67.5 60.5t18.5 220.5q0 86 -21.5 166.5t-57.5 127.5h71z" />
    <glyph glyph-name="iotadieresis" unicode="&#x3ca;" 
d="M133 726q-34 0 -47.5 12.5t-13.5 44.5q0 31 13.5 43.5t47.5 12.5t47.5 -12.5t13.5 -43.5q0 -32 -13.5 -44.5t-47.5 -12.5zM349 726q-34 0 -47.5 12.5t-13.5 44.5q0 31 13.5 43.5t47.5 12.5t47.5 -12.5t13.5 -43.5q0 -32 -13.5 -44.5t-47.5 -12.5zM368 -14
q-89 0 -123 48.5t-34 177.5v406h62v-406q0 -96 20.5 -132.5t74.5 -36.5q37 0 87 41l35 -54q-68 -44 -122 -44z" />
    <glyph glyph-name="upsilondieresis" unicode="&#x3cb;" 
d="M182 726q-34 0 -47.5 12.5t-13.5 44.5q0 31 13.5 43.5t47.5 12.5t47.5 -12.5t13.5 -43.5q0 -32 -13.5 -44.5t-47.5 -12.5zM398 726q-34 0 -47.5 12.5t-13.5 44.5q0 31 13.5 43.5t47.5 12.5t47.5 -12.5t13.5 -43.5q0 -32 -13.5 -44.5t-47.5 -12.5zM300 -14
q-130 0 -179.5 73.5t-49.5 264.5v294h62v-294q0 -160 36 -220.5t131 -60.5t131 60.5t36 220.5q0 111 -17 174.5t-61 119.5h70q39 -55 54.5 -118t15.5 -176q0 -191 -49.5 -264.5t-179.5 -73.5z" />
    <glyph glyph-name="omicrontonos" unicode="&#x3cc;" 
d="M249 683l-41 44l143 125l41 -43zM300 -14q-125 0 -173 70.5t-48 252.5t48 252.5t173 70.5t173 -70.5t48 -252.5t-48 -252.5t-173 -70.5zM300 43q91 0 125 57t34 209t-34 209t-125 57t-125 -57t-34 -209t34 -209t125 -57z" />
    <glyph glyph-name="upsilontonos" unicode="&#x3cd;" 
d="M239 683l-41 44l143 125l41 -43zM300 -14q-130 0 -179.5 73.5t-49.5 264.5v294h62v-294q0 -160 36 -220.5t131 -60.5t131 60.5t36 220.5q0 111 -17 174.5t-61 119.5h70q39 -55 54.5 -118t15.5 -176q0 -191 -49.5 -264.5t-179.5 -73.5z" />
    <glyph glyph-name="omegatonos" unicode="&#x3ce;" 
d="M392 809l-143 -126l-41 44l143 125zM496 618q31 -43 50.5 -124t19.5 -170q0 -193 -32 -265.5t-116 -72.5q-86 0 -118 76q-32 -76 -118 -76q-84 0 -116 72.5t-32 265.5q0 89 19.5 170t50.5 124h71q-36 -47 -57.5 -127.5t-21.5 -166.5q0 -160 18.5 -220.5t67.5 -60.5
q50 0 68.5 62t18.5 225h62q0 -163 18.5 -225t68.5 -62q49 0 67.5 60.5t18.5 220.5q0 86 -21.5 166.5t-57.5 127.5h71z" />
    <glyph glyph-name="uni03CF" unicode="&#x3cf;" 
d="M267 440l301 -440l-93 -132h-73l92 132l-270 394h-78v-394h-62v800h62v-348h54l287 348h77z" />
    <glyph glyph-name="uni03D7" unicode="&#x3d7;" 
d="M395 344q-8 -139 33 -216t128 -73v-95q0 -70 -29.5 -113t-78.5 -43q-70 0 -134 39l30 49q65 -31 104 -31q20 0 33 27.5t13 71.5v40q-71 3 -115.5 84t-45.5 215q-10 -7 -96 -68q-4 -124 -29 -184.5t-89 -60.5q-67 0 -83 43.5t25 112.5q18 33 116 108v112q0 93 -32.5 147.5
t-84.5 50.5v58q79 3 129 -68.5t50 -187.5v-65q11 8 30.5 22.5t35.5 26.5t30 23q7 89 29 178q10 38 39.5 61.5t63.5 23.5q64 0 85.5 -37t-6.5 -97q-33 -67 -151 -154zM424 529q-11 -43 -20 -104q68 59 82 92q12 27 6.5 42.5t-25.5 15.5q-12 0 -25.5 -13.5t-17.5 -32.5z
M119 43q27 0 39.5 33t16.5 106q-42 -35 -62 -69q-20 -33 -18 -51.5t24 -18.5z" />
    <glyph glyph-name="uni0401" unicode="&#x401;" 
d="M206 911q-34 0 -47.5 12.5t-13.5 44.5q0 31 13.5 43.5t47.5 12.5t47.5 -12.5t13.5 -43.5q0 -32 -13.5 -44.5t-47.5 -12.5zM422 911q-34 0 -47.5 12.5t-13.5 44.5q0 31 13.5 43.5t47.5 12.5t47.5 -12.5t13.5 -43.5q0 -32 -13.5 -44.5t-47.5 -12.5zM532 743h-374v-291h240
v-58h-240v-337h374v-57h-436v800h436v-57z" />
    <glyph glyph-name="uni0410" unicode="&#x410;" 
d="M492 0l-57 210h-270l-57 -210h-64l222 800h68l222 -800h-64zM181 268h238l-119 434z" />
    <glyph glyph-name="uni0411" unicode="&#x411;" 
d="M88 0v800h362v-57h-300v-245h159q126 0 173.5 -53t47.5 -195q0 -143 -47.5 -196.5t-173.5 -53.5h-221zM150 57h159q90 0 124.5 41.5t34.5 151.5q0 109 -34.5 150t-124.5 41h-159v-384z" />
    <glyph glyph-name="uni0412" unicode="&#x412;" 
d="M88 0v800h196q125 0 173 -44t48 -157q0 -74 -20.5 -110.5t-73.5 -59.5q68 -22 93.5 -65.5t25.5 -136.5q0 -128 -48 -177.5t-173 -49.5h-221zM150 452h134q92 0 125.5 30.5t33.5 116.5q0 83 -34 113.5t-125 30.5h-134v-291zM150 57h159q91 0 125 36.5t34 133.5t-33.5 132
t-125.5 35h-159v-337z" />
    <glyph glyph-name="uni0413" unicode="&#x413;" 
d="M533 800v-57h-374v-743h-62v800h436z" />
    <glyph glyph-name="uni0414" unicode="&#x414;" 
d="M518 57h50v-145h-62v88h-412v-88h-62v145h31q75 49 103.5 202t51.5 541h300v-743zM149 57h307v686h-181q-19 -326 -46 -481t-80 -205z" />
    <glyph glyph-name="uni0415" unicode="&#x415;" 
d="M532 743h-374v-291h240v-58h-240v-337h374v-57h-436v800h436v-57z" />
    <glyph glyph-name="uni0416" unicode="&#x416;" 
d="M0 800h68l201 -400l-201 -400h-68l201 400zM269 800h62v-800h-62v800zM600 800l-201 -400l201 -400h-68l-201 400l201 400h68z" />
    <glyph glyph-name="uni0417" unicode="&#x417;" 
d="M300 -14q-128 0 -176.5 44.5t-48.5 159.5h62q0 -85 34 -116t129 -31q93 0 128 36t35 132q0 101 -30.5 139.5t-112.5 43.5h-76v58h76q82 5 112.5 37t30.5 115q0 87 -35 120t-128 33q-95 0 -129 -28.5t-34 -106.5h-62q0 109 48 150.5t177 41.5q127 0 176 -46t49 -164
q0 -76 -20 -115t-73 -66q53 -28 73 -73.5t20 -138.5q0 -127 -49 -176t-176 -49z" />
    <glyph glyph-name="uni0418" unicode="&#x418;" 
d="M520 800v-800h-62v667l-311 -667h-67v800h62v-667l311 667h67z" />
    <glyph glyph-name="uni0419" unicode="&#x419;" 
d="M299 861q-74 0 -102.5 28t-27.5 99h72q-16 -40 -5 -54.5t63 -14.5q54 0 65 14.5t-5 54.5h72q1 -71 -28 -99t-104 -28zM520 800v-800h-62v667l-311 -667h-67v800h62v-667l311 667h67z" />
    <glyph glyph-name="uni041A" unicode="&#x41a;" 
d="M559 800q-53 -35 -92.5 -98t-59.5 -118.5t-55.5 -108t-83.5 -70.5l289 -405h-75l-279 394h-64v-394h-62v800h62v-348h51q49 2 83 28.5t54.5 68.5t37.5 87t44 91t63 73h87z" />
    <glyph glyph-name="uni041B" unicode="&#x41b;" 
d="M542 800v-800h-62v743h-209q-27 -475 -62.5 -609t-160.5 -134v57q22 0 39 6.5t31 25.5t24.5 43.5t19.5 71t15.5 96.5t13 131t11.5 164t11 205h329z" />
    <glyph glyph-name="uni041C" unicode="&#x41c;" 
d="M54 0l14 800h61l171 -449l171 449h61l14 -800h-62l-12 642l-143 -386h-58l-143 386l-12 -642h-62z" />
    <glyph glyph-name="uni041D" unicode="&#x41d;" 
d="M460 800h62v-800h-62v394h-320v-394h-62v800h62v-348h320v348z" />
    <glyph glyph-name="uni041E" unicode="&#x41e;" 
d="M300 -14q-135 0 -187 81.5t-52 292.5v80q0 211 52 292.5t187 81.5t187 -81.5t52 -292.5v-80q0 -211 -52 -292.5t-187 -81.5zM300 43q101 0 139 68t38 249v80q0 181 -38 249t-139 68q-102 0 -140 -68t-37 -249v-80q1 -181 39 -249t138 -68z" />
    <glyph glyph-name="uni041F" unicode="&#x41f;" 
d="M66 0v800h468v-800h-62v743h-344v-743h-62z" />
    <glyph glyph-name="uni0420" unicode="&#x420;" 
d="M320 800q125 0 173 -49.5t48 -176.5q0 -129 -48 -177.5t-173 -48.5h-158v-348h-62v800h220zM320 405q91 0 125 35.5t34 133.5q0 97 -34 133t-125 36h-158v-338h158z" />
    <glyph glyph-name="uni0421" unicode="&#x421;" 
d="M315 -14q-140 0 -193.5 90.5t-53.5 324.5t53.5 323.5t193.5 89.5q93 0 140 -37t77 -134l-59 -21q-25 78 -58 106.5t-100 28.5q-105 0 -145 -76.5t-40 -279.5q0 -204 40 -281t145 -77q67 0 100 27.5t58 104.5l59 -20q-30 -96 -76.5 -132.5t-140.5 -36.5z" />
    <glyph glyph-name="uni0422" unicode="&#x422;" 
d="M574 800v-57h-243v-743h-62v743h-243v57h548z" />
    <glyph glyph-name="uni0423" unicode="&#x423;" 
d="M504 800h63l-172 -617q-30 -109 -81 -153t-142 -44q-55 0 -97 29l24 52q42 -24 73 -24q81 0 115 43l-235 714h64l209 -636l4.5 13.5t5 16.5t4.5 15z" />
    <glyph glyph-name="uni0424" unicode="&#x424;" 
d="M588 401q0 -161 -56 -226t-201 -70v-105h-62v106q-146 5 -201.5 69.5t-55.5 225.5q0 160 55.5 224.5t201.5 69.5v105h62v-104q145 -5 201 -70t56 -225zM331 163q110 4 152.5 56.5t42.5 181.5q0 128 -42.5 180.5t-152.5 56.5v-475zM74 401q0 -128 42.5 -180.5t152.5 -57.5
v475q-110 -5 -152.5 -57t-42.5 -180z" />
    <glyph glyph-name="uni0425" unicode="&#x425;" 
d="M549 800l-214 -400l214 -400h-69l-180 336l-180 -336h-69l215 400l-215 400h69l180 -336l180 336h69z" />
    <glyph glyph-name="uni0426" unicode="&#x426;" 
d="M504 57h50v-165h-62v108h-426v800h62v-743h314v743h62v-743z" />
    <glyph glyph-name="uni0427" unicode="&#x427;" 
d="M502 800v-800h-62v236q-32 -68 -150 -68q-121 0 -167 68t-46 246v318h62v-318q0 -147 32.5 -202t118.5 -55q88 0 119 33.5t31 133.5v408h62z" />
    <glyph glyph-name="uni0428" unicode="&#x428;" 
d="M41 0v800h62v-743h166v743h62v-743h166v743h62v-800h-518z" />
    <glyph glyph-name="uni0429" unicode="&#x429;" 
d="M515 57h62v-165h-62v108h-492v800h62v-743h153v743h62v-743h153v743h62v-743z" />
    <glyph glyph-name="uni042A" unicode="&#x42a;" 
d="M342 452q125 0 173 -48.5t48 -177.5q0 -128 -48 -177t-173 -49h-220v743h-100v57h162v-348h158zM342 57q91 0 125 36t34 133q0 99 -33.5 134t-125.5 35h-158v-338h158z" />
    <glyph glyph-name="uni042B" unicode="&#x42b;" 
d="M225 452q111 0 155 -49t44 -177q0 -127 -44 -176.5t-155 -49.5h-178v800h62v-348h116zM491 800h62v-800h-62v800zM225 57q76 0 106.5 36.5t30.5 132.5t-30.5 132.5t-106.5 36.5h-116v-338h116z" />
    <glyph glyph-name="uni042C" unicode="&#x42c;" 
d="M320 452q125 0 173 -48.5t48 -177.5q0 -127 -48 -176.5t-173 -49.5h-220v800h62v-348h158zM320 57q91 0 125 36t34 133q0 98 -34 133.5t-125 35.5h-158v-338h158z" />
    <glyph glyph-name="uni042D" unicode="&#x42d;" 
d="M300 814q135 0 187 -81.5t52 -292.5v-80q0 -211 -52 -292.5t-187 -81.5q-87 0 -137.5 31.5t-74.5 104.5h69q20 -42 54 -60.5t89 -18.5q101 0 139 68t38 249v11h-245v58h245v11q0 181 -38 249t-139 68q-56 0 -90.5 -18.5t-54.5 -60.5h-67q24 73 74.5 104.5t137.5 31.5z
" />
    <glyph glyph-name="uni042E" unicode="&#x42e;" 
d="M387 814q112 0 154.5 -80.5t42.5 -293.5v-80q0 -213 -42.5 -293.5t-154.5 -80.5t-154.5 80.5t-42.5 293.5v11h-99v-371h-62v800h62v-371h99v11q0 213 42.5 293.5t154.5 80.5zM522 360v80q0 181 -29 249t-106 68t-106 -68t-29 -249v-80q0 -181 29 -249t106 -68t106 68
t29 249z" />
    <glyph glyph-name="uni042F" unicode="&#x42f;" 
d="M288 800h220v-800h-62v348h-101l-230 -348h-72l230 348q-116 3 -161 52t-45 174q0 127 48 176.5t173 49.5zM288 405h158v338h-158q-91 0 -125 -36t-34 -133q0 -98 34 -133.5t125 -35.5z" />
    <glyph glyph-name="uni0430" unicode="&#x430;" 
d="M274 -14q-121 0 -167.5 40t-46.5 143q0 109 46.5 150t167.5 41h152v57q0 89 -32.5 122.5t-119.5 33.5q-64 0 -93.5 -21.5t-46.5 -80.5l-59 15q23 82 66 114t133 32q121 0 167.5 -47.5t46.5 -167.5v-258q0 -61 16.5 -82t61.5 -20v-57q-56 -1 -82.5 16t-36.5 61
q-28 -52 -65.5 -71.5t-107.5 -19.5zM274 43q87 0 119.5 37.5t32.5 137.5v84h-152q-88 0 -120 -27.5t-32 -105.5q0 -72 32 -99t120 -27z" />
    <glyph glyph-name="uni0431" unicode="&#x431;" 
d="M300 -14q-132 0 -182 54.5t-50 200.5v239q0 104 64 169t167 65q79 0 123.5 23.5t44.5 62.5h64q0 -65 -63 -104t-169 -39q-76 0 -122.5 -49t-46.5 -128v-53q29 40 66 55.5t104 15.5q132 0 182 -55t50 -201t-50 -201t-182 -55zM300 43q98 0 134 42t36 157t-36 156.5
t-134 41.5t-134 -41.5t-36 -157.5q0 -115 36 -156.5t134 -41.5z" />
    <glyph glyph-name="uni0432" unicode="&#x432;" 
d="M90 0v618h194q123 0 171 -34t48 -122q0 -56 -19.5 -82.5t-71.5 -41.5q66 -14 91 -48t25 -109q0 -102 -48 -141.5t-171 -39.5h-219zM152 361h132q91 0 124 21t33 80q0 56 -33.5 77.5t-123.5 21.5h-132v-200zM152 57h157q89 0 123 27t34 97q0 71 -33.5 96.5t-123.5 25.5
h-157v-246z" />
    <glyph glyph-name="uni0433" unicode="&#x433;" 
d="M533 618v-57h-374v-561h-62v618h436z" />
    <glyph glyph-name="uni0434" unicode="&#x434;" 
d="M518 57h50v-145h-62v88h-412v-88h-62v145h31q26 17 46 41.5t35 62.5t25.5 77.5t19.5 104t15 123t14 152.5h300v-561zM149 57h307v504h-181q-19 -220 -46.5 -337.5t-79.5 -166.5z" />
    <glyph glyph-name="uni0435" unicode="&#x435;" 
d="M303 632q127 0 175 -72t47 -258h-398q1 -147 39.5 -203t136.5 -56q58 0 92 17.5t72 65.5l49 -33q-44 -61 -89.5 -84t-123.5 -23q-135 0 -186.5 70.5t-51.5 252.5t51.5 252.5t186.5 70.5zM128 360h334q-8 122 -42 168.5t-117 46.5q-94 0 -132.5 -46.5t-42.5 -168.5z" />
    <glyph glyph-name="uni0436" unicode="&#x436;" 
d="M0 618h72l197 -309l-197 -309h-72l197 309zM269 618h62v-618h-62v618zM600 618l-197 -309l197 -309h-72l-197 309l197 309h72z" />
    <glyph glyph-name="uni0437" unicode="&#x437;" 
d="M300 -14q-128 0 -176.5 33.5t-48.5 121.5h62q0 -55 35.5 -76.5t127.5 -21.5t127.5 23.5t35.5 84.5q0 70 -31 99t-112 34h-76v58h76q81 5 112 32t31 94q0 61 -35.5 84t-127.5 23q-93 0 -128 -20t-35 -73h-62q0 86 48.5 118t176.5 32t176.5 -35.5t48.5 -128.5
q0 -61 -20 -94.5t-72 -60.5q52 -27 72 -62.5t20 -99.5q0 -94 -48.5 -129.5t-176.5 -35.5z" />
    <glyph glyph-name="uni0438" unicode="&#x438;" 
d="M520 618v-618h-62v514l-308 -514h-70v618h62v-514l308 514h70z" />
    <glyph glyph-name="uni0439" unicode="&#x439;" 
d="M299 679q-74 0 -102.5 28t-27.5 99h72q-16 -40 -5 -54.5t63 -14.5q54 0 65 14.5t-5 54.5h72q1 -71 -28 -99t-104 -28zM520 618v-618h-62v514l-308 -514h-70v618h62v-514l308 514h70z" />
    <glyph glyph-name="uni043A" unicode="&#x43a;" 
d="M559 618q-41 -26 -73 -63.5t-52 -73t-40.5 -69t-48.5 -60.5t-66 -39l279 -313h-75l-271 302h-73v-302h-62v618h62v-258h55q41 1 71.5 14.5t48 33t35.5 47t31.5 54t38 57t53.5 52.5h87z" />
    <glyph glyph-name="uni043B" unicode="&#x43b;" 
d="M542 618v-618h-62v561h-210q-7 -101 -12 -163t-12.5 -127t-14.5 -99.5t-19.5 -70.5t-26 -51.5t-34.5 -29t-45 -17t-58 -3.5v57q31 0 50.5 6.5t36.5 30t27 57.5t20 102.5t16.5 150.5t14.5 214h329z" />
    <glyph glyph-name="uni043C" unicode="&#x43c;" 
d="M54 0l14 618h61l171 -358l171 358h61l14 -618h-62l-12 460l-143 -295h-58l-143 295l-12 -460h-62z" />
    <glyph glyph-name="uni043D" unicode="&#x43d;" 
d="M460 618h62v-618h-62v303h-320v-303h-62v618h62v-257h320v257z" />
    <glyph glyph-name="uni043E" unicode="&#x43e;" 
d="M300 -14q-125 0 -173 70.5t-48 252.5t48 252.5t173 70.5t173 -70.5t48 -252.5t-48 -252.5t-173 -70.5zM300 43q91 0 125 57t34 209t-34 209t-125 57t-125 -57t-34 -209t34 -209t125 -57z" />
    <glyph glyph-name="uni043F" unicode="&#x43f;" 
d="M66 0v618h468v-618h-62v561h-344v-561h-62z" />
    <glyph glyph-name="uni0440" unicode="&#x440;" 
d="M85 -182v800h62v-44q40 58 160 58q125 0 173 -70t48 -252q0 -183 -48 -253.5t-173 -70.5q-121 0 -160 78v-246h-62zM307 43q91 0 125 57.5t34 209.5q0 151 -34 208t-125 57q-160 0 -160 -83v-284q0 -165 160 -165z" />
    <glyph glyph-name="uni0441" unicode="&#x441;" 
d="M318 -14q-137 0 -189 70.5t-52 252.5t53 252.5t192 70.5q75 0 118.5 -23.5t84.5 -85.5l-52 -31q-33 48 -64.5 65.5t-86.5 17.5q-105 0 -144 -57t-39 -209t38 -209t141 -57q55 0 87.5 18t67.5 66l52 -31q-42 -62 -86.5 -86t-120.5 -24z" />
    <glyph glyph-name="uni0442" unicode="&#x442;" 
d="M574 618v-57h-243v-561h-62v561h-243v57h548z" />
    <glyph glyph-name="uni0443" unicode="&#x443;" 
d="M134 -196q-55 0 -97 29l24 52q42 -24 73 -24q63 0 96.5 30t60.5 112l-200 615h65l168 -527l170 527h65l-204 -616q-38 -112 -85.5 -155t-135.5 -43z" />
    <glyph glyph-name="uni0444" unicode="&#x444;" 
d="M554 309q0 -155 -49 -219t-174 -69v-203h-62v203q-125 6 -174 69.5t-49 218.5t49 218.5t174 69.5v203h62v-203q125 -5 174 -69t49 -219zM331 79q91 5 126 55.5t35 174.5t-35 174.5t-126 55.5v-460zM108 309q0 -123 35 -173.5t126 -56.5v460q-91 -6 -126 -56.5t-35 -173.5
z" />
    <glyph glyph-name="uni0445" unicode="&#x445;" 
d="M525 618l-189 -309l189 -309h-71l-154 251l-154 -251h-71l190 309l-190 309h71l154 -251l154 251h71z" />
    <glyph glyph-name="uni0446" unicode="&#x446;" 
d="M504 57h50v-165h-62v108h-426v618h62v-561h314v561h62v-561z" />
    <glyph glyph-name="uni0447" unicode="&#x447;" 
d="M440 0v204q-31 -68 -150 -68q-85 0 -128.5 22.5t-64 83.5t-20.5 180v196h62v-196q0 -99 14.5 -147.5t45 -65t91.5 -16.5q89 0 119.5 31t30.5 130v264h62v-618h-62z" />
    <glyph glyph-name="uni0448" unicode="&#x448;" 
d="M41 0v618h62v-561h166v561h62v-561h166v561h62v-618h-518z" />
    <glyph glyph-name="uni0449" unicode="&#x449;" 
d="M515 57h62v-165h-62v108h-492v618h62v-561h153v561h62v-561h153v561h62v-561z" />
    <glyph glyph-name="uni044A" unicode="&#x44a;" 
d="M342 392q126 0 173.5 -42t47.5 -154t-47.5 -154t-173.5 -42h-220v561h-100v57h162v-226h158zM342 57q91 0 125 30t34 109t-34 109t-125 30h-158v-278h158z" />
    <glyph glyph-name="uni044B" unicode="&#x44b;" 
d="M225 392q114 0 156.5 -42t42.5 -154t-43 -154t-156 -42h-178v618h62v-226h116zM491 618h62v-618h-62v618zM225 57q78 0 107.5 30t29.5 109t-29.5 109t-107.5 30h-116v-278h116z" />
    <glyph glyph-name="uni044C" unicode="&#x44c;" 
d="M320 392q126 0 173.5 -42t47.5 -154t-47.5 -154t-173.5 -42h-220v618h62v-226h158zM320 57q90 0 124.5 30t34.5 109t-34.5 109t-124.5 30h-158v-278h158z" />
    <glyph glyph-name="uni044D" unicode="&#x44d;" 
d="M300 632q136 0 187.5 -61t51.5 -222v-80q0 -161 -51.5 -222t-187.5 -61q-97 0 -142.5 27.5t-69.5 98.5h69q19 -39 49.5 -54t93.5 -15q101 0 139 48.5t38 177.5v11h-245v58h245v11q0 129 -38 177.5t-139 48.5q-64 0 -95 -15t-50 -54h-67q24 71 69.5 98.5t142.5 27.5z" />
    <glyph glyph-name="uni044E" unicode="&#x44e;" 
d="M387 632q112 0 154.5 -61t42.5 -222v-80q0 -161 -42.5 -222t-154.5 -61t-154.5 61t-42.5 222v11h-99v-280h-62v618h62v-280h99v11q0 161 42.5 222t154.5 61zM522 269v80q0 129 -29 177.5t-106 48.5t-106 -48.5t-29 -177.5v-80q0 -129 29 -177.5t106 -48.5t106 48.5
t29 177.5z" />
    <glyph glyph-name="uni044F" unicode="&#x44f;" 
d="M288 618h220v-618h-62v262h-103l-222 -262h-78l223 262q-113 3 -156 42t-43 136q0 101 47.5 139.5t173.5 38.5zM288 319h158v242h-158q-90 0 -124.5 -26t-34.5 -95t34.5 -95t124.5 -26z" />
    <glyph glyph-name="uni0451" unicode="&#x451;" 
d="M192 726q-34 0 -47.5 12.5t-13.5 44.5q0 31 13.5 43.5t47.5 12.5t47.5 -12.5t13.5 -43.5q0 -32 -13.5 -44.5t-47.5 -12.5zM408 726q-34 0 -47.5 12.5t-13.5 44.5q0 31 13.5 43.5t47.5 12.5t47.5 -12.5t13.5 -43.5q0 -32 -13.5 -44.5t-47.5 -12.5zM303 632q127 0 175 -72
t47 -258h-398q1 -147 39.5 -203t136.5 -56q58 0 92 17.5t72 65.5l49 -33q-44 -61 -89.5 -84t-123.5 -23q-135 0 -186.5 70.5t-51.5 252.5t51.5 252.5t186.5 70.5zM128 360h334q-8 122 -42 168.5t-117 46.5q-94 0 -132.5 -46.5t-42.5 -168.5z" />
    <glyph glyph-name="Wgrave" unicode="&#x1e80;" 
d="M310 868l-143 126l41 43l143 -125zM137 0l-109 800h63l86 -652l93 394h60l93 -394l86 652h63l-109 -800h-61l-102 420l-101 -420h-62z" />
    <glyph glyph-name="wgrave" unicode="&#x1e81;" 
d="M310 683l-143 126l41 43l143 -125zM139 0l-107 618h63l83 -495l92 301h60l91 -301l84 495h63l-108 -618h-60l-100 323l-101 -323h-60z" />
    <glyph glyph-name="Wacute" unicode="&#x1e82;" 
d="M290 868l-41 44l143 125l41 -43zM137 0l-109 800h63l86 -652l93 394h60l93 -394l86 652h63l-109 -800h-61l-102 420l-101 -420h-62z" />
    <glyph glyph-name="wacute" unicode="&#x1e83;" 
d="M290 683l-41 44l143 125l41 -43zM139 0l-107 618h63l83 -495l92 301h60l91 -301l84 495h63l-108 -618h-60l-100 323l-101 -323h-60z" />
    <glyph glyph-name="Wdieresis" unicode="&#x1e84;" 
d="M192 911q-34 0 -47.5 12.5t-13.5 44.5q0 31 13.5 43.5t47.5 12.5t47.5 -12.5t13.5 -43.5q0 -32 -13.5 -44.5t-47.5 -12.5zM408 911q-34 0 -47.5 12.5t-13.5 44.5q0 31 13.5 43.5t47.5 12.5t47.5 -12.5t13.5 -43.5q0 -32 -13.5 -44.5t-47.5 -12.5zM137 0l-109 800h63
l86 -652l93 394h60l93 -394l86 652h63l-109 -800h-61l-102 420l-101 -420h-62z" />
    <glyph glyph-name="wdieresis" unicode="&#x1e85;" 
d="M192 726q-34 0 -47.5 12.5t-13.5 44.5q0 31 13.5 43.5t47.5 12.5t47.5 -12.5t13.5 -43.5q0 -32 -13.5 -44.5t-47.5 -12.5zM408 726q-34 0 -47.5 12.5t-13.5 44.5q0 31 13.5 43.5t47.5 12.5t47.5 -12.5t13.5 -43.5q0 -32 -13.5 -44.5t-47.5 -12.5zM139 0l-107 618h63
l83 -495l92 301h60l91 -301l84 495h63l-108 -618h-60l-100 323l-101 -323h-60z" />
    <glyph glyph-name="uni1E9E" unicode="&#x1e9e;" 
d="M382 472q112 -4 154.5 -57.5t42.5 -185.5q0 -143 -45.5 -193t-169.5 -50q-106 0 -145.5 33t-39.5 122h62q0 -56 26.5 -77t96.5 -21q88 0 120.5 38t32.5 148q0 105 -33 145.5t-120 40.5h-88l203 328h-209q-82 0 -131 -49.5t-49 -129.5v-564h-62v564q0 110 66 173t182 63
h309z" />
    <glyph glyph-name="uni1EA0" unicode="&#x1ea0;" 
d="M556 0h-64l-57 210h-270l-57 -210h-64l222 800h68zM181 268h238l-119 434zM300 -101q41 0 57 -15t16 -53t-16.5 -53.5t-56.5 -15.5t-56.5 15.5t-16.5 53.5t16 53t57 15z" />
    <glyph glyph-name="uni1EA1" unicode="&#x1ea1;" 
d="M274 -14q-121 0 -167.5 40t-46.5 143q0 109 46.5 150t167.5 41h152v57q0 89 -32.5 122.5t-119.5 33.5q-64 0 -93.5 -21.5t-46.5 -80.5l-59 15q23 82 66 114t133 32q121 0 167.5 -47.5t46.5 -167.5v-258q0 -61 16.5 -82t61.5 -20v-57q-56 -1 -82.5 16t-36.5 61
q-28 -52 -65.5 -71.5t-107.5 -19.5zM274 43q87 0 119.5 37.5t32.5 137.5v84h-152q-88 0 -120 -27.5t-32 -105.5q0 -72 32 -99t120 -27zM300 -235q-40 0 -56.5 15.5t-16.5 53.5t16 53t57 15t57 -15t16 -53t-16.5 -53.5t-56.5 -15.5z" />
    <glyph glyph-name="uni1EA2" unicode="&#x1ea2;" 
d="M330 944q0 14 -10.5 22.5t-23.5 8.5q-39 0 -88 -41v68q38 30 88 30q42 0 69 -23.5t27 -61.5q0 -37 -30 -66t-82 -40l-15 55q65 15 65 48zM492 0l-57 210h-270l-57 -210h-64l222 800h68l222 -800h-64zM181 268h238l-119 434z" />
    <glyph glyph-name="uni1EA3" unicode="&#x1ea3;" 
d="M280 656l-15 55q65 15 65 48q0 14 -10.5 22.5t-23.5 8.5q-39 0 -88 -41v68q38 30 88 30q42 0 69 -23.5t27 -61.5q0 -37 -30 -66t-82 -40zM274 -14q-121 0 -167.5 40t-46.5 143q0 109 46.5 150t167.5 41h152v57q0 89 -32.5 122.5t-119.5 33.5q-64 0 -93.5 -21.5
t-46.5 -80.5l-59 15q23 82 66 114t133 32q121 0 167.5 -47.5t46.5 -167.5v-258q0 -61 16.5 -82t61.5 -20v-57q-56 -1 -82.5 16t-36.5 61q-28 -52 -65.5 -71.5t-107.5 -19.5zM274 43q87 0 119.5 37.5t32.5 137.5v84h-152q-88 0 -120 -27.5t-32 -105.5q0 -72 32 -99t120 -27z
" />
    <glyph glyph-name="uni1EA4" unicode="&#x1ea4;" 
d="M565 1026l-133 -115l-41 43l133 116zM300 917l-92 -81l-47 37l139 123l139 -125l-48 -37zM266 800h68l222 -800h-64l-57 210h-270l-57 -210h-64zM181 268h238l-119 434z" />
    <glyph glyph-name="uni1EA5" unicode="&#x1ea5;" 
d="M290 888l-41 44l143 125l41 -43zM391 678l-91 82l-92 -80l-47 37l139 123l139 -125zM274 -14q-121 0 -167.5 40t-46.5 143q0 109 46.5 150t167.5 41h152v57q0 89 -32.5 122.5t-119.5 33.5q-64 0 -93.5 -21.5t-46.5 -80.5l-59 15q23 82 66 114t133 32q121 0 167.5 -47.5
t46.5 -167.5v-258q0 -61 16.5 -82t61.5 -20v-57q-56 -1 -82.5 16t-36.5 61q-28 -52 -65.5 -71.5t-107.5 -19.5zM274 43q87 0 119.5 37.5t32.5 137.5v84h-152q-88 0 -120 -27.5t-32 -105.5q0 -72 32 -99t120 -27z" />
    <glyph glyph-name="uni1EA6" unicode="&#x1ea6;" 
d="M517 933l-42 -43l-132 115l41 43zM300 917l-92 -81l-47 37l139 123l139 -125l-48 -37zM492 0l-57 210h-270l-57 -210h-64l222 800h68l222 -800h-64zM181 268h238l-119 434z" />
    <glyph glyph-name="uni1EA7" unicode="&#x1ea7;" 
d="M310 888l-143 126l41 43l143 -125zM391 678l-91 82l-92 -80l-47 37l139 123l139 -125zM274 -14q-121 0 -167.5 40t-46.5 143q0 109 46.5 150t167.5 41h152v57q0 89 -32.5 122.5t-119.5 33.5q-64 0 -93.5 -21.5t-46.5 -80.5l-59 15q23 82 66 114t133 32q121 0 167.5 -47.5
t46.5 -167.5v-258q0 -61 16.5 -82t61.5 -20v-57q-56 -1 -82.5 16t-36.5 61q-28 -52 -65.5 -71.5t-107.5 -19.5zM274 43q87 0 119.5 37.5t32.5 137.5v84h-152q-88 0 -120 -27.5t-32 -105.5q0 -72 32 -99t120 -27z" />
    <glyph glyph-name="uni1EA8" unicode="&#x1ea8;" 
d="M516 982q0 13 -10 22t-24 9q-38 0 -88 -42v68q40 31 88 31q42 0 69 -24t27 -62q0 -37 -29.5 -66t-82.5 -40l-15 55q65 15 65 49zM300 917l-92 -81l-47 37l139 123l139 -125l-48 -37zM266 800h68l222 -800h-64l-57 210h-270l-57 -210h-64zM181 268h238l-119 434z" />
    <glyph glyph-name="uni1EA9" unicode="&#x1ea9;" 
d="M280 861l-15 55q65 15 65 48q0 14 -10.5 22.5t-23.5 8.5q-39 0 -88 -41v68q38 30 88 30q42 0 69 -23.5t27 -61.5q0 -37 -30 -66t-82 -40zM391 678l-91 82l-92 -80l-47 37l139 123l139 -125zM274 -14q-121 0 -167.5 40t-46.5 143q0 109 46.5 150t167.5 41h152v57
q0 89 -32.5 122.5t-119.5 33.5q-64 0 -93.5 -21.5t-46.5 -80.5l-59 15q23 82 66 114t133 32q121 0 167.5 -47.5t46.5 -167.5v-258q0 -61 16.5 -82t61.5 -20v-57q-56 -1 -82.5 16t-36.5 61q-28 -52 -65.5 -71.5t-107.5 -19.5zM274 43q87 0 119.5 37.5t32.5 137.5v84h-152
q-88 0 -120 -27.5t-32 -105.5q0 -72 32 -99t120 -27z" />
    <glyph glyph-name="uni1EAA" unicode="&#x1eaa;" 
d="M678 1019q2 -46 -22 -75.5t-65 -29.5q-30 0 -75 38.5t-59 38.5q-17 0 -21.5 -12.5t-2.5 -38.5h-62q-2 48 22 78t64 30q30 0 75 -38.5t59 -38.5q17 0 22 12t2 36h63zM300 917l-92 -81l-47 37l139 123l139 -125l-48 -37zM266 800h68l222 -800h-64l-57 210h-270l-57 -210
h-64zM181 268h238l-119 434z" />
    <glyph glyph-name="uni1EAB" unicode="&#x1eab;" 
d="M367 903q-30 0 -75 38.5t-59 38.5q-17 0 -21.5 -12.5t-2.5 -38.5h-63q-2 48 22.5 78t64.5 30q29 0 74 -38.5t60 -38.5q17 0 21.5 11.5t2.5 36.5h63q2 -47 -22.5 -76t-64.5 -29zM391 678l-91 82l-92 -80l-47 37l139 123l139 -125zM274 -14q-121 0 -167.5 40t-46.5 143
q0 109 46.5 150t167.5 41h152v57q0 89 -32.5 122.5t-119.5 33.5q-64 0 -93.5 -21.5t-46.5 -80.5l-59 15q23 82 66 114t133 32q121 0 167.5 -47.5t46.5 -167.5v-258q0 -61 16.5 -82t61.5 -20v-57q-56 -1 -82.5 16t-36.5 61q-28 -52 -65.5 -71.5t-107.5 -19.5zM274 43
q87 0 119.5 37.5t32.5 137.5v84h-152q-88 0 -120 -27.5t-32 -105.5q0 -72 32 -99t120 -27z" />
    <glyph glyph-name="uni1EAC" unicode="&#x1eac;" 
d="M300 945l-92 -80l-47 37l139 123l139 -125l-48 -37zM556 0h-64l-57 210h-270l-57 -210h-64l222 800h68zM181 268h238l-119 434zM300 -101q41 0 57 -15t16 -53t-16.5 -53.5t-56.5 -15.5t-56.5 15.5t-16.5 53.5t16 53t57 15z" />
    <glyph glyph-name="uni1EAD" unicode="&#x1ead;" 
d="M391 678l-91 82l-92 -80l-47 37l139 123l139 -125zM274 -14q-121 0 -167.5 40t-46.5 143q0 109 46.5 150t167.5 41h152v57q0 89 -32.5 122.5t-119.5 33.5q-64 0 -93.5 -21.5t-46.5 -80.5l-59 15q23 82 66 114t133 32q121 0 167.5 -47.5t46.5 -167.5v-258q0 -61 16.5 -82
t61.5 -20v-57q-56 -1 -82.5 16t-36.5 61q-28 -52 -65.5 -71.5t-107.5 -19.5zM274 43q87 0 119.5 37.5t32.5 137.5v84h-152q-88 0 -120 -27.5t-32 -105.5q0 -72 32 -99t120 -27zM300 -235q-40 0 -56.5 15.5t-16.5 53.5t16 53t57 15t57 -15t16 -53t-16.5 -53.5t-56.5 -15.5z
" />
    <glyph glyph-name="uni1EAE" unicode="&#x1eae;" 
d="M424 1041l-133 -115l-41 43l133 116zM299 829q-75 0 -103 25t-27 94h62q0 -36 14 -49t54 -13q42 0 56 13.5t14 48.5h62q1 -69 -27.5 -94t-104.5 -25zM492 0l-57 210h-270l-57 -210h-64l222 800h68l222 -800h-64zM181 268h238l-119 434z" />
    <glyph glyph-name="uni1EAF" unicode="&#x1eaf;" 
d="M290 871l-41 43l143 126l41 -44zM299 679q-74 0 -102.5 28t-27.5 99h62q0 -41 14 -55t54 -14q42 0 56 14t14 55h62q2 -71 -27 -99t-105 -28zM274 -14q-121 0 -167.5 40t-46.5 143q0 109 46.5 150t167.5 41h152v57q0 89 -32.5 122.5t-119.5 33.5q-64 0 -93.5 -21.5
t-46.5 -80.5l-59 15q23 82 66 114t133 32q121 0 167.5 -47.5t46.5 -167.5v-258q0 -61 16.5 -82t61.5 -20v-57q-56 -1 -82.5 16t-36.5 61q-28 -52 -65.5 -71.5t-107.5 -19.5zM274 43q87 0 119.5 37.5t32.5 137.5v84h-152q-88 0 -120 -27.5t-32 -105.5q0 -72 32 -99t120 -27z
" />
    <glyph glyph-name="uni1EB0" unicode="&#x1eb0;" 
d="M349 969l-41 -43l-133 115l41 44zM299 829q-75 0 -103 25t-27 94h62q0 -36 14 -49t54 -13q42 0 56 13.5t14 48.5h62q1 -69 -27.5 -94t-104.5 -25zM492 0l-57 210h-270l-57 -210h-64l222 800h68l222 -800h-64zM181 268h238l-119 434z" />
    <glyph glyph-name="uni1EB1" unicode="&#x1eb1;" 
d="M310 871l-143 125l41 44l143 -126zM299 679q-74 0 -102.5 28t-27.5 99h62q0 -41 14 -55t54 -14q42 0 56 14t14 55h62q2 -71 -27 -99t-105 -28zM274 -14q-121 0 -167.5 40t-46.5 143q0 109 46.5 150t167.5 41h152v57q0 89 -32.5 122.5t-119.5 33.5q-64 0 -93.5 -21.5
t-46.5 -80.5l-59 15q23 82 66 114t133 32q121 0 167.5 -47.5t46.5 -167.5v-258q0 -61 16.5 -82t61.5 -20v-57q-56 -1 -82.5 16t-36.5 61q-28 -52 -65.5 -71.5t-107.5 -19.5zM274 43q87 0 119.5 37.5t32.5 137.5v84h-152q-88 0 -120 -27.5t-32 -105.5q0 -72 32 -99t120 -27z
" />
    <glyph glyph-name="uni1EB2" unicode="&#x1eb2;" 
d="M516 982q0 13 -10 22t-24 9q-38 0 -88 -42v68q40 31 88 31q42 0 69 -24t27 -62q0 -37 -29.5 -66t-82.5 -40l-15 55q65 15 65 49zM299 829q-75 0 -103 25t-27 94h62q0 -36 14 -49t54 -13q42 0 56 13.5t14 48.5h62q1 -70 -27 -94.5t-105 -24.5zM266 800h68l222 -800h-64
l-57 210h-270l-57 -210h-64zM181 268h238l-119 434z" />
    <glyph glyph-name="uni1EB3" unicode="&#x1eb3;" 
d="M280 843l-15 55q65 15 65 49q0 13 -10.5 22t-23.5 9q-38 0 -88 -42v69q41 30 88 30q42 0 69 -24t27 -62q0 -37 -30 -65.5t-82 -40.5zM299 679q-74 0 -102.5 28t-27.5 99h62q0 -41 14 -55t54 -14q42 0 56 14t14 55h62q2 -71 -27 -99t-105 -28zM274 -14q-121 0 -167.5 40
t-46.5 143q0 109 46.5 150t167.5 41h152v57q0 89 -32.5 122.5t-119.5 33.5q-64 0 -93.5 -21.5t-46.5 -80.5l-59 15q23 82 66 114t133 32q121 0 167.5 -47.5t46.5 -167.5v-258q0 -61 16.5 -82t61.5 -20v-57q-56 -1 -82.5 16t-36.5 61q-28 -52 -65.5 -71.5t-107.5 -19.5z
M274 43q87 0 119.5 37.5t32.5 137.5v84h-152q-88 0 -120 -27.5t-32 -105.5q0 -72 32 -99t120 -27z" />
    <glyph glyph-name="uni1EB4" unicode="&#x1eb4;" 
d="M676 1063q2 -47 -22 -76t-64 -29q-30 0 -75.5 38.5t-58.5 38.5q-17 0 -22 -12.5t-3 -38.5h-62q-2 48 22 78t65 30q29 0 74 -38.5t60 -38.5q17 0 21.5 12t2.5 36h62zM299 829q-75 0 -103 25t-27 94h62q0 -36 14 -49t54 -13q42 0 56 13t14 49h62q1 -69 -27.5 -94
t-104.5 -25zM266 800h68l222 -800h-64l-57 210h-270l-57 -210h-64zM181 268h238l-119 434z" />
    <glyph glyph-name="uni1EB5" unicode="&#x1eb5;" 
d="M367 885q-30 0 -75 38.5t-59 38.5q-17 0 -21.5 -12.5t-2.5 -38.5h-63q-2 48 22.5 78t64.5 30q29 0 74 -38.5t60 -38.5q17 0 21.5 11.5t2.5 36.5h63q2 -47 -22.5 -76t-64.5 -29zM299 679q-74 0 -102.5 28t-27.5 99h62q0 -41 14 -55t54 -14q42 0 56 14t14 55h62
q2 -71 -27 -99t-105 -28zM274 -14q-121 0 -167.5 40t-46.5 143q0 109 46.5 150t167.5 41h152v57q0 89 -32.5 122.5t-119.5 33.5q-64 0 -93.5 -21.5t-46.5 -80.5l-59 15q23 82 66 114t133 32q121 0 167.5 -47.5t46.5 -167.5v-258q0 -61 16.5 -82t61.5 -20v-57
q-56 -1 -82.5 16t-36.5 61q-28 -52 -65.5 -71.5t-107.5 -19.5zM274 43q87 0 119.5 37.5t32.5 137.5v84h-152q-88 0 -120 -27.5t-32 -105.5q0 -72 32 -99t120 -27z" />
    <glyph glyph-name="uni1EB6" unicode="&#x1eb6;" 
d="M299 864q-74 0 -102.5 28t-27.5 99h62q0 -41 14 -55t54 -14q42 0 56 14t14 55h62q2 -71 -27 -99t-105 -28zM556 0h-64l-57 210h-270l-57 -210h-64l222 800h68zM181 268h238l-119 434zM300 -101q41 0 57 -15t16 -53t-16.5 -53.5t-56.5 -15.5t-56.5 15.5t-16.5 53.5t16 53
t57 15z" />
    <glyph glyph-name="uni1EB7" unicode="&#x1eb7;" 
d="M299 679q-74 0 -102.5 28t-27.5 99h62q0 -41 14 -55t54 -14q42 0 56 14t14 55h62q2 -71 -27 -99t-105 -28zM274 -14q-121 0 -167.5 40t-46.5 143q0 109 46.5 150t167.5 41h152v57q0 89 -32.5 122.5t-119.5 33.5q-64 0 -93.5 -21.5t-46.5 -80.5l-59 15q23 82 66 114
t133 32q121 0 167.5 -47.5t46.5 -167.5v-258q0 -61 16.5 -82t61.5 -20v-57q-56 -1 -82.5 16t-36.5 61q-28 -52 -65.5 -71.5t-107.5 -19.5zM274 43q87 0 119.5 37.5t32.5 137.5v84h-152q-88 0 -120 -27.5t-32 -105.5q0 -72 32 -99t120 -27zM300 -235q-40 0 -56.5 15.5
t-16.5 53.5t16 53t57 15t57 -15t16 -53t-16.5 -53.5t-56.5 -15.5z" />
    <glyph glyph-name="uni1EB8" unicode="&#x1eb8;" 
d="M532 743h-374v-291h240v-58h-240v-337h374v-57h-436v800h436v-57zM314 -101q41 0 57 -15t16 -53t-16.5 -53.5t-56.5 -15.5t-56.5 15.5t-16.5 53.5t16 53t57 15z" />
    <glyph glyph-name="uni1EB9" unicode="&#x1eb9;" 
d="M303 632q127 0 175 -72t47 -258h-398q1 -147 39.5 -203t136.5 -56q58 0 92 17.5t72 65.5l49 -33q-44 -61 -89.5 -84t-123.5 -23q-135 0 -186.5 70.5t-51.5 252.5t51.5 252.5t186.5 70.5zM128 360h334q-8 122 -42 168.5t-117 46.5q-94 0 -132.5 -46.5t-42.5 -168.5z
M300 -98q41 0 57 -15t16 -53t-16.5 -53.5t-56.5 -15.5t-56.5 15.5t-16.5 53.5t16 53t57 15z" />
    <glyph glyph-name="uni1EBA" unicode="&#x1eba;" 
d="M344 944q0 14 -10.5 22.5t-23.5 8.5q-39 0 -88 -41v68q38 30 88 30q42 0 69 -23.5t27 -61.5q0 -37 -30 -66t-82 -40l-15 55q65 15 65 48zM532 743h-374v-291h240v-58h-240v-337h374v-57h-436v800h436v-57z" />
    <glyph glyph-name="uni1EBB" unicode="&#x1ebb;" 
d="M330 759q0 14 -10.5 22.5t-23.5 8.5q-39 0 -88 -41v68q38 30 88 30q42 0 69 -23.5t27 -61.5q0 -37 -30 -66t-82 -40l-15 55q65 15 65 48zM303 632q127 0 175 -72t47 -258h-398q1 -147 39.5 -203t136.5 -56q58 0 92 17.5t72 65.5l49 -33q-44 -61 -89.5 -84t-123.5 -23
q-135 0 -186.5 70.5t-51.5 252.5t51.5 252.5t186.5 70.5zM128 360h334q-8 122 -42 168.5t-117 46.5q-94 0 -132.5 -46.5t-42.5 -168.5z" />
    <glyph glyph-name="uni1EBC" unicode="&#x1ebc;" 
d="M223 909h-63q-2 48 22.5 78t64.5 30q29 0 74 -38.5t60 -38.5q17 0 21.5 11.5t2.5 36.5h63q2 -47 -22.5 -76t-64.5 -29q-30 0 -75 38.5t-59 38.5q-17 0 -21.5 -12.5t-2.5 -38.5zM532 743h-374v-291h240v-58h-240v-337h374v-57h-436v800h436v-57z" />
    <glyph glyph-name="uni1EBD" unicode="&#x1ebd;" 
d="M209 724h-63q-2 48 22.5 78t64.5 30q29 0 74 -38.5t60 -38.5q17 0 21.5 11.5t2.5 36.5h63q2 -47 -22.5 -76t-64.5 -29q-30 0 -75 38.5t-59 38.5q-17 0 -21.5 -12.5t-2.5 -38.5zM303 632q127 0 175 -72t47 -258h-398q1 -147 39.5 -203t136.5 -56q58 0 92 17.5t72 65.5
l49 -33q-44 -61 -89.5 -84t-123.5 -23q-135 0 -186.5 70.5t-51.5 252.5t51.5 252.5t186.5 70.5zM128 360h334q-8 122 -42 168.5t-117 46.5q-94 0 -132.5 -46.5t-42.5 -168.5z" />
    <glyph glyph-name="uni1EBE" unicode="&#x1ebe;" 
d="M579 1026l-133 -115l-41 43l133 116zM314 917l-92 -81l-47 37l139 123l139 -125l-48 -37zM96 0v800h436v-57h-374v-291h240v-58h-240v-337h374v-57h-436z" />
    <glyph glyph-name="uni1EBF" unicode="&#x1ebf;" 
d="M433 1014l-143 -126l-41 44l143 125zM300 760l-92 -80l-47 37l139 123l139 -125l-48 -37zM303 632q127 0 175 -72t47 -258h-398q1 -147 39.5 -203t136.5 -56q58 0 92 17.5t72 65.5l49 -33q-44 -61 -89.5 -84t-123.5 -23q-135 0 -186.5 70.5t-51.5 252.5t51.5 252.5
t186.5 70.5zM128 360h334q-8 122 -42 168.5t-117 46.5q-94 0 -132.5 -46.5t-42.5 -168.5z" />
    <glyph glyph-name="uni1EC0" unicode="&#x1ec0;" 
d="M531 933l-42 -43l-132 115l41 43zM314 917l-92 -81l-47 37l139 123l139 -125l-48 -37zM532 743h-374v-291h240v-58h-240v-337h374v-57h-436v800h436v-57z" />
    <glyph glyph-name="uni1EC1" unicode="&#x1ec1;" 
d="M351 932l-41 -44l-143 126l41 43zM300 760l-92 -80l-47 37l139 123l139 -125l-48 -37zM303 632q127 0 175 -72t47 -258h-398q1 -147 39.5 -203t136.5 -56q58 0 92 17.5t72 65.5l49 -33q-44 -61 -89.5 -84t-123.5 -23q-135 0 -186.5 70.5t-51.5 252.5t51.5 252.5
t186.5 70.5zM128 360h334q-8 122 -42 168.5t-117 46.5q-94 0 -132.5 -46.5t-42.5 -168.5z" />
    <glyph glyph-name="uni1EC2" unicode="&#x1ec2;" 
d="M496 1070q42 0 69 -24t27 -62q0 -37 -29.5 -66t-82.5 -40l-15 55q65 15 65 49q0 13 -10 22t-24 9q-38 0 -88 -42v68q40 31 88 31zM314 917l-92 -81l-47 37l139 123l139 -125l-48 -37zM96 0v800h436v-57h-374v-291h240v-58h-240v-337h374v-57h-436z" />
    <glyph glyph-name="uni1EC3" unicode="&#x1ec3;" 
d="M330 964q0 14 -10.5 22.5t-23.5 8.5q-39 0 -88 -41v68q38 30 88 30q42 0 69 -23.5t27 -61.5q0 -37 -30 -66t-82 -40l-15 55q65 15 65 48zM300 760l-92 -80l-47 37l139 123l139 -125l-48 -37zM303 632q127 0 175 -72t47 -258h-398q1 -147 39.5 -203t136.5 -56
q58 0 92 17.5t72 65.5l49 -33q-44 -61 -89.5 -84t-123.5 -23q-135 0 -186.5 70.5t-51.5 252.5t51.5 252.5t186.5 70.5zM128 360h334q-8 122 -42 168.5t-117 46.5q-94 0 -132.5 -46.5t-42.5 -168.5z" />
    <glyph glyph-name="uni1EC4" unicode="&#x1ec4;" 
d="M692 1019q2 -46 -22 -75.5t-65 -29.5q-30 0 -75 38.5t-59 38.5q-17 0 -21.5 -12.5t-2.5 -38.5h-62q-2 48 22 78t64 30q30 0 75 -38.5t59 -38.5q17 0 22 12t2 36h63zM314 917l-92 -81l-47 37l139 123l139 -125l-48 -37zM96 0v800h436v-57h-374v-291h240v-58h-240v-337h374
v-57h-436z" />
    <glyph glyph-name="uni1EC5" unicode="&#x1ec5;" 
d="M209 929h-63q-2 48 22.5 78t64.5 30q29 0 74 -38.5t60 -38.5q17 0 21.5 11.5t2.5 36.5h63q2 -47 -22.5 -76t-64.5 -29q-30 0 -75 38.5t-59 38.5q-17 0 -21.5 -12.5t-2.5 -38.5zM161 717l139 123l139 -125l-48 -37l-91 82l-92 -80zM303 632q127 0 175 -72t47 -258h-398
q1 -147 39.5 -203t136.5 -56q58 0 92 17.5t72 65.5l49 -33q-44 -61 -89.5 -84t-123.5 -23q-135 0 -186.5 70.5t-51.5 252.5t51.5 252.5t186.5 70.5zM128 360h334q-8 122 -42 168.5t-117 46.5q-94 0 -132.5 -46.5t-42.5 -168.5z" />
    <glyph glyph-name="uni1EC6" unicode="&#x1ec6;" 
d="M314 945l-92 -80l-47 37l139 123l139 -125l-48 -37zM532 743h-374v-291h240v-58h-240v-337h374v-57h-436v800h436v-57zM314 -101q41 0 57 -15t16 -53t-16.5 -53.5t-56.5 -15.5t-56.5 15.5t-16.5 53.5t16 53t57 15z" />
    <glyph glyph-name="uni1EC7" unicode="&#x1ec7;" 
d="M300 760l-92 -80l-47 37l139 123l139 -125l-48 -37zM303 632q127 0 175 -72t47 -258h-398q1 -147 39.5 -203t136.5 -56q58 0 92 17.5t72 65.5l49 -33q-44 -61 -89.5 -84t-123.5 -23q-135 0 -186.5 70.5t-51.5 252.5t51.5 252.5t186.5 70.5zM128 360h334q-8 122 -42 168.5
t-117 46.5q-94 0 -132.5 -46.5t-42.5 -168.5zM300 -98q41 0 57 -15t16 -53t-16.5 -53.5t-56.5 -15.5t-56.5 15.5t-16.5 53.5t16 53t57 15z" />
    <glyph glyph-name="uni1EC8" unicode="&#x1ec8;" 
d="M330 944q0 14 -10.5 22.5t-23.5 8.5q-39 0 -88 -41v68q38 30 88 30q42 0 69 -23.5t27 -61.5q0 -37 -30 -66t-82 -40l-15 55q65 15 65 48zM493 743h-162v-686h162v-57h-386v57h162v686h-162v57h386v-57z" />
    <glyph glyph-name="uni1EC9" unicode="&#x1ec9;" 
d="M340 759q0 14 -10.5 22.5t-23.5 8.5q-39 0 -88 -41v68q38 30 88 30q42 0 69 -23.5t27 -61.5q0 -37 -30 -66t-82 -40l-15 55q65 15 65 48zM357 57h175v-57h-412v57h175v504h-126v57h188v-561z" />
    <glyph glyph-name="uni1ECA" unicode="&#x1eca;" 
d="M493 743h-162v-686h162v-57h-386v57h162v686h-162v57h386v-57zM300 -101q41 0 57 -15t16 -53t-16.5 -53.5t-56.5 -15.5t-56.5 15.5t-16.5 53.5t16 53t57 15z" />
    <glyph glyph-name="uni1ECB" unicode="&#x1ecb;" 
d="M310 729q-41 0 -57 15t-16 53t16.5 53.5t56.5 15.5t56.5 -15.5t16.5 -53.5t-16 -53t-57 -15zM357 57h175v-57h-412v57h175v504h-126v57h188v-561zM312 -98q41 0 57 -15t16 -53t-16.5 -53.5t-56.5 -15.5t-56.5 15.5t-16.5 53.5t16 53t57 15z" />
    <glyph glyph-name="uni1ECC" unicode="&#x1ecc;" 
d="M300 -14q-135 0 -187 81.5t-52 292.5v80q0 211 52 292.5t187 81.5t187 -81.5t52 -292.5v-80q0 -211 -52 -292.5t-187 -81.5zM300 43q101 0 139 68t38 249v80q0 181 -38 249t-139 68q-102 0 -140 -68t-37 -249v-80q1 -181 39 -249t138 -68zM300 -238q-40 0 -56.5 15.5
t-16.5 53.5t16 53t57 15t57 -15t16 -53t-16.5 -53.5t-56.5 -15.5z" />
    <glyph glyph-name="uni1ECD" unicode="&#x1ecd;" 
d="M300 -14q-125 0 -173 70.5t-48 252.5t48 252.5t173 70.5t173 -70.5t48 -252.5t-48 -252.5t-173 -70.5zM300 43q91 0 125 57t34 209t-34 209t-125 57t-125 -57t-34 -209t34 -209t125 -57zM300 -235q-40 0 -56.5 15.5t-16.5 53.5t16 53t57 15t57 -15t16 -53t-16.5 -53.5
t-56.5 -15.5z" />
    <glyph glyph-name="uni1ECE" unicode="&#x1ece;" 
d="M280 841l-15 55q65 15 65 48q0 14 -10.5 22.5t-23.5 8.5q-39 0 -88 -41v68q38 30 88 30q42 0 69 -23.5t27 -61.5q0 -37 -30 -66t-82 -40zM300 -14q-135 0 -187 81.5t-52 292.5v80q0 211 52 292.5t187 81.5t187 -81.5t52 -292.5v-80q0 -211 -52 -292.5t-187 -81.5zM300 43
q101 0 139 68t38 249v80q0 181 -38 249t-139 68q-102 0 -140 -68t-37 -249v-80q1 -181 39 -249t138 -68z" />
    <glyph glyph-name="uni1ECF" unicode="&#x1ecf;" 
d="M280 656l-15 55q65 15 65 48q0 14 -10.5 22.5t-23.5 8.5q-39 0 -88 -41v68q38 30 88 30q42 0 69 -23.5t27 -61.5q0 -37 -30 -66t-82 -40zM300 -14q-125 0 -173 70.5t-48 252.5t48 252.5t173 70.5t173 -70.5t48 -252.5t-48 -252.5t-173 -70.5zM300 43q91 0 125 57t34 209
t-34 209t-125 57t-125 -57t-34 -209t34 -209t125 -57z" />
    <glyph glyph-name="uni1ED0" unicode="&#x1ed0;" 
d="M432 911l-41 43l133 116l41 -44zM391 834l-91 83l-92 -81l-47 37l139 123l139 -125zM300 -14q-135 0 -187 81.5t-52 292.5v80q0 211 52 292.5t187 81.5t187 -81.5t52 -292.5v-80q0 -211 -52 -292.5t-187 -81.5zM300 43q101 0 139 68t38 249v80q0 181 -38 249t-139 68
q-102 0 -140 -68t-37 -249v-80q1 -181 39 -249t138 -68z" />
    <glyph glyph-name="uni1ED1" unicode="&#x1ed1;" 
d="M290 888l-41 44l143 125l41 -43zM391 678l-91 82l-92 -80l-47 37l139 123l139 -125zM300 -14q-125 0 -173 70.5t-48 252.5t48 252.5t173 70.5t173 -70.5t48 -252.5t-48 -252.5t-173 -70.5zM300 43q91 0 125 57t34 209t-34 209t-125 57t-125 -57t-34 -209t34 -209t125 -57
z" />
    <glyph glyph-name="uni1ED2" unicode="&#x1ed2;" 
d="M475 890l-132 115l41 43l133 -115zM391 834l-91 83l-92 -81l-47 37l139 123l139 -125zM300 -14q-135 0 -187 81.5t-52 292.5v80q0 211 52 292.5t187 81.5t187 -81.5t52 -292.5v-80q0 -211 -52 -292.5t-187 -81.5zM300 43q101 0 139 68t38 249v80q0 181 -38 249t-139 68
q-102 0 -140 -68t-37 -249v-80q1 -181 39 -249t138 -68z" />
    <glyph glyph-name="uni1ED3" unicode="&#x1ed3;" 
d="M310 888l-143 126l41 43l143 -125zM391 678l-91 82l-92 -80l-47 37l139 123l139 -125zM300 -14q-125 0 -173 70.5t-48 252.5t48 252.5t173 70.5t173 -70.5t48 -252.5t-48 -252.5t-173 -70.5zM300 43q91 0 125 57t34 209t-34 209t-125 57t-125 -57t-34 -209t34 -209
t125 -57z" />
    <glyph glyph-name="uni1ED4" unicode="&#x1ed4;" 
d="M466 878l-15 55q65 15 65 49q0 13 -10 22t-24 9q-38 0 -88 -42v68q40 31 88 31q42 0 69 -24t27 -62q0 -37 -29.5 -66t-82.5 -40zM391 834l-91 83l-92 -81l-47 37l139 123l139 -125zM300 -14q-135 0 -187 81.5t-52 292.5v80q0 211 52 292.5t187 81.5t187 -81.5t52 -292.5
v-80q0 -211 -52 -292.5t-187 -81.5zM300 43q101 0 139 68t38 249v80q0 181 -38 249t-139 68q-102 0 -140 -68t-37 -249v-80q1 -181 39 -249t138 -68z" />
    <glyph glyph-name="uni1ED5" unicode="&#x1ed5;" 
d="M280 861l-15 55q65 15 65 48q0 14 -10.5 22.5t-23.5 8.5q-39 0 -88 -41v68q38 30 88 30q42 0 69 -23.5t27 -61.5q0 -37 -30 -66t-82 -40zM391 678l-91 82l-92 -80l-47 37l139 123l139 -125zM300 -14q-125 0 -173 70.5t-48 252.5t48 252.5t173 70.5t173 -70.5t48 -252.5
t-48 -252.5t-173 -70.5zM300 43q91 0 125 57t34 209t-34 209t-125 57t-125 -57t-34 -209t34 -209t125 -57z" />
    <glyph glyph-name="uni1ED6" unicode="&#x1ed6;" 
d="M591 914q-30 0 -75 38.5t-59 38.5q-17 0 -21.5 -12.5t-2.5 -38.5h-62q-2 48 22 78t64 30q30 0 75 -38.5t59 -38.5q17 0 22 12t2 36h63q2 -46 -22 -75.5t-65 -29.5zM391 834l-91 83l-92 -81l-47 37l139 123l139 -125zM300 -14q-135 0 -187 81.5t-52 292.5v80
q0 211 52 292.5t187 81.5t187 -81.5t52 -292.5v-80q0 -211 -52 -292.5t-187 -81.5zM300 43q101 0 139 68t38 249v80q0 181 -38 249t-139 68q-102 0 -140 -68t-37 -249v-80q1 -181 39 -249t138 -68z" />
    <glyph glyph-name="uni1ED7" unicode="&#x1ed7;" 
d="M367 903q-30 0 -75 38.5t-59 38.5q-17 0 -21.5 -12.5t-2.5 -38.5h-63q-2 48 22.5 78t64.5 30q29 0 74 -38.5t60 -38.5q17 0 21.5 11.5t2.5 36.5h63q2 -47 -22.5 -76t-64.5 -29zM391 678l-91 82l-92 -80l-47 37l139 123l139 -125zM300 -14q-125 0 -173 70.5t-48 252.5
t48 252.5t173 70.5t173 -70.5t48 -252.5t-48 -252.5t-173 -70.5zM300 43q91 0 125 57t34 209t-34 209t-125 57t-125 -57t-34 -209t34 -209t125 -57z" />
    <glyph glyph-name="uni1ED8" unicode="&#x1ed8;" 
d="M391 863l-91 82l-92 -80l-47 37l139 123l139 -125zM300 -14q-135 0 -187 81.5t-52 292.5v80q0 211 52 292.5t187 81.5t187 -81.5t52 -292.5v-80q0 -211 -52 -292.5t-187 -81.5zM300 43q101 0 139 68t38 249v80q0 181 -38 249t-139 68q-102 0 -140 -68t-37 -249v-80
q1 -181 39 -249t138 -68zM300 -238q-40 0 -56.5 15.5t-16.5 53.5t16 53t57 15t57 -15t16 -53t-16.5 -53.5t-56.5 -15.5z" />
    <glyph glyph-name="uni1ED9" unicode="&#x1ed9;" 
d="M391 678l-91 82l-92 -80l-47 37l139 123l139 -125zM300 -14q-125 0 -173 70.5t-48 252.5t48 252.5t173 70.5t173 -70.5t48 -252.5t-48 -252.5t-173 -70.5zM300 43q91 0 125 57t34 209t-34 209t-125 57t-125 -57t-34 -209t34 -209t125 -57zM300 -235q-40 0 -56.5 15.5
t-16.5 53.5t16 53t57 15t57 -15t16 -53t-16.5 -53.5t-56.5 -15.5z" />
    <glyph glyph-name="uni1EDA" unicode="&#x1eda;" 
d="M433 994l-143 -126l-41 44l143 125zM606 909h62v-136q0 -57 -31.5 -92t-81.5 -35q-17 0 -36 8q20 -77 20 -214v-80q0 -211 -52 -292.5t-187 -81.5t-187 81.5t-52 292.5v80q0 211 52 292.5t187 81.5q141 0 192 -89q23 -22 61 -22q24 0 38.5 19t14.5 51v136zM477 360v80
q0 181 -38 249t-139 68q-102 0 -140 -68t-37 -249v-80q1 -181 39 -249t138 -68q101 0 139 68t38 249z" />
    <glyph glyph-name="uni1EDB" unicode="&#x1edb;" 
d="M433 809l-143 -126l-41 44l143 125zM581 724h62v-136q0 -57 -31.5 -92t-81.5 -35q-10 0 -20 3q11 -66 11 -155q0 -182 -48 -252.5t-173 -70.5t-173 70.5t-48 252.5t48 252.5t173 70.5q78 0 123.5 -25t69.5 -83q16 -6 35 -6q24 0 38.5 19t14.5 51v136zM300 43q91 0 125 57
t34 209t-34 209t-125 57t-125 -57t-34 -209t34 -209t125 -57z" />
    <glyph glyph-name="uni1EDC" unicode="&#x1edc;" 
d="M351 912l-41 -44l-143 126l41 43zM606 909h62v-136q0 -57 -31.5 -92t-81.5 -35q-17 0 -36 8q20 -77 20 -214v-80q0 -211 -52 -292.5t-187 -81.5t-187 81.5t-52 292.5v80q0 211 52 292.5t187 81.5q141 0 192 -89q23 -22 61 -22q24 0 38.5 19t14.5 51v136zM477 360v80
q0 181 -38 249t-139 68q-102 0 -140 -68t-37 -249v-80q1 -181 39 -249t138 -68q101 0 139 68t38 249z" />
    <glyph glyph-name="uni1EDD" unicode="&#x1edd;" 
d="M351 727l-41 -44l-143 126l41 43zM581 724h62v-136q0 -57 -31.5 -92t-81.5 -35q-10 0 -20 3q11 -66 11 -155q0 -182 -48 -252.5t-173 -70.5t-173 70.5t-48 252.5t48 252.5t173 70.5q78 0 123.5 -25t69.5 -83q16 -6 35 -6q24 0 38.5 19t14.5 51v136zM300 43q91 0 125 57
t34 209t-34 209t-125 57t-125 -57t-34 -209t34 -209t125 -57z" />
    <glyph glyph-name="uni1EDE" unicode="&#x1ede;" 
d="M330 944q0 14 -10.5 22.5t-23.5 8.5q-39 0 -88 -41v68q38 30 88 30q42 0 69 -23.5t27 -61.5q0 -37 -30 -66t-82 -40l-15 55q65 15 65 48zM606 909h62v-136q0 -57 -31.5 -92t-81.5 -35q-17 0 -36 8q20 -77 20 -214v-80q0 -211 -52 -292.5t-187 -81.5t-187 81.5t-52 292.5
v80q0 211 52 292.5t187 81.5q141 0 192 -89q23 -22 61 -22q24 0 38.5 19t14.5 51v136zM477 360v80q0 181 -38 249t-139 68q-102 0 -140 -68t-37 -249v-80q1 -181 39 -249t138 -68q101 0 139 68t38 249z" />
    <glyph glyph-name="uni1EDF" unicode="&#x1edf;" 
d="M330 759q0 14 -10.5 22.5t-23.5 8.5q-39 0 -88 -41v68q38 30 88 30q42 0 69 -23.5t27 -61.5q0 -37 -30 -66t-82 -40l-15 55q65 15 65 48zM581 724h62v-136q0 -57 -31.5 -92t-81.5 -35q-10 0 -20 3q11 -66 11 -155q0 -182 -48 -252.5t-173 -70.5t-173 70.5t-48 252.5
t48 252.5t173 70.5q78 0 123.5 -25t69.5 -83q16 -6 35 -6q24 0 38.5 19t14.5 51v136zM300 43q91 0 125 57t34 209t-34 209t-125 57t-125 -57t-34 -209t34 -209t125 -57z" />
    <glyph glyph-name="uni1EE0" unicode="&#x1ee0;" 
d="M209 909h-63q-2 48 22.5 78t64.5 30q29 0 74 -38.5t60 -38.5q17 0 21.5 11.5t2.5 36.5h63q2 -47 -22.5 -76t-64.5 -29q-30 0 -75 38.5t-59 38.5q-17 0 -21.5 -12.5t-2.5 -38.5zM606 909h62v-136q0 -57 -31.5 -92t-81.5 -35q-17 0 -36 8q20 -77 20 -214v-80
q0 -211 -52 -292.5t-187 -81.5t-187 81.5t-52 292.5v80q0 211 52 292.5t187 81.5q141 0 192 -89q23 -22 61 -22q24 0 38.5 19t14.5 51v136zM477 360v80q0 181 -38 249t-139 68q-102 0 -140 -68t-37 -249v-80q1 -181 39 -249t138 -68q101 0 139 68t38 249z" />
    <glyph glyph-name="uni1EE1" unicode="&#x1ee1;" 
d="M209 724h-63q-2 48 22.5 78t64.5 30q29 0 74 -38.5t60 -38.5q17 0 21.5 11.5t2.5 36.5h63q2 -47 -22.5 -76t-64.5 -29q-30 0 -75 38.5t-59 38.5q-17 0 -21.5 -12.5t-2.5 -38.5zM581 724h62v-136q0 -57 -31.5 -92t-81.5 -35q-10 0 -20 3q11 -66 11 -155q0 -182 -48 -252.5
t-173 -70.5t-173 70.5t-48 252.5t48 252.5t173 70.5q78 0 123.5 -25t69.5 -83q16 -6 35 -6q24 0 38.5 19t14.5 51v136zM300 43q91 0 125 57t34 209t-34 209t-125 57t-125 -57t-34 -209t34 -209t125 -57z" />
    <glyph glyph-name="uni1EE2" unicode="&#x1ee2;" 
d="M606 909h62v-136q0 -57 -31.5 -92t-81.5 -35q-17 0 -36 8q20 -77 20 -214v-80q0 -211 -52 -292.5t-187 -81.5t-187 81.5t-52 292.5v80q0 211 52 292.5t187 81.5q141 0 192 -89q23 -22 61 -22q24 0 38.5 19t14.5 51v136zM477 360v80q0 181 -38 249t-139 68
q-102 0 -140 -68t-37 -249v-80q1 -181 39 -249t138 -68q101 0 139 68t38 249zM300 -101q41 0 57 -15t16 -53t-16.5 -53.5t-56.5 -15.5t-56.5 15.5t-16.5 53.5t16 53t57 15z" />
    <glyph glyph-name="uni1EE3" unicode="&#x1ee3;" 
d="M581 724h62v-136q0 -57 -31.5 -92t-81.5 -35q-10 0 -20 3q11 -66 11 -155q0 -182 -48 -252.5t-173 -70.5t-173 70.5t-48 252.5t48 252.5t173 70.5q78 0 123.5 -25t69.5 -83q16 -6 35 -6q24 0 38.5 19t14.5 51v136zM300 43q91 0 125 57t34 209t-34 209t-125 57t-125 -57
t-34 -209t34 -209t125 -57zM300 -98q41 0 57 -15t16 -53t-16.5 -53.5t-56.5 -15.5t-56.5 15.5t-16.5 53.5t16 53t57 15z" />
    <glyph glyph-name="uni1EE4" unicode="&#x1ee4;" 
d="M300 -14q-124 0 -171 67.5t-47 242.5v504h62v-504q0 -145 33.5 -199t122.5 -54t122.5 54t33.5 199v504h62v-504q0 -175 -47 -242.5t-171 -67.5zM300 -238q-40 0 -56.5 15.5t-16.5 53.5t16 53t57 15t57 -15t16 -53t-16.5 -53.5t-56.5 -15.5z" />
    <glyph glyph-name="uni1EE5" unicode="&#x1ee5;" 
d="M283 -14q-109 0 -150 49.5t-41 180.5v402h62v-402q0 -100 27.5 -136.5t101.5 -36.5q100 0 137 31t37 115v429h62v-618h-62v50q-28 -36 -66 -50t-108 -14zM300 -235q-40 0 -56.5 15.5t-16.5 53.5t16 53t57 15t57 -15t16 -53t-16.5 -53.5t-56.5 -15.5z" />
    <glyph glyph-name="uni1EE6" unicode="&#x1ee6;" 
d="M280 841l-15 55q65 15 65 48q0 14 -10.5 22.5t-23.5 8.5q-39 0 -88 -41v68q38 30 88 30q42 0 69 -23.5t27 -61.5q0 -37 -30 -66t-82 -40zM300 -14q-124 0 -171 67.5t-47 242.5v504h62v-504q0 -145 33.5 -199t122.5 -54t122.5 54t33.5 199v504h62v-504q0 -175 -47 -242.5
t-171 -67.5z" />
    <glyph glyph-name="uni1EE7" unicode="&#x1ee7;" 
d="M280 656l-15 55q65 15 65 48q0 14 -10.5 22.5t-23.5 8.5q-39 0 -88 -41v68q38 30 88 30q42 0 69 -23.5t27 -61.5q0 -37 -30 -66t-82 -40zM283 -14q-109 0 -150 49.5t-41 180.5v402h62v-402q0 -100 27.5 -136.5t101.5 -36.5q100 0 137 31t37 115v429h62v-618h-62v50
q-28 -36 -66 -50t-108 -14z" />
    <glyph glyph-name="uni1EE8" unicode="&#x1ee8;" 
d="M433 994l-143 -126l-41 44l143 125zM606 974h62v-135q0 -57 -31.5 -92.5t-81.5 -35.5q-17 0 -37 9v-424q0 -175 -47 -242.5t-171 -67.5t-171 67.5t-47 242.5v504h62v-504q0 -145 33.5 -199t122.5 -54t122.5 54t33.5 199v504h62v-26q18 -6 35 -6q24 0 38.5 19.5t14.5 51.5
v135z" />
    <glyph glyph-name="uni1EE9" unicode="&#x1ee9;" 
d="M433 809l-143 -126l-41 44l143 125zM606 792h62v-135q0 -57 -31.5 -92.5t-81.5 -35.5q-17 0 -36 8v-537h-62v50q-28 -36 -66 -50t-108 -14q-109 0 -150 49.5t-41 180.5v402h62v-402q0 -100 27.5 -136.5t101.5 -36.5q100 0 137 31t37 115v429h62v-26q17 -6 34 -6
q24 0 38.5 19.5t14.5 51.5v135z" />
    <glyph glyph-name="uni1EEA" unicode="&#x1eea;" 
d="M351 912l-41 -44l-143 126l41 43zM606 974h62v-135q0 -57 -31.5 -92.5t-81.5 -35.5q-17 0 -37 9v-424q0 -175 -47 -242.5t-171 -67.5t-171 67.5t-47 242.5v504h62v-504q0 -145 33.5 -199t122.5 -54t122.5 54t33.5 199v504h62v-26q18 -6 35 -6q24 0 38.5 19.5t14.5 51.5
v135z" />
    <glyph glyph-name="uni1EEB" unicode="&#x1eeb;" 
d="M351 727l-41 -44l-143 126l41 43zM606 792h62v-135q0 -57 -31.5 -92.5t-81.5 -35.5q-17 0 -36 8v-537h-62v50q-28 -36 -66 -50t-108 -14q-109 0 -150 49.5t-41 180.5v402h62v-402q0 -100 27.5 -136.5t101.5 -36.5q100 0 137 31t37 115v429h62v-26q17 -6 34 -6
q24 0 38.5 19.5t14.5 51.5v135z" />
    <glyph glyph-name="uni1EEC" unicode="&#x1eec;" 
d="M330 944q0 14 -10.5 22.5t-23.5 8.5q-39 0 -88 -41v68q38 30 88 30q42 0 69 -23.5t27 -61.5q0 -37 -30 -66t-82 -40l-15 55q65 15 65 48zM606 974h62v-135q0 -57 -31.5 -92.5t-81.5 -35.5q-17 0 -37 9v-424q0 -175 -47 -242.5t-171 -67.5t-171 67.5t-47 242.5v504h62
v-504q0 -145 33.5 -199t122.5 -54t122.5 54t33.5 199v504h62v-26q18 -6 35 -6q24 0 38.5 19.5t14.5 51.5v135z" />
    <glyph glyph-name="uni1EED" unicode="&#x1eed;" 
d="M330 759q0 14 -10.5 22.5t-23.5 8.5q-39 0 -88 -41v68q38 30 88 30q42 0 69 -23.5t27 -61.5q0 -37 -30 -66t-82 -40l-15 55q65 15 65 48zM606 792h62v-135q0 -57 -31.5 -92.5t-81.5 -35.5q-17 0 -36 8v-537h-62v50q-28 -36 -66 -50t-108 -14q-109 0 -150 49.5t-41 180.5
v402h62v-402q0 -100 27.5 -136.5t101.5 -36.5q100 0 137 31t37 115v429h62v-26q17 -6 34 -6q24 0 38.5 19.5t14.5 51.5v135z" />
    <glyph glyph-name="uni1EEE" unicode="&#x1eee;" 
d="M209 909h-63q-2 48 22.5 78t64.5 30q29 0 74 -38.5t60 -38.5q17 0 21.5 11.5t2.5 36.5h63q2 -47 -22.5 -76t-64.5 -29q-30 0 -75 38.5t-59 38.5q-17 0 -21.5 -12.5t-2.5 -38.5zM606 974h62v-135q0 -57 -31.5 -92.5t-81.5 -35.5q-17 0 -37 9v-424q0 -175 -47 -242.5
t-171 -67.5t-171 67.5t-47 242.5v504h62v-504q0 -145 33.5 -199t122.5 -54t122.5 54t33.5 199v504h62v-26q18 -6 35 -6q24 0 38.5 19.5t14.5 51.5v135z" />
    <glyph glyph-name="uni1EEF" unicode="&#x1eef;" 
d="M209 724h-63q-2 48 22.5 78t64.5 30q29 0 74 -38.5t60 -38.5q17 0 21.5 11.5t2.5 36.5h63q2 -47 -22.5 -76t-64.5 -29q-30 0 -75 38.5t-59 38.5q-17 0 -21.5 -12.5t-2.5 -38.5zM606 792h62v-135q0 -57 -31.5 -92.5t-81.5 -35.5q-17 0 -36 8v-537h-62v50q-28 -36 -66 -50
t-108 -14q-109 0 -150 49.5t-41 180.5v402h62v-402q0 -100 27.5 -136.5t101.5 -36.5q100 0 137 31t37 115v429h62v-26q17 -6 34 -6q24 0 38.5 19.5t14.5 51.5v135z" />
    <glyph glyph-name="uni1EF0" unicode="&#x1ef0;" 
d="M606 974h62v-135q0 -57 -31.5 -92.5t-81.5 -35.5q-17 0 -37 9v-424q0 -175 -47 -242.5t-171 -67.5t-171 67.5t-47 242.5v504h62v-504q0 -145 33.5 -199t122.5 -54t122.5 54t33.5 199v504h62v-26q18 -6 35 -6q24 0 38.5 19.5t14.5 51.5v135zM300 -101q41 0 57 -15t16 -53
t-16.5 -53.5t-56.5 -15.5t-56.5 15.5t-16.5 53.5t16 53t57 15z" />
    <glyph glyph-name="uni1EF1" unicode="&#x1ef1;" 
d="M606 792h62v-135q0 -57 -31.5 -92.5t-81.5 -35.5q-17 0 -36 8v-537h-62v50q-28 -36 -66 -50t-108 -14q-109 0 -150 49.5t-41 180.5v402h62v-402q0 -100 27.5 -136.5t101.5 -36.5q100 0 137 31t37 115v429h62v-26q17 -6 34 -6q24 0 38.5 19.5t14.5 51.5v135zM300 -98
q41 0 57 -15t16 -53t-16.5 -53.5t-56.5 -15.5t-56.5 15.5t-16.5 53.5t16 53t57 15z" />
    <glyph glyph-name="Ygrave" unicode="&#x1ef2;" 
d="M310 868l-143 126l41 43l143 -125zM269 0v304l-236 496h68l199 -418l199 418h68l-236 -496v-304h-62z" />
    <glyph glyph-name="ygrave" unicode="&#x1ef3;" 
d="M310 683l-143 126l41 43l143 -125zM134 -196q-55 0 -97 29l24 52q42 -24 73 -24q63 0 96.5 30t60.5 112l-200 615h65l168 -527l170 527h65l-204 -616q-38 -112 -85.5 -155t-135.5 -43z" />
    <glyph glyph-name="uni1EF4" unicode="&#x1ef4;" 
d="M269 0v304l-236 496h68l199 -418l199 418h68l-236 -496v-304h-62zM300 -238q-40 0 -56.5 15.5t-16.5 53.5t16 53t57 15t57 -15t16 -53t-16.5 -53.5t-56.5 -15.5z" />
    <glyph glyph-name="uni1EF5" unicode="&#x1ef5;" 
d="M134 -196q-55 0 -97 29l24 52q42 -24 73 -24q63 0 96.5 30t60.5 112l-200 615h65l168 -527l170 527h65l-204 -616q-38 -112 -85.5 -155t-135.5 -43zM442 -235q-40 0 -56.5 15.5t-16.5 53.5t16 53t57 15t57 -15t16 -53t-16.5 -53.5t-56.5 -15.5z" />
    <glyph glyph-name="uni1EF6" unicode="&#x1ef6;" 
d="M280 841l-15 55q65 15 65 48q0 14 -10.5 22.5t-23.5 8.5q-39 0 -88 -41v68q38 30 88 30q42 0 69 -23.5t27 -61.5q0 -37 -30 -66t-82 -40zM269 0v304l-236 496h68l199 -418l199 418h68l-236 -496v-304h-62z" />
    <glyph glyph-name="uni1EF7" unicode="&#x1ef7;" 
d="M280 656l-15 55q65 15 65 48q0 14 -10.5 22.5t-23.5 8.5q-39 0 -88 -41v68q38 30 88 30q42 0 69 -23.5t27 -61.5q0 -37 -30 -66t-82 -40zM134 -196q-55 0 -97 29l24 52q42 -24 73 -24q63 0 96.5 30t60.5 112l-200 615h65l168 -527l170 527h65l-204 -616
q-38 -112 -85.5 -155t-135.5 -43z" />
    <glyph glyph-name="uni1EF8" unicode="&#x1ef8;" 
d="M367 883q-30 0 -75 38.5t-59 38.5q-17 0 -21.5 -12.5t-2.5 -38.5h-63q-2 48 22.5 78t64.5 30q29 0 74 -38.5t60 -38.5q17 0 21.5 11.5t2.5 36.5h63q2 -47 -22.5 -76t-64.5 -29zM269 0v304l-236 496h68l199 -418l199 418h68l-236 -496v-304h-62z" />
    <glyph glyph-name="uni1EF9" unicode="&#x1ef9;" 
d="M367 698q-30 0 -75 38.5t-59 38.5q-17 0 -21.5 -12.5t-2.5 -38.5h-63q-2 48 22.5 78t64.5 30q29 0 74 -38.5t60 -38.5q17 0 21.5 11.5t2.5 36.5h63q2 -47 -22.5 -76t-64.5 -29zM134 -196q-55 0 -97 29l24 52q42 -24 73 -24q63 0 96.5 30t60.5 112l-200 615h65l168 -527
l170 527h65l-204 -616q-38 -112 -85.5 -155t-135.5 -43z" />
    <glyph glyph-name="endash" unicode="&#x2013;" 
d="M84 371v58h432v-58h-432z" />
    <glyph glyph-name="emdash" unicode="&#x2014;" 
d="M26 371v58h548v-58h-548z" />
    <glyph glyph-name="uni2015" unicode="&#x2015;" 
d="M0 371v58h600v-58h-600z" />
    <glyph glyph-name="quoteleft" unicode="&#x2018;" 
d="M392 820l-75 -192q39 -9 39 -65q0 -38 -16 -53t-57 -15t-57 15t-16 53q0 81 116 257h66z" />
    <glyph glyph-name="quoteright" unicode="&#x2019;" 
d="M191 449l75 192q-39 9 -39 65q0 38 16 53t57 15t57 -15t16 -53q0 -81 -116 -257h-66z" />
    <glyph glyph-name="quotesinglbase" unicode="&#x201a;" 
d="M191 -202l75 192q-39 9 -39 65q0 38 16 53t57 15t57 -15t16 -53q0 -81 -116 -257h-66z" />
    <glyph glyph-name="quotedblleft" unicode="&#x201c;" 
d="M267 820l-75 -192q39 -9 39 -65q0 -38 -16 -53t-57 -15t-57 15t-16 53q0 81 116 257h66zM562 820l-75 -192q39 -9 39 -65q0 -38 -16 -53t-57 -15t-57 15t-16 53q0 81 116 257h66z" />
    <glyph glyph-name="quotedblright" unicode="&#x201d;" 
d="M67 450l75 192q-39 9 -39 65q0 38 16 53t57 15t57 -15t16 -53q0 -81 -116 -257h-66zM362 450l75 192q-39 9 -39 65q0 38 16 53t57 15t57 -15t16 -53q0 -81 -116 -257h-66z" />
    <glyph glyph-name="quotedblbase" unicode="&#x201e;" 
d="M66 -202l75 192q-39 9 -39 65q0 38 16 53t57 15t57 -15t16 -53q0 -81 -116 -257h-66zM361 -202l75 192q-39 9 -39 65q0 38 16 53t57 15t57 -15t16 -53q0 -81 -116 -257h-66z" />
    <glyph glyph-name="dagger" unicode="&#x2020;" 
d="M486 618v-57h-156v-264h-62v264h-155v57h155v182h62v-182h156z" />
    <glyph glyph-name="daggerdbl" unicode="&#x2021;" 
d="M486 605h-156v-113h156v-57h-156v-138h-62v138h-155v57h155v113h-155v57h155v138h62v-138h156v-57z" />
    <glyph glyph-name="bullet" unicode="&#x2022;" 
d="M300 291q-52 0 -84 30t-32 79t32 79t84 30t84 -30t32 -79t-32 -79t-84 -30z" />
    <glyph glyph-name="ellipsis" unicode="&#x2026;" 
d="M107 -14q-41 0 -57 15t-16 54q0 38 16 53t57 15t57 -15t16 -53q0 -39 -16 -54t-57 -15zM300 -14q-41 0 -57 15t-16 54q0 38 16 53t57 15t57 -15t16 -53q0 -39 -16 -54t-57 -15zM493 -14q-41 0 -57 15t-16 54q0 38 16 53t57 15t57 -15t16 -53q0 -39 -16 -54t-57 -15z" />
    <glyph glyph-name="perthousand" unicode="&#x2030;" 
d="M11 264l513 515h84l-515 -515h-82zM109 508q-62 0 -86 26.5t-24 94.5t24 94.5t86 26.5q63 0 87.5 -26.5t24.5 -94.5t-24.5 -94.5t-87.5 -26.5zM109 566q29 0 39.5 13t10.5 50t-10.5 50t-39.5 13q-28 0 -38 -13t-10 -50t10 -50t38 -13zM259 52q-62 0 -86 27t-24 97
q0 66 24 92t86 26q63 0 87.5 -26.5t24.5 -94.5t-24.5 -94.5t-87.5 -26.5zM489 52q-62 0 -86 26.5t-24 94.5t24 94.5t86 26.5q63 0 87.5 -26.5t24.5 -94.5t-24.5 -94.5t-87.5 -26.5zM259 110q29 0 39.5 13t10.5 50t-10.5 50t-39.5 13q-28 0 -38 -13t-10 -50t10 -50t38 -13z
M489 110q29 0 39.5 13t10.5 50t-10.5 50t-39.5 13q-28 0 -38 -13t-10 -50t10 -50t38 -13z" />
    <glyph glyph-name="guilsinglleft" unicode="&#x2039;" 
d="M325 173l-182 227l182 227h76l-182 -227l182 -227h-76z" />
    <glyph glyph-name="guilsinglright" unicode="&#x203a;" 
d="M199 173l182 227l-182 227h76l182 -227l-182 -227h-76z" />
    <glyph glyph-name="exclamdbl" unicode="&#x203c;" 
d="M129 225l-10 575h82l-10 -575h-62zM409 225l-10 575h82l-10 -575h-62zM160 -14q-38 0 -53 14t-15 51q0 34 15 48t53 14t53 -14t15 -48q0 -37 -15 -51t-53 -14zM440 -14q-38 0 -53 14t-15 51q0 34 15 48t53 14t53 -14t15 -48q0 -37 -15 -51t-53 -14z" />
    <glyph glyph-name="fraction" unicode="&#x2044;" horiz-adv-x="0" 
d="M-207 0l353 800h61l-353 -800h-61z" />
    <glyph glyph-name="uni2070" unicode="&#x2070;" 
d="M300 417q-58 0 -95 62.5t-37 157.5t37 157.5t95 62.5t96 -62.5t38 -157.5t-38 -157.5t-96 -62.5zM300 471q31 0 53.5 48.5t22.5 117.5q0 70 -22.5 118t-53.5 48t-52.5 -48t-21.5 -118t22 -118t52 -48zM300 599q-18 0 -29.5 10.5t-11.5 27.5t11.5 28t29.5 11t30 -11
t12 -28q0 -16 -12 -27t-30 -11z" />
    <glyph glyph-name="uni2071" unicode="&#x2071;" 
d="M312 790q-25 0 -35 9.5t-10 33.5q0 23 10 32t35 9q26 0 36 -9t10 -32q0 -24 -10 -33.5t-36 -9.5zM357 328h115v-57h-292v57h115v321h-84v57h146v-378z" />
    <glyph glyph-name="uni2074" unicode="&#x2074;" 
d="M339 424v108h-173v42l182 276h49v-265h37v-53h-37v-108h-58zM242 585h97v149z" />
    <glyph glyph-name="uni2075" unicode="&#x2075;" 
d="M300 417q-75 0 -103.5 27t-25.5 95h58q-2 -42 11 -55t60 -13t62.5 17.5t15.5 70.5q0 52 -15.5 69.5t-62.5 17.5q-31 0 -72 -31h-47v235h243v-53h-186v-111q24 14 62 14q75 0 105.5 -31.5t30.5 -109.5t-30.5 -110t-105.5 -32z" />
    <glyph glyph-name="uni2076" unicode="&#x2076;" 
d="M300 417q-71 0 -100 31.5t-29 108.5v151q0 82 28.5 115.5t100.5 33.5q75 0 103.5 -28.5t25.5 -100.5h-58q2 46 -11 60.5t-60 14.5q-42 0 -56.5 -19t-14.5 -76l-1 -26q26 17 72 17q72 0 101 -31.5t29 -109.5q0 -77 -29.5 -109t-100.5 -32zM300 471q42 0 57 17.5t15 69.5
q0 53 -14.5 70t-57.5 17t-57 -17t-14 -71q0 -52 14.5 -69t56.5 -17z" />
    <glyph glyph-name="uni2077" unicode="&#x2077;" 
d="M210 424q42 179 149 371l-189 1v54h259l-1 -45q-112 -196 -158 -381h-60z" />
    <glyph glyph-name="uni2078" unicode="&#x2078;" 
d="M300 417q-73 0 -103 29t-30 100q0 79 42 105q-30 25 -30 89t27 90.5t94 26.5t95 -26.5t28 -90.5q0 -63 -31 -89q42 -27 42 -105q0 -71 -30 -100t-104 -29zM300 676q39 0 52 12.5t13 51.5q0 38 -13 50.5t-52 12.5t-51 -12.5t-12 -50.5q0 -40 12.5 -52t50.5 -12zM300 471
q46 0 61 15t15 60q0 46 -15 61t-61 15t-60.5 -15t-14.5 -61q0 -45 15 -60t60 -15z" />
    <glyph glyph-name="uni2079" unicode="&#x2079;" 
d="M300 417q-75 0 -103 28.5t-26 100.5h58q-2 -46 11 -60.5t60 -14.5q42 0 57 19.5t15 76.5l-1 25q-23 -16 -71 -16q-72 0 -100.5 31.5t-28.5 109.5q0 77 29 108.5t100 31.5t100.5 -31.5t29.5 -108.5v-150q0 -82 -29.5 -116t-100.5 -34zM300 630q43 0 57.5 17t14.5 70
q0 52 -14.5 69t-57.5 17q-42 0 -56.5 -17t-14.5 -69q0 -54 14 -70.5t57 -16.5z" />
    <glyph glyph-name="uni207A" unicode="&#x207a;" 
d="M443 670v-57h-114v-115h-58v115h-114v57h114v115h58v-115h114z" />
    <glyph glyph-name="uni207B" unicode="&#x207b;" 
d="M157 613v57h286v-57h-286z" />
    <glyph glyph-name="uni207C" unicode="&#x207c;" 
d="M157 688v57h286v-57h-286zM157 538v57h286v-57h-286z" />
    <glyph glyph-name="uni207D" unicode="&#x207d;" 
d="M426 140q-110 0 -177.5 107t-67.5 283t67.5 283t177.5 107v-57q-82 0 -132.5 -91.5t-50.5 -241.5q0 -149 50.5 -241t132.5 -92v-57z" />
    <glyph glyph-name="uni207E" unicode="&#x207e;" 
d="M174 140v57q82 0 132.5 92t50.5 241q0 150 -50.5 241.5t-132.5 91.5v57q110 0 177.5 -107t67.5 -283t-67.5 -283t-177.5 -107z" />
    <glyph glyph-name="uni207F" unicode="&#x207f;" 
d="M132 271v444h62v-49q25 31 52 42.5t72 11.5q86 0 118.5 -48.5t32.5 -176.5v-224h-62v224q0 95 -19.5 131.5t-69.5 36.5q-71 0 -97.5 -30.5t-26.5 -111.5v-250h-62z" />
    <glyph glyph-name="uni2080" unicode="&#x2080;" 
d="M300 -57q-58 0 -95 62.5t-37 157.5t37 157.5t95 62.5t96 -62.5t38 -157.5t-38 -157.5t-96 -62.5zM300 -3q31 0 53.5 48.5t22.5 117.5q0 70 -22.5 118t-53.5 48t-52.5 -48t-21.5 -118t22 -118t52 -48zM300 125q-18 0 -29.5 10.5t-11.5 27.5t11.5 28t29.5 11t30 -11t12 -28
q0 -16 -12 -27t-30 -11z" />
    <glyph glyph-name="uni2081" unicode="&#x2081;" 
d="M330 4h71v-54h-200v54h71v256q-35 -20 -82 -16l1 53q41 -5 62.5 17t17.5 62h59v-372z" />
    <glyph glyph-name="uni2082" unicode="&#x2082;" 
d="M169 -50v38q0 31 21 60t51.5 52.5t60.5 48t51 55.5t21 65q0 36 -14.5 48t-59.5 12q-48 0 -61.5 -14.5t-11.5 -61.5l-58 1q-3 72 26 100.5t105 28.5q73 0 102.5 -25.5t29.5 -88.5q0 -41 -18 -76.5t-45.5 -61t-55.5 -47t-51.5 -42.5t-30.5 -38h200v-54h-262z" />
    <glyph glyph-name="uni2083" unicode="&#x2083;" 
d="M300 -57q-73 0 -100.5 28.5t-24.5 99.5l58 -1q-2 -45 10.5 -59t56.5 -14q41 0 55 14t14 57q0 45 -12 61t-47 19h-51v54l51 -1q36 3 47.5 15t11.5 49q0 39 -14 51.5t-55 12.5q-45 0 -56.5 -12.5t-10.5 -55.5l-58 1q-3 68 24.5 94.5t100.5 26.5q69 0 98 -27t29 -91t-37 -90
q37 -30 37 -107q0 -68 -29 -96.5t-98 -28.5z" />
    <glyph glyph-name="uni2084" unicode="&#x2084;" 
d="M339 -50v108h-173v42l182 276h49v-265h37v-53h-37v-108h-58zM242 111h97v149z" />
    <glyph glyph-name="uni2085" unicode="&#x2085;" 
d="M300 -57q-75 0 -103.5 27t-25.5 95h58q-2 -42 11 -55t60 -13t62.5 17.5t15.5 70.5q0 52 -15.5 69.5t-62.5 17.5q-31 0 -72 -31h-47v235h243v-53h-186v-111q24 14 62 14q75 0 105.5 -31.5t30.5 -109.5t-30.5 -110t-105.5 -32z" />
    <glyph glyph-name="uni2086" unicode="&#x2086;" 
d="M300 -57q-71 0 -100 31.5t-29 108.5v151q0 82 28.5 115.5t100.5 33.5q75 0 103.5 -28.5t25.5 -100.5h-58q2 46 -11 60.5t-60 14.5q-42 0 -56.5 -19t-14.5 -76l-1 -26q26 17 72 17q72 0 101 -31.5t29 -109.5q0 -77 -29.5 -109t-100.5 -32zM300 -3q42 0 57 17.5t15 69.5
q0 53 -14.5 70t-57.5 17t-57 -17t-14 -71q0 -52 14.5 -69t56.5 -17z" />
    <glyph glyph-name="uni2087" unicode="&#x2087;" 
d="M210 -50q42 179 149 371l-189 1v54h259l-1 -45q-112 -196 -158 -381h-60z" />
    <glyph glyph-name="uni2088" unicode="&#x2088;" 
d="M300 -57q-73 0 -103 29t-30 100q0 79 42 105q-30 25 -30 89t27 90.5t94 26.5t95 -26.5t28 -90.5q0 -63 -31 -89q42 -27 42 -105q0 -71 -30 -100t-104 -29zM300 202q39 0 52 12.5t13 51.5q0 38 -13 50.5t-52 12.5t-51 -12.5t-12 -50.5q0 -40 12.5 -52t50.5 -12zM300 -3
q46 0 61 15t15 60q0 46 -15 61t-61 15t-60.5 -15t-14.5 -61q0 -45 15 -60t60 -15z" />
    <glyph glyph-name="uni2089" unicode="&#x2089;" 
d="M300 -57q-75 0 -103 28.5t-26 100.5h58q-2 -46 11 -60.5t60 -14.5q42 0 57 19.5t15 76.5l-1 25q-23 -16 -71 -16q-72 0 -100.5 31.5t-28.5 109.5q0 77 29 108.5t100 31.5t100.5 -31.5t29.5 -108.5v-150q0 -82 -29.5 -116t-100.5 -34zM300 156q43 0 57.5 17t14.5 70
q0 52 -14.5 69t-57.5 17q-42 0 -56.5 -17t-14.5 -69q0 -54 14 -70.5t57 -16.5z" />
    <glyph glyph-name="uni208A" unicode="&#x208a;" 
d="M443 196v-57h-114v-115h-58v115h-114v57h114v115h58v-115h114z" />
    <glyph glyph-name="uni208B" unicode="&#x208b;" 
d="M157 139v57h286v-57h-286z" />
    <glyph glyph-name="uni208C" unicode="&#x208c;" 
d="M157 214v57h286v-57h-286zM157 64v57h286v-57h-286z" />
    <glyph glyph-name="uni208D" unicode="&#x208d;" 
d="M426 -165q-110 0 -177.5 107.5t-67.5 282.5q0 176 67.5 283t177.5 107v-57q-82 0 -132.5 -92t-50.5 -241q0 -150 50.5 -241.5t132.5 -91.5v-57z" />
    <glyph glyph-name="uni208E" unicode="&#x208e;" 
d="M174 -165v57q82 0 132.5 91.5t50.5 241.5q0 149 -50.5 241t-132.5 92v57q110 0 177.5 -107t67.5 -283q0 -175 -67.5 -282.5t-177.5 -107.5z" />
    <glyph glyph-name="uni2090" unicode="&#x2090;" 
d="M286 -64q-91 0 -125.5 28.5t-34.5 104.5q0 70 34.5 96t125.5 26h97v45q0 55 -21 76t-76 21q-39 0 -58.5 -14.5t-30.5 -53.5l-61 10q18 66 50 90.5t100 24.5q91 0 125 -33t34 -121v-208q0 -16 8 -22t30 -7v-58q-41 0 -60 11t-26 41q-19 -33 -42.5 -45t-68.5 -12zM286 -7
q56 0 76.5 22.5t20.5 83.5v43h-97q-55 0 -76.5 -16t-21.5 -57q0 -43 21 -59.5t77 -16.5z" />
    <glyph glyph-name="uni2091" unicode="&#x2091;" 
d="M313 -7q40 0 62 15.5t40 56.5l50 -34q-25 -54 -57 -74.5t-95 -20.5q-102 0 -140 46.5t-38 170.5q0 135 38 186t140 51q93 0 127.5 -52t34.5 -191h-278q1 -87 27 -120.5t89 -33.5zM313 333q-59 0 -85 -28.5t-30 -100.5h213q-7 73 -28.5 101t-69.5 28z" />
    <glyph glyph-name="uni2092" unicode="&#x2092;" 
d="M300 -64q-98 0 -134.5 49t-36.5 179q0 129 36.5 177.5t134.5 48.5t134.5 -48.5t36.5 -177.5q0 -130 -36.5 -179t-134.5 -49zM300 -7q62 0 85.5 37t23.5 134q0 96 -23.5 132.5t-85.5 36.5t-85.5 -36.5t-23.5 -132.5q0 -97 23.5 -134t85.5 -37z" />
    <glyph glyph-name="uni2093" unicode="&#x2093;" 
d="M475 385l-139 -222l139 -222h-71l-104 166l-104 -166h-71l140 222l-140 222h71l104 -166l104 166h71z" />
    <glyph glyph-name="uni2094" unicode="&#x2094;" 
d="M287 390q102 0 140 -46.5t38 -170.5q0 -135 -38 -186t-140 -51q-93 0 -127.5 52t-34.5 191h278q-1 87 -27 120.5t-89 33.5q-40 0 -62 -15.5t-40 -56.5l-50 34q25 54 57 74.5t95 20.5zM287 -7q59 0 85 28.5t30 100.5h-213q7 -73 28.5 -101t69.5 -28z" />
    <glyph glyph-name="uni2095" unicode="&#x2095;" 
d="M143 -59v574h62v-193q18 39 42 53.5t71 14.5q94 0 129 -54t35 -197v-198h-62v198q0 110 -22 152t-80 42q-64 0 -88.5 -42t-24.5 -153v-197h-62z" />
    <glyph glyph-name="uni2096" unicode="&#x2096;" 
d="M166 -59v574h62v-317h37l128 150h75l-148 -177l188 -230h-75l-164 200h-41v-200h-62z" />
    <glyph glyph-name="uni2097" unicode="&#x2097;" 
d="M368 -64q-69 0 -95 44.5t-26 162.5v315h-81v57h143v-372q0 -86 12.5 -118t46.5 -32q28 0 77 41l36 -54q-71 -44 -113 -44z" />
    <glyph glyph-name="uni2098" unicode="&#x2098;" 
d="M91 -59v444h62v-47q17 29 33 40.5t39 11.5q32 0 49 -16.5t31 -60.5q23 44 44.5 60.5t53.5 16.5q56 0 77.5 -42t21.5 -154v-253h-62v253q0 74 -9 102t-34 28q-38 0 -52 -28t-14 -101v-254h-62v247q0 78 -10.5 107t-39.5 29q-38 0 -52 -27.5t-14 -101.5v-254h-62z" />
    <glyph glyph-name="uni2099" unicode="&#x2099;" 
d="M130 -59v444h62v-64q31 39 58 54t69 15q85 0 117.5 -48t32.5 -174v-227h-62v227q0 94 -19 129.5t-69 35.5q-73 0 -100 -33t-27 -121v-238h-62z" />
    <glyph glyph-name="uni209A" unicode="&#x209a;" 
d="M135 -205v590h62v-43q19 28 42.5 38t67.5 10q98 0 134.5 -48.5t36.5 -177.5q0 -130 -36.5 -179t-134.5 -49q-45 0 -69 13t-41 47v-201h-62zM307 -7q62 0 85.5 37t23.5 134q0 96 -23.5 132.5t-85.5 36.5t-86 -19.5t-24 -70.5v-99q0 -86 24 -118.5t86 -32.5z" />
    <glyph glyph-name="uni209B" unicode="&#x209b;" 
d="M293 -64q-60 0 -93.5 19.5t-62.5 72.5l49 40q20 -43 43 -59t64 -16q70 0 97 15t27 55q0 33 -24 50.5t-89 32.5q-89 20 -123.5 47t-34.5 77q0 68 35.5 94t128.5 26q61 0 95 -17t64 -61l-45 -43q-22 37 -46.5 50.5t-67.5 13.5q-58 0 -80 -14t-22 -49q0 -25 21 -38.5
t77 -26.5q98 -23 135.5 -53.5t37.5 -88.5q0 -72 -40 -99.5t-146 -27.5z" />
    <glyph glyph-name="uni209C" unicode="&#x209c;" 
d="M348 -7q28 0 43.5 13t29.5 48l58 -22q-20 -55 -48 -75.5t-83 -20.5q-69 0 -95 44.5t-26 162.5v183h-89v59h89v130h62v-130h119v-59h-119v-183q0 -86 12.5 -118t46.5 -32z" />
    <glyph glyph-name="franc" unicode="&#x20a3;" 
d="M563 743h-374v-337h240v-58h-240v-124h187v-57h-187v-167h-62v167h-83v57h83v576h436v-57z" />
    <glyph glyph-name="lira" unicode="&#x20a4;" 
d="M202 57h334v-57h-454l-10 54q78 25 106.5 56t28.5 89q0 35 -27 101h-107v57h86q-15 41 -21 88h-65v57h61v12q0 169 58 233.5t209 64.5q49 0 77 -8.5t54 -30.5l-36 -46q-20 17 -39.5 22.5t-55.5 5.5q-118 0 -161.5 -50.5t-43.5 -188.5v-14h209v-57h-205q7 -45 25 -88h180
v-57h-157q21 -60 21 -101q0 -52 -14.5 -83.5t-52.5 -58.5z" />
    <glyph glyph-name="Euro" unicode="&#x20ac;" 
d="M516 762q-114 2 -192 -67.5t-102 -192.5h234v-57h-241q-2 -30 -2 -45t2 -45h241v-57h-233q24 -122 102 -192t191 -68v-57q-140 -2 -235 83.5t-121 233.5h-106v57h99q-2 30 -2 45t2 45h-99v57h106q26 148 121 233.5t235 83.5v-57z" />
    <glyph glyph-name="trademark" unicode="&#x2122;" 
d="M277 800v-57h-103v-308h-62v308h-103v57h268zM567 800l15 -365h-62l-11 217l-49 -86h-29l-49 86l-11 -217h-62l15 365h61l61 -137l60 137h61z" />
    <glyph glyph-name="uni2150" unicode="&#x2150;" 
d="M35 478h71v256q-35 -20 -82 -16l1 53q41 -5 62.5 17t17.5 62h59v-372h71v-54h-200v54zM446 800h61l-353 -800h-61zM339 376h259v-45q-113 -196 -158 -381h-61q45 185 150 371l-190 1v54z" />
    <glyph glyph-name="uni2151" unicode="&#x2151;" 
d="M35 478h71v256q-35 -20 -82 -16l1 53q41 -5 62.5 17t17.5 62h59v-372h71v-54h-200v54zM446 800h61l-353 -800h-61zM458 383q71 0 100.5 -31.5t29.5 -108.5v-150q0 -82 -29.5 -116t-100.5 -34q-75 0 -103.5 29t-25.5 100h58q-2 -46 11 -60.5t60 -14.5q42 0 57 19.5
t15 76.5l-1 25q-23 -16 -71 -16q-72 0 -100.5 31.5t-28.5 109.5q0 77 29 108.5t100 31.5zM458 156q43 0 57.5 17t14.5 70q0 51 -15 68.5t-57 17.5q-43 0 -57 -17t-14 -69q0 -54 14 -70.5t57 -16.5z" />
    <glyph glyph-name="uni2152" unicode="&#x2152;" 
d="M531 800h66l-527 -591h-66l192 215h-185v54h71v256q-35 -20 -82 -16l1 53q41 -5 62.5 17t17.5 62h59v-372h71v-37zM466 383q58 0 96 -62.5t38 -157.5t-38 -157.5t-96 -62.5t-95 62.5t-37 157.5t37 157.5t95 62.5zM291 376v-372h71v-54h-201v54h71v255q-36 -19 -81 -15v53
q41 -4 63 17t17 62h60zM466 -3q31 0 53.5 48.5t22.5 117.5q0 70 -22.5 118t-53.5 48t-52.5 -48t-21.5 -118t22 -118t52 -48zM466 202q19 0 30.5 -11t11.5 -28q0 -16 -12 -27t-30 -11t-29.5 10.5t-11.5 27.5t11.5 28t29.5 11z" />
    <glyph glyph-name="uni2153" unicode="&#x2153;" 
d="M35 478h71v256q-35 -20 -82 -16l1 53q41 -5 62.5 17t17.5 62h59v-372h71v-54h-200v54zM446 800h61l-353 -800h-61zM554 175q36 -29 36 -107q0 -68 -29 -96.5t-98 -28.5q-72 0 -99.5 28.5t-25.5 99.5l58 -1q-2 -45 10.5 -59t56.5 -14q41 0 55 14t14 57q0 45 -12 61t-47 19
h-51v54l51 -1q36 3 47.5 15t11.5 49q0 39 -14 51.5t-55 12.5q-45 0 -56.5 -12.5t-10.5 -55.5l-58 1q-2 68 25 94.5t100 26.5q69 0 98 -27t29 -91t-36 -90z" />
    <glyph glyph-name="uni2154" unicode="&#x2154;" 
d="M2 424v38q0 31 21 60t51 52.5t60.5 48t51.5 55.5t21 65q0 36 -14.5 48t-59.5 12q-48 0 -61.5 -14.5t-10.5 -61.5l-58 1q-4 71 25 100t105 29q73 0 102.5 -25.5t29.5 -88.5q0 -50 -28 -93.5t-62.5 -69t-68.5 -54t-42 -48.5h200v-54h-262zM93 0l353 800h61l-353 -800h-61z
M463 -57q-72 0 -99.5 28.5t-25.5 99.5l58 -1q-2 -45 10.5 -59t56.5 -14q41 0 55 14t14 57q0 45 -12 61t-47 19h-51v54l51 -1q36 3 47.5 15t11.5 49q0 39 -14 51.5t-55 12.5q-45 0 -56.5 -12.5t-10.5 -55.5l-58 1q-2 68 25 94.5t100 26.5q69 0 98 -27t29 -91t-36 -90
q36 -29 36 -107q0 -68 -29 -96.5t-98 -28.5z" />
    <glyph glyph-name="uni2155" unicode="&#x2155;" 
d="M35 478h71v256q-35 -20 -82 -16l1 53q41 -5 62.5 17t17.5 62h59v-372h71v-54h-200v54zM446 800h61l-353 -800h-61zM462 226q76 0 106 -31.5t30 -109.5t-30.5 -110t-105.5 -32t-103.5 27t-25.5 95h58q-2 -42 11.5 -55t59.5 -13q47 0 62.5 17.5t15.5 70.5q0 52 -15.5 69.5
t-62.5 17.5q-31 0 -72 -31h-47v235h243v-53h-185v-111q24 14 61 14z" />
    <glyph glyph-name="uni2156" unicode="&#x2156;" 
d="M2 424v38q0 31 21 60t51 52.5t60.5 48t51.5 55.5t21 65q0 36 -14.5 48t-59.5 12q-48 0 -61.5 -14.5t-10.5 -61.5l-58 1q-4 71 25 100t105 29q73 0 102.5 -25.5t29.5 -88.5q0 -50 -28 -93.5t-62.5 -69t-68.5 -54t-42 -48.5h200v-54h-262zM93 0l353 800h61l-353 -800h-61z
M462 -57q-75 0 -103.5 27t-25.5 95h58q-2 -42 11.5 -55t59.5 -13q47 0 62.5 17.5t15.5 70.5q0 52 -15.5 69.5t-62.5 17.5q-31 0 -72 -31h-47v235h243v-53h-185v-111q24 14 61 14q76 0 106 -31.5t30 -109.5t-30.5 -110t-105.5 -32z" />
    <glyph glyph-name="uni2157" unicode="&#x2157;" 
d="M130 417q-73 0 -100.5 28.5t-24.5 99.5l58 -1q-2 -45 10.5 -59t56.5 -14q41 0 55 14.5t14 56.5q0 45 -12 61t-47 19h-51v54l51 -1q36 3 47.5 15t11.5 49q0 39 -14 51.5t-55 12.5q-45 0 -57 -12.5t-10 -55.5l-58 1q-3 68 24.5 94.5t100.5 26.5q69 0 98 -27t29 -91
q0 -63 -37 -90q37 -30 37 -107q0 -68 -29 -96.5t-98 -28.5zM93 0l353 800h61l-353 -800h-61zM462 -57q-75 0 -103.5 27t-25.5 95h58q-2 -42 11.5 -55t59.5 -13q47 0 62.5 17.5t15.5 70.5q0 52 -15.5 69.5t-62.5 17.5q-31 0 -72 -31h-47v235h243v-53h-185v-111q24 14 61 14
q76 0 106 -31.5t30 -109.5t-30.5 -110t-105.5 -32z" />
    <glyph glyph-name="uni2158" unicode="&#x2158;" 
d="M180 424v108h-172v42l182 276h49v-265h37v-53h-37v-108h-59zM93 0l353 800h61l-353 -800h-61zM83 585h97v149zM462 -57q-75 0 -103.5 27t-25.5 95h58q-2 -42 11.5 -55t59.5 -13q47 0 62.5 17.5t15.5 70.5q0 52 -15.5 69.5t-62.5 17.5q-31 0 -72 -31h-47v235h243v-53h-185
v-111q24 14 61 14q76 0 106 -31.5t30 -109.5t-30.5 -110t-105.5 -32z" />
    <glyph glyph-name="uni2159" unicode="&#x2159;" 
d="M35 478h71v256q-35 -20 -82 -16l1 53q41 -5 62.5 17t17.5 62h59v-372h71v-54h-200v54zM446 800h61l-353 -800h-61zM589 254h-59q2 47 -11 61t-60 14q-42 0 -56.5 -19t-14.5 -76v-26q24 17 71 17q72 0 101 -31.5t29 -109.5q0 -77 -29.5 -109t-100.5 -32t-100 31.5
t-29 108.5v151q0 82 28.5 115.5t100.5 33.5q75 0 103.5 -28.5t26.5 -100.5zM459 171q-43 0 -57 -17t-14 -71q0 -52 14.5 -69t56.5 -17q43 0 57.5 17.5t14.5 69.5q0 53 -14.5 70t-57.5 17z" />
    <glyph glyph-name="uni215A" unicode="&#x215a;" 
d="M140 417q-75 0 -103.5 27t-25.5 95h58q-2 -42 11 -55t60 -13q46 0 62 17.5t16 70.5q0 52 -15.5 69.5t-62.5 17.5q-30 0 -73 -31h-46v235h243v-53h-186v-111q24 14 62 14q75 0 105.5 -31.5t30.5 -109.5t-30.5 -110t-105.5 -32zM93 0l353 800h61l-353 -800h-61zM459 -57
q-71 0 -100 31.5t-29 108.5v151q0 82 28.5 115.5t100.5 33.5q75 0 103.5 -28.5t26.5 -100.5h-59q2 47 -11 61t-60 14q-42 0 -56.5 -19t-14.5 -76v-26q24 17 71 17q72 0 101 -31.5t29 -109.5q0 -77 -29.5 -109t-100.5 -32zM459 -3q43 0 57.5 17.5t14.5 69.5q0 53 -14.5 70
t-57.5 17t-57 -17t-14 -71q0 -52 14.5 -69t56.5 -17z" />
    <glyph glyph-name="oneeighth" unicode="&#x215b;" 
d="M35 478h71v256q-35 -20 -82 -16l1 53q41 -5 62.5 17t17.5 62h59v-372h71v-54h-200v54zM446 800h61l-353 -800h-61zM550 177q42 -27 42 -105q0 -71 -30 -100t-104 -29q-73 0 -103 29t-30 100q0 78 42 105q-30 26 -30 89q0 64 27 90.5t94 26.5t95 -26.5t28 -90.5
q0 -63 -31 -89zM458 329q-38 0 -50.5 -12.5t-12.5 -50.5q0 -40 12.5 -52t50.5 -12q39 0 52 12.5t13 51.5q0 38 -13 50.5t-52 12.5zM458 -3q46 0 61 15t15 60q0 46 -15 61t-61 15t-60.5 -15t-14.5 -61q0 -45 15 -60t60 -15z" />
    <glyph glyph-name="threeeighths" unicode="&#x215c;" 
d="M138 417q-72 0 -100 28.5t-26 99.5l59 -1q-2 -45 10.5 -59t56.5 -14q41 0 54.5 14t13.5 57q0 45 -12 61t-47 19h-50v54l50 -1q37 3 48 15t11 49q0 39 -13.5 51.5t-54.5 12.5q-45 0 -57 -12.5t-10 -55.5l-59 1q-2 68 25.5 94.5t100.5 26.5q69 0 98 -27t29 -91
q0 -63 -37 -90q37 -30 37 -107q0 -68 -29 -96.5t-98 -28.5zM93 0l353 800h61l-353 -800h-61zM458 -57q-73 0 -103 29t-30 100q0 78 42 105q-30 26 -30 89q0 64 27 90.5t94 26.5t95 -26.5t28 -90.5q0 -63 -31 -89q42 -27 42 -105q0 -71 -30 -100t-104 -29zM458 202
q39 0 52 12.5t13 51.5q0 38 -13 50.5t-52 12.5q-38 0 -50.5 -12.5t-12.5 -50.5q0 -40 12.5 -52t50.5 -12zM458 -3q46 0 61 15t15 60q0 46 -15 61t-61 15t-60.5 -15t-14.5 -61q0 -45 15 -60t60 -15z" />
    <glyph glyph-name="fiveeighths" unicode="&#x215d;" 
d="M140 417q-75 0 -103.5 27t-25.5 95h58q-2 -42 11 -55t60 -13q46 0 62 17.5t16 70.5q0 52 -15.5 69.5t-62.5 17.5q-30 0 -73 -31h-46v235h243v-53h-186v-111q24 14 62 14q75 0 105.5 -31.5t30.5 -109.5t-30.5 -110t-105.5 -32zM93 0l353 800h61l-353 -800h-61zM458 -57
q-73 0 -103 29t-30 100q0 78 42 105q-30 26 -30 89q0 64 27 90.5t94 26.5t95 -26.5t28 -90.5q0 -63 -31 -89q42 -27 42 -105q0 -71 -30 -100t-104 -29zM458 202q39 0 52 12.5t13 51.5q0 38 -13 50.5t-52 12.5q-38 0 -50.5 -12.5t-12.5 -50.5q0 -40 12.5 -52t50.5 -12z
M458 -3q46 0 61 15t15 60q0 46 -15 61t-61 15t-60.5 -15t-14.5 -61q0 -45 15 -60t60 -15z" />
    <glyph glyph-name="seveneighths" unicode="&#x215e;" 
d="M120 424q42 179 149 371l-189 1v54h259l-1 -45q-112 -196 -158 -381h-60zM93 0l353 800h61l-353 -800h-61zM458 -57q-73 0 -103 29t-30 100q0 78 42 105q-30 26 -30 89q0 64 27 90.5t94 26.5t95 -26.5t28 -90.5q0 -63 -31 -89q42 -27 42 -105q0 -71 -30 -100t-104 -29z
M458 202q39 0 52 12.5t13 51.5q0 38 -13 50.5t-52 12.5q-38 0 -50.5 -12.5t-12.5 -50.5q0 -40 12.5 -52t50.5 -12zM458 -3q46 0 61 15t15 60q0 46 -15 61t-61 15t-60.5 -15t-14.5 -61q0 -45 15 -60t60 -15z" />
    <glyph glyph-name="uni215F" unicode="&#x215f;" 
d="M34 478h71v256q-35 -20 -82 -16l1 53q41 -5 62.5 17t17.5 62h59v-372h71v-54h-200v54zM446 800h61l-353 -800h-61z" />
    <glyph glyph-name="uni2189" unicode="&#x2189;" 
d="M157 417q-58 0 -95 62.5t-37 157.5t37 157.5t95 62.5t96 -62.5t38 -157.5t-38 -157.5t-96 -62.5zM157 471q31 0 53.5 48.5t22.5 117.5q0 70 -22.5 118t-53.5 48t-52.5 -48t-21.5 -118t22 -118t52 -48zM93 0l353 800h61l-353 -800h-61zM157 599q-18 0 -29.5 10.5
t-11.5 27.5t11.5 28t29.5 11t30 -11t12 -28q0 -16 -12 -27t-30 -11zM463 -57q-72 0 -99.5 28.5t-25.5 99.5l58 -1q-2 -45 10.5 -59t56.5 -14q41 0 55 14t14 57q0 45 -12 61t-47 19h-51v54l51 -1q36 3 47.5 15t11.5 49q0 39 -14 51.5t-55 12.5q-45 0 -56.5 -12.5t-10.5 -55.5
l-58 1q-2 68 25 94.5t100 26.5q69 0 98 -27t29 -91t-36 -90q36 -29 36 -107q0 -68 -29 -96.5t-98 -28.5z" />
    <glyph glyph-name="arrowleft" unicode="&#x2190;" 
d="M602 429v-58h-494l247 -252l-44 -40l-314 321l314 320l44 -40l-247 -251h494z" />
    <glyph glyph-name="arrowup" unicode="&#x2191;" 
d="M605 494l-43 -41l-231 232v-691h-62v691l-231 -232l-43 41l305 306z" />
    <glyph glyph-name="arrowright" unicode="&#x2192;" 
d="M291 720l313 -320l-313 -321l-44 40l246 252h-494v58h494l-246 251z" />
    <glyph glyph-name="arrowdown" unicode="&#x2193;" 
d="M562 340l43 -41l-305 -307l-305 307l43 41l231 -233v699h62v-699z" />
    <glyph glyph-name="arrowboth" unicode="&#x2194;" 
d="M390 620l213 -220l-213 -221l-44 40l146 152h-384l147 -152l-44 -40l-214 221l214 220l44 -40l-147 -151h384l-146 151z" />
    <glyph glyph-name="arrowupdn" unicode="&#x2195;" 
d="M332 200l149 144l40 -44l-220 -213l-221 213l40 44l150 -144v400l-150 -145l-40 44l221 214l220 -214l-40 -44l-149 145v-400z" />
    <glyph glyph-name="uni2196" unicode="&#x2196;" 
d="M599 260l-43 -40l-495 492v-353h-62v447h447v-58h-338z" />
    <glyph glyph-name="uni2197" unicode="&#x2197;" 
d="M150 800h447v-446h-62v352l-495 -491l-43 39l491 489h-338v57z" />
    <glyph glyph-name="uni2198" unicode="&#x2198;" 
d="M535 441h62v-447h-447v58h337l-490 488l43 40l495 -492v353z" />
    <glyph glyph-name="uni2199" unicode="&#x2199;" 
d="M599 540l-491 -488h338v-58h-447v447h62v-353l495 492z" />
    <glyph glyph-name="partialdiff" unicode="&#x2202;" 
d="M536 250v-7q-1 -149 -51 -206t-180 -57q-131 0 -181 58.5t-50 210.5t50 210.5t181 58.5q89 0 139 -25q-37 128 -114 190t-184 60v57q177 3 281.5 -132t108.5 -403v-15zM305 38q97 0 133 45t36 166v3v6q-1 116 -37 159t-132 43q-97 0 -133 -45t-36 -166t36 -166t133 -45z
" />
    <glyph glyph-name="emptyset" unicode="&#x2205;" 
d="M495 654q94 -91 94 -254q0 -148 -79.5 -238.5t-209.5 -90.5q-84 0 -149 40l-25 -40h-68l47 75q-94 91 -94 254q0 148 79.5 238.5t209.5 90.5q84 0 149 -40l25 40h68zM73 400q0 -126 66 -201l278 440q-50 32 -117 32q-103 0 -165 -74.5t-62 -196.5zM300 129
q103 0 165 74.5t62 196.5q0 126 -66 201l-278 -440q50 -32 117 -32z" />
    <glyph glyph-name="product" unicode="&#x220f;" 
d="M560 800v-57h-100v-925h-62v925h-196v-925h-62v925h-100v57h520z" />
    <glyph glyph-name="summation" unicode="&#x2211;" 
d="M33 -182l250 490l-250 492h523v-57h-427l224 -435l-224 -433h427v-57h-523z" />
    <glyph glyph-name="minus" unicode="&#x2212;" 
d="M26 371v58h548v-58h-548z" />
    <glyph glyph-name="radical" unicode="&#x221a;" 
d="M180 -182l-148 496h66l109 -370l157 856h214v-57h-161l-172 -925h-65z" />
    <glyph glyph-name="infinity" unicode="&#x221e;" 
d="M438 547q67 0 108.5 -41.5t41.5 -106.5t-42 -106t-108 -41q-72 0 -139 92q-63 -92 -137 -92q-67 0 -108.5 41t-41.5 106q0 66 42 107t109 41q73 0 136 -92q67 92 139 92zM162 310q27 0 49.5 21.5t52.5 68.5q-31 47 -53 68t-49 21q-41 0 -64.5 -23.5t-23.5 -66.5
q0 -41 23.5 -65t64.5 -24zM438 310q39 0 63.5 24t24.5 65q0 42 -23.5 66t-64.5 24q-27 0 -50 -21.5t-53 -67.5q30 -46 53 -68t50 -22z" />
    <glyph glyph-name="integral" unicode="&#x222b;" 
d="M118 -196q-40 0 -62 11t-39 40l37 43q15 -22 29 -29.5t43 -7.5q37 0 57 33t35 120l103 599q23 114 58 157.5t103 43.5q40 0 62 -11t39 -40l-37 -43q-15 22 -29 29.5t-43 7.5q-37 0 -57 -33t-35 -120l-103 -599q-19 -113 -54 -157t-107 -44z" />
    <glyph glyph-name="approxequal" unicode="&#x2248;" 
d="M418 500q-66 0 -139 67q-58 53 -97 53q-42 0 -64 -22t-20 -60h-62q-2 61 38 100t108 39q65 0 139 -68q57 -52 97 -52q42 0 64 22t20 60h62q2 -61 -38 -100t-108 -39zM418 305q-66 0 -139 67q-58 53 -97 53q-42 0 -64 -22t-20 -60h-62q-2 61 38 100t108 39q66 0 139 -67
q58 -53 97 -53q42 0 64 22t20 60h62q2 -61 -38 -100t-108 -39z" />
    <glyph glyph-name="notequal" unicode="&#x2260;" 
d="M574 491h-204l-75 -182h279v-58h-303l-61 -147h-65l61 147h-180v58h203l76 182h-279v58h302l61 147h66l-61 -147h180v-58z" />
    <glyph glyph-name="lessequal" unicode="&#x2264;" 
d="M493 252l-415 219l416 217l22 -53l-313 -166l315 -165zM84 111v57h432v-57h-432z" />
    <glyph glyph-name="greaterequal" unicode="&#x2265;" 
d="M107 252l-25 52l315 165l-313 166l22 53l416 -217zM84 111v57h432v-57h-432z" />
    <glyph glyph-name="block" unicode="&#x2588;" 
d="M-5 -250v1340h610v-1340h-610z" />
    <glyph glyph-name="lozenge" unicode="&#x25ca;" 
d="M300 0l-228 404l228 396l228 -399zM300 126l159 275l-159 275l-159 -272z" />
    <glyph glyph-name="female" unicode="&#x2640;" 
d="M329 287v-95h187v-58h-187v-130h-58v130h-187v58h187v95q-95 9 -152 72t-57 159q0 104 65.5 168t172.5 64t172.5 -64t65.5 -168q0 -96 -57 -159t-152 -72zM124 518q0 -79 48 -126.5t128 -47.5t128 47.5t48 126.5t-48 126.5t-128 47.5t-128 -47.5t-48 -126.5z" />
    <glyph glyph-name="male" unicode="&#x2642;" 
d="M229 696h367v-367h-62v266l-121 -113q57 -63 57 -160q0 -105 -63.5 -168.5t-169.5 -63.5q-104 0 -168.5 64t-64.5 168t64.5 168t168.5 64q74 0 130 -34l127 118h-265v58zM237 148q78 0 124.5 47.5t46.5 126.5q0 78 -47.5 126t-123.5 48t-123.5 -48t-47.5 -126t47.5 -126
t123.5 -48z" />
    <glyph glyph-name="uniE0A0" unicode="&#xe0a0;" 
d="M91 -230v248q0 57 8 89.5t40 78.5t102 113q105 102 111 155q5 58 5 103v85h-111l158 183l157 -183h-111v-85q0 -41 -2.5 -70t-4 -51t-12.5 -44.5t-15.5 -33.5t-27 -35t-32 -34t-44.5 -44q-86 -83 -107 -120t-21 -104v-251h-93zM91 309v701h93v-613z" />
    <glyph glyph-name="uniE0A1" unicode="&#xe0a1;" 
d="M127 370v443h86v-367h168v-76h-254zM201 -134v443h89l106 -253l-8 171v82h88v-443h-90l-105 252l7 -153v-99h-87z" />
    <glyph glyph-name="uniE0A2" unicode="&#xe0a2;" 
d="M160 82q-74 0 -74 56v275q0 61 64 61v123q0 52 44 90q43 35 106 35t106 -35q44 -38 44 -90v-123q64 0 64 -61v-275q0 -56 -74 -56h-280zM270 177h60v128q35 14 35 45q0 20 -19 35t-46 15t-46 -15t-19 -35q0 -31 35 -45v-128zM222 474h155v123q0 33 -21 53.5t-56 20.5
t-56.5 -20.5t-21.5 -53.5v-123z" />
    <glyph glyph-name="uniE0B0" unicode="&#xe0b0;" 
d="M-1 -340v1450l601 -725z" />
    <glyph glyph-name="uniE0B1" unicode="&#xe0b1;" 
d="M51 -340l-51 49l501 676l-501 676l51 49l549 -725z" />
    <glyph glyph-name="uniE0B2" unicode="&#xe0b2;" 
d="M601 -340l-601 725l601 725v-1450z" />
    <glyph glyph-name="uniE0B3" unicode="&#xe0b3;" 
d="M549 -340l-549 725l549 725l51 -49l-501 -676l501 -676z" />
    <glyph glyph-name="CR" 
 />
    <glyph glyph-name="i.loclTRK" 
d="M310 729q-41 0 -57 15t-16 53t16.5 53.5t56.5 15.5t56.5 -15.5t16.5 -53.5t-16 -53t-57 -15zM357 57h175v-57h-412v57h175v504h-126v57h188v-561z" />
    <glyph glyph-name="zero.dnom" 
d="M300 -57q-58 0 -95 62.5t-37 157.5t37 157.5t95 62.5t96 -62.5t38 -157.5t-38 -157.5t-96 -62.5zM300 -3q31 0 53.5 48.5t22.5 117.5q0 70 -22.5 118t-53.5 48t-52.5 -48t-21.5 -118t22 -118t52 -48zM300 125q-18 0 -29.5 10.5t-11.5 27.5t11.5 28t29.5 11t30 -11t12 -28
q0 -16 -12 -27t-30 -11z" />
    <glyph glyph-name="one.dnom" 
d="M330 4h71v-54h-200v54h71v256q-35 -20 -82 -16l1 53q41 -5 62.5 17t17.5 62h59v-372z" />
    <glyph glyph-name="two.dnom" 
d="M169 -50v38q0 31 21 60t51.5 52.5t60.5 48t51 55.5t21 65q0 36 -14.5 48t-59.5 12q-48 0 -61.5 -14.5t-11.5 -61.5l-58 1q-3 72 26 100.5t105 28.5q73 0 102.5 -25.5t29.5 -88.5q0 -41 -18 -76.5t-45.5 -61t-55.5 -47t-51.5 -42.5t-30.5 -38h200v-54h-262z" />
    <glyph glyph-name="three.dnom" 
d="M300 -57q-73 0 -100.5 28.5t-24.5 99.5l58 -1q-2 -45 10.5 -59t56.5 -14q41 0 55 14t14 57q0 45 -12 61t-47 19h-51v54l51 -1q36 3 47.5 15t11.5 49q0 39 -14 51.5t-55 12.5q-45 0 -56.5 -12.5t-10.5 -55.5l-58 1q-3 68 24.5 94.5t100.5 26.5q69 0 98 -27t29 -91t-37 -90
q37 -30 37 -107q0 -68 -29 -96.5t-98 -28.5z" />
    <glyph glyph-name="four.dnom" 
d="M339 -50v108h-173v42l182 276h49v-265h37v-53h-37v-108h-58zM242 111h97v149z" />
    <glyph glyph-name="five.dnom" 
d="M300 -57q-75 0 -103.5 27t-25.5 95h58q-2 -42 11 -55t60 -13t62.5 17.5t15.5 70.5q0 52 -15.5 69.5t-62.5 17.5q-31 0 -72 -31h-47v235h243v-53h-186v-111q24 14 62 14q75 0 105.5 -31.5t30.5 -109.5t-30.5 -110t-105.5 -32z" />
    <glyph glyph-name="six.dnom" 
d="M300 -57q-71 0 -100 31.5t-29 108.5v151q0 82 28.5 115.5t100.5 33.5q75 0 103.5 -28.5t25.5 -100.5h-58q2 46 -11 60.5t-60 14.5q-42 0 -56.5 -19t-14.5 -76l-1 -26q26 17 72 17q72 0 101 -31.5t29 -109.5q0 -77 -29.5 -109t-100.5 -32zM300 -3q42 0 57 17.5t15 69.5
q0 53 -14.5 70t-57.5 17t-57 -17t-14 -71q0 -52 14.5 -69t56.5 -17z" />
    <glyph glyph-name="seven.dnom" 
d="M210 -50q42 179 149 371l-189 1v54h259l-1 -45q-112 -196 -158 -381h-60z" />
    <glyph glyph-name="eight.dnom" 
d="M300 -57q-73 0 -103 29t-30 100q0 79 42 105q-30 25 -30 89t27 90.5t94 26.5t95 -26.5t28 -90.5q0 -63 -31 -89q42 -27 42 -105q0 -71 -30 -100t-104 -29zM300 202q39 0 52 12.5t13 51.5q0 38 -13 50.5t-52 12.5t-51 -12.5t-12 -50.5q0 -40 12.5 -52t50.5 -12zM300 -3
q46 0 61 15t15 60q0 46 -15 61t-61 15t-60.5 -15t-14.5 -61q0 -45 15 -60t60 -15z" />
    <glyph glyph-name="nine.dnom" 
d="M300 -57q-75 0 -103 28.5t-26 100.5h58q-2 -46 11 -60.5t60 -14.5q42 0 57 19.5t15 76.5l-1 25q-23 -16 -71 -16q-72 0 -100.5 31.5t-28.5 109.5q0 77 29 108.5t100 31.5t100.5 -31.5t29.5 -108.5v-150q0 -82 -29.5 -116t-100.5 -34zM300 156q43 0 57.5 17t14.5 70
q0 52 -14.5 69t-57.5 17q-42 0 -56.5 -17t-14.5 -69q0 -54 14 -70.5t57 -16.5z" />
    <glyph glyph-name="zero.numr" 
d="M300 417q-58 0 -95 62.5t-37 157.5t37 157.5t95 62.5t96 -62.5t38 -157.5t-38 -157.5t-96 -62.5zM300 471q31 0 53.5 48.5t22.5 117.5q0 70 -22.5 118t-53.5 48t-52.5 -48t-21.5 -118t22 -118t52 -48zM300 599q-18 0 -29.5 10.5t-11.5 27.5t11.5 28t29.5 11t30 -11
t12 -28q0 -16 -12 -27t-30 -11z" />
    <glyph glyph-name="one.numr" 
d="M330 478h71v-54h-200v54h71v256q-35 -20 -82 -16l1 53q41 -5 62.5 17t17.5 62h59v-372z" />
    <glyph glyph-name="two.numr" 
d="M169 424v38q0 31 21 60t51.5 52.5t60.5 48t51 55.5t21 65q0 36 -14.5 48t-59.5 12q-48 0 -61.5 -14.5t-11.5 -61.5l-58 1q-3 72 26 100.5t105 28.5q73 0 102.5 -25.5t29.5 -88.5q0 -41 -18 -76.5t-45.5 -61t-55.5 -47t-51.5 -42.5t-30.5 -38h200v-54h-262z" />
    <glyph glyph-name="three.numr" 
d="M300 417q-73 0 -100.5 28.5t-24.5 99.5l58 -1q-2 -45 10.5 -59t56.5 -14q41 0 55 14t14 57q0 45 -12 61t-47 19h-51v54l51 -1q36 3 47.5 15t11.5 49q0 39 -14 51.5t-55 12.5q-45 0 -56.5 -12.5t-10.5 -55.5l-58 1q-3 68 24.5 94.5t100.5 26.5q69 0 98 -27t29 -91t-37 -90
q37 -30 37 -107q0 -68 -29 -96.5t-98 -28.5z" />
    <glyph glyph-name="four.numr" 
d="M339 424v108h-173v42l182 276h49v-265h37v-53h-37v-108h-58zM242 585h97v149z" />
    <glyph glyph-name="five.numr" 
d="M300 417q-75 0 -103.5 27t-25.5 95h58q-2 -42 11 -55t60 -13t62.5 17.5t15.5 70.5q0 52 -15.5 69.5t-62.5 17.5q-31 0 -72 -31h-47v235h243v-53h-186v-111q24 14 62 14q75 0 105.5 -31.5t30.5 -109.5t-30.5 -110t-105.5 -32z" />
    <glyph glyph-name="six.numr" 
d="M300 417q-71 0 -100 31.5t-29 108.5v151q0 82 28.5 115.5t100.5 33.5q75 0 103.5 -28.5t25.5 -100.5h-58q2 46 -11 60.5t-60 14.5q-42 0 -56.5 -19t-14.5 -76l-1 -26q26 17 72 17q72 0 101 -31.5t29 -109.5q0 -77 -29.5 -109t-100.5 -32zM300 471q42 0 57 17.5t15 69.5
q0 53 -14.5 70t-57.5 17t-57 -17t-14 -71q0 -52 14.5 -69t56.5 -17z" />
    <glyph glyph-name="seven.numr" 
d="M210 424q42 179 149 371l-189 1v54h259l-1 -45q-112 -196 -158 -381h-60z" />
    <glyph glyph-name="eight.numr" 
d="M300 417q-73 0 -103 29t-30 100q0 79 42 105q-30 25 -30 89t27 90.5t94 26.5t95 -26.5t28 -90.5q0 -63 -31 -89q42 -27 42 -105q0 -71 -30 -100t-104 -29zM300 676q39 0 52 12.5t13 51.5q0 38 -13 50.5t-52 12.5t-51 -12.5t-12 -50.5q0 -40 12.5 -52t50.5 -12zM300 471
q46 0 61 15t15 60q0 46 -15 61t-61 15t-60.5 -15t-14.5 -61q0 -45 15 -60t60 -15z" />
    <glyph glyph-name="nine.numr" 
d="M300 417q-75 0 -103 28.5t-26 100.5h58q-2 -46 11 -60.5t60 -14.5q42 0 57 19.5t15 76.5l-1 25q-23 -16 -71 -16q-72 0 -100.5 31.5t-28.5 109.5q0 77 29 108.5t100 31.5t100.5 -31.5t29.5 -108.5v-150q0 -82 -29.5 -116t-100.5 -34zM300 630q43 0 57.5 17t14.5 70
q0 52 -14.5 69t-57.5 17q-42 0 -56.5 -17t-14.5 -69q0 -54 14 -70.5t57 -16.5z" />
    <glyph glyph-name="hyphen_hyphen_greater.liga" 
d="M118 758l408 -358l-408 -358l-41 42l325 287h-1488v58h1488l-325 287z" />
    <glyph glyph-name="hyphen_bar.liga" 
d="M269 775h62v-750h-62v346h-755v58h755v346z" />
    <glyph glyph-name="hyphen_greater.liga" 
d="M118 758l408 -358l-408 -358l-41 42l325 287h-888v58h888l-325 287z" />
    <glyph glyph-name="hyphen_greater_greater.liga" 
d="M-202 758l408 -358l-408 -356l-41 42l325 285h-1168v58h1168l-325 287zM118 758l408 -358l-408 -358l-41 42l358 316l-358 316z" />
    <glyph glyph-name="hyphen_less.liga" 
d="M523 716l-358 -316l358 -316l-41 -42l-375 329h-593v58h593l375 329z" />
    <glyph glyph-name="hyphen_less_less.liga" 
d="M203 716l-358 -316l358 -314l-41 -42l-375 327h-873v58h873l375 329zM523 716l-358 -316l358 -316l-41 -42l-408 358l408 358z" />
    <glyph glyph-name="hyphen_asciitilde.liga" 
d="M564 451q2 -62 -37.5 -101t-108.5 -39q-63 0 -139 68q-57 52 -97 52q-20 0 -53.5 -15t-94.5 -30t-148 -15h-372v58h372q81 0 135.5 15t89.5 30t71 15q63 0 139 -68q57 -52 97 -52q41 0 63.5 22.5t20.5 59.5h62z" />
    <glyph glyph-name="period_hyphen.liga" 
d="M-300 331q-40 0 -56.5 15.5t-16.5 53.5t16.5 53.5t56.5 15.5t56.5 -15.5t16.5 -53.5t-16.5 -53.5t-56.5 -15.5zM-81 371v58h567v-58h-567z" />
    <glyph glyph-name="period_equal.liga" 
d="M-66 491v58h640v-58h-640zM-300 331q-40 0 -56.5 15.5t-16.5 53.5t16.5 53.5t56.5 15.5t56.5 -15.5t16.5 -53.5t-16.5 -53.5t-56.5 -15.5zM-66 251v58h640v-58h-640z" />
    </font>
</defs>
</svg>
